# Blender v2.83.5 OBJ File: 'bio.blend'
# www.blender.org
mtllib bio_000006.mtl
o Cube
v -0.880369 -1.053876 -0.495614
v -0.678906 0.943155 -0.468613
v -0.741738 -1.029366 0.477066
v -0.668225 1.049403 0.463669
v -0.989018 -1.004838 -0.204838
v -0.950919 -0.975810 0.165679
v -0.858494 1.017973 0.179173
v -0.861086 0.971742 -0.189432
v -0.813947 1.262490 -0.156773
v -0.712371 1.240511 -0.332893
v -0.174186 1.232835 -0.295374
v -0.164061 1.258904 0.267870
v -0.708680 1.314213 0.247419
v -0.085738 1.232648 0.099352
v -0.812487 1.291637 0.072722
v -0.089192 1.236037 -0.097974
v -0.637322 3.864455 -0.364453
v -0.572839 3.856663 -0.477360
v -0.255300 3.855340 -0.479433
v -0.253375 3.880307 -0.106074
v -0.570920 3.881568 -0.104919
v -0.174248 3.872424 -0.219514
v -0.636562 3.874305 -0.217165
v -0.175008 3.862575 -0.366802
v -0.217489 2.566588 -0.446645
v -0.645663 2.579649 -0.444608
v -0.135242 2.578971 -0.296441
v -0.643063 2.618437 0.030556
v -0.727312 2.607010 -0.112604
v -0.214878 2.605843 0.029629
v -0.728339 2.591715 -0.300512
v -0.134285 2.593270 -0.121375
v -0.235229 2.448541 -0.416480
v -0.160759 2.464623 -0.278457
v -0.705483 2.494636 -0.110184
v -0.159772 2.483313 -0.118750
v -0.630558 2.459322 -0.414639
v -0.627866 2.510424 0.020934
v -0.232531 2.499607 0.020200
v -0.706549 2.474399 -0.282443
v -0.866409 -0.631914 -0.546954
v -0.780293 -0.550098 0.404939
v -0.914414 -0.637766 -0.347076
v -0.779360 -0.582822 -0.009533
v -1.077099 -0.564657 0.072844
v -0.920194 -0.559430 0.197434
v -1.203645 -0.726281 -0.324169
v -1.194618 -0.637596 -0.132334
v -0.959940 -0.709099 -0.469568
v -0.680224 -0.545662 0.053006
v -0.832718 -0.629672 -0.349805
v -0.726377 -0.562744 -0.141061
v -0.704504 0.370877 -0.445932
v -0.691730 0.456522 0.548539
v -0.868847 0.351266 -0.166278
v -0.860272 0.391486 0.224084
v -0.729109 -0.424908 -0.520840
v -0.679441 -0.379062 0.447481
v -0.855364 -0.445332 -0.276744
v -0.816329 -0.416313 0.097008
v -1.199694 2.125827 0.297195
v -1.115984 2.075869 0.353775
v -1.310430 2.216641 0.092107
v -1.276590 2.181498 0.193714
v -1.160608 2.276867 0.013174
v -0.966162 2.136095 0.274843
v -1.057703 2.269487 0.078395
v -0.980806 2.213816 0.181877
v -1.087741 0.974028 -0.876710
v -1.332749 0.894777 -0.744858
v -1.296700 0.851600 -0.570244
v -0.939358 0.977116 -0.761273
v -0.775315 0.807692 -0.444141
v -1.020450 0.730428 -0.312059
v -1.172663 0.778250 -0.400111
v -0.815317 0.903427 -0.591729
v -1.060236 0.653042 -0.829921
v -0.938333 0.712547 -0.743502
v -1.023302 0.770531 -0.304656
v -1.275156 0.657247 -0.702866
v -1.252320 0.719391 -0.556258
v -0.808331 0.765119 -0.432645
v -1.152821 0.765083 -0.399982
v -0.838747 0.757696 -0.585703
v -0.627759 -1.101974 0.548044
v -0.723546 -1.166264 -0.557098
v -0.820326 -1.135856 -0.321162
v -0.722340 -1.168913 0.184272
v -0.384008 -0.518428 -0.528686
v -0.322351 -0.498482 0.543141
v -0.267594 -0.286618 0.551983
v -0.312579 -0.296065 -0.521952
v -0.301873 0.087354 -0.492733
v -0.259096 0.109537 0.550239
v -0.258190 -1.354927 0.505495
v -0.412712 -2.369415 0.475689
v -0.535382 -1.352814 -0.606619
v -0.719198 -1.248185 -0.318287
v -0.618880 -1.246891 0.196823
v -0.436015 -2.135156 0.502816
v -0.529384 -2.175331 -0.547575
v -0.714785 -2.136519 -0.313448
v -0.670265 -2.136519 0.259531
v -0.497229 -2.413249 -0.426012
v -0.657552 -2.413249 -0.246713
v -0.615103 -2.413249 0.226109
v -0.436257 -1.748111 0.500500
v -0.665721 -1.745901 0.272309
v -0.703626 -1.745901 -0.346297
v -0.524059 -1.827226 -0.616108
v -0.386678 -2.509347 0.442769
v -0.417529 -2.509347 -0.212641
v -0.532294 -2.509347 -0.156308
v -0.494751 -2.509347 0.216837
v -0.459712 -1.236344 0.458872
v -0.460662 -2.413249 0.446373
v -0.488437 -1.745901 0.474531
v -0.488169 -2.136519 0.477853
v -1.331703 2.025021 -0.042978
v -1.293124 1.982111 0.079829
v -0.919131 1.928494 0.176013
v -1.200971 1.915395 0.203841
v -0.938656 2.020841 0.065643
v -1.152156 2.097196 -0.137571
v -1.030809 2.087557 -0.058369
v -1.098680 1.856318 0.270606
v -1.369191 2.065773 -0.039969
v -1.363720 2.154986 0.017210
v -1.214684 2.022692 0.285012
v -1.103643 1.966698 0.367199
v -1.317535 2.097153 0.146603
v -1.163327 2.235540 -0.088365
v -0.903251 2.047253 0.261624
v -1.024767 2.214841 -0.007639
v -0.921916 2.140379 0.130770
v -1.323402 2.004640 0.095953
v -0.889791 1.953610 0.214494
v -1.216322 1.927117 0.240052
v -0.911518 2.049644 0.079468
v -1.160560 2.149639 -0.149884
v -1.018598 2.127166 -0.064631
v -1.098422 1.869744 0.324409
v -0.588447 3.583038 -0.470134
v -0.587049 3.424961 -0.052188
v -0.245712 3.421059 -0.053267
v -0.656853 3.591295 -0.350491
v -0.247115 3.579071 -0.472185
v -0.166415 3.586847 -0.351431
v -0.656684 3.417265 -0.171130
v -0.166261 3.412631 -0.174834
v -0.232102 3.918209 0.461754
v -0.290554 3.926008 0.575089
v -0.525736 3.926934 0.575826
v -0.574503 3.919602 0.463494
v -0.537154 3.736873 0.599759
v -0.284353 3.733331 0.599131
v -0.588887 3.729104 0.480726
v -0.225671 3.724988 0.477669
v -0.570357 3.888863 0.004168
v -0.636000 3.881599 -0.108078
v -0.244501 3.616291 0.032302
v -0.585837 3.620193 0.033381
v -0.655473 3.612497 -0.085561
v -0.252813 3.887602 0.003013
v -0.173686 3.879719 -0.110428
v -0.165050 3.607863 -0.089265
v 0.891287 -1.037343 -0.486750
v 0.646256 1.258321 -0.343964
v 0.731134 -1.058046 0.485362
v 0.687842 0.736377 0.416976
v -0.023456 1.160759 -0.412770
v 0.026302 -1.114514 0.570145
v 0.016031 1.061857 0.450210
v -0.029830 -1.175966 -0.655389
v 0.996970 -1.003743 -0.169460
v 0.941794 -1.009619 0.207958
v 0.860009 0.904449 0.194993
v 0.844018 1.130074 -0.099404
v -0.016754 1.239084 -0.122765
v -0.004138 1.162609 0.237071
v 0.775118 1.307196 0.132535
v 0.665314 1.406291 -0.008674
v 0.133049 1.312582 -0.105059
v 0.155821 1.032745 0.396068
v 0.690406 1.046463 0.451859
v 0.066524 1.132931 0.220756
v 0.785040 1.164896 0.314661
v 0.058859 1.221412 0.046889
v 0.639624 2.776448 -0.164671
v 0.572664 2.687431 -0.232175
v 0.256893 2.710646 -0.256448
v 0.264399 3.021906 -0.048889
v 0.580151 2.997926 -0.025127
v 0.182864 2.933595 -0.117757
v 0.642585 2.899239 -0.082790
v 0.179903 2.810804 -0.199638
v 0.073817 2.068752 0.791239
v 0.500697 2.057524 0.811639
v -0.002913 2.136249 0.877840
v 0.513218 2.283759 1.101376
v 0.592534 2.210140 1.019022
v 0.086434 2.286509 1.083766
v 0.587625 2.119594 0.904408
v 0.001669 2.219458 0.984889
v 0.085892 2.195701 0.799848
v 0.018059 2.144449 0.900571
v 0.567238 2.126876 1.044481
v 0.024441 2.083839 1.020305
v 0.478711 2.234190 0.814823
v 0.496100 2.065855 1.142410
v 0.103318 2.030887 1.127165
v 0.560328 2.194128 0.914996
v 0.887239 -0.548347 -0.567925
v 0.774520 -0.576088 0.386566
v -0.029716 -0.433733 -0.567952
v 0.029424 -0.433733 0.567953
v 0.933464 -0.556500 -0.283904
v 0.780019 -0.580008 0.068522
v 1.071976 -0.640479 0.212590
v 0.908458 -0.671963 0.323096
v 1.219830 -0.647481 -0.212216
v 1.200456 -0.634437 0.000920
v 0.984461 -0.570613 -0.366144
v 0.676762 -0.591793 0.171391
v 0.851013 -0.531166 -0.228864
v 0.733481 -0.539440 -0.015152
v 0.706897 0.710745 -0.651971
v 0.751668 0.292861 0.202435
v -0.023593 0.540652 -0.523069
v 0.030656 0.495399 0.484070
v 0.894958 0.583176 -0.426206
v 0.903564 0.400200 -0.096607
v 0.742816 -0.322770 -0.611706
v 0.692545 -0.396676 0.344109
v -0.029161 -0.263085 -0.559145
v 0.029071 -0.263085 0.559146
v 0.877836 -0.351972 -0.350659
v 0.829202 -0.387682 0.017003
v 1.149533 1.426624 1.634367
v 1.063101 1.355107 1.645283
v 1.272290 1.617521 1.529200
v 1.232260 1.530400 1.588460
v 1.127107 1.716280 1.490819
v 0.917917 1.453866 1.606902
v 1.020151 1.674683 1.532386
v 0.937423 1.570907 1.578293
v 1.138283 1.173272 0.001293
v 1.375576 1.030703 0.079029
v 1.329052 0.900073 0.193024
v 0.982908 1.117875 0.087207
v 0.801710 0.809775 0.236311
v 1.039124 0.669207 0.315525
v 1.195494 0.748731 0.280273
v 0.849394 0.966527 0.173612
v 1.107913 0.839070 -0.132854
v 0.981491 0.860716 -0.037616
v 1.042363 0.733747 0.382751
v 1.315514 0.786091 -0.006465
v 1.284653 0.783077 0.149213
v 0.834782 0.785997 0.254610
v 1.176839 0.764075 0.302394
v 0.873457 0.840196 0.116867
v 0.628729 -1.121749 0.540663
v 0.721607 -1.158058 -0.568286
v 0.828037 -1.133342 -0.311196
v 0.717199 -1.184231 0.194722
v 0.343392 -0.505308 -0.567276
v 0.362987 -0.506376 0.497174
v 0.320507 -0.297517 0.464091
v 0.268159 -0.278524 -0.568067
v -0.024449 0.151107 -0.555130
v 0.032556 0.122127 0.523283
v 0.265146 0.179218 -0.603947
v 0.321067 0.069226 0.400278
v 0.300910 -1.354927 0.482013
v 0.026188 -1.199953 0.553238
v 0.465730 -2.369415 0.423918
v -0.032702 -1.351849 -0.674918
v 0.030380 -2.453916 0.515484
v 0.500152 -1.350557 -0.639430
v 0.719872 -1.248772 -0.324008
v 0.617543 -1.257625 0.194484
v 0.490270 -2.135156 0.450256
v 0.032386 -2.136519 0.549520
v -0.034669 -2.175331 -0.588265
v 0.465495 -2.175331 -0.603099
v 0.677852 -2.136519 -0.387647
v 0.694600 -2.136519 0.185940
v -0.027412 -2.413249 -0.465115
v 0.444183 -2.413249 -0.481101
v 0.625124 -2.413249 -0.320310
v 0.637199 -2.413249 0.153351
v 0.485182 -1.748111 0.453860
v 0.688255 -1.745901 0.211457
v 0.671843 -1.745901 -0.406261
v -0.037764 -1.827226 -0.654266
v 0.459383 -1.827226 -0.666382
v 0.032373 -1.745901 0.552752
v 0.436010 -2.509347 0.394284
v 0.029000 -2.550014 0.492070
v 0.010398 -2.550014 0.176439
v -0.014386 -2.550014 -0.244104
v -0.003092 -2.550014 -0.052456
v 0.389662 -2.509347 -0.260213
v 0.510249 -2.509347 -0.217750
v 0.516796 -2.509347 0.157221
v 0.481610 -1.243643 0.433309
v 0.509905 -2.413249 0.389172
v 0.533629 -1.745901 0.423865
v 0.538839 -2.136519 0.420141
v 0.025555 -1.353683 0.529459
v 0.030738 -2.408721 0.521550
v 1.306258 1.540810 1.309245
v 1.260200 1.435102 1.380768
v 0.881577 1.344685 1.402362
v 1.161059 1.310737 1.435783
v 0.906867 1.483647 1.368584
v 1.132271 1.659162 1.263248
v 1.006008 1.608011 1.313569
v 1.055565 1.226333 1.448358
v 1.342694 1.571133 1.338020
v 1.331691 1.610081 1.436104
v 1.167222 1.349813 1.565106
v 1.051893 1.259096 1.591367
v 1.277873 1.488616 1.503705
v 1.137504 1.742173 1.384768
v 0.857707 1.391188 1.540032
v 0.994171 1.681599 1.428704
v 0.883521 1.542796 1.490106
v 1.288887 1.443161 1.408988
v 0.849223 1.343240 1.446221
v 1.173687 1.298651 1.472914
v 0.878322 1.499569 1.394830
v 1.140524 1.708656 1.284574
v 0.993522 1.644078 1.330904
v 1.051394 1.205718 1.499667
v 0.558460 2.526630 -0.010575
v 0.547323 2.762643 0.368688
v 0.207639 2.787011 0.345256
v 0.629492 2.620953 0.060963
v 0.218756 2.550188 -0.034548
v 0.141565 2.657147 0.026752
v 0.613559 2.658062 0.307591
v 0.125576 2.691953 0.271843
v 0.257572 3.496732 0.265444
v 0.318548 3.586580 0.332748
v 0.552400 3.568720 0.350281
v 0.598054 3.471287 0.291342
v 0.543446 3.471977 0.515770
v 0.291801 3.489766 0.499034
v 0.591880 3.368727 0.453319
v 0.230392 3.393165 0.427192
v 0.582344 3.088869 0.035517
v 0.644778 2.990182 -0.022146
v 0.229263 2.972873 0.243155
v 0.568948 2.948505 0.266588
v 0.635184 2.843925 0.205491
v 0.266592 3.112849 0.011755
v 0.185057 3.024538 -0.057113
v 0.147201 2.877815 0.169743
vn -0.2480 0.0096 0.9687
vn 0.1025 -0.8757 0.4719
vn -0.8192 0.1592 -0.5509
vn -0.6298 -0.7166 0.2998
vn -0.8329 0.3166 0.4540
vn -0.6068 -0.7857 0.1201
vn -0.0415 0.9991 0.0016
vn -0.1733 -0.1910 0.9662
vn -0.7444 -0.6460 -0.1692
vn -0.8294 0.0173 0.5584
vn 0.0314 0.0274 -0.9991
vn 0.0807 0.1381 0.9871
vn 0.4623 0.8705 0.1688
vn -0.9868 0.1616 -0.0142
vn 0.0356 0.6354 0.7714
vn 0.5332 0.7832 0.3198
vn -0.1809 0.7175 -0.6727
vn -0.8583 0.1509 0.4905
vn 0.9185 -0.0046 -0.3954
vn 0.0679 -0.0955 -0.9931
vn -0.8655 0.0245 -0.5003
vn 0.9983 0.0562 -0.0165
vn -0.9961 0.0878 -0.0042
vn 0.9067 0.1301 0.4011
vn -0.0134 0.0346 -0.9993
vn -0.9497 -0.2887 0.1216
vn -0.8279 0.3984 -0.3949
vn -0.8546 0.4323 0.2878
vn -0.0333 0.0250 0.9991
vn -0.6215 -0.0139 0.7833
vn -0.8545 -0.5035 0.1273
vn -0.5969 -0.0774 -0.7986
vn 0.3078 -0.9484 0.0756
vn 0.3656 -0.9307 0.0052
vn -0.8317 0.1108 0.5440
vn -0.8366 0.0157 -0.5475
vn -1.0000 0.0033 0.0066
vn 0.0069 0.1856 0.9826
vn 0.0257 0.1751 -0.9842
vn -0.0658 -0.0246 0.9975
vn -0.8794 -0.0699 0.4708
vn -0.8625 0.0552 -0.5030
vn -0.9979 -0.0587 0.0280
vn 0.6247 -0.1741 -0.7612
vn -0.9974 -0.0344 0.0628
vn -0.4956 -0.2561 -0.8299
vn 0.4698 0.3434 0.8133
vn -0.8530 0.1222 0.5074
vn -0.5816 0.2429 0.7763
vn 0.9726 0.0091 -0.2321
vn 0.8978 -0.0700 -0.4349
vn -0.2220 0.0120 -0.9750
vn -0.2807 -0.0726 0.9571
vn -0.2991 0.1184 0.9468
vn -0.1358 0.0515 -0.9894
vn -0.1367 0.1159 -0.9838
vn -0.6597 -0.7416 -0.1214
vn -0.6462 -0.7528 0.1254
vn -0.7236 -0.6568 -0.2121
vn -0.0486 0.0951 -0.9943
vn 0.0826 0.1079 0.9907
vn -0.0245 0.0049 0.9997
vn -0.2362 0.0802 -0.9684
vn -0.0805 -0.1914 -0.9782
vn -0.9970 0.0091 0.0775
vn -0.1376 0.1222 -0.9829
vn -0.4798 -0.8153 0.3243
vn -0.0727 -0.4616 -0.8841
vn -0.9749 -0.2049 0.0875
vn -0.7110 -0.3004 -0.6358
vn -0.7519 0.0051 0.6592
vn -0.8354 -0.0223 -0.5492
vn -0.2538 -0.8174 -0.5172
vn -0.7353 -0.5793 0.3517
vn -0.1370 -0.2326 0.9629
vn -0.7595 -0.1476 0.6335
vn -0.8426 0.0039 -0.5386
vn -0.7505 0.0625 0.6579
vn -0.9929 0.1024 0.0608
vn -0.1346 0.0166 -0.9908
vn -0.0782 -0.9969 0.0079
vn -0.0545 -0.9923 -0.1110
vn -0.0773 -0.9963 0.0370
vn -0.6198 -0.7823 0.0624
vn -0.0333 -0.9159 -0.4001
vn -0.1943 0.0548 0.9794
vn -0.4318 0.0051 0.9019
vn -0.4174 -0.1436 0.8973
vn -0.4317 0.1843 0.8830
vn -0.1135 -0.1313 0.9848
vn 0.3418 0.1609 0.9259
vn 0.2479 0.9687 -0.0125
vn 0.7524 0.5857 -0.3013
vn 0.6134 -0.7347 0.2896
vn 0.8137 -0.0716 0.5769
vn 0.7218 -0.6863 0.0891
vn -0.4067 0.8843 -0.2294
vn 0.0277 -0.6793 0.7333
vn 0.8161 -0.5363 -0.2150
vn 0.4994 0.1306 0.8565
vn -0.0011 0.0009 -1.0000
vn 0.2357 -0.3955 0.8877
vn -0.2495 0.9454 0.2097
vn 0.9678 0.2223 0.1178
vn 0.3765 0.7172 0.5864
vn 0.4304 0.8311 0.3522
vn -0.0913 0.9107 -0.4029
vn 0.8709 -0.1562 0.4659
vn -0.9204 0.2547 -0.2966
vn 0.0005 0.7157 -0.6984
vn 0.8222 0.4837 -0.2999
vn -0.9982 -0.0577 0.0147
vn 0.9825 0.1688 0.0784
vn -0.9095 -0.2903 0.2974
vn -0.0947 -0.0349 -0.9949
vn 0.9396 0.3058 0.1540
vn 0.8133 0.4488 -0.3704
vn 0.9158 -0.1327 0.3790
vn 0.0498 0.0918 0.9945
vn 0.8006 -0.1211 0.5868
vn 0.8465 -0.5197 0.1157
vn 0.8961 -0.0655 -0.4390
vn 0.1276 -0.9917 0.0144
vn -0.4307 -0.8685 -0.2455
vn 0.9022 -0.1549 0.4026
vn 0.8093 0.3535 -0.4691
vn 0.9962 0.0858 0.0117
vn -0.0709 -0.5687 0.8195
vn -0.2097 0.1713 -0.9626
vn 0.2449 0.2001 0.9487
vn 0.8943 -0.0199 0.4471
vn 0.7689 0.0018 -0.6394
vn 0.9991 -0.0214 -0.0379
vn -0.6797 0.1773 -0.7117
vn 0.9923 -0.0799 0.0951
vn 0.5638 0.0803 -0.8220
vn -0.5438 0.0162 0.8391
vn 0.8521 -0.0965 0.5144
vn 0.5694 -0.0889 0.8172
vn -0.9584 0.1254 -0.2562
vn -0.8705 0.1336 -0.4736
vn -0.0295 0.0100 -0.9995
vn 0.2978 0.3466 0.8895
vn 0.3554 0.2177 0.9090
vn -0.0273 0.0516 -0.9983
vn 0.0242 0.1170 -0.9928
vn 0.6276 -0.7557 -0.1871
vn 0.5833 -0.8109 0.0462
vn 0.7220 -0.6503 -0.2364
vn -0.0592 -0.0409 -0.9974
vn 0.3819 0.0792 0.9208
vn 0.3232 0.1617 0.9324
vn -0.1888 0.0684 -0.9796
vn -0.0239 -0.1864 -0.9822
vn 0.9995 0.0180 -0.0266
vn 0.1064 0.2347 -0.9662
vn 0.4869 -0.8293 0.2743
vn -0.0264 -0.4542 -0.8905
vn 0.9806 -0.1938 -0.0286
vn 0.6927 -0.3773 -0.6147
vn 0.8085 0.0052 0.5885
vn 0.7771 -0.0180 -0.6291
vn 0.2861 -0.9025 -0.3220
vn 0.5969 -0.7348 0.3222
vn 0.2638 -0.1522 0.9525
vn 0.8236 -0.1474 0.5477
vn 0.8180 0.0161 -0.5750
vn 0.8683 0.0807 0.4895
vn 0.9699 0.1472 0.1939
vn 0.0662 0.0507 -0.9965
vn 0.0785 -0.9969 -0.0014
vn 0.0999 -0.9950 -0.0059
vn 0.0980 -0.9952 -0.0058
vn 0.6330 -0.7740 -0.0161
vn -0.0136 -0.9157 -0.4017
vn 0.1672 -0.1514 0.9742
vn 0.5264 -0.0010 0.8502
vn 0.5181 -0.1490 0.8423
vn 0.5119 0.1798 0.8400
vn 0.2284 -0.1313 0.9647
vn -0.1009 -0.1209 0.9875
vn -0.6993 0.6995 -0.1475
vn -0.8393 0.1932 -0.5082
vn -0.6376 -0.7110 0.2966
vn -0.8096 0.2921 0.5092
vn -0.7407 -0.6643 0.1002
vn 0.2458 0.9343 -0.2580
vn -0.0386 -0.5856 0.8097
vn -0.8150 -0.5104 0.2743
vn -0.0600 0.9982 -0.0045
vn -0.4221 -0.0957 -0.9015
vn 0.0185 0.0601 0.9980
vn -0.0359 0.9992 0.0178
vn -0.9869 0.1608 -0.0132
vn 0.0020 0.6802 0.7330
vn 0.5285 0.8411 0.1146
vn 0.0691 0.4206 -0.9046
vn -0.8585 0.1508 0.4901
vn 0.8802 -0.0031 -0.4746
vn -0.0065 -0.0665 -0.9978
vn -0.8647 0.0246 -0.5018
vn 0.9983 0.0563 -0.0128
vn -0.9961 0.0879 -0.0048
vn 0.8845 0.1305 0.4479
vn 0.0096 0.1189 -0.9929
vn -0.9254 0.1580 0.3445
vn -0.8095 0.5594 -0.1780
vn -0.9739 -0.2263 0.0157
vn -0.0710 0.0035 0.9975
vn -0.8285 0.0184 0.5597
vn -0.8376 -0.1377 0.5287
vn -0.5089 -0.0525 -0.8592
vn 0.3517 -0.9361 -0.0012
vn 0.1038 -0.9613 0.2553
vn -0.8897 0.0352 0.4551
vn -0.8619 -0.0081 -0.5071
vn -0.9997 0.0133 0.0206
vn -0.0170 0.1948 0.9807
vn -0.1039 -0.0347 -0.9940
vn -0.0282 0.0515 0.9983
vn -0.9220 -0.1086 0.3717
vn -0.8884 0.0702 -0.4536
vn -0.9938 -0.0316 0.1062
vn 0.7208 -0.1272 -0.6814
vn -0.9884 0.0054 0.1517
vn -0.4822 -0.2544 -0.8383
vn 0.4866 0.3449 0.8027
vn -0.8790 0.1145 0.4628
vn -0.6088 0.2385 0.7567
vn 0.9805 0.0175 -0.1957
vn 0.8533 -0.0838 -0.5146
vn -0.1388 0.0791 -0.9872
vn -0.2510 0.0245 0.9677
vn -0.4131 0.2163 0.8846
vn -0.1265 0.0706 -0.9894
vn -0.1378 0.1153 -0.9837
vn -0.6145 -0.7741 -0.1523
vn -0.5858 -0.8082 0.0607
vn -0.7155 -0.6647 -0.2150
vn -0.0264 0.0767 -0.9967
vn 0.0871 0.1045 0.9907
vn 0.0877 0.0916 0.9919
vn -0.1133 0.0031 -0.9936
vn -0.0769 -0.1864 -0.9795
vn -0.9976 0.0336 0.0611
vn -0.1340 0.1115 -0.9847
vn -0.5979 -0.7462 0.2928
vn -0.0736 -0.4602 -0.8848
vn -0.9799 -0.1843 0.0761
vn -0.7557 -0.3761 -0.5361
vn -0.7679 -0.0120 0.6405
vn -0.7880 -0.1073 -0.6062
vn -0.3207 -0.9027 -0.2868
vn -0.5561 -0.7340 0.3899
vn -0.1501 -0.1522 0.9769
vn -0.7975 -0.2265 0.5592
vn -0.8337 -0.0089 -0.5522
vn -0.8470 0.1564 0.5081
vn -0.9807 -0.0414 0.1911
vn -0.0782 -0.0424 -0.9960
vn -0.0799 -0.9968 0.0047
vn -0.0999 -0.9950 0.0059
vn -0.0980 -0.9952 0.0058
vn -0.6332 -0.7719 0.0569
vn -0.1258 -0.8469 -0.5167
vn -0.0825 -0.1520 0.9849
vn -0.4453 0.0073 0.8954
vn -0.4240 -0.1457 0.8939
vn -0.2020 0.0415 0.9785
vn -0.1605 -0.4214 0.8926
vn 0.3415 0.1606 0.9261
vn -0.3122 -0.9495 -0.0307
vn 0.7889 0.5785 -0.2074
vn 0.5738 -0.7610 0.3029
vn 0.8300 -0.0173 0.5576
vn 0.5897 -0.8011 0.1027
vn -0.4490 0.8458 0.2882
vn 0.2331 -0.1891 0.9539
vn 0.8486 -0.5178 0.1088
vn 0.4701 0.8387 -0.2748
vn 0.5066 -0.1371 -0.8512
vn 0.0790 0.0615 0.9950
vn 0.4317 0.8114 0.3939
vn 0.9673 0.2227 0.1213
vn -0.1004 -0.1104 0.9888
vn 0.3172 0.8839 0.3436
vn -0.0887 0.9131 -0.3979
vn 0.8457 -0.1793 0.5026
vn -0.8516 0.3351 -0.4030
vn -0.0414 0.6999 -0.7130
vn 0.7482 0.5315 -0.3971
vn -0.9978 -0.0623 0.0216
vn 0.9812 0.1878 0.0452
vn -0.8269 -0.3599 0.4320
vn -0.0171 -0.2010 -0.9794
vn 0.9123 -0.1292 0.3886
vn 0.9653 0.2133 -0.1510
vn 0.9086 0.4176 0.0106
vn 0.2080 0.0022 0.9781
vn 0.5749 -0.2127 0.7901
vn 0.8204 -0.2955 0.4895
vn 0.5669 0.0982 -0.8179
vn -0.2184 -0.9203 -0.3247
vn -0.3636 -0.9015 -0.2348
vn 0.8311 -0.1407 0.5381
vn 0.8070 0.3565 -0.4708
vn 0.9969 0.0766 0.0165
vn 0.0212 -0.5900 0.8071
vn 0.0178 0.4917 -0.8706
vn 0.3150 0.0496 0.9478
vn 0.9227 0.0001 0.3855
vn 0.8845 -0.0536 -0.4635
vn 0.9895 -0.0756 0.1235
vn -0.5755 0.1640 -0.8012
vn 0.9782 -0.0782 0.1924
vn 0.5349 0.0922 -0.8399
vn -0.5237 0.0086 0.8519
vn 0.8192 -0.1076 0.5633
vn 0.5261 -0.0933 0.8453
vn -0.9671 0.1196 -0.2245
vn -0.8193 0.1527 -0.5527
vn -0.1583 -0.0782 -0.9843
vn 0.3513 0.2158 0.9111
vn 0.2823 0.1682 0.9445
vn 0.0012 -0.0031 -1.0000
vn 0.1133 0.0672 -0.9913
vn 0.6777 -0.7199 -0.1495
vn 0.6091 -0.7893 0.0768
vn 0.6797 -0.6892 -0.2511
vn -0.0985 -0.0784 -0.9920
vn 0.4054 0.0975 0.9089
vn 0.4035 0.0812 0.9114
vn -0.1733 0.0812 -0.9815
vn -0.0292 -0.1793 -0.9834
vn 0.9995 0.0140 -0.0292
vn 0.0658 0.1091 -0.9919
vn 0.5530 -0.7520 0.3588
vn -0.0301 -0.4602 -0.8873
vn 0.9794 -0.2002 -0.0250
vn 0.6347 -0.2948 -0.7143
vn 0.8324 -0.0226 0.5536
vn 0.7177 -0.1123 -0.6872
vn 0.1927 -0.8145 -0.5473
vn 0.7715 -0.5793 0.2629
vn 0.2491 -0.2326 0.9401
vn 0.8560 -0.2320 0.4621
vn 0.7789 -0.0312 -0.6264
vn 0.8009 0.1363 0.5831
vn 0.9954 -0.0918 -0.0264
vn -0.0243 -0.0431 -0.9988
vn 0.0799 -0.9968 -0.0047
vn 0.0411 -0.9923 -0.1166
vn 0.0811 -0.9963 0.0276
vn 0.6236 -0.7817 -0.0109
vn 0.0642 -0.8469 -0.5279
vn 0.2554 0.0084 0.9668
vn 0.5269 -0.0011 0.8499
vn 0.5162 -0.1484 0.8435
vn 0.2555 0.0083 0.9668
vn 0.2643 -0.4214 0.8675
vn -0.0843 0.0576 0.9948
vn -0.0992 0.0059 0.9951
vn -0.1112 -0.1009 0.9887
vn 0.1698 0.0614 0.9836
vn 0.2119 -0.0063 0.9773
vn 0.2266 -0.1009 0.9688
vn -0.1109 0.0376 0.9931
vn -0.1108 -0.0082 0.9938
vn -0.0988 -0.1242 0.9873
vn 0.2134 0.0301 0.9765
vn 0.2133 -0.0081 0.9769
vn 0.2104 -0.1310 0.9688
vn -0.9913 0.0840 0.1011
vn 0.8145 -0.0070 -0.5802
vn -0.0066 -0.0264 -0.9996
vn 0.0037 0.9978 -0.0667
vn -0.8667 0.0363 -0.4975
vn 0.9997 0.0191 0.0180
vn -0.9975 0.0713 0.0004
vn -0.0106 -0.9792 0.2026
vn 0.8605 -0.1851 0.4747
vn -0.9836 -0.1785 0.0271
vn 0.9742 -0.2255 0.0131
vn -0.8533 -0.2244 -0.4708
vn -0.0005 -0.0888 0.9961
vn 0.8620 -0.2607 -0.4347
vn -0.8423 -0.1525 0.5170
vn -0.0112 -0.2460 -0.9692
vn 0.6737 -0.3135 -0.6692
vn -0.8983 0.2254 0.3771
vn 0.5079 -0.2851 -0.8129
vn 0.0273 0.7690 0.6386
vn -0.1706 0.9123 0.3723
vn -0.0728 0.8547 0.5139
vn 0.3407 0.8676 -0.3622
vn -0.5835 0.0338 0.8114
vn -0.7369 -0.6738 -0.0548
vn 0.7120 0.6833 -0.1615
vn -0.3627 -0.2677 -0.8926
vn 0.8548 -0.1579 -0.4943
vn 0.7681 -0.6286 -0.1221
vn -0.4950 -0.7415 0.4530
vn -0.8310 -0.2251 0.5088
vn -0.5004 0.1226 -0.8570
vn -0.4251 -0.1661 -0.8898
vn -0.9668 -0.2082 0.1481
vn 0.6139 -0.0505 -0.7878
vn 0.8326 0.3463 -0.4324
vn 0.9708 0.1988 -0.1342
vn -0.6481 -0.3697 0.6658
vn -0.8294 -0.2765 0.4855
vn 0.5435 -0.3557 0.7603
vn -0.5317 0.4441 -0.7211
vn -0.9786 -0.1080 0.1753
vn 0.5031 0.4914 -0.7109
vn 0.4907 0.4989 -0.7144
vn -0.9559 -0.1147 0.2704
vn -0.5520 0.4737 -0.6863
vn 0.5385 -0.3158 0.7812
vn -0.8360 -0.2218 0.5019
vn -0.6616 -0.3099 0.6828
vn 0.9857 0.1631 -0.0426
vn 0.8330 0.3416 -0.4353
vn 0.8341 0.4807 0.2705
vn -0.7908 0.0428 0.6106
vn 0.8392 -0.3702 -0.3983
vn -0.4927 0.8105 -0.3167
vn -0.5249 -0.8495 0.0525
vn 0.4103 0.1568 0.8984
vn -0.5940 -0.8044 0.0086
vn 0.4590 -0.8625 0.2130
vn 0.0043 0.1018 0.9948
vn 0.8367 0.0866 0.5408
vn -0.9945 0.0748 0.0735
vn 0.9992 0.0384 -0.0086
vn -0.8655 0.0366 -0.4996
vn -0.0055 -0.0254 -0.9997
vn 0.8316 -0.0046 -0.5554
vn -0.8604 0.1109 0.4975
vn -0.9147 0.1044 0.3903
vn 0.8996 0.0825 0.4289
vn 0.0042 0.1247 0.9922
vn -0.2815 -0.9328 0.2252
vn 0.3093 -0.9268 0.2131
vn 0.9944 0.0392 0.0982
vn 0.0138 0.9974 -0.0711
vn 0.9989 0.0131 -0.0440
vn 0.8043 -0.2427 0.5424
vn -0.8365 -0.2156 0.5037
vn -0.0017 -0.4014 0.9159
vn -0.9974 0.0722 0.0003
vn 0.9962 0.0479 0.0727
vn -0.8349 -0.3678 -0.4095
vn -0.0146 -0.8088 -0.5879
vn 0.1041 0.5500 -0.8286
vn 0.8562 -0.4426 -0.2666
vn -0.9911 0.1064 -0.0798
vn 0.9977 -0.0127 0.0664
vn -0.0929 -0.4316 0.8973
vn -0.7912 0.0512 0.6094
vn 0.9099 -0.3463 -0.2284
vn -0.9840 -0.1746 -0.0359
vn -0.7916 -0.1093 0.6012
vn -0.0528 0.1638 0.9851
vn 0.4747 -0.8714 -0.1237
vn 0.7922 0.0523 0.6080
vn -0.0359 -0.0225 0.9991
vn -0.6206 0.1546 -0.7687
vn 0.8662 -0.0606 0.4960
vn -0.4460 0.2576 -0.8572
vn -0.0850 0.2499 0.9645
vn 0.1279 0.5170 0.8464
vn 0.0218 0.3899 0.9206
vn -0.3109 0.9400 0.1406
vn 0.5088 -0.5089 0.6943
vn 0.6394 -0.6021 -0.4781
vn -0.7119 0.6660 0.2228
vn 0.4275 0.2966 -0.8539
vn -0.8217 0.0959 -0.5619
vn -0.3598 -0.8294 -0.4274
vn -0.4958 0.6383 -0.5889
vn -0.8020 -0.1368 -0.5814
vn 0.5237 0.6018 -0.6030
vn 0.5423 0.1554 -0.8257
vn 0.8985 -0.4047 0.1703
vn -0.5219 0.3582 -0.7742
vn -0.7900 0.5743 -0.2147
vn -0.9613 0.2693 -0.0577
vn 0.4859 -0.7871 0.3800
vn 0.7943 -0.5354 0.2872
vn -0.5618 -0.7367 0.3764
vn 0.5612 0.7733 -0.2951
vn 0.9653 -0.2176 0.1446
vn -0.4699 0.8230 -0.3191
vn -0.4606 0.8375 -0.2940
vn 0.9372 -0.2752 0.2144
vn 0.5886 0.7718 -0.2405
vn -0.5846 -0.6998 0.4105
vn 0.8038 -0.4945 0.3308
vn 0.6089 -0.6870 0.3966
vn -0.9833 0.1817 -0.0040
vn -0.8076 0.5524 -0.2066
vn -0.8594 0.2520 0.4449
vn 0.7464 -0.3426 0.5706
vn -0.6909 -0.0496 -0.7213
vn 0.4980 0.8299 0.2515
vn 0.5357 -0.7322 -0.4205
vn -0.4734 -0.3887 0.7905
vn 0.6068 -0.6717 -0.4250
vn -0.4564 -0.8122 -0.3634
vn -0.0177 0.8290 0.5589
vn -0.7698 0.5799 0.2667
vn 0.9987 -0.0509 -0.0025
vn -0.9862 0.1483 -0.0731
vn 0.7492 -0.5850 -0.3106
vn 0.0013 -0.8640 -0.5035
vn -0.8165 -0.4203 -0.3958
vn 0.8061 0.4774 0.3496
vn 0.9274 0.2990 0.2249
vn -0.8773 0.4624 0.1281
vn 0.0273 0.8623 0.5056
vn 0.1819 -0.4076 0.8949
vn -0.3355 -0.3771 0.8633
vn -0.9823 0.1817 -0.0464
vn 0.0972 0.5534 -0.8272
vn -0.9922 0.0535 -0.1127
vn -0.8161 0.3483 0.4612
vn 0.8169 0.2018 0.5403
vn -0.0257 0.4836 0.8749
vn 0.9935 -0.1136 0.0037
vn -0.9917 0.0801 0.1001
vn 0.8311 0.0100 -0.5561
vn -0.0063 -0.0260 -0.9996
vn -0.8665 0.0365 -0.4979
vn 0.9995 0.0307 -0.0072
vn -0.9976 0.0488 0.0483
vn -0.0132 -0.9794 0.2013
vn 0.8608 -0.1882 0.4728
vn -0.9815 -0.1902 0.0208
vn 0.9765 -0.2149 0.0191
vn -0.8548 -0.2304 -0.4651
vn -0.0006 -0.0883 0.9961
vn 0.8589 -0.2441 -0.4502
vn -0.8443 -0.1642 0.5100
vn -0.0120 -0.2431 -0.9699
vn 0.6737 -0.3135 -0.6693
vn -0.8737 0.2439 0.4209
vn 0.4967 -0.1222 -0.8593
vn 0.3243 0.8498 -0.4156
vn -0.5661 -0.0151 0.8242
vn -0.6213 -0.7797 -0.0773
vn 0.7987 -0.0372 -0.6005
vn 0.9206 -0.1627 -0.3550
vn 0.5771 0.1877 -0.7948
vn -0.4771 -0.7140 0.5125
vn 0.5020 -0.1598 0.8500
vn -0.4944 -0.2662 -0.8275
vn -0.9226 -0.2819 0.2632
vn 0.5981 -0.0652 -0.7988
vn 0.8218 0.3515 -0.4484
vn 0.9883 0.1420 -0.0560
vn -0.5498 -0.4137 0.7257
vn -0.8367 -0.2730 0.4748
vn 0.5279 -0.3583 0.7700
vn -0.5506 0.4407 -0.7089
vn -0.9575 -0.1415 0.2513
vn 0.5299 0.4872 -0.6942
vn 0.4998 0.5149 -0.6965
vn -0.9504 -0.1008 0.2942
vn -0.6507 -0.3357 0.6811
vn 0.9895 0.1378 -0.0431
vn 0.8330 0.3415 -0.4353
vn 0.8054 0.5312 0.2631
vn 0.7355 -0.4499 -0.5065
vn -0.5433 -0.8140 0.2057
vn 0.0051 0.1014 0.9948
vn 0.8826 0.0648 0.4657
vn -0.9962 0.0867 -0.0016
vn 0.9990 0.0326 0.0313
vn -0.8664 0.0371 -0.4979
vn -0.0063 -0.0251 -0.9997
vn 0.8766 0.0135 -0.4811
vn -0.8608 0.1107 0.4968
vn -0.9146 0.1041 0.3907
vn 0.8886 0.0669 0.4537
vn 0.0036 0.1239 0.9923
vn -0.3653 -0.9050 0.2178
vn 0.2375 -0.9459 0.2208
vn 0.9943 0.0412 0.0987
vn 0.0108 0.9979 -0.0633
vn 0.9995 0.0312 -0.0072
vn 0.8043 -0.2427 0.5425
vn -0.9969 0.0368 -0.0699
vn 0.9962 0.0510 0.0702
vn -0.8207 -0.3986 -0.4095
vn -0.0143 -0.8091 -0.5875
vn 0.8564 -0.4424 -0.2661
vn -0.9902 0.0934 -0.1043
vn 0.9991 -0.0370 0.0194
vn -0.0903 -0.4330 0.8968
vn -0.7708 0.0366 0.6360
vn -0.8718 -0.3656 0.3262
vn -0.3471 -0.7332 0.5848
vn -0.5763 -0.3180 0.7528
vn -0.0393 0.1879 0.9814
vn 0.6977 -0.1143 0.7072
vn 0.7179 -0.0053 0.6961
vn -0.0493 -0.0629 0.9968
vn 0.8383 -0.0706 0.5405
vn -0.4346 0.4165 -0.7985
vn -0.3312 0.9236 0.1930
vn 0.5261 -0.4623 0.7138
vn 0.7512 -0.5323 -0.3903
vn -0.7341 0.2998 -0.6093
vn -0.8624 0.0614 -0.5024
vn -0.4330 0.5274 -0.7310
vn 0.7873 -0.4547 0.4164
vn 0.3268 0.8184 0.4727
vn 0.4534 0.2962 -0.8407
vn 0.9600 -0.2661 0.0869
vn -0.5470 0.3680 -0.7519
vn -0.8074 0.5546 -0.2012
vn -0.9846 0.1726 -0.0273
vn 0.6083 -0.7065 0.3617
vn 0.8073 -0.5209 0.2774
vn -0.5877 -0.7226 0.3639
vn 0.5895 0.7574 -0.2808
vn 0.9406 -0.2858 0.1833
vn -0.4628 0.8261 -0.3215
vn -0.4500 0.8348 -0.3173
vn 0.9299 -0.2777 0.2414
vn 0.6192 -0.6674 0.4138
vn -0.9867 0.1616 -0.0195
vn -0.8311 0.2964 0.4705
vn -0.8032 -0.0458 -0.5940
vn 0.5430 -0.7936 -0.2747
vn 0.0222 0.8364 0.5477
vn -0.8152 0.5379 0.2148
vn 0.9979 0.0200 0.0615
vn -0.9870 0.1368 -0.0838
vn 0.8514 -0.4792 -0.2136
vn -0.0251 -0.8675 -0.4967
vn -0.8402 -0.3912 -0.3755
vn 0.8767 0.3949 0.2745
vn 0.9275 0.2988 0.2245
vn -0.8677 0.4718 0.1563
vn 0.0279 0.8619 0.5063
vn 0.2681 -0.4034 0.8749
vn -0.4048 -0.3659 0.8380
vn -0.9819 0.1833 -0.0476
vn 0.0940 0.5472 -0.8317
vn -0.9901 0.0937 -0.1046
vn 0.9992 -0.0365 0.0186
usemtl color_1
s off
f 94//1 58//1 91//1
f 43//2 49//2 51//2
f 8//3 10//3 2//3
f 88//4 3//4 6//4
f 7//5 13//5 15//5
f 88//6 98//6 99//6
f 179//7 11//7 16//7
f 172//8 115//8 276//8
f 5//9 47//9 1//9
f 42//10 46//10 3//10
f 86//11 41//11 89//11
f 230//12 4//12 54//12
f 179//13 14//13 180//13
f 8//14 15//14 9//14
f 4//15 12//15 13//15
f 180//16 12//16 173//16
f 2//17 11//17 171//17
f 13//18 35//18 15//18
f 11//19 34//19 16//19
f 10//20 33//20 11//20
f 10//21 40//21 37//21
f 16//22 36//22 14//22
f 9//23 35//23 40//23
f 14//24 39//24 12//24
f 89//25 57//25 92//25
f 59//26 44//26 60//26
f 57//27 43//27 59//27
f 60//28 42//28 58//28
f 172//29 90//29 85//29
f 6//30 46//30 45//30
f 6//31 48//31 5//31
f 1//32 49//32 41//32
f 44//33 50//33 42//33
f 43//34 52//34 44//34
f 7//35 54//35 4//35
f 53//36 8//36 2//36
f 8//37 56//37 7//37
f 13//38 39//38 38//38
f 229//39 2//39 171//39
f 216//40 91//40 90//40
f 56//41 58//41 54//41
f 53//42 59//42 55//42
f 55//43 60//43 56//43
f 51//44 77//44 78//44
f 48//45 80//45 47//45
f 49//46 80//46 77//46
f 50//47 79//47 46//47
f 48//48 83//48 81//48
f 45//49 79//49 83//49
f 52//50 82//50 50//50
f 51//51 84//51 52//51
f 235//52 93//52 271//52
f 90//53 58//53 42//53
f 3//54 90//54 42//54
f 215//55 92//55 235//55
f 174//56 89//56 215//56
f 1//57 87//57 5//57
f 5//58 88//58 6//58
f 86//59 98//59 87//59
f 93//60 57//60 53//60
f 94//61 230//61 54//61
f 236//62 94//62 91//62
f 93//63 229//63 271//63
f 110//64 285//64 101//64
f 108//65 102//65 103//65
f 174//66 97//66 86//66
f 85//67 99//67 115//67
f 285//68 104//68 101//68
f 103//69 105//69 106//69
f 102//70 104//70 105//70
f 108//71 118//71 117//71
f 110//72 102//72 109//72
f 105//73 112//73 113//73
f 116//74 114//74 111//74
f 279//75 111//75 300//75
f 103//76 116//76 118//76
f 97//77 109//77 98//77
f 115//78 108//78 117//78
f 99//79 109//79 108//79
f 278//80 110//80 97//80
f 303//81 114//81 113//81
f 112//82 303//82 113//82
f 301//83 111//83 114//83
f 106//84 113//84 114//84
f 289//85 112//85 104//85
f 95//86 276//86 115//86
f 107//87 118//87 100//87
f 96//88 118//88 116//88
f 95//89 117//89 107//89
f 96//90 279//90 312//90
f 274//91 234//91 228//91
f 217//92 223//92 213//92
f 182//93 178//93 168//93
f 266//94 169//94 263//94
f 177//95 185//95 170//95
f 266//96 281//96 265//96
f 179//97 183//97 171//97
f 172//98 307//98 263//98
f 221//99 175//99 167//99
f 220//100 214//100 169//100
f 213//101 264//101 267//101
f 170//102 230//102 228//102
f 180//103 188//103 179//103
f 181//104 177//104 178//104
f 170//105 184//105 173//105
f 173//106 186//106 180//106
f 183//107 168//107 171//107
f 207//108 185//108 187//108
f 188//109 205//109 183//109
f 205//110 182//110 183//110
f 209//111 181//111 182//111
f 186//112 206//112 188//112
f 212//113 187//113 181//113
f 184//114 208//114 186//114
f 233//115 267//115 270//115
f 238//116 217//116 237//116
f 237//117 213//117 233//117
f 234//118 218//118 238//118
f 268//119 172//119 263//119
f 176//120 220//120 169//120
f 222//121 176//121 175//121
f 223//122 167//122 213//122
f 224//123 218//123 214//123
f 218//124 225//124 217//124
f 177//125 228//125 232//125
f 178//126 227//126 168//126
f 177//127 231//127 178//127
f 210//128 184//128 185//128
f 171//129 227//129 229//129
f 269//130 216//130 268//130
f 228//131 238//131 232//131
f 231//132 233//132 227//132
f 232//133 237//133 231//133
f 225//134 255//134 223//134
f 258//135 222//135 221//135
f 223//136 258//136 221//136
f 257//137 224//137 220//137
f 222//138 261//138 219//138
f 219//139 257//139 220//139
f 260//140 226//140 224//140
f 262//141 225//141 226//141
f 271//142 270//142 235//142
f 234//143 268//143 214//143
f 169//144 268//144 263//144
f 270//145 215//145 235//145
f 267//146 174//146 215//146
f 167//147 265//147 264//147
f 175//148 266//148 265//148
f 281//149 264//149 265//149
f 233//150 273//150 227//150
f 230//151 274//151 228//151
f 274//152 236//152 269//152
f 273//153 229//153 227//153
f 297//154 285//154 296//154
f 288//155 295//155 294//155
f 280//156 174//156 264//156
f 307//157 266//157 263//157
f 290//158 285//158 286//158
f 288//159 291//159 287//159
f 287//160 290//160 286//160
f 310//161 294//161 309//161
f 287//162 297//162 295//162
f 291//163 304//163 290//163
f 308//164 306//164 292//164
f 279//165 299//165 308//165
f 308//166 288//166 310//166
f 295//167 280//167 281//167
f 309//168 282//168 307//168
f 294//169 281//169 282//169
f 297//170 278//170 280//170
f 306//171 303//171 305//171
f 304//172 303//172 302//172
f 301//173 299//173 300//173
f 292//174 305//174 291//174
f 304//175 289//175 290//175
f 275//176 276//176 311//176
f 283//177 309//177 293//177
f 277//178 310//178 283//178
f 309//179 275//179 293//179
f 279//180 277//180 312//180
f 94//181 54//181 58//181
f 43//182 41//182 49//182
f 8//183 9//183 10//183
f 88//184 85//184 3//184
f 7//185 4//185 13//185
f 88//186 87//186 98//186
f 179//187 171//187 11//187
f 172//188 85//188 115//188
f 5//189 48//189 47//189
f 42//190 50//190 46//190
f 86//191 1//191 41//191
f 230//192 173//192 4//192
f 179//193 16//193 14//193
f 8//194 7//194 15//194
f 4//195 173//195 12//195
f 180//196 14//196 12//196
f 2//197 10//197 11//197
f 13//198 38//198 35//198
f 11//199 33//199 34//199
f 10//200 37//200 33//200
f 10//201 9//201 40//201
f 16//202 34//202 36//202
f 9//203 15//203 35//203
f 14//204 36//204 39//204
f 89//205 41//205 57//205
f 59//206 43//206 44//206
f 57//207 41//207 43//207
f 60//208 44//208 42//208
f 172//209 216//209 90//209
f 6//210 3//210 46//210
f 6//211 45//211 48//211
f 1//212 47//212 49//212
f 44//213 52//213 50//213
f 43//214 51//214 52//214
f 7//215 56//215 54//215
f 53//216 55//216 8//216
f 8//217 55//217 56//217
f 13//218 12//218 39//218
f 229//219 53//219 2//219
f 216//220 236//220 91//220
f 56//221 60//221 58//221
f 53//222 57//222 59//222
f 55//223 59//223 60//223
f 51//224 49//224 77//224
f 48//225 81//225 80//225
f 49//226 47//226 80//226
f 50//227 82//227 79//227
f 48//228 45//228 83//228
f 45//229 46//229 79//229
f 52//230 84//230 82//230
f 51//231 78//231 84//231
f 235//232 92//232 93//232
f 90//233 91//233 58//233
f 3//234 85//234 90//234
f 215//235 89//235 92//235
f 174//236 86//236 89//236
f 1//237 86//237 87//237
f 5//238 87//238 88//238
f 86//239 97//239 98//239
f 93//240 92//240 57//240
f 94//241 272//241 230//241
f 236//242 272//242 94//242
f 93//243 53//243 229//243
f 110//244 296//244 285//244
f 108//245 109//245 102//245
f 174//246 278//246 97//246
f 85//247 88//247 99//247
f 285//248 289//248 104//248
f 103//249 102//249 105//249
f 102//250 101//250 104//250
f 108//251 103//251 118//251
f 110//252 101//252 102//252
f 105//253 104//253 112//253
f 116//254 106//254 114//254
f 279//255 116//255 111//255
f 103//256 106//256 116//256
f 97//257 110//257 109//257
f 115//258 99//258 108//258
f 99//259 98//259 109//259
f 278//260 296//260 110//260
f 303//261 301//261 114//261
f 112//262 302//262 303//262
f 301//263 300//263 111//263
f 106//264 105//264 113//264
f 289//265 302//265 112//265
f 95//266 311//266 276//266
f 107//267 117//267 118//267
f 96//268 100//268 118//268
f 95//269 115//269 117//269
f 96//270 116//270 279//270
f 274//271 269//271 234//271
f 217//272 225//272 223//272
f 182//273 181//273 178//273
f 266//274 176//274 169//274
f 177//275 187//275 185//275
f 266//276 282//276 281//276
f 179//277 188//277 183//277
f 172//278 276//278 307//278
f 221//279 222//279 175//279
f 220//280 224//280 214//280
f 213//281 167//281 264//281
f 170//282 173//282 230//282
f 180//283 186//283 188//283
f 181//284 187//284 177//284
f 170//285 185//285 184//285
f 173//286 184//286 186//286
f 183//287 182//287 168//287
f 207//288 210//288 185//288
f 188//289 206//289 205//289
f 205//290 209//290 182//290
f 209//291 212//291 181//291
f 186//292 208//292 206//292
f 212//293 207//293 187//293
f 184//294 211//294 208//294
f 233//295 213//295 267//295
f 238//296 218//296 217//296
f 237//297 217//297 213//297
f 234//298 214//298 218//298
f 268//299 216//299 172//299
f 176//300 219//300 220//300
f 222//301 219//301 176//301
f 223//302 221//302 167//302
f 224//303 226//303 218//303
f 218//304 226//304 225//304
f 177//305 170//305 228//305
f 178//306 231//306 227//306
f 177//307 232//307 231//307
f 210//308 211//308 184//308
f 171//309 168//309 227//309
f 269//310 236//310 216//310
f 228//311 234//311 238//311
f 231//312 237//312 233//312
f 232//313 238//313 237//313
f 225//314 256//314 255//314
f 258//315 259//315 222//315
f 223//316 255//316 258//316
f 257//317 260//317 224//317
f 222//318 259//318 261//318
f 219//319 261//319 257//319
f 260//320 262//320 226//320
f 262//321 256//321 225//321
f 271//322 273//322 270//322
f 234//323 269//323 268//323
f 169//324 214//324 268//324
f 270//325 267//325 215//325
f 267//326 264//326 174//326
f 167//327 175//327 265//327
f 175//328 176//328 266//328
f 281//329 280//329 264//329
f 233//330 270//330 273//330
f 230//331 272//331 274//331
f 274//332 272//332 236//332
f 273//333 271//333 229//333
f 297//334 286//334 285//334
f 288//335 287//335 295//335
f 280//336 278//336 174//336
f 307//337 282//337 266//337
f 290//338 289//338 285//338
f 288//339 292//339 291//339
f 287//340 291//340 290//340
f 310//341 288//341 294//341
f 287//342 286//342 297//342
f 291//343 305//343 304//343
f 308//344 299//344 306//344
f 279//345 300//345 299//345
f 308//346 292//346 288//346
f 295//347 297//347 280//347
f 309//348 294//348 282//348
f 294//349 295//349 281//349
f 297//350 296//350 278//350
f 306//351 301//351 303//351
f 304//352 305//352 303//352
f 301//353 306//353 299//353
f 292//354 306//354 305//354
f 304//355 302//355 289//355
f 275//356 307//356 276//356
f 283//357 310//357 309//357
f 277//358 308//358 310//358
f 309//359 307//359 275//359
f 279//360 308//360 277//360
usemtl color_2
f 95//361 298//361 311//361
f 284//362 107//362 100//362
f 284//363 96//363 312//363
f 298//364 275//364 311//364
f 293//365 284//365 283//365
f 277//366 284//366 312//366
f 95//367 107//367 298//367
f 284//368 298//368 107//368
f 284//369 100//369 96//369
f 298//370 293//370 275//370
f 293//371 298//371 284//371
f 277//372 283//372 284//372
usemtl color_3
f 160//373 157//373 154//373
f 148//374 19//374 24//374
f 147//375 18//375 19//375
f 23//376 20//376 22//376
f 17//376 19//376 18//376
f 17//376 22//376 24//376
f 143//377 17//377 18//377
f 148//378 22//378 150//378
f 146//379 23//379 17//379
f 161//380 155//380 162//380
f 39//381 32//381 30//381
f 35//382 31//382 40//382
f 36//383 27//383 32//383
f 37//384 31//384 26//384
f 159//376 154//376 153//376
f 38//385 30//385 28//385
f 33//386 27//386 34//386
f 38//387 29//387 35//387
f 37//388 25//388 33//388
f 123//389 141//389 139//389
f 63//390 131//390 64//390
f 124//391 141//391 125//391
f 61//392 66//392 68//392
f 65//393 64//393 67//393
f 64//394 68//394 67//394
f 65//395 134//395 132//395
f 62//396 129//396 130//396
f 119//397 136//397 127//397
f 68//398 134//398 67//398
f 119//399 140//399 124//399
f 78//400 76//400 84//400
f 84//401 73//401 82//401
f 83//402 74//402 75//402
f 81//403 75//403 71//403
f 79//404 73//404 74//404
f 77//405 70//405 69//405
f 80//406 71//406 70//406
f 78//407 69//407 72//407
f 76//408 125//408 123//408
f 76//409 121//409 73//409
f 75//410 126//410 122//410
f 75//411 120//411 71//411
f 74//412 121//412 126//412
f 70//413 124//413 69//413
f 71//414 119//414 70//414
f 72//415 124//415 125//415
f 141//416 132//416 134//416
f 136//417 128//417 127//417
f 140//418 128//418 132//418
f 137//419 130//419 142//419
f 136//420 129//420 131//420
f 138//421 130//421 129//421
f 139//422 133//422 137//422
f 139//423 134//423 135//423
f 66//424 135//424 68//424
f 61//425 131//425 129//425
f 121//426 139//426 137//426
f 63//427 132//427 128//427
f 126//428 138//428 122//428
f 62//429 133//429 66//429
f 122//430 136//430 120//430
f 126//431 137//431 142//431
f 28//432 145//432 144//432
f 30//433 150//433 145//433
f 31//434 149//434 146//434
f 27//435 150//435 32//435
f 31//436 143//436 26//436
f 26//437 147//437 25//437
f 27//438 147//438 148//438
f 28//439 149//439 29//439
f 157//440 153//440 154//440
f 158//441 152//441 156//441
f 156//442 153//442 155//442
f 162//443 157//443 163//443
f 164//376 151//376 165//376
f 161//444 158//444 156//444
f 165//445 158//445 166//445
f 164//376 153//376 152//376
f 156//446 157//446 155//446
f 20//376 159//376 164//376
f 22//447 166//447 150//447
f 145//448 166//448 161//448
f 20//376 165//376 22//376
f 144//449 163//449 149//449
f 21//376 160//376 159//376
f 144//450 161//450 162//450
f 23//451 163//451 160//451
f 354//452 351//452 357//452
f 342//453 191//453 341//453
f 341//454 190//454 337//454
f 192//455 195//455 194//455
f 191//455 189//455 190//455
f 194//455 189//455 196//455
f 337//456 189//456 340//456
f 194//457 342//457 344//457
f 340//458 195//458 343//458
f 349//459 355//459 356//459
f 202//460 208//460 211//460
f 212//461 201//461 207//461
f 204//462 206//462 208//462
f 198//463 212//463 209//463
f 353//455 348//455 354//455
f 210//464 202//464 211//464
f 199//465 205//465 206//465
f 207//466 200//466 210//466
f 205//467 198//467 209//467
f 333//468 319//468 317//468
f 325//469 241//469 242//469
f 335//470 318//470 319//470
f 244//471 239//471 246//471
f 243//472 242//472 241//472
f 246//473 242//473 245//473
f 243//474 328//474 245//474
f 240//475 323//475 239//475
f 313//476 330//476 314//476
f 245//477 329//477 246//477
f 334//478 313//478 318//478
f 254//479 256//479 262//479
f 251//480 262//480 260//480
f 261//481 252//481 257//481
f 259//482 253//482 261//482
f 252//483 260//483 257//483
f 255//484 248//484 258//484
f 258//485 249//485 259//485
f 256//486 247//486 255//486
f 254//487 319//487 250//487
f 315//488 254//488 251//488
f 253//489 320//489 252//489
f 314//490 253//490 249//490
f 252//491 315//491 251//491
f 318//492 248//492 247//492
f 313//493 249//493 248//493
f 250//494 318//494 247//494
f 335//495 326//495 334//495
f 322//496 330//496 321//496
f 334//497 322//497 321//497
f 324//498 331//498 336//498
f 330//499 323//499 332//499
f 332//500 324//500 336//500
f 327//501 333//501 331//501
f 333//502 328//502 335//502
f 329//503 244//503 246//503
f 239//504 325//504 242//504
f 315//505 333//505 317//505
f 241//506 326//506 243//506
f 332//507 320//507 316//507
f 327//508 240//508 244//508
f 330//509 316//509 314//509
f 320//510 331//510 315//510
f 200//511 339//511 202//511
f 339//512 204//512 202//512
f 203//513 343//513 201//513
f 344//514 199//514 204//514
f 198//515 340//515 203//515
f 341//516 198//516 197//516
f 342//517 197//517 199//517
f 201//518 338//518 200//518
f 351//519 347//519 349//519
f 346//520 352//520 350//520
f 347//521 350//521 349//521
f 351//522 356//522 357//522
f 345//455 358//455 359//455
f 355//523 352//523 360//523
f 352//524 359//524 360//524
f 358//455 347//455 353//455
f 350//525 351//525 352//525
f 192//455 353//455 193//455
f 360//526 194//526 344//526
f 339//527 360//527 344//527
f 359//455 192//455 194//455
f 357//528 338//528 343//528
f 193//455 354//455 195//455
f 338//529 355//529 339//529
f 195//530 357//530 343//530
f 160//531 163//531 157//531
f 148//532 147//532 19//532
f 147//533 143//533 18//533
f 23//376 21//376 20//376
f 17//376 24//376 19//376
f 17//376 23//376 22//376
f 143//534 146//534 17//534
f 148//535 24//535 22//535
f 146//536 149//536 23//536
f 161//537 156//537 155//537
f 39//538 36//538 32//538
f 35//539 29//539 31//539
f 36//540 34//540 27//540
f 37//541 40//541 31//541
f 159//376 160//376 154//376
f 38//542 39//542 30//542
f 33//543 25//543 27//543
f 38//544 28//544 29//544
f 37//545 26//545 25//545
f 123//546 125//546 141//546
f 63//547 128//547 131//547
f 124//548 140//548 141//548
f 61//392 62//392 66//392
f 65//393 63//393 64//393
f 64//394 61//394 68//394
f 65//549 67//549 134//549
f 62//550 61//550 129//550
f 119//551 120//551 136//551
f 68//398 135//398 134//398
f 119//399 127//399 140//399
f 78//552 72//552 76//552
f 84//553 76//553 73//553
f 83//554 79//554 74//554
f 81//555 83//555 75//555
f 79//556 82//556 73//556
f 77//557 80//557 70//557
f 80//558 81//558 71//558
f 78//559 77//559 69//559
f 76//560 72//560 125//560
f 76//561 123//561 121//561
f 75//562 74//562 126//562
f 75//563 122//563 120//563
f 74//564 73//564 121//564
f 70//565 119//565 124//565
f 71//566 120//566 119//566
f 72//567 69//567 124//567
f 141//568 140//568 132//568
f 136//569 131//569 128//569
f 140//418 127//418 128//418
f 137//419 133//419 130//419
f 136//420 138//420 129//420
f 138//570 142//570 130//570
f 139//571 135//571 133//571
f 139//572 141//572 134//572
f 66//573 133//573 135//573
f 61//425 64//425 131//425
f 121//574 123//574 139//574
f 63//427 65//427 132//427
f 126//575 142//575 138//575
f 62//429 130//429 133//429
f 122//430 138//430 136//430
f 126//431 121//431 137//431
f 28//576 30//576 145//576
f 30//577 32//577 150//577
f 31//578 29//578 149//578
f 27//579 148//579 150//579
f 31//580 146//580 143//580
f 26//581 143//581 147//581
f 27//582 25//582 147//582
f 28//583 144//583 149//583
f 157//584 155//584 153//584
f 158//585 151//585 152//585
f 156//586 152//586 153//586
f 162//587 155//587 157//587
f 164//376 152//376 151//376
f 161//588 166//588 158//588
f 165//589 151//589 158//589
f 164//376 159//376 153//376
f 156//590 158//590 157//590
f 20//376 21//376 159//376
f 22//591 165//591 166//591
f 145//592 150//592 166//592
f 20//376 164//376 165//376
f 144//449 162//449 163//449
f 21//376 23//376 160//376
f 144//450 145//450 161//450
f 23//593 149//593 163//593
f 354//594 348//594 351//594
f 342//595 196//595 191//595
f 341//596 191//596 190//596
f 192//455 193//455 195//455
f 191//455 196//455 189//455
f 194//455 195//455 189//455
f 337//597 190//597 189//597
f 194//598 196//598 342//598
f 340//599 189//599 195//599
f 349//600 350//600 355//600
f 202//601 204//601 208//601
f 212//602 203//602 201//602
f 204//603 199//603 206//603
f 198//604 203//604 212//604
f 353//455 347//455 348//455
f 210//605 200//605 202//605
f 199//606 197//606 205//606
f 207//607 201//607 200//607
f 205//608 197//608 198//608
f 333//468 335//468 319//468
f 325//609 322//609 241//609
f 335//610 334//610 318//610
f 244//471 240//471 239//471
f 243//472 245//472 242//472
f 246//473 239//473 242//473
f 243//611 326//611 328//611
f 240//612 324//612 323//612
f 313//613 321//613 330//613
f 245//477 328//477 329//477
f 334//478 321//478 313//478
f 254//614 250//614 256//614
f 251//615 254//615 262//615
f 261//616 253//616 252//616
f 259//617 249//617 253//617
f 252//618 251//618 260//618
f 255//619 247//619 248//619
f 258//620 248//620 249//620
f 256//621 250//621 247//621
f 254//622 317//622 319//622
f 315//623 317//623 254//623
f 253//624 316//624 320//624
f 314//625 316//625 253//625
f 252//626 320//626 315//626
f 318//627 313//627 248//627
f 313//628 314//628 249//628
f 250//629 319//629 318//629
f 335//630 328//630 326//630
f 322//631 325//631 330//631
f 334//497 326//497 322//497
f 324//498 327//498 331//498
f 330//499 325//499 323//499
f 332//632 323//632 324//632
f 327//633 329//633 333//633
f 333//502 329//502 328//502
f 329//634 327//634 244//634
f 239//504 323//504 325//504
f 315//635 331//635 333//635
f 241//506 322//506 326//506
f 332//636 336//636 320//636
f 327//508 324//508 240//508
f 330//509 332//509 316//509
f 320//510 336//510 331//510
f 200//637 338//637 339//637
f 339//638 344//638 204//638
f 203//639 340//639 343//639
f 344//640 342//640 199//640
f 198//641 337//641 340//641
f 341//642 337//642 198//642
f 342//643 341//643 197//643
f 201//644 343//644 338//644
f 351//645 348//645 347//645
f 346//646 345//646 352//646
f 347//647 346//647 350//647
f 351//648 349//648 356//648
f 345//455 346//455 358//455
f 355//649 350//649 352//649
f 352//650 345//650 359//650
f 358//455 346//455 347//455
f 350//651 349//651 351//651
f 192//455 358//455 353//455
f 360//652 359//652 194//652
f 339//527 355//527 360//527
f 359//455 358//455 192//455
f 357//528 356//528 338//528
f 193//455 353//455 354//455
f 338//529 356//529 355//529
f 195//653 354//653 357//653
