# Blender v2.83.5 OBJ File: 'bio.blend'
# www.blender.org
mtllib bio_000015.mtl
o Cube
v -0.917856 -1.041636 -0.435673
v -0.652092 1.101994 -0.446598
v -0.696889 -1.077090 0.520150
v -0.680195 0.907129 0.470837
v -1.003906 -1.016628 -0.111064
v -0.923824 -1.034705 0.259932
v -0.856543 0.984233 0.193400
v -0.844709 1.068130 -0.168635
v -0.770565 1.323479 -0.033668
v -0.662749 1.353107 -0.204884
v -0.134153 1.273956 -0.217078
v -0.147743 1.150980 0.356784
v -0.681624 1.219014 0.364201
v -0.061700 1.185674 0.173938
v -0.778029 1.270449 0.191386
v -0.056949 1.230299 -0.026750
v -0.640871 2.443818 -0.920280
v -0.574963 2.332987 -0.938621
v -0.259839 2.339866 -0.977198
v -0.264290 2.712425 -0.942555
v -0.579403 2.704628 -0.904063
v -0.183841 2.601474 -0.962716
v -0.642627 2.590790 -0.906613
v -0.182085 2.454501 -0.976382
v -0.052531 2.276330 0.248168
v -0.478794 2.279449 0.279925
v 0.025345 2.373635 0.290090
v -0.487182 2.608966 0.425768
v -0.567603 2.507824 0.390367
v -0.060975 2.599294 0.400439
v -0.564331 2.376506 0.333159
v 0.022292 2.495046 0.344164
v -0.064195 2.400824 0.194323
v 0.004949 2.395696 0.304456
v -0.541777 2.446836 0.449042
v 0.000195 2.390936 0.436943
v -0.456436 2.446869 0.197607
v -0.469370 2.431569 0.561284
v -0.077171 2.388616 0.556094
v -0.536627 2.453543 0.304966
v -0.920737 -0.545005 -0.495923
v -0.747576 -0.588495 0.450199
v -0.957994 -0.532595 -0.197118
v -0.780765 -0.577620 0.137853
v -1.062337 -0.703796 0.306874
v -0.889369 -0.738344 0.398593
v -1.241931 -0.646108 -0.101210
v -1.207116 -0.669463 0.109440
v -1.022255 -0.524422 -0.259253
v -0.673803 -0.611078 0.244497
v -0.881556 -0.496804 -0.125291
v -0.747506 -0.531872 0.074448
v -0.724485 0.508476 -0.572171
v -0.745135 0.352732 0.408920
v -0.907164 0.457262 -0.300589
v -0.906978 0.386985 0.083326
v -0.774199 -0.353593 -0.534330
v -0.669034 -0.403663 0.429461
v -0.896994 -0.370144 -0.248649
v -0.826231 -0.398926 0.121260
v -1.092397 0.699984 2.114883
v -1.003152 0.636462 2.088337
v -1.231775 0.907544 2.106866
v -1.182810 0.807188 2.122211
v -1.094794 1.023625 2.098746
v -0.866171 0.752543 2.080217
v -0.982684 0.976780 2.110346
v -0.892271 0.869576 2.103018
v -1.252687 1.108534 0.519385
v -1.476098 0.934613 0.556347
v -1.414146 0.778564 0.605207
v -1.088035 1.040599 0.563370
v -0.883524 0.722428 0.564111
v -1.107022 0.550231 0.603461
v -1.267838 0.619362 0.613742
v -0.941875 0.881684 0.570958
v -1.217185 0.809085 0.267624
v -1.085294 0.820726 0.354785
v -1.105724 0.610523 0.734875
v -1.410678 0.716679 0.391555
v -1.367559 0.684702 0.538194
v -0.912412 0.702722 0.608716
v -1.247384 0.644875 0.673759
v -0.964628 0.778751 0.491251
v -0.593126 -1.137216 0.569697
v -0.752072 -1.164370 -0.529297
v -0.843352 -1.142829 -0.265842
v -0.701303 -1.199211 0.231266
v -0.371729 -0.505132 -0.552882
v -0.334234 -0.513832 0.515292
v -0.295497 -0.306220 0.512073
v -0.296137 -0.294575 -0.546345
v -0.290490 0.110355 -0.554293
v -0.300863 0.068952 0.486006
v -0.275459 -1.363127 0.496929
v -0.444246 -2.377615 0.446381
v -0.532999 -1.358482 -0.614031
v -0.735799 -1.258772 -0.285838
v -0.602749 -1.270452 0.225404
v -0.467287 -2.143357 0.474050
v -0.494983 -2.183531 -0.579117
v -0.696456 -2.144719 -0.353059
v -0.684376 -2.144719 0.220529
v -0.467411 -2.421449 -0.458564
v -0.640234 -2.421449 -0.288906
v -0.628828 -2.421449 0.184687
v -0.461550 -1.756311 0.477819
v -0.676368 -1.754101 0.246658
v -0.691947 -1.754101 -0.370816
v -0.492538 -1.835426 -0.642205
v -0.416025 -2.517548 0.415317
v -0.402026 -2.517548 -0.240669
v -0.520371 -2.517548 -0.192309
v -0.508409 -2.517548 0.182529
v -0.455727 -1.254545 0.455730
v -0.490081 -2.421449 0.413858
v -0.511370 -1.754101 0.450403
v -0.517250 -2.144719 0.446430
v -1.287489 0.922301 1.878619
v -1.230615 0.800504 1.897114
v -0.849350 0.736548 1.846682
v -1.122264 0.672031 1.888333
v -0.882434 0.875270 1.874114
v -1.123332 1.061413 1.868886
v -0.990785 1.003743 1.882896
v -1.013508 0.597437 1.856413
v -1.321428 0.935978 1.920287
v -1.300844 0.933435 2.024345
v -1.115286 0.655954 2.022431
v -0.995055 0.570857 1.999562
v -1.236215 0.799342 2.032232
v -1.117629 1.088697 2.013483
v -0.811840 0.726118 1.988700
v -0.968542 1.026176 2.016362
v -0.847613 0.882787 2.006562
v -1.256240 0.794594 1.928621
v -0.812319 0.720137 1.883176
v -1.130339 0.645311 1.918417
v -0.851661 0.881470 1.901895
v -1.130680 1.097623 1.908978
v -0.977562 1.030753 1.912100
v -1.003067 0.558493 1.894484
v -0.555673 2.296838 -0.667535
v -0.537727 2.684745 -0.446464
v -0.198681 2.692888 -0.485320
v -0.625589 2.414280 -0.648090
v -0.216616 2.304010 -0.706481
v -0.138596 2.426761 -0.704956
v -0.604798 2.564114 -0.449158
v -0.117772 2.573837 -0.506280
v -0.252855 3.279552 -0.892084
v -0.312787 3.390980 -0.874432
v -0.546167 3.385087 -0.845935
v -0.592644 3.271639 -0.850533
v -0.533501 3.378635 -0.654560
v -0.282315 3.384732 -0.682671
v -0.582807 3.258417 -0.659425
v -0.222017 3.265201 -0.701111
v -0.580704 2.813481 -0.893941
v -0.643928 2.699643 -0.896491
v -0.223060 2.807961 -0.663086
v -0.562106 2.799819 -0.624230
v -0.629178 2.679187 -0.626923
v -0.265591 2.821277 -0.932433
v -0.185142 2.710326 -0.952594
v -0.142152 2.688911 -0.684046
v 0.852466 -1.070743 -0.528898
v 0.673264 1.104211 -0.435459
v 0.765037 -1.017239 0.434293
v 0.673873 0.863620 0.470178
v 0.009472 1.160328 -0.423262
v 0.002798 -1.122714 0.570682
v -0.001245 1.056994 0.471364
v -0.003672 -1.184166 -0.655983
v 0.975980 -1.013312 -0.251552
v 0.956472 -0.962475 0.107221
v 0.860122 0.932004 0.196448
v 0.859510 1.036034 -0.160451
v 0.015140 1.249886 -0.124785
v 0.009416 1.169491 0.259095
v 0.813138 1.289834 -0.012054
v 0.710128 1.340296 -0.181352
v 0.170628 1.300283 -0.203914
v 0.168287 1.159013 0.365523
v 0.711174 1.174522 0.379653
v 0.087869 1.202036 0.181861
v 0.813551 1.224277 0.209805
v 0.088703 1.253021 -0.017220
v 0.638400 3.755481 0.845009
v 0.573008 3.793597 0.739001
v 0.255460 3.792583 0.739064
v 0.256553 3.665375 1.090975
v 0.574098 3.666701 1.090047
v 0.176511 3.703593 0.984557
v 0.638832 3.705297 0.983836
v 0.176080 3.753777 0.845731
v 0.216158 2.599262 0.251387
v 0.644352 2.611262 0.255141
v 0.135130 2.550064 0.394542
v 0.645601 2.455788 0.705828
v 0.728688 2.503035 0.569491
v 0.217406 2.443770 0.703278
v 0.728192 2.564558 0.391281
v 0.135591 2.492790 0.560593
v 0.233977 2.479084 0.231420
v 0.160634 2.438183 0.364847
v 0.706726 2.399120 0.526711
v 0.160949 2.391102 0.518600
v 0.629323 2.489008 0.234336
v 0.630180 2.360720 0.653722
v 0.234837 2.350317 0.651805
v 0.706388 2.449831 0.360842
v 0.838656 -0.664551 -0.592862
v 0.798432 -0.545972 0.330846
v 0.001175 -0.441933 -0.568692
v -0.000846 -0.441933 0.568676
v 0.898276 -0.696008 -0.405841
v 0.777251 -0.597280 -0.087253
v 1.074996 -0.545537 -0.052717
v 0.922376 -0.512596 0.070875
v 1.189656 -0.799263 -0.396323
v 1.186409 -0.667692 -0.235032
v 0.941530 -0.815496 -0.525007
v 0.678542 -0.536857 -0.056014
v 0.818338 -0.713724 -0.426384
v 0.718566 -0.599623 -0.238775
v 0.693349 0.513155 -0.591487
v 0.702525 0.320566 0.380225
v 0.001259 0.527405 -0.530145
v -0.009629 0.479913 0.492554
v 0.863997 0.410071 -0.331736
v 0.862712 0.331726 0.047342
v 0.703008 -0.427348 -0.590607
v 0.698848 -0.393995 0.361278
v 0.001050 -0.271286 -0.559869
v -0.000948 -0.271286 0.559864
v 0.841122 -0.464127 -0.369047
v 0.818791 -0.434213 -0.006747
v 1.204942 2.175419 -0.824728
v 1.123740 2.155927 -0.749028
v 1.307063 2.167355 -1.052934
v 1.277440 2.179938 -0.944913
v 1.153992 2.189769 -1.144427
v 0.970668 2.178341 -0.840522
v 1.053806 2.212685 -1.078584
v 0.981308 2.208166 -0.958399
v 1.050645 0.638603 -1.386664
v 1.300749 0.617065 -1.240510
v 1.271600 0.650635 -1.059915
v 0.906708 0.689806 -1.274985
v 0.755524 0.668686 -0.904722
v 1.005731 0.648695 -0.758955
v 1.154497 0.656626 -0.867889
v 0.789587 0.695379 -1.083303
v 1.027790 0.382751 -1.243587
v 0.908340 0.465562 -1.173045
v 1.006115 0.646307 -0.766336
v 1.246378 0.422007 -1.128092
v 1.227730 0.523890 -1.003296
v 0.787464 0.605890 -0.882188
v 1.132758 0.612921 -0.861383
v 0.813342 0.554615 -1.029841
v 0.655264 -1.095713 0.513721
v 0.692503 -1.177745 -0.584398
v 0.801210 -1.143782 -0.355618
v 0.730369 -1.165614 0.147015
v 0.357119 -0.531536 -0.535795
v 0.348813 -0.501000 0.524773
v 0.293225 -0.304426 0.508518
v 0.286197 -0.299507 -0.545056
v -0.000136 0.135501 -0.561341
v -0.007459 0.110409 0.526152
v 0.279719 0.119883 -0.559308
v 0.281627 0.068972 0.477285
v 0.283526 -1.363127 0.491625
v 0.001964 -1.208153 0.553798
v 0.435680 -2.377615 0.454746
v -0.001547 -1.360050 -0.675645
v -0.004908 -2.462116 0.516355
v 0.503073 -1.361235 -0.627700
v 0.700507 -1.254364 -0.349076
v 0.627929 -1.246736 0.165763
v 0.460376 -2.143357 0.480587
v -0.005232 -2.144719 0.550449
v 0.005601 -2.183531 -0.589259
v 0.501525 -2.183531 -0.573160
v 0.698213 -2.144719 -0.348687
v 0.682319 -2.144719 0.225815
v 0.004429 -2.421449 -0.465901
v 0.475583 -2.421449 -0.450044
v 0.644524 -2.421449 -0.278947
v 0.625519 -2.421449 0.195434
v 0.460735 -1.756311 0.477978
v 0.678555 -1.754101 0.238218
v 0.685013 -1.754101 -0.381535
v 0.005333 -1.835426 -0.655325
v 0.492480 -1.835426 -0.641534
v -0.005034 -1.754101 0.553675
v 0.408054 -2.517548 0.423151
v -0.004685 -2.558215 0.492902
v -0.001680 -2.558215 0.176738
v 0.002324 -2.558215 -0.244517
v 0.000499 -2.558215 -0.052545
v 0.406529 -2.517548 -0.232983
v 0.523933 -2.517548 -0.182382
v 0.504847 -2.517548 0.192161
v 0.482569 -1.238879 0.435558
v 0.482125 -2.421449 0.423099
v 0.511584 -1.754101 0.449375
v 0.511248 -2.144719 0.453043
v 0.001325 -1.361883 0.530024
v -0.004966 -2.416921 0.522431
v 1.323582 1.935937 -1.092831
v 1.290100 1.950722 -0.962173
v 0.920446 1.949103 -0.838277
v 1.203218 1.945306 -0.818144
v 0.935214 1.984549 -0.978335
v 1.140141 1.962798 -1.202477
v 1.022097 1.989965 -1.122364
v 1.103887 1.922242 -0.728631
v 1.361017 1.973469 -1.109109
v 1.357527 2.078685 -1.095850
v 1.219793 2.076911 -0.791782
v 1.112327 2.063401 -0.689368
v 1.316762 2.082955 -0.952532
v 1.152790 2.108665 -1.218226
v 0.907590 2.093380 -0.811744
v 1.017645 2.126754 -1.131320
v 0.920677 2.120710 -0.970570
v 1.320920 1.977571 -0.958498
v 0.892581 1.988769 -0.813323
v 1.219965 1.971278 -0.791139
v 0.908551 2.016879 -0.977278
v 1.147863 2.004681 -1.236516
v 1.009506 2.023172 -1.144636
v 1.105736 1.957557 -0.685916
v 0.588300 3.540175 0.635515
v 0.590026 3.227440 0.954675
v 0.248686 3.223616 0.954799
v 0.657670 3.499785 0.747847
v 0.246957 3.536683 0.634722
v 0.167236 3.495106 0.749047
v 0.658698 3.268339 0.842127
v 0.168255 3.264602 0.840723
v 0.239868 3.471808 1.626299
v 0.299235 3.433513 1.732749
v 0.534417 3.434536 1.731949
v 0.582275 3.473070 1.625765
v 0.545766 3.250907 1.677382
v 0.292964 3.247410 1.677367
v 0.596536 3.291740 1.564862
v 0.233302 3.288472 1.563259
v 0.574417 3.629534 1.192866
v 0.639151 3.668130 1.086656
v 0.248425 3.367988 1.111629
v 0.589764 3.371812 1.111505
v 0.658436 3.412711 0.998958
v 0.256872 3.628207 1.193795
v 0.176831 3.666426 1.087377
v 0.167993 3.408974 0.997554
vn -0.2314 0.0641 0.9707
vn 0.6926 -0.0330 -0.7206
vn -0.7663 0.4284 -0.4788
vn -0.5313 -0.7774 0.3367
vn -0.8197 0.2285 0.5253
vn -0.5756 -0.8071 0.1314
vn 0.0253 0.9766 0.2137
vn -0.1874 -0.1887 0.9640
vn -0.8299 -0.5284 -0.1793
vn -0.4196 0.0858 0.9036
vn -0.1050 0.0250 -0.9942
vn -0.0954 -0.0994 0.9905
vn -0.0367 0.9757 0.2161
vn -0.9640 0.2642 0.0297
vn 0.0543 0.3233 0.9447
vn 0.1887 0.8638 0.4672
vn -0.0575 0.8569 -0.5123
vn -0.8633 0.0637 0.5006
vn 0.8445 0.1044 -0.5253
vn 0.0294 0.3412 -0.9395
vn -0.8244 0.3258 -0.4628
vn 0.9977 -0.0586 0.0337
vn -0.9800 0.1986 0.0143
vn 0.8323 -0.1341 0.5378
vn -0.0303 0.0419 -0.9987
vn -0.8940 0.3998 0.2021
vn -0.7846 0.5393 -0.3060
vn -0.8771 -0.1819 0.4446
vn -0.0038 0.0885 0.9961
vn -0.4929 -0.3210 0.8087
vn -0.8100 -0.5676 0.1472
vn -0.9194 -0.0526 -0.3898
vn -0.2970 -0.9549 -0.0017
vn 0.3804 -0.8331 -0.4016
vn -0.8386 0.0375 0.5435
vn -0.8150 0.2134 -0.5388
vn -0.9946 0.1035 -0.0085
vn -0.0044 -0.1597 0.9872
vn 0.0201 0.1662 -0.9859
vn -0.1677 0.0466 0.9847
vn -0.8962 -0.0709 0.4380
vn -0.8316 0.0236 -0.5549
vn -0.9999 -0.0124 -0.0018
vn 0.4909 0.3643 -0.7914
vn -0.9748 -0.1721 0.1420
vn -0.5980 0.2174 -0.7715
vn 0.6158 -0.0962 0.7820
vn -0.7580 -0.2768 0.5906
vn -0.4376 -0.2914 0.8506
vn 0.9257 0.2474 -0.2860
vn 0.8169 0.2933 -0.4967
vn -0.0239 -0.0037 -0.9997
vn -0.1857 0.1871 0.9646
vn -0.1758 0.1216 0.9769
vn -0.0494 0.0515 -0.9974
vn -0.0618 0.1170 -0.9912
vn -0.6855 -0.7170 -0.1265
vn -0.5849 -0.8064 0.0870
vn -0.7352 -0.6472 -0.2018
vn 0.0009 -0.0439 -0.9990
vn -0.1251 0.0729 0.9895
vn -0.1674 0.0660 0.9837
vn -0.0311 0.0794 -0.9964
vn -0.0199 -0.1782 -0.9838
vn -0.9995 0.0188 0.0252
vn -0.1557 0.2423 -0.9576
vn -0.4627 -0.8339 0.3007
vn -0.0181 -0.4536 -0.8910
vn -0.9796 -0.1997 0.0236
vn -0.6696 -0.2941 -0.6820
vn -0.7771 0.0053 0.6293
vn -0.8082 -0.0174 -0.5886
vn -0.2196 -0.8142 -0.5375
vn -0.7576 -0.5793 0.3007
vn -0.2024 -0.2326 0.9513
vn -0.7951 -0.1473 0.5883
vn -0.8485 0.0156 -0.5290
vn -0.8424 0.0882 0.5316
vn -0.9550 0.1564 0.2521
vn -0.1149 0.0489 -0.9922
vn -0.0785 -0.9969 0.0025
vn -0.0468 -0.9923 -0.1144
vn -0.0796 -0.9963 0.0316
vn -0.6234 -0.7816 0.0199
vn -0.0063 -0.9156 -0.4020
vn -0.2114 0.0198 0.9772
vn -0.4838 -0.0016 0.8752
vn -0.4737 -0.1487 0.8680
vn -0.4682 0.1795 0.8652
vn -0.1805 -0.1313 0.9748
vn 0.2399 -0.0270 0.9704
vn 0.8489 0.4943 -0.1875
vn 0.8101 0.3663 -0.4578
vn 0.6814 -0.6806 0.2693
vn 0.8167 0.0688 0.5729
vn 0.7395 -0.6690 0.0752
vn -0.4130 0.8745 -0.2545
vn 0.0950 -0.5628 0.8211
vn 0.6533 -0.7446 -0.1367
vn 0.9459 -0.1321 -0.2963
vn -0.1133 0.0159 -0.9934
vn 0.1197 -0.1561 0.9805
vn -0.3172 0.9292 0.1899
vn 0.9870 0.1549 0.0435
vn 0.1636 0.5662 0.8078
vn -0.2412 0.8625 0.4450
vn 0.0590 0.8213 -0.5674
vn 0.8624 -0.0573 0.5030
vn -0.9166 0.1809 -0.3564
vn 0.0136 0.3458 -0.9382
vn 0.8607 0.2259 -0.4563
vn -0.9983 0.0572 0.0105
vn 0.9962 0.0844 0.0231
vn -0.9193 -0.0539 0.3899
vn -0.1325 -0.0799 -0.9880
vn 0.9365 0.1834 0.2989
vn 0.7878 0.4545 -0.4157
vn 0.9712 -0.2375 -0.0201
vn 0.0859 0.0257 0.9960
vn 0.8503 0.1061 0.5155
vn 0.8454 -0.5205 0.1197
vn 0.4077 -0.1285 -0.9040
vn -0.4872 -0.8635 0.1306
vn -0.3542 -0.9228 0.1514
vn 0.8977 -0.1026 0.4285
vn 0.8351 0.1668 -0.5242
vn 1.0000 0.0059 0.0046
vn -0.0187 -0.2326 0.9724
vn -0.0040 0.1666 -0.9860
vn 0.1439 0.1219 0.9821
vn 0.9455 -0.0766 0.3165
vn 0.8372 0.0081 -0.5468
vn 0.9997 -0.0261 -0.0020
vn -0.7366 -0.3081 -0.6021
vn 0.9990 -0.0231 0.0389
vn 0.4286 -0.4789 -0.7661
vn -0.4281 0.5493 0.7176
vn 0.8913 0.2288 0.3914
vn 0.6227 0.4281 0.6549
vn -0.9791 -0.0494 -0.1974
vn -0.9097 -0.1813 -0.3735
vn 0.0071 -0.0036 -1.0000
vn 0.4015 0.0804 0.9123
vn 0.4623 0.2222 0.8584
vn 0.0569 0.0516 -0.9970
vn 0.1201 0.1152 -0.9861
vn 0.5867 -0.7936 -0.1610
vn 0.5797 -0.8135 0.0464
vn 0.7107 -0.6614 -0.2395
vn -0.0759 -0.0017 -0.9971
vn 0.1742 0.0870 0.9809
vn 0.1808 0.0876 0.9796
vn -0.0881 0.0111 -0.9961
vn 0.0278 -0.1864 -0.9821
vn 0.9993 0.0346 0.0104
vn 0.1002 0.1293 -0.9865
vn 0.6278 -0.7308 0.2679
vn 0.0288 -0.4619 -0.8865
vn 0.9826 -0.1838 0.0272
vn 0.7282 -0.3759 -0.5731
vn 0.7844 0.0052 0.6203
vn 0.8068 -0.0224 -0.5904
vn 0.3061 -0.9027 -0.3023
vn 0.5747 -0.7340 0.3620
vn 0.1981 -0.1522 0.9683
vn 0.7902 -0.1475 0.5949
vn 0.8136 0.0125 -0.5813
vn 0.8718 0.1534 0.4652
vn 0.9893 -0.0398 0.1401
vn 0.0946 0.0269 -0.9952
vn 0.0784 -0.9969 0.0040
vn 0.1001 -0.9950 0.0010
vn 0.0982 -0.9952 0.0009
vn 0.6354 -0.7718 0.0255
vn 0.0135 -0.9159 -0.4012
vn 0.1326 -0.1520 0.9794
vn 0.4762 0.0055 0.8793
vn 0.4680 -0.1455 0.8716
vn 0.4757 0.1846 0.8600
vn 0.1619 -0.1313 0.9780
vn -0.1646 0.0102 0.9863
vn 0.1477 0.9888 -0.0227
vn -0.7886 0.4503 -0.4187
vn -0.5853 -0.7436 0.3233
vn -0.8041 0.1890 0.5636
vn -0.7162 -0.6863 0.1268
vn 0.3180 0.9064 -0.2780
vn 0.0155 -0.6873 0.7262
vn -0.8378 -0.5403 0.0786
vn -0.6367 0.7078 -0.3060
vn -0.5463 -0.1040 -0.8311
vn -0.0089 0.0368 0.9993
vn 0.0131 0.9786 0.2052
vn -0.9639 0.2646 0.0304
vn -0.1472 0.6642 0.7330
vn 0.0002 0.9825 0.1865
vn 0.0872 0.6928 -0.7159
vn -0.8354 0.0574 0.5467
vn 0.9299 0.0738 -0.3603
vn 0.0320 0.3398 -0.9399
vn -0.7470 0.3279 -0.5783
vn 0.9984 -0.0562 0.0111
vn -0.9790 0.2022 -0.0256
vn 0.9062 -0.1340 0.4010
vn -0.0933 -0.1268 -0.9875
vn -0.8790 -0.1827 0.4405
vn -0.9411 0.3120 -0.1303
vn -0.9102 0.3992 0.1106
vn -0.1585 0.0021 0.9873
vn -0.7540 -0.2044 0.6243
vn -0.7725 -0.3940 0.4980
vn -0.6269 0.1352 -0.7673
vn 0.2249 -0.8423 -0.4898
vn 0.6854 -0.5797 -0.4406
vn -0.8957 -0.0063 0.4446
vn -0.8303 0.1975 -0.5212
vn -0.9966 0.0813 0.0154
vn -0.0065 -0.1586 0.9873
vn 0.0514 0.2007 -0.9783
vn -0.1658 0.0508 0.9849
vn -0.8886 -0.0771 0.4521
vn -0.9174 -0.0362 -0.3964
vn -0.9793 -0.0919 0.1802
vn 0.6023 0.3679 -0.7084
vn -0.9525 -0.1885 0.2390
vn -0.6405 0.1898 -0.7442
vn 0.5815 -0.1176 0.8050
vn -0.8001 -0.2572 0.5420
vn -0.4928 -0.2841 0.8224
vn 0.9353 0.2382 -0.2616
vn 0.7560 0.3241 -0.5687
vn -0.0440 -0.0190 -0.9989
vn -0.2300 0.0580 0.9715
vn -0.3179 0.2127 0.9239
vn -0.0506 0.0491 -0.9975
vn -0.1651 0.0600 -0.9845
vn -0.6447 -0.7470 -0.1623
vn -0.5731 -0.8164 0.0712
vn -0.6932 -0.6864 -0.2198
vn -0.0227 -0.0193 -0.9996
vn -0.1473 0.0887 0.9851
vn -0.1468 0.0845 0.9855
vn 0.0573 0.0177 -0.9982
vn -0.0259 -0.1864 -0.9821
vn -0.9997 0.0125 0.0211
vn -0.1142 0.1090 -0.9875
vn -0.5248 -0.7579 0.3874
vn -0.0138 -0.4602 -0.8877
vn -0.9807 -0.1945 0.0207
vn -0.7226 -0.3772 -0.5792
vn -0.8037 -0.0233 0.5946
vn -0.7513 -0.1126 -0.6503
vn -0.3018 -0.9024 -0.3074
vn -0.5802 -0.7349 0.3512
vn -0.2165 -0.1522 0.9644
vn -0.8320 -0.2323 0.5037
vn -0.8102 -0.0342 -0.5851
vn -0.7690 0.1444 0.6227
vn -0.9954 -0.0924 0.0251
vn -0.0263 -0.0431 -0.9987
vn -0.0800 -0.9968 -0.0008
vn -0.1001 -0.9950 -0.0010
vn -0.0982 -0.9952 -0.0009
vn -0.6329 -0.7741 0.0152
vn -0.0902 -0.8469 -0.5240
vn -0.1167 -0.1513 0.9816
vn -0.4822 -0.0014 0.8761
vn -0.4753 -0.1492 0.8671
vn -0.2150 0.0135 0.9765
vn -0.2211 -0.4214 0.8795
vn 0.3571 0.0889 0.9298
vn -0.0234 -0.7102 0.7036
vn 0.8354 0.3831 -0.3941
vn 0.6688 -0.6904 0.2759
vn 0.8369 0.1088 0.5364
vn 0.6289 -0.7710 0.1001
vn -0.2415 0.9606 0.1372
vn 0.2230 -0.1911 0.9559
vn 0.7688 -0.4878 0.4134
vn -0.4117 0.6136 0.6738
vn 0.4011 -0.1292 -0.9069
vn 0.0122 0.0365 0.9993
vn -0.1564 0.9570 0.2444
vn 0.9869 0.1552 0.0440
vn -0.0330 0.2831 0.9585
vn -0.1227 0.9530 0.2770
vn -0.0261 0.7342 -0.6784
vn 0.8626 -0.0572 0.5026
vn -0.8837 0.1913 -0.4271
vn -0.0016 0.3402 -0.9404
vn 0.8615 0.2253 -0.4550
vn -0.9983 0.0559 0.0192
vn 0.9962 0.0841 0.0237
vn -0.8808 -0.0635 0.4691
vn -0.1360 -0.0684 -0.9883
vn 0.9553 -0.2840 0.0823
vn 0.9298 0.2690 -0.2512
vn 0.8358 0.5042 0.2173
vn 0.1252 0.0036 0.9921
vn 0.6397 0.1099 0.7607
vn 0.8427 -0.0334 0.5374
vn 0.4629 -0.1482 -0.8739
vn -0.4667 -0.8628 0.1941
vn 0.0484 -0.8418 0.5377
vn 0.8313 -0.0479 0.5537
vn 0.8523 0.1437 -0.5029
vn 1.0000 0.0044 -0.0004
vn 0.0012 -0.2250 0.9743
vn -0.0803 0.2519 -0.9644
vn 0.1773 0.0509 0.9828
vn 0.9012 -0.0161 0.4331
vn 0.8486 0.0004 -0.5290
vn 0.9959 -0.0618 0.0665
vn -0.6493 -0.3709 -0.6640
vn 0.9925 0.0401 0.1156
vn 0.4760 -0.4772 -0.7387
vn -0.4687 0.5464 0.6940
vn 0.8698 0.2457 0.4279
vn 0.6114 0.4322 0.6628
vn -0.9863 -0.0303 -0.1623
vn -0.8701 -0.2146 -0.4438
vn 0.0486 -0.0332 -0.9983
vn 0.3705 0.1801 0.9112
vn 0.4045 0.1686 0.8988
vn 0.0889 -0.0126 -0.9960
vn 0.1003 0.1263 -0.9869
vn 0.6414 -0.7563 -0.1290
vn 0.6753 -0.7243 0.1393
vn 0.7031 -0.6688 -0.2417
vn -0.1193 -0.0356 -0.9922
vn 0.1785 0.0901 0.9798
vn 0.1785 0.0896 0.9799
vn 0.0117 0.0793 -0.9968
vn 0.0318 -0.1918 -0.9809
vn 0.9996 0.0088 0.0277
vn 0.0943 0.1117 -0.9893
vn 0.5224 -0.7964 0.3046
vn 0.0299 -0.4602 -0.8873
vn 0.9780 -0.2050 0.0392
vn 0.6787 -0.3006 -0.6701
vn 0.7989 -0.0114 0.6014
vn 0.7569 -0.1070 -0.6447
vn 0.2280 -0.8175 -0.5289
vn 0.7518 -0.5793 0.3150
vn 0.1843 -0.2326 0.9549
vn 0.8242 -0.2262 0.5191
vn 0.8037 -0.0006 -0.5950
vn 0.7830 0.0607 0.6191
vn 0.9949 0.1008 0.0104
vn 0.0283 -0.0423 -0.9987
vn 0.0800 -0.9968 0.0008
vn 0.0489 -0.9923 -0.1135
vn 0.0790 -0.9963 0.0331
vn 0.6221 -0.7823 0.0317
vn 0.1001 -0.8469 -0.5222
vn 0.2416 0.0502 0.9691
vn 0.4900 0.0078 0.8717
vn 0.4614 -0.1433 0.8756
vn 0.2478 0.0399 0.9680
vn 0.2044 -0.4214 0.8836
vn -0.1188 0.0617 0.9910
vn -0.1631 -0.0072 0.9866
vn -0.1785 -0.1009 0.9788
vn 0.1349 0.0575 0.9892
vn 0.1484 0.0065 0.9889
vn 0.1598 -0.1009 0.9820
vn -0.1640 0.0297 0.9860
vn -0.1639 -0.0081 0.9864
vn -0.1621 -0.1315 0.9780
vn 0.1605 0.0381 0.9863
vn 0.1604 -0.0082 0.9870
vn 0.1476 -0.1238 0.9813
vn -0.9948 0.0846 0.0571
vn 0.8137 -0.5506 -0.1866
vn 0.0055 -0.9912 -0.1322
vn -0.1230 0.0904 -0.9883
vn -0.8600 -0.5103 -0.0069
vn 0.9889 0.0493 -0.1402
vn -0.9984 -0.0170 0.0542
vn 0.1126 0.0464 0.9926
vn 0.7908 0.3232 0.5198
vn 0.8895 -0.1637 0.4267
vn 0.9827 -0.1830 0.0287
vn 0.7934 0.1799 0.5815
vn 0.0608 0.6098 0.7902
vn -0.5776 -0.7476 0.3278
vn -0.6928 0.3257 0.6434
vn 0.0710 0.4016 0.9131
vn 0.5268 0.4917 -0.6933
vn -0.8038 -0.3150 0.5046
vn 0.3405 0.6084 -0.7169
vn 0.1834 -0.1484 0.9718
vn -0.0493 0.1274 0.9906
vn 0.0682 -0.0107 0.9976
vn 0.3222 0.7922 0.5183
vn -0.4297 -0.7445 0.5110
vn -0.7732 -0.3862 -0.5030
vn 0.7115 0.5722 0.4078
vn -0.5281 0.5798 -0.6204
vn 0.7599 0.2846 -0.5844
vn -0.7578 -0.2518 -0.6020
vn 0.3253 0.8253 -0.4617
vn -0.6910 -0.6146 0.3805
vn -0.5752 0.7456 -0.3364
vn -0.5145 0.5153 -0.6854
vn -0.9349 -0.3447 0.0847
vn 0.4315 0.6237 -0.6518
vn 0.7630 0.6456 -0.0316
vn 0.9382 0.3450 -0.0288
vn -0.5436 -0.8338 0.0965
vn -0.7344 -0.6687 0.1157
vn 0.6457 -0.7633 -0.0194
vn -0.6032 0.7930 0.0855
vn -0.9348 -0.3303 0.1303
vn 0.3993 0.9168 -0.0038
vn 0.3866 0.9222 0.0070
vn -0.8990 -0.4046 0.1679
vn -0.6348 0.7591 0.1441
vn 0.6474 -0.7611 0.0402
vn -0.7469 -0.6418 0.1738
vn -0.5491 -0.8197 0.1633
vn 0.9709 0.2388 -0.0179
vn 0.7626 0.6457 -0.0376
vn 0.8952 0.1158 0.4303
vn -0.6680 -0.5940 0.4483
vn 0.7336 0.2521 -0.6311
vn -0.4922 0.6234 0.6076
vn -0.5564 -0.5415 -0.6303
vn 0.5694 -0.6354 0.5215
vn -0.6293 -0.4895 -0.6036
vn 0.4379 -0.5657 -0.6987
vn -0.0139 0.9961 0.0873
vn 0.7666 0.6401 -0.0515
vn -0.9965 0.0530 0.0643
vn 0.9838 0.0931 -0.1534
vn -0.8533 -0.5179 0.0597
vn -0.0094 -0.9996 -0.0274
vn 0.8034 -0.5728 -0.1629
vn -0.8725 0.4835 0.0711
vn -0.9239 0.3755 0.0735
vn 0.8780 0.4621 -0.1245
vn -0.0203 0.9992 0.0350
vn -0.1622 0.0682 0.9844
vn 0.4231 0.0741 0.9030
vn 0.9804 0.1315 -0.1465
vn -0.1129 0.0864 -0.9898
vn 0.9895 -0.0128 -0.1440
vn 0.8239 0.5205 0.2240
vn -0.8066 0.4396 0.3952
vn 0.0416 0.8413 0.5389
vn -0.9984 -0.0169 0.0533
vn 0.9926 0.0351 0.1161
vn -0.8355 0.2311 -0.4986
vn -0.0017 0.3780 -0.9258
vn -0.0029 0.9404 0.3400
vn 0.8625 0.2353 -0.4480
vn -0.9995 0.0083 0.0320
vn 0.9981 0.0272 0.0560
vn 0.0109 -0.9780 -0.2081
vn -0.8573 -0.3641 0.3640
vn 0.9835 -0.1724 -0.0547
vn -0.9766 -0.2064 -0.0612
vn 0.8507 -0.0223 -0.5252
vn 0.0084 -0.4812 0.8766
vn -0.8658 -0.0657 -0.4961
vn 0.8462 -0.3458 0.4054
vn 0.0031 0.1644 -0.9864
vn -0.6988 -0.5619 -0.4427
vn 0.9119 0.3533 0.2089
vn -0.5390 -0.6005 -0.5906
vn -0.0044 0.9695 0.2449
vn 0.1821 0.9812 -0.0644
vn 0.0903 0.9917 0.0918
vn -0.3437 0.5920 -0.7290
vn 0.5987 0.3338 0.7281
vn 0.6205 -0.7455 0.2434
vn -0.7203 0.5569 -0.4136
vn 0.3276 -0.6315 -0.7028
vn -0.8704 -0.2962 -0.3932
vn -0.8915 -0.4530 0.0011
vn 0.5650 -0.1606 0.8093
vn 0.7184 -0.2614 0.6447
vn -0.4773 0.0715 0.8758
vn 0.4677 -0.5356 -0.7031
vn 0.9357 -0.1916 0.2962
vn -0.6393 -0.3310 -0.6940
vn -0.8436 0.1358 -0.5194
vn -0.9769 0.1345 -0.1662
vn 0.5918 -0.0647 0.8035
vn 0.8519 -0.0513 0.5211
vn -0.5021 0.0198 0.8646
vn 0.5082 0.0849 -0.8571
vn 0.9855 -0.0356 0.1657
vn -0.5720 0.1508 -0.8063
vn -0.5290 0.1713 -0.8311
vn 0.9663 -0.0004 0.2573
vn 0.5224 0.1236 -0.8437
vn -0.5057 0.0596 0.8606
vn 0.8562 0.0045 0.5166
vn 0.6786 -0.0183 0.7343
vn -0.9872 0.1427 -0.0717
vn -0.8509 0.1322 -0.5083
vn -0.8243 0.5620 0.0678
vn 0.8144 0.2907 0.5022
vn -0.7536 -0.6139 -0.2348
vn 0.4768 0.5877 -0.6537
vn 0.5295 -0.7512 0.3941
vn -0.3745 0.5347 0.7576
vn 0.5967 -0.7304 0.3325
vn -0.4470 -0.6798 0.5814
vn 0.0030 -0.3071 0.9517
vn -0.8788 -0.1295 0.4594
vn 0.9963 0.0820 0.0255
vn -0.9992 0.0367 0.0154
vn 0.8615 0.2361 -0.4496
vn -0.0025 0.3786 -0.9256
vn -0.8804 0.2040 -0.4282
vn 0.8645 -0.0967 0.4933
vn 0.9178 -0.0599 0.3924
vn -0.8960 -0.0987 0.4330
vn 0.0039 -0.2846 0.9586
vn 0.2821 -0.9440 -0.1709
vn -0.2370 -0.9554 -0.1761
vn -0.9935 -0.0055 0.1135
vn -0.0100 0.9392 0.3432
vn -0.9992 0.0277 -0.0272
vn -0.8002 -0.4419 0.4054
vn 0.8402 -0.3982 0.3680
vn 0.0085 -0.7357 0.6773
vn 0.9963 0.0638 -0.0571
vn -0.9947 0.0830 0.0607
vn 0.8278 -0.5236 -0.2015
vn 0.0057 -0.9912 -0.1326
vn -0.8598 -0.5107 -0.0071
vn 0.9875 0.0263 -0.1555
vn -0.9961 0.0268 0.0839
vn 0.1100 0.0450 0.9929
vn 0.7731 0.3226 0.5462
vn -0.9005 -0.4316 -0.0523
vn 0.2051 -0.3939 0.8960
vn 0.5913 0.0810 0.8024
vn 0.0751 0.5888 0.8048
vn -0.6745 0.2389 0.6985
vn -0.7696 0.3370 0.5423
vn 0.0585 0.4342 0.8989
vn -0.7709 -0.3399 0.5386
vn 0.3309 0.7297 -0.5984
vn 0.2958 0.8265 0.4789
vn -0.4132 -0.7782 0.4729
vn -0.6697 -0.4071 -0.6211
vn 0.6205 0.5438 -0.5650
vn 0.9285 0.0762 -0.3634
vn 0.3725 0.8421 -0.3900
vn 0.7042 0.5346 -0.4672
vn -0.6151 0.7868 -0.0508
vn -0.6178 0.3478 -0.7052
vn -0.8454 -0.5166 0.1359
vn 0.3946 0.6183 -0.6797
vn 0.7364 0.6756 -0.0354
vn 0.9699 0.2398 -0.0431
vn -0.3907 -0.9183 0.0638
vn -0.7557 -0.6451 0.1130
vn 0.6095 -0.7928 -0.0075
vn -0.6400 0.7621 0.0984
vn -0.9055 -0.4022 0.1355
vn 0.3824 0.9240 -0.0044
vn 0.3996 0.9163 0.0284
vn -0.8886 -0.4171 0.1909
vn -0.5401 -0.8301 0.1389
vn 0.9731 0.2268 -0.0405
vn 0.8686 0.1443 0.4740
vn 0.6081 0.2911 -0.7386
vn -0.5456 -0.6561 -0.5215
vn -0.6293 -0.4895 -0.6037
vn 0.0285 0.9945 0.1006
vn 0.8175 0.5700 -0.0818
vn -0.9982 -0.0429 0.0414
vn 0.9846 0.0744 -0.1582
vn -0.7444 -0.6674 0.0208
vn 0.0189 -0.9996 -0.0199
vn 0.8342 -0.5282 -0.1587
vn -0.7954 0.5981 0.0981
vn -0.9237 0.3759 0.0738
vn 0.8690 0.4838 -0.1040
vn -0.0208 0.9991 0.0359
vn -0.2488 0.0629 0.9665
vn 0.3543 0.0767 0.9320
vn 0.9800 0.1323 -0.1483
vn -0.1160 0.0940 -0.9888
vn 0.9874 0.0263 -0.1560
vn -0.9928 -0.0918 0.0767
vn 0.9922 0.0382 0.1185
vn -0.8191 0.2252 -0.5276
vn -0.0014 0.3776 -0.9260
vn 0.8628 0.2349 -0.4477
vn -0.9995 0.0291 0.0136
vn 0.9975 0.0671 0.0212
vn 0.0135 -0.9777 -0.2095
vn -0.8569 -0.3620 0.3670
vn 0.9814 -0.1806 -0.0651
vn -0.9743 -0.2136 -0.0710
vn 0.8492 -0.0145 -0.5279
vn 0.0083 -0.4816 0.8763
vn -0.8628 -0.0443 -0.5036
vn 0.8482 -0.3537 0.3943
vn 0.0040 0.1673 -0.9859
vn 0.8890 0.3892 0.2413
vn -0.5303 -0.4737 -0.7032
vn -0.3579 0.6313 -0.6880
vn 0.6154 0.3721 0.6948
vn 0.7364 -0.6419 0.2135
vn -0.8326 -0.2342 -0.5019
vn -0.9458 -0.2419 -0.2166
vn 0.2747 -0.9106 0.3089
vn 0.8513 -0.0619 0.5211
vn -0.2414 -0.9269 0.2873
vn 0.4141 -0.4722 -0.7782
vn 0.9689 -0.1625 0.1866
vn -0.6492 -0.3187 -0.6906
vn -0.8504 0.1374 -0.5078
vn -0.9902 0.1179 -0.0746
vn 0.6754 -0.0539 0.7355
vn 0.8560 -0.0522 0.5144
vn -0.5109 0.0189 0.8594
vn 0.5204 0.0861 -0.8496
vn 0.9673 -0.0327 0.2516
vn -0.5325 0.1451 -0.8339
vn -0.5207 0.1490 -0.8407
vn 0.9618 0.0225 0.2729
vn 0.6895 0.0055 0.7243
vn -0.9909 0.1197 -0.0611
vn -0.7961 0.6040 0.0383
vn -0.8532 -0.4938 -0.1678
vn 0.5539 -0.6533 0.5161
vn -0.3745 0.5347 0.7575
vn 0.0038 -0.3067 0.9518
vn -0.8322 -0.1397 0.5366
vn 0.9951 0.0409 0.0896
vn -0.9987 0.0153 0.0496
vn 0.8625 0.2358 -0.4478
vn -0.0017 0.3789 -0.9255
vn -0.8360 0.2174 -0.5039
vn 0.8649 -0.0966 0.4926
vn 0.9180 -0.0595 0.3921
vn -0.8849 -0.1228 0.4493
vn 0.0045 -0.2854 0.9584
vn 0.3659 -0.9155 -0.1672
vn -0.3089 -0.9349 -0.1749
vn -0.9934 -0.0039 0.1148
vn -0.0130 0.9418 0.3359
vn -0.9995 0.0295 0.0138
vn 0.9975 0.0679 0.0215
usemtl color_1
s off
f 94//1 58//1 91//1
f 43//2 49//2 51//2
f 8//3 10//3 2//3
f 88//4 3//4 6//4
f 7//5 13//5 15//5
f 88//6 98//6 99//6
f 179//7 11//7 16//7
f 172//8 115//8 276//8
f 5//9 47//9 1//9
f 42//10 46//10 3//10
f 86//11 41//11 89//11
f 230//12 4//12 54//12
f 180//13 16//13 14//13
f 7//14 9//14 8//14
f 4//15 12//15 13//15
f 180//16 12//16 173//16
f 2//17 11//17 171//17
f 13//18 35//18 15//18
f 16//19 33//19 34//19
f 10//20 33//20 11//20
f 9//21 37//21 10//21
f 14//22 34//22 36//22
f 15//23 40//23 9//23
f 12//24 36//24 39//24
f 89//25 57//25 92//25
f 43//26 60//26 59//26
f 41//27 59//27 57//27
f 44//28 58//28 60//28
f 172//29 90//29 85//29
f 6//30 46//30 45//30
f 6//31 48//31 5//31
f 1//32 49//32 41//32
f 44//33 50//33 42//33
f 44//34 51//34 52//34
f 7//35 54//35 4//35
f 53//36 8//36 2//36
f 55//37 7//37 8//37
f 13//38 39//38 38//38
f 229//39 2//39 171//39
f 216//40 91//40 90//40
f 60//41 54//41 56//41
f 57//42 55//42 53//42
f 59//43 56//43 55//43
f 51//44 77//44 78//44
f 48//45 80//45 47//45
f 49//46 80//46 77//46
f 50//47 79//47 46//47
f 48//48 83//48 81//48
f 45//49 79//49 83//49
f 52//50 82//50 50//50
f 51//51 84//51 52//51
f 235//52 93//52 271//52
f 90//53 58//53 42//53
f 3//54 90//54 42//54
f 215//55 92//55 235//55
f 174//56 89//56 215//56
f 1//57 87//57 5//57
f 5//58 88//58 6//58
f 86//59 98//59 87//59
f 93//60 57//60 53//60
f 94//61 230//61 54//61
f 236//62 94//62 91//62
f 93//63 229//63 271//63
f 110//64 285//64 101//64
f 109//65 103//65 108//65
f 174//66 97//66 86//66
f 88//67 115//67 85//67
f 285//68 104//68 101//68
f 103//69 105//69 106//69
f 102//70 104//70 105//70
f 108//71 118//71 117//71
f 110//72 102//72 109//72
f 105//73 112//73 113//73
f 116//74 114//74 111//74
f 279//75 111//75 300//75
f 103//76 116//76 118//76
f 97//77 109//77 98//77
f 99//78 117//78 115//78
f 98//79 108//79 99//79
f 278//80 110//80 97//80
f 303//81 114//81 113//81
f 112//82 303//82 113//82
f 301//83 111//83 114//83
f 106//84 113//84 114//84
f 289//85 112//85 104//85
f 95//86 276//86 115//86
f 100//87 117//87 118//87
f 96//88 118//88 116//88
f 95//89 117//89 107//89
f 96//90 279//90 312//90
f 274//91 234//91 228//91
f 217//92 223//92 213//92
f 182//93 178//93 168//93
f 266//94 169//94 263//94
f 177//95 185//95 170//95
f 266//96 281//96 265//96
f 179//97 183//97 171//97
f 172//98 307//98 263//98
f 221//99 175//99 167//99
f 169//100 224//100 214//100
f 213//101 264//101 267//101
f 170//102 230//102 228//102
f 180//103 188//103 179//103
f 181//104 177//104 178//104
f 170//105 184//105 173//105
f 184//106 180//106 173//106
f 183//107 168//107 171//107
f 207//108 185//108 187//108
f 188//109 205//109 183//109
f 205//110 182//110 183//110
f 182//111 212//111 181//111
f 186//112 206//112 188//112
f 181//113 207//113 187//113
f 184//114 208//114 186//114
f 233//115 267//115 270//115
f 237//116 218//116 217//116
f 237//117 213//117 233//117
f 238//118 214//118 218//118
f 268//119 172//119 263//119
f 176//120 220//120 169//120
f 222//121 176//121 175//121
f 223//122 167//122 213//122
f 224//123 218//123 214//123
f 226//124 217//124 218//124
f 177//125 228//125 232//125
f 178//126 227//126 168//126
f 178//127 232//127 231//127
f 185//128 211//128 184//128
f 168//129 229//129 171//129
f 269//130 216//130 268//130
f 232//131 234//131 238//131
f 231//132 233//132 227//132
f 232//133 237//133 231//133
f 225//134 255//134 223//134
f 258//135 222//135 221//135
f 223//136 258//136 221//136
f 257//137 224//137 220//137
f 222//138 261//138 219//138
f 219//139 257//139 220//139
f 260//140 226//140 224//140
f 262//141 225//141 226//141
f 273//142 235//142 271//142
f 234//143 268//143 214//143
f 169//144 268//144 263//144
f 270//145 215//145 235//145
f 267//146 174//146 215//146
f 167//147 265//147 264//147
f 175//148 266//148 265//148
f 281//149 264//149 265//149
f 233//150 273//150 227//150
f 230//151 274//151 228//151
f 274//152 236//152 269//152
f 273//153 229//153 227//153
f 297//154 285//154 296//154
f 294//155 287//155 295//155
f 280//156 174//156 264//156
f 263//157 282//157 266//157
f 290//158 285//158 286//158
f 288//159 291//159 287//159
f 287//160 290//160 286//160
f 310//161 294//161 309//161
f 287//162 297//162 295//162
f 291//163 304//163 290//163
f 308//164 306//164 292//164
f 279//165 299//165 308//165
f 308//166 288//166 310//166
f 295//167 280//167 281//167
f 307//168 294//168 282//168
f 282//169 295//169 281//169
f 297//170 278//170 280//170
f 306//171 303//171 305//171
f 304//172 303//172 302//172
f 301//173 299//173 300//173
f 292//174 305//174 291//174
f 304//175 289//175 290//175
f 275//176 276//176 311//176
f 310//177 293//177 283//177
f 277//178 310//178 283//178
f 309//179 275//179 293//179
f 279//180 277//180 312//180
f 94//181 54//181 58//181
f 43//182 41//182 49//182
f 8//183 9//183 10//183
f 88//184 85//184 3//184
f 7//185 4//185 13//185
f 88//186 87//186 98//186
f 179//187 171//187 11//187
f 172//188 85//188 115//188
f 5//189 48//189 47//189
f 42//190 50//190 46//190
f 86//191 1//191 41//191
f 230//192 173//192 4//192
f 180//193 179//193 16//193
f 7//194 15//194 9//194
f 4//195 173//195 12//195
f 180//196 14//196 12//196
f 2//197 10//197 11//197
f 13//198 38//198 35//198
f 16//199 11//199 33//199
f 10//200 37//200 33//200
f 9//201 40//201 37//201
f 14//202 16//202 34//202
f 15//203 35//203 40//203
f 12//204 14//204 36//204
f 89//205 41//205 57//205
f 43//206 44//206 60//206
f 41//207 43//207 59//207
f 44//208 42//208 58//208
f 172//209 216//209 90//209
f 6//210 3//210 46//210
f 6//211 45//211 48//211
f 1//212 47//212 49//212
f 44//213 52//213 50//213
f 44//214 43//214 51//214
f 7//215 56//215 54//215
f 53//216 55//216 8//216
f 55//217 56//217 7//217
f 13//218 12//218 39//218
f 229//219 53//219 2//219
f 216//220 236//220 91//220
f 60//221 58//221 54//221
f 57//222 59//222 55//222
f 59//223 60//223 56//223
f 51//224 49//224 77//224
f 48//225 81//225 80//225
f 49//226 47//226 80//226
f 50//227 82//227 79//227
f 48//228 45//228 83//228
f 45//229 46//229 79//229
f 52//230 84//230 82//230
f 51//231 78//231 84//231
f 235//232 92//232 93//232
f 90//233 91//233 58//233
f 3//234 85//234 90//234
f 215//235 89//235 92//235
f 174//236 86//236 89//236
f 1//237 86//237 87//237
f 5//238 87//238 88//238
f 86//239 97//239 98//239
f 93//240 92//240 57//240
f 94//241 272//241 230//241
f 236//242 272//242 94//242
f 93//243 53//243 229//243
f 110//244 296//244 285//244
f 109//245 102//245 103//245
f 174//246 278//246 97//246
f 88//247 99//247 115//247
f 285//248 289//248 104//248
f 103//249 102//249 105//249
f 102//250 101//250 104//250
f 108//251 103//251 118//251
f 110//252 101//252 102//252
f 105//253 104//253 112//253
f 116//254 106//254 114//254
f 279//255 116//255 111//255
f 103//256 106//256 116//256
f 97//257 110//257 109//257
f 99//258 108//258 117//258
f 98//259 109//259 108//259
f 278//260 296//260 110//260
f 303//261 301//261 114//261
f 112//262 302//262 303//262
f 301//263 300//263 111//263
f 106//264 105//264 113//264
f 289//265 302//265 112//265
f 95//266 311//266 276//266
f 100//267 107//267 117//267
f 96//268 100//268 118//268
f 95//269 115//269 117//269
f 96//270 116//270 279//270
f 274//271 269//271 234//271
f 217//272 225//272 223//272
f 182//273 181//273 178//273
f 266//274 176//274 169//274
f 177//275 187//275 185//275
f 266//276 282//276 281//276
f 179//277 188//277 183//277
f 172//278 276//278 307//278
f 221//279 222//279 175//279
f 169//280 220//280 224//280
f 213//281 167//281 264//281
f 170//282 173//282 230//282
f 180//283 186//283 188//283
f 181//284 187//284 177//284
f 170//285 185//285 184//285
f 184//286 186//286 180//286
f 183//287 182//287 168//287
f 207//288 210//288 185//288
f 188//289 206//289 205//289
f 205//290 209//290 182//290
f 182//291 209//291 212//291
f 186//292 208//292 206//292
f 181//293 212//293 207//293
f 184//294 211//294 208//294
f 233//295 213//295 267//295
f 237//296 238//296 218//296
f 237//297 217//297 213//297
f 238//298 234//298 214//298
f 268//299 216//299 172//299
f 176//300 219//300 220//300
f 222//301 219//301 176//301
f 223//302 221//302 167//302
f 224//303 226//303 218//303
f 226//304 225//304 217//304
f 177//305 170//305 228//305
f 178//306 231//306 227//306
f 178//307 177//307 232//307
f 185//308 210//308 211//308
f 168//309 227//309 229//309
f 269//310 236//310 216//310
f 232//311 228//311 234//311
f 231//312 237//312 233//312
f 232//313 238//313 237//313
f 225//314 256//314 255//314
f 258//315 259//315 222//315
f 223//316 255//316 258//316
f 257//317 260//317 224//317
f 222//318 259//318 261//318
f 219//319 261//319 257//319
f 260//320 262//320 226//320
f 262//321 256//321 225//321
f 273//322 270//322 235//322
f 234//323 269//323 268//323
f 169//324 214//324 268//324
f 270//325 267//325 215//325
f 267//326 264//326 174//326
f 167//327 175//327 265//327
f 175//328 176//328 266//328
f 281//329 280//329 264//329
f 233//330 270//330 273//330
f 230//331 272//331 274//331
f 274//332 272//332 236//332
f 273//333 271//333 229//333
f 297//334 286//334 285//334
f 294//335 288//335 287//335
f 280//336 278//336 174//336
f 263//337 307//337 282//337
f 290//338 289//338 285//338
f 288//339 292//339 291//339
f 287//340 291//340 290//340
f 310//341 288//341 294//341
f 287//342 286//342 297//342
f 291//343 305//343 304//343
f 308//344 299//344 306//344
f 279//345 300//345 299//345
f 308//346 292//346 288//346
f 295//347 297//347 280//347
f 307//348 309//348 294//348
f 282//349 294//349 295//349
f 297//350 296//350 278//350
f 306//351 301//351 303//351
f 304//352 305//352 303//352
f 301//353 306//353 299//353
f 292//354 306//354 305//354
f 304//355 302//355 289//355
f 275//356 307//356 276//356
f 310//357 309//357 293//357
f 277//358 308//358 310//358
f 309//359 307//359 275//359
f 279//360 308//360 277//360
usemtl color_2
f 95//361 298//361 311//361
f 284//362 107//362 100//362
f 284//363 96//363 312//363
f 298//364 275//364 311//364
f 293//365 284//365 283//365
f 277//366 284//366 312//366
f 95//367 107//367 298//367
f 284//368 298//368 107//368
f 284//369 100//369 96//369
f 298//370 293//370 275//370
f 293//371 298//371 284//371
f 277//372 283//372 284//372
usemtl color_3
f 160//373 157//373 154//373
f 148//374 19//374 24//374
f 147//375 18//375 19//375
f 23//376 20//376 22//376
f 17//376 19//376 18//376
f 17//376 22//376 24//376
f 143//377 17//377 18//377
f 148//378 22//378 150//378
f 146//379 23//379 17//379
f 161//380 155//380 162//380
f 36//381 30//381 39//381
f 40//382 29//382 31//382
f 34//383 32//383 36//383
f 40//384 26//384 37//384
f 159//376 154//376 153//376
f 38//385 30//385 28//385
f 33//386 27//386 34//386
f 35//387 28//387 29//387
f 33//388 26//388 25//388
f 125//389 139//389 123//389
f 63//390 131//390 64//390
f 124//391 141//391 125//391
f 61//392 66//392 68//392
f 65//393 64//393 67//393
f 64//394 68//394 67//394
f 65//395 134//395 132//395
f 62//396 129//396 130//396
f 119//397 136//397 127//397
f 68//398 134//398 67//398
f 119//399 140//399 124//399
f 78//400 76//400 84//400
f 82//401 76//401 73//401
f 83//402 74//402 75//402
f 81//403 75//403 71//403
f 82//404 74//404 79//404
f 77//405 70//405 69//405
f 80//406 71//406 70//406
f 78//407 69//407 72//407
f 76//408 125//408 123//408
f 76//409 121//409 73//409
f 75//410 126//410 122//410
f 75//411 120//411 71//411
f 74//412 121//412 126//412
f 70//413 124//413 69//413
f 71//414 119//414 70//414
f 72//415 124//415 125//415
f 141//416 132//416 134//416
f 136//417 128//417 127//417
f 140//418 128//418 132//418
f 137//419 130//419 142//419
f 136//420 129//420 131//420
f 138//421 130//421 129//421
f 139//422 133//422 137//422
f 141//423 135//423 139//423
f 66//424 135//424 68//424
f 61//425 131//425 129//425
f 121//426 139//426 137//426
f 63//427 132//427 128//427
f 126//428 138//428 122//428
f 62//429 133//429 66//429
f 120//430 138//430 136//430
f 126//431 137//431 142//431
f 28//432 145//432 144//432
f 32//433 145//433 30//433
f 31//434 149//434 146//434
f 27//435 150//435 32//435
f 26//436 146//436 143//436
f 26//437 147//437 25//437
f 25//438 148//438 27//438
f 29//439 144//439 149//439
f 157//440 153//440 154//440
f 158//441 152//441 156//441
f 156//442 153//442 155//442
f 162//443 157//443 163//443
f 164//376 151//376 165//376
f 161//444 158//444 156//444
f 165//445 158//445 166//445
f 164//376 153//376 152//376
f 156//446 157//446 155//446
f 20//376 159//376 164//376
f 22//447 166//447 150//447
f 145//448 166//448 161//448
f 20//376 165//376 22//376
f 144//449 163//449 149//449
f 21//376 160//376 159//376
f 144//450 161//450 162//450
f 23//451 163//451 160//451
f 354//452 351//452 357//452
f 342//453 191//453 341//453
f 341//454 190//454 337//454
f 192//455 195//455 194//455
f 191//455 189//455 190//455
f 194//455 189//455 196//455
f 337//456 189//456 340//456
f 194//457 342//457 344//457
f 340//458 195//458 343//458
f 349//459 355//459 356//459
f 211//460 204//460 208//460
f 203//461 207//461 212//461
f 208//462 199//462 206//462
f 209//463 203//463 212//463
f 353//455 348//455 354//455
f 210//464 202//464 211//464
f 199//465 205//465 206//465
f 201//466 210//466 207//466
f 197//467 209//467 205//467
f 333//468 319//468 317//468
f 325//469 241//469 242//469
f 335//470 318//470 319//470
f 244//471 239//471 246//471
f 243//472 242//472 241//472
f 246//473 242//473 245//473
f 243//474 328//474 245//474
f 240//475 323//475 239//475
f 313//476 330//476 314//476
f 328//477 246//477 245//477
f 334//478 313//478 318//478
f 254//479 256//479 262//479
f 251//480 262//480 260//480
f 253//481 257//481 261//481
f 259//482 253//482 261//482
f 257//483 251//483 260//483
f 255//484 248//484 258//484
f 258//485 249//485 259//485
f 256//486 247//486 255//486
f 254//487 319//487 250//487
f 315//488 254//488 251//488
f 253//489 320//489 252//489
f 314//490 253//490 249//490
f 252//491 315//491 251//491
f 318//492 248//492 247//492
f 313//493 249//493 248//493
f 250//494 318//494 247//494
f 335//495 326//495 334//495
f 322//496 330//496 321//496
f 334//497 322//497 321//497
f 324//498 331//498 336//498
f 330//499 323//499 332//499
f 332//500 324//500 336//500
f 327//501 333//501 331//501
f 329//502 335//502 333//502
f 329//503 244//503 246//503
f 239//504 325//504 242//504
f 315//505 333//505 317//505
f 241//506 326//506 243//506
f 332//507 320//507 316//507
f 327//508 240//508 244//508
f 330//509 316//509 314//509
f 320//510 331//510 315//510
f 200//511 339//511 202//511
f 202//512 344//512 204//512
f 203//513 343//513 201//513
f 344//514 199//514 204//514
f 337//515 203//515 198//515
f 341//516 198//516 197//516
f 199//517 341//517 197//517
f 343//518 200//518 201//518
f 351//519 347//519 349//519
f 346//520 352//520 350//520
f 347//521 350//521 349//521
f 351//522 356//522 357//522
f 345//455 358//455 359//455
f 355//523 352//523 360//523
f 352//524 359//524 360//524
f 358//455 347//455 353//455
f 350//525 351//525 352//525
f 192//455 353//455 193//455
f 360//526 194//526 344//526
f 339//527 360//527 344//527
f 359//455 192//455 194//455
f 357//528 338//528 343//528
f 193//455 354//455 195//455
f 338//529 355//529 339//529
f 195//530 357//530 343//530
f 160//531 163//531 157//531
f 148//532 147//532 19//532
f 147//533 143//533 18//533
f 23//376 21//376 20//376
f 17//376 24//376 19//376
f 17//376 23//376 22//376
f 143//534 146//534 17//534
f 148//535 24//535 22//535
f 146//536 149//536 23//536
f 161//537 156//537 155//537
f 36//538 32//538 30//538
f 40//539 35//539 29//539
f 34//540 27//540 32//540
f 40//541 31//541 26//541
f 159//376 160//376 154//376
f 38//542 39//542 30//542
f 33//543 25//543 27//543
f 35//544 38//544 28//544
f 33//545 37//545 26//545
f 125//389 141//389 139//389
f 63//546 128//546 131//546
f 124//547 140//547 141//547
f 61//392 62//392 66//392
f 65//393 63//393 64//393
f 64//394 61//394 68//394
f 65//548 67//548 134//548
f 62//549 61//549 129//549
f 119//550 120//550 136//550
f 68//398 135//398 134//398
f 119//399 127//399 140//399
f 78//551 72//551 76//551
f 82//552 84//552 76//552
f 83//553 79//553 74//553
f 81//554 83//554 75//554
f 82//555 73//555 74//555
f 77//556 80//556 70//556
f 80//557 81//557 71//557
f 78//558 77//558 69//558
f 76//559 72//559 125//559
f 76//560 123//560 121//560
f 75//561 74//561 126//561
f 75//562 122//562 120//562
f 74//563 73//563 121//563
f 70//564 119//564 124//564
f 71//565 120//565 119//565
f 72//566 69//566 124//566
f 141//567 140//567 132//567
f 136//568 131//568 128//568
f 140//418 127//418 128//418
f 137//419 133//419 130//419
f 136//420 138//420 129//420
f 138//569 142//569 130//569
f 139//570 135//570 133//570
f 141//423 134//423 135//423
f 66//571 133//571 135//571
f 61//425 64//425 131//425
f 121//572 123//572 139//572
f 63//427 65//427 132//427
f 126//573 142//573 138//573
f 62//429 130//429 133//429
f 120//574 122//574 138//574
f 126//431 121//431 137//431
f 28//575 30//575 145//575
f 32//576 150//576 145//576
f 31//577 29//577 149//577
f 27//578 148//578 150//578
f 26//579 31//579 146//579
f 26//580 143//580 147//580
f 25//581 147//581 148//581
f 29//582 28//582 144//582
f 157//583 155//583 153//583
f 158//584 151//584 152//584
f 156//585 152//585 153//585
f 162//586 155//586 157//586
f 164//376 152//376 151//376
f 161//587 166//587 158//587
f 165//588 151//588 158//588
f 164//376 159//376 153//376
f 156//589 158//589 157//589
f 20//376 21//376 159//376
f 22//590 165//590 166//590
f 145//448 150//448 166//448
f 20//376 164//376 165//376
f 144//449 162//449 163//449
f 21//376 23//376 160//376
f 144//450 145//450 161//450
f 23//591 149//591 163//591
f 354//592 348//592 351//592
f 342//593 196//593 191//593
f 341//594 191//594 190//594
f 192//455 193//455 195//455
f 191//455 196//455 189//455
f 194//455 195//455 189//455
f 337//595 190//595 189//595
f 194//596 196//596 342//596
f 340//597 189//597 195//597
f 349//598 350//598 355//598
f 211//599 202//599 204//599
f 203//600 201//600 207//600
f 208//601 204//601 199//601
f 209//602 198//602 203//602
f 353//455 347//455 348//455
f 210//603 200//603 202//603
f 199//604 197//604 205//604
f 201//605 200//605 210//605
f 197//606 198//606 209//606
f 333//468 335//468 319//468
f 325//607 322//607 241//607
f 335//608 334//608 318//608
f 244//471 240//471 239//471
f 243//472 245//472 242//472
f 246//473 239//473 242//473
f 243//609 326//609 328//609
f 240//610 324//610 323//610
f 313//611 321//611 330//611
f 328//477 329//477 246//477
f 334//478 321//478 313//478
f 254//612 250//612 256//612
f 251//613 254//613 262//613
f 253//614 252//614 257//614
f 259//615 249//615 253//615
f 257//616 252//616 251//616
f 255//617 247//617 248//617
f 258//618 248//618 249//618
f 256//619 250//619 247//619
f 254//620 317//620 319//620
f 315//621 317//621 254//621
f 253//622 316//622 320//622
f 314//623 316//623 253//623
f 252//624 320//624 315//624
f 318//625 313//625 248//625
f 313//626 314//626 249//626
f 250//627 319//627 318//627
f 335//628 328//628 326//628
f 322//629 325//629 330//629
f 334//497 326//497 322//497
f 324//498 327//498 331//498
f 330//499 325//499 323//499
f 332//630 323//630 324//630
f 327//631 329//631 333//631
f 329//502 328//502 335//502
f 329//632 327//632 244//632
f 239//504 323//504 325//504
f 315//633 331//633 333//633
f 241//506 322//506 326//506
f 332//634 336//634 320//634
f 327//635 324//635 240//635
f 330//509 332//509 316//509
f 320//510 336//510 331//510
f 200//636 338//636 339//636
f 202//637 339//637 344//637
f 203//638 340//638 343//638
f 344//639 342//639 199//639
f 337//640 340//640 203//640
f 341//641 337//641 198//641
f 199//642 342//642 341//642
f 343//643 338//643 200//643
f 351//644 348//644 347//644
f 346//645 345//645 352//645
f 347//646 346//646 350//646
f 351//647 349//647 356//647
f 345//455 346//455 358//455
f 355//648 350//648 352//648
f 352//649 345//649 359//649
f 358//455 346//455 347//455
f 350//650 349//650 351//650
f 192//455 358//455 353//455
f 360//651 359//651 194//651
f 339//527 355//527 360//527
f 359//455 358//455 192//455
f 357//528 356//528 338//528
f 193//455 353//455 354//455
f 338//529 356//529 355//529
f 195//652 354//652 357//652
