# Blender v2.83.5 OBJ File: 'bio.blend'
# www.blender.org
mtllib bio_000001.mtl
o Cube
v -0.813237 -1.188966 -0.562100
v -0.665475 1.158803 -0.305609
v -0.789424 -1.101454 0.367481
v -0.681097 0.551483 0.378555
v -0.954967 -1.123346 -0.305821
v -0.956690 -1.047687 0.023673
v -0.862147 0.725967 0.173032
v -0.857565 0.989170 -0.088286
v -0.812642 1.138759 0.167649
v -0.707903 1.265091 0.045631
v -0.163266 1.188646 -0.061676
v -0.175090 0.889010 0.394904
v -0.714694 0.845757 0.453456
v -0.090734 0.999004 0.222613
v -0.815327 0.972927 0.328931
v -0.085981 1.088761 0.068257
v -0.644055 2.867408 2.124124
v -0.577574 2.952188 2.050920
v -0.260044 2.949440 2.053079
v -0.264763 2.666166 2.297532
v -0.582281 2.669609 2.294772
v -0.183630 2.751151 2.224141
v -0.645917 2.755657 2.220560
v -0.181768 2.862901 2.127706
v -0.217044 2.147778 1.043685
v -0.645241 2.158871 1.049329
v -0.137493 2.034295 1.145042
v -0.651127 1.802567 1.366039
v -0.732807 1.911021 1.269653
v -0.222940 1.790868 1.361436
v -0.730478 2.051950 1.144442
v -0.139662 1.903026 1.261735
v -0.234780 2.052896 0.967262
v -0.162809 1.951454 1.064139
v -0.710521 1.841259 1.181632
v -0.164699 1.835092 1.175103
v -0.630124 2.062402 0.971429
v -0.635280 1.745122 1.274167
v -0.239949 1.734710 1.270637
v -0.708483 1.966720 1.061885
v -0.802478 -0.790121 -0.624531
v -0.815758 -0.628501 0.221449
v -0.879610 -0.870142 -0.456678
v -0.771569 -0.725470 -0.193367
v -1.066544 -0.653054 -0.224570
v -0.916043 -0.582809 -0.122164
v -1.175805 -1.006495 -0.448142
v -1.175509 -0.831163 -0.348291
v -0.925956 -1.059763 -0.549425
v -0.671749 -0.650042 -0.218209
v -0.805881 -0.937468 -0.495225
v -0.709299 -0.769250 -0.362681
v -0.676673 0.641811 -0.671901
v -0.715803 0.154822 0.120098
v -0.856784 0.459463 -0.474028
v -0.864780 0.255943 -0.176261
v -0.667388 -0.501951 -0.647782
v -0.719980 -0.480272 0.240337
v -0.821669 -0.555969 -0.459498
v -0.818618 -0.523542 -0.134818
v -1.200928 1.607609 -1.466874
v -1.118250 1.593326 -1.391611
v -1.307529 1.583804 -1.691910
v -1.275782 1.603843 -1.585632
v -1.156291 1.599571 -1.787736
v -0.967011 1.609094 -1.487437
v -1.054826 1.626879 -1.725632
v -0.979972 1.630645 -1.606874
v -1.056666 0.024033 -1.912661
v -1.304396 0.018673 -1.765551
v -1.272287 0.069783 -1.594981
v -0.911180 0.088043 -1.814641
v -0.753922 0.104450 -1.457998
v -1.001820 0.101156 -1.311949
v -1.151921 0.093676 -1.411188
v -0.790789 0.111228 -1.631200
v -1.026894 -0.235040 -1.679671
v -0.908136 -0.133460 -1.644689
v -1.007426 0.172572 -1.335846
v -1.245781 -0.160971 -1.586660
v -1.227975 -0.023526 -1.507687
v -0.788441 0.096736 -1.428980
v -1.133797 0.108465 -1.410238
v -0.813902 -0.001011 -1.545416
v -0.687132 -1.187219 0.459526
v -0.648409 -1.289737 -0.614264
v -0.772658 -1.251459 -0.395808
v -0.736043 -1.260543 0.093980
v -0.317543 -0.644054 -0.542075
v -0.383644 -0.598432 0.492597
v -0.328451 -0.408393 0.447259
v -0.247136 -0.398884 -0.568833
v -0.246401 0.083409 -0.612021
v -0.313008 -0.044392 0.373127
v -0.318560 -1.474702 0.469683
v -0.467626 -2.489191 0.421826
v -0.455803 -1.470950 -0.653302
v -0.672358 -1.360502 -0.387043
v -0.636026 -1.345838 0.121184
v -0.494137 -2.254932 0.445801
v -0.458474 -2.295106 -0.608146
v -0.670980 -2.256294 -0.398586
v -0.696946 -2.256294 0.175550
v -0.441562 -2.533025 -0.483469
v -0.622509 -2.533025 -0.325122
v -0.638085 -2.533025 0.149383
v -0.494305 -1.867887 0.443173
v -0.694095 -1.865676 0.188194
v -0.655423 -1.865676 -0.430385
v -0.444476 -1.947001 -0.675680
v -0.437773 -2.629123 0.392326
v -0.388491 -2.629123 -0.261957
v -0.509267 -2.629123 -0.220035
v -0.517495 -2.629123 0.154903
v -0.511441 -1.342119 0.399115
v -0.511644 -2.533025 0.386883
v -0.542937 -1.865676 0.410944
v -0.542869 -2.256294 0.414627
v -1.324839 1.350191 -1.715246
v -1.288787 1.373999 -1.586620
v -0.916762 1.380499 -1.470206
v -1.199082 1.378512 -1.444300
v -0.934288 1.406119 -1.612076
v -1.143595 1.369087 -1.830084
v -1.023993 1.401606 -1.754396
v -1.098007 1.361603 -1.355367
v -1.362587 1.386551 -1.733361
v -1.358833 1.492430 -1.727540
v -1.215130 1.511657 -1.426856
v -1.105666 1.505166 -1.325882
v -1.315249 1.506620 -1.585698
v -1.156547 1.513520 -1.855710
v -0.903381 1.526256 -1.454053
v -1.019714 1.537432 -1.772952
v -0.919595 1.542469 -1.614109
v -1.319527 1.401083 -1.584220
v -0.888410 1.421767 -1.448630
v -1.215292 1.406327 -1.418847
v -0.907607 1.438405 -1.613800
v -1.151984 1.408507 -1.866801
v -1.011842 1.433161 -1.779172
v -1.099012 1.399811 -1.315190
v -0.592080 2.782037 1.836433
v -0.597285 2.353069 1.961445
v -0.255969 2.347706 1.962476
v -0.662604 2.692201 1.914004
v -0.250751 2.777412 1.836828
v -0.172212 2.684704 1.916777
v -0.664794 2.444252 1.882805
v -0.174367 2.438852 1.883768
v -0.253595 2.235094 2.669515
v -0.314055 2.149907 2.743067
v -0.549216 2.152548 2.740944
v -0.595977 2.238431 2.666862
v -0.560199 2.019257 2.603324
v -0.307413 2.014757 2.603670
v -0.609807 2.110265 2.524823
v -0.246579 2.106105 2.524800
v -0.583659 2.586843 2.366195
v -0.647295 2.672891 2.291983
v -0.257128 2.396743 2.169920
v -0.598445 2.402107 2.168890
v -0.665954 2.493289 2.090249
v -0.266142 2.583399 2.368956
v -0.185008 2.668385 2.295564
v -0.175526 2.487890 2.091212
v 0.946917 -1.132531 -0.374277
v 0.687805 0.655555 -0.431675
v 0.661795 -1.205150 0.550233
v 0.645032 1.119518 0.366679
v 0.017884 0.997264 -0.397214
v -0.044331 -1.234289 0.568964
v -0.025428 0.961848 0.415802
v 0.051412 -1.295741 -0.653975
v 1.010746 -1.120561 -0.048386
v 0.907459 -1.168063 0.307064
v 0.843002 1.005231 0.113540
v 0.859338 0.804000 -0.197353
v -0.004906 1.059444 -0.134016
v -0.018536 1.033845 0.187327
v 0.781899 1.072564 -0.295236
v 0.687464 0.965133 -0.441381
v 0.155720 0.962094 -0.351220
v 0.128935 1.169720 0.126527
v 0.661981 1.285604 0.047343
v 0.056615 1.077199 -0.000662
v 0.771821 1.199300 -0.101963
v 0.065039 1.021411 -0.170876
v 0.645164 1.891954 -2.143490
v 0.586864 1.775665 -2.136990
v 0.271922 1.753521 -2.171031
v 0.251241 2.124456 -2.215759
v 0.566235 2.145688 -2.181608
v 0.178439 2.006710 -2.210776
v 0.637005 2.038286 -2.161135
v 0.186597 1.860379 -2.193131
v 0.079740 1.894878 -0.958064
v 0.505740 1.927356 -0.932946
v -0.008648 2.018619 -0.943009
v 0.481063 2.346545 -0.878334
v 0.571435 2.225286 -0.886889
v 0.054989 2.312696 -0.897104
v 0.581231 2.059060 -0.907858
v -0.017776 2.173185 -0.922681
v 0.091443 1.940837 -0.989803
v 0.011945 2.021799 -0.899912
v 0.546356 2.185850 -0.792012
v 0.004729 2.121220 -0.791128
v 0.483768 1.988250 -0.997496
v 0.464037 2.258805 -0.698582
v 0.071693 2.213004 -0.692928
v 0.554129 2.079166 -0.910603
v 0.947070 -0.615610 -0.371043
v 0.713977 -0.700050 0.533188
v 0.040224 -0.553508 -0.567269
v -0.040551 -0.553508 0.567229
v 0.956792 -0.601950 -0.061016
v 0.762913 -0.710897 0.236291
v 1.040046 -0.904455 0.401054
v 0.865061 -0.967198 0.467369
v 1.233018 -0.715383 0.045178
v 1.190601 -0.803923 0.235098
v 1.015586 -0.558732 -0.087296
v 0.650515 -0.800406 0.342524
v 0.867478 -0.574605 0.041554
v 0.727215 -0.671986 0.210458
v 0.758804 0.180854 -0.235617
v 0.704618 0.553415 0.651736
v 0.033243 0.414649 -0.497290
v -0.025258 0.399131 0.486920
v 0.918331 0.289933 0.040375
v 0.889145 0.446248 0.382073
v 0.804985 -0.456077 -0.370783
v 0.634274 -0.466978 0.553733
v 0.039706 -0.382861 -0.558460
v -0.039807 -0.382861 0.558447
v 0.903913 -0.451318 -0.056859
v 0.809376 -0.471077 0.292797
v 0.886611 -0.489034 2.393939
v 0.805233 -0.532367 2.329102
v 1.007191 -0.303401 2.510440
v 0.966480 -0.398485 2.465653
v 0.861213 -0.206645 2.550850
v 0.659254 -0.435611 2.369511
v 0.753209 -0.257126 2.524690
v 0.673340 -0.347674 2.452977
v 1.109959 0.704871 1.270280
v 1.345426 0.550903 1.236325
v 1.295098 0.394815 1.192709
v 0.950033 0.621819 1.258742
v 0.775587 0.351310 1.079457
v 1.010870 0.197917 1.048812
v 1.163587 0.252892 1.104610
v 0.818723 0.480671 1.169829
v 1.109839 0.535157 0.886717
v 0.974438 0.511440 0.962962
v 0.993542 0.190469 1.241840
v 1.303713 0.415207 0.980406
v 1.257147 0.333953 1.101700
v 0.800024 0.311331 1.145783
v 1.134802 0.247409 1.205985
v 0.851658 0.422219 1.067058
v 0.553484 -1.259133 0.596497
v 0.789128 -1.262747 -0.480998
v 0.861874 -1.244708 -0.215156
v 0.685714 -1.316694 0.266796
v 0.410676 -0.600525 -0.528720
v 0.297232 -0.620073 0.538306
v 0.255900 -0.381932 0.581693
v 0.334435 -0.408263 -0.501485
v 0.036906 0.032569 -0.528054
v -0.030966 0.011476 0.526975
v 0.327246 -0.050345 -0.413506
v 0.260972 0.047834 0.602450
v 0.238557 -1.474702 0.515661
v -0.042271 -1.319728 0.552186
v 0.410575 -2.489191 0.477534
v 0.050723 -1.471625 -0.673740
v -0.032690 -2.573691 0.515342
v 0.576900 -1.464236 -0.579208
v 0.756120 -1.364428 -0.241835
v 0.587068 -1.385465 0.257151
v 0.431541 -2.254932 0.506806
v -0.034849 -2.256294 0.549370
v 0.037306 -2.295106 -0.588104
v 0.535824 -2.295106 -0.541550
v 0.720308 -2.256294 -0.301427
v 0.666508 -2.256294 0.269760
v 0.029496 -2.533025 -0.464988
v 0.499551 -2.533025 -0.423324
v 0.659565 -2.533025 -0.241537
v 0.613716 -2.533025 0.229970
v 0.425545 -1.867887 0.510148
v 0.656620 -1.865676 0.295237
v 0.717103 -1.865676 -0.319465
v 0.042382 -1.947001 -0.653975
v 0.537978 -1.947001 -0.604649
v -0.035282 -1.865676 0.552572
v 0.384690 -2.629123 0.444498
v -0.031206 -2.669790 0.491935
v -0.011189 -2.669790 0.176391
v 0.015480 -2.669790 -0.244037
v 0.003327 -2.669790 -0.052442
v 0.418478 -2.629123 -0.210767
v 0.532989 -2.629123 -0.153920
v 0.493774 -2.629123 0.219052
v 0.422804 -1.368991 0.480727
v 0.458656 -2.533025 0.448433
v 0.477228 -1.865676 0.486431
v 0.483381 -2.256294 0.482896
v -0.039902 -1.473458 0.528521
v -0.033075 -2.528497 0.521407
v 1.075699 -0.167159 2.331099
v 1.028833 -0.282382 2.276893
v 0.658730 -0.325598 2.162209
v 0.933119 -0.390896 2.190951
v 0.677535 -0.221491 2.261701
v 0.900758 -0.051205 2.379525
v 0.773249 -0.112978 2.347643
v 0.833671 -0.441551 2.113782
v 1.105581 -0.176339 2.376900
v 1.078764 -0.234712 2.461351
v 0.919131 -0.476126 2.295017
v 0.808638 -0.540960 2.218806
v 1.025956 -0.355015 2.390935
v 0.883514 -0.105297 2.515400
v 0.613388 -0.411545 2.272854
v 0.740700 -0.165944 2.469899
v 0.633875 -0.287055 2.373980
v 1.052838 -0.303071 2.302971
v 0.621072 -0.360443 2.180654
v 0.941621 -0.429161 2.203108
v 0.644637 -0.232316 2.285318
v 0.902304 -0.041604 2.433171
v 0.755855 -0.106226 2.385180
v 0.824349 -0.495178 2.124383
v 0.570593 1.796434 -1.864099
v 0.526893 2.220263 -1.729483
v 0.187997 2.197719 -1.763675
v 0.632447 1.919666 -1.870979
v 0.231751 1.772924 -1.898174
v 0.145614 1.887829 -1.921287
v 0.601961 2.106459 -1.707781
v 0.115282 2.071876 -1.757759
v 0.201586 2.687435 -2.285765
v 0.253881 2.803769 -2.292968
v 0.487180 2.819376 -2.267660
v 0.541212 2.710821 -2.248999
v 0.475354 2.852694 -2.079044
v 0.224276 2.836198 -2.103729
v 0.532666 2.737667 -2.059264
v 0.172162 2.711773 -2.095583
v 0.560192 2.254066 -2.194676
v 0.630963 2.146664 -2.174203
v 0.204193 2.273974 -1.962071
v 0.543088 2.296517 -1.927879
v 0.618157 2.182714 -1.906177
v 0.245198 2.232834 -2.228827
v 0.172396 2.115088 -2.223845
v 0.131477 2.148131 -1.956155
vn -0.4860 0.1942 0.8521
vn -0.7033 -0.4597 -0.5423
vn -0.7886 0.5556 -0.2634
vn -0.7125 -0.6580 0.2437
vn -0.8425 -0.1642 0.5131
vn -0.6581 -0.7498 0.0687
vn 0.6672 0.7270 0.1621
vn -0.2962 -0.1909 0.9358
vn -0.4554 -0.8899 -0.0240
vn 0.4234 0.6744 0.6049
vn 0.1591 0.0288 -0.9868
vn -0.2545 -0.5122 0.8203
vn -0.1720 0.8539 0.4912
vn -0.9874 0.1198 0.1033
vn 0.1233 -0.2315 0.9650
vn -0.4506 0.8360 0.3131
vn 0.1537 0.8917 -0.4256
vn -0.8674 -0.2914 0.4034
vn 0.8873 0.3803 -0.2610
vn -0.0195 0.7649 -0.6438
vn -0.8567 0.4242 -0.2934
vn 0.9983 0.0314 0.0499
vn -0.9963 0.0674 0.0536
vn 0.8777 -0.3106 0.3650
vn 0.2218 -0.1685 -0.9604
vn -0.9713 -0.2358 0.0327
vn -0.7758 0.3198 -0.5439
vn -0.8382 0.5212 0.1603
vn -0.1656 0.0300 0.9857
vn -0.6263 0.2827 0.7265
vn -0.8004 -0.5852 0.1302
vn -0.2697 -0.1418 -0.9525
vn 0.6226 -0.7447 0.2404
vn 0.3283 -0.8782 0.3478
vn -0.8230 -0.2578 0.5062
vn -0.8204 0.3423 -0.4580
vn -0.9999 0.0065 -0.0110
vn -0.0111 -0.6735 0.7391
vn 0.0271 0.5775 -0.8159
vn -0.2396 0.2906 0.9264
vn -0.8971 -0.0297 0.4408
vn -0.7300 -0.0203 -0.6832
vn -0.9981 -0.0352 -0.0509
vn 0.6488 -0.5953 -0.4741
vn -0.9988 -0.0234 0.0440
vn -0.4600 -0.7363 -0.4962
vn 0.3996 0.7914 0.4625
vn -0.8671 0.3894 0.3105
vn -0.6012 0.6564 0.4557
vn 0.9803 -0.1112 -0.1631
vn 0.9112 -0.3040 -0.2781
vn 0.2688 -0.0863 -0.9593
vn -0.5281 0.2374 0.8153
vn -0.5292 0.2233 0.8186
vn 0.0332 0.0516 -0.9981
vn -0.0985 0.1140 -0.9886
vn -0.6150 -0.7758 -0.1415
vn -0.7110 -0.6862 0.1538
vn -0.6954 -0.6621 -0.2795
vn 0.1123 -0.0200 -0.9935
vn -0.4939 0.0988 0.8639
vn -0.3676 0.2005 0.9081
vn 0.2963 0.0795 -0.9518
vn 0.0396 -0.1918 -0.9806
vn -0.9989 0.0088 -0.0452
vn -0.0547 0.1544 -0.9865
vn -0.5824 -0.7663 0.2713
vn 0.0358 -0.4619 -0.8862
vn -0.9782 -0.2050 -0.0321
vn -0.6281 -0.3006 -0.7177
vn -0.8275 0.0052 0.5615
vn -0.7617 -0.0224 -0.6476
vn -0.1888 -0.8175 -0.5441
vn -0.7727 -0.5793 0.2595
vn -0.2533 -0.2326 0.9390
vn -0.8314 -0.1475 0.5358
vn -0.7696 0.0289 -0.6379
vn -0.8259 0.0623 0.5604
vn -0.9928 0.1029 -0.0621
vn -0.0402 0.0460 -0.9981
vn -0.0785 -0.9969 -0.0017
vn -0.0405 -0.9923 -0.1168
vn -0.0812 -0.9963 0.0273
vn -0.6228 -0.7823 -0.0137
vn 0.0157 -0.9159 -0.4011
vn -0.3120 0.0511 0.9487
vn -0.5390 0.0055 0.8423
vn -0.5239 -0.1433 0.8397
vn -0.5371 0.1846 0.8231
vn -0.2327 -0.1313 0.9636
vn -0.0018 -0.0955 0.9954
vn -0.5970 0.8021 -0.0166
vn 0.8120 -0.0174 -0.5834
vn 0.5331 -0.7710 0.3484
vn 0.7539 0.5656 0.3342
vn 0.7211 -0.6733 0.1630
vn 0.3957 0.9008 -0.1786
vn -0.0619 -0.6882 0.7229
vn 0.8808 -0.4471 -0.1561
vn 0.9589 -0.1079 -0.2624
vn 0.4393 0.1877 -0.8785
vn -0.2430 0.1216 0.9624
vn -0.3885 0.9197 0.0568
vn 0.9655 0.2388 -0.1038
vn -0.1596 0.8401 0.5185
vn -0.6098 0.7610 0.2214
vn 0.3689 0.7751 -0.5130
vn 0.8263 0.4372 0.3551
vn -0.8881 -0.3005 -0.3477
vn -0.1426 -0.4944 -0.8574
vn 0.8663 -0.0942 -0.4906
vn -0.9972 -0.0696 -0.0265
vn 0.9812 0.1808 -0.0674
vn -0.9082 0.2230 0.3542
vn 0.2825 0.2435 -0.9279
vn 0.9122 0.3129 0.2643
vn 0.7251 0.6461 -0.2383
vn 0.9600 -0.2252 0.1665
vn -0.0428 0.0736 0.9964
vn 0.6828 -0.3623 0.6345
vn 0.8510 -0.4927 0.1814
vn 0.8246 0.0033 -0.5657
vn 0.6945 -0.7057 0.1403
vn -0.7613 -0.2629 -0.5928
vn 0.8396 0.2900 0.4593
vn 0.8321 -0.1008 -0.5453
vn 0.9916 0.1263 0.0269
vn -0.0173 0.6170 0.7868
vn 0.0361 0.1701 -0.9848
vn 0.0507 -0.1705 0.9841
vn 0.8229 -0.1255 0.5542
vn 0.9448 0.1321 -0.2997
vn 0.9647 -0.0526 0.2579
vn -0.5723 0.5723 -0.5873
vn 0.9752 -0.1740 0.1367
vn 0.6772 0.4434 -0.5872
vn -0.6634 -0.3638 0.6539
vn 0.7866 -0.3958 0.4738
vn 0.4599 -0.5284 0.7136
vn -0.9222 0.3001 -0.2438
vn -0.8005 0.4317 -0.4159
vn 0.3833 0.0700 -0.9210
vn -0.0049 -0.0895 0.9960
vn 0.2968 0.2040 0.9329
vn 0.1938 0.0512 -0.9797
vn 0.1175 0.1170 -0.9862
vn 0.6845 -0.7157 -0.1387
vn 0.5768 -0.8120 0.0895
vn 0.7572 -0.6322 -0.1643
vn 0.2695 0.2186 -0.9379
vn -0.2426 0.1190 0.9628
vn -0.0784 0.0811 0.9936
vn 0.3547 0.0561 -0.9333
vn 0.0973 -0.1864 -0.9776
vn 0.9950 0.0188 0.0979
vn 0.2115 0.2391 -0.9477
vn 0.5143 -0.7859 0.3435
vn 0.0829 -0.4536 -0.8874
vn 0.9766 -0.1945 0.0920
vn 0.7629 -0.3772 -0.5251
vn 0.7292 0.0053 0.6842
vn 0.8489 -0.0174 -0.5282
vn 0.3234 -0.9024 -0.2847
vn 0.5531 -0.7349 0.3925
vn 0.1457 -0.1522 0.9776
vn 0.7502 -0.1473 0.6446
vn 0.8826 0.0041 -0.4701
vn 0.8056 0.0950 0.5849
vn 0.9327 0.1607 0.3228
vn 0.1762 0.0376 -0.9836
vn 0.0781 -0.9969 0.0082
vn 0.0999 -0.9950 0.0063
vn 0.0980 -0.9952 0.0062
vn 0.6301 -0.7741 0.0613
vn 0.0355 -0.9156 -0.4004
vn 0.0449 -0.1513 0.9875
vn 0.4171 -0.0014 0.9088
vn 0.4109 -0.1492 0.8994
vn 0.4040 0.1795 0.8970
vn 0.1091 -0.1313 0.9853
vn -0.4636 0.1678 0.8700
vn -0.7138 0.4712 0.5182
vn -0.8315 0.5307 -0.1642
vn -0.7373 -0.6365 0.2263
vn -0.8184 -0.2277 0.5276
vn -0.7370 -0.6745 0.0426
vn 0.5877 0.7973 -0.1375
vn -0.1800 -0.5278 0.8301
vn -0.6349 -0.3815 0.6718
vn -0.9423 -0.1456 -0.3015
vn -0.3724 -0.1337 -0.9184
vn -0.1336 0.1242 0.9832
vn 0.5289 0.8439 0.0897
vn -0.9871 0.1198 0.1067
vn -0.3461 0.4798 0.8062
vn -0.3039 0.9112 0.2780
vn 0.0791 0.9567 -0.2800
vn -0.8677 -0.2911 0.4030
vn 0.8953 0.3697 -0.2483
vn 0.0113 0.7572 -0.6531
vn -0.8558 0.4254 -0.2942
vn 0.9983 0.0320 0.0493
vn -0.9963 0.0679 0.0533
vn 0.9230 -0.2508 0.2918
vn 0.2171 -0.1792 -0.9595
vn -0.9409 0.1761 0.2893
vn -0.9237 0.1673 -0.3447
vn -0.9758 -0.2116 -0.0545
vn -0.2130 0.0037 0.9770
vn -0.8637 0.2180 0.4543
vn -0.8239 0.1192 0.5541
vn -0.4108 -0.2731 -0.8698
vn 0.6137 -0.6799 0.4015
vn -0.1044 -0.5778 0.8094
vn -0.8951 -0.2627 0.3603
vn -0.8292 0.3282 -0.4524
vn -0.9997 0.0169 -0.0153
vn 0.1320 -0.7081 0.6936
vn 0.2862 0.1695 -0.9431
vn -0.3628 0.0495 0.9305
vn -0.9672 0.0533 0.2482
vn -0.7680 -0.0357 -0.6395
vn -0.9982 -0.0583 0.0152
vn 0.7298 -0.5196 -0.4443
vn -0.9927 0.0734 0.0961
vn -0.3784 -0.7541 -0.5368
vn 0.4543 0.7771 0.4355
vn -0.8932 0.3535 0.2777
vn -0.6107 0.6508 0.4511
vn 0.9859 -0.0862 -0.1432
vn 0.8681 -0.3672 -0.3341
vn 0.0320 0.0732 -0.9968
vn -0.4876 0.3341 0.8066
vn -0.5366 0.2310 0.8116
vn -0.0459 -0.0953 -0.9944
vn -0.0549 0.1387 -0.9888
vn -0.5528 -0.8154 -0.1715
vn -0.5658 -0.8241 0.0270
vn -0.6872 -0.6699 -0.2811
vn 0.2046 -0.0876 -0.9749
vn -0.4913 0.0967 0.8656
vn -0.4895 0.0803 0.8683
vn 0.2690 0.1046 -0.9575
vn 0.0438 -0.1864 -0.9815
vn -0.9975 0.0346 -0.0624
vn -0.0399 0.1117 -0.9929
vn -0.6669 -0.7083 0.2313
vn 0.0348 -0.4602 -0.8871
vn -0.9820 -0.1838 -0.0444
vn -0.6845 -0.3759 -0.6245
vn -0.8405 -0.0114 0.5417
vn -0.7080 -0.1070 -0.6981
vn -0.2833 -0.9027 -0.3238
vn -0.5995 -0.7340 0.3192
vn -0.2681 -0.1522 0.9513
vn -0.8598 -0.2262 0.4578
vn -0.7560 0.0128 -0.6544
vn -0.9026 0.1527 0.4025
vn -0.9966 -0.0396 0.0724
vn 0.0445 -0.0423 -0.9981
vn -0.0798 -0.9968 -0.0051
vn -0.0999 -0.9950 -0.0063
vn -0.0980 -0.9952 -0.0062
vn -0.6356 -0.7718 -0.0209
vn -0.0618 -0.8469 -0.5281
vn -0.2035 -0.1520 0.9672
vn -0.5521 0.0078 0.8337
vn -0.5303 -0.1455 0.8353
vn -0.3186 0.0406 0.9470
vn -0.2681 -0.4214 0.8663
vn 0.0627 -0.0489 0.9968
vn -0.6157 0.4403 -0.6535
vn 0.8277 0.0345 -0.5602
vn 0.4746 -0.8047 0.3567
vn 0.7853 0.5662 0.2505
vn 0.5550 -0.8176 0.1535
vn 0.2943 0.9419 -0.1618
vn 0.1297 -0.1881 0.9736
vn 0.8789 -0.4762 -0.0257
vn -0.1644 0.4467 0.8794
vn 0.2822 0.0059 -0.9593
vn -0.0394 0.4461 0.8941
vn 0.3420 0.8978 -0.2773
vn 0.9650 0.2394 -0.1067
vn -0.1247 0.8829 0.4526
vn -0.6985 0.7061 -0.1164
vn -0.1669 -0.0311 -0.9855
vn 0.8148 0.4479 0.3681
vn -0.8351 -0.3380 -0.4341
vn 0.0493 -0.5435 -0.8380
vn 0.8350 -0.1369 -0.5329
vn -0.9981 -0.0608 -0.0107
vn 0.9826 0.1655 -0.0845
vn -0.8924 0.2474 0.3773
vn 0.2795 0.2505 -0.9269
vn 0.8487 -0.2714 0.4540
vn 0.9422 0.3320 -0.0442
vn 0.8099 0.2294 0.5399
vn 0.0857 0.0021 0.9963
vn 0.4573 -0.4937 0.7396
vn 0.7190 -0.6435 0.2625
vn 0.6709 0.6790 -0.2981
vn -0.1774 -0.6521 -0.7371
vn -0.2947 -0.7013 -0.6491
vn 0.8102 0.3294 0.4849
vn 0.8790 -0.1134 -0.4632
vn 0.9966 0.0819 -0.0007
vn -0.0585 0.5998 0.7980
vn 0.2183 -0.3445 -0.9131
vn -0.0784 0.0516 0.9956
vn 0.7988 -0.1118 0.5911
vn 0.8558 0.0509 -0.5148
vn 0.9867 -0.0984 0.1293
vn -0.4704 0.5974 -0.6495
vn 0.9508 -0.2209 0.2170
vn 0.6073 0.4985 -0.6186
vn -0.5990 -0.4145 0.6852
vn 0.7422 -0.4330 0.5115
vn 0.4060 -0.5457 0.7331
vn -0.9347 0.2788 -0.2204
vn -0.7444 0.4620 -0.4820
vn 0.2041 0.2375 -0.9497
vn 0.0337 -0.1735 0.9843
vn 0.0184 0.0318 0.9993
vn 0.1252 0.1877 -0.9742
vn 0.2254 0.0587 -0.9725
vn 0.7080 -0.6971 -0.1131
vn 0.5500 -0.8337 0.0484
vn 0.7203 -0.6686 -0.1848
vn 0.2822 0.2343 -0.9303
vn -0.2610 0.1030 0.9598
vn -0.2449 -0.0439 0.9685
vn 0.3850 0.0777 -0.9196
vn 0.0915 -0.1782 -0.9797
vn 0.9955 0.0125 0.0938
vn 0.1743 0.1093 -0.9786
vn 0.3975 -0.8464 0.3544
vn 0.0784 -0.4602 -0.8843
vn 0.9753 -0.1997 0.0948
vn 0.7174 -0.2941 -0.6315
vn 0.7583 -0.0233 0.6515
vn 0.7967 -0.1126 -0.5939
vn 0.2582 -0.8142 -0.5200
vn 0.7337 -0.5793 0.3550
vn 0.1326 -0.2326 0.9635
vn 0.7932 -0.2323 0.5630
vn 0.8513 -0.0411 -0.5230
vn 0.7201 0.1579 0.6757
vn 0.9910 -0.0922 0.0975
vn 0.0989 -0.0431 -0.9942
vn 0.0798 -0.9968 0.0051
vn 0.0550 -0.9923 -0.1107
vn 0.0771 -0.9963 0.0373
vn 0.6203 -0.7816 0.0652
vn 0.1281 -0.8469 -0.5161
vn 0.1571 0.0522 0.9862
vn 0.4188 -0.0016 0.9081
vn 0.4093 -0.1487 0.9002
vn 0.1696 0.0299 0.9851
vn 0.1565 -0.4214 0.8933
vn -0.2065 0.0575 0.9768
vn -0.2200 0.0065 0.9755
vn -0.2309 -0.1009 0.9677
vn 0.0463 0.0617 0.9970
vn 0.0909 -0.0072 0.9958
vn 0.1068 -0.1009 0.9892
vn -0.2318 0.0381 0.9720
vn -0.2318 -0.0082 0.9727
vn -0.2186 -0.1238 0.9679
vn 0.0918 0.0297 0.9953
vn 0.0916 -0.0081 0.9958
vn 0.0905 -0.1315 0.9872
vn -0.9933 -0.0190 0.1139
vn 0.8245 0.4501 -0.3429
vn 0.0110 0.7828 -0.6222
vn 0.0005 0.6533 0.7571
vn -0.8580 0.4291 -0.2823
vn 0.9991 -0.0142 0.0402
vn -0.9976 0.0539 0.0432
vn -0.0098 -0.7506 -0.6606
vn 0.8529 -0.5002 0.1496
vn -0.9831 -0.1179 -0.1402
vn 0.9748 -0.1571 -0.1586
vn -0.8439 0.2508 -0.4743
vn -0.0175 -0.8491 0.5279
vn 0.8706 0.1808 -0.4575
vn -0.8505 -0.4952 0.1771
vn 0.0068 0.6265 -0.7794
vn 0.6899 -0.5924 -0.4161
vn -0.9076 0.3683 0.2017
vn 0.5273 -0.6410 -0.5578
vn 0.0093 0.9842 0.1766
vn -0.1833 0.9746 -0.1290
vn -0.0885 0.9958 0.0242
vn 0.3443 0.5813 -0.7372
vn -0.6016 0.4205 0.6792
vn -0.7321 -0.6244 0.2722
vn 0.7120 0.5257 -0.4655
vn -0.3414 -0.6785 -0.6504
vn 0.8690 -0.4008 -0.2902
vn 0.5466 -0.6964 0.4651
vn 0.4810 -0.5454 -0.6864
vn -0.8382 0.1030 0.5356
vn -0.4792 -0.3121 -0.8204
vn -0.3811 -0.6420 -0.6652
vn -0.9713 -0.1039 0.2140
vn 0.6261 -0.4692 -0.6228
vn 0.8402 0.1010 -0.5328
vn 0.9717 0.1221 -0.2021
vn -0.6610 -0.0049 0.7503
vn -0.8356 -0.0141 0.5491
vn 0.5287 0.0695 0.8459
vn -0.5108 0.0198 -0.8595
vn -0.9813 -0.0223 0.1914
vn 0.5166 0.0834 -0.8522
vn 0.5040 0.0893 -0.8591
vn -0.9611 0.0189 0.2756
vn -0.5389 0.0653 -0.8398
vn 0.5226 0.1187 0.8443
vn -0.8458 0.0417 0.5318
vn -0.6751 0.0570 0.7355
vn 0.9856 0.1360 -0.1009
vn 0.8408 0.0953 -0.5330
vn 0.8255 0.5642 0.0122
vn -0.8043 0.3262 0.4966
vn 0.8497 -0.5055 -0.1497
vn -0.4895 0.5414 -0.6835
vn -0.5217 -0.7212 0.4558
vn 0.3894 0.5856 0.7109
vn -0.5900 -0.7046 0.3942
vn 0.4584 -0.6383 0.6185
vn -0.0136 -0.7336 0.6795
vn 0.8267 -0.3894 0.4062
vn -0.9959 -0.0025 0.0899
vn 0.9990 0.0187 0.0396
vn -0.8567 0.4309 -0.2833
vn 0.0121 0.7834 -0.6214
vn 0.8412 0.4316 -0.3259
vn -0.8694 -0.3210 0.3756
vn -0.9219 -0.2387 0.3052
vn 0.8915 -0.3032 0.3365
vn -0.0137 -0.7177 0.6962
vn -0.2813 -0.7376 -0.6138
vn 0.3096 -0.7311 -0.6080
vn 0.9923 -0.0661 0.1044
vn 0.0107 0.6564 0.7543
vn 0.9995 0.0317 -0.0019
vn 0.7957 -0.5884 0.1435
vn -0.8443 -0.5226 0.1188
vn -0.0160 -0.9731 0.2299
vn -0.9976 0.0544 0.0438
vn 0.9869 0.1591 0.0257
vn -0.7909 -0.6076 -0.0732
vn 0.0611 -0.9950 0.0794
vn 0.1146 -0.1126 -0.9870
vn 0.8923 -0.4430 0.0867
vn -0.9902 -0.0465 -0.1314
vn 0.9922 0.1093 0.0603
vn -0.1135 0.2477 0.9622
vn -0.8906 0.3756 0.2563
vn 0.9697 -0.1466 0.1954
vn -0.9793 -0.1776 0.0974
vn -0.4101 -0.4440 0.7967
vn -0.0976 0.8911 0.4431
vn 0.8112 0.1781 0.5570
vn 0.8054 0.4991 0.3199
vn -0.0725 0.7131 0.6973
vn -0.5236 0.7626 -0.3798
vn 0.7951 -0.5012 0.3413
vn -0.3472 0.8817 -0.3195
vn -0.2306 -0.6502 0.7239
vn -0.0250 -0.4172 0.9085
vn -0.1299 -0.5426 0.8299
vn -0.3979 0.4318 0.8095
vn 0.4501 -0.8924 0.0315
vn 0.7413 0.0142 -0.6711
vn -0.7840 0.2372 0.5737
vn 0.5126 0.8425 -0.1656
vn -0.7448 0.4487 -0.4939
vn -0.9119 0.1547 -0.3802
vn -0.3734 0.9277 0.0023
vn -0.6505 0.7456 -0.1444
vn 0.4999 0.8625 0.0782
vn 0.6168 0.6494 -0.4449
vn 0.8580 -0.5134 -0.0145
vn -0.3617 0.8526 -0.3771
vn -0.7829 0.5672 0.2557
vn -0.9596 0.2731 0.0672
vn 0.4376 -0.8012 -0.4083
vn 0.7756 -0.6031 -0.1862
vn -0.5194 -0.6983 -0.4926
vn 0.5118 0.6619 0.5477
vn 0.9491 -0.3138 0.0280
vn -0.4371 0.7794 0.4488
vn -0.4805 0.7431 0.4658
vn 0.9190 -0.3939 0.0196
vn 0.5543 0.5919 0.5851
vn -0.5783 -0.6922 -0.4318
vn 0.7886 -0.6040 -0.1157
vn 0.6020 -0.7532 -0.2651
vn -0.9852 0.1709 0.0126
vn -0.8131 0.5342 0.2311
vn -0.9274 -0.1685 0.3340
vn 0.6885 -0.7129 0.1333
vn -0.5837 0.6136 -0.5318
vn 0.3954 0.2245 0.8907
vn 0.6411 -0.0993 -0.7610
vn -0.5424 -0.8387 0.0486
vn 0.7073 -0.0665 -0.7038
vn -0.3408 -0.1250 -0.9318
vn -0.0722 0.9872 -0.1421
vn -0.8545 0.4814 -0.1950
vn 0.9981 0.0551 0.0291
vn -0.9875 -0.0382 -0.1527
vn 0.8514 -0.5107 0.1192
vn 0.0671 -0.9880 0.1390
vn -0.8156 -0.5763 -0.0516
vn 0.7994 0.5990 -0.0458
vn 0.8963 0.4428 -0.0220
vn -0.9075 0.3667 -0.2048
vn -0.0472 0.9831 -0.1766
vn 0.1592 0.2852 0.9451
vn -0.3568 0.2485 0.9005
vn -0.9874 0.0329 -0.1550
vn 0.1074 -0.1097 -0.9881
vn -0.9866 -0.1079 -0.1220
vn -0.8568 0.5008 0.1226
vn 0.7758 0.5652 0.2806
vn -0.0973 0.9316 0.3501
vn 0.9969 -0.0081 0.0783
vn -0.9937 -0.0206 0.1102
vn 0.8406 0.4409 -0.3146
vn 0.0113 0.7830 -0.6219
vn -0.8578 0.4295 -0.2824
vn 0.9993 0.0130 0.0343
vn -0.9985 0.0020 0.0539
vn -0.0124 -0.7497 -0.6617
vn 0.8532 -0.5007 0.1460
vn -0.9809 -0.1200 -0.1533
vn 0.9769 -0.1555 -0.1464
vn -0.8455 0.2426 -0.4757
vn -0.0176 -0.8489 0.5283
vn 0.8677 0.2032 -0.4536
vn -0.8524 -0.4967 0.1635
vn 0.0060 0.6288 -0.7775
vn 0.6899 -0.5923 -0.4161
vn -0.8841 0.4063 0.2310
vn 0.5163 -0.5223 -0.6787
vn 0.3293 0.5393 -0.7751
vn -0.5842 0.3846 0.7147
vn -0.6156 -0.7259 0.3069
vn 0.8008 -0.3576 -0.4804
vn 0.9143 -0.3474 -0.2082
vn 0.5750 -0.2187 -0.7884
vn 0.5589 -0.7123 0.4246
vn 0.4804 0.5167 0.7088
vn -0.4672 -0.6957 -0.5456
vn -0.9244 -0.0928 0.3700
vn 0.6055 -0.4926 -0.6251
vn 0.8265 0.0964 -0.5546
vn 0.9886 0.1111 -0.1021
vn -0.5510 -0.0133 0.8344
vn -0.8456 -0.0173 0.5335
vn 0.5055 0.0727 0.8597
vn -0.5368 0.0236 -0.8434
vn -0.9621 -0.0139 0.2723
vn 0.5304 0.0861 -0.8434
vn 0.5126 0.1122 -0.8513
vn -0.9562 0.0428 0.2895
vn -0.6640 0.0339 0.7470
vn 0.9895 0.1137 -0.0887
vn 0.7967 0.6041 -0.0195
vn 0.7488 -0.6298 -0.2062
vn -0.5437 -0.6149 0.5712
vn 0.4584 -0.6383 0.6184
vn -0.0127 -0.7339 0.6792
vn 0.8740 -0.3430 0.3442
vn -0.9964 0.0647 0.0543
vn 0.9981 -0.0167 0.0589
vn -0.8577 0.4299 -0.2820
vn 0.0113 0.7836 -0.6212
vn 0.8848 0.3826 -0.2661
vn -0.8698 -0.3206 0.3750
vn -0.9218 -0.2392 0.3052
vn 0.8803 -0.3322 0.3388
vn -0.0143 -0.7182 0.6957
vn -0.3651 -0.7142 -0.5972
vn 0.2378 -0.7480 -0.6197
vn 0.9922 -0.0653 0.1063
vn 0.0075 0.6506 0.7594
vn 0.9993 0.0133 0.0347
vn -0.9956 0.0893 -0.0267
vn 0.9869 0.1599 0.0218
vn -0.7749 -0.6298 -0.0532
vn 0.0613 -0.9949 0.0798
vn 0.8925 -0.4426 0.0869
vn -0.9873 -0.0721 -0.1416
vn 0.9974 0.0605 0.0404
vn -0.1109 0.2465 0.9628
vn -0.8663 0.3960 0.3046
vn -0.1979 -0.1341 0.9710
vn -0.8936 -0.1100 0.4351
vn -0.7573 0.3263 0.5656
vn -0.0903 0.8983 0.4299
vn -0.7266 -0.5663 0.3890
vn 0.7434 0.5248 0.4146
vn -0.0920 0.5816 0.8083
vn 0.7625 -0.5417 0.3537
vn -0.3560 0.9216 -0.1547
vn -0.4236 0.3807 0.8220
vn 0.4611 -0.8835 0.0831
vn 0.8348 -0.0266 -0.5500
vn -0.5808 0.7458 -0.3262
vn 0.9271 -0.0496 -0.3715
vn -0.3251 0.9448 -0.0412
vn 0.6423 -0.7334 0.2226
vn 0.5501 0.7892 0.2730
vn 0.4748 0.8048 -0.3562
vn 0.9510 -0.3091 0.0089
vn -0.4121 0.8420 -0.3482
vn -0.8139 0.5309 0.2361
vn -0.9827 0.1852 -0.0080
vn 0.6093 -0.7321 -0.3046
vn 0.8018 -0.5730 -0.1695
vn -0.5718 -0.6579 -0.4902
vn 0.5626 0.6209 0.5459
vn 0.9273 -0.3743 -0.0061
vn -0.4783 0.7620 0.4365
vn -0.4668 0.7600 0.4522
vn 0.9083 -0.4171 0.0313
vn 0.6084 -0.7571 -0.2380
vn -0.9849 0.1726 -0.0130
vn -0.8132 0.5342 0.2311
vn -0.9062 -0.1665 0.3886
vn -0.7118 0.5182 -0.4741
vn 0.6337 -0.2546 -0.7305
vn -0.0506 0.9875 -0.1492
vn -0.8532 0.4839 -0.1946
vn 0.9906 0.1324 0.0335
vn -0.9880 -0.0277 -0.1521
vn 0.8896 -0.4396 0.1238
vn 0.0542 -0.9883 0.1427
vn -0.7943 -0.6055 -0.0499
vn 0.8379 0.5437 -0.0475
vn 0.8965 0.4424 -0.0222
vn -0.8999 0.3928 -0.1895
vn -0.0467 0.9833 -0.1758
vn 0.2459 0.2820 0.9274
vn -0.4254 0.2354 0.8739
vn -0.9870 0.0334 -0.1570
vn 0.1048 -0.1176 -0.9875
vn -0.9872 -0.0722 -0.1420
vn -0.8568 0.5009 0.1226
vn 0.9974 0.0604 0.0395
usemtl color_1
s off
f 94//1 58//1 91//1
f 41//2 51//2 43//2
f 8//3 10//3 2//3
f 88//4 3//4 6//4
f 7//5 13//5 15//5
f 88//6 98//6 99//6
f 179//7 11//7 16//7
f 172//8 115//8 276//8
f 5//9 47//9 1//9
f 3//10 50//10 46//10
f 86//11 41//11 89//11
f 230//12 4//12 54//12
f 180//13 16//13 14//13
f 7//14 9//14 8//14
f 4//15 12//15 13//15
f 173//16 14//16 12//16
f 2//17 11//17 171//17
f 13//18 35//18 15//18
f 16//19 33//19 34//19
f 10//20 33//20 11//20
f 10//21 40//21 37//21
f 14//22 34//22 36//22
f 9//23 35//23 40//23
f 12//24 36//24 39//24
f 89//25 57//25 92//25
f 59//26 44//26 60//26
f 41//27 59//27 57//27
f 60//28 42//28 58//28
f 172//29 90//29 85//29
f 6//30 46//30 45//30
f 6//31 48//31 5//31
f 1//32 49//32 41//32
f 44//33 50//33 42//33
f 43//34 52//34 44//34
f 7//35 54//35 4//35
f 53//36 8//36 2//36
f 55//37 7//37 8//37
f 13//38 39//38 38//38
f 171//39 53//39 2//39
f 216//40 91//40 90//40
f 60//41 54//41 56//41
f 57//42 55//42 53//42
f 59//43 56//43 55//43
f 51//44 77//44 78//44
f 48//45 80//45 47//45
f 49//46 80//46 77//46
f 50//47 79//47 46//47
f 48//48 83//48 81//48
f 45//49 79//49 83//49
f 52//50 82//50 50//50
f 51//51 84//51 52//51
f 271//52 92//52 93//52
f 90//53 58//53 42//53
f 3//54 90//54 42//54
f 215//55 92//55 235//55
f 174//56 89//56 215//56
f 1//57 87//57 5//57
f 5//58 88//58 6//58
f 86//59 98//59 87//59
f 93//60 57//60 53//60
f 94//61 230//61 54//61
f 236//62 94//62 91//62
f 93//63 229//63 271//63
f 110//64 285//64 101//64
f 108//65 102//65 103//65
f 174//66 97//66 86//66
f 85//67 99//67 115//67
f 285//68 104//68 101//68
f 103//69 105//69 106//69
f 102//70 104//70 105//70
f 108//71 118//71 117//71
f 110//72 102//72 109//72
f 105//73 112//73 113//73
f 116//74 114//74 111//74
f 279//75 111//75 300//75
f 103//76 116//76 118//76
f 97//77 109//77 98//77
f 115//78 108//78 117//78
f 99//79 109//79 108//79
f 278//80 110//80 97//80
f 303//81 114//81 113//81
f 112//82 303//82 113//82
f 301//83 111//83 114//83
f 106//84 113//84 114//84
f 289//85 112//85 104//85
f 95//86 276//86 115//86
f 107//87 118//87 100//87
f 96//88 118//88 116//88
f 95//89 117//89 107//89
f 96//90 279//90 312//90
f 274//91 234//91 228//91
f 217//92 223//92 213//92
f 182//93 178//93 168//93
f 266//94 169//94 263//94
f 177//95 185//95 170//95
f 266//96 281//96 265//96
f 188//97 171//97 179//97
f 172//98 307//98 263//98
f 221//99 175//99 167//99
f 169//100 224//100 214//100
f 267//101 167//101 264//101
f 228//102 173//102 230//102
f 186//103 179//103 180//103
f 178//104 187//104 177//104
f 170//105 184//105 173//105
f 184//106 180//106 173//106
f 183//107 168//107 171//107
f 207//108 185//108 187//108
f 206//109 183//109 188//109
f 183//110 209//110 182//110
f 209//111 181//111 182//111
f 208//112 188//112 186//112
f 212//113 187//113 181//113
f 184//114 208//114 186//114
f 233//115 267//115 270//115
f 238//116 217//116 237//116
f 237//117 213//117 233//117
f 238//118 214//118 218//118
f 268//119 172//119 263//119
f 176//120 220//120 169//120
f 175//121 219//121 176//121
f 213//122 221//122 167//122
f 224//123 218//123 214//123
f 218//124 225//124 217//124
f 177//125 228//125 232//125
f 178//126 227//126 168//126
f 178//127 232//127 231//127
f 185//128 211//128 184//128
f 168//129 229//129 171//129
f 269//130 216//130 268//130
f 232//131 234//131 238//131
f 227//132 237//132 233//132
f 231//133 238//133 237//133
f 225//134 255//134 223//134
f 258//135 222//135 221//135
f 223//136 258//136 221//136
f 257//137 224//137 220//137
f 222//138 261//138 219//138
f 219//139 257//139 220//139
f 260//140 226//140 224//140
f 226//141 256//141 225//141
f 273//142 235//142 271//142
f 234//143 268//143 214//143
f 169//144 268//144 263//144
f 270//145 215//145 235//145
f 267//146 174//146 215//146
f 167//147 265//147 264//147
f 175//148 266//148 265//148
f 281//149 264//149 265//149
f 233//150 273//150 227//150
f 230//151 274//151 228//151
f 269//152 272//152 236//152
f 273//153 229//153 227//153
f 297//154 285//154 296//154
f 288//155 295//155 294//155
f 280//156 174//156 264//156
f 263//157 282//157 266//157
f 290//158 285//158 286//158
f 288//159 291//159 287//159
f 287//160 290//160 286//160
f 310//161 294//161 309//161
f 287//162 297//162 295//162
f 291//163 304//163 290//163
f 308//164 306//164 292//164
f 279//165 299//165 308//165
f 308//166 288//166 310//166
f 295//167 280//167 281//167
f 309//168 282//168 307//168
f 294//169 281//169 282//169
f 297//170 278//170 280//170
f 306//171 303//171 305//171
f 304//172 303//172 302//172
f 301//173 299//173 300//173
f 292//174 305//174 291//174
f 304//175 289//175 290//175
f 275//176 276//176 311//176
f 283//177 309//177 293//177
f 277//178 310//178 283//178
f 309//179 275//179 293//179
f 279//180 277//180 312//180
f 94//181 54//181 58//181
f 41//182 49//182 51//182
f 8//183 9//183 10//183
f 88//184 85//184 3//184
f 7//185 4//185 13//185
f 88//186 87//186 98//186
f 179//187 171//187 11//187
f 172//188 85//188 115//188
f 5//189 48//189 47//189
f 3//190 42//190 50//190
f 86//191 1//191 41//191
f 230//192 173//192 4//192
f 180//193 179//193 16//193
f 7//194 15//194 9//194
f 4//195 173//195 12//195
f 173//196 180//196 14//196
f 2//197 10//197 11//197
f 13//198 38//198 35//198
f 16//199 11//199 33//199
f 10//200 37//200 33//200
f 10//201 9//201 40//201
f 14//202 16//202 34//202
f 9//203 15//203 35//203
f 12//204 14//204 36//204
f 89//205 41//205 57//205
f 59//206 43//206 44//206
f 41//207 43//207 59//207
f 60//208 44//208 42//208
f 172//209 216//209 90//209
f 6//210 3//210 46//210
f 6//211 45//211 48//211
f 1//212 47//212 49//212
f 44//213 52//213 50//213
f 43//214 51//214 52//214
f 7//215 56//215 54//215
f 53//216 55//216 8//216
f 55//217 56//217 7//217
f 13//218 12//218 39//218
f 171//219 229//219 53//219
f 216//220 236//220 91//220
f 60//221 58//221 54//221
f 57//222 59//222 55//222
f 59//223 60//223 56//223
f 51//224 49//224 77//224
f 48//225 81//225 80//225
f 49//226 47//226 80//226
f 50//227 82//227 79//227
f 48//228 45//228 83//228
f 45//229 46//229 79//229
f 52//230 84//230 82//230
f 51//231 78//231 84//231
f 271//232 235//232 92//232
f 90//233 91//233 58//233
f 3//234 85//234 90//234
f 215//235 89//235 92//235
f 174//236 86//236 89//236
f 1//237 86//237 87//237
f 5//238 87//238 88//238
f 86//239 97//239 98//239
f 93//240 92//240 57//240
f 94//241 272//241 230//241
f 236//242 272//242 94//242
f 93//243 53//243 229//243
f 110//244 296//244 285//244
f 108//245 109//245 102//245
f 174//246 278//246 97//246
f 85//247 88//247 99//247
f 285//248 289//248 104//248
f 103//249 102//249 105//249
f 102//250 101//250 104//250
f 108//251 103//251 118//251
f 110//252 101//252 102//252
f 105//253 104//253 112//253
f 116//254 106//254 114//254
f 279//255 116//255 111//255
f 103//256 106//256 116//256
f 97//257 110//257 109//257
f 115//258 99//258 108//258
f 99//259 98//259 109//259
f 278//260 296//260 110//260
f 303//261 301//261 114//261
f 112//262 302//262 303//262
f 301//263 300//263 111//263
f 106//264 105//264 113//264
f 289//265 302//265 112//265
f 95//266 311//266 276//266
f 107//267 117//267 118//267
f 96//268 100//268 118//268
f 95//269 115//269 117//269
f 96//270 116//270 279//270
f 274//271 269//271 234//271
f 217//272 225//272 223//272
f 182//273 181//273 178//273
f 266//274 176//274 169//274
f 177//275 187//275 185//275
f 266//276 282//276 281//276
f 188//277 183//277 171//277
f 172//278 276//278 307//278
f 221//279 222//279 175//279
f 169//280 220//280 224//280
f 267//281 213//281 167//281
f 228//282 170//282 173//282
f 186//283 188//283 179//283
f 178//284 181//284 187//284
f 170//285 185//285 184//285
f 184//286 186//286 180//286
f 183//287 182//287 168//287
f 207//288 210//288 185//288
f 206//289 205//289 183//289
f 183//290 205//290 209//290
f 209//291 212//291 181//291
f 208//292 206//292 188//292
f 212//293 207//293 187//293
f 184//294 211//294 208//294
f 233//295 213//295 267//295
f 238//296 218//296 217//296
f 237//297 217//297 213//297
f 238//298 234//298 214//298
f 268//299 216//299 172//299
f 176//300 219//300 220//300
f 175//301 222//301 219//301
f 213//302 223//302 221//302
f 224//303 226//303 218//303
f 218//304 226//304 225//304
f 177//305 170//305 228//305
f 178//306 231//306 227//306
f 178//307 177//307 232//307
f 185//308 210//308 211//308
f 168//309 227//309 229//309
f 269//310 236//310 216//310
f 232//311 228//311 234//311
f 227//312 231//312 237//312
f 231//313 232//313 238//313
f 225//314 256//314 255//314
f 258//315 259//315 222//315
f 223//316 255//316 258//316
f 257//317 260//317 224//317
f 222//318 259//318 261//318
f 219//319 261//319 257//319
f 260//320 262//320 226//320
f 226//321 262//321 256//321
f 273//322 270//322 235//322
f 234//323 269//323 268//323
f 169//324 214//324 268//324
f 270//325 267//325 215//325
f 267//326 264//326 174//326
f 167//327 175//327 265//327
f 175//328 176//328 266//328
f 281//329 280//329 264//329
f 233//330 270//330 273//330
f 230//331 272//331 274//331
f 269//332 274//332 272//332
f 273//333 271//333 229//333
f 297//334 286//334 285//334
f 288//335 287//335 295//335
f 280//336 278//336 174//336
f 263//337 307//337 282//337
f 290//338 289//338 285//338
f 288//339 292//339 291//339
f 287//340 291//340 290//340
f 310//341 288//341 294//341
f 287//342 286//342 297//342
f 291//343 305//343 304//343
f 308//344 299//344 306//344
f 279//345 300//345 299//345
f 308//346 292//346 288//346
f 295//347 297//347 280//347
f 309//348 294//348 282//348
f 294//349 295//349 281//349
f 297//350 296//350 278//350
f 306//351 301//351 303//351
f 304//352 305//352 303//352
f 301//353 306//353 299//353
f 292//354 306//354 305//354
f 304//355 302//355 289//355
f 275//356 307//356 276//356
f 283//357 310//357 309//357
f 277//358 308//358 310//358
f 309//359 307//359 275//359
f 279//360 308//360 277//360
usemtl color_2
f 95//361 298//361 311//361
f 284//362 107//362 100//362
f 284//363 96//363 312//363
f 298//364 275//364 311//364
f 293//365 284//365 283//365
f 277//366 284//366 312//366
f 95//367 107//367 298//367
f 284//368 298//368 107//368
f 284//369 100//369 96//369
f 298//370 293//370 275//370
f 293//371 298//371 284//371
f 277//372 283//372 284//372
usemtl color_3
f 160//373 157//373 154//373
f 148//374 19//374 24//374
f 147//375 18//375 19//375
f 23//376 20//376 22//376
f 17//376 19//376 18//376
f 17//376 22//376 24//376
f 143//377 17//377 18//377
f 148//378 22//378 150//378
f 146//379 23//379 17//379
f 161//380 155//380 162//380
f 39//381 32//381 30//381
f 35//382 31//382 40//382
f 36//383 27//383 32//383
f 37//384 31//384 26//384
f 159//376 154//376 153//376
f 38//385 30//385 28//385
f 33//386 27//386 34//386
f 38//387 29//387 35//387
f 37//388 25//388 33//388
f 125//389 139//389 123//389
f 63//390 131//390 64//390
f 124//391 141//391 125//391
f 61//392 66//392 68//392
f 65//393 64//393 67//393
f 67//394 61//394 68//394
f 65//395 134//395 132//395
f 62//396 129//396 130//396
f 119//397 136//397 127//397
f 67//398 135//398 134//398
f 119//399 140//399 124//399
f 78//400 76//400 84//400
f 84//401 73//401 82//401
f 83//402 74//402 75//402
f 81//403 75//403 71//403
f 79//404 73//404 74//404
f 77//405 70//405 69//405
f 80//406 71//406 70//406
f 78//407 69//407 72//407
f 76//408 125//408 123//408
f 76//409 121//409 73//409
f 75//410 126//410 122//410
f 75//411 120//411 71//411
f 74//412 121//412 126//412
f 70//413 124//413 69//413
f 71//414 119//414 70//414
f 72//415 124//415 125//415
f 141//416 132//416 134//416
f 136//417 128//417 127//417
f 140//418 128//418 132//418
f 137//419 130//419 142//419
f 138//420 131//420 136//420
f 138//421 130//421 129//421
f 139//422 133//422 137//422
f 139//423 134//423 135//423
f 66//424 135//424 68//424
f 61//425 131//425 129//425
f 121//426 139//426 137//426
f 63//427 132//427 128//427
f 126//428 138//428 122//428
f 62//429 133//429 66//429
f 122//430 136//430 120//430
f 126//431 137//431 142//431
f 28//432 145//432 144//432
f 30//433 150//433 145//433
f 31//434 149//434 146//434
f 27//435 150//435 32//435
f 31//436 143//436 26//436
f 26//437 147//437 25//437
f 27//438 147//438 148//438
f 28//439 149//439 29//439
f 157//440 153//440 154//440
f 158//441 152//441 156//441
f 156//442 153//442 155//442
f 162//443 157//443 163//443
f 164//376 151//376 165//376
f 161//444 158//444 156//444
f 165//445 158//445 166//445
f 164//376 153//376 152//376
f 156//446 157//446 155//446
f 20//376 159//376 164//376
f 22//447 166//447 150//447
f 145//448 166//448 161//448
f 20//376 165//376 22//376
f 144//449 163//449 149//449
f 21//376 160//376 159//376
f 144//450 161//450 162//450
f 23//451 163//451 160//451
f 354//452 351//452 357//452
f 342//453 191//453 341//453
f 341//454 190//454 337//454
f 192//455 195//455 194//455
f 191//455 189//455 190//455
f 194//455 189//455 196//455
f 337//456 189//456 340//456
f 194//457 342//457 344//457
f 340//458 195//458 343//458
f 349//459 355//459 356//459
f 202//460 208//460 211//460
f 212//461 201//461 207//461
f 204//462 206//462 208//462
f 209//463 203//463 212//463
f 353//455 348//455 354//455
f 210//464 202//464 211//464
f 206//465 197//465 205//465
f 207//466 200//466 210//466
f 205//467 198//467 209//467
f 333//468 319//468 317//468
f 325//469 241//469 242//469
f 335//470 318//470 319//470
f 244//471 239//471 246//471
f 243//472 242//472 241//472
f 246//473 242//473 245//473
f 243//474 328//474 245//474
f 240//475 323//475 239//475
f 313//476 330//476 314//476
f 328//477 246//477 245//477
f 334//478 313//478 318//478
f 254//479 256//479 262//479
f 260//480 254//480 262//480
f 261//481 252//481 257//481
f 259//482 253//482 261//482
f 252//483 260//483 257//483
f 255//484 248//484 258//484
f 258//485 249//485 259//485
f 256//486 247//486 255//486
f 254//487 319//487 250//487
f 315//488 254//488 251//488
f 253//489 320//489 252//489
f 314//490 253//490 249//490
f 252//491 315//491 251//491
f 318//492 248//492 247//492
f 313//493 249//493 248//493
f 250//494 318//494 247//494
f 335//495 326//495 334//495
f 322//496 330//496 321//496
f 334//497 322//497 321//497
f 324//498 331//498 336//498
f 330//499 323//499 332//499
f 332//500 324//500 336//500
f 327//501 333//501 331//501
f 329//502 335//502 333//502
f 329//503 244//503 246//503
f 323//504 242//504 239//504
f 315//505 333//505 317//505
f 241//506 326//506 243//506
f 332//507 320//507 316//507
f 327//508 240//508 244//508
f 330//509 316//509 314//509
f 320//510 331//510 315//510
f 200//511 339//511 202//511
f 339//512 204//512 202//512
f 203//513 343//513 201//513
f 344//514 199//514 204//514
f 198//515 340//515 203//515
f 341//516 198//516 197//516
f 342//517 197//517 199//517
f 201//518 338//518 200//518
f 351//519 347//519 349//519
f 346//520 352//520 350//520
f 347//521 350//521 349//521
f 351//522 356//522 357//522
f 345//455 358//455 359//455
f 355//523 352//523 360//523
f 352//524 359//524 360//524
f 358//455 347//455 353//455
f 350//525 351//525 352//525
f 192//455 353//455 193//455
f 360//526 194//526 344//526
f 339//527 360//527 344//527
f 359//455 192//455 194//455
f 357//528 338//528 343//528
f 193//455 354//455 195//455
f 338//529 355//529 339//529
f 195//530 357//530 343//530
f 160//531 163//531 157//531
f 148//532 147//532 19//532
f 147//533 143//533 18//533
f 23//376 21//376 20//376
f 17//376 24//376 19//376
f 17//376 23//376 22//376
f 143//534 146//534 17//534
f 148//535 24//535 22//535
f 146//536 149//536 23//536
f 161//537 156//537 155//537
f 39//538 36//538 32//538
f 35//539 29//539 31//539
f 36//540 34//540 27//540
f 37//541 40//541 31//541
f 159//376 160//376 154//376
f 38//542 39//542 30//542
f 33//543 25//543 27//543
f 38//544 28//544 29//544
f 37//545 26//545 25//545
f 125//546 141//546 139//546
f 63//547 128//547 131//547
f 124//548 140//548 141//548
f 61//392 62//392 66//392
f 65//393 63//393 64//393
f 67//394 64//394 61//394
f 65//549 67//549 134//549
f 62//550 61//550 129//550
f 119//551 120//551 136//551
f 67//398 68//398 135//398
f 119//399 127//399 140//399
f 78//552 72//552 76//552
f 84//553 76//553 73//553
f 83//554 79//554 74//554
f 81//555 83//555 75//555
f 79//556 82//556 73//556
f 77//557 80//557 70//557
f 80//558 81//558 71//558
f 78//559 77//559 69//559
f 76//560 72//560 125//560
f 76//561 123//561 121//561
f 75//562 74//562 126//562
f 75//563 122//563 120//563
f 74//564 73//564 121//564
f 70//565 119//565 124//565
f 71//566 120//566 119//566
f 72//567 69//567 124//567
f 141//568 140//568 132//568
f 136//569 131//569 128//569
f 140//418 127//418 128//418
f 137//419 133//419 130//419
f 138//420 129//420 131//420
f 138//570 142//570 130//570
f 139//571 135//571 133//571
f 139//423 141//423 134//423
f 66//572 133//572 135//572
f 61//425 64//425 131//425
f 121//573 123//573 139//573
f 63//427 65//427 132//427
f 126//574 142//574 138//574
f 62//429 130//429 133//429
f 122//430 138//430 136//430
f 126//575 121//575 137//575
f 28//576 30//576 145//576
f 30//577 32//577 150//577
f 31//578 29//578 149//578
f 27//579 148//579 150//579
f 31//580 146//580 143//580
f 26//581 143//581 147//581
f 27//582 25//582 147//582
f 28//583 144//583 149//583
f 157//584 155//584 153//584
f 158//585 151//585 152//585
f 156//586 152//586 153//586
f 162//587 155//587 157//587
f 164//376 152//376 151//376
f 161//588 166//588 158//588
f 165//589 151//589 158//589
f 164//376 159//376 153//376
f 156//590 158//590 157//590
f 20//376 21//376 159//376
f 22//591 165//591 166//591
f 145//448 150//448 166//448
f 20//376 164//376 165//376
f 144//449 162//449 163//449
f 21//376 23//376 160//376
f 144//450 145//450 161//450
f 23//592 149//592 163//592
f 354//593 348//593 351//593
f 342//594 196//594 191//594
f 341//595 191//595 190//595
f 192//455 193//455 195//455
f 191//455 196//455 189//455
f 194//455 195//455 189//455
f 337//596 190//596 189//596
f 194//597 196//597 342//597
f 340//598 189//598 195//598
f 349//599 350//599 355//599
f 202//600 204//600 208//600
f 212//601 203//601 201//601
f 204//602 199//602 206//602
f 209//603 198//603 203//603
f 353//455 347//455 348//455
f 210//604 200//604 202//604
f 206//605 199//605 197//605
f 207//606 201//606 200//606
f 205//607 197//607 198//607
f 333//468 335//468 319//468
f 325//608 322//608 241//608
f 335//609 334//609 318//609
f 244//471 240//471 239//471
f 243//472 245//472 242//472
f 246//473 239//473 242//473
f 243//610 326//610 328//610
f 240//611 324//611 323//611
f 313//612 321//612 330//612
f 328//477 329//477 246//477
f 334//478 321//478 313//478
f 254//613 250//613 256//613
f 260//614 251//614 254//614
f 261//615 253//615 252//615
f 259//616 249//616 253//616
f 252//617 251//617 260//617
f 255//618 247//618 248//618
f 258//619 248//619 249//619
f 256//620 250//620 247//620
f 254//621 317//621 319//621
f 315//622 317//622 254//622
f 253//623 316//623 320//623
f 314//624 316//624 253//624
f 252//625 320//625 315//625
f 318//626 313//626 248//626
f 313//627 314//627 249//627
f 250//628 319//628 318//628
f 335//629 328//629 326//629
f 322//630 325//630 330//630
f 334//497 326//497 322//497
f 324//498 327//498 331//498
f 330//499 325//499 323//499
f 332//631 323//631 324//631
f 327//632 329//632 333//632
f 329//633 328//633 335//633
f 329//634 327//634 244//634
f 323//504 325//504 242//504
f 315//635 331//635 333//635
f 241//506 322//506 326//506
f 332//636 336//636 320//636
f 327//508 324//508 240//508
f 330//509 332//509 316//509
f 320//510 336//510 331//510
f 200//637 338//637 339//637
f 339//638 344//638 204//638
f 203//639 340//639 343//639
f 344//640 342//640 199//640
f 198//641 337//641 340//641
f 341//642 337//642 198//642
f 342//643 341//643 197//643
f 201//644 343//644 338//644
f 351//645 348//645 347//645
f 346//646 345//646 352//646
f 347//647 346//647 350//647
f 351//648 349//648 356//648
f 345//455 346//455 358//455
f 355//649 350//649 352//649
f 352//650 345//650 359//650
f 358//455 346//455 347//455
f 350//651 349//651 351//651
f 192//455 358//455 353//455
f 360//652 359//652 194//652
f 339//653 355//653 360//653
f 359//455 358//455 192//455
f 357//528 356//528 338//528
f 193//455 353//455 354//455
f 338//529 356//529 355//529
f 195//654 354//654 357//654
