# Blender v2.83.5 OBJ File: 'bio.blend'
# www.blender.org
mtllib bio_000003.mtl
o Cube
v -0.836299 -1.108965 -0.545301
v -0.670046 1.147325 -0.391769
v -0.775975 -1.041878 0.407854
v -0.676918 0.739158 0.444374
v -0.967627 -1.048002 -0.275613
v -0.957137 -0.987125 0.073756
v -0.860947 0.855958 0.192572
v -0.858694 1.032671 -0.134283
v -0.812813 1.249514 0.065697
v -0.709088 1.334748 -0.088560
v -0.168079 1.279448 -0.147385
v -0.170917 1.063074 0.391854
v -0.712506 1.053172 0.424189
v -0.089119 1.138752 0.208652
v -0.814165 1.138160 0.268472
v -0.088036 1.208876 0.021253
v -0.639691 3.475441 1.429426
v -0.573846 3.535179 1.334229
v -0.256302 3.533667 1.335269
v -0.258900 3.334354 1.651958
v -0.576437 3.336356 1.650140
v -0.178405 3.394256 1.556438
v -0.640716 3.396814 1.554358
v -0.177380 3.472883 1.431506
v -0.215927 2.471702 0.604522
v -0.644123 2.483310 0.609138
v -0.135510 2.392983 0.734199
v -0.647294 2.235321 1.016304
v -0.729798 2.310683 0.892865
v -0.219102 2.223439 1.012860
v -0.728542 2.408787 0.731873
v -0.136680 2.301622 0.884217
v -0.233755 2.358574 0.559324
v -0.160978 2.290048 0.681236
v -0.707742 2.218244 0.828995
v -0.161943 2.211267 0.821412
v -0.629101 2.368281 0.562803
v -0.631735 2.153524 0.945184
v -0.236396 2.143136 0.942580
v -0.706702 2.303154 0.677756
v -0.823889 -0.706386 -0.612440
v -0.806394 -0.571228 0.286441
v -0.890911 -0.754852 -0.432646
v -0.775246 -0.637094 -0.131011
v -1.071465 -0.574200 -0.119330
v -0.919727 -0.527125 -0.001532
v -1.184233 -0.869094 -0.424316
v -1.182020 -0.718995 -0.283185
v -0.935432 -0.900287 -0.544519
v -0.675760 -0.568625 -0.118954
v -0.813382 -0.789310 -0.460829
v -0.714805 -0.653399 -0.290517
v -0.686545 0.574725 -0.640470
v -0.708438 0.247650 0.274630
v -0.861247 0.434269 -0.402631
v -0.863881 0.298578 -0.049206
v -0.688377 -0.449757 -0.621261
v -0.708414 -0.423332 0.310600
v -0.833452 -0.493906 -0.413114
v -0.819303 -0.464008 -0.062779
v -1.202504 2.006771 -1.158154
v -1.121061 1.992932 -1.081474
v -1.305319 1.981888 -1.384828
v -1.275372 2.002403 -1.278120
v -1.152540 1.997545 -1.478197
v -0.968281 2.008590 -1.174843
v -1.052166 2.025279 -1.414530
v -0.979297 2.029646 -1.294564
v -1.048923 0.430192 -1.603905
v -1.298671 0.420701 -1.456705
v -1.269097 0.468719 -1.280419
v -0.904787 0.490818 -1.498062
v -0.752683 0.499836 -1.129737
v -1.002547 0.491988 -0.983142
v -1.151503 0.489981 -1.090642
v -0.787173 0.511582 -1.308612
v -1.024785 0.180844 -1.427601
v -0.905535 0.272322 -1.369037
v -1.003948 0.504971 -0.991915
v -1.243529 0.234577 -1.318908
v -1.225157 0.352009 -1.209247
v -0.785133 0.449929 -1.100862
v -1.130461 0.459165 -1.081225
v -0.810809 0.379653 -1.239609
v -0.669337 -1.123186 0.492096
v -0.674146 -1.213458 -0.598662
v -0.789560 -1.177808 -0.373801
v -0.733288 -1.194472 0.125201
v -0.340525 -0.567661 -0.540114
v -0.364007 -0.531432 0.511686
v -0.308510 -0.338925 0.482728
v -0.269709 -0.330052 -0.556561
v -0.265689 0.113978 -0.586597
v -0.295241 0.027902 0.433892
v -0.298693 -1.398065 0.482561
v -0.449625 -2.412553 0.440962
v -0.483213 -1.395805 -0.639511
v -0.688956 -1.287682 -0.365954
v -0.631819 -1.277170 0.147305
v -0.475114 -2.178294 0.466023
v -0.483440 -2.218469 -0.588495
v -0.687020 -2.179657 -0.370254
v -0.689018 -2.179657 0.204465
v -0.461342 -2.456387 -0.464631
v -0.635528 -2.456387 -0.298876
v -0.631300 -2.456387 0.175866
v -0.475391 -1.791249 0.463403
v -0.685642 -1.789039 0.216979
v -0.672803 -1.789039 -0.402675
v -0.472270 -1.870364 -0.656554
v -0.421029 -2.552485 0.410243
v -0.399079 -2.552485 -0.245526
v -0.518001 -2.552485 -0.198603
v -0.510584 -2.552485 0.176352
v -0.495244 -1.270786 0.420644
v -0.495063 -2.456387 0.407885
v -0.525325 -1.789039 0.433231
v -0.525103 -2.179657 0.436908
v -1.321840 1.748154 -1.407518
v -1.287966 1.772534 -1.278409
v -0.917934 1.780154 -1.155873
v -1.200641 1.777769 -1.134641
v -0.933149 1.805182 -1.298115
v -1.138750 1.766918 -1.519412
v -1.020475 1.799948 -1.441882
v -1.101025 1.761390 -1.043979
v -1.359345 1.784375 -1.426401
v -1.355869 1.890283 -1.420940
v -1.217203 1.910953 -1.117994
v -1.109418 1.905056 -1.015196
v -1.314666 1.905110 -1.278453
v -1.151522 1.911225 -1.545823
v -0.905071 1.925998 -1.140079
v -1.016121 1.935707 -1.460905
v -0.918658 1.941549 -1.300446
v -1.318789 1.799573 -1.276626
v -0.890014 1.821558 -1.133994
v -1.217319 1.805655 -1.109571
v -0.906499 1.837509 -1.299524
v -1.146597 1.806179 -1.556419
v -1.007969 1.831427 -1.466579
v -1.102762 1.799755 -1.003976
v -0.588910 3.309673 1.179032
v -0.592147 2.936084 1.424164
v -0.250814 2.931776 1.424753
v -0.658761 3.246372 1.279907
v -0.247571 3.305884 1.178796
v -0.168339 3.240761 1.281927
v -0.660337 3.000149 1.322668
v -0.169896 2.996013 1.322343
v -0.244506 3.031076 2.133760
v -0.304327 2.971060 2.229373
v -0.539502 2.972606 2.227925
v -0.586905 3.032970 2.132219
v -0.550768 2.804852 2.135417
v -0.297971 2.801034 2.135608
v -0.601056 2.868818 2.034001
v -0.237822 2.865386 2.033104
v -0.577196 3.278122 1.742668
v -0.641475 3.338579 1.646887
v -0.251075 3.039390 1.608760
v -0.592407 3.043698 1.608171
v -0.660598 3.107762 1.506674
v -0.259659 3.276120 1.744487
v -0.179164 3.336021 1.648967
v -0.170157 3.103627 1.506350
v 0.930381 -1.071084 -0.410380
v 0.661415 0.939923 -0.475211
v 0.681167 -1.117983 0.535950
v 0.670501 1.004202 0.461797
v 0.000649 1.112347 -0.420452
v -0.020562 -1.157652 0.570318
v -0.009054 1.030447 0.462250
v 0.024092 -1.219104 -0.655551
v 1.006845 -1.050646 -0.084175
v 0.916363 -1.077852 0.282822
v 0.852766 1.006195 0.172634
v 0.848098 0.977920 -0.197948
v -0.012593 1.199042 -0.130567
v -0.013016 1.135704 0.244239
v 0.771595 1.260826 -0.148604
v 0.667150 1.236677 -0.322745
v 0.138889 1.181432 -0.284031
v 0.141184 1.188236 0.288930
v 0.674845 1.281367 0.260470
v 0.059018 1.171864 0.116345
v 0.774638 1.278499 0.082039
v 0.057914 1.177730 -0.084885
v 0.642158 2.230785 -1.382858
v 0.578054 2.117416 -1.381437
v 0.263089 2.112293 -1.421550
v 0.261657 2.485112 -1.453548
v 0.576626 2.489318 -1.413356
v 0.183028 2.371069 -1.453940
v 0.641593 2.377860 -1.395481
v 0.183592 2.223995 -1.441316
v 0.051182 2.254961 -0.207763
v 0.477315 2.269280 -0.175771
v -0.029174 2.362605 -0.183928
v 0.477821 2.634680 -0.090636
v 0.560591 2.525487 -0.107224
v 0.051698 2.615905 -0.115201
v 0.560436 2.380171 -0.140237
v -0.029028 2.497313 -0.152251
v 0.062844 2.351624 -0.276642
v -0.008869 2.380406 -0.167794
v 0.534734 2.476043 -0.033058
v -0.007094 2.416602 -0.036647
v 0.455058 2.398427 -0.280749
v 0.459855 2.495560 0.079601
v 0.067675 2.451222 0.081326
v 0.532802 2.438172 -0.175946
v 0.933351 -0.570529 -0.449435
v 0.733866 -0.624578 0.488073
v 0.016530 -0.476871 -0.568453
v -0.016858 -0.476871 0.568427
v 0.961327 -0.552083 -0.146221
v 0.776184 -0.615558 0.178385
v 1.055699 -0.768783 0.348342
v 0.880874 -0.810720 0.432723
v 1.242744 -0.668673 -0.047503
v 1.204033 -0.713764 0.158807
v 1.025922 -0.530782 -0.198483
v 0.667843 -0.665745 0.286702
v 0.882503 -0.515407 -0.064570
v 0.744686 -0.569990 0.127360
v 0.737044 0.360929 -0.467794
v 0.734746 0.412903 0.529742
v 0.013100 0.489688 -0.522618
v -0.004433 0.452189 0.494568
v 0.912880 0.369909 -0.181665
v 0.904180 0.388995 0.209052
v 0.788142 -0.396294 -0.474493
v 0.655570 -0.427464 0.484616
v 0.016380 -0.306223 -0.559630
v -0.016481 -0.306223 0.559622
v 0.902125 -0.404457 -0.175866
v 0.821373 -0.427456 0.191519
v 1.022156 0.240864 2.254423
v 0.935015 0.184502 2.210446
v 1.158412 0.445687 2.299735
v 1.110503 0.344154 2.289734
v 1.020009 0.559614 2.312762
v 0.796611 0.298429 2.223473
v 0.908298 0.510598 2.308765
v 0.819952 0.407308 2.273455
v 1.236047 0.999975 0.799451
v 1.460959 0.826106 0.806282
v 1.400143 0.665467 0.816780
v 1.071424 0.925674 0.821206
v 0.872863 0.619576 0.744023
v 1.097782 0.447097 0.753715
v 1.256509 0.509808 0.783915
v 0.927975 0.770495 0.787394
v 1.209370 0.738837 0.487089
v 1.076055 0.740395 0.571498
v 1.090889 0.489457 0.920181
v 1.400981 0.632981 0.601546
v 1.355474 0.584218 0.741011
v 0.899543 0.595508 0.803324
v 1.233288 0.529790 0.867214
v 0.953330 0.683514 0.698244
v 0.575640 -1.176001 0.583425
v 0.767844 -1.195950 -0.509068
v 0.851066 -1.175810 -0.243999
v 0.694171 -1.236859 0.248183
v 0.388179 -0.534894 -0.543094
v 0.318096 -0.547548 0.526702
v 0.279508 -0.332761 0.543166
v 0.312630 -0.332732 -0.529304
v 0.015707 0.099864 -0.553093
v -0.008666 0.078105 0.527657
v 0.306086 0.045066 -0.505407
v 0.286094 0.058351 0.539909
v 0.259856 -1.398065 0.505263
v -0.019203 -1.243091 0.553468
v 0.430135 -2.412553 0.459994
v 0.022579 -1.394987 -0.675269
v -0.011168 -2.497054 0.516257
v 0.551732 -1.392058 -0.599385
v 0.744291 -1.292724 -0.266714
v 0.595711 -1.307114 0.240300
v 0.452303 -2.178294 0.488367
v -0.011906 -2.179657 0.550345
v 0.012745 -2.218469 -0.589148
v 0.512771 -2.218469 -0.563427
v 0.707109 -2.179657 -0.331207
v 0.677180 -2.179657 0.241727
v 0.010077 -2.456387 -0.465813
v 0.481460 -2.456387 -0.443791
v 0.648917 -2.456387 -0.268836
v 0.622774 -2.456387 0.204173
v 0.446452 -1.791249 0.491956
v 0.668362 -1.789039 0.267594
v 0.703155 -1.789039 -0.349096
v 0.015070 -1.870364 -0.655173
v 0.512291 -1.870364 -0.626561
v -0.012205 -1.789039 0.553563
v 0.402894 -2.552485 0.428067
v -0.010661 -2.593152 0.492809
v -0.003823 -2.593152 0.176704
v 0.005289 -2.593152 -0.244470
v 0.001137 -2.593152 -0.052535
v 0.409323 -2.552485 -0.228037
v 0.526106 -2.552485 -0.176016
v 0.502480 -2.552485 0.198268
v 0.441503 -1.290699 0.467498
v 0.476960 -2.456387 0.428913
v 0.497101 -1.789039 0.466104
v 0.503101 -2.179657 0.462316
v -0.017824 -1.396821 0.529726
v -0.011300 -2.451859 0.522332
v 1.222563 0.512678 2.083365
v 1.166973 0.389499 2.071208
v 0.788980 0.336203 1.991973
v 1.061098 0.265716 2.028892
v 0.818777 0.465183 2.051699
v 1.056700 0.649208 2.098977
v 0.924651 0.588966 2.094016
v 0.954844 0.199674 1.976362
v 1.254663 0.516683 2.128406
v 1.230162 0.490249 2.228202
v 1.049260 0.219323 2.155371
v 0.931361 0.140907 2.108776
v 1.167425 0.357476 2.202600
v 1.045043 0.642629 2.245625
v 0.746243 0.293287 2.126200
v 0.896972 0.580099 2.228055
v 0.778806 0.441946 2.180826
v 1.191466 0.376707 2.101551
v 0.750849 0.311624 2.022210
v 1.068443 0.232874 2.052380
v 0.786870 0.464650 2.078882
v 1.061934 0.675328 2.146546
v 0.909894 0.608483 2.128053
v 0.943578 0.152979 2.004070
v 0.557762 2.129616 -1.108297
v 0.532630 2.550244 -0.959616
v 0.193728 2.545932 -1.000298
v 0.625765 2.249749 -1.109793
v 0.218864 2.124332 -1.148896
v 0.138973 2.244141 -1.169405
v 0.601548 2.432138 -0.940664
v 0.114766 2.423770 -1.000040
v 0.241282 3.051942 -1.504541
v 0.299405 3.165681 -1.506763
v 0.532680 3.168677 -1.476985
v 0.580908 3.056971 -1.461244
v 0.519015 3.196067 -1.287540
v 0.267931 3.193055 -1.317027
v 0.570176 3.077698 -1.270853
v 0.209570 3.071198 -1.314143
v 0.576208 2.598247 -1.422705
v 0.641175 2.486788 -1.404830
v 0.217370 2.628028 -1.195589
v 0.556272 2.632340 -1.154906
v 0.625190 2.514234 -1.135955
v 0.261239 2.594041 -1.462897
v 0.182609 2.479998 -1.463289
v 0.138408 2.505866 -1.195330
vn -0.4156 0.1348 0.8995
vn 0.0150 -0.6125 0.7903
vn -0.8025 0.4557 -0.3850
vn -0.6875 -0.6773 0.2618
vn -0.8391 -0.0072 0.5439
vn -0.6407 -0.7629 0.0869
vn 0.4395 0.8837 0.1612
vn -0.2535 -0.1910 0.9483
vn -0.5891 -0.8011 -0.1058
vn 0.4203 0.6338 0.6493
vn 0.1436 0.0155 -0.9895
vn -0.2009 -0.3082 0.9298
vn -0.1251 0.9295 0.3471
vn -0.9871 0.1436 0.0708
vn 0.0582 0.0706 0.9958
vn -0.0076 0.9005 0.4349
vn 0.0229 0.8590 -0.5115
vn -0.8644 -0.1619 0.4760
vn 0.8850 0.2846 -0.3684
vn -0.0352 0.5460 -0.8370
vn -0.8595 0.3185 -0.3998
vn 0.9983 0.0483 0.0340
vn -0.9962 0.0787 0.0373
vn 0.8796 -0.1727 0.4433
vn 0.1858 -0.1229 -0.9749
vn -0.9612 -0.2690 0.0618
vn -0.7893 0.4008 -0.4651
vn -0.8324 0.5204 0.1905
vn -0.1182 0.0281 0.9926
vn -0.6370 0.1747 0.7508
vn -0.8331 -0.5401 0.1191
vn -0.3160 -0.1466 -0.9374
vn 0.5446 -0.8213 0.1702
vn 0.3446 -0.9117 0.2238
vn -0.8287 -0.1345 0.5433
vn -0.8309 0.2416 -0.5012
vn -1.0000 0.0059 -0.0037
vn -0.0053 -0.4276 0.9039
vn -0.0184 0.3988 -0.9169
vn -0.1885 0.1990 0.9617
vn -0.9035 -0.0604 0.4242
vn -0.8032 -0.0097 -0.5957
vn -0.9994 -0.0297 -0.0189
vn 0.6501 -0.4606 -0.6043
vn -0.9990 -0.0220 0.0391
vn -0.4722 -0.5807 -0.6632
vn 0.4173 0.6467 0.6385
vn -0.8697 0.3024 0.3902
vn -0.6101 0.5209 0.5970
vn 0.9797 -0.0743 -0.1862
vn 0.9106 -0.2306 -0.3431
vn 0.1190 0.0162 -0.9928
vn -0.4593 0.1616 0.8735
vn -0.4589 0.1940 0.8670
vn -0.0150 0.0516 -0.9986
vn -0.1076 0.1148 -0.9875
vn -0.6311 -0.7639 -0.1346
vn -0.6901 -0.7092 0.1443
vn -0.7037 -0.6627 -0.2561
vn 0.1066 -0.0188 -0.9941
vn -0.3193 0.0838 0.9440
vn -0.2665 0.1367 0.9541
vn 0.1217 0.0782 -0.9895
vn -0.0013 -0.1918 -0.9814
vn -1.0000 0.0088 -0.0035
vn -0.0793 0.1381 -0.9872
vn -0.5463 -0.7853 0.2913
vn -0.0012 -0.4619 -0.8869
vn -0.9787 -0.2050 0.0087
vn -0.6575 -0.3006 -0.6909
vn -0.8033 0.0051 0.5955
vn -0.7880 -0.0224 -0.6153
vn -0.2114 -0.8175 -0.5357
vn -0.7612 -0.5793 0.2915
vn -0.2139 -0.2326 0.9487
vn -0.8083 -0.1475 0.5700
vn -0.7955 0.0187 -0.6057
vn -0.8018 0.0610 0.5944
vn -0.9946 0.1018 -0.0206
vn -0.0705 0.0342 -0.9969
vn -0.0785 -0.9969 0.0016
vn -0.0454 -0.9923 -0.1150
vn -0.0800 -0.9963 0.0306
vn -0.6228 -0.7823 0.0123
vn -0.0010 -0.9159 -0.4014
vn -0.2711 0.0490 0.9613
vn -0.5034 0.0055 0.8640
vn -0.4884 -0.1433 0.8608
vn -0.5023 0.1846 0.8448
vn -0.1923 -0.1313 0.9725
vn 0.0700 -0.0601 0.9957
vn -0.3325 0.9427 -0.0267
vn 0.7799 0.2740 -0.5627
vn 0.5654 -0.7530 0.3366
vn 0.7909 0.3515 0.5009
vn 0.7167 -0.6824 0.1438
vn -0.1839 0.9394 -0.2893
vn -0.0371 -0.6886 0.7242
vn 0.8460 -0.5065 -0.1666
vn 0.9498 -0.1291 -0.2850
vn 0.4023 0.1849 -0.8966
vn -0.0414 0.1096 0.9931
vn -0.1957 0.9670 0.1632
vn 0.9635 0.2657 -0.0324
vn 0.0285 0.7267 0.6863
vn -0.3978 0.8234 0.4048
vn 0.1624 0.8041 -0.5718
vn 0.8535 0.2165 0.4739
vn -0.9244 -0.0577 -0.3770
vn -0.0754 0.0223 -0.9969
vn 0.8343 0.1713 -0.5241
vn -0.9985 -0.0552 0.0039
vn 0.9798 0.1981 -0.0281
vn -0.9031 0.0048 0.4295
vn 0.1290 0.1154 -0.9849
vn 0.8892 0.4009 0.2205
vn 0.7579 0.5924 -0.2731
vn 0.9628 -0.2400 0.1246
vn -0.0194 0.0820 0.9964
vn 0.7276 -0.2596 0.6349
vn 0.8001 -0.5796 0.1543
vn 0.9394 -0.0322 -0.3414
vn 0.4489 -0.8929 0.0353
vn -0.7349 -0.4502 -0.5072
vn 0.8828 0.1006 0.4589
vn 0.8190 0.0997 -0.5651
vn 0.9942 0.1064 0.0169
vn 0.0241 0.1635 0.9862
vn -0.0397 0.1610 -0.9862
vn 0.1118 -0.0560 0.9922
vn 0.8662 -0.0984 0.4900
vn 0.8495 0.0620 -0.5240
vn 0.9996 -0.0137 0.0229
vn -0.5834 0.4496 -0.6764
vn 0.9719 -0.1885 0.1412
vn 0.6598 0.2695 -0.7014
vn -0.6361 -0.1787 0.7506
vn 0.7892 -0.3179 0.5254
vn 0.4744 -0.3752 0.7964
vn -0.9195 0.2813 -0.2744
vn -0.8049 0.3517 -0.4780
vn 0.1650 0.0161 -0.9862
vn 0.1031 0.0584 0.9930
vn 0.3037 0.2084 0.9297
vn 0.1063 0.0514 -0.9930
vn 0.0858 0.1170 -0.9894
vn 0.6581 -0.7377 -0.1506
vn 0.5723 -0.8160 0.0812
vn 0.7433 -0.6430 -0.1845
vn 0.0768 0.0140 -0.9970
vn -0.0430 0.0829 0.9956
vn 0.0562 0.0074 0.9984
vn 0.0777 0.0126 -0.9969
vn 0.0564 -0.1864 -0.9808
vn 0.9982 0.0188 0.0563
vn 0.1804 0.2405 -0.9537
vn 0.4483 -0.8382 0.3106
vn 0.0458 -0.4536 -0.8900
vn 0.9796 -0.1945 0.0512
vn 0.7403 -0.3772 -0.5565
vn 0.7572 0.0053 0.6532
vn 0.8261 -0.0174 -0.5632
vn 0.3112 -0.9024 -0.2979
vn 0.5689 -0.7349 0.3691
vn 0.1864 -0.1522 0.9706
vn 0.7764 -0.1473 0.6127
vn 0.8639 0.0120 -0.5036
vn 0.8270 0.0907 0.5548
vn 0.9463 0.1586 0.2818
vn 0.1416 0.0445 -0.9889
vn 0.0784 -0.9969 0.0049
vn 0.1001 -0.9950 0.0022
vn 0.0982 -0.9952 0.0021
vn 0.6321 -0.7741 0.0349
vn 0.0188 -0.9156 -0.4016
vn 0.0861 -0.1513 0.9847
vn 0.4547 -0.0014 0.8907
vn 0.4481 -0.1492 0.8815
vn 0.4410 0.1795 0.8794
vn 0.1501 -0.1313 0.9799
vn -0.3357 0.0504 0.9406
vn -0.8774 0.4309 -0.2109
vn -0.8336 0.4593 -0.3068
vn -0.7047 -0.6634 0.2517
vn -0.8183 -0.0560 0.5721
vn -0.7383 -0.6717 0.0608
vn 0.4664 0.8531 -0.2338
vn -0.1287 -0.5509 0.8246
vn -0.7288 -0.4633 0.5042
vn -0.9422 -0.1395 -0.3045
vn -0.3896 -0.1398 -0.9103
vn -0.0508 0.0553 0.9972
vn 0.4215 0.8941 0.1516
vn -0.9869 0.1441 0.0725
vn -0.2495 0.5220 0.8156
vn -0.1185 0.9353 0.3335
vn 0.0302 0.8520 -0.5227
vn -0.8647 -0.1617 0.4756
vn 0.9093 0.2653 -0.3206
vn 0.0056 0.5329 -0.8462
vn -0.8587 0.3194 -0.4009
vn 0.9983 0.0520 0.0252
vn -0.9962 0.0791 0.0368
vn 0.9244 -0.1400 0.3549
vn 0.1832 -0.1302 -0.9744
vn -0.9395 0.1853 0.2879
vn -0.9311 0.2264 -0.2860
vn -0.9718 -0.2333 -0.0357
vn -0.1619 0.0036 0.9868
vn -0.8586 0.1501 0.4902
vn -0.8380 0.0229 0.5452
vn -0.4465 -0.2089 -0.8701
vn 0.5210 -0.8063 0.2799
vn -0.0957 -0.7503 0.6541
vn -0.8985 -0.1707 0.4044
vn -0.8438 0.2226 -0.4883
vn -1.0000 0.0073 -0.0047
vn 0.0614 -0.4504 0.8907
vn 0.1831 0.1627 -0.9695
vn -0.2596 0.0503 0.9644
vn -0.9590 0.0151 0.2831
vn -0.8185 -0.0180 -0.5743
vn -0.9972 -0.0591 0.0453
vn 0.7353 -0.3913 -0.5534
vn -0.9926 0.0539 0.1086
vn -0.4106 -0.5874 -0.6974
vn 0.4655 0.6397 0.6117
vn -0.8921 0.2795 0.3550
vn -0.6193 0.5167 0.5912
vn 0.9864 -0.0519 -0.1563
vn 0.8702 -0.2745 -0.4092
vn -0.0051 -0.0674 -0.9977
vn -0.4271 0.2537 0.8679
vn -0.4919 0.2260 0.8408
vn -0.0666 -0.0491 -0.9966
vn -0.0795 0.1306 -0.9882
vn -0.5722 -0.8030 -0.1664
vn -0.5750 -0.8173 0.0376
vn -0.6956 -0.6705 -0.2581
vn 0.1713 -0.0680 -0.9829
vn -0.3235 0.0870 0.9422
vn -0.3233 0.0850 0.9425
vn 0.1708 0.0409 -0.9845
vn 0.0028 -0.1864 -0.9825
vn -0.9992 0.0346 -0.0207
vn -0.0703 0.1117 -0.9913
vn -0.6437 -0.7224 0.2526
vn -0.0022 -0.4602 -0.8878
vn -0.9830 -0.1838 -0.0034
vn -0.7100 -0.3759 -0.5955
vn -0.8172 -0.0114 0.5763
vn -0.7365 -0.1070 -0.6680
vn -0.2966 -0.9027 -0.3117
vn -0.5857 -0.7340 0.3439
vn -0.2282 -0.1522 0.9617
vn -0.8400 -0.2262 0.4932
vn -0.7841 0.0042 -0.6207
vn -0.8855 0.1528 0.4389
vn -0.9930 -0.0401 0.1114
vn 0.0028 -0.0423 -0.9991
vn -0.0800 -0.9968 -0.0017
vn -0.1001 -0.9950 -0.0022
vn -0.0982 -0.9952 -0.0021
vn -0.6359 -0.7718 0.0057
vn -0.0838 -0.8469 -0.5251
vn -0.1630 -0.1520 0.9748
vn -0.5169 0.0078 0.8560
vn -0.4950 -0.1455 0.8567
vn -0.2769 0.0394 0.9601
vn -0.2318 -0.4214 0.8768
vn 0.1552 0.0056 0.9879
vn -0.6557 0.2071 -0.7260
vn 0.7970 0.3063 -0.5205
vn 0.5090 -0.7872 0.3482
vn 0.8096 0.3809 0.4467
vn 0.5672 -0.8110 0.1432
vn 0.2226 0.9689 0.1085
vn 0.1613 -0.1885 0.9687
vn 0.8481 -0.5280 0.0437
vn -0.2683 0.4589 0.8470
vn 0.1639 -0.0777 -0.9834
vn 0.0028 0.0558 0.9984
vn 0.2734 0.9615 0.0265
vn 0.9633 0.2663 -0.0331
vn -0.0594 0.5873 0.8072
vn -0.3406 0.9374 0.0732
vn -0.1124 0.4558 -0.8830
vn 0.8292 0.2232 0.5125
vn -0.8421 -0.0835 -0.5328
vn -0.0111 0.0056 -0.9999
vn 0.7687 0.1414 -0.6238
vn -0.9984 -0.0497 0.0272
vn 0.9797 0.1901 -0.0636
vn -0.8490 0.0372 0.5271
vn 0.1693 -0.0007 -0.9856
vn 0.8629 -0.2384 0.4456
vn 0.9300 0.3515 -0.1072
vn 0.8204 0.3340 0.4641
vn 0.1240 0.0021 0.9923
vn 0.4744 -0.3820 0.7931
vn 0.7637 -0.4437 0.4689
vn 0.6370 0.1812 -0.7493
vn -0.2099 -0.7901 -0.5760
vn -0.3624 -0.7951 -0.4863
vn 0.8357 0.1515 0.5278
vn 0.8484 0.0764 -0.5238
vn 0.9965 0.0819 -0.0188
vn -0.0121 0.1452 0.9893
vn 0.0750 -0.0030 -0.9972
vn 0.0600 0.0513 0.9969
vn 0.8757 -0.1078 0.4707
vn 0.9340 -0.0156 -0.3569
vn 0.9728 -0.1031 0.2074
vn -0.4725 0.4551 -0.7547
vn 0.9480 -0.2156 0.2340
vn 0.6074 0.3077 -0.7324
vn -0.5917 -0.2101 0.7783
vn 0.7444 -0.3436 0.5725
vn 0.4156 -0.3859 0.8236
vn -0.9299 0.2690 -0.2507
vn -0.7428 0.3901 -0.5442
vn 0.1073 0.0646 -0.9921
vn 0.1412 -0.0504 0.9887
vn 0.1077 0.0846 0.9906
vn 0.0831 0.0987 -0.9916
vn 0.1911 0.0593 -0.9798
vn 0.6926 -0.7116 -0.1178
vn 0.5718 -0.8165 0.0804
vn 0.7032 -0.6812 -0.2037
vn 0.1228 0.0648 -0.9903
vn -0.0354 0.0885 0.9954
vn -0.0358 0.0836 0.9959
vn 0.1759 0.0779 -0.9813
vn 0.0505 -0.1782 -0.9827
vn 0.9986 0.0125 0.0522
vn 0.1405 0.1091 -0.9840
vn 0.5105 -0.7604 0.4014
vn 0.0414 -0.4602 -0.8868
vn 0.9784 -0.1997 0.0541
vn 0.6905 -0.2941 -0.6609
vn 0.7848 -0.0233 0.6193
vn 0.7712 -0.1126 -0.6266
vn 0.2363 -0.8142 -0.5304
vn 0.7479 -0.5793 0.3241
vn 0.1727 -0.2326 0.9571
vn 0.8160 -0.2323 0.5294
vn 0.8283 -0.0365 -0.5591
vn 0.7487 0.1494 0.6459
vn 0.9942 -0.0917 0.0561
vn 0.0574 -0.0431 -0.9974
vn 0.0800 -0.9968 0.0017
vn 0.0503 -0.9923 -0.1129
vn 0.0786 -0.9963 0.0341
vn 0.6225 -0.7816 0.0393
vn 0.1064 -0.8469 -0.5210
vn 0.1864 0.0301 0.9820
vn 0.4563 -0.0016 0.8898
vn 0.4465 -0.1487 0.8823
vn 0.1929 0.0188 0.9810
vn 0.1936 -0.4214 0.8860
vn -0.1656 0.0575 0.9845
vn -0.1791 0.0065 0.9838
vn -0.1903 -0.1009 0.9765
vn 0.0879 0.0617 0.9942
vn 0.1324 -0.0072 0.9912
vn 0.1479 -0.1009 0.9838
vn -0.1911 0.0381 0.9808
vn -0.1910 -0.0082 0.9816
vn -0.1781 -0.1238 0.9762
vn 0.1332 0.0297 0.9906
vn 0.1331 -0.0081 0.9911
vn 0.1316 -0.1315 0.9826
vn -0.9927 0.0136 0.1202
vn 0.8214 0.3312 -0.4644
vn 0.0054 0.5663 -0.8241
vn 0.0023 0.8463 0.5327
vn -0.8608 0.3263 -0.3906
vn 0.9993 -0.0003 0.0368
vn -0.9975 0.0626 0.0312
vn -0.0108 -0.9112 -0.4119
vn 0.8552 -0.4332 0.2846
vn -0.9834 -0.1552 -0.0939
vn 0.9744 -0.1951 -0.1112
vn -0.8470 0.0997 -0.5221
vn -0.0122 -0.6574 0.7534
vn 0.8677 0.0402 -0.4954
vn -0.8481 -0.4229 0.3192
vn 0.0009 0.3709 -0.9287
vn 0.6977 -0.5928 -0.4022
vn -0.9114 0.3675 0.1851
vn 0.5375 -0.6422 -0.5464
vn 0.0047 0.9849 0.1728
vn -0.1828 0.9737 -0.1359
vn -0.0906 0.9957 0.0188
vn 0.3555 0.5790 -0.7337
vn -0.6135 0.4221 0.6674
vn -0.7355 -0.6247 0.2625
vn 0.7187 0.5251 -0.4557
vn -0.3294 -0.6817 -0.6533
vn 0.8707 -0.3413 -0.3542
vn 0.8589 -0.5030 0.0958
vn -0.5774 -0.1489 0.8028
vn -0.8501 0.0011 0.5266
vn -0.4132 -0.5400 -0.7332
vn -0.4073 -0.5532 -0.7267
vn -0.9698 -0.1389 0.2005
vn 0.6459 -0.3898 -0.6564
vn 0.8488 0.1000 -0.5192
vn 0.9760 0.1223 -0.1802
vn -0.6731 -0.0004 0.7395
vn -0.8493 -0.0131 0.5277
vn 0.5137 0.0808 0.8541
vn -0.5082 0.0203 -0.8610
vn -0.9849 -0.0235 0.1716
vn 0.5300 0.0831 -0.8439
vn 0.5180 0.0868 -0.8510
vn -0.9655 0.0183 0.2596
vn -0.5250 0.0610 -0.8489
vn 0.5083 0.1229 0.8524
vn -0.8546 0.0423 0.5175
vn -0.6873 0.0587 0.7240
vn 0.9869 0.1373 -0.0850
vn 0.8493 0.0947 -0.5193
vn 0.8242 0.5658 0.0237
vn -0.8130 0.3267 0.4819
vn 0.8530 -0.5046 -0.1336
vn -0.4791 0.5378 -0.6937
vn -0.5279 -0.7203 0.4500
vn 0.3766 0.5891 0.7149
vn -0.5953 -0.7041 0.3872
vn 0.4492 -0.6350 0.6285
vn -0.0078 -0.5026 0.8645
vn 0.8299 -0.2522 0.4976
vn -0.9955 0.0224 0.0925
vn 0.9992 0.0310 0.0267
vn -0.8595 0.3279 -0.3921
vn 0.0065 0.5672 -0.8236
vn 0.8381 0.3185 -0.4428
vn -0.8665 -0.1983 0.4581
vn -0.9196 -0.1403 0.3670
vn 0.8942 -0.1901 0.4053
vn -0.0079 -0.4825 0.8759
vn -0.2821 -0.8854 -0.3694
vn 0.3088 -0.8766 -0.3691
vn 0.9931 -0.0312 0.1135
vn 0.0124 0.8485 0.5290
vn 0.9994 0.0313 -0.0169
vn 0.7983 -0.5194 0.3049
vn -0.8420 -0.4662 0.2714
vn -0.0118 -0.8632 0.5048
vn -0.9975 0.0634 0.0317
vn 0.9929 0.1084 0.0480
vn -0.8185 -0.5643 -0.1079
vn 0.0101 -0.9989 0.0454
vn 0.1272 -0.0843 -0.9883
vn 0.8675 -0.4900 0.0861
vn -0.9887 0.0078 -0.1496
vn 0.9951 0.0572 0.0808
vn -0.1190 0.2199 0.9682
vn -0.8223 0.4015 0.4033
vn 0.9288 -0.3610 0.0831
vn -0.9821 -0.1776 0.0623
vn -0.8195 0.2698 0.5056
vn -0.0831 0.7605 0.6440
vn 0.3576 -0.8174 0.4517
vn 0.7809 0.4408 0.4426
vn -0.0661 0.6225 0.7798
vn -0.5077 0.6338 -0.5836
vn 0.7889 -0.4167 0.4516
vn -0.3225 0.7540 -0.5722
vn -0.2180 -0.3682 0.9038
vn 0.0093 -0.1024 0.9947
vn -0.1061 -0.2392 0.9652
vn -0.3270 0.6929 0.6426
vn 0.4072 -0.8630 0.2991
vn 0.6994 -0.2495 -0.6698
vn -0.7356 0.4588 0.4983
vn 0.5421 0.7100 -0.4495
vn -0.7459 0.3581 -0.5616
vn -0.9201 0.1154 -0.3743
vn -0.3474 0.9052 -0.2447
vn -0.6550 0.6728 -0.3440
vn 0.5596 0.8084 -0.1826
vn 0.6290 0.4650 -0.6229
vn 0.8377 -0.5395 0.0847
vn -0.3590 0.7309 -0.5804
vn -0.7411 0.6653 0.0905
vn -0.9405 0.3395 0.0139
vn 0.3867 -0.9116 -0.1393
vn 0.7361 -0.6767 -0.0120
vn -0.5882 -0.7792 -0.2165
vn 0.5806 0.7623 0.2859
vn 0.9334 -0.3476 0.0889
vn -0.3827 0.9039 0.1912
vn -0.4149 0.8827 0.2206
vn 0.8982 -0.4262 0.1076
vn 0.6166 0.7103 0.3395
vn -0.6362 -0.7545 -0.1612
vn 0.7499 -0.6595 0.0529
vn 0.5476 -0.8361 -0.0325
vn -0.9732 0.2300 -0.0025
vn -0.7708 0.6320 0.0798
vn -0.9127 0.0082 0.4085
vn 0.6598 -0.6763 0.3276
vn -0.5840 0.4483 -0.6767
vn 0.4587 0.4710 0.7535
vn 0.5886 -0.3790 -0.7141
vn -0.5787 -0.7418 0.3389
vn 0.6596 -0.3340 -0.6733
vn -0.4018 -0.3936 -0.8268
vn -0.0390 0.9956 -0.0850
vn -0.7882 0.5906 -0.1732
vn 0.9986 -0.0125 0.0505
vn -0.9845 0.0412 -0.1706
vn 0.7714 -0.6217 0.1356
vn 0.0226 -0.9897 0.1414
vn -0.8066 -0.5873 -0.0670
vn 0.7963 0.6049 -0.0086
vn 0.9174 0.3978 0.0087
vn -0.8843 0.4186 -0.2071
vn 0.0049 0.9897 -0.1427
vn 0.1555 0.2443 0.9571
vn -0.3608 0.2351 0.9025
vn -0.9815 0.0877 -0.1704
vn 0.1202 -0.0810 -0.9894
vn -0.9883 -0.0540 -0.1424
vn -0.8331 0.5387 0.1256
vn 0.7975 0.5156 0.3133
vn -0.0575 0.9228 0.3810
vn 0.9936 -0.0608 0.0947
vn -0.9931 0.0111 0.1172
vn 0.8377 0.3307 -0.4347
vn 0.0057 0.5667 -0.8239
vn -0.8605 0.3267 -0.3908
vn 0.9994 0.0239 0.0233
vn -0.9983 0.0162 0.0567
vn -0.0134 -0.9106 -0.4132
vn 0.8555 -0.4347 0.2813
vn -0.9813 -0.1610 -0.1058
vn 0.9766 -0.1901 -0.1001
vn -0.8486 0.0915 -0.5210
vn -0.0123 -0.6570 0.7538
vn 0.8648 0.0628 -0.4982
vn -0.8500 -0.4283 0.3066
vn 0.0001 0.3737 -0.9276
vn -0.8885 0.4056 0.2147
vn 0.5283 -0.5241 -0.6680
vn 0.3411 0.5368 -0.7717
vn -0.5966 0.3863 0.7034
vn -0.6193 -0.7258 0.2995
vn 0.8275 -0.2876 -0.4822
vn 0.9412 -0.2729 -0.1994
vn 0.6211 -0.3917 -0.6789
vn -0.6708 -0.2440 0.7004
vn 0.4753 0.1882 0.8595
vn -0.4675 -0.6113 -0.6386
vn -0.9338 -0.1550 0.3224
vn 0.6340 -0.4046 -0.6590
vn 0.8408 0.0972 -0.5326
vn 0.9899 0.1124 -0.0861
vn -0.5851 -0.0065 0.8109
vn -0.8544 -0.0149 0.5195
vn 0.5024 0.0824 0.8607
vn -0.5230 0.0224 -0.8520
vn -0.9665 -0.0144 0.2563
vn 0.5647 0.0898 -0.8204
vn 0.5264 0.1097 -0.8431
vn -0.9609 0.0423 0.2735
vn -0.6763 0.0356 0.7357
vn 0.9907 0.1151 -0.0728
vn 0.7959 0.6054 -0.0087
vn 0.7532 -0.6293 -0.1913
vn -0.5520 -0.6136 0.5646
vn -0.0070 -0.5029 0.8643
vn 0.8768 -0.2259 0.4245
vn -0.9963 0.0763 0.0387
vn 0.9985 0.0028 0.0555
vn -0.8605 0.3272 -0.3905
vn 0.0057 0.5675 -0.8234
vn 0.8822 0.2892 -0.3715
vn -0.8669 -0.1980 0.4574
vn -0.9195 -0.1407 0.3672
vn 0.8830 -0.2172 0.4161
vn -0.0086 -0.4831 0.8755
vn -0.3659 -0.8583 -0.3599
vn 0.2370 -0.8963 -0.3749
vn 0.9929 -0.0298 0.1151
vn 0.0093 0.8444 0.5356
vn 0.9994 0.0243 0.0235
vn -0.8420 -0.4662 0.2715
vn -0.9960 0.0761 -0.0459
vn 0.9930 0.1093 0.0441
vn -0.8041 -0.5879 -0.0884
vn 0.0104 -0.9989 0.0458
vn 0.8677 -0.4895 0.0863
vn -0.9869 -0.0176 -0.1606
vn 0.9982 0.0089 0.0593
vn -0.1164 0.2186 0.9688
vn -0.8011 0.4087 0.4373
vn -0.8648 -0.1104 0.4899
vn -0.4974 -0.1981 0.8446
vn -0.5951 0.1963 0.7793
vn -0.0703 0.7760 0.6268
vn 0.6813 0.3685 0.6325
vn 0.7051 0.4514 0.5468
vn -0.0803 0.5848 0.8072
vn -0.5078 0.6338 -0.5835
vn 0.7551 -0.4489 0.4778
vn -0.3194 0.8450 -0.4289
vn -0.3544 0.6503 0.6720
vn 0.4217 -0.8387 0.3445
vn 0.7979 -0.2555 -0.5459
vn -0.5839 0.6467 -0.4907
vn 0.8666 -0.1831 -0.4642
vn -0.3004 0.9051 -0.3009
vn 0.6548 -0.6757 0.3386
vn 0.6064 0.7936 0.0492
vn 0.5105 0.6377 -0.5768
vn 0.9349 -0.3503 0.0565
vn -0.4028 0.7314 -0.5502
vn -0.7714 0.6305 0.0856
vn -0.9712 0.2367 -0.0267
vn 0.5531 -0.8296 -0.0758
vn 0.7612 -0.6485 -0.0077
vn -0.6319 -0.7420 -0.2240
vn 0.6238 0.7241 0.2942
vn 0.9059 -0.4164 0.0768
vn -0.4135 0.8909 0.1880
vn -0.4012 0.8935 0.2017
vn 0.8872 -0.4436 0.1266
vn 0.5554 -0.8315 -0.0060
vn -0.9743 0.2235 -0.0273
vn -0.8883 0.0261 0.4586
vn -0.7129 0.3849 -0.5862
vn 0.5755 -0.5156 -0.6348
vn -0.4018 -0.3937 -0.8268
vn -0.0010 0.9953 -0.0968
vn -0.8253 0.5331 -0.1862
vn 0.9952 0.0799 0.0563
vn -0.9848 0.0290 -0.1715
vn 0.8616 -0.4859 0.1471
vn -0.0023 -0.9890 0.1479
vn -0.8245 -0.5616 -0.0690
vn 0.8646 0.5023 -0.0138
vn 0.9176 0.3974 0.0085
vn -0.8756 0.4437 -0.1907
vn 0.0054 0.9899 -0.1419
vn 0.2423 0.2373 0.9407
vn -0.4294 0.2263 0.8743
vn -0.9811 0.0882 -0.1723
vn 0.1172 -0.0888 -0.9891
vn -0.9868 -0.0176 -0.1611
vn 0.9983 0.0088 0.0584
usemtl color_1
s off
f 94//1 58//1 91//1
f 43//2 49//2 51//2
f 8//3 10//3 2//3
f 88//4 3//4 6//4
f 7//5 13//5 15//5
f 88//6 98//6 99//6
f 179//7 11//7 16//7
f 172//8 115//8 276//8
f 5//9 47//9 1//9
f 3//10 50//10 46//10
f 86//11 41//11 89//11
f 230//12 4//12 54//12
f 180//13 16//13 14//13
f 7//14 9//14 8//14
f 4//15 12//15 13//15
f 180//16 12//16 173//16
f 2//17 11//17 171//17
f 13//18 35//18 15//18
f 16//19 33//19 34//19
f 10//20 33//20 11//20
f 10//21 40//21 37//21
f 14//22 34//22 36//22
f 9//23 35//23 40//23
f 12//24 36//24 39//24
f 89//25 57//25 92//25
f 59//26 44//26 60//26
f 41//27 59//27 57//27
f 60//28 42//28 58//28
f 172//29 90//29 85//29
f 6//30 46//30 45//30
f 6//31 48//31 5//31
f 1//32 49//32 41//32
f 44//33 50//33 42//33
f 43//34 52//34 44//34
f 7//35 54//35 4//35
f 53//36 8//36 2//36
f 55//37 7//37 8//37
f 13//38 39//38 38//38
f 171//39 53//39 2//39
f 216//40 91//40 90//40
f 60//41 54//41 56//41
f 57//42 55//42 53//42
f 59//43 56//43 55//43
f 51//44 77//44 78//44
f 48//45 80//45 47//45
f 49//46 80//46 77//46
f 50//47 79//47 46//47
f 48//48 83//48 81//48
f 45//49 79//49 83//49
f 52//50 82//50 50//50
f 51//51 84//51 52//51
f 235//52 93//52 271//52
f 90//53 58//53 42//53
f 3//54 90//54 42//54
f 215//55 92//55 235//55
f 174//56 89//56 215//56
f 1//57 87//57 5//57
f 5//58 88//58 6//58
f 86//59 98//59 87//59
f 93//60 57//60 53//60
f 94//61 230//61 54//61
f 236//62 94//62 91//62
f 93//63 229//63 271//63
f 110//64 285//64 101//64
f 108//65 102//65 103//65
f 174//66 97//66 86//66
f 85//67 99//67 115//67
f 285//68 104//68 101//68
f 103//69 105//69 106//69
f 102//70 104//70 105//70
f 108//71 118//71 117//71
f 110//72 102//72 109//72
f 105//73 112//73 113//73
f 116//74 114//74 111//74
f 279//75 111//75 300//75
f 103//76 116//76 118//76
f 97//77 109//77 98//77
f 115//78 108//78 117//78
f 99//79 109//79 108//79
f 278//80 110//80 97//80
f 303//81 114//81 113//81
f 112//82 303//82 113//82
f 301//83 111//83 114//83
f 106//84 113//84 114//84
f 289//85 112//85 104//85
f 95//86 276//86 115//86
f 107//87 118//87 100//87
f 96//88 118//88 116//88
f 95//89 117//89 107//89
f 96//90 279//90 312//90
f 274//91 234//91 228//91
f 217//92 223//92 213//92
f 182//93 178//93 168//93
f 266//94 169//94 263//94
f 177//95 185//95 170//95
f 266//96 281//96 265//96
f 179//97 183//97 171//97
f 172//98 307//98 263//98
f 221//99 175//99 167//99
f 169//100 224//100 214//100
f 267//101 167//101 264//101
f 170//102 230//102 228//102
f 186//103 179//103 180//103
f 178//104 187//104 177//104
f 170//105 184//105 173//105
f 184//106 180//106 173//106
f 183//107 168//107 171//107
f 207//108 185//108 187//108
f 188//109 205//109 183//109
f 183//110 209//110 182//110
f 209//111 181//111 182//111
f 186//112 206//112 188//112
f 212//113 187//113 181//113
f 184//114 208//114 186//114
f 233//115 267//115 270//115
f 238//116 217//116 237//116
f 237//117 213//117 233//117
f 238//118 214//118 218//118
f 268//119 172//119 263//119
f 176//120 220//120 169//120
f 222//121 176//121 175//121
f 223//122 167//122 213//122
f 224//123 218//123 214//123
f 218//124 225//124 217//124
f 177//125 228//125 232//125
f 178//126 227//126 168//126
f 178//127 232//127 231//127
f 185//128 211//128 184//128
f 168//129 229//129 171//129
f 269//130 216//130 268//130
f 232//131 234//131 238//131
f 231//132 233//132 227//132
f 232//133 237//133 231//133
f 225//134 255//134 223//134
f 258//135 222//135 221//135
f 223//136 258//136 221//136
f 257//137 224//137 220//137
f 222//138 261//138 219//138
f 219//139 257//139 220//139
f 260//140 226//140 224//140
f 262//141 225//141 226//141
f 273//142 235//142 271//142
f 234//143 268//143 214//143
f 169//144 268//144 263//144
f 270//145 215//145 235//145
f 267//146 174//146 215//146
f 167//147 265//147 264//147
f 175//148 266//148 265//148
f 281//149 264//149 265//149
f 233//150 273//150 227//150
f 230//151 274//151 228//151
f 274//152 236//152 269//152
f 273//153 229//153 227//153
f 297//154 285//154 296//154
f 288//155 295//155 294//155
f 280//156 174//156 264//156
f 307//157 266//157 263//157
f 290//158 285//158 286//158
f 288//159 291//159 287//159
f 287//160 290//160 286//160
f 310//161 294//161 309//161
f 287//162 297//162 295//162
f 291//163 304//163 290//163
f 308//164 306//164 292//164
f 279//165 299//165 308//165
f 308//166 288//166 310//166
f 295//167 280//167 281//167
f 309//168 282//168 307//168
f 294//169 281//169 282//169
f 297//170 278//170 280//170
f 306//171 303//171 305//171
f 304//172 303//172 302//172
f 301//173 299//173 300//173
f 292//174 305//174 291//174
f 304//175 289//175 290//175
f 275//176 276//176 311//176
f 283//177 309//177 293//177
f 277//178 310//178 283//178
f 309//179 275//179 293//179
f 279//180 277//180 312//180
f 94//181 54//181 58//181
f 43//182 41//182 49//182
f 8//183 9//183 10//183
f 88//184 85//184 3//184
f 7//185 4//185 13//185
f 88//186 87//186 98//186
f 179//187 171//187 11//187
f 172//188 85//188 115//188
f 5//189 48//189 47//189
f 3//190 42//190 50//190
f 86//191 1//191 41//191
f 230//192 173//192 4//192
f 180//193 179//193 16//193
f 7//194 15//194 9//194
f 4//195 173//195 12//195
f 180//196 14//196 12//196
f 2//197 10//197 11//197
f 13//198 38//198 35//198
f 16//199 11//199 33//199
f 10//200 37//200 33//200
f 10//201 9//201 40//201
f 14//202 16//202 34//202
f 9//203 15//203 35//203
f 12//204 14//204 36//204
f 89//205 41//205 57//205
f 59//206 43//206 44//206
f 41//207 43//207 59//207
f 60//208 44//208 42//208
f 172//209 216//209 90//209
f 6//210 3//210 46//210
f 6//211 45//211 48//211
f 1//212 47//212 49//212
f 44//213 52//213 50//213
f 43//214 51//214 52//214
f 7//215 56//215 54//215
f 53//216 55//216 8//216
f 55//217 56//217 7//217
f 13//218 12//218 39//218
f 171//219 229//219 53//219
f 216//220 236//220 91//220
f 60//221 58//221 54//221
f 57//222 59//222 55//222
f 59//223 60//223 56//223
f 51//224 49//224 77//224
f 48//225 81//225 80//225
f 49//226 47//226 80//226
f 50//227 82//227 79//227
f 48//228 45//228 83//228
f 45//229 46//229 79//229
f 52//230 84//230 82//230
f 51//231 78//231 84//231
f 235//232 92//232 93//232
f 90//233 91//233 58//233
f 3//234 85//234 90//234
f 215//235 89//235 92//235
f 174//236 86//236 89//236
f 1//237 86//237 87//237
f 5//238 87//238 88//238
f 86//239 97//239 98//239
f 93//240 92//240 57//240
f 94//241 272//241 230//241
f 236//242 272//242 94//242
f 93//243 53//243 229//243
f 110//244 296//244 285//244
f 108//245 109//245 102//245
f 174//246 278//246 97//246
f 85//247 88//247 99//247
f 285//248 289//248 104//248
f 103//249 102//249 105//249
f 102//250 101//250 104//250
f 108//251 103//251 118//251
f 110//252 101//252 102//252
f 105//253 104//253 112//253
f 116//254 106//254 114//254
f 279//255 116//255 111//255
f 103//256 106//256 116//256
f 97//257 110//257 109//257
f 115//258 99//258 108//258
f 99//259 98//259 109//259
f 278//260 296//260 110//260
f 303//261 301//261 114//261
f 112//262 302//262 303//262
f 301//263 300//263 111//263
f 106//264 105//264 113//264
f 289//265 302//265 112//265
f 95//266 311//266 276//266
f 107//267 117//267 118//267
f 96//268 100//268 118//268
f 95//269 115//269 117//269
f 96//270 116//270 279//270
f 274//271 269//271 234//271
f 217//272 225//272 223//272
f 182//273 181//273 178//273
f 266//274 176//274 169//274
f 177//275 187//275 185//275
f 266//276 282//276 281//276
f 179//277 188//277 183//277
f 172//278 276//278 307//278
f 221//279 222//279 175//279
f 169//280 220//280 224//280
f 267//281 213//281 167//281
f 170//282 173//282 230//282
f 186//283 188//283 179//283
f 178//284 181//284 187//284
f 170//285 185//285 184//285
f 184//286 186//286 180//286
f 183//287 182//287 168//287
f 207//288 210//288 185//288
f 188//289 206//289 205//289
f 183//290 205//290 209//290
f 209//291 212//291 181//291
f 186//292 208//292 206//292
f 212//293 207//293 187//293
f 184//294 211//294 208//294
f 233//295 213//295 267//295
f 238//296 218//296 217//296
f 237//297 217//297 213//297
f 238//298 234//298 214//298
f 268//299 216//299 172//299
f 176//300 219//300 220//300
f 222//301 219//301 176//301
f 223//302 221//302 167//302
f 224//303 226//303 218//303
f 218//304 226//304 225//304
f 177//305 170//305 228//305
f 178//306 231//306 227//306
f 178//307 177//307 232//307
f 185//308 210//308 211//308
f 168//309 227//309 229//309
f 269//310 236//310 216//310
f 232//311 228//311 234//311
f 231//312 237//312 233//312
f 232//313 238//313 237//313
f 225//314 256//314 255//314
f 258//315 259//315 222//315
f 223//316 255//316 258//316
f 257//317 260//317 224//317
f 222//318 259//318 261//318
f 219//319 261//319 257//319
f 260//320 262//320 226//320
f 262//321 256//321 225//321
f 273//322 270//322 235//322
f 234//323 269//323 268//323
f 169//324 214//324 268//324
f 270//325 267//325 215//325
f 267//326 264//326 174//326
f 167//327 175//327 265//327
f 175//328 176//328 266//328
f 281//329 280//329 264//329
f 233//330 270//330 273//330
f 230//331 272//331 274//331
f 274//332 272//332 236//332
f 273//333 271//333 229//333
f 297//334 286//334 285//334
f 288//335 287//335 295//335
f 280//336 278//336 174//336
f 307//337 282//337 266//337
f 290//338 289//338 285//338
f 288//339 292//339 291//339
f 287//340 291//340 290//340
f 310//341 288//341 294//341
f 287//342 286//342 297//342
f 291//343 305//343 304//343
f 308//344 299//344 306//344
f 279//345 300//345 299//345
f 308//346 292//346 288//346
f 295//347 297//347 280//347
f 309//348 294//348 282//348
f 294//349 295//349 281//349
f 297//350 296//350 278//350
f 306//351 301//351 303//351
f 304//352 305//352 303//352
f 301//353 306//353 299//353
f 292//354 306//354 305//354
f 304//355 302//355 289//355
f 275//356 307//356 276//356
f 283//357 310//357 309//357
f 277//358 308//358 310//358
f 309//359 307//359 275//359
f 279//360 308//360 277//360
usemtl color_2
f 95//361 298//361 311//361
f 284//362 107//362 100//362
f 284//363 96//363 312//363
f 298//364 275//364 311//364
f 293//365 284//365 283//365
f 277//366 284//366 312//366
f 95//367 107//367 298//367
f 284//368 298//368 107//368
f 284//369 100//369 96//369
f 298//370 293//370 275//370
f 293//371 298//371 284//371
f 277//372 283//372 284//372
usemtl color_3
f 160//373 157//373 154//373
f 148//374 19//374 24//374
f 147//375 18//375 19//375
f 23//376 20//376 22//376
f 17//376 19//376 18//376
f 17//376 22//376 24//376
f 143//377 17//377 18//377
f 148//378 22//378 150//378
f 146//379 23//379 17//379
f 161//380 155//380 162//380
f 39//381 32//381 30//381
f 35//382 31//382 40//382
f 36//383 27//383 32//383
f 37//384 31//384 26//384
f 159//376 154//376 153//376
f 38//385 30//385 28//385
f 33//386 27//386 34//386
f 38//387 29//387 35//387
f 37//388 25//388 33//388
f 123//389 141//389 139//389
f 63//390 131//390 64//390
f 124//391 141//391 125//391
f 61//392 66//392 68//392
f 65//393 64//393 67//393
f 64//394 68//394 67//394
f 65//395 134//395 132//395
f 62//396 129//396 130//396
f 119//397 136//397 127//397
f 67//398 135//398 134//398
f 119//399 140//399 124//399
f 78//400 76//400 84//400
f 84//401 73//401 82//401
f 83//402 74//402 75//402
f 81//403 75//403 71//403
f 79//404 73//404 74//404
f 77//405 70//405 69//405
f 80//406 71//406 70//406
f 78//407 69//407 72//407
f 76//408 125//408 123//408
f 76//409 121//409 73//409
f 75//410 126//410 122//410
f 75//411 120//411 71//411
f 74//412 121//412 126//412
f 70//413 124//413 69//413
f 71//414 119//414 70//414
f 72//415 124//415 125//415
f 141//416 132//416 134//416
f 136//417 128//417 127//417
f 140//418 128//418 132//418
f 137//419 130//419 142//419
f 138//420 131//420 136//420
f 138//421 130//421 129//421
f 139//422 133//422 137//422
f 139//423 134//423 135//423
f 66//424 135//424 68//424
f 61//425 131//425 129//425
f 121//426 139//426 137//426
f 63//427 132//427 128//427
f 126//428 138//428 122//428
f 62//429 133//429 66//429
f 122//430 136//430 120//430
f 126//431 137//431 142//431
f 28//432 145//432 144//432
f 30//433 150//433 145//433
f 31//434 149//434 146//434
f 27//435 150//435 32//435
f 31//436 143//436 26//436
f 26//437 147//437 25//437
f 27//438 147//438 148//438
f 28//439 149//439 29//439
f 157//440 153//440 154//440
f 158//441 152//441 156//441
f 156//442 153//442 155//442
f 162//443 157//443 163//443
f 164//376 151//376 165//376
f 161//444 158//444 156//444
f 165//445 158//445 166//445
f 164//376 153//376 152//376
f 156//446 157//446 155//446
f 20//376 159//376 164//376
f 22//447 166//447 150//447
f 145//448 166//448 161//448
f 20//376 165//376 22//376
f 144//449 163//449 149//449
f 21//376 160//376 159//376
f 144//450 161//450 162//450
f 23//451 163//451 160//451
f 354//452 351//452 357//452
f 342//453 191//453 341//453
f 341//454 190//454 337//454
f 192//455 195//455 194//455
f 191//455 189//455 190//455
f 194//455 189//455 196//455
f 337//456 189//456 340//456
f 194//457 342//457 344//457
f 340//458 195//458 343//458
f 349//459 355//459 356//459
f 202//460 208//460 211//460
f 212//461 201//461 207//461
f 204//462 206//462 208//462
f 198//463 212//463 209//463
f 353//455 348//455 354//455
f 210//464 202//464 211//464
f 199//465 205//465 206//465
f 207//466 200//466 210//466
f 205//467 198//467 209//467
f 333//468 319//468 317//468
f 325//469 241//469 242//469
f 335//470 318//470 319//470
f 244//471 239//471 246//471
f 243//472 242//472 241//472
f 246//473 242//473 245//473
f 243//474 328//474 245//474
f 240//475 323//475 239//475
f 313//476 330//476 314//476
f 328//477 246//477 245//477
f 334//478 313//478 318//478
f 254//479 256//479 262//479
f 260//480 254//480 262//480
f 261//481 252//481 257//481
f 259//482 253//482 261//482
f 252//483 260//483 257//483
f 255//484 248//484 258//484
f 258//485 249//485 259//485
f 256//486 247//486 255//486
f 254//487 319//487 250//487
f 315//488 254//488 251//488
f 253//489 320//489 252//489
f 314//490 253//490 249//490
f 252//491 315//491 251//491
f 318//492 248//492 247//492
f 313//493 249//493 248//493
f 250//494 318//494 247//494
f 335//495 326//495 334//495
f 322//496 330//496 321//496
f 334//497 322//497 321//497
f 324//498 331//498 336//498
f 330//499 323//499 332//499
f 332//500 324//500 336//500
f 327//501 333//501 331//501
f 329//502 335//502 333//502
f 329//503 244//503 246//503
f 239//504 325//504 242//504
f 315//505 333//505 317//505
f 241//506 326//506 243//506
f 332//507 320//507 316//507
f 327//508 240//508 244//508
f 330//509 316//509 314//509
f 320//510 331//510 315//510
f 200//511 339//511 202//511
f 339//512 204//512 202//512
f 203//513 343//513 201//513
f 344//514 199//514 204//514
f 198//515 340//515 203//515
f 341//516 198//516 197//516
f 342//517 197//517 199//517
f 201//518 338//518 200//518
f 351//519 347//519 349//519
f 346//520 352//520 350//520
f 347//521 350//521 349//521
f 351//522 356//522 357//522
f 345//455 358//455 359//455
f 355//523 352//523 360//523
f 352//524 359//524 360//524
f 358//455 347//455 353//455
f 350//525 351//525 352//525
f 192//455 353//455 193//455
f 360//526 194//526 344//526
f 339//527 360//527 344//527
f 359//455 192//455 194//455
f 357//528 338//528 343//528
f 193//455 354//455 195//455
f 338//529 355//529 339//529
f 195//530 357//530 343//530
f 160//531 163//531 157//531
f 148//532 147//532 19//532
f 147//533 143//533 18//533
f 23//376 21//376 20//376
f 17//376 24//376 19//376
f 17//376 23//376 22//376
f 143//534 146//534 17//534
f 148//535 24//535 22//535
f 146//536 149//536 23//536
f 161//537 156//537 155//537
f 39//538 36//538 32//538
f 35//539 29//539 31//539
f 36//540 34//540 27//540
f 37//541 40//541 31//541
f 159//376 160//376 154//376
f 38//542 39//542 30//542
f 33//543 25//543 27//543
f 38//544 28//544 29//544
f 37//545 26//545 25//545
f 123//389 125//389 141//389
f 63//546 128//546 131//546
f 124//547 140//547 141//547
f 61//392 62//392 66//392
f 65//393 63//393 64//393
f 64//394 61//394 68//394
f 65//548 67//548 134//548
f 62//549 61//549 129//549
f 119//550 120//550 136//550
f 67//398 68//398 135//398
f 119//399 127//399 140//399
f 78//551 72//551 76//551
f 84//552 76//552 73//552
f 83//553 79//553 74//553
f 81//554 83//554 75//554
f 79//555 82//555 73//555
f 77//556 80//556 70//556
f 80//557 81//557 71//557
f 78//558 77//558 69//558
f 76//559 72//559 125//559
f 76//560 123//560 121//560
f 75//561 74//561 126//561
f 75//562 122//562 120//562
f 74//563 73//563 121//563
f 70//564 119//564 124//564
f 71//565 120//565 119//565
f 72//566 69//566 124//566
f 141//567 140//567 132//567
f 136//568 131//568 128//568
f 140//418 127//418 128//418
f 137//419 133//419 130//419
f 138//420 129//420 131//420
f 138//569 142//569 130//569
f 139//570 135//570 133//570
f 139//423 141//423 134//423
f 66//571 133//571 135//571
f 61//425 64//425 131//425
f 121//572 123//572 139//572
f 63//427 65//427 132//427
f 126//573 142//573 138//573
f 62//429 130//429 133//429
f 122//430 138//430 136//430
f 126//431 121//431 137//431
f 28//574 30//574 145//574
f 30//575 32//575 150//575
f 31//576 29//576 149//576
f 27//577 148//577 150//577
f 31//578 146//578 143//578
f 26//579 143//579 147//579
f 27//580 25//580 147//580
f 28//581 144//581 149//581
f 157//582 155//582 153//582
f 158//583 151//583 152//583
f 156//584 152//584 153//584
f 162//585 155//585 157//585
f 164//376 152//376 151//376
f 161//586 166//586 158//586
f 165//587 151//587 158//587
f 164//376 159//376 153//376
f 156//588 158//588 157//588
f 20//376 21//376 159//376
f 22//589 165//589 166//589
f 145//448 150//448 166//448
f 20//376 164//376 165//376
f 144//590 162//590 163//590
f 21//376 23//376 160//376
f 144//450 145//450 161//450
f 23//591 149//591 163//591
f 354//592 348//592 351//592
f 342//593 196//593 191//593
f 341//594 191//594 190//594
f 192//455 193//455 195//455
f 191//455 196//455 189//455
f 194//455 195//455 189//455
f 337//595 190//595 189//595
f 194//596 196//596 342//596
f 340//597 189//597 195//597
f 349//598 350//598 355//598
f 202//599 204//599 208//599
f 212//600 203//600 201//600
f 204//601 199//601 206//601
f 198//602 203//602 212//602
f 353//455 347//455 348//455
f 210//603 200//603 202//603
f 199//604 197//604 205//604
f 207//605 201//605 200//605
f 205//606 197//606 198//606
f 333//607 335//607 319//607
f 325//608 322//608 241//608
f 335//609 334//609 318//609
f 244//471 240//471 239//471
f 243//472 245//472 242//472
f 246//473 239//473 242//473
f 243//610 326//610 328//610
f 240//611 324//611 323//611
f 313//612 321//612 330//612
f 328//477 329//477 246//477
f 334//478 321//478 313//478
f 254//613 250//613 256//613
f 260//614 251//614 254//614
f 261//615 253//615 252//615
f 259//616 249//616 253//616
f 252//617 251//617 260//617
f 255//618 247//618 248//618
f 258//619 248//619 249//619
f 256//620 250//620 247//620
f 254//621 317//621 319//621
f 315//622 317//622 254//622
f 253//623 316//623 320//623
f 314//624 316//624 253//624
f 252//625 320//625 315//625
f 318//626 313//626 248//626
f 313//627 314//627 249//627
f 250//628 319//628 318//628
f 335//629 328//629 326//629
f 322//630 325//630 330//630
f 334//497 326//497 322//497
f 324//498 327//498 331//498
f 330//499 325//499 323//499
f 332//631 323//631 324//631
f 327//632 329//632 333//632
f 329//502 328//502 335//502
f 329//633 327//633 244//633
f 239//504 323//504 325//504
f 315//634 331//634 333//634
f 241//506 322//506 326//506
f 332//635 336//635 320//635
f 327//508 324//508 240//508
f 330//509 332//509 316//509
f 320//636 336//636 331//636
f 200//637 338//637 339//637
f 339//638 344//638 204//638
f 203//639 340//639 343//639
f 344//640 342//640 199//640
f 198//641 337//641 340//641
f 341//642 337//642 198//642
f 342//643 341//643 197//643
f 201//644 343//644 338//644
f 351//645 348//645 347//645
f 346//646 345//646 352//646
f 347//647 346//647 350//647
f 351//648 349//648 356//648
f 345//455 346//455 358//455
f 355//649 350//649 352//649
f 352//650 345//650 359//650
f 358//455 346//455 347//455
f 350//651 349//651 351//651
f 192//455 358//455 353//455
f 360//652 359//652 194//652
f 339//527 355//527 360//527
f 359//455 358//455 192//455
f 357//528 356//528 338//528
f 193//455 353//455 354//455
f 338//529 356//529 355//529
f 195//653 354//653 357//653
