# Blender v2.83.5 OBJ File: 'bio.blend'
# www.blender.org
mtllib bio_000009.mtl
o Cube
v -0.931979 -1.126922 -0.402480
v -0.683575 0.700489 -0.437206
v -0.674272 -1.151905 0.546047
v -0.659994 1.119027 0.389209
v -1.004752 -1.100831 -0.082315
v -0.913300 -1.111205 0.284903
v -0.854163 1.003213 0.131492
v -0.861568 0.821672 -0.191652
v -0.806035 1.100663 -0.272887
v -0.706765 1.010217 -0.427106
v -0.169479 1.029449 -0.342177
v -0.152733 1.209492 0.141762
v -0.695586 1.299552 0.081193
v -0.076271 1.122029 0.010356
v -0.801614 1.215086 -0.071871
v -0.081613 1.078841 -0.159477
v -0.639381 3.038042 -1.853847
v -0.577202 2.952065 -1.929396
v -0.259885 2.951222 -1.941516
v -0.250466 3.236030 -1.698990
v -0.567807 3.236172 -1.687467
v -0.173662 3.149680 -1.775383
v -0.635665 3.150397 -1.758172
v -0.177377 3.037325 -1.871058
v -0.181658 2.102048 -1.009524
v -0.609844 2.113320 -1.004359
v -0.096813 2.204957 -0.905066
v -0.598626 2.444597 -0.669754
v -0.685455 2.344659 -0.768124
v -0.170430 2.432552 -0.672588
v -0.689902 2.213427 -0.900326
v -0.092672 2.327024 -0.781701
v -0.197245 2.067677 -0.951485
v -0.120850 2.142024 -0.837254
v -0.662837 2.255069 -0.698812
v -0.117639 2.228533 -0.703513
v -0.592195 2.088002 -0.953729
v -0.583434 2.323463 -0.588379
v -0.188461 2.304390 -0.585925
v -0.666293 2.162099 -0.843364
v -0.935422 -0.639391 -0.428623
v -0.726845 -0.639205 0.507556
v -0.971585 -0.614945 -0.169289
v -0.784534 -0.641410 0.152034
v -1.058767 -0.778965 0.328131
v -0.881183 -0.799080 0.414712
v -1.255050 -0.747940 -0.075144
v -1.212043 -0.761455 0.134814
v -1.046898 -0.617504 -0.244322
v -0.677722 -0.664278 0.249410
v -0.904220 -0.576660 -0.116638
v -0.761594 -0.595813 0.079410
v -0.726255 0.207458 -0.262662
v -0.688112 0.543780 0.647655
v -0.889723 0.286450 0.011004
v -0.868780 0.431321 0.364172
v -0.786639 -0.461241 -0.409350
v -0.637793 -0.429720 0.536573
v -0.896532 -0.455172 -0.121395
v -0.812104 -0.444115 0.241273
v -1.078020 0.509995 2.059079
v -0.987570 0.453564 2.022492
v -1.227729 0.709723 2.075438
v -1.172995 0.611297 2.080017
v -1.097436 0.833330 2.068416
v -0.857276 0.577171 2.015470
v -0.982639 0.791884 2.069759
v -0.887664 0.690582 2.048821
v -1.356513 1.022377 0.510257
v -1.568786 0.836901 0.547639
v -1.496912 0.684201 0.581186
v -1.186963 0.963491 0.539874
v -0.968373 0.663255 0.506178
v -1.180725 0.479586 0.546176
v -1.343141 0.535355 0.569545
v -1.033418 0.814963 0.527227
v -1.314489 0.718936 0.240640
v -1.180891 0.742339 0.321281
v -1.175349 0.547285 0.704256
v -1.497329 0.619210 0.373469
v -1.447372 0.595524 0.517829
v -0.992808 0.646818 0.569030
v -1.320644 0.569380 0.648490
v -1.053450 0.713893 0.452841
v -0.564106 -1.213261 0.596871
v -0.774550 -1.247035 -0.494757
v -0.850219 -1.225477 -0.235845
v -0.690374 -1.277219 0.256182
v -0.410387 -0.585065 -0.524724
v -0.291466 -0.584367 0.547967
v -0.246860 -0.352063 0.582202
v -0.335440 -0.378981 -0.500764
v -0.320238 -0.015146 -0.421463
v -0.247065 0.073209 0.599475
v -0.235555 -1.441446 0.517192
v -0.401675 -2.455934 0.485045
v -0.572205 -1.438809 -0.578189
v -0.746055 -1.339983 -0.253606
v -0.590844 -1.348665 0.251158
v -0.422967 -2.221675 0.514014
v -0.544387 -2.261850 -0.533001
v -0.724497 -2.223038 -0.291406
v -0.662561 -2.223038 0.279462
v -0.507153 -2.499768 -0.414193
v -0.663647 -2.499768 -0.230142
v -0.609525 -2.499768 0.240884
v -0.419363 -1.834630 0.515348
v -0.654506 -1.832420 0.300236
v -0.719187 -1.832420 -0.315175
v -0.545232 -1.913745 -0.598256
v -0.376405 -2.595866 0.451536
v -0.422304 -2.595866 -0.202993
v -0.535744 -2.595866 -0.144038
v -0.489639 -2.595866 0.228145
v -0.424511 -1.332314 0.484189
v -0.450286 -2.499768 0.456838
v -0.471758 -1.832420 0.491868
v -0.475420 -2.223038 0.490779
v -1.298232 0.738497 1.852681
v -1.234356 0.618915 1.858263
v -0.854281 0.579648 1.780817
v -1.120538 0.497514 1.833170
v -0.892416 0.713930 1.820876
v -1.142088 0.886628 1.844267
v -1.006234 0.835331 1.845969
v -1.010426 0.431517 1.789231
v -1.330141 0.747157 1.897200
v -1.303007 0.737946 1.999363
v -1.104424 0.471839 1.964968
v -0.981788 0.395327 1.928546
v -1.231455 0.607334 1.992973
v -1.128736 0.903274 1.989972
v -0.807517 0.560655 1.919155
v -0.976848 0.848874 1.979252
v -0.849817 0.713379 1.951246
v -1.257643 0.609283 1.890654
v -0.814280 0.562578 1.813694
v -1.125389 0.468218 1.861498
v -0.860315 0.719688 1.847213
v -1.148705 0.919282 1.887422
v -0.992569 0.860753 1.876370
v -0.995716 0.390453 1.823472
v -0.584557 2.766180 -1.728000
v -0.569275 2.955157 -1.323380
v -0.228079 2.953343 -1.333830
v -0.650522 2.857287 -1.647941
v -0.243386 2.763625 -1.739082
v -0.160308 2.855925 -1.663360
v -0.641259 2.864264 -1.398300
v -0.151114 2.860795 -1.415514
v -0.217806 3.669226 -1.330765
v -0.273950 3.755544 -1.255142
v -0.508984 3.755559 -1.246685
v -0.559978 3.669758 -1.318018
v -0.514252 3.639985 -1.093578
v -0.261532 3.638309 -1.100733
v -0.568345 3.549065 -1.169165
v -0.205322 3.545792 -1.181644
v -0.565055 3.319386 -1.616607
v -0.632914 3.233611 -1.687312
v -0.230748 3.150894 -1.413873
v -0.571945 3.152707 -1.403423
v -0.643928 3.061815 -1.478343
v -0.247715 3.319244 -1.628130
v -0.170910 3.232894 -1.704523
v -0.153783 3.058345 -1.495557
v 0.825843 -1.152490 -0.561682
v 0.656388 1.242407 -0.226446
v 0.785258 -1.086188 0.394455
v 0.684403 0.527202 0.322148
v -0.025955 1.046489 -0.381883
v 0.049818 -1.201033 0.568770
v 0.024140 0.975018 0.405203
v -0.057440 -1.262485 -0.653784
v 0.964380 -1.091912 -0.288468
v 0.959442 -1.031633 0.063676
v 0.861252 0.739061 0.163664
v 0.851908 1.048648 -0.039069
v -0.008458 1.098367 -0.110783
v 0.004987 1.044572 0.190316
v 0.795520 1.142157 0.241204
v 0.688619 1.287086 0.144327
v 0.147722 1.209666 -0.003383
v 0.165060 0.844113 0.383533
v 0.702878 0.793791 0.458435
v 0.077615 0.981721 0.233573
v 0.801159 0.947075 0.365424
v 0.071656 1.092347 0.101823
v 0.637836 2.998894 1.550512
v 0.571537 3.027051 1.441985
v 0.254331 3.040415 1.448316
v 0.258662 2.956042 1.812849
v 0.575858 2.942886 1.805622
v 0.177728 2.984915 1.704187
v 0.639544 2.965610 1.694318
v 0.176019 3.018199 1.560381
v 0.149624 1.836997 1.153677
v 0.577817 1.836438 1.151768
v 0.070696 1.779380 1.282717
v 0.584960 1.656947 1.563999
v 0.666220 1.708467 1.437560
v 0.156831 1.652981 1.564424
v 0.663416 1.779064 1.274135
v 0.073315 1.713085 1.434661
v 0.164535 1.821727 1.174002
v 0.094073 1.719189 1.259663
v 0.642763 1.617810 1.376413
v 0.097692 1.600195 1.357324
v 0.559179 1.840952 1.188712
v 0.569050 1.514914 1.454365
v 0.174420 1.496727 1.441335
v 0.638844 1.746975 1.271626
v 0.814729 -0.723703 -0.638446
v 0.815464 -0.603153 0.252345
v -0.048120 -0.520252 -0.566800
v 0.048246 -0.520252 0.566783
v 0.884490 -0.788948 -0.444289
v 0.774163 -0.677770 -0.135158
v 1.072338 -0.618635 -0.127191
v 0.923557 -0.571965 -0.004755
v 1.176155 -0.910528 -0.438833
v 1.178084 -0.762029 -0.295698
v 0.924227 -0.938978 -0.553387
v 0.676175 -0.610551 -0.116779
v 0.804520 -0.828089 -0.465085
v 0.710661 -0.693544 -0.290461
v 0.686737 0.780230 -0.658592
v 0.736435 0.207455 0.024424
v -0.035959 0.462333 -0.499825
v 0.037073 0.430239 0.471423
v 0.871878 0.589810 -0.490900
v 0.883361 0.347185 -0.238111
v 0.679981 -0.430209 -0.663585
v 0.723618 -0.442235 0.237603
v -0.047415 -0.349604 -0.558006
v 0.047454 -0.349604 0.558000
v 0.833345 -0.477132 -0.465360
v 0.825892 -0.464270 -0.128693
v 1.167722 1.646330 -0.320302
v 1.085693 1.592751 -0.264580
v 1.272693 1.749577 -0.522520
v 1.241674 1.708349 -0.422308
v 1.120649 1.813694 -0.593765
v 0.933649 1.656869 -0.335825
v 1.019541 1.802024 -0.526396
v 0.945588 1.740004 -0.424389
v 1.026466 0.545397 -1.547700
v 1.275783 0.469492 -1.431573
v 1.245191 0.425869 -1.265551
v 0.881906 0.551477 -1.435344
v 0.728268 0.384142 -1.134130
v 0.977781 0.311215 -1.018173
v 1.126520 0.350732 -1.101431
v 0.763194 0.475693 -1.272003
v 0.997468 0.169624 -1.427072
v 0.879903 0.255255 -1.364364
v 0.987750 0.458988 -0.996734
v 1.218800 0.214171 -1.325544
v 1.203351 0.321775 -1.213828
v 0.766290 0.412432 -1.099328
v 1.112049 0.419600 -1.085793
v 0.788568 0.352666 -1.233948
v 0.683263 -1.167254 0.476024
v 0.658368 -1.257067 -0.616557
v 0.783156 -1.221628 -0.388305
v 0.736439 -1.238540 0.112752
v 0.313795 -0.610944 -0.555501
v 0.389175 -0.572463 0.488481
v 0.337389 -0.369552 0.429410
v 0.242840 -0.359718 -0.575672
v -0.038972 0.079568 -0.534011
v 0.042620 0.045233 0.520305
v 0.245052 0.149626 -0.619874
v 0.326378 -0.000549 0.335704
v 0.322994 -1.441446 0.467236
v 0.048056 -1.286472 0.551945
v 0.475346 -2.455934 0.413107
v -0.058302 -1.438368 -0.673387
v 0.042214 -2.540435 0.514650
v 0.456075 -1.439374 -0.659162
v 0.680340 -1.331472 -0.382759
v 0.636033 -1.321065 0.133087
v 0.501822 -2.221675 0.437273
v 0.045002 -2.223038 0.548631
v -0.048174 -2.261850 -0.587313
v 0.448448 -2.261850 -0.615778
v 0.665142 -2.223038 -0.408797
v 0.699813 -2.223038 0.164739
v -0.038089 -2.499768 -0.464363
v 0.432687 -2.499768 -0.491453
v 0.616773 -2.499768 -0.336032
v 0.640706 -2.499768 0.137879
v 0.500599 -1.834630 0.436546
v 0.696541 -1.832420 0.181186
v 0.652007 -1.832420 -0.436768
v -0.053920 -1.913745 -0.653158
v 0.435469 -1.913745 -0.682004
v 0.045353 -1.832420 0.551846
v 0.444953 -2.595866 0.384164
v 0.040297 -2.636533 0.491274
v 0.014449 -2.636533 0.176154
v -0.019990 -2.636533 -0.243709
v -0.004296 -2.636533 -0.052372
v 0.383581 -2.595866 -0.269096
v 0.505112 -2.595866 -0.229415
v 0.520271 -2.595866 0.145307
v 0.512352 -1.314472 0.401671
v 0.518711 -2.499768 0.377356
v 0.548583 -1.832420 0.404006
v 0.549904 -2.223038 0.405450
v 0.045779 -1.440202 0.528252
v 0.042711 -2.495240 0.520706
v 1.290902 1.566357 -0.669210
v 1.255733 1.516105 -0.548177
v 0.884591 1.455256 -0.445475
v 1.167108 1.441781 -0.425932
v 0.900904 1.554040 -0.550671
v 1.108693 1.643195 -0.754591
v 0.989528 1.628365 -0.672916
v 1.066801 1.378417 -0.360094
v 1.328341 1.607025 -0.664790
v 1.324142 1.692684 -0.602313
v 1.182675 1.544161 -0.338952
v 1.074024 1.482925 -0.257311
v 1.281588 1.627113 -0.475389
v 1.120779 1.778443 -0.697606
v 0.870661 1.568684 -0.352603
v 0.984479 1.752406 -0.614609
v 0.885566 1.669453 -0.478172
v 1.286366 1.537777 -0.531557
v 0.856215 1.477928 -0.404815
v 1.183386 1.451414 -0.389511
v 0.874062 1.581857 -0.534454
v 1.116617 1.696310 -0.764000
v 0.977042 1.668220 -0.676501
v 1.067940 1.388643 -0.305604
v 0.573492 2.762695 1.369340
v 0.569762 2.490384 1.723588
v 0.228676 2.502044 1.730776
v 0.643822 2.732855 1.484340
v 0.232394 2.774575 1.375579
v 0.153810 2.750539 1.495585
v 0.637325 2.514460 1.605642
v 0.147281 2.532768 1.614189
v 0.246924 2.828468 2.367737
v 0.307207 2.800459 2.476840
v 0.542128 2.790742 2.471372
v 0.588958 2.814170 2.360428
v 0.544315 2.601606 2.438995
v 0.291669 2.609569 2.444293
v 0.593995 2.626429 2.321431
v 0.231021 2.639426 2.327263
v 0.577123 2.918235 1.912131
v 0.640810 2.940958 1.800826
v 0.238407 2.663902 1.869149
v 0.579494 2.652242 1.861961
v 0.647056 2.676318 1.744015
v 0.259928 2.931391 1.919357
v 0.178993 2.960263 1.810695
v 0.157012 2.694626 1.752562
vn -0.1079 -0.0404 0.9933
vn 0.6838 -0.2720 -0.6771
vn -0.8188 -0.0426 -0.5725
vn -0.5264 -0.7694 0.3619
vn -0.8197 0.4892 0.2979
vn -0.5701 -0.8056 0.1614
vn -0.1420 0.9739 -0.1772
vn -0.1213 -0.1894 0.9744
vn -0.8092 -0.5712 -0.1374
vn -0.5233 0.0103 0.8521
vn -0.1855 0.0576 -0.9809
vn 0.0642 0.4064 0.9115
vn 0.5219 0.8435 0.1274
vn -0.9819 0.1731 -0.0769
vn 0.0880 0.8638 0.4961
vn 0.6874 0.7067 0.1675
vn -0.2748 0.6374 -0.7198
vn -0.8492 0.3511 0.3945
vn 0.9023 -0.2076 -0.3778
vn 0.1528 -0.4972 -0.8541
vn -0.8680 -0.1405 -0.4763
vn 0.9993 0.0147 -0.0352
vn -0.9932 0.1091 -0.0403
vn 0.8918 0.2702 0.3628
vn -0.2287 0.1941 -0.9540
vn -0.9451 -0.2348 0.2272
vn -0.8163 0.4799 -0.3216
vn -0.8309 0.2872 0.4765
vn 0.0445 0.0583 0.9973
vn -0.4451 -0.3044 0.8422
vn -0.7847 -0.5936 0.1787
vn -0.8569 -0.0336 -0.5143
vn -0.2495 -0.9673 0.0465
vn 0.4181 -0.8229 -0.3846
vn -0.8236 0.2654 0.5012
vn -0.8311 -0.1203 -0.5430
vn -0.9996 0.0284 0.0070
vn 0.0211 0.5456 0.8378
vn -0.0219 0.1982 -0.9799
vn -0.0283 -0.1404 0.9897
vn -0.8188 -0.1067 0.5641
vn -0.8406 0.1027 -0.5318
vn -0.9929 -0.0770 0.0905
vn 0.4336 0.3645 -0.8241
vn -0.9564 -0.2289 0.1812
vn -0.6331 0.1489 -0.7596
vn 0.6404 -0.0252 0.7677
vn -0.7138 -0.3021 0.6318
vn -0.3809 -0.2831 0.8802
vn 0.8987 0.2951 -0.3245
vn 0.7793 0.3262 -0.5351
vn -0.3879 0.0591 -0.9198
vn -0.0790 -0.1038 0.9915
vn -0.1003 0.0643 0.9929
vn -0.1997 0.0513 -0.9785
vn -0.1352 0.1170 -0.9839
vn -0.6807 -0.7263 -0.0955
vn -0.5826 -0.8035 0.1224
vn -0.7423 -0.6500 -0.1628
vn -0.2433 0.2287 -0.9426
vn 0.2545 0.1406 0.9568
vn 0.2599 -0.0391 0.9648
vn -0.3947 0.0848 -0.9149
vn -0.1070 -0.1834 -0.9772
vn -0.9941 0.0148 0.1078
vn -0.2082 0.1971 -0.9580
vn -0.4209 -0.8331 0.3589
vn -0.0968 -0.4567 -0.8843
vn -0.9730 -0.2021 0.1118
vn -0.7275 -0.2969 -0.6186
vn -0.7237 0.0049 0.6901
vn -0.8544 -0.0200 -0.5193
vn -0.2669 -0.8154 -0.5136
vn -0.7271 -0.5793 0.3685
vn -0.1148 -0.2326 0.9658
vn -0.7404 -0.1477 0.6557
vn -0.8800 0.0113 -0.4748
vn -0.8138 0.0857 0.5748
vn -0.9437 0.1539 0.2928
vn -0.1821 0.0312 -0.9828
vn -0.0779 -0.9969 0.0097
vn -0.0570 -0.9923 -0.1097
vn -0.0764 -0.9963 0.0387
vn -0.6186 -0.7819 0.0766
vn -0.0427 -0.9157 -0.3995
vn -0.1461 0.0458 0.9882
vn -0.4050 0.0012 0.9143
vn -0.3939 -0.1471 0.9073
vn -0.3958 0.1808 0.9003
vn -0.0908 -0.1313 0.9872
vn 0.4957 0.2619 0.8280
vn 0.9032 0.3819 -0.1962
vn 0.7622 0.6315 -0.1424
vn 0.7127 -0.6612 0.2341
vn 0.8127 -0.3089 0.4940
vn 0.7305 -0.6815 0.0451
vn -0.5152 0.8473 -0.1289
vn 0.1483 -0.5776 0.8027
vn 0.5931 -0.7955 -0.1243
vn 0.9247 -0.1595 -0.3457
vn -0.1618 0.0069 -0.9868
vn 0.2627 -0.6343 0.7271
vn -0.4057 0.8964 0.1783
vn 0.9795 0.1302 0.1536
vn -0.0497 0.1108 -0.9926
vn 0.5665 0.7975 0.2076
vn -0.1962 0.9300 -0.3109
vn 0.8691 -0.3384 0.3607
vn -0.8938 0.4030 -0.1968
vn -0.0010 0.8873 -0.4612
vn 0.8434 0.5109 -0.1664
vn -0.9994 -0.0187 0.0295
vn 0.9911 0.0907 0.0975
vn -0.9125 -0.3513 0.2097
vn -0.2167 -0.1388 -0.9663
vn 0.9456 0.1737 0.2750
vn 0.7853 0.3149 -0.5330
vn 0.9706 -0.2334 -0.0585
vn 0.1421 0.0496 0.9886
vn 0.8666 0.1390 0.4793
vn 0.8358 -0.5391 0.1040
vn 0.4039 -0.1511 -0.9022
vn -0.5248 -0.8237 0.2146
vn -0.3114 -0.9242 0.2212
vn 0.8917 -0.2985 0.3402
vn 0.8094 0.4285 -0.4015
vn 0.9993 0.0355 0.0081
vn -0.1511 -0.8407 0.5200
vn -0.2912 0.1941 -0.9368
vn 0.2590 0.3303 0.9076
vn 0.8716 0.0044 0.4901
vn 0.6709 -0.0007 -0.7415
vn 0.9959 -0.0379 -0.0816
vn -0.7503 -0.3779 -0.5425
vn 0.9995 -0.0267 0.0142
vn 0.3908 -0.5790 -0.7156
vn -0.3954 0.6495 0.6494
vn 0.9022 0.2734 0.3335
vn 0.6353 0.5145 0.5759
vn -0.9843 -0.0692 -0.1624
vn -0.9199 -0.2227 -0.3229
vn -0.0587 0.0569 -0.9967
vn 0.4737 0.3446 0.8104
vn 0.4926 0.2259 0.8404
vn -0.0589 0.0516 -0.9969
vn 0.0599 0.1154 -0.9915
vn 0.5631 -0.8059 -0.1827
vn 0.5724 -0.8195 0.0257
vn 0.6946 -0.6641 -0.2766
vn -0.0939 0.0046 -0.9956
vn 0.5614 0.1190 0.8190
vn 0.4075 0.2362 0.8821
vn -0.2661 0.1277 -0.9555
vn -0.0578 -0.1865 -0.9808
vn 0.9970 0.0284 -0.0719
vn 0.0498 0.1745 -0.9834
vn 0.6451 -0.7264 0.2370
vn -0.0508 -0.4599 -0.8865
vn 0.9806 -0.1870 -0.0593
vn 0.6742 -0.3766 -0.6353
vn 0.8331 0.0049 0.5532
vn 0.7530 -0.0218 -0.6577
vn 0.2776 -0.9027 -0.3288
vn 0.6049 -0.7343 0.3082
vn 0.2856 -0.1522 0.9462
vn 0.8395 -0.1477 0.5228
vn 0.7715 0.0249 -0.6357
vn 0.9070 0.0653 0.4161
vn 0.9888 0.1248 0.0824
vn 0.0277 0.0469 -0.9985
vn 0.0785 -0.9969 -0.0032
vn 0.0997 -0.9950 -0.0082
vn 0.0979 -0.9952 -0.0080
vn 0.6342 -0.7725 -0.0320
vn -0.0231 -0.9158 -0.4009
vn 0.2118 -0.1519 0.9654
vn 0.5520 0.0033 0.8339
vn 0.5431 -0.1467 0.8268
vn 0.5460 0.1828 0.8176
vn 0.2505 -0.1313 0.9592
vn -0.0131 -0.1140 0.9934
vn 0.0524 0.9949 -0.0865
vn -0.8386 0.0083 -0.5447
vn -0.5741 -0.7395 0.3516
vn -0.7889 0.4860 0.3760
vn -0.7174 -0.6777 0.1618
vn -0.1655 0.9692 -0.1824
vn 0.0475 -0.6567 0.7527
vn -0.8077 -0.5755 0.1284
vn -0.6468 0.7374 -0.1947
vn -0.5327 -0.0491 -0.8449
vn 0.2525 0.1227 0.9598
vn -0.0963 0.9654 -0.2425
vn -0.9822 0.1723 -0.0743
vn 0.1516 0.7867 0.5984
vn 0.7272 0.6856 -0.0332
vn 0.1545 0.0438 -0.9870
vn -0.8497 0.3506 0.3938
vn 0.8715 -0.2307 -0.4327
vn -0.0174 -0.4375 -0.8991
vn -0.8638 -0.1455 -0.4823
vn 0.9993 0.0153 -0.0339
vn -0.9934 0.1058 -0.0443
vn 0.8998 0.2598 0.3506
vn -0.2003 0.2692 -0.9420
vn -0.8304 0.2393 0.5031
vn -0.7482 0.6427 -0.1649
vn -0.9656 -0.2064 0.1580
vn -0.0558 0.0028 0.9984
vn -0.7386 -0.1927 0.6460
vn -0.7372 -0.3942 0.5488
vn -0.6594 0.0832 -0.7472
vn 0.2378 -0.8547 -0.4615
vn 0.6791 -0.5850 -0.4435
vn -0.8601 0.2110 0.4645
vn -0.8673 -0.1357 -0.4789
vn -0.9974 0.0648 0.0326
vn -0.0011 0.5535 0.8329
vn -0.2041 -0.3110 -0.9283
vn 0.0814 0.0516 0.9953
vn -0.8515 -0.1266 0.5088
vn -0.9210 0.1610 -0.3549
vn -0.9733 -0.0317 0.2275
vn 0.5542 0.3798 -0.7407
vn -0.9288 -0.2406 0.2819
vn -0.6707 0.1213 -0.7317
vn 0.6107 -0.0460 0.7905
vn -0.7633 -0.2859 0.5793
vn -0.4461 -0.2803 0.8500
vn 0.9069 0.2894 -0.3063
vn 0.7092 0.3516 -0.6110
vn -0.2115 0.2166 -0.9531
vn -0.0898 -0.1283 0.9877
vn -0.3122 0.2074 0.9271
vn -0.1429 0.1654 -0.9758
vn -0.2144 0.0739 -0.9740
vn -0.6476 -0.7514 -0.1267
vn -0.5645 -0.8197 0.0972
vn -0.7145 -0.6770 -0.1765
vn -0.2316 0.2164 -0.9484
vn 0.2728 0.1250 0.9539
vn 0.0808 0.0957 0.9921
vn -0.3406 0.0487 -0.9390
vn -0.1091 -0.1865 -0.9764
vn -0.9943 0.0199 0.1045
vn -0.1811 0.1098 -0.9773
vn -0.5362 -0.7711 0.3435
vn -0.0944 -0.4602 -0.8828
vn -0.9758 -0.1911 0.1059
vn -0.7705 -0.3772 -0.5138
vn -0.7485 -0.0198 0.6629
vn -0.8052 -0.1111 -0.5825
vn -0.3280 -0.9026 -0.2789
vn -0.5461 -0.7346 0.4027
vn -0.1276 -0.1522 0.9801
vn -0.7832 -0.2306 0.5775
vn -0.8551 -0.0267 -0.5178
vn -0.7140 0.1630 0.6809
vn -0.9923 -0.0672 0.1043
vn -0.1110 -0.0433 -0.9929
vn -0.0797 -0.9968 0.0065
vn -0.0997 -0.9950 0.0082
vn -0.0979 -0.9952 0.0080
vn -0.6298 -0.7734 0.0724
vn -0.1376 -0.8469 -0.5136
vn -0.0382 -0.1517 0.9877
vn -0.4089 0.0007 0.9126
vn -0.3973 -0.1481 0.9056
vn -0.1552 0.0298 0.9874
vn -0.1400 -0.4214 0.8960
vn 0.4673 0.2307 0.8535
vn 0.0692 -0.5747 0.8155
vn 0.8138 0.5803 -0.0299
vn 0.6876 -0.6819 0.2496
vn 0.8368 -0.2370 0.4936
vn 0.6419 -0.7636 0.0705
vn -0.6760 0.6841 0.2741
vn 0.2919 -0.1906 0.9373
vn 0.7420 -0.4702 0.4778
vn -0.4005 0.6267 0.6685
vn 0.3923 -0.1522 -0.9072
vn 0.2055 0.1229 0.9709
vn 0.2784 0.7417 0.6102
vn 0.9789 0.1292 0.1584
vn -0.1641 -0.4400 0.8829
vn 0.6803 0.6928 0.2390
vn -0.1115 0.9877 -0.1093
vn 0.8654 -0.3434 0.3650
vn -0.8792 0.4258 -0.2135
vn -0.0254 0.8819 -0.4708
vn 0.8247 0.5335 -0.1877
vn -0.9997 -0.0108 0.0238
vn 0.9909 0.1014 0.0880
vn -0.8652 -0.4233 0.2688
vn -0.1988 -0.1739 -0.9645
vn 0.9712 -0.2362 0.0305
vn 0.9460 0.1353 -0.2945
vn 0.8418 0.4993 0.2050
vn 0.2243 0.0034 0.9745
vn 0.6568 0.1609 0.7367
vn 0.8509 0.0102 0.5253
vn 0.4235 -0.1605 -0.8915
vn -0.5041 -0.8139 0.2888
vn 0.1847 -0.7280 0.6602
vn 0.8151 -0.3182 0.4842
vn 0.8077 0.4312 -0.4021
vn 0.9986 0.0518 0.0044
vn 0.0179 -0.8087 0.5880
vn -0.0292 0.6817 -0.7311
vn 0.4077 0.0488 0.9118
vn 0.9620 0.0678 0.2645
vn 0.7852 -0.0431 -0.6177
vn 0.9974 -0.0673 0.0247
vn -0.6540 -0.4557 -0.6038
vn 0.9948 0.0514 0.0881
vn 0.4339 -0.5752 -0.6935
vn -0.4286 0.6452 0.6324
vn 0.8700 0.3067 0.3860
vn 0.5982 0.5311 0.6000
vn -0.9887 -0.0528 -0.1402
vn -0.8719 -0.2754 -0.4049
vn -0.2698 -0.0821 -0.9594
vn 0.4686 0.3551 0.8089
vn 0.4848 0.2188 0.8468
vn 0.0119 -0.0767 -0.9970
vn 0.0506 0.1207 -0.9914
vn 0.6287 -0.7632 -0.1496
vn 0.6896 -0.7121 0.1316
vn 0.6745 -0.6828 -0.2807
vn -0.2094 -0.0836 -0.9742
vn 0.5546 0.1127 0.8245
vn 0.5530 0.0859 0.8287
vn -0.3079 0.0870 -0.9474
vn -0.0562 -0.1886 -0.9804
vn 0.9981 0.0109 -0.0603
vn 0.0277 0.1106 -0.9935
vn 0.5559 -0.7844 0.2752
vn -0.0510 -0.4602 -0.8863
vn 0.9777 -0.2040 -0.0494
vn 0.6155 -0.2993 -0.7291
vn 0.8487 -0.0151 0.5286
vn 0.6967 -0.1089 -0.7090
vn 0.1791 -0.8167 -0.5485
vn 0.7774 -0.5793 0.2451
vn 0.2706 -0.2326 0.9341
vn 0.8675 -0.2282 0.4419
vn 0.7497 -0.0007 -0.6618
vn 0.8238 0.1489 0.5470
vn 0.9962 -0.0486 -0.0718
vn -0.0588 -0.0430 -0.9973
vn 0.0797 -0.9968 -0.0065
vn 0.0384 -0.9923 -0.1175
vn 0.0817 -0.9963 0.0258
vn 0.6226 -0.7822 -0.0252
vn 0.0521 -0.8469 -0.5292
vn 0.3094 0.0294 0.9505
vn 0.5611 0.0050 0.8277
vn 0.5381 -0.1449 0.8304
vn 0.3114 0.0261 0.9499
vn 0.2841 -0.4214 0.8612
vn -0.0395 0.0600 0.9974
vn -0.0738 -0.0028 0.9973
vn -0.0884 -0.1009 0.9910
vn 0.2148 0.0584 0.9749
vn 0.2368 0.0026 0.9715
vn 0.2487 -0.1009 0.9633
vn -0.0784 0.0320 0.9964
vn -0.0783 -0.0081 0.9969
vn -0.0735 -0.1290 0.9889
vn 0.2455 0.0353 0.9687
vn 0.2455 -0.0082 0.9694
vn 0.2353 -0.1260 0.9637
vn -0.9909 0.1262 0.0466
vn 0.8013 -0.4164 -0.4295
vn -0.0279 -0.7343 -0.6782
vn -0.0273 0.6486 -0.7606
vn -0.8782 -0.3351 -0.3414
vn 0.9988 0.0310 -0.0377
vn -0.9989 0.0452 -0.0143
vn 0.0229 -0.5384 0.8424
vn 0.8883 0.1649 0.4286
vn -0.9557 -0.1922 0.2229
vn 0.9801 -0.1765 0.0906
vn -0.7941 -0.6072 -0.0268
vn 0.0212 0.5593 0.8287
vn 0.8217 -0.5325 -0.2030
vn -0.8262 0.1991 0.5270
vn -0.0411 -0.8548 -0.5173
vn 0.4576 0.5701 -0.6824
vn -0.7542 -0.3950 0.5245
vn 0.2646 0.6779 -0.6858
vn 0.2508 -0.2107 0.9448
vn 0.0064 0.0500 0.9987
vn 0.1307 -0.0817 0.9881
vn 0.3143 0.7674 0.5588
vn -0.3596 -0.8028 0.4755
vn -0.7830 -0.3887 -0.4856
vn 0.7064 0.5777 0.4090
vn -0.5938 0.5952 -0.5414
vn 0.7145 0.3173 -0.6235
vn -0.8561 -0.3096 -0.4138
vn 0.2343 0.8667 -0.4403
vn -0.6033 -0.6585 0.4499
vn -0.6156 0.7318 -0.2924
vn -0.5583 0.5065 -0.6571
vn -0.9079 -0.3995 0.1268
vn 0.3464 0.6642 -0.6624
vn 0.7266 0.6865 -0.0256
vn 0.9148 0.4000 -0.0557
vn -0.4950 -0.8667 0.0613
vn -0.6876 -0.7185 0.1046
vn 0.6797 -0.7234 -0.1211
vn -0.6295 0.7563 0.1781
vn -0.9063 -0.3918 0.1583
vn 0.3524 0.9348 0.0430
vn 0.3402 0.9387 0.0564
vn -0.8656 -0.4641 0.1881
vn -0.6613 0.7107 0.2397
vn 0.6855 -0.7258 -0.0572
vn -0.7019 -0.6925 0.1665
vn -0.4966 -0.8581 0.1307
vn 0.9549 0.2917 -0.0559
vn 0.7259 0.6871 -0.0316
vn 0.9135 0.1315 0.3850
vn -0.6085 -0.6612 0.4388
vn 0.6795 0.3380 -0.6512
vn -0.4836 0.5485 0.6821
vn -0.5671 -0.5221 -0.6370
vn 0.6316 -0.6410 0.4362
vn -0.6407 -0.4762 -0.6022
vn 0.4210 -0.4872 -0.7651
vn 0.0231 0.7874 0.6161
vn 0.8833 0.4026 0.2401
vn -0.9944 0.1004 0.0341
vn 0.9974 0.0319 -0.0651
vn -0.8781 -0.3396 -0.3371
vn -0.0276 -0.7417 -0.6702
vn 0.8655 -0.3420 -0.3661
vn -0.8524 0.4312 0.2958
vn -0.9086 0.3479 0.2310
vn 0.9060 0.3691 0.2074
vn 0.0224 0.7976 0.6028
vn -0.2487 -0.4911 0.8348
vn 0.3413 -0.4927 0.8005
vn 0.9947 0.1025 0.0041
vn -0.0173 0.6453 -0.7638
vn 0.9969 -0.0175 -0.0765
vn 0.8228 0.2229 0.5227
vn -0.8185 0.2062 0.5362
vn 0.0304 0.3757 0.9262
vn -0.9988 0.0458 -0.0150
vn 0.9958 0.0038 0.0918
vn -0.8369 0.2076 -0.5064
vn -0.0084 0.2649 -0.9642
vn 0.0455 0.9734 0.2247
vn 0.8604 0.1411 -0.4896
vn -0.9971 0.0572 0.0501
vn 0.9994 -0.0114 0.0330
vn -0.0359 -0.9953 -0.0895
vn -0.8662 -0.3658 0.3406
vn 0.9740 -0.1242 -0.1895
vn -0.9841 -0.1295 -0.1213
vn 0.4865 -0.3087 -0.8173
vn 0.0026 -0.6186 0.7857
vn -0.7492 -0.0377 -0.6613
vn 0.8671 -0.3616 0.3426
vn 0.0429 -0.9889 0.1425
vn -0.6904 -0.2764 -0.6686
vn 0.9074 0.2067 0.3659
vn -0.5286 -0.2389 -0.8146
vn -0.0125 0.7299 0.6835
vn 0.1778 0.8895 0.4210
vn 0.0841 0.8232 0.5615
vn -0.3377 0.8714 -0.3559
vn 0.5879 -0.0612 0.8066
vn 0.6213 -0.7711 -0.1396
vn -0.7180 0.6885 -0.1019
vn 0.3395 -0.2130 -0.9162
vn -0.8721 -0.2996 -0.3870
vn -0.9734 -0.2203 -0.0633
vn -0.5420 0.1564 -0.8257
vn -0.8304 -0.0484 -0.5551
vn 0.3997 0.1051 -0.9106
vn 0.4466 -0.4263 -0.7866
vn 0.9217 -0.2077 0.3275
vn -0.5746 -0.2096 -0.7911
vn -0.8230 0.3807 -0.4215
vn -0.9718 0.2103 -0.1065
vn 0.5222 -0.4788 0.7057
vn 0.8321 -0.3104 0.4596
vn -0.4806 -0.4235 0.7679
vn 0.4862 0.4875 -0.7252
vn 0.9817 -0.1177 0.1499
vn -0.5066 0.5295 -0.6804
vn -0.5196 0.5529 -0.6514
vn 0.9631 -0.1262 0.2378
vn 0.5321 0.5158 -0.6714
vn -0.5166 -0.3637 0.7751
vn 0.8497 -0.2473 0.4656
vn 0.6696 -0.3724 0.6427
vn -0.9869 0.1610 -0.0068
vn -0.8453 0.3630 -0.3921
vn -0.8280 0.4602 0.3204
vn 0.8066 0.0102 0.5910
vn -0.7475 -0.4225 -0.5126
vn 0.4818 0.8300 -0.2812
vn 0.5285 -0.8488 -0.0117
vn -0.3866 0.1017 0.9166
vn 0.5963 -0.8009 -0.0547
vn -0.4507 -0.8756 0.1737
vn 0.0028 -0.1925 0.9813
vn -0.8472 -0.0322 0.5303
vn 0.9993 0.0361 -0.0015
vn -0.9956 0.0786 0.0514
vn 0.8403 0.1331 -0.5255
vn -0.0040 0.2306 -0.9730
vn -0.8728 0.1746 -0.4559
vn 0.8534 -0.0830 0.5146
vn 0.9238 -0.0542 0.3789
vn -0.8885 -0.0059 0.4589
vn 0.0154 -0.1685 0.9856
vn 0.2373 -0.9695 -0.0620
vn -0.2818 -0.9579 -0.0557
vn -0.9898 0.0529 0.1325
vn 0.0385 0.9728 0.2282
vn -0.9975 0.0694 -0.0110
vn -0.8081 -0.3540 0.4709
vn 0.8313 -0.3892 0.3968
vn -0.0062 -0.6496 0.7603
vn 0.9964 0.0115 -0.0836
vn -0.9912 0.1228 0.0487
vn 0.8180 -0.3872 -0.4255
vn -0.0275 -0.7341 -0.6785
vn -0.8779 -0.3353 -0.3418
vn 0.9978 0.0211 -0.0636
vn -0.9973 0.0638 0.0352
vn 0.0203 -0.5395 0.8417
vn 0.8688 0.1535 0.4707
vn -0.9806 -0.1532 0.1220
vn 0.9673 -0.1957 0.1612
vn -0.8111 -0.5601 -0.1685
vn 0.0218 0.5579 0.8296
vn 0.8197 -0.5616 -0.1125
vn -0.8512 0.2149 0.4789
vn -0.0289 -0.8980 -0.4390
vn -0.7181 -0.4205 0.5546
vn 0.2564 0.7893 -0.5579
vn 0.2838 0.8031 0.5239
vn -0.3439 -0.8327 0.4341
vn -0.6862 -0.3950 -0.6108
vn 0.5334 0.6020 -0.5942
vn 0.9067 0.1183 -0.4049
vn 0.2817 0.8785 -0.3858
vn 0.6036 0.6551 -0.4544
vn -0.6595 0.7493 -0.0604
vn -0.6650 0.3212 -0.6743
vn -0.7975 -0.5753 0.1816
vn 0.3024 0.6562 -0.6914
vn 0.6940 0.7196 -0.0254
vn 0.9522 0.2945 -0.0808
vn -0.3238 -0.9461 0.0078
vn -0.7145 -0.6916 0.1052
vn 0.6388 -0.7619 -0.1072
vn -0.6698 0.7170 0.1929
vn -0.8742 -0.4597 0.1562
vn 0.3208 0.9461 0.0447
vn 0.3547 0.9318 0.0764
vn -0.8532 -0.4777 0.2093
vn -0.4887 -0.8661 0.1050
vn 0.9563 0.2815 -0.0794
vn 0.8883 0.1552 0.4323
vn 0.5457 0.3781 -0.7478
vn -0.5439 -0.6437 -0.5383
vn 0.0262 0.7864 0.6171
vn 0.8464 0.4433 0.2953
vn -0.9981 0.0570 -0.0230
vn 0.9979 0.0530 -0.0381
vn -0.8745 -0.3438 -0.3421
vn -0.0273 -0.7417 -0.6701
vn 0.8182 -0.3897 -0.4226
vn -0.8467 0.4371 0.3034
vn -0.9084 0.3481 0.2315
vn 0.8961 0.3759 0.2362
vn 0.0218 0.7971 0.6035
vn -0.3335 -0.4774 0.8129
vn 0.2703 -0.5009 0.8222
vn 0.9945 0.1043 0.0031
vn -0.0202 0.6512 -0.7586
vn 0.9977 0.0214 -0.0639
vn -0.9988 -0.0292 -0.0387
vn 0.9956 0.0072 0.0939
vn -0.8215 0.1976 -0.5349
vn -0.0081 0.2645 -0.9643
vn 0.8607 0.1408 -0.4893
vn -0.9967 0.0756 0.0293
vn 0.9997 0.0241 -0.0063
vn -0.0333 -0.9953 -0.0909
vn -0.8395 -0.4186 0.3464
vn 0.7761 -0.5739 -0.2612
vn -0.9401 -0.3181 -0.1226
vn -0.4379 -0.8920 -0.1119
vn 0.0065 -0.6115 0.7912
vn -0.1919 -0.8471 -0.4956
vn 0.8241 -0.4475 0.3473
vn -0.0037 -0.8008 -0.5989
vn 0.8839 0.2225 0.4113
vn -0.5191 -0.0734 -0.8516
vn -0.3527 0.8860 -0.3012
vn 0.6048 -0.0116 0.7963
vn 0.7371 -0.6661 -0.1140
vn -0.7673 -0.1445 -0.6247
vn 0.7154 -0.6519 -0.2516
vn -0.5044 0.0890 -0.8589
vn 0.8192 -0.0452 0.5717
vn 0.4770 0.3505 -0.8060
vn 0.3215 -0.3118 -0.8941
vn 0.9773 -0.1609 0.1378
vn -0.6083 -0.1811 -0.7728
vn -0.8447 0.3679 -0.3887
vn -0.9898 0.1407 -0.0214
vn 0.6672 -0.4099 0.6220
vn 0.8497 -0.3000 0.4336
vn -0.5237 -0.4151 0.7440
vn 0.5299 0.4791 -0.6998
vn 0.9642 -0.1521 0.2170
vn -0.5243 0.5263 -0.6694
vn -0.5110 0.5380 -0.6704
vn 0.9582 -0.1138 0.2625
vn 0.8497 -0.2473 0.4657
vn 0.6805 -0.3467 0.6456
vn -0.9907 0.1357 -0.0087
vn -0.7996 0.5111 0.3153
vn -0.8485 -0.3497 -0.3972
vn 0.5509 -0.8223 0.1428
vn 0.0143 -0.1878 0.9821
vn -0.8250 -0.0489 0.5631
vn 0.9979 0.0062 0.0647
vn -0.9950 0.0693 0.0724
vn 0.8605 0.1203 -0.4950
vn -0.0098 0.2286 -0.9735
vn -0.8380 0.1946 -0.5098
vn 0.8717 -0.0699 0.4851
vn 0.9240 -0.0539 0.3786
vn -0.8780 -0.0284 0.4778
vn 0.0159 -0.1693 0.9854
vn 0.3223 -0.9445 -0.0632
vn -0.3526 -0.9341 -0.0556
vn -0.9895 0.0546 0.1336
vn 0.0354 0.9747 0.2207
vn -0.9967 0.0760 0.0294
vn 0.9997 0.0249 -0.0061
usemtl color_1
s off
f 94//1 58//1 91//1
f 43//2 49//2 51//2
f 8//3 10//3 2//3
f 88//4 3//4 6//4
f 7//5 13//5 15//5
f 88//6 98//6 99//6
f 171//7 16//7 179//7
f 172//8 115//8 276//8
f 5//9 47//9 1//9
f 42//10 46//10 3//10
f 86//11 41//11 89//11
f 54//12 173//12 4//12
f 179//13 14//13 180//13
f 8//14 15//14 9//14
f 4//15 12//15 13//15
f 180//16 12//16 173//16
f 2//17 11//17 171//17
f 13//18 35//18 15//18
f 11//19 34//19 16//19
f 10//20 33//20 11//20
f 9//21 37//21 10//21
f 16//22 36//22 14//22
f 15//23 40//23 9//23
f 12//24 36//24 39//24
f 89//25 57//25 92//25
f 59//26 44//26 60//26
f 57//27 43//27 59//27
f 60//28 42//28 58//28
f 172//29 90//29 85//29
f 6//30 46//30 45//30
f 6//31 48//31 5//31
f 1//32 49//32 41//32
f 44//33 50//33 42//33
f 44//34 51//34 52//34
f 7//35 54//35 4//35
f 53//36 8//36 2//36
f 8//37 56//37 7//37
f 13//38 39//38 38//38
f 229//39 2//39 171//39
f 216//40 91//40 90//40
f 56//41 58//41 54//41
f 53//42 59//42 55//42
f 55//43 60//43 56//43
f 51//44 77//44 78//44
f 48//45 80//45 47//45
f 49//46 80//46 77//46
f 50//47 79//47 46//47
f 48//48 83//48 81//48
f 45//49 79//49 83//49
f 52//50 82//50 50//50
f 51//51 84//51 52//51
f 235//52 93//52 271//52
f 90//53 58//53 42//53
f 3//54 90//54 42//54
f 215//55 92//55 235//55
f 174//56 89//56 215//56
f 1//57 87//57 5//57
f 5//58 88//58 6//58
f 86//59 98//59 87//59
f 93//60 57//60 53//60
f 94//61 230//61 54//61
f 91//62 272//62 94//62
f 93//63 229//63 271//63
f 110//64 285//64 101//64
f 108//65 102//65 103//65
f 174//66 97//66 86//66
f 85//67 99//67 115//67
f 285//68 104//68 101//68
f 103//69 105//69 106//69
f 102//70 104//70 105//70
f 108//71 118//71 117//71
f 110//72 102//72 109//72
f 105//73 112//73 113//73
f 116//74 114//74 111//74
f 279//75 111//75 300//75
f 103//76 116//76 118//76
f 97//77 109//77 98//77
f 99//78 117//78 115//78
f 98//79 108//79 99//79
f 278//80 110//80 97//80
f 303//81 114//81 113//81
f 112//82 303//82 113//82
f 301//83 111//83 114//83
f 106//84 113//84 114//84
f 289//85 112//85 104//85
f 95//86 276//86 115//86
f 100//87 117//87 118//87
f 96//88 118//88 116//88
f 95//89 117//89 107//89
f 96//90 279//90 312//90
f 274//91 234//91 228//91
f 217//92 223//92 213//92
f 182//93 178//93 168//93
f 266//94 169//94 263//94
f 177//95 185//95 170//95
f 266//96 281//96 265//96
f 179//97 183//97 171//97
f 172//98 307//98 263//98
f 221//99 175//99 167//99
f 169//100 224//100 214//100
f 213//101 264//101 267//101
f 170//102 230//102 228//102
f 180//103 188//103 179//103
f 181//104 177//104 178//104
f 170//105 184//105 173//105
f 173//106 186//106 180//106
f 183//107 168//107 171//107
f 207//108 185//108 187//108
f 188//109 205//109 183//109
f 205//110 182//110 183//110
f 209//111 181//111 182//111
f 186//112 206//112 188//112
f 212//113 187//113 181//113
f 184//114 208//114 186//114
f 233//115 267//115 270//115
f 237//116 218//116 217//116
f 237//117 213//117 233//117
f 238//118 214//118 218//118
f 268//119 172//119 263//119
f 176//120 220//120 169//120
f 222//121 176//121 175//121
f 223//122 167//122 213//122
f 224//123 218//123 214//123
f 226//124 217//124 218//124
f 177//125 228//125 232//125
f 178//126 227//126 168//126
f 177//127 231//127 178//127
f 185//128 211//128 184//128
f 171//129 227//129 229//129
f 269//130 216//130 268//130
f 228//131 238//131 232//131
f 231//132 233//132 227//132
f 232//133 237//133 231//133
f 225//134 255//134 223//134
f 258//135 222//135 221//135
f 223//136 258//136 221//136
f 257//137 224//137 220//137
f 222//138 261//138 219//138
f 219//139 257//139 220//139
f 260//140 226//140 224//140
f 262//141 225//141 226//141
f 271//142 270//142 235//142
f 234//143 268//143 214//143
f 169//144 268//144 263//144
f 270//145 215//145 235//145
f 267//146 174//146 215//146
f 167//147 265//147 264//147
f 175//148 266//148 265//148
f 281//149 264//149 265//149
f 233//150 273//150 227//150
f 230//151 274//151 228//151
f 274//152 236//152 269//152
f 273//153 229//153 227//153
f 297//154 285//154 296//154
f 294//155 287//155 295//155
f 280//156 174//156 264//156
f 263//157 282//157 266//157
f 290//158 285//158 286//158
f 288//159 291//159 287//159
f 287//160 290//160 286//160
f 310//161 294//161 309//161
f 287//162 297//162 295//162
f 291//163 304//163 290//163
f 308//164 306//164 292//164
f 279//165 299//165 308//165
f 308//166 288//166 310//166
f 295//167 280//167 281//167
f 309//168 282//168 307//168
f 294//169 281//169 282//169
f 297//170 278//170 280//170
f 306//171 303//171 305//171
f 304//172 303//172 302//172
f 301//173 299//173 300//173
f 292//174 305//174 291//174
f 304//175 289//175 290//175
f 275//176 276//176 311//176
f 310//177 293//177 283//177
f 277//178 310//178 283//178
f 309//179 275//179 293//179
f 279//180 277//180 312//180
f 94//181 54//181 58//181
f 43//182 41//182 49//182
f 8//183 9//183 10//183
f 88//184 85//184 3//184
f 7//185 4//185 13//185
f 88//186 87//186 98//186
f 171//187 11//187 16//187
f 172//188 85//188 115//188
f 5//189 48//189 47//189
f 42//190 50//190 46//190
f 86//191 1//191 41//191
f 54//192 230//192 173//192
f 179//193 16//193 14//193
f 8//194 7//194 15//194
f 4//195 173//195 12//195
f 180//196 14//196 12//196
f 2//197 10//197 11//197
f 13//198 38//198 35//198
f 11//199 33//199 34//199
f 10//200 37//200 33//200
f 9//201 40//201 37//201
f 16//202 34//202 36//202
f 15//203 35//203 40//203
f 12//204 14//204 36//204
f 89//205 41//205 57//205
f 59//206 43//206 44//206
f 57//207 41//207 43//207
f 60//208 44//208 42//208
f 172//209 216//209 90//209
f 6//210 3//210 46//210
f 6//211 45//211 48//211
f 1//212 47//212 49//212
f 44//213 52//213 50//213
f 44//214 43//214 51//214
f 7//215 56//215 54//215
f 53//216 55//216 8//216
f 8//217 55//217 56//217
f 13//218 12//218 39//218
f 229//219 53//219 2//219
f 216//220 236//220 91//220
f 56//221 60//221 58//221
f 53//222 57//222 59//222
f 55//223 59//223 60//223
f 51//224 49//224 77//224
f 48//225 81//225 80//225
f 49//226 47//226 80//226
f 50//227 82//227 79//227
f 48//228 45//228 83//228
f 45//229 46//229 79//229
f 52//230 84//230 82//230
f 51//231 78//231 84//231
f 235//232 92//232 93//232
f 90//233 91//233 58//233
f 3//234 85//234 90//234
f 215//235 89//235 92//235
f 174//236 86//236 89//236
f 1//237 86//237 87//237
f 5//238 87//238 88//238
f 86//239 97//239 98//239
f 93//240 92//240 57//240
f 94//241 272//241 230//241
f 91//242 236//242 272//242
f 93//243 53//243 229//243
f 110//244 296//244 285//244
f 108//245 109//245 102//245
f 174//246 278//246 97//246
f 85//247 88//247 99//247
f 285//248 289//248 104//248
f 103//249 102//249 105//249
f 102//250 101//250 104//250
f 108//251 103//251 118//251
f 110//252 101//252 102//252
f 105//253 104//253 112//253
f 116//254 106//254 114//254
f 279//255 116//255 111//255
f 103//256 106//256 116//256
f 97//257 110//257 109//257
f 99//258 108//258 117//258
f 98//259 109//259 108//259
f 278//260 296//260 110//260
f 303//261 301//261 114//261
f 112//262 302//262 303//262
f 301//263 300//263 111//263
f 106//264 105//264 113//264
f 289//265 302//265 112//265
f 95//266 311//266 276//266
f 100//267 107//267 117//267
f 96//268 100//268 118//268
f 95//269 115//269 117//269
f 96//270 116//270 279//270
f 274//271 269//271 234//271
f 217//272 225//272 223//272
f 182//273 181//273 178//273
f 266//274 176//274 169//274
f 177//275 187//275 185//275
f 266//276 282//276 281//276
f 179//277 188//277 183//277
f 172//278 276//278 307//278
f 221//279 222//279 175//279
f 169//280 220//280 224//280
f 213//281 167//281 264//281
f 170//282 173//282 230//282
f 180//283 186//283 188//283
f 181//284 187//284 177//284
f 170//285 185//285 184//285
f 173//286 184//286 186//286
f 183//287 182//287 168//287
f 207//288 210//288 185//288
f 188//289 206//289 205//289
f 205//290 209//290 182//290
f 209//291 212//291 181//291
f 186//292 208//292 206//292
f 212//293 207//293 187//293
f 184//294 211//294 208//294
f 233//295 213//295 267//295
f 237//296 238//296 218//296
f 237//297 217//297 213//297
f 238//298 234//298 214//298
f 268//299 216//299 172//299
f 176//300 219//300 220//300
f 222//301 219//301 176//301
f 223//302 221//302 167//302
f 224//303 226//303 218//303
f 226//304 225//304 217//304
f 177//305 170//305 228//305
f 178//306 231//306 227//306
f 177//307 232//307 231//307
f 185//308 210//308 211//308
f 171//309 168//309 227//309
f 269//310 236//310 216//310
f 228//311 234//311 238//311
f 231//312 237//312 233//312
f 232//313 238//313 237//313
f 225//314 256//314 255//314
f 258//315 259//315 222//315
f 223//316 255//316 258//316
f 257//317 260//317 224//317
f 222//318 259//318 261//318
f 219//319 261//319 257//319
f 260//320 262//320 226//320
f 262//321 256//321 225//321
f 271//322 273//322 270//322
f 234//323 269//323 268//323
f 169//324 214//324 268//324
f 270//325 267//325 215//325
f 267//326 264//326 174//326
f 167//327 175//327 265//327
f 175//328 176//328 266//328
f 281//329 280//329 264//329
f 233//330 270//330 273//330
f 230//331 272//331 274//331
f 274//332 272//332 236//332
f 273//333 271//333 229//333
f 297//334 286//334 285//334
f 294//335 288//335 287//335
f 280//336 278//336 174//336
f 263//337 307//337 282//337
f 290//338 289//338 285//338
f 288//339 292//339 291//339
f 287//340 291//340 290//340
f 310//341 288//341 294//341
f 287//342 286//342 297//342
f 291//343 305//343 304//343
f 308//344 299//344 306//344
f 279//345 300//345 299//345
f 308//346 292//346 288//346
f 295//347 297//347 280//347
f 309//348 294//348 282//348
f 294//349 295//349 281//349
f 297//350 296//350 278//350
f 306//351 301//351 303//351
f 304//352 305//352 303//352
f 301//353 306//353 299//353
f 292//354 306//354 305//354
f 304//355 302//355 289//355
f 275//356 307//356 276//356
f 310//357 309//357 293//357
f 277//358 308//358 310//358
f 309//359 307//359 275//359
f 279//360 308//360 277//360
usemtl color_2
f 95//361 298//361 311//361
f 284//362 107//362 100//362
f 284//363 96//363 312//363
f 298//364 275//364 311//364
f 293//365 284//365 283//365
f 277//366 284//366 312//366
f 95//367 107//367 298//367
f 284//368 298//368 107//368
f 284//369 100//369 96//369
f 298//370 293//370 275//370
f 293//371 298//371 284//371
f 277//372 283//372 284//372
usemtl color_3
f 160//373 157//373 154//373
f 148//374 19//374 24//374
f 147//375 18//375 19//375
f 23//376 20//376 22//376
f 17//376 19//376 18//376
f 17//376 22//376 24//376
f 143//377 17//377 18//377
f 148//378 22//378 150//378
f 146//379 23//379 17//379
f 161//380 155//380 162//380
f 36//381 30//381 39//381
f 40//382 29//382 31//382
f 34//383 32//383 36//383
f 37//384 31//384 26//384
f 159//376 154//376 153//376
f 38//385 30//385 28//385
f 33//386 27//386 34//386
f 35//387 28//387 29//387
f 37//388 25//388 33//388
f 125//389 139//389 123//389
f 63//390 131//390 64//390
f 124//391 141//391 125//391
f 61//392 66//392 68//392
f 65//393 64//393 67//393
f 64//394 68//394 67//394
f 65//395 134//395 132//395
f 62//396 129//396 130//396
f 119//397 136//397 127//397
f 67//398 135//398 134//398
f 119//399 140//399 124//399
f 78//400 76//400 84//400
f 82//401 76//401 73//401
f 83//402 74//402 75//402
f 81//403 75//403 71//403
f 82//404 74//404 79//404
f 77//405 70//405 69//405
f 80//406 71//406 70//406
f 78//407 69//407 72//407
f 76//408 125//408 123//408
f 76//409 121//409 73//409
f 75//410 126//410 122//410
f 75//411 120//411 71//411
f 74//412 121//412 126//412
f 70//413 124//413 69//413
f 71//414 119//414 70//414
f 72//415 124//415 125//415
f 141//416 132//416 134//416
f 136//417 128//417 127//417
f 140//418 128//418 132//418
f 137//419 130//419 142//419
f 138//420 131//420 136//420
f 138//421 130//421 129//421
f 139//422 133//422 137//422
f 139//423 134//423 135//423
f 66//424 135//424 68//424
f 64//425 129//425 61//425
f 121//426 139//426 137//426
f 63//427 132//427 128//427
f 126//428 138//428 122//428
f 62//429 133//429 66//429
f 120//430 138//430 136//430
f 126//431 137//431 142//431
f 28//432 145//432 144//432
f 32//433 145//433 30//433
f 31//434 149//434 146//434
f 27//435 150//435 32//435
f 26//436 146//436 143//436
f 26//437 147//437 25//437
f 25//438 148//438 27//438
f 29//439 144//439 149//439
f 157//440 153//440 154//440
f 158//441 152//441 156//441
f 156//442 153//442 155//442
f 162//443 157//443 163//443
f 164//376 151//376 165//376
f 161//444 158//444 156//444
f 165//445 158//445 166//445
f 164//376 153//376 152//376
f 156//446 157//446 155//446
f 20//376 159//376 164//376
f 22//447 166//447 150//447
f 145//448 166//448 161//448
f 20//376 165//376 22//376
f 144//449 163//449 149//449
f 21//376 160//376 159//376
f 144//450 161//450 162//450
f 23//451 163//451 160//451
f 354//452 351//452 357//452
f 342//453 191//453 341//453
f 341//454 190//454 337//454
f 192//455 195//455 194//455
f 191//455 189//455 190//455
f 194//455 189//455 196//455
f 337//456 189//456 340//456
f 194//457 342//457 344//457
f 340//458 195//458 343//458
f 349//459 355//459 356//459
f 202//460 208//460 211//460
f 212//461 201//461 207//461
f 204//462 206//462 208//462
f 209//463 203//463 212//463
f 353//455 348//455 354//455
f 210//464 202//464 211//464
f 199//465 205//465 206//465
f 207//466 200//466 210//466
f 205//467 198//467 209//467
f 333//468 319//468 317//468
f 325//469 241//469 242//469
f 335//470 318//470 319//470
f 244//471 239//471 246//471
f 243//472 242//472 241//472
f 246//473 242//473 245//473
f 243//474 328//474 245//474
f 240//475 323//475 239//475
f 313//476 330//476 314//476
f 245//477 329//477 246//477
f 334//478 313//478 318//478
f 254//479 256//479 262//479
f 260//480 254//480 262//480
f 261//481 252//481 257//481
f 259//482 253//482 261//482
f 252//483 260//483 257//483
f 255//484 248//484 258//484
f 258//485 249//485 259//485
f 256//486 247//486 255//486
f 254//487 319//487 250//487
f 315//488 254//488 251//488
f 253//489 320//489 252//489
f 314//490 253//490 249//490
f 252//491 315//491 251//491
f 318//492 248//492 247//492
f 313//493 249//493 248//493
f 250//494 318//494 247//494
f 335//495 326//495 334//495
f 322//496 330//496 321//496
f 334//497 322//497 321//497
f 324//498 331//498 336//498
f 325//499 332//499 330//499
f 332//500 324//500 336//500
f 327//501 333//501 331//501
f 329//502 335//502 333//502
f 329//503 244//503 246//503
f 239//504 325//504 242//504
f 315//505 333//505 317//505
f 241//506 326//506 243//506
f 332//507 320//507 316//507
f 327//508 240//508 244//508
f 314//509 332//509 316//509
f 320//510 331//510 315//510
f 200//511 339//511 202//511
f 339//512 204//512 202//512
f 203//513 343//513 201//513
f 344//514 199//514 204//514
f 198//515 340//515 203//515
f 341//516 198//516 197//516
f 342//517 197//517 199//517
f 201//518 338//518 200//518
f 351//519 347//519 349//519
f 346//520 352//520 350//520
f 347//521 350//521 349//521
f 351//522 356//522 357//522
f 345//455 358//455 359//455
f 355//523 352//523 360//523
f 352//524 359//524 360//524
f 358//455 347//455 353//455
f 350//525 351//525 352//525
f 192//455 353//455 193//455
f 360//526 194//526 344//526
f 339//527 360//527 344//527
f 359//455 192//455 194//455
f 357//528 338//528 343//528
f 193//455 354//455 195//455
f 338//529 355//529 339//529
f 195//530 357//530 343//530
f 160//531 163//531 157//531
f 148//532 147//532 19//532
f 147//533 143//533 18//533
f 23//376 21//376 20//376
f 17//376 24//376 19//376
f 17//376 23//376 22//376
f 143//534 146//534 17//534
f 148//535 24//535 22//535
f 146//536 149//536 23//536
f 161//537 156//537 155//537
f 36//538 32//538 30//538
f 40//539 35//539 29//539
f 34//540 27//540 32//540
f 37//541 40//541 31//541
f 159//376 160//376 154//376
f 38//542 39//542 30//542
f 33//543 25//543 27//543
f 35//544 38//544 28//544
f 37//545 26//545 25//545
f 125//389 141//389 139//389
f 63//546 128//546 131//546
f 124//547 140//547 141//547
f 61//392 62//392 66//392
f 65//393 63//393 64//393
f 64//394 61//394 68//394
f 65//548 67//548 134//548
f 62//549 61//549 129//549
f 119//550 120//550 136//550
f 67//398 68//398 135//398
f 119//399 127//399 140//399
f 78//551 72//551 76//551
f 82//552 84//552 76//552
f 83//553 79//553 74//553
f 81//554 83//554 75//554
f 82//555 73//555 74//555
f 77//556 80//556 70//556
f 80//557 81//557 71//557
f 78//558 77//558 69//558
f 76//559 72//559 125//559
f 76//560 123//560 121//560
f 75//561 74//561 126//561
f 75//562 122//562 120//562
f 74//563 73//563 121//563
f 70//564 119//564 124//564
f 71//565 120//565 119//565
f 72//566 69//566 124//566
f 141//567 140//567 132//567
f 136//568 131//568 128//568
f 140//418 127//418 128//418
f 137//419 133//419 130//419
f 138//420 129//420 131//420
f 138//569 142//569 130//569
f 139//570 135//570 133//570
f 139//423 141//423 134//423
f 66//571 133//571 135//571
f 64//425 131//425 129//425
f 121//572 123//572 139//572
f 63//427 65//427 132//427
f 126//573 142//573 138//573
f 62//429 130//429 133//429
f 120//430 122//430 138//430
f 126//431 121//431 137//431
f 28//574 30//574 145//574
f 32//575 150//575 145//575
f 31//576 29//576 149//576
f 27//577 148//577 150//577
f 26//578 31//578 146//578
f 26//579 143//579 147//579
f 25//580 147//580 148//580
f 29//581 28//581 144//581
f 157//582 155//582 153//582
f 158//583 151//583 152//583
f 156//584 152//584 153//584
f 162//585 155//585 157//585
f 164//376 152//376 151//376
f 161//586 166//586 158//586
f 165//587 151//587 158//587
f 164//376 159//376 153//376
f 156//588 158//588 157//588
f 20//376 21//376 159//376
f 22//589 165//589 166//589
f 145//448 150//448 166//448
f 20//376 164//376 165//376
f 144//449 162//449 163//449
f 21//376 23//376 160//376
f 144//450 145//450 161//450
f 23//590 149//590 163//590
f 354//591 348//591 351//591
f 342//592 196//592 191//592
f 341//593 191//593 190//593
f 192//455 193//455 195//455
f 191//455 196//455 189//455
f 194//455 195//455 189//455
f 337//594 190//594 189//594
f 194//595 196//595 342//595
f 340//596 189//596 195//596
f 349//597 350//597 355//597
f 202//598 204//598 208//598
f 212//599 203//599 201//599
f 204//600 199//600 206//600
f 209//601 198//601 203//601
f 353//455 347//455 348//455
f 210//602 200//602 202//602
f 199//603 197//603 205//603
f 207//604 201//604 200//604
f 205//605 197//605 198//605
f 333//468 335//468 319//468
f 325//606 322//606 241//606
f 335//607 334//607 318//607
f 244//471 240//471 239//471
f 243//472 245//472 242//472
f 246//473 239//473 242//473
f 243//608 326//608 328//608
f 240//609 324//609 323//609
f 313//610 321//610 330//610
f 245//477 328//477 329//477
f 334//478 321//478 313//478
f 254//611 250//611 256//611
f 260//612 251//612 254//612
f 261//613 253//613 252//613
f 259//614 249//614 253//614
f 252//615 251//615 260//615
f 255//616 247//616 248//616
f 258//617 248//617 249//617
f 256//618 250//618 247//618
f 254//619 317//619 319//619
f 315//620 317//620 254//620
f 253//621 316//621 320//621
f 314//622 316//622 253//622
f 252//623 320//623 315//623
f 318//624 313//624 248//624
f 313//625 314//625 249//625
f 250//626 319//626 318//626
f 335//627 328//627 326//627
f 322//628 325//628 330//628
f 334//497 326//497 322//497
f 324//498 327//498 331//498
f 325//629 323//629 332//629
f 332//630 323//630 324//630
f 327//631 329//631 333//631
f 329//502 328//502 335//502
f 329//632 327//632 244//632
f 239//504 323//504 325//504
f 315//633 331//633 333//633
f 241//506 322//506 326//506
f 332//634 336//634 320//634
f 327//508 324//508 240//508
f 314//509 330//509 332//509
f 320//510 336//510 331//510
f 200//635 338//635 339//635
f 339//636 344//636 204//636
f 203//637 340//637 343//637
f 344//638 342//638 199//638
f 198//639 337//639 340//639
f 341//640 337//640 198//640
f 342//641 341//641 197//641
f 201//642 343//642 338//642
f 351//643 348//643 347//643
f 346//644 345//644 352//644
f 347//645 346//645 350//645
f 351//646 349//646 356//646
f 345//455 346//455 358//455
f 355//647 350//647 352//647
f 352//648 345//648 359//648
f 358//455 346//455 347//455
f 350//649 349//649 351//649
f 192//455 358//455 353//455
f 360//650 359//650 194//650
f 339//527 355//527 360//527
f 359//455 358//455 192//455
f 357//528 356//528 338//528
f 193//455 353//455 354//455
f 338//529 356//529 355//529
f 195//651 354//651 357//651
