# Blender v2.83.5 OBJ File: 'bio.blend'
# www.blender.org
mtllib bio_000004.mtl
o Cube
v -0.850922 -1.070704 -0.531327
v -0.673090 1.105020 -0.435314
v -0.766157 -1.017244 0.431903
v -0.674016 0.862771 0.469862
v -0.975203 -1.013267 -0.254322
v -0.956561 -0.962461 0.104353
v -0.860128 0.931657 0.196437
v -0.859484 1.036403 -0.160267
v -0.813090 1.289901 -0.011307
v -0.710072 1.340694 -0.180501
v -0.170461 1.300540 -0.203374
v -0.168366 1.158364 0.365853
v -0.711146 1.173779 0.380166
v -0.087875 1.201711 0.182270
v -0.813515 1.223892 0.210418
v -0.088638 1.252990 -0.016733
v -0.638051 3.753775 0.850780
v -0.572652 3.792099 0.744851
v -0.255104 3.791044 0.744917
v -0.256217 3.663119 1.096568
v -0.573762 3.664488 1.095637
v -0.176170 3.701545 0.990230
v -0.638490 3.703309 0.989504
v -0.175731 3.752010 0.851505
v -0.215948 2.598714 0.254809
v -0.644140 2.610761 0.258581
v -0.134928 2.549214 0.397865
v -0.645415 2.454369 0.708950
v -0.728494 2.501904 0.572708
v -0.217221 2.442302 0.706382
v -0.727988 2.563791 0.394624
v -0.135399 2.491601 0.563798
v -0.233782 2.478579 0.234597
v -0.160447 2.437397 0.367941
v -0.706545 2.398074 0.529717
v -0.160769 2.390003 0.521598
v -0.629127 2.488548 0.237527
v -0.630005 2.359406 0.656651
v -0.234664 2.348956 0.654719
v -0.706198 2.449122 0.363952
v -0.837295 -0.664481 -0.595479
v -0.799247 -0.546039 0.327995
v -0.897603 -0.696026 -0.408869
v -0.777029 -0.597385 -0.090298
v -1.074504 -0.545478 -0.055677
v -0.921952 -0.512622 0.067912
v -1.189146 -0.799132 -0.399310
v -1.185911 -0.667569 -0.238012
v -0.940986 -0.815487 -0.527977
v -0.678141 -0.537002 -0.058955
v -0.817838 -0.713781 -0.429339
v -0.718112 -0.599741 -0.241727
v -0.692857 0.514041 -0.592663
v -0.703060 0.320126 0.378631
v -0.863855 0.410611 -0.333107
v -0.862852 0.331686 0.045788
v -0.701661 -0.427184 -0.592856
v -0.699839 -0.394068 0.358775
v -0.840453 -0.464029 -0.371824
v -0.818893 -0.434232 -0.009630
v -1.202874 2.175106 -0.824629
v -1.121685 2.155425 -0.748964
v -1.304994 2.167536 -1.052851
v -1.275367 2.179896 -0.944806
v -1.151908 2.190043 -1.144298
v -0.968598 2.177932 -0.840411
v -1.051712 2.212779 -1.078408
v -0.979219 2.207988 -0.958230
v -1.049392 0.639213 -1.389472
v -1.299514 0.617569 -1.243387
v -1.270354 0.650813 -1.062759
v -0.905433 0.690163 -1.277725
v -0.754276 0.668332 -0.907547
v -1.004500 0.648239 -0.761849
v -1.153256 0.656405 -0.870741
v -0.788316 0.695336 -1.086052
v -1.026660 0.382896 -1.246485
v -0.907177 0.465625 -1.175919
v -1.004913 0.646317 -0.769231
v -1.245243 0.422233 -1.131021
v -1.226559 0.524073 -1.006212
v -0.786267 0.605816 -0.885054
v -1.131561 0.613021 -0.864288
v -0.812152 0.554594 -1.032701
v -0.656697 -1.095716 0.511680
v -0.690726 -1.177720 -0.586403
v -0.800103 -1.143753 -0.357931
v -0.730697 -1.165606 0.144808
v -0.355511 -0.531538 -0.536918
v -0.350358 -0.501020 0.523571
v -0.294767 -0.304454 0.507469
v -0.284579 -0.299469 -0.545978
v -0.278385 0.120135 -0.560252
v -0.282987 0.068874 0.476224
v -0.285052 -1.363127 0.490742
v -0.437091 -2.377615 0.453390
v -0.501126 -1.361223 -0.629187
v -0.699400 -1.254343 -0.351124
v -0.628349 -1.246730 0.163858
v -0.461867 -2.143357 0.479154
v -0.499742 -2.183531 -0.574716
v -0.697126 -2.144719 -0.350855
v -0.683017 -2.144719 0.223694
v -0.474182 -2.421449 -0.451520
v -0.643654 -2.421449 -0.280948
v -0.626123 -2.421449 0.193489
v -0.462218 -1.756311 0.476544
v -0.679292 -1.754101 0.236109
v -0.683824 -1.754101 -0.383662
v -0.490484 -1.835426 -0.643061
v -0.409367 -2.517548 0.421881
v -0.405803 -2.517548 -0.234246
v -0.523364 -2.517548 -0.184009
v -0.505442 -2.517548 0.190591
v -0.483858 -1.238878 0.434067
v -0.483438 -2.421449 0.421599
v -0.512978 -1.754101 0.447783
v -0.512653 -2.144719 0.451452
v -1.321638 1.936205 -1.093195
v -1.288150 1.950721 -0.962508
v -0.918500 1.948663 -0.838606
v -1.201275 1.944981 -0.818487
v -0.933246 1.984387 -0.978596
v -1.138180 1.963177 -1.202785
v -1.020122 1.990127 -1.122616
v -1.101959 1.921690 -0.729016
v -1.359052 1.973789 -1.109401
v -1.355505 2.078977 -1.095940
v -1.217780 2.076542 -0.791872
v -1.110324 2.062777 -0.689482
v -1.314741 2.082949 -0.952613
v -1.150749 2.109081 -1.218252
v -0.905567 2.092881 -0.811795
v -1.015596 2.126931 -1.131309
v -0.918635 2.120524 -0.970568
v -1.318956 1.977579 -0.958782
v -0.890615 1.988265 -0.813575
v -1.218009 1.970909 -0.791433
v -0.906565 2.016699 -0.977475
v -1.145877 2.005131 -1.236743
v -1.007513 2.023369 -1.144824
v -1.103790 1.956923 -0.686233
v -0.587975 3.538890 0.640848
v -0.589744 3.225505 0.959370
v -0.248406 3.221638 0.959491
v -0.657352 3.498280 0.753097
v -0.246633 3.535356 0.640054
v -0.166918 3.493536 0.754295
v -0.658410 3.266642 0.846905
v -0.167968 3.262846 0.845501
v -0.239564 3.468460 1.631496
v -0.298937 3.429956 1.737867
v -0.534118 3.431011 1.737065
v -0.581970 3.469767 1.630959
v -0.545490 3.247494 1.682123
v -0.292688 3.243965 1.682106
v -0.596254 3.288563 1.569686
v -0.233021 3.285252 1.568082
v -0.574087 3.627112 1.198381
v -0.638815 3.665932 1.092248
v -0.248127 3.365690 1.116616
v -0.589466 3.369557 1.116494
v -0.658132 3.410695 1.004030
v -0.256543 3.625742 1.199311
v -0.176495 3.664168 1.092973
v -0.167690 3.406898 1.002625
v 0.919038 -1.041702 -0.433066
v 0.652242 1.101997 -0.446385
v 0.695480 -1.076999 0.522461
v 0.680067 0.907130 0.471024
v -0.008661 1.160479 -0.423124
v -0.004571 -1.122714 0.570670
v 0.000474 1.056753 0.471403
v 0.005711 -1.184166 -0.655968
v 1.004227 -1.016623 -0.108213
v 0.923291 -1.034573 0.262804
v 0.856537 0.984234 0.193428
v 0.844719 1.068131 -0.168591
v -0.014999 1.249941 -0.124487
v -0.009533 1.169240 0.259299
v 0.770565 1.323480 -0.033668
v 0.662749 1.353107 -0.204884
v 0.134287 1.273988 -0.216919
v 0.147647 1.150908 0.356881
v 0.681624 1.219014 0.364202
v 0.061676 1.185594 0.174064
v 0.778030 1.270450 0.191387
v 0.056990 1.230288 -0.026606
v 0.640870 2.443819 -0.920279
v 0.574962 2.332987 -0.938620
v 0.259837 2.339867 -0.977198
v 0.264289 2.712425 -0.942554
v 0.579402 2.704629 -0.904061
v 0.183840 2.601474 -0.962716
v 0.642626 2.590791 -0.906612
v 0.182084 2.454502 -0.976383
v 0.052531 2.276330 0.248167
v 0.478794 2.279450 0.279926
v -0.025345 2.373636 0.290089
v 0.487182 2.608966 0.425769
v 0.567603 2.507825 0.390369
v 0.060975 2.599294 0.400439
v 0.564331 2.376507 0.333160
v -0.022292 2.495046 0.344164
v 0.064195 2.400824 0.194322
v -0.004949 2.395695 0.304456
v 0.541777 2.446836 0.449044
v -0.000195 2.390936 0.436942
v 0.456436 2.446869 0.197608
v 0.469370 2.431570 0.561286
v 0.077171 2.388616 0.556095
v 0.536627 2.453543 0.304967
v 0.921652 -0.545249 -0.493277
v 0.746372 -0.588436 0.452904
v 0.000593 -0.441933 -0.568693
v -0.000922 -0.441933 0.568676
v 0.958003 -0.532865 -0.194241
v 0.780389 -0.577622 0.140832
v 1.062295 -0.703335 0.309614
v 0.889297 -0.737800 0.401504
v 1.241774 -0.646258 -0.098646
v 1.207009 -0.669290 0.112047
v 1.022042 -0.524867 -0.256686
v 0.673611 -0.610850 0.247373
v 0.881311 -0.497093 -0.122704
v 0.747282 -0.531888 0.077176
v 0.724979 0.508476 -0.571470
v 0.744636 0.352732 0.409612
v 0.000051 0.527511 -0.530201
v 0.008312 0.479838 0.492465
v 0.907267 0.457213 -0.299884
v 0.906817 0.386950 0.084031
v 0.775264 -0.353759 -0.532150
v 0.667790 -0.403669 0.431673
v 0.000690 -0.271286 -0.559869
v -0.000792 -0.271286 0.559864
v 0.897220 -0.370326 -0.246092
v 0.825710 -0.398997 0.123844
v 1.092458 0.699968 2.114821
v 1.003236 0.636424 2.088250
v 1.231746 0.907591 2.106906
v 1.182826 0.807206 2.122199
v 1.094716 1.023619 2.098867
v 0.866205 0.752452 2.080211
v 0.982627 0.976720 2.110454
v 0.892259 0.869482 2.103077
v 1.252368 1.109388 0.519498
v 1.475864 0.935592 0.556354
v 1.413994 0.779549 0.605146
v 1.087761 1.041422 0.563476
v 0.883400 0.723275 0.564104
v 1.106984 0.551207 0.603352
v 1.267762 0.620328 0.613622
v 0.941675 0.882488 0.571005
v 1.216852 0.809552 0.267712
v 1.085007 0.821310 0.354902
v 1.105699 0.611775 0.735237
v 1.410434 0.717397 0.391667
v 1.367403 0.685653 0.538351
v 0.912298 0.703721 0.609051
v 1.247315 0.646042 0.674013
v 0.964428 0.779547 0.491468
v 0.591492 -1.137156 0.571644
v 0.753615 -1.164409 -0.527097
v 0.844124 -1.142844 -0.263376
v 0.700684 -1.199164 0.233464
v 0.373288 -0.505208 -0.551683
v 0.332651 -0.513836 0.516498
v 0.293949 -0.306224 0.512953
v 0.297740 -0.294593 -0.545437
v 0.001586 0.135594 -0.561433
v 0.005870 0.110392 0.526117
v 0.291839 0.110357 -0.553576
v 0.299523 0.068952 0.486732
v 0.273914 -1.363127 0.497782
v -0.003685 -1.208153 0.553789
v 0.442857 -2.377615 0.447760
v 0.003646 -1.360050 -0.675637
v 0.003304 -2.462116 0.516368
v 0.534867 -1.358497 -0.612432
v 0.736663 -1.258777 -0.283650
v 0.602113 -1.270421 0.227292
v 0.465812 -2.143357 0.475500
v 0.003522 -2.144719 0.550463
v -0.003770 -2.183531 -0.589274
v 0.496780 -2.183531 -0.577576
v 0.697550 -2.144719 -0.350893
v 0.683688 -2.144719 0.222655
v -0.002981 -2.421449 -0.465913
v 0.468834 -2.421449 -0.457109
v 0.641129 -2.421449 -0.286916
v 0.628251 -2.421449 0.186641
v 0.460063 -1.756311 0.479251
v 0.675599 -1.754101 0.248758
v 0.693096 -1.754101 -0.368664
v -0.003297 -1.835426 -0.655338
v 0.494531 -1.835426 -0.640671
v 0.003313 -1.754101 0.553688
v 0.414732 -2.517548 0.416608
v 0.003154 -2.558215 0.492914
v 0.001131 -2.558215 0.176742
v -0.001564 -2.558215 -0.244523
v -0.000336 -2.558215 -0.052546
v 0.402772 -2.517548 -0.239419
v 0.520966 -2.517548 -0.190691
v 0.507839 -2.517548 0.184108
v 0.454356 -1.254525 0.457177
v 0.488793 -2.421449 0.415379
v 0.509968 -1.754101 0.451990
v 0.515860 -2.144719 0.448035
v -0.002972 -1.361883 0.530017
v 0.003343 -2.416921 0.522444
v 1.287427 0.922502 1.878660
v 1.230607 0.800671 1.897093
v 0.849363 0.736583 1.846670
v 1.122309 0.672157 1.888252
v 0.882391 0.875302 1.874177
v 1.123210 1.061549 1.869027
v 0.990689 1.003816 1.883019
v 1.013581 0.597535 1.856302
v 1.321365 0.936169 1.920332
v 1.300795 0.933559 2.024391
v 1.115354 0.656000 2.022341
v 0.995156 0.570865 1.999439
v 1.236224 0.799434 2.032209
v 1.117513 1.088749 2.013640
v 0.811874 0.726056 1.988687
v 0.968453 1.026163 2.016501
v 0.847583 0.882730 2.006633
v 1.256238 0.794753 1.928594
v 0.812343 0.720135 1.883160
v 1.130399 0.645422 1.918319
v 0.851619 0.881473 1.901966
v 1.130548 1.097739 1.909138
v 0.977458 1.030803 1.912240
v 1.003161 0.558564 1.894353
v 0.555673 2.296838 -0.667534
v 0.537726 2.684746 -0.446463
v 0.198680 2.692888 -0.485320
v 0.625589 2.414280 -0.648089
v 0.216615 2.304010 -0.706482
v 0.138595 2.426762 -0.704957
v 0.604798 2.564114 -0.449156
v 0.117771 2.573838 -0.506280
v 0.252854 3.279552 -0.892084
v 0.312786 3.390981 -0.874431
v 0.546166 3.385089 -0.845933
v 0.592643 3.271640 -0.850531
v 0.533501 3.378636 -0.654558
v 0.282314 3.384733 -0.682670
v 0.582807 3.258418 -0.659423
v 0.222016 3.265202 -0.701110
v 0.580703 2.813482 -0.893939
v 0.643927 2.699644 -0.896490
v 0.223060 2.807962 -0.663086
v 0.562106 2.799819 -0.624229
v 0.629177 2.679188 -0.626922
v 0.265590 2.821278 -0.932432
v 0.185141 2.710327 -0.952594
v 0.142151 2.688911 -0.684046
vn -0.3605 0.0891 0.9285
vn 0.0226 -0.7100 0.7039
vn -0.8099 0.3673 -0.4573
vn -0.6698 -0.6902 0.2739
vn -0.8369 0.1078 0.5366
vn -0.6293 -0.7709 0.0982
vn 0.2423 0.9603 0.1384
vn -0.2259 -0.1911 0.9552
vn -0.6523 -0.7453 -0.1381
vn 0.4120 0.6133 0.6739
vn 0.1164 0.0157 -0.9931
vn -0.1213 -0.1583 0.9799
vn 0.1547 0.9568 0.2460
vn -0.9870 0.1549 0.0437
vn 0.0333 0.2806 0.9592
vn 0.2401 0.8622 0.4460
vn -0.0582 0.8219 -0.5667
vn -0.8624 -0.0582 0.5029
vn 0.8837 0.1922 -0.4267
vn -0.0139 0.3478 -0.9375
vn -0.8615 0.2263 -0.4546
vn 0.9983 0.0557 0.0193
vn -0.9962 0.0841 0.0238
vn 0.8808 -0.0647 0.4690
vn 0.1355 -0.0800 -0.9875
vn -0.9552 -0.2848 0.0803
vn -0.7866 0.4542 -0.4182
vn -0.8366 0.5036 0.2155
vn -0.0890 0.0259 0.9957
vn -0.6399 0.1108 0.7604
vn -0.8455 -0.5209 0.1177
vn -0.4013 -0.1297 -0.9067
vn 0.4858 -0.8641 0.1319
vn 0.3536 -0.9230 0.1519
vn -0.8313 -0.0486 0.5536
vn -0.8350 0.1675 -0.5241
vn -1.0000 0.0047 -0.0004
vn -0.0012 -0.2270 0.9739
vn 0.0042 0.1669 -0.9860
vn -0.1473 0.1221 0.9815
vn -0.9016 -0.0161 0.4323
vn -0.8365 0.0079 -0.5479
vn -0.9996 -0.0266 -0.0029
vn 0.6491 -0.3711 -0.6640
vn -0.9990 -0.0228 0.0386
vn -0.4761 -0.4770 -0.7388
vn 0.4283 0.5491 0.7177
vn -0.8697 0.2462 0.4279
vn -0.6112 0.4325 0.6628
vn 0.9791 -0.0498 -0.1970
vn 0.9098 -0.1816 -0.3732
vn -0.0040 -0.0038 -1.0000
vn -0.4049 0.0804 0.9108
vn -0.4079 0.1692 0.8972
vn -0.0537 0.0516 -0.9972
vn -0.1170 0.1152 -0.9864
vn -0.6410 -0.7563 -0.1308
vn -0.6759 -0.7240 0.1377
vn -0.7100 -0.6614 -0.2416
vn 0.0775 -0.0005 -0.9970
vn -0.1763 0.0862 0.9806
vn -0.1844 0.0877 0.9789
vn -0.0086 0.0794 -0.9968
vn -0.0288 -0.1918 -0.9810
vn -0.9997 0.0088 0.0245
vn -0.0974 0.1295 -0.9868
vn -0.5235 -0.7963 0.3031
vn -0.0260 -0.4619 -0.8866
vn -0.9781 -0.2050 0.0361
vn -0.6766 -0.3006 -0.6722
vn -0.7863 0.0052 0.6178
vn -0.8049 -0.0224 -0.5929
vn -0.2263 -0.8175 -0.5296
vn -0.7528 -0.5793 0.3127
vn -0.1873 -0.2326 0.9544
vn -0.7920 -0.1475 0.5924
vn -0.8118 0.0127 -0.5838
vn -0.7849 0.0608 0.6167
vn -0.9949 0.1009 0.0073
vn -0.0917 0.0271 -0.9954
vn -0.0785 -0.9969 0.0038
vn -0.0486 -0.9923 -0.1137
vn -0.0791 -0.9963 0.0329
vn -0.6222 -0.7823 0.0298
vn -0.0123 -0.9159 -0.4012
vn -0.2446 0.0502 0.9683
vn -0.4790 0.0055 0.8778
vn -0.4641 -0.1433 0.8741
vn -0.4784 0.1846 0.8585
vn -0.1650 -0.1313 0.9775
vn 0.1631 0.0122 0.9865
vn -0.1461 0.9890 -0.0232
vn 0.7663 0.4284 -0.4788
vn 0.5840 -0.7439 0.3250
vn 0.8041 0.1890 0.5637
vn 0.7159 -0.6862 0.1289
vn -0.3183 0.9063 -0.2782
vn -0.0178 -0.6873 0.7261
vn 0.8305 -0.5281 -0.1770
vn 0.4152 0.0857 0.9057
vn 0.1077 0.0251 -0.9939
vn 0.0944 -0.0987 0.9906
vn -0.0129 0.9785 0.2059
vn 0.9640 0.2642 0.0298
vn 0.1465 0.6635 0.7337
vn -0.1892 0.8638 0.4670
vn 0.0578 0.8571 -0.5119
vn 0.8633 0.0637 0.5006
vn -0.9298 0.0738 -0.3607
vn -0.0297 0.3411 -0.9396
vn 0.8244 0.3258 -0.4628
vn -0.9984 -0.0561 0.0108
vn 0.9800 0.1986 0.0143
vn -0.9063 -0.1339 0.4008
vn 0.0329 0.0414 -0.9986
vn 0.8939 0.3993 0.2037
vn 0.7857 0.5390 -0.3037
vn 0.8763 -0.1799 0.4468
vn 0.0005 0.0883 0.9961
vn 0.7520 -0.2064 0.6260
vn 0.8098 -0.5674 0.1492
vn 0.9209 -0.0517 -0.3863
vn 0.2964 -0.9551 -0.0008
vn -0.6825 -0.5838 -0.4398
vn 0.8953 -0.0062 0.4453
vn 0.8150 0.2134 -0.5387
vn 0.9946 0.1036 -0.0085
vn 0.0067 -0.1585 0.9873
vn -0.0200 0.1665 -0.9858
vn 0.1643 0.0475 0.9853
vn 0.8958 -0.0702 0.4388
vn 0.8321 0.0233 -0.5541
vn 0.9999 -0.0122 -0.0011
vn -0.6026 0.3666 -0.7089
vn 0.9749 -0.1717 0.1421
vn 0.6400 0.1887 -0.7449
vn -0.6152 -0.0949 0.7827
vn 0.8003 -0.2561 0.5421
vn 0.4933 -0.2825 0.8227
vn -0.9258 0.2468 -0.2862
vn -0.8171 0.2923 -0.4970
vn 0.0267 -0.0039 -0.9996
vn 0.1823 0.1884 0.9650
vn 0.3146 0.2125 0.9251
vn 0.0525 0.0515 -0.9973
vn 0.0651 0.1170 -0.9910
vn 0.6452 -0.7470 -0.1604
vn 0.5730 -0.8163 0.0729
vn 0.7358 -0.6471 -0.1996
vn 0.0006 -0.0455 -0.9990
vn 0.1241 0.0742 0.9895
vn 0.1645 0.0663 0.9841
vn -0.0564 0.0165 -0.9983
vn 0.0289 -0.1864 -0.9820
vn 0.9994 0.0188 0.0283
vn 0.1585 0.2422 -0.9572
vn 0.4617 -0.8340 0.3020
vn 0.0208 -0.4536 -0.8910
vn 0.9806 -0.1945 0.0237
vn 0.7244 -0.3772 -0.5770
vn 0.7752 0.0053 0.6317
vn 0.8100 -0.0174 -0.5861
vn 0.3028 -0.9024 -0.3065
vn 0.5791 -0.7349 0.3530
vn 0.2135 -0.1522 0.9650
vn 0.7933 -0.1473 0.5907
vn 0.8501 0.0156 -0.5265
vn 0.8407 0.0880 0.5343
vn 0.9543 0.1563 0.2549
vn 0.1179 0.0488 -0.9918
vn 0.0785 -0.9969 0.0027
vn 0.1001 -0.9950 -0.0006
vn 0.0982 -0.9952 -0.0006
vn 0.6328 -0.7741 0.0172
vn 0.0075 -0.9156 -0.4019
vn 0.1136 -0.1513 0.9819
vn 0.4795 -0.0014 0.8776
vn 0.4726 -0.1492 0.8686
vn 0.4655 0.1795 0.8667
vn 0.1775 -0.1313 0.9753
vn -0.2421 -0.0281 0.9698
vn -0.8469 0.4967 -0.1897
vn -0.8354 0.3840 -0.3933
vn -0.6825 -0.6803 0.2673
vn -0.8167 0.0677 0.5730
vn -0.7396 -0.6690 0.0730
vn 0.4132 0.8747 -0.2533
vn -0.0976 -0.5628 0.8208
vn -0.7687 -0.4880 0.4135
vn -0.9451 -0.1323 -0.2989
vn -0.3989 -0.1300 -0.9077
vn -0.0127 0.0363 0.9993
vn 0.3176 0.9288 0.1908
vn -0.9869 0.1553 0.0443
vn -0.1646 0.5658 0.8079
vn 0.1214 0.9528 0.2782
vn 0.0261 0.7358 -0.6767
vn -0.8626 -0.0581 0.5025
vn 0.9168 0.1815 -0.3557
vn 0.0017 0.3421 -0.9397
vn -0.8606 0.2269 -0.4559
vn 0.9983 0.0570 0.0109
vn -0.9962 0.0844 0.0232
vn 0.9192 -0.0550 0.3900
vn 0.1390 -0.0685 -0.9879
vn -0.9369 0.1832 0.2979
vn -0.9288 0.2694 -0.2546
vn -0.9710 -0.2381 -0.0223
vn -0.1286 0.0036 0.9917
vn -0.8517 0.1071 0.5130
vn -0.8431 -0.0324 0.5368
vn -0.4628 -0.1519 -0.8733
vn 0.4655 -0.8634 0.1946
vn -0.0493 -0.8416 0.5378
vn -0.8981 -0.1033 0.4276
vn -0.8518 0.1450 -0.5034
vn -1.0000 0.0059 0.0039
vn 0.0190 -0.2347 0.9719
vn 0.0819 0.2539 -0.9638
vn -0.1808 0.0509 0.9822
vn -0.9462 -0.0770 0.3142
vn -0.8469 0.0009 -0.5317
vn -0.9960 -0.0618 0.0644
vn 0.7367 -0.3082 -0.6019
vn -0.9925 0.0406 0.1155
vn -0.4288 -0.4787 -0.7662
vn 0.4689 0.5461 0.6942
vn -0.8913 0.2291 0.3912
vn -0.6227 0.4284 0.6548
vn 0.9863 -0.0308 -0.1622
vn 0.8700 -0.2150 -0.4437
vn -0.0453 -0.0333 -0.9984
vn -0.3738 0.1803 0.9098
vn -0.4651 0.2224 0.8569
vn -0.0857 -0.0127 -0.9962
vn -0.0974 0.1262 -0.9872
vn -0.5861 -0.7937 -0.1626
vn -0.5798 -0.8135 0.0447
vn -0.7023 -0.6688 -0.2437
vn 0.1224 -0.0355 -0.9918
vn -0.1821 0.0904 0.9791
vn -0.1820 0.0898 0.9792
vn 0.0895 0.0123 -0.9959
vn -0.0247 -0.1864 -0.9822
vn -0.9994 0.0346 0.0073
vn -0.0913 0.1117 -0.9895
vn -0.6287 -0.7307 0.2660
vn -0.0271 -0.4602 -0.8874
vn -0.9827 -0.1838 0.0241
vn -0.7264 -0.3759 -0.5753
vn -0.8007 -0.0114 0.5989
vn -0.7549 -0.1070 -0.6471
vn -0.3052 -0.9027 -0.3032
vn -0.5758 -0.7340 0.3602
vn -0.2011 -0.1522 0.9677
vn -0.8258 -0.2262 0.5166
vn -0.8019 -0.0005 -0.5975
vn -0.8732 0.1535 0.4625
vn -0.9898 -0.0398 0.1371
vn -0.0252 -0.0423 -0.9988
vn -0.0800 -0.9968 0.0005
vn -0.1001 -0.9950 0.0006
vn -0.0982 -0.9952 0.0006
vn -0.6355 -0.7718 0.0235
vn -0.0985 -0.8469 -0.5225
vn -0.1356 -0.1520 0.9790
vn -0.4927 0.0078 0.8702
vn -0.4708 -0.1455 0.8702
vn -0.2508 0.0399 0.9672
vn -0.2071 -0.4214 0.8829
vn 0.2280 0.0645 0.9715
vn -0.6939 -0.0514 -0.7182
vn 0.7886 0.4503 -0.4187
vn 0.5303 -0.7775 0.3382
vn 0.8197 0.2286 0.5253
vn 0.5752 -0.8071 0.1331
vn -0.0247 0.9765 0.2142
vn 0.1844 -0.1887 0.9646
vn 0.8382 -0.5396 0.0793
vn 0.6346 0.7113 -0.3022
vn 0.5484 -0.1035 -0.8298
vn 0.0086 0.0366 0.9993
vn 0.0351 0.9757 0.2165
vn 0.9639 0.2646 0.0304
vn -0.0542 0.3238 0.9446
vn -0.0016 0.9823 0.1871
vn -0.0874 0.6924 -0.7162
vn 0.8354 0.0574 0.5467
vn -0.8445 0.1043 -0.5253
vn -0.0320 0.3398 -0.9399
vn 0.7470 0.3279 -0.5783
vn -0.9977 -0.0586 0.0337
vn 0.9790 0.2022 -0.0256
vn -0.8323 -0.1340 0.5378
vn 0.0959 -0.1271 -0.9872
vn 0.8788 -0.1810 0.4416
vn 0.9417 0.3115 -0.1274
vn 0.9096 0.3998 0.1130
vn 0.1550 0.0021 0.9879
vn 0.4934 -0.3213 0.8083
vn 0.7724 -0.3945 0.4978
vn 0.6271 0.1367 -0.7669
vn -0.2251 -0.8430 -0.4886
vn -0.3810 -0.8333 -0.4005
vn 0.8386 0.0375 0.5435
vn 0.8308 0.1969 -0.5205
vn 0.9966 0.0810 0.0160
vn 0.0044 -0.1597 0.9872
vn -0.0505 0.2000 -0.9785
vn 0.1628 0.0508 0.9853
vn 0.8876 -0.0769 0.4542
vn 0.9185 -0.0367 -0.3937
vn 0.9790 -0.0918 0.1821
vn -0.4913 0.3628 -0.7918
vn 0.9527 -0.1879 0.2388
vn 0.5974 0.2163 -0.7722
vn -0.5809 -0.1162 0.8056
vn 0.7583 -0.2756 0.5908
vn 0.4380 -0.2899 0.8510
vn -0.9355 0.2375 -0.2616
vn -0.7563 0.3230 -0.5690
vn 0.0470 -0.0194 -0.9987
vn 0.2267 0.0589 0.9722
vn 0.1721 0.1212 0.9776
vn 0.0538 0.0489 -0.9974
vn 0.1680 0.0602 -0.9840
vn 0.6859 -0.7170 -0.1245
vn 0.5846 -0.8065 0.0885
vn 0.6939 -0.6863 -0.2177
vn 0.0254 -0.0197 -0.9995
vn 0.1447 0.0888 0.9855
vn 0.1442 0.0847 0.9859
vn 0.0339 0.0795 -0.9963
vn 0.0230 -0.1782 -0.9837
vn 0.9996 0.0125 0.0242
vn 0.1171 0.1090 -0.9871
vn 0.5236 -0.7580 0.3890
vn 0.0166 -0.4602 -0.8877
vn 0.9795 -0.1997 0.0266
vn 0.6717 -0.2941 -0.6800
vn 0.8018 -0.0233 0.5971
vn 0.7533 -0.1126 -0.6479
vn 0.2213 -0.8142 -0.5368
vn 0.7567 -0.5793 0.3030
vn 0.1995 -0.2326 0.9519
vn 0.8305 -0.2323 0.5063
vn 0.8121 -0.0342 -0.5826
vn 0.7671 0.1443 0.6251
vn 0.9953 -0.0924 0.0282
vn 0.0294 -0.0431 -0.9986
vn 0.0800 -0.9968 -0.0005
vn 0.0471 -0.9923 -0.1143
vn 0.0795 -0.9963 0.0318
vn 0.6234 -0.7816 0.0218
vn 0.0918 -0.8469 -0.5238
vn 0.2082 0.0196 0.9779
vn 0.4811 -0.0016 0.8767
vn 0.4710 -0.1487 0.8695
vn 0.2118 0.0134 0.9772
vn 0.2184 -0.4214 0.8802
vn -0.1379 0.0575 0.9888
vn -0.1514 0.0065 0.9884
vn -0.1629 -0.1009 0.9815
vn 0.1157 0.0617 0.9914
vn 0.1601 -0.0072 0.9871
vn 0.1754 -0.1009 0.9793
vn -0.1635 0.0381 0.9858
vn -0.1634 -0.0082 0.9865
vn -0.1506 -0.1238 0.9808
vn 0.1609 0.0297 0.9865
vn 0.1608 -0.0081 0.9870
vn 0.1591 -0.1315 0.9785
vn -0.9922 0.0381 0.1186
vn 0.8191 0.2262 -0.5271
vn 0.0015 0.3795 -0.9252
vn 0.0031 0.9397 0.3419
vn -0.8627 0.2359 -0.4473
vn 0.9995 0.0081 0.0320
vn -0.9975 0.0672 0.0213
vn -0.0110 -0.9776 -0.2101
vn 0.8569 -0.3628 0.3663
vn -0.9835 -0.1722 -0.0551
vn 0.9743 -0.2136 -0.0714
vn -0.8492 -0.0134 -0.5280
vn -0.0084 -0.4834 0.8753
vn 0.8658 -0.0648 -0.4962
vn -0.8463 -0.3465 0.4047
vn -0.0031 0.1664 -0.9861
vn 0.6985 -0.5614 -0.4437
vn -0.9117 0.3534 0.2096
vn 0.5387 -0.5997 -0.5917
vn 0.0049 0.9691 0.2468
vn -0.1816 0.9814 -0.0625
vn -0.0898 0.9915 0.0937
vn 0.3583 0.6325 -0.6868
vn -0.6152 0.3711 0.6955
vn -0.7368 -0.6419 0.2123
vn 0.7206 0.5573 -0.4125
vn -0.3279 -0.6300 -0.7040
vn 0.8703 -0.2965 -0.3933
vn 0.8905 -0.4550 0.0017
vn -0.5647 -0.1620 0.8092
vn -0.8513 -0.0617 0.5210
vn 0.2130 -0.9484 0.2350
vn -0.4141 -0.4712 -0.7788
vn -0.9690 -0.1621 0.1863
vn 0.6490 -0.3183 -0.6910
vn 0.8505 0.1379 -0.5075
vn 0.9769 0.1342 -0.1660
vn -0.6754 -0.0550 0.7354
vn -0.8519 -0.0518 0.5211
vn 0.5109 0.0169 0.8595
vn -0.5080 0.0868 -0.8570
vn -0.9856 -0.0354 0.1656
vn 0.5326 0.1465 -0.8336
vn 0.5208 0.1503 -0.8404
vn -0.9663 -0.0003 0.2573
vn -0.5223 0.1256 -0.8435
vn 0.5057 0.0576 0.8608
vn -0.8562 0.0040 0.5166
vn -0.6895 0.0045 0.7242
vn 0.9872 0.1423 -0.0714
vn 0.8510 0.1327 -0.5081
vn 0.8246 0.5615 0.0689
vn -0.8143 0.2902 0.5027
vn 0.8530 -0.4940 -0.1687
vn -0.4764 0.5892 -0.6525
vn -0.5300 -0.7517 0.3926
vn 0.3748 0.5330 0.7586
vn -0.5970 -0.7307 0.3310
vn 0.4467 -0.6812 0.5801
vn -0.0038 -0.3086 0.9512
vn 0.8322 -0.1409 0.5363
vn -0.9951 0.0408 0.0896
vn 0.9992 0.0365 0.0155
vn -0.8615 0.2371 -0.4491
vn 0.0026 0.3805 -0.9248
vn 0.8360 0.2183 -0.5034
vn -0.8645 -0.0976 0.4931
vn -0.9180 -0.0602 0.3920
vn 0.8960 -0.0996 0.4328
vn -0.0039 -0.2866 0.9580
vn -0.2822 -0.9437 -0.1729
vn 0.0030 0.9397 0.3419
vn 0.3087 -0.9346 -0.1768
vn 0.9935 -0.0059 0.1135
vn 0.0132 0.9411 0.3378
vn 0.9993 0.0276 -0.0271
vn 0.8002 -0.4428 0.4046
vn -0.8403 -0.3989 0.3672
vn -0.0086 -0.7371 0.6758
vn -0.9974 0.0680 0.0216
vn 0.9947 0.0830 0.0607
vn -0.8278 -0.5236 -0.2015
vn -0.0057 -0.9912 -0.1326
vn 0.1230 0.0904 -0.9883
vn 0.8598 -0.5107 -0.0071
vn -0.9889 0.0493 -0.1402
vn 0.9961 0.0268 0.0839
vn -0.1126 0.0464 0.9926
vn -0.7908 0.3232 0.5198
vn 0.9005 -0.4316 -0.0523
vn -0.9827 -0.1830 0.0287
vn -0.7934 0.1799 0.5815
vn -0.0751 0.5888 0.8048
vn 0.5776 -0.7476 0.3278
vn 0.7696 0.3370 0.5423
vn -0.0585 0.4342 0.8989
vn -0.5271 0.4919 -0.6929
vn 0.8040 -0.3150 0.5043
vn -0.3408 0.6087 -0.7165
vn -0.1832 -0.1491 0.9717
vn 0.0493 0.1269 0.9907
vn -0.0681 -0.0113 0.9976
vn -0.2961 0.8261 0.4794
vn 0.4136 -0.7783 0.4724
vn 0.6698 -0.4064 -0.6214
vn -0.7117 0.5717 0.4082
vn 0.5278 0.5804 -0.6202
vn -0.7602 0.2836 -0.5845
vn -0.9287 0.0753 -0.3631
vn -0.3725 0.8420 -0.3903
vn -0.7037 0.5359 -0.4664
vn 0.5745 0.7459 -0.3370
vn 0.6174 0.3476 -0.7057
vn 0.8454 -0.5164 0.1362
vn -0.3946 0.6178 -0.6801
vn -0.7366 0.6754 -0.0349
vn -0.9383 0.3447 -0.0285
vn 0.3908 -0.9183 0.0631
vn 0.7347 -0.6686 0.1152
vn -0.6090 -0.7931 -0.0079
vn 0.6027 0.7933 0.0858
vn 0.9350 -0.3301 0.1300
vn -0.3825 0.9239 -0.0039
vn -0.4000 0.9161 0.0289
vn 0.8991 -0.4043 0.1676
vn 0.6345 0.7593 0.1445
vn -0.6470 -0.7614 0.0398
vn 0.7472 -0.6416 0.1733
vn 0.5405 -0.8299 0.1383
vn -0.9710 0.2384 -0.0177
vn -0.7629 0.6454 -0.0372
vn -0.8952 0.1152 0.4305
vn 0.6683 -0.5940 0.4479
vn -0.6083 0.2912 -0.7383
vn 0.4920 0.6232 0.6079
vn 0.5565 -0.5409 -0.6307
vn -0.5691 -0.6360 0.5212
vn 0.6294 -0.4889 -0.6040
vn -0.4378 -0.5654 -0.6990
vn -0.0285 0.9945 0.1006
vn -0.7666 0.6401 -0.0515
vn 0.9982 -0.0429 0.0414
vn -0.9838 0.0931 -0.1534
vn 0.7444 -0.6674 0.0208
vn 0.0094 -0.9996 -0.0274
vn -0.8034 -0.5728 -0.1629
vn 0.7954 0.5981 0.0981
vn 0.9237 0.3759 0.0738
vn -0.8780 0.4621 -0.1245
vn 0.0203 0.9992 0.0350
vn 0.1622 0.0682 0.9844
vn -0.3543 0.0767 0.9320
vn -0.9804 0.1315 -0.1465
vn 0.1160 0.0940 -0.9888
vn -0.9895 -0.0128 -0.1440
vn -0.8239 0.5205 0.2240
vn 0.8066 0.4396 0.3952
vn -0.0416 0.8413 0.5389
vn 0.9928 -0.0918 0.0767
vn -0.9926 0.0350 0.1161
vn 0.8355 0.2320 -0.4981
vn 0.0018 0.3798 -0.9250
vn -0.8625 0.2363 -0.4476
vn 0.9995 0.0289 0.0137
vn -0.9981 0.0272 0.0560
vn -0.0137 -0.9773 -0.2114
vn 0.8572 -0.3650 0.3633
vn -0.9814 -0.1804 -0.0655
vn 0.9765 -0.2064 -0.0616
vn -0.8507 -0.0212 -0.5252
vn -0.0085 -0.4830 0.8756
vn 0.8628 -0.0434 -0.5037
vn -0.8482 -0.3544 0.3936
vn -0.0039 0.1693 -0.9856
vn -0.8888 0.3892 0.2420
vn 0.5300 -0.4726 -0.7041
vn 0.3440 0.5932 -0.7278
vn -0.5985 0.3327 0.7288
vn -0.6209 -0.7457 0.2419
vn 0.8324 -0.2342 -0.5023
vn 0.9456 -0.2424 -0.2170
vn -0.2396 -0.9362 0.2571
vn -0.7175 -0.2629 0.6450
vn 0.4772 0.0710 0.8759
vn -0.4679 -0.5348 -0.7036
vn -0.9358 -0.1912 0.2961
vn 0.6391 -0.3307 -0.6944
vn 0.8437 0.1364 -0.5192
vn 0.9903 0.1175 -0.0743
vn -0.5917 -0.0660 0.8034
vn -0.8560 -0.0528 0.5143
vn 0.5020 0.0178 0.8647
vn -0.5203 0.0880 -0.8494
vn -0.9673 -0.0326 0.2515
vn 0.5719 0.1520 -0.8061
vn 0.5292 0.1726 -0.8308
vn -0.9618 0.0225 0.2729
vn -0.6786 -0.0194 0.7342
vn 0.9910 0.1192 -0.0608
vn 0.7964 0.6035 0.0395
vn 0.7533 -0.6139 -0.2360
vn -0.5543 -0.6540 0.5149
vn -0.5971 -0.7307 0.3310
vn -0.0030 -0.3090 0.9511
vn 0.8787 -0.1306 0.4591
vn -0.9963 0.0821 0.0257
vn 0.9987 0.0151 0.0497
vn -0.8624 0.2368 -0.4474
vn 0.0018 0.3807 -0.9247
vn 0.8804 0.2048 -0.4278
vn -0.8649 -0.0975 0.4924
vn -0.9179 -0.0606 0.3923
vn 0.8849 -0.1238 0.4491
vn -0.0046 -0.2873 0.9578
vn -0.3660 -0.9151 -0.1690
vn 0.2369 -0.9551 -0.1781
vn 0.9934 -0.0043 0.1148
vn 0.0101 0.9385 0.3451
vn 0.9995 0.0293 0.0138
vn -0.9963 0.0641 -0.0570
vn 0.9948 0.0846 0.0571
vn -0.8137 -0.5506 -0.1866
vn -0.0055 -0.9912 -0.1322
vn 0.8600 -0.5103 -0.0069
vn -0.9875 0.0263 -0.1555
vn 0.9984 -0.0170 0.0542
vn -0.1100 0.0450 0.9929
vn -0.7731 0.3226 0.5462
vn -0.8895 -0.1637 0.4267
vn -0.2051 -0.3939 0.8960
vn -0.5913 0.0810 0.8024
vn -0.0608 0.6098 0.7902
vn 0.6745 0.2389 0.6985
vn 0.6928 0.3257 0.6434
vn -0.0710 0.4016 0.9131
vn -0.5271 0.4919 -0.6930
vn 0.7711 -0.3399 0.5383
vn -0.3313 0.7299 -0.5979
vn -0.3225 0.7917 0.5188
vn 0.4301 -0.7446 0.5105
vn 0.7733 -0.3855 -0.5033
vn -0.6204 0.5435 -0.5654
vn 0.7603 -0.2523 -0.5986
vn -0.3253 0.8253 -0.4615
vn 0.6908 -0.6142 0.3815
vn 0.6149 0.7869 -0.0530
vn 0.5138 0.5152 -0.6860
vn 0.9350 -0.3443 0.0846
vn -0.4316 0.6233 -0.6521
vn -0.7633 0.6453 -0.0312
vn -0.9700 0.2394 -0.0428
vn 0.5439 -0.8336 0.0960
vn 0.7560 -0.6448 0.1125
vn -0.6454 -0.7636 -0.0199
vn 0.6397 0.7623 0.0987
vn 0.9056 -0.4019 0.1351
vn -0.3997 0.9166 -0.0033
vn -0.3870 0.9221 0.0076
vn 0.8888 -0.4168 0.1905
vn 0.5494 -0.8195 0.1628
vn -0.9732 0.2264 -0.0402
vn -0.8686 0.1437 0.4742
vn -0.7338 0.2522 -0.6308
vn 0.5458 -0.6555 -0.5219
vn -0.4378 -0.5655 -0.6990
vn 0.0139 0.9961 0.0873
vn -0.8175 0.5700 -0.0818
vn 0.9965 0.0530 0.0643
vn -0.9846 0.0744 -0.1582
vn 0.8533 -0.5179 0.0597
vn -0.0189 -0.9996 -0.0199
vn -0.8342 -0.5282 -0.1587
vn 0.8725 0.4835 0.0711
vn 0.9239 0.3755 0.0735
vn -0.8690 0.4838 -0.1040
vn 0.0208 0.9991 0.0359
vn 0.2488 0.0629 0.9665
vn -0.4231 0.0741 0.9030
vn -0.9800 0.1323 -0.1483
vn 0.1129 0.0864 -0.9898
vn -0.9874 0.0263 -0.1560
vn 0.9984 -0.0169 0.0533
usemtl color_1
s off
f 94//1 58//1 91//1
f 43//2 49//2 51//2
f 8//3 10//3 2//3
f 88//4 3//4 6//4
f 7//5 13//5 15//5
f 88//6 98//6 99//6
f 179//7 11//7 16//7
f 172//8 115//8 276//8
f 5//9 47//9 1//9
f 3//10 50//10 46//10
f 86//11 41//11 89//11
f 230//12 4//12 54//12
f 180//13 16//13 14//13
f 7//14 9//14 8//14
f 4//15 12//15 13//15
f 180//16 12//16 173//16
f 2//17 11//17 171//17
f 13//18 35//18 15//18
f 16//19 33//19 34//19
f 10//20 33//20 11//20
f 10//21 40//21 37//21
f 14//22 34//22 36//22
f 9//23 35//23 40//23
f 12//24 36//24 39//24
f 89//25 57//25 92//25
f 59//26 44//26 60//26
f 41//27 59//27 57//27
f 60//28 42//28 58//28
f 172//29 90//29 85//29
f 6//30 46//30 45//30
f 6//31 48//31 5//31
f 1//32 49//32 41//32
f 44//33 50//33 42//33
f 43//34 52//34 44//34
f 7//35 54//35 4//35
f 53//36 8//36 2//36
f 8//37 56//37 7//37
f 13//38 39//38 38//38
f 229//39 2//39 171//39
f 216//40 91//40 90//40
f 56//41 58//41 54//41
f 57//42 55//42 53//42
f 59//43 56//43 55//43
f 51//44 77//44 78//44
f 48//45 80//45 47//45
f 49//46 80//46 77//46
f 50//47 79//47 46//47
f 48//48 83//48 81//48
f 45//49 79//49 83//49
f 52//50 82//50 50//50
f 51//51 84//51 52//51
f 235//52 93//52 271//52
f 90//53 58//53 42//53
f 3//54 90//54 42//54
f 215//55 92//55 235//55
f 174//56 89//56 215//56
f 1//57 87//57 5//57
f 5//58 88//58 6//58
f 86//59 98//59 87//59
f 93//60 57//60 53//60
f 94//61 230//61 54//61
f 236//62 94//62 91//62
f 93//63 229//63 271//63
f 110//64 285//64 101//64
f 108//65 102//65 103//65
f 174//66 97//66 86//66
f 85//67 99//67 115//67
f 285//68 104//68 101//68
f 103//69 105//69 106//69
f 102//70 104//70 105//70
f 108//71 118//71 117//71
f 110//72 102//72 109//72
f 105//73 112//73 113//73
f 116//74 114//74 111//74
f 279//75 111//75 300//75
f 103//76 116//76 118//76
f 97//77 109//77 98//77
f 115//78 108//78 117//78
f 99//79 109//79 108//79
f 278//80 110//80 97//80
f 303//81 114//81 113//81
f 112//82 303//82 113//82
f 301//83 111//83 114//83
f 106//84 113//84 114//84
f 289//85 112//85 104//85
f 95//86 276//86 115//86
f 107//87 118//87 100//87
f 96//88 118//88 116//88
f 95//89 117//89 107//89
f 96//90 279//90 312//90
f 274//91 234//91 228//91
f 217//92 223//92 213//92
f 182//93 178//93 168//93
f 266//94 169//94 263//94
f 177//95 185//95 170//95
f 266//96 281//96 265//96
f 179//97 183//97 171//97
f 172//98 307//98 263//98
f 221//99 175//99 167//99
f 220//100 214//100 169//100
f 213//101 264//101 267//101
f 170//102 230//102 228//102
f 180//103 188//103 179//103
f 181//104 177//104 178//104
f 170//105 184//105 173//105
f 184//106 180//106 173//106
f 183//107 168//107 171//107
f 207//108 185//108 187//108
f 188//109 205//109 183//109
f 205//110 182//110 183//110
f 209//111 181//111 182//111
f 186//112 206//112 188//112
f 212//113 187//113 181//113
f 184//114 208//114 186//114
f 233//115 267//115 270//115
f 238//116 217//116 237//116
f 237//117 213//117 233//117
f 234//118 218//118 238//118
f 268//119 172//119 263//119
f 176//120 220//120 169//120
f 222//121 176//121 175//121
f 223//122 167//122 213//122
f 224//123 218//123 214//123
f 218//124 225//124 217//124
f 177//125 228//125 232//125
f 178//126 227//126 168//126
f 177//127 231//127 178//127
f 185//128 211//128 184//128
f 168//129 229//129 171//129
f 269//130 216//130 268//130
f 228//131 238//131 232//131
f 231//132 233//132 227//132
f 232//133 237//133 231//133
f 225//134 255//134 223//134
f 258//135 222//135 221//135
f 223//136 258//136 221//136
f 257//137 224//137 220//137
f 222//138 261//138 219//138
f 219//139 257//139 220//139
f 260//140 226//140 224//140
f 262//141 225//141 226//141
f 273//142 235//142 271//142
f 234//143 268//143 214//143
f 169//144 268//144 263//144
f 270//145 215//145 235//145
f 267//146 174//146 215//146
f 167//147 265//147 264//147
f 175//148 266//148 265//148
f 281//149 264//149 265//149
f 233//150 273//150 227//150
f 230//151 274//151 228//151
f 274//152 236//152 269//152
f 273//153 229//153 227//153
f 297//154 285//154 296//154
f 288//155 295//155 294//155
f 280//156 174//156 264//156
f 307//157 266//157 263//157
f 290//158 285//158 286//158
f 288//159 291//159 287//159
f 287//160 290//160 286//160
f 310//161 294//161 309//161
f 287//162 297//162 295//162
f 291//163 304//163 290//163
f 308//164 306//164 292//164
f 279//165 299//165 308//165
f 308//166 288//166 310//166
f 295//167 280//167 281//167
f 309//168 282//168 307//168
f 294//169 281//169 282//169
f 297//170 278//170 280//170
f 306//171 303//171 305//171
f 304//172 303//172 302//172
f 301//173 299//173 300//173
f 292//174 305//174 291//174
f 304//175 289//175 290//175
f 275//176 276//176 311//176
f 283//177 309//177 293//177
f 277//178 310//178 283//178
f 309//179 275//179 293//179
f 279//180 277//180 312//180
f 94//181 54//181 58//181
f 43//182 41//182 49//182
f 8//183 9//183 10//183
f 88//184 85//184 3//184
f 7//185 4//185 13//185
f 88//186 87//186 98//186
f 179//187 171//187 11//187
f 172//188 85//188 115//188
f 5//189 48//189 47//189
f 3//190 42//190 50//190
f 86//191 1//191 41//191
f 230//192 173//192 4//192
f 180//193 179//193 16//193
f 7//194 15//194 9//194
f 4//195 173//195 12//195
f 180//196 14//196 12//196
f 2//197 10//197 11//197
f 13//198 38//198 35//198
f 16//199 11//199 33//199
f 10//200 37//200 33//200
f 10//201 9//201 40//201
f 14//202 16//202 34//202
f 9//203 15//203 35//203
f 12//204 14//204 36//204
f 89//205 41//205 57//205
f 59//206 43//206 44//206
f 41//207 43//207 59//207
f 60//208 44//208 42//208
f 172//209 216//209 90//209
f 6//210 3//210 46//210
f 6//211 45//211 48//211
f 1//212 47//212 49//212
f 44//213 52//213 50//213
f 43//214 51//214 52//214
f 7//215 56//215 54//215
f 53//216 55//216 8//216
f 8//217 55//217 56//217
f 13//218 12//218 39//218
f 229//219 53//219 2//219
f 216//220 236//220 91//220
f 56//221 60//221 58//221
f 57//222 59//222 55//222
f 59//223 60//223 56//223
f 51//224 49//224 77//224
f 48//225 81//225 80//225
f 49//226 47//226 80//226
f 50//227 82//227 79//227
f 48//228 45//228 83//228
f 45//229 46//229 79//229
f 52//230 84//230 82//230
f 51//231 78//231 84//231
f 235//232 92//232 93//232
f 90//233 91//233 58//233
f 3//234 85//234 90//234
f 215//235 89//235 92//235
f 174//236 86//236 89//236
f 1//237 86//237 87//237
f 5//238 87//238 88//238
f 86//239 97//239 98//239
f 93//240 92//240 57//240
f 94//241 272//241 230//241
f 236//242 272//242 94//242
f 93//243 53//243 229//243
f 110//244 296//244 285//244
f 108//245 109//245 102//245
f 174//246 278//246 97//246
f 85//247 88//247 99//247
f 285//248 289//248 104//248
f 103//249 102//249 105//249
f 102//250 101//250 104//250
f 108//251 103//251 118//251
f 110//252 101//252 102//252
f 105//253 104//253 112//253
f 116//254 106//254 114//254
f 279//255 116//255 111//255
f 103//256 106//256 116//256
f 97//257 110//257 109//257
f 115//258 99//258 108//258
f 99//259 98//259 109//259
f 278//260 296//260 110//260
f 303//261 301//261 114//261
f 112//262 302//262 303//262
f 301//263 300//263 111//263
f 106//264 105//264 113//264
f 289//265 302//265 112//265
f 95//266 311//266 276//266
f 107//267 117//267 118//267
f 96//268 100//268 118//268
f 95//269 115//269 117//269
f 96//270 116//270 279//270
f 274//271 269//271 234//271
f 217//272 225//272 223//272
f 182//273 181//273 178//273
f 266//274 176//274 169//274
f 177//275 187//275 185//275
f 266//276 282//276 281//276
f 179//277 188//277 183//277
f 172//278 276//278 307//278
f 221//279 222//279 175//279
f 220//280 224//280 214//280
f 213//281 167//281 264//281
f 170//282 173//282 230//282
f 180//283 186//283 188//283
f 181//284 187//284 177//284
f 170//285 185//285 184//285
f 184//286 186//286 180//286
f 183//287 182//287 168//287
f 207//288 210//288 185//288
f 188//289 206//289 205//289
f 205//290 209//290 182//290
f 209//291 212//291 181//291
f 186//292 208//292 206//292
f 212//293 207//293 187//293
f 184//294 211//294 208//294
f 233//295 213//295 267//295
f 238//296 218//296 217//296
f 237//297 217//297 213//297
f 234//298 214//298 218//298
f 268//299 216//299 172//299
f 176//300 219//300 220//300
f 222//301 219//301 176//301
f 223//302 221//302 167//302
f 224//303 226//303 218//303
f 218//304 226//304 225//304
f 177//305 170//305 228//305
f 178//306 231//306 227//306
f 177//307 232//307 231//307
f 185//308 210//308 211//308
f 168//309 227//309 229//309
f 269//310 236//310 216//310
f 228//311 234//311 238//311
f 231//312 237//312 233//312
f 232//313 238//313 237//313
f 225//314 256//314 255//314
f 258//315 259//315 222//315
f 223//316 255//316 258//316
f 257//317 260//317 224//317
f 222//318 259//318 261//318
f 219//319 261//319 257//319
f 260//320 262//320 226//320
f 262//321 256//321 225//321
f 273//322 270//322 235//322
f 234//323 269//323 268//323
f 169//324 214//324 268//324
f 270//325 267//325 215//325
f 267//326 264//326 174//326
f 167//327 175//327 265//327
f 175//328 176//328 266//328
f 281//329 280//329 264//329
f 233//330 270//330 273//330
f 230//331 272//331 274//331
f 274//332 272//332 236//332
f 273//333 271//333 229//333
f 297//334 286//334 285//334
f 288//335 287//335 295//335
f 280//336 278//336 174//336
f 307//337 282//337 266//337
f 290//338 289//338 285//338
f 288//339 292//339 291//339
f 287//340 291//340 290//340
f 310//341 288//341 294//341
f 287//342 286//342 297//342
f 291//343 305//343 304//343
f 308//344 299//344 306//344
f 279//345 300//345 299//345
f 308//346 292//346 288//346
f 295//347 297//347 280//347
f 309//348 294//348 282//348
f 294//349 295//349 281//349
f 297//350 296//350 278//350
f 306//351 301//351 303//351
f 304//352 305//352 303//352
f 301//353 306//353 299//353
f 292//354 306//354 305//354
f 304//355 302//355 289//355
f 275//356 307//356 276//356
f 283//357 310//357 309//357
f 277//358 308//358 310//358
f 309//359 307//359 275//359
f 279//360 308//360 277//360
usemtl color_2
f 95//361 298//361 311//361
f 284//362 107//362 100//362
f 284//363 96//363 312//363
f 298//364 275//364 311//364
f 293//365 284//365 283//365
f 277//366 284//366 312//366
f 95//367 107//367 298//367
f 284//368 298//368 107//368
f 284//369 100//369 96//369
f 298//370 293//370 275//370
f 293//371 298//371 284//371
f 277//372 283//372 284//372
usemtl color_3
f 160//373 157//373 154//373
f 148//374 19//374 24//374
f 147//375 18//375 19//375
f 23//376 20//376 22//376
f 17//376 19//376 18//376
f 17//376 22//376 24//376
f 143//377 17//377 18//377
f 148//378 22//378 150//378
f 146//379 23//379 17//379
f 161//380 155//380 162//380
f 39//381 32//381 30//381
f 35//382 31//382 40//382
f 36//383 27//383 32//383
f 37//384 31//384 26//384
f 159//376 154//376 153//376
f 38//385 30//385 28//385
f 33//386 27//386 34//386
f 38//387 29//387 35//387
f 37//388 25//388 33//388
f 123//389 141//389 139//389
f 63//390 131//390 64//390
f 124//391 141//391 125//391
f 61//392 66//392 68//392
f 65//393 64//393 67//393
f 64//394 68//394 67//394
f 65//395 134//395 132//395
f 62//396 129//396 130//396
f 119//397 136//397 127//397
f 68//398 134//398 67//398
f 119//399 140//399 124//399
f 78//400 76//400 84//400
f 84//401 73//401 82//401
f 79//402 75//402 83//402
f 81//403 75//403 71//403
f 79//404 73//404 74//404
f 77//405 70//405 69//405
f 80//406 71//406 70//406
f 78//407 69//407 72//407
f 76//408 125//408 123//408
f 76//409 121//409 73//409
f 75//410 126//410 122//410
f 75//411 120//411 71//411
f 74//412 121//412 126//412
f 70//413 124//413 69//413
f 71//414 119//414 70//414
f 72//415 124//415 125//415
f 141//416 132//416 134//416
f 136//417 128//417 127//417
f 140//418 128//418 132//418
f 137//419 130//419 142//419
f 136//420 129//420 131//420
f 138//421 130//421 129//421
f 139//422 133//422 137//422
f 141//423 135//423 139//423
f 66//424 135//424 68//424
f 61//425 131//425 129//425
f 121//426 139//426 137//426
f 63//427 132//427 128//427
f 126//428 138//428 122//428
f 62//429 133//429 66//429
f 122//430 136//430 120//430
f 126//431 137//431 142//431
f 28//432 145//432 144//432
f 30//433 150//433 145//433
f 31//434 149//434 146//434
f 27//435 150//435 32//435
f 31//436 143//436 26//436
f 26//437 147//437 25//437
f 27//438 147//438 148//438
f 28//439 149//439 29//439
f 157//440 153//440 154//440
f 158//441 152//441 156//441
f 156//442 153//442 155//442
f 162//443 157//443 163//443
f 164//444 151//444 165//444
f 161//445 158//445 156//445
f 165//446 158//446 166//446
f 164//376 153//376 152//376
f 156//447 157//447 155//447
f 20//376 159//376 164//376
f 22//448 166//448 150//448
f 145//449 166//449 161//449
f 20//376 165//376 22//376
f 144//450 163//450 149//450
f 21//444 160//444 159//444
f 144//451 161//451 162//451
f 23//452 163//452 160//452
f 354//453 351//453 357//453
f 342//454 191//454 341//454
f 341//455 190//455 337//455
f 192//456 195//456 194//456
f 191//456 189//456 190//456
f 194//456 189//456 196//456
f 337//457 189//457 340//457
f 194//458 342//458 344//458
f 340//459 195//459 343//459
f 349//460 355//460 356//460
f 202//461 208//461 211//461
f 212//462 201//462 207//462
f 204//463 206//463 208//463
f 198//464 212//464 209//464
f 353//456 348//456 354//456
f 210//465 202//465 211//465
f 199//466 205//466 206//466
f 207//467 200//467 210//467
f 205//468 198//468 209//468
f 317//469 335//469 319//469
f 325//470 241//470 242//470
f 335//471 318//471 319//471
f 244//472 239//472 246//472
f 243//473 242//473 241//473
f 246//474 242//474 245//474
f 243//475 328//475 245//475
f 240//476 323//476 239//476
f 313//477 330//477 314//477
f 245//478 329//478 246//478
f 334//479 313//479 318//479
f 254//480 256//480 262//480
f 260//481 254//481 262//481
f 261//482 252//482 257//482
f 259//483 253//483 261//483
f 252//484 260//484 257//484
f 255//485 248//485 258//485
f 258//486 249//486 259//486
f 256//487 247//487 255//487
f 254//488 319//488 250//488
f 315//489 254//489 251//489
f 253//490 320//490 252//490
f 314//491 253//491 249//491
f 252//492 315//492 251//492
f 318//493 248//493 247//493
f 313//494 249//494 248//494
f 250//495 318//495 247//495
f 335//496 326//496 334//496
f 322//497 330//497 321//497
f 334//498 322//498 321//498
f 324//499 331//499 336//499
f 325//500 332//500 330//500
f 332//501 324//501 336//501
f 327//502 333//502 331//502
f 329//503 335//503 333//503
f 329//504 244//504 246//504
f 239//505 325//505 242//505
f 315//506 333//506 317//506
f 241//507 326//507 243//507
f 332//508 320//508 316//508
f 327//509 240//509 244//509
f 330//510 316//510 314//510
f 320//511 331//511 315//511
f 200//512 339//512 202//512
f 339//513 204//513 202//513
f 203//514 343//514 201//514
f 344//515 199//515 204//515
f 198//516 340//516 203//516
f 341//517 198//517 197//517
f 342//518 197//518 199//518
f 201//519 338//519 200//519
f 351//520 347//520 349//520
f 346//521 352//521 350//521
f 347//522 350//522 349//522
f 351//523 356//523 357//523
f 345//456 358//456 359//456
f 355//524 352//524 360//524
f 352//525 359//525 360//525
f 358//456 347//456 353//456
f 350//526 351//526 352//526
f 192//456 353//456 193//456
f 360//527 194//527 344//527
f 339//528 360//528 344//528
f 359//456 192//456 194//456
f 357//529 338//529 343//529
f 193//456 354//456 195//456
f 338//530 355//530 339//530
f 195//531 357//531 343//531
f 160//532 163//532 157//532
f 148//533 147//533 19//533
f 147//534 143//534 18//534
f 23//376 21//376 20//376
f 17//376 24//376 19//376
f 17//376 23//376 22//376
f 143//535 146//535 17//535
f 148//536 24//536 22//536
f 146//537 149//537 23//537
f 161//538 156//538 155//538
f 39//539 36//539 32//539
f 35//540 29//540 31//540
f 36//541 34//541 27//541
f 37//542 40//542 31//542
f 159//376 160//376 154//376
f 38//543 39//543 30//543
f 33//544 25//544 27//544
f 38//545 28//545 29//545
f 37//546 26//546 25//546
f 123//389 125//389 141//389
f 63//547 128//547 131//547
f 124//548 140//548 141//548
f 61//392 62//392 66//392
f 65//393 63//393 64//393
f 64//394 61//394 68//394
f 65//549 67//549 134//549
f 62//550 61//550 129//550
f 119//551 120//551 136//551
f 68//398 135//398 134//398
f 119//399 127//399 140//399
f 78//552 72//552 76//552
f 84//553 76//553 73//553
f 79//554 74//554 75//554
f 81//555 83//555 75//555
f 79//556 82//556 73//556
f 77//557 80//557 70//557
f 80//558 81//558 71//558
f 78//559 77//559 69//559
f 76//560 72//560 125//560
f 76//561 123//561 121//561
f 75//562 74//562 126//562
f 75//563 122//563 120//563
f 74//564 73//564 121//564
f 70//565 119//565 124//565
f 71//566 120//566 119//566
f 72//567 69//567 124//567
f 141//568 140//568 132//568
f 136//569 131//569 128//569
f 140//418 127//418 128//418
f 137//419 133//419 130//419
f 136//420 138//420 129//420
f 138//570 142//570 130//570
f 139//571 135//571 133//571
f 141//423 134//423 135//423
f 66//572 133//572 135//572
f 61//425 64//425 131//425
f 121//573 123//573 139//573
f 63//427 65//427 132//427
f 126//574 142//574 138//574
f 62//429 130//429 133//429
f 122//575 138//575 136//575
f 126//431 121//431 137//431
f 28//576 30//576 145//576
f 30//577 32//577 150//577
f 31//578 29//578 149//578
f 27//579 148//579 150//579
f 31//580 146//580 143//580
f 26//581 143//581 147//581
f 27//582 25//582 147//582
f 28//583 144//583 149//583
f 157//584 155//584 153//584
f 158//585 151//585 152//585
f 156//586 152//586 153//586
f 162//587 155//587 157//587
f 164//444 152//444 151//444
f 161//588 166//588 158//588
f 165//589 151//589 158//589
f 164//376 159//376 153//376
f 156//590 158//590 157//590
f 20//376 21//376 159//376
f 22//591 165//591 166//591
f 145//449 150//449 166//449
f 20//376 164//376 165//376
f 144//450 162//450 163//450
f 21//444 23//444 160//444
f 144//451 145//451 161//451
f 23//592 149//592 163//592
f 354//593 348//593 351//593
f 342//594 196//594 191//594
f 341//595 191//595 190//595
f 192//456 193//456 195//456
f 191//456 196//456 189//456
f 194//456 195//456 189//456
f 337//596 190//596 189//596
f 194//597 196//597 342//597
f 340//598 189//598 195//598
f 349//599 350//599 355//599
f 202//600 204//600 208//600
f 212//601 203//601 201//601
f 204//602 199//602 206//602
f 198//603 203//603 212//603
f 353//456 347//456 348//456
f 210//604 200//604 202//604
f 199//605 197//605 205//605
f 207//606 201//606 200//606
f 205//607 197//607 198//607
f 317//608 333//608 335//608
f 325//609 322//609 241//609
f 335//610 334//610 318//610
f 244//472 240//472 239//472
f 243//473 245//473 242//473
f 246//474 239//474 242//474
f 243//611 326//611 328//611
f 240//612 324//612 323//612
f 313//613 321//613 330//613
f 245//478 328//478 329//478
f 334//479 321//479 313//479
f 254//614 250//614 256//614
f 260//615 251//615 254//615
f 261//616 253//616 252//616
f 259//617 249//617 253//617
f 252//618 251//618 260//618
f 255//619 247//619 248//619
f 258//620 248//620 249//620
f 256//621 250//621 247//621
f 254//622 317//622 319//622
f 315//623 317//623 254//623
f 253//624 316//624 320//624
f 314//625 316//625 253//625
f 252//626 320//626 315//626
f 318//627 313//627 248//627
f 313//628 314//628 249//628
f 250//629 319//629 318//629
f 335//630 328//630 326//630
f 322//631 325//631 330//631
f 334//498 326//498 322//498
f 324//499 327//499 331//499
f 325//500 323//500 332//500
f 332//632 323//632 324//632
f 327//633 329//633 333//633
f 329//503 328//503 335//503
f 329//634 327//634 244//634
f 239//505 323//505 325//505
f 315//635 331//635 333//635
f 241//507 322//507 326//507
f 332//636 336//636 320//636
f 327//509 324//509 240//509
f 330//510 332//510 316//510
f 320//637 336//637 331//637
f 200//638 338//638 339//638
f 339//639 344//639 204//639
f 203//640 340//640 343//640
f 344//641 342//641 199//641
f 198//642 337//642 340//642
f 341//643 337//643 198//643
f 342//644 341//644 197//644
f 201//645 343//645 338//645
f 351//646 348//646 347//646
f 346//647 345//647 352//647
f 347//648 346//648 350//648
f 351//649 349//649 356//649
f 345//456 346//456 358//456
f 355//650 350//650 352//650
f 352//651 345//651 359//651
f 358//456 346//456 347//456
f 350//652 349//652 351//652
f 192//456 358//456 353//456
f 360//653 359//653 194//653
f 339//528 355//528 360//528
f 359//456 358//456 192//456
f 357//529 356//529 338//529
f 193//456 353//456 354//456
f 338//530 356//530 355//530
f 195//654 354//654 357//654
