# Blender v2.83.5 OBJ File: 'bio.blend'
# www.blender.org
mtllib bio_000010.mtl
o Cube
v -0.945802 -1.143060 -0.375958
v -0.684717 0.656001 -0.432690
v -0.658953 -1.200187 0.555462
v -0.652633 1.108815 0.373125
v -1.009044 -1.127567 -0.050759
v -0.905048 -1.163161 0.308978
v -0.848506 0.991559 0.118137
v -0.859722 0.795177 -0.196000
v -0.791128 1.067486 -0.289741
v -0.693916 0.965551 -0.437988
v -0.159565 0.974735 -0.350510
v -0.138563 1.177138 0.131303
v -0.676672 1.278401 0.056007
v -0.063558 1.087531 0.002033
v -0.784309 1.191207 -0.094382
v -0.070146 1.033636 -0.169471
v -0.642974 2.227125 -2.157291
v -0.582842 2.113208 -2.176568
v -0.266611 2.102851 -2.203566
v -0.251139 2.473930 -2.157941
v -0.567408 2.483375 -2.131056
v -0.176438 2.359099 -2.178517
v -0.636871 2.373514 -2.139292
v -0.182542 2.212711 -2.196516
v -0.118873 1.936716 -0.983464
v -0.546187 1.956290 -0.965690
v -0.032208 2.063160 -0.940385
v -0.528077 2.374412 -0.823287
v -0.616762 2.250529 -0.860090
v -0.100731 2.353285 -0.835958
v -0.623952 2.084747 -0.915948
v -0.025510 2.217290 -0.887738
v -0.131858 1.967484 -0.981792
v -0.054074 2.049450 -0.884335
v -0.592622 2.194955 -0.768068
v -0.049088 2.147239 -0.767938
v -0.525557 2.002905 -0.988544
v -0.511932 2.268902 -0.669357
v -0.118211 2.235188 -0.663954
v -0.597987 2.090053 -0.894569
v -0.948496 -0.631763 -0.381779
v -0.712537 -0.689253 0.533738
v -0.966776 -0.611369 -0.084827
v -0.770398 -0.693257 0.221790
v -1.044030 -0.881003 0.392238
v -0.865968 -0.927332 0.465391
v -1.245368 -0.739391 0.017733
v -1.199270 -0.806835 0.215925
v -1.034907 -0.581674 -0.126245
v -0.659198 -0.761212 0.327766
v -0.887221 -0.577460 0.004132
v -0.742377 -0.650047 0.183187
v -0.745943 0.176204 -0.240545
v -0.698213 0.539888 0.652779
v -0.907503 0.276495 0.034204
v -0.881800 0.430346 0.379085
v -0.802847 -0.466821 -0.376624
v -0.630290 -0.463670 0.554929
v -0.903735 -0.459965 -0.068990
v -0.808775 -0.469582 0.285210
v -0.932974 -0.267123 2.319893
v -0.848616 -0.310992 2.259367
v -1.065740 -0.079579 2.418745
v -1.018839 -0.175607 2.382922
v -0.926402 0.029519 2.450161
v -0.709277 -0.201895 2.290782
v -0.815269 -0.016218 2.428821
v -0.729403 -0.107734 2.365792
v -1.223743 0.801486 1.090600
v -1.448871 0.630731 1.071022
v -1.388599 0.475120 1.042148
v -1.058897 0.728350 1.087018
v -0.866718 0.454678 0.933905
v -1.091724 0.284838 0.917588
v -1.247898 0.334564 0.967718
v -0.918440 0.588477 1.011696
v -1.209771 0.594449 0.724319
v -1.073885 0.587716 0.802877
v -1.075204 0.297651 1.113527
v -1.396493 0.472826 0.829472
v -1.346013 0.408002 0.958593
v -0.888880 0.419929 1.005908
v -1.219429 0.341129 1.071593
v -0.946691 0.518173 0.915955
v -0.550003 -1.256219 0.601907
v -0.788811 -1.269697 -0.479239
v -0.859773 -1.251065 -0.214809
v -0.683608 -1.316254 0.269650
v -0.415134 -0.605906 -0.524587
v -0.289700 -0.618993 0.544010
v -0.247989 -0.382816 0.584175
v -0.339078 -0.409591 -0.498359
v -0.327409 -0.050041 -0.412964
v -0.252283 0.045783 0.603727
v -0.232906 -1.474934 0.518330
v -0.403466 -2.489422 0.483556
v -0.580467 -1.467629 -0.574276
v -0.754717 -1.368788 -0.239417
v -0.585016 -1.385535 0.260505
v -0.424264 -2.255163 0.512933
v -0.543375 -2.295338 -0.534012
v -0.724327 -2.256526 -0.291759
v -0.662810 -2.256526 0.278818
v -0.505717 -2.533256 -0.415943
v -0.662989 -2.533256 -0.232010
v -0.610300 -2.533256 0.238905
v -0.418973 -1.868118 0.515627
v -0.653270 -1.865908 0.302793
v -0.720686 -1.865908 -0.311575
v -0.545726 -1.947233 -0.597755
v -0.378072 -2.629354 0.450141
v -0.421550 -2.629354 -0.204553
v -0.535208 -2.629354 -0.146019
v -0.490479 -2.629354 0.226333
v -0.418339 -1.368582 0.485626
v -0.451972 -2.533256 0.455169
v -0.471091 -1.865908 0.492460
v -0.476509 -2.256526 0.489706
v -1.141537 0.035013 2.227584
v -1.087168 -0.081505 2.184241
v -0.714352 -0.111570 2.074234
v -0.984267 -0.191178 2.108707
v -0.740309 -0.000166 2.163711
v -0.974555 0.165756 2.265234
v -0.843210 0.109507 2.239245
v -0.881336 -0.242313 2.036585
v -1.171075 0.028205 2.274020
v -1.141178 -0.020352 2.363501
v -0.965607 -0.265437 2.220183
v -0.850769 -0.329874 2.150327
v -1.080455 -0.143031 2.304486
v -0.954809 0.125569 2.405520
v -0.664400 -0.183953 2.192348
v -0.808174 0.070156 2.365876
v -0.693327 -0.052249 2.281573
v -1.109989 -0.101188 2.212099
v -0.674695 -0.142122 2.095830
v -0.990420 -0.228626 2.124330
v -0.706946 -0.006674 2.188243
v -0.977044 0.180125 2.317768
v -0.826515 0.120764 2.276012
v -0.868726 -0.294042 2.052083
v -0.575845 2.068440 -1.906174
v -0.544159 2.448328 -1.673063
v -0.203980 2.437850 -1.699441
v -0.639641 2.189157 -1.885741
v -0.235706 2.056995 -1.932672
v -0.150936 2.174920 -1.924659
v -0.617842 2.331916 -1.681785
v -0.129252 2.314932 -1.721041
v -0.209332 3.037812 -2.090096
v -0.263443 3.151998 -2.071275
v -0.497684 3.158874 -2.051377
v -0.550341 3.048487 -2.061045
v -0.492608 3.146353 -1.859952
v -0.240605 3.138635 -1.878819
v -0.548463 3.029383 -1.870193
v -0.186561 3.016365 -1.898657
v -0.562887 2.591795 -2.117725
v -0.632350 2.481935 -2.125962
v -0.215069 2.559068 -1.874433
v -0.555248 2.569546 -1.848055
v -0.628931 2.453134 -1.856776
v -0.246618 2.582351 -2.144610
v -0.171918 2.467520 -2.165186
v -0.140340 2.436150 -1.896033
v 0.811528 -1.189345 -0.565893
v 0.664268 1.159434 -0.305989
v 0.791354 -1.102898 0.366216
v 0.681962 0.550980 0.377253
v -0.021412 1.001898 -0.397592
v 0.051259 -1.234521 0.568485
v 0.026689 0.963821 0.416471
v -0.059293 -1.295973 -0.653431
v 0.954761 -1.124060 -0.307789
v 0.957464 -1.049167 0.023916
v 0.862247 0.726048 0.172875
v 0.857252 0.989662 -0.088083
v 0.002152 1.067299 -0.133690
v 0.014935 1.039380 0.188792
v 0.812081 1.138775 0.168289
v 0.707180 1.265145 0.046449
v 0.161756 1.190993 -0.061642
v 0.174445 0.889478 0.394894
v 0.714508 0.845150 0.453585
v 0.089046 1.001385 0.223060
v 0.814978 0.972681 0.329298
v 0.084399 1.091626 0.068557
v 0.640246 2.863916 2.127578
v 0.573653 2.948714 2.054496
v 0.256127 2.945469 2.056559
v 0.261217 2.661795 2.300540
v 0.578731 2.665737 2.297878
v 0.179973 2.746776 2.227267
v 0.642254 2.752008 2.223828
v 0.177964 2.858684 2.131018
v 0.214664 2.145425 1.045816
v 0.642842 2.157175 1.051602
v 0.135261 2.031650 1.146961
v 0.649193 1.800354 1.367722
v 0.730731 1.909095 1.271540
v 0.221026 1.787997 1.362975
v 0.728218 2.050229 1.146563
v 0.137602 1.900190 1.263436
v 0.232569 2.050695 0.969239
v 0.160729 1.948982 1.065927
v 0.708579 1.839445 1.183397
v 0.162769 1.832440 1.176699
v 0.627898 2.060809 0.973535
v 0.633462 1.743038 1.275752
v 0.238148 1.732017 1.272090
v 0.706380 1.965100 1.063856
v 0.800416 -0.788918 -0.628551
v 0.817212 -0.629201 0.221864
v -0.047848 -0.553740 -0.566735
v 0.048115 -0.553740 0.566700
v 0.877912 -0.867017 -0.457771
v 0.771300 -0.723795 -0.190360
v 1.067094 -0.653018 -0.220663
v 0.917531 -0.583794 -0.115538
v 1.173521 -1.003154 -0.451851
v 1.174513 -0.829367 -0.348649
v 0.922634 -1.053964 -0.552578
v 0.672045 -0.648337 -0.211296
v 0.803203 -0.931804 -0.494990
v 0.708108 -0.765317 -0.358440
v 0.674871 0.642614 -0.674208
v 0.718182 0.154860 0.116705
v -0.037658 0.415936 -0.497990
v 0.032092 0.399115 0.486055
v 0.856513 0.460732 -0.475781
v 0.865534 0.256791 -0.178184
v 0.664929 -0.501248 -0.651817
v 0.722142 -0.480710 0.238437
v -0.047192 -0.383092 -0.557935
v 0.047275 -0.383092 0.557925
v 0.820716 -0.554530 -0.461557
v 0.818844 -0.522833 -0.135206
v 1.184242 1.570366 -1.132555
v 1.101469 1.540611 -1.062075
v 1.291433 1.593666 -1.357363
v 1.259367 1.591348 -1.249332
v 1.140329 1.628142 -1.448376
v 0.950365 1.575087 -1.153088
v 1.038607 1.641717 -1.382301
v 0.963482 1.620736 -1.265524
v 1.047602 0.105093 -1.887599
v 1.295345 0.073826 -1.747118
v 1.262955 0.091535 -1.573848
v 0.901948 0.150001 -1.783236
v 0.744514 0.098951 -1.438202
v 0.992451 0.070234 -1.298686
v 1.142360 0.079355 -1.392517
v 0.781323 0.137043 -1.602407
v 1.016602 -0.202491 -1.669404
v 0.898362 -0.103104 -1.631167
v 1.000894 0.188398 -1.319348
v 1.236401 -0.133195 -1.577264
v 1.219545 -0.000005 -1.495025
v 0.780981 0.117059 -1.411865
v 1.126502 0.127504 -1.395045
v 0.805259 0.024699 -1.528999
v 0.690090 -1.188365 0.456948
v 0.645350 -1.290265 -0.618464
v 0.771799 -1.252209 -0.398673
v 0.736810 -1.261641 0.092357
v 0.311172 -0.644389 -0.546262
v 0.389513 -0.599193 0.488745
v 0.334556 -0.408696 0.443424
v 0.240461 -0.399087 -0.572031
v -0.041744 0.033190 -0.528774
v 0.038947 0.011194 0.526182
v 0.240407 0.083415 -0.614870
v 0.318876 -0.044610 0.369302
v 0.324280 -1.474934 0.465951
v 0.049130 -1.319960 0.551710
v 0.473815 -2.489422 0.414862
v -0.059246 -1.471856 -0.673147
v 0.040311 -2.573923 0.514802
v 0.449580 -1.471429 -0.658020
v 0.670839 -1.361232 -0.390582
v 0.636984 -1.346730 0.118718
v 0.500545 -2.255163 0.438641
v 0.042972 -2.256526 0.548794
v -0.046002 -2.295338 -0.587487
v 0.449803 -2.295338 -0.614654
v 0.665492 -2.256526 -0.407864
v 0.699401 -2.256526 0.165826
v -0.036372 -2.533256 -0.464501
v 0.434402 -2.533256 -0.489920
v 0.617743 -2.533256 -0.334140
v 0.640217 -2.533256 0.140020
v 0.500296 -1.868118 0.436563
v 0.696565 -1.865908 0.179592
v 0.650345 -1.865908 -0.438427
v -0.051891 -1.947233 -0.653302
v 0.435463 -1.947233 -0.681686
v 0.043411 -1.865908 0.551997
v 0.443529 -2.629354 0.385807
v 0.038480 -2.670021 0.491420
v 0.013797 -2.670021 0.176206
v -0.019089 -2.670021 -0.243781
v -0.004102 -2.670021 -0.052387
v 0.384573 -2.629354 -0.267675
v 0.505957 -2.629354 -0.227545
v 0.519730 -2.629354 0.147231
v 0.515342 -1.342760 0.394938
v 0.517311 -2.533256 0.379271
v 0.548436 -1.865908 0.403786
v 0.548792 -2.256526 0.406821
v 0.046568 -1.473690 0.528058
v 0.040785 -2.528728 0.520860
v 1.309868 1.369883 -1.428074
v 1.273431 1.366650 -1.297410
v 0.901132 1.347617 -1.183270
v 1.183401 1.341506 -1.157464
v 0.918843 1.401868 -1.316813
v 1.128785 1.411199 -1.537144
v 1.008873 1.427013 -1.456759
v 1.082215 1.306300 -1.074200
v 1.347487 1.409338 -1.438230
v 1.343233 1.511755 -1.410824
v 1.198799 1.468304 -1.113029
v 1.089151 1.440791 -1.015867
v 1.299281 1.496368 -1.269221
v 1.141127 1.557869 -1.532557
v 0.887045 1.486905 -1.137600
v 1.004009 1.563738 -1.447070
v 0.903528 1.535674 -1.290877
v 1.304042 1.392790 -1.289411
v 0.872544 1.383466 -1.153773
v 1.199429 1.363572 -1.126798
v 0.892018 1.433712 -1.311958
v 1.137072 1.457348 -1.564967
v 0.996631 1.462930 -1.474572
v 1.082958 1.335457 -1.027036
v 0.588486 2.778945 1.839731
v 0.594323 2.349777 1.964029
v 0.253015 2.343881 1.964952
v 0.659128 2.689088 1.917172
v 0.247164 2.773787 1.840018
v 0.168746 2.680825 1.919789
v 0.661713 2.441195 1.885560
v 0.171293 2.435031 1.886371
v 0.250615 2.230086 2.671801
v 0.311187 2.144870 2.745228
v 0.546344 2.147881 2.743178
v 0.592993 2.233961 2.669254
v 0.557574 2.014837 2.605340
v 0.304795 2.009943 2.605604
v 0.607063 2.106053 2.527005
v 0.243841 2.101328 2.526870
v 0.580218 2.582854 2.369164
v 0.643741 2.669125 2.295114
v 0.254039 2.392574 2.172477
v 0.595348 2.398470 2.171555
v 0.662737 2.489888 2.093086
v 0.262705 2.578912 2.371826
v 0.181460 2.663893 2.298553
v 0.172318 2.483724 2.093897
vn -0.0665 -0.0461 0.9967
vn 0.5975 0.4084 -0.6900
vn -0.8131 -0.0341 -0.5811
vn -0.4848 -0.7950 0.3647
vn -0.8017 0.5371 0.2624
vn -0.5573 -0.8144 0.1619
vn -0.3310 0.9224 -0.1990
vn -0.1182 -0.1885 0.9749
vn -0.8564 -0.4962 -0.1429
vn 0.2156 0.4497 0.8668
vn -0.2581 -0.0124 -0.9660
vn 0.0363 0.4385 0.8980
vn 0.4095 0.9102 0.0626
vn -0.9725 0.2107 -0.0995
vn 0.1009 0.8805 0.4632
vn 0.6035 0.7655 0.2229
vn -0.3458 0.7237 -0.5972
vn -0.8382 0.4051 0.3651
vn 0.8960 -0.2650 -0.3563
vn -0.0337 -0.5356 -0.8438
vn -0.8656 -0.1178 -0.4866
vn 0.9990 -0.0338 -0.0278
vn -0.9868 0.1504 -0.0608
vn 0.8910 0.2617 0.3710
vn -0.2736 0.2307 -0.9338
vn -0.9413 -0.2313 0.2461
vn -0.7217 0.6451 -0.2510
vn -0.8108 0.2457 0.5312
vn 0.0529 0.0689 0.9962
vn -0.4369 -0.4458 0.7813
vn -0.7813 -0.6017 0.1663
vn -0.9478 -0.0086 -0.3188
vn -0.5992 -0.7914 0.1213
vn 0.3441 -0.7397 -0.5782
vn -0.8178 0.3053 0.4878
vn -0.8296 -0.1131 -0.5468
vn -0.9983 0.0587 -0.0011
vn 0.0391 0.5861 0.8093
vn -0.0364 0.1697 -0.9848
vn -0.0350 -0.1615 0.9862
vn -0.8041 -0.1114 0.5840
vn -0.8487 0.0691 -0.5243
vn -0.9891 -0.0922 0.1149
vn 0.4367 0.5552 -0.7078
vn -0.9640 -0.2202 0.1493
vn -0.6316 0.3905 -0.6698
vn 0.6693 -0.2549 0.6979
vn -0.7174 -0.4244 0.5525
vn -0.3764 -0.4908 0.7858
vn 0.9054 0.3296 -0.2675
vn 0.7804 0.4245 -0.4592
vn -0.3921 0.0694 -0.9173
vn -0.0092 -0.0902 0.9959
vn -0.0308 0.0392 0.9988
vn -0.2042 0.0512 -0.9776
vn -0.1296 0.1170 -0.9846
vn -0.6983 -0.7085 -0.1020
vn -0.5573 -0.8265 0.0793
vn -0.7529 -0.6391 -0.1570
vn -0.2664 0.2221 -0.9379
vn 0.2436 0.1243 0.9619
vn 0.2525 -0.0416 0.9667
vn -0.3940 0.0779 -0.9158
vn -0.1052 -0.1798 -0.9781
vn -0.9939 0.0176 0.1091
vn -0.2185 0.2258 -0.9493
vn -0.4008 -0.8424 0.3602
vn -0.0952 -0.4546 -0.8856
vn -0.9736 -0.2005 0.1089
vn -0.7262 -0.2950 -0.6209
vn -0.7212 0.0051 0.6927
vn -0.8553 -0.0183 -0.5177
vn -0.2656 -0.8146 -0.5157
vn -0.7284 -0.5793 0.3658
vn -0.1184 -0.2326 0.9653
vn -0.7413 -0.1474 0.6548
vn -0.8863 0.0066 -0.4631
vn -0.8035 0.0933 0.5879
vn -0.9329 0.1609 0.3221
vn -0.1860 0.0346 -0.9819
vn -0.0780 -0.9969 0.0094
vn -0.0566 -0.9923 -0.1099
vn -0.0765 -0.9963 0.0384
vn -0.6192 -0.7817 0.0744
vn -0.0414 -0.9157 -0.3998
vn -0.1450 0.0510 0.9881
vn -0.4062 -0.0008 0.9138
vn -0.3963 -0.1482 0.9061
vn -0.3932 0.1799 0.9017
vn -0.0945 -0.1313 0.9868
vn 0.4651 0.1693 0.8689
vn 0.6895 -0.4873 -0.5358
vn 0.7874 0.5574 -0.2631
vn 0.7376 -0.6375 0.2226
vn 0.8187 -0.2274 0.5273
vn 0.7346 -0.6774 0.0393
vn -0.5619 0.8132 -0.1514
vn 0.1826 -0.5373 0.8234
vn 0.4658 -0.8842 -0.0348
vn 0.9400 -0.1454 -0.3086
vn -0.1575 0.0289 -0.9871
vn 0.2572 -0.5145 0.8180
vn -0.4888 0.8673 0.0945
vn 0.9872 0.1211 0.1035
vn 0.3742 0.5211 0.7671
vn 0.3314 0.9005 0.2817
vn -0.1491 0.8942 -0.4221
vn 0.8677 -0.2907 0.4031
vn -0.8947 0.3713 -0.2482
vn 0.0228 0.7670 -0.6412
vn 0.8553 0.4272 -0.2932
vn -0.9983 0.0321 0.0488
vn 0.9961 0.0694 0.0537
vn -0.9218 -0.2541 0.2927
vn -0.2203 -0.1645 -0.9615
vn 0.9432 0.1761 0.2817
vn 0.7749 0.3209 -0.5446
vn 0.9749 -0.2144 -0.0594
vn 0.1696 0.0333 0.9850
vn 0.8662 0.2102 0.4533
vn 0.8036 -0.5819 0.1248
vn 0.2848 -0.1405 -0.9482
vn -0.6191 -0.7476 0.2405
vn -0.3281 -0.8809 0.3410
vn 0.8965 -0.2613 0.3577
vn 0.8197 0.3434 -0.4584
vn 0.9999 0.0073 -0.0118
vn -0.1334 -0.7099 0.6915
vn -0.2871 0.1695 -0.9428
vn 0.2497 0.2917 0.9233
vn 0.8982 -0.0296 0.4386
vn 0.7284 -0.0197 -0.6849
vn 0.9978 -0.0360 -0.0549
vn -0.7355 -0.5075 -0.4488
vn 0.9990 -0.0266 0.0352
vn 0.3732 -0.7440 -0.5543
vn -0.3928 0.7862 0.4771
vn 0.8968 0.3463 0.2755
vn 0.6169 0.6423 0.4548
vn -0.9820 -0.1058 -0.1566
vn -0.9145 -0.2961 -0.2758
vn -0.0449 0.0704 -0.9965
vn 0.5255 0.2455 0.8146
vn 0.5351 0.2291 0.8131
vn -0.0460 0.0516 -0.9976
vn 0.0853 0.1143 -0.9898
vn 0.5510 -0.8158 -0.1758
vn 0.5653 -0.8245 0.0244
vn 0.6929 -0.6628 -0.2839
vn -0.1119 -0.0185 -0.9935
vn 0.4979 0.0950 0.8620
vn 0.3781 0.2003 0.9038
vn -0.2713 0.1093 -0.9563
vn -0.0571 -0.1864 -0.9808
vn 0.9967 0.0328 -0.0745
vn 0.0476 0.1637 -0.9854
vn 0.6658 -0.7104 0.2281
vn -0.0485 -0.4613 -0.8859
vn 0.9811 -0.1847 -0.0580
vn 0.6756 -0.3762 -0.6341
vn 0.8343 0.0050 0.5513
vn 0.7530 -0.0223 -0.6577
vn 0.2786 -0.9027 -0.3279
vn 0.6040 -0.7341 0.3103
vn 0.2821 -0.1522 0.9472
vn 0.8387 -0.1476 0.5242
vn 0.7640 0.0301 -0.6445
vn 0.9056 0.1504 0.3966
vn 0.9907 0.1210 0.0624
vn 0.0296 0.0488 -0.9984
vn 0.0785 -0.9969 -0.0029
vn 0.0998 -0.9950 -0.0078
vn 0.0979 -0.9952 -0.0077
vn 0.6349 -0.7720 -0.0301
vn -0.0216 -0.9159 -0.4009
vn 0.2151 -0.1520 0.9647
vn 0.5507 0.0048 0.8347
vn 0.5418 -0.1458 0.8278
vn 0.5474 0.1840 0.8164
vn 0.2469 -0.1313 0.9601
vn 0.0021 -0.0969 0.9953
vn 0.4179 0.9078 -0.0366
vn -0.8305 0.0176 -0.5567
vn -0.5429 -0.7607 0.3558
vn -0.7703 0.5362 0.3451
vn -0.7173 -0.6757 0.1699
vn -0.2501 0.9503 -0.1856
vn 0.0651 -0.6797 0.7306
vn -0.8524 -0.5225 0.0204
vn -0.9708 -0.1109 -0.2127
vn -0.4328 0.1833 -0.8827
vn 0.2430 0.1209 0.9625
vn -0.2896 0.9162 -0.2768
vn -0.9729 0.2100 -0.0966
vn 0.1429 0.8305 0.5384
vn 0.6853 0.7210 -0.1021
vn 0.1617 -0.0121 -0.9868
vn -0.8321 0.4110 0.3723
vn 0.8523 -0.2974 -0.4302
vn 0.1496 -0.4824 -0.8631
vn -0.8443 -0.1456 -0.5157
vn 0.9994 -0.0289 -0.0186
vn -0.9875 0.1392 -0.0736
vn 0.9026 0.2449 0.3540
vn -0.2615 0.2600 -0.9295
vn -0.7784 0.2646 0.5692
vn -0.9168 0.3905 -0.0833
vn -0.9595 -0.2159 0.1807
vn -0.0675 0.0023 0.9977
vn -0.6951 -0.3138 0.6468
vn -0.7440 -0.4979 0.4456
vn -0.6567 0.2170 -0.7222
vn 0.1941 -0.7206 -0.6657
vn 0.7651 -0.2996 -0.5700
vn -0.8465 0.2649 0.4618
vn -0.8746 -0.1271 -0.4679
vn -0.9942 0.1039 0.0277
vn 0.0012 0.6008 0.7994
vn -0.2180 -0.3387 -0.9153
vn 0.0885 0.0516 0.9947
vn -0.8262 -0.1244 0.5495
vn -0.9386 0.1489 -0.3111
vn -0.9654 -0.0410 0.2577
vn 0.5473 0.5424 -0.6374
vn -0.9367 -0.2579 0.2367
vn -0.6912 0.3406 -0.6373
vn 0.6166 -0.2984 0.7285
vn -0.7658 -0.3929 0.5090
vn -0.4373 -0.4778 0.7619
vn 0.9169 0.3145 -0.2458
vn 0.7160 0.4691 -0.5169
vn -0.2147 0.2323 -0.9487
vn -0.0415 -0.1604 0.9862
vn -0.2930 0.2045 0.9340
vn -0.1377 0.1834 -0.9733
vn -0.2296 0.0629 -0.9712
vn -0.6727 -0.7286 -0.1292
vn -0.5690 -0.8166 0.0970
vn -0.7190 -0.6725 -0.1756
vn 0.2674 0.1038 0.9580
vn 0.0883 0.0818 0.9927
vn -0.3565 0.0515 -0.9329
vn -0.1098 -0.1864 -0.9763
vn -0.9941 0.0147 0.1072
vn -0.1844 0.1094 -0.9767
vn -0.5169 -0.7816 0.3491
vn -0.0914 -0.4602 -0.8831
vn -0.9754 -0.1935 0.1052
vn -0.7699 -0.3773 -0.5147
vn -0.7493 -0.0223 0.6619
vn -0.8046 -0.1122 -0.5831
vn -0.3274 -0.9025 -0.2799
vn -0.5473 -0.7348 0.4007
vn -0.1312 -0.1522 0.9796
vn -0.7849 -0.2318 0.5746
vn -0.8572 -0.0370 -0.5136
vn -0.7118 0.1613 0.6837
vn -0.9906 -0.0836 0.1087
vn -0.1117 -0.0432 -0.9928
vn -0.0798 -0.9968 0.0062
vn -0.0998 -0.9950 0.0078
vn -0.0979 -0.9952 0.0077
vn -0.6294 -0.7739 0.0704
vn -0.1357 -0.8469 -0.5141
vn -0.0337 -0.1514 0.9879
vn -0.3985 -0.1489 0.9050
vn -0.1568 0.0302 0.9872
vn -0.1433 -0.4214 0.8955
vn 0.4866 0.1944 0.8517
vn 0.7264 0.4768 0.4950
vn 0.8307 0.5322 -0.1632
vn 0.7109 -0.6606 0.2413
vn 0.8426 -0.1639 0.5130
vn 0.6572 -0.7509 0.0651
vn -0.6514 0.7380 0.1762
vn 0.3045 -0.1908 0.9332
vn 0.6472 -0.3920 0.6538
vn -0.4159 0.6709 0.6140
vn 0.3717 -0.1334 -0.9187
vn 0.1360 0.1224 0.9831
vn 0.2085 0.8472 0.4886
vn 0.9868 0.1211 0.1072
vn -0.1241 -0.2363 0.9637
vn 0.4630 0.8302 0.3105
vn -0.0751 0.9576 -0.2781
vn 0.8680 -0.2905 0.4028
vn -0.8877 0.3806 -0.2592
vn -0.0123 0.7583 -0.6518
vn 0.8561 0.4261 -0.2924
vn -0.9983 0.0306 0.0505
vn 0.9962 0.0689 0.0540
vn -0.8773 -0.3127 0.3641
vn -0.2143 -0.1786 -0.9603
vn 0.9709 -0.2376 0.0286
vn 0.9244 0.1650 -0.3440
vn 0.8395 0.5197 0.1587
vn 0.2231 0.0036 0.9748
vn 0.6344 0.2713 0.7238
vn 0.8299 0.1083 0.5473
vn 0.4035 -0.2444 -0.8817
vn -0.6069 -0.6879 0.3981
vn 0.1139 -0.5904 0.7991
vn 0.8234 -0.2574 0.5058
vn 0.8273 0.3313 -0.4536
vn 0.9997 0.0196 -0.0169
vn 0.0120 -0.6747 0.7380
vn -0.0244 0.5798 -0.8144
vn 0.3736 0.0495 0.9263
vn 0.9682 0.0529 0.2446
vn 0.7682 -0.0360 -0.6391
vn 0.9982 -0.0591 0.0115
vn -0.6497 -0.5872 -0.4827
vn 0.9935 0.0702 0.0898
vn 0.4471 -0.7291 -0.5182
vn -0.4419 0.7741 0.4534
vn 0.8672 0.3867 0.3138
vn 0.5971 0.6538 0.4648
vn -0.9868 -0.0838 -0.1385
vn -0.8686 -0.3629 -0.3375
vn -0.2769 -0.0850 -0.9571
vn 0.4884 0.3328 0.8066
vn 0.5274 0.2212 0.8203
vn 0.0327 -0.0951 -0.9949
vn 0.0480 0.1355 -0.9896
vn 0.6150 -0.7750 -0.1452
vn 0.7095 -0.6886 0.1497
vn 0.6813 -0.6738 -0.2860
vn -0.2041 -0.0866 -0.9751
vn 0.5013 0.0978 0.8597
vn 0.4994 0.0800 0.8627
vn -0.3039 0.0796 -0.9494
vn -0.0537 -0.1909 -0.9801
vn 0.9982 0.0093 -0.0590
vn 0.0294 0.1114 -0.9933
vn 0.5829 -0.7672 0.2677
vn -0.0479 -0.4602 -0.8865
vn 0.9777 -0.2048 -0.0463
vn 0.6176 -0.3002 -0.7269
vn 0.8480 -0.0125 0.5299
vn 0.6981 -0.1076 -0.7079
vn 0.1809 -0.8173 -0.5471
vn 0.7765 -0.5793 0.2480
vn 0.2672 -0.2326 0.9351
vn 0.8663 -0.2268 0.4450
vn 0.7476 0.0108 -0.6640
vn 0.8327 0.0620 0.5502
vn 0.9967 -0.0334 -0.0745
vn -0.0581 -0.0425 -0.9974
vn 0.0798 -0.9968 -0.0062
vn 0.0388 -0.9923 -0.1174
vn 0.0816 -0.9963 0.0261
vn 0.6225 -0.7823 -0.0229
vn 0.0540 -0.8469 -0.5290
vn 0.3204 0.0452 0.9462
vn 0.5626 0.0069 0.8267
vn 0.5359 -0.1438 0.8320
vn 0.3258 0.0366 0.9447
vn 0.2809 -0.4214 0.8623
vn -0.0350 0.0612 0.9975
vn -0.0765 -0.0059 0.9970
vn -0.0921 -0.1009 0.9906
vn 0.2181 0.0577 0.9742
vn 0.2340 0.0054 0.9722
vn 0.2452 -0.1009 0.9642
vn -0.0785 0.0303 0.9965
vn -0.0784 -0.0081 0.9969
vn -0.0762 -0.1307 0.9885
vn 0.2450 0.0372 0.9688
vn 0.2449 -0.0082 0.9695
vn 0.2326 -0.1245 0.9646
vn -0.9898 0.1405 0.0238
vn 0.7874 -0.5914 -0.1738
vn -0.0461 -0.9858 -0.1616
vn -0.0803 0.1249 -0.9889
vn -0.8868 -0.4591 -0.0531
vn 0.9947 -0.0042 -0.1030
vn -0.9991 0.0395 0.0178
vn 0.0777 0.0121 0.9969
vn 0.8908 0.3273 0.3153
vn -0.5887 -0.2350 0.7734
vn 0.9815 -0.1651 0.0966
vn 0.6393 0.0914 0.7635
vn 0.0575 0.8263 0.5603
vn 0.6722 -0.7358 0.0823
vn -0.7810 0.4224 0.4600
vn 0.0398 -0.0375 0.9985
vn 0.4770 0.7561 -0.4481
vn -0.7642 -0.5171 0.3856
vn 0.2931 0.8688 -0.3991
vn 0.2664 -0.5651 0.7808
vn 0.0454 -0.3296 0.9430
vn 0.1585 -0.4548 0.8764
vn 0.3935 0.4806 0.7837
vn -0.4051 -0.8995 0.1638
vn -0.8279 -0.1297 -0.5457
vn 0.7638 0.3380 0.5499
vn -0.5635 0.7896 -0.2427
vn 0.7188 0.4420 -0.5367
vn -0.9224 -0.1495 -0.3561
vn 0.2620 0.9560 -0.1322
vn -0.5891 -0.7496 0.3019
vn -0.5519 0.8339 -0.0080
vn -0.5197 0.7351 -0.4353
vn -0.9294 -0.3671 0.0385
vn 0.3585 0.8290 -0.4292
vn 0.7773 0.6007 0.1868
vn 0.9400 0.3386 0.0426
vn -0.5601 -0.7940 -0.2364
vn -0.7344 -0.6660 -0.1307
vn 0.6151 -0.6624 -0.4277
vn -0.5552 0.6765 0.4839
vn -0.9275 -0.3696 0.0561
vn 0.4266 0.8277 0.3647
vn 0.4152 0.8263 0.3806
vn -0.8925 -0.4477 0.0552
vn -0.5942 0.6069 0.5279
vn 0.6235 -0.6909 -0.3660
vn -0.7482 -0.6607 -0.0600
vn -0.5580 -0.8127 -0.1677
vn 0.9724 0.2333 -0.0026
vn 0.7764 0.6035 0.1814
vn 0.9340 -0.0781 0.3486
vn -0.6431 -0.7397 0.1980
vn 0.6808 0.5165 -0.5194
vn -0.4144 0.2799 0.8660
vn -0.6287 -0.2091 -0.7490
vn 0.5938 -0.7947 0.1259
vn -0.6972 -0.1754 -0.6951
vn 0.3539 -0.1882 -0.9161
vn 0.0373 0.9956 0.0859
vn 0.8648 0.4991 -0.0545
vn -0.9934 0.1116 0.0281
vn 0.9923 -0.0009 -0.1236
vn -0.8857 -0.4634 -0.0273
vn -0.0504 -0.9916 -0.1194
vn 0.8388 -0.5203 -0.1603
vn -0.8456 0.5312 0.0537
vn -0.9031 0.4263 0.0516
vn 0.9070 0.4137 -0.0789
vn 0.0354 0.9973 0.0643
vn -0.1950 0.0500 0.9795
vn 0.3924 0.0242 0.9195
vn 0.9911 0.0785 -0.1071
vn -0.0704 0.1203 -0.9902
vn 0.9919 -0.0662 -0.1087
vn 0.8433 0.4654 0.2689
vn -0.7945 0.4745 0.3790
vn 0.0691 0.8221 0.5651
vn -0.9991 0.0396 0.0169
vn 0.9937 -0.0192 0.1105
vn -0.8412 0.4401 -0.3141
vn -0.0124 0.7840 -0.6206
vn -0.0017 0.6521 0.7582
vn 0.8572 0.4313 -0.2815
vn -0.9991 -0.0158 0.0399
vn 0.9985 0.0035 0.0542
vn 0.0112 -0.7495 -0.6619
vn -0.8525 -0.5022 0.1449
vn 0.9833 -0.1161 -0.1401
vn -0.9766 -0.1568 -0.1470
vn 0.8452 0.2447 -0.4751
vn 0.0188 -0.8497 0.5269
vn -0.8708 0.1802 -0.4575
vn 0.8513 -0.4942 0.1765
vn -0.0076 0.6278 -0.7784
vn -0.6863 -0.4972 -0.5308
vn 0.9054 0.3228 0.2757
vn -0.5231 -0.5151 -0.6790
vn -0.0142 0.9270 0.3747
vn 0.1791 0.9810 0.0742
vn 0.0838 0.9700 0.2282
vn -0.3301 0.6855 -0.6490
vn 0.5809 0.2321 0.7802
vn 0.6182 -0.7709 0.1533
vn -0.7134 0.6071 -0.3499
vn 0.3459 -0.5292 -0.7748
vn -0.8691 -0.3867 -0.3083
vn -0.0500 -0.7893 0.6120
vn -0.5503 -0.1055 -0.8283
vn -0.8592 -0.3046 -0.4111
vn 0.4315 -0.1852 -0.8829
vn 0.4600 -0.6378 -0.6177
vn 0.9204 -0.1144 0.3740
vn -0.5839 -0.4297 -0.6887
vn -0.8209 0.2050 -0.5329
vn -0.9706 0.1587 -0.1808
vn 0.5293 -0.1887 0.8272
vn 0.8300 -0.1247 0.5436
vn -0.4972 -0.1133 0.8602
vn 0.5023 0.1948 -0.8425
vn 0.9803 -0.0575 0.1891
vn -0.5110 0.2522 -0.8217
vn -0.5112 0.2823 -0.8117
vn 0.9604 -0.0341 0.2766
vn 0.5404 0.2384 -0.8069
vn -0.5249 -0.0592 0.8491
vn 0.8445 -0.0648 0.5316
vn 0.6622 -0.1174 0.7401
vn -0.9860 0.1498 -0.0738
vn -0.8400 0.1992 -0.5046
vn -0.8281 0.5464 0.1252
vn 0.8018 0.2206 0.5554
vn -0.7455 -0.5772 -0.3333
vn 0.4885 0.6721 -0.5564
vn 0.5240 -0.7972 0.2998
vn -0.3936 0.4257 0.8148
vn 0.5924 -0.7681 0.2431
vn -0.4568 -0.7534 0.4730
vn 0.0137 -0.7350 0.6780
vn -0.8736 -0.3449 0.3434
vn 0.9963 0.0661 0.0547
vn -0.9991 0.0171 0.0394
vn 0.8562 0.4328 -0.2824
vn -0.0131 0.7844 -0.6201
vn -0.8853 0.3816 -0.2657
vn 0.8698 -0.3203 0.3753
vn 0.9220 -0.2382 0.3051
vn -0.8912 -0.3052 0.3357
vn 0.0146 -0.7188 0.6950
vn 0.2826 -0.7362 -0.6149
vn -0.2365 -0.7473 -0.6210
vn -0.9923 -0.0678 0.1040
vn -0.0087 0.6493 0.7604
vn -0.9995 0.0302 -0.0021
vn -0.7948 -0.5899 0.1423
vn 0.8450 -0.5215 0.1182
vn 0.0174 -0.9734 0.2283
vn 0.9955 0.0909 -0.0262
vn -0.9899 0.1389 0.0274
vn 0.8036 -0.5649 -0.1873
vn -0.0458 -0.9857 -0.1620
vn -0.8866 -0.4595 -0.0534
vn 0.9925 -0.0267 -0.1191
vn -0.9954 0.0822 0.0489
vn 0.0750 0.0108 0.9971
vn 0.8658 0.3386 0.3684
vn -0.9748 -0.1496 0.1654
vn 0.9328 -0.1521 0.3267
vn -0.2741 -0.8013 0.5318
vn 0.0624 0.8198 0.5692
vn -0.2472 -0.1563 0.9563
vn -0.8319 0.4132 0.3705
vn 0.0234 0.4317 0.9017
vn -0.7292 -0.5541 0.4016
vn 0.2982 0.9242 -0.2386
vn 0.3647 0.5286 0.7665
vn -0.3932 -0.9124 0.1133
vn -0.7364 -0.0944 -0.6700
vn 0.5312 0.7478 -0.3982
vn 0.9034 0.1719 -0.3928
vn 0.3109 0.9464 -0.0881
vn 0.5981 0.7727 -0.2128
vn -0.6002 0.7769 0.1902
vn -0.6524 0.5618 -0.5087
vn -0.8225 -0.5675 0.0367
vn 0.3069 0.8335 -0.4594
vn 0.7435 0.6372 0.2031
vn 0.9691 0.2454 -0.0244
vn -0.3817 -0.8618 -0.3342
vn -0.7631 -0.6357 -0.1166
vn 0.5644 -0.7068 -0.4264
vn -0.6041 0.6316 0.4859
vn -0.9018 -0.4312 0.0279
vn 0.3826 0.8441 0.3757
vn 0.4298 0.8116 0.3957
vn -0.8805 -0.4690 0.0690
vn -0.5517 -0.8110 -0.1949
vn 0.9721 0.2327 -0.0282
vn 0.9124 -0.0725 0.4028
vn 0.5473 0.5979 -0.5857
vn -0.6117 -0.3601 -0.7043
vn 0.0519 0.9945 0.0912
vn 0.8502 0.5247 -0.0444
vn -0.9991 0.0415 0.0054
vn 0.9929 0.0175 -0.1178
vn -0.8616 -0.5059 -0.0405
vn -0.0425 -0.9922 -0.1170
vn 0.8055 -0.5674 -0.1710
vn -0.8204 0.5680 0.0649
vn -0.9029 0.4266 0.0518
vn 0.8984 0.4353 -0.0581
vn 0.0348 0.9973 0.0651
vn -0.2810 0.0503 0.9584
vn 0.3228 0.0300 0.9460
vn 0.9909 0.0794 -0.1090
vn -0.0732 0.1281 -0.9891
vn 0.9925 -0.0267 -0.1195
vn -0.9986 -0.0361 0.0382
vn 0.9933 -0.0177 0.1142
vn -0.8251 0.4494 -0.3424
vn -0.0120 0.7838 -0.6209
vn 0.8574 0.4309 -0.2814
vn -0.9994 0.0114 0.0341
vn 0.9975 0.0553 0.0435
vn 0.0138 -0.7486 -0.6629
vn -0.8521 -0.5018 0.1486
vn 0.9811 -0.1182 -0.1532
vn -0.9745 -0.1583 -0.1591
vn 0.8436 0.2529 -0.4737
vn 0.0187 -0.8500 0.5265
vn -0.8679 0.2026 -0.4535
vn 0.8531 -0.4956 0.1629
vn -0.0068 0.6301 -0.7765
vn 0.8817 0.3539 0.3121
vn -0.5124 -0.3740 -0.7730
vn 0.0839 0.9700 0.2282
vn -0.3454 0.7188 -0.6033
vn 0.5982 0.2747 0.7528
vn 0.7344 -0.6640 0.1406
vn -0.7790 -0.3147 -0.5422
vn -0.8827 -0.3740 -0.2846
vn -0.5093 -0.2115 -0.8342
vn 0.8269 0.0864 0.5557
vn 0.4976 0.2186 -0.8394
vn 0.3519 -0.5649 -0.7463
vn 0.9739 -0.1180 0.1941
vn -0.6120 -0.4009 -0.6817
vn -0.8395 0.2049 -0.5032
vn -0.9888 0.1256 -0.0801
vn 0.6597 -0.1583 0.7347
vn 0.8445 -0.1245 0.5209
vn -0.5315 -0.1138 0.8394
vn 0.5384 0.1957 -0.8197
vn 0.9616 -0.0657 0.2665
vn -0.5156 0.2525 -0.8188
vn -0.5025 0.2616 -0.8240
vn 0.9554 -0.0136 0.2951
vn 0.6733 -0.0924 0.7336
vn -0.9899 0.1255 -0.0665
vn -0.7994 0.5920 0.1024
vn -0.8471 -0.4675 -0.2528
vn 0.5453 -0.7168 0.4346
vn 0.0145 -0.7347 0.6783
vn -0.8262 -0.3913 0.4053
vn 0.9959 -0.0011 0.0902
vn -0.9981 -0.0183 0.0586
vn 0.8571 0.4317 -0.2810
vn -0.0124 0.7846 -0.6199
vn -0.8417 0.4308 -0.3254
vn 0.8702 -0.3198 0.3747
vn 0.9222 -0.2378 0.3050
vn -0.8798 -0.3342 0.3380
vn 0.0153 -0.7194 0.6945
vn 0.3664 -0.7126 -0.5983
vn -0.3083 -0.7306 -0.6093
vn -0.9921 -0.0670 0.1059
vn -0.0119 0.6552 0.7554
vn -0.9993 0.0116 0.0344
vn 0.9975 0.0559 0.0442
usemtl color_1
s off
f 94//1 58//1 91//1
f 43//2 49//2 51//2
f 8//3 10//3 2//3
f 88//4 3//4 6//4
f 7//5 13//5 15//5
f 88//6 98//6 99//6
f 171//7 16//7 179//7
f 172//8 115//8 276//8
f 5//9 47//9 1//9
f 3//10 50//10 46//10
f 89//11 1//11 41//11
f 54//12 173//12 4//12
f 179//13 14//13 180//13
f 8//14 15//14 9//14
f 4//15 12//15 13//15
f 180//16 12//16 173//16
f 2//17 11//17 171//17
f 13//18 35//18 15//18
f 11//19 34//19 16//19
f 11//20 37//20 33//20
f 9//21 37//21 10//21
f 16//22 36//22 14//22
f 15//23 40//23 9//23
f 12//24 36//24 39//24
f 89//25 57//25 92//25
f 59//26 44//26 60//26
f 41//27 59//27 57//27
f 60//28 42//28 58//28
f 172//29 90//29 85//29
f 6//30 46//30 45//30
f 6//31 48//31 5//31
f 1//32 49//32 41//32
f 44//33 50//33 42//33
f 44//34 51//34 52//34
f 7//35 54//35 4//35
f 53//36 8//36 2//36
f 8//37 56//37 7//37
f 13//38 39//38 38//38
f 229//39 2//39 171//39
f 216//40 91//40 90//40
f 56//41 58//41 54//41
f 53//42 59//42 55//42
f 55//43 60//43 56//43
f 51//44 77//44 78//44
f 48//45 80//45 47//45
f 49//46 80//46 77//46
f 50//47 79//47 46//47
f 48//48 83//48 81//48
f 45//49 79//49 83//49
f 52//50 82//50 50//50
f 51//51 84//51 52//51
f 235//52 93//52 271//52
f 90//53 58//53 42//53
f 3//54 90//54 42//54
f 215//55 92//55 235//55
f 174//56 89//56 215//56
f 1//57 87//57 5//57
f 5//58 88//58 6//58
f 86//59 98//59 87//59
f 93//60 57//60 53//60
f 94//61 230//61 54//61
f 91//62 272//62 94//62
f 93//63 229//63 271//63
f 110//64 285//64 101//64
f 109//65 103//65 108//65
f 174//66 97//66 86//66
f 85//67 99//67 115//67
f 285//68 104//68 101//68
f 103//69 105//69 106//69
f 102//70 104//70 105//70
f 108//71 118//71 117//71
f 110//72 102//72 109//72
f 105//73 112//73 113//73
f 116//74 114//74 111//74
f 279//75 111//75 300//75
f 103//76 116//76 118//76
f 97//77 109//77 98//77
f 99//78 117//78 115//78
f 98//79 108//79 99//79
f 278//80 110//80 97//80
f 303//81 114//81 113//81
f 112//82 303//82 113//82
f 301//83 111//83 114//83
f 106//84 113//84 114//84
f 289//85 112//85 104//85
f 95//86 276//86 115//86
f 100//87 117//87 118//87
f 96//88 118//88 116//88
f 95//89 117//89 107//89
f 96//90 279//90 312//90
f 274//91 234//91 228//91
f 225//92 213//92 217//92
f 182//93 178//93 168//93
f 266//94 169//94 263//94
f 177//95 185//95 170//95
f 266//96 281//96 265//96
f 179//97 183//97 171//97
f 172//98 307//98 263//98
f 221//99 175//99 167//99
f 169//100 224//100 214//100
f 213//101 264//101 267//101
f 170//102 230//102 228//102
f 180//103 188//103 179//103
f 181//104 177//104 178//104
f 170//105 184//105 173//105
f 173//106 186//106 180//106
f 183//107 168//107 171//107
f 207//108 185//108 187//108
f 188//109 205//109 183//109
f 205//110 182//110 183//110
f 182//111 212//111 181//111
f 186//112 206//112 188//112
f 181//113 207//113 187//113
f 184//114 208//114 186//114
f 233//115 267//115 270//115
f 237//116 218//116 217//116
f 237//117 213//117 233//117
f 238//118 214//118 218//118
f 268//119 172//119 263//119
f 176//120 220//120 169//120
f 222//121 176//121 175//121
f 223//122 167//122 213//122
f 224//123 218//123 214//123
f 226//124 217//124 218//124
f 177//125 228//125 232//125
f 178//126 227//126 168//126
f 177//127 231//127 178//127
f 185//128 211//128 184//128
f 171//129 227//129 229//129
f 269//130 216//130 268//130
f 228//131 238//131 232//131
f 231//132 233//132 227//132
f 232//133 237//133 231//133
f 225//134 255//134 223//134
f 258//135 222//135 221//135
f 223//136 258//136 221//136
f 257//137 224//137 220//137
f 222//138 261//138 219//138
f 219//139 257//139 220//139
f 260//140 226//140 224//140
f 262//141 225//141 226//141
f 271//142 270//142 235//142
f 234//143 268//143 214//143
f 169//144 268//144 263//144
f 270//145 215//145 235//145
f 267//146 174//146 215//146
f 167//147 265//147 264//147
f 175//148 266//148 265//148
f 281//149 264//149 265//149
f 233//150 273//150 227//150
f 230//151 274//151 228//151
f 274//152 236//152 269//152
f 273//153 229//153 227//153
f 297//154 285//154 296//154
f 294//155 287//155 295//155
f 280//156 174//156 264//156
f 263//157 282//157 266//157
f 290//158 285//158 286//158
f 288//159 291//159 287//159
f 287//160 290//160 286//160
f 310//161 294//161 309//161
f 287//162 297//162 295//162
f 291//163 304//163 290//163
f 308//164 306//164 292//164
f 279//165 299//165 308//165
f 308//166 288//166 310//166
f 295//167 280//167 281//167
f 307//168 294//168 282//168
f 294//169 281//169 282//169
f 297//170 278//170 280//170
f 306//171 303//171 305//171
f 304//172 303//172 302//172
f 301//173 299//173 300//173
f 292//174 305//174 291//174
f 304//175 289//175 290//175
f 275//176 276//176 311//176
f 310//177 293//177 283//177
f 277//178 310//178 283//178
f 309//179 275//179 293//179
f 279//180 277//180 312//180
f 94//181 54//181 58//181
f 43//182 41//182 49//182
f 8//183 9//183 10//183
f 88//184 85//184 3//184
f 7//185 4//185 13//185
f 88//186 87//186 98//186
f 171//187 11//187 16//187
f 172//188 85//188 115//188
f 5//189 48//189 47//189
f 3//190 42//190 50//190
f 89//191 86//191 1//191
f 54//192 230//192 173//192
f 179//193 16//193 14//193
f 8//194 7//194 15//194
f 4//195 173//195 12//195
f 180//196 14//196 12//196
f 2//197 10//197 11//197
f 13//198 38//198 35//198
f 11//199 33//199 34//199
f 11//200 10//200 37//200
f 9//201 40//201 37//201
f 16//202 34//202 36//202
f 15//203 35//203 40//203
f 12//204 14//204 36//204
f 89//205 41//205 57//205
f 59//206 43//206 44//206
f 41//207 43//207 59//207
f 60//208 44//208 42//208
f 172//209 216//209 90//209
f 6//210 3//210 46//210
f 6//211 45//211 48//211
f 1//212 47//212 49//212
f 44//213 52//213 50//213
f 44//214 43//214 51//214
f 7//215 56//215 54//215
f 53//216 55//216 8//216
f 8//217 55//217 56//217
f 13//218 12//218 39//218
f 229//219 53//219 2//219
f 216//220 236//220 91//220
f 56//221 60//221 58//221
f 53//222 57//222 59//222
f 55//223 59//223 60//223
f 51//224 49//224 77//224
f 48//225 81//225 80//225
f 49//226 47//226 80//226
f 50//227 82//227 79//227
f 48//228 45//228 83//228
f 45//229 46//229 79//229
f 52//230 84//230 82//230
f 51//231 78//231 84//231
f 235//232 92//232 93//232
f 90//233 91//233 58//233
f 3//234 85//234 90//234
f 215//235 89//235 92//235
f 174//236 86//236 89//236
f 1//237 86//237 87//237
f 5//238 87//238 88//238
f 86//239 97//239 98//239
f 93//25 92//25 57//25
f 94//240 272//240 230//240
f 91//241 236//241 272//241
f 93//242 53//242 229//242
f 110//243 296//243 285//243
f 109//244 102//244 103//244
f 174//245 278//245 97//245
f 85//246 88//246 99//246
f 285//247 289//247 104//247
f 103//248 102//248 105//248
f 102//249 101//249 104//249
f 108//250 103//250 118//250
f 110//251 101//251 102//251
f 105//252 104//252 112//252
f 116//253 106//253 114//253
f 279//254 116//254 111//254
f 103//255 106//255 116//255
f 97//256 110//256 109//256
f 99//257 108//257 117//257
f 98//258 109//258 108//258
f 278//259 296//259 110//259
f 303//260 301//260 114//260
f 112//261 302//261 303//261
f 301//262 300//262 111//262
f 106//263 105//263 113//263
f 289//264 302//264 112//264
f 95//265 311//265 276//265
f 100//87 107//87 117//87
f 96//266 100//266 118//266
f 95//267 115//267 117//267
f 96//268 116//268 279//268
f 274//269 269//269 234//269
f 225//270 223//270 213//270
f 182//271 181//271 178//271
f 266//272 176//272 169//272
f 177//273 187//273 185//273
f 266//274 282//274 281//274
f 179//275 188//275 183//275
f 172//276 276//276 307//276
f 221//277 222//277 175//277
f 169//278 220//278 224//278
f 213//279 167//279 264//279
f 170//280 173//280 230//280
f 180//281 186//281 188//281
f 181//282 187//282 177//282
f 170//283 185//283 184//283
f 173//284 184//284 186//284
f 183//285 182//285 168//285
f 207//286 210//286 185//286
f 188//287 206//287 205//287
f 205//288 209//288 182//288
f 182//289 209//289 212//289
f 186//290 208//290 206//290
f 181//291 212//291 207//291
f 184//292 211//292 208//292
f 233//293 213//293 267//293
f 237//294 238//294 218//294
f 237//295 217//295 213//295
f 238//296 234//296 214//296
f 268//297 216//297 172//297
f 176//298 219//298 220//298
f 222//299 219//299 176//299
f 223//300 221//300 167//300
f 224//301 226//301 218//301
f 226//302 225//302 217//302
f 177//303 170//303 228//303
f 178//304 231//304 227//304
f 177//305 232//305 231//305
f 185//306 210//306 211//306
f 171//307 168//307 227//307
f 269//308 236//308 216//308
f 228//309 234//309 238//309
f 231//310 237//310 233//310
f 232//311 238//311 237//311
f 225//312 256//312 255//312
f 258//313 259//313 222//313
f 223//314 255//314 258//314
f 257//315 260//315 224//315
f 222//316 259//316 261//316
f 219//317 261//317 257//317
f 260//318 262//318 226//318
f 262//319 256//319 225//319
f 271//320 273//320 270//320
f 234//321 269//321 268//321
f 169//322 214//322 268//322
f 270//323 267//323 215//323
f 267//324 264//324 174//324
f 167//325 175//325 265//325
f 175//326 176//326 266//326
f 281//327 280//327 264//327
f 233//328 270//328 273//328
f 230//329 272//329 274//329
f 274//330 272//330 236//330
f 273//331 271//331 229//331
f 297//332 286//332 285//332
f 294//333 288//333 287//333
f 280//334 278//334 174//334
f 263//335 307//335 282//335
f 290//336 289//336 285//336
f 288//337 292//337 291//337
f 287//338 291//338 290//338
f 310//339 288//339 294//339
f 287//340 286//340 297//340
f 291//341 305//341 304//341
f 308//342 299//342 306//342
f 279//343 300//343 299//343
f 308//344 292//344 288//344
f 295//345 297//345 280//345
f 307//346 309//346 294//346
f 294//347 295//347 281//347
f 297//348 296//348 278//348
f 306//349 301//349 303//349
f 304//350 305//350 303//350
f 301//351 306//351 299//351
f 292//352 306//352 305//352
f 304//353 302//353 289//353
f 275//354 307//354 276//354
f 310//355 309//355 293//355
f 277//356 308//356 310//356
f 309//357 307//357 275//357
f 279//358 308//358 277//358
usemtl color_2
f 95//359 298//359 311//359
f 284//360 107//360 100//360
f 284//361 96//361 312//361
f 298//362 275//362 311//362
f 293//363 284//363 283//363
f 277//364 284//364 312//364
f 95//365 107//365 298//365
f 284//366 298//366 107//366
f 284//367 100//367 96//367
f 298//368 293//368 275//368
f 293//369 298//369 284//369
f 277//370 283//370 284//370
usemtl color_3
f 160//371 157//371 154//371
f 148//372 19//372 24//372
f 147//373 18//373 19//373
f 23//374 20//374 22//374
f 17//374 19//374 18//374
f 17//374 22//374 24//374
f 143//375 17//375 18//375
f 148//376 22//376 150//376
f 146//377 23//377 17//377
f 161//378 155//378 162//378
f 36//379 30//379 39//379
f 40//380 29//380 31//380
f 34//381 32//381 36//381
f 37//382 31//382 26//382
f 159//374 154//374 153//374
f 38//383 30//383 28//383
f 33//384 27//384 34//384
f 35//385 28//385 29//385
f 33//386 26//386 25//386
f 125//387 139//387 123//387
f 63//388 131//388 64//388
f 124//389 141//389 125//389
f 61//390 66//390 68//390
f 65//391 64//391 67//391
f 67//392 61//392 68//392
f 65//393 134//393 132//393
f 62//394 129//394 130//394
f 119//395 136//395 127//395
f 67//396 135//396 134//396
f 119//397 140//397 124//397
f 78//398 76//398 84//398
f 82//399 76//399 73//399
f 83//400 74//400 75//400
f 81//401 75//401 71//401
f 82//402 74//402 79//402
f 77//403 70//403 69//403
f 80//404 71//404 70//404
f 78//405 69//405 72//405
f 76//406 125//406 123//406
f 76//407 121//407 73//407
f 75//408 126//408 122//408
f 75//409 120//409 71//409
f 74//410 121//410 126//410
f 70//411 124//411 69//411
f 71//412 119//412 70//412
f 72//413 124//413 125//413
f 141//414 132//414 134//414
f 136//415 128//415 127//415
f 140//416 128//416 132//416
f 137//417 130//417 142//417
f 138//418 131//418 136//418
f 138//419 130//419 129//419
f 139//420 133//420 137//420
f 139//421 134//421 135//421
f 66//422 135//422 68//422
f 61//423 131//423 129//423
f 121//424 139//424 137//424
f 63//425 132//425 128//425
f 126//426 138//426 122//426
f 62//427 133//427 66//427
f 120//428 138//428 136//428
f 126//429 137//429 142//429
f 28//430 145//430 144//430
f 32//431 145//431 30//431
f 31//432 149//432 146//432
f 27//433 150//433 32//433
f 26//434 146//434 143//434
f 26//435 147//435 25//435
f 25//436 148//436 27//436
f 29//437 144//437 149//437
f 157//438 153//438 154//438
f 158//439 152//439 156//439
f 156//440 153//440 155//440
f 162//441 157//441 163//441
f 164//374 151//374 165//374
f 161//442 158//442 156//442
f 165//443 158//443 166//443
f 164//374 153//374 152//374
f 156//444 157//444 155//444
f 20//374 159//374 164//374
f 22//445 166//445 150//445
f 145//446 166//446 161//446
f 20//374 165//374 22//374
f 144//447 163//447 149//447
f 21//374 160//374 159//374
f 144//448 161//448 162//448
f 23//449 163//449 160//449
f 354//450 351//450 357//450
f 342//451 191//451 341//451
f 341//452 190//452 337//452
f 192//453 195//453 194//453
f 191//453 189//453 190//453
f 194//453 189//453 196//453
f 337//454 189//454 340//454
f 194//455 342//455 344//455
f 340//456 195//456 343//456
f 349//457 355//457 356//457
f 211//458 204//458 208//458
f 203//459 207//459 212//459
f 208//460 199//460 206//460
f 209//461 203//461 212//461
f 353//453 348//453 354//453
f 210//462 202//462 211//462
f 199//463 205//463 206//463
f 201//464 210//464 207//464
f 197//465 209//465 205//465
f 333//466 319//466 317//466
f 325//467 241//467 242//467
f 335//468 318//468 319//468
f 244//469 239//469 246//469
f 243//470 242//470 241//470
f 245//471 239//471 242//471
f 243//472 328//472 245//472
f 240//473 323//473 239//473
f 313//474 330//474 314//474
f 245//475 329//475 246//475
f 334//476 313//476 318//476
f 254//477 256//477 262//477
f 251//478 262//478 260//478
f 261//479 252//479 257//479
f 259//480 253//480 261//480
f 252//481 260//481 257//481
f 255//482 248//482 258//482
f 258//483 249//483 259//483
f 256//484 247//484 255//484
f 254//485 319//485 250//485
f 315//486 254//486 251//486
f 253//487 320//487 252//487
f 314//488 253//488 249//488
f 252//489 315//489 251//489
f 318//490 248//490 247//490
f 313//491 249//491 248//491
f 250//492 318//492 247//492
f 335//493 326//493 334//493
f 322//494 330//494 321//494
f 334//495 322//495 321//495
f 324//496 331//496 336//496
f 325//497 332//497 330//497
f 332//498 324//498 336//498
f 327//499 333//499 331//499
f 333//500 328//500 335//500
f 329//501 244//501 246//501
f 239//502 325//502 242//502
f 315//503 333//503 317//503
f 241//504 326//504 243//504
f 332//505 320//505 316//505
f 327//506 240//506 244//506
f 314//507 332//507 316//507
f 320//508 331//508 315//508
f 200//509 339//509 202//509
f 202//510 344//510 204//510
f 203//511 343//511 201//511
f 344//512 199//512 204//512
f 337//513 203//513 198//513
f 341//514 198//514 197//514
f 199//515 341//515 197//515
f 343//516 200//516 201//516
f 351//517 347//517 349//517
f 346//518 352//518 350//518
f 347//519 350//519 349//519
f 351//520 356//520 357//520
f 345//453 358//453 359//453
f 355//521 352//521 360//521
f 352//522 359//522 360//522
f 358//453 347//453 353//453
f 350//523 351//523 352//523
f 192//453 353//453 193//453
f 360//524 194//524 344//524
f 339//525 360//525 344//525
f 359//453 192//453 194//453
f 357//526 338//526 343//526
f 193//453 354//453 195//453
f 338//527 355//527 339//527
f 195//528 357//528 343//528
f 160//529 163//529 157//529
f 148//530 147//530 19//530
f 147//531 143//531 18//531
f 23//374 21//374 20//374
f 17//374 24//374 19//374
f 17//374 23//374 22//374
f 143//532 146//532 17//532
f 148//533 24//533 22//533
f 146//534 149//534 23//534
f 161//535 156//535 155//535
f 36//536 32//536 30//536
f 40//537 35//537 29//537
f 34//538 27//538 32//538
f 37//539 40//539 31//539
f 159//374 160//374 154//374
f 38//540 39//540 30//540
f 33//541 25//541 27//541
f 35//542 38//542 28//542
f 33//543 37//543 26//543
f 125//387 141//387 139//387
f 63//544 128//544 131//544
f 124//545 140//545 141//545
f 61//390 62//390 66//390
f 65//391 63//391 64//391
f 67//392 64//392 61//392
f 65//546 67//546 134//546
f 62//547 61//547 129//547
f 119//548 120//548 136//548
f 67//396 68//396 135//396
f 119//397 127//397 140//397
f 78//549 72//549 76//549
f 82//550 84//550 76//550
f 83//551 79//551 74//551
f 81//552 83//552 75//552
f 82//553 73//553 74//553
f 77//554 80//554 70//554
f 80//555 81//555 71//555
f 78//556 77//556 69//556
f 76//557 72//557 125//557
f 76//558 123//558 121//558
f 75//559 74//559 126//559
f 75//560 122//560 120//560
f 74//561 73//561 121//561
f 70//562 119//562 124//562
f 71//563 120//563 119//563
f 72//564 69//564 124//564
f 141//565 140//565 132//565
f 136//566 131//566 128//566
f 140//416 127//416 128//416
f 137//417 133//417 130//417
f 138//418 129//418 131//418
f 138//567 142//567 130//567
f 139//568 135//568 133//568
f 139//421 141//421 134//421
f 66//569 133//569 135//569
f 61//423 64//423 131//423
f 121//570 123//570 139//570
f 63//425 65//425 132//425
f 126//571 142//571 138//571
f 62//427 130//427 133//427
f 120//428 122//428 138//428
f 126//429 121//429 137//429
f 28//572 30//572 145//572
f 32//573 150//573 145//573
f 31//574 29//574 149//574
f 27//575 148//575 150//575
f 26//576 31//576 146//576
f 26//577 143//577 147//577
f 25//578 147//578 148//578
f 29//579 28//579 144//579
f 157//580 155//580 153//580
f 158//581 151//581 152//581
f 156//582 152//582 153//582
f 162//583 155//583 157//583
f 164//374 152//374 151//374
f 161//584 166//584 158//584
f 165//585 151//585 158//585
f 164//374 159//374 153//374
f 156//586 158//586 157//586
f 20//374 21//374 159//374
f 22//587 165//587 166//587
f 145//446 150//446 166//446
f 20//374 164//374 165//374
f 144//447 162//447 163//447
f 21//374 23//374 160//374
f 144//448 145//448 161//448
f 23//588 149//588 163//588
f 354//589 348//589 351//589
f 342//590 196//590 191//590
f 341//591 191//591 190//591
f 192//453 193//453 195//453
f 191//453 196//453 189//453
f 194//453 195//453 189//453
f 337//592 190//592 189//592
f 194//593 196//593 342//593
f 340//594 189//594 195//594
f 349//595 350//595 355//595
f 211//596 202//596 204//596
f 203//597 201//597 207//597
f 208//598 204//598 199//598
f 209//599 198//599 203//599
f 353//453 347//453 348//453
f 210//600 200//600 202//600
f 199//601 197//601 205//601
f 201//602 200//602 210//602
f 197//603 198//603 209//603
f 333//466 335//466 319//466
f 325//604 322//604 241//604
f 335//605 334//605 318//605
f 244//469 240//469 239//469
f 243//470 245//470 242//470
f 245//606 246//606 239//606
f 243//607 326//607 328//607
f 240//608 324//608 323//608
f 313//609 321//609 330//609
f 245//475 328//475 329//475
f 334//476 321//476 313//476
f 254//610 250//610 256//610
f 251//611 254//611 262//611
f 261//612 253//612 252//612
f 259//613 249//613 253//613
f 252//614 251//614 260//614
f 255//615 247//615 248//615
f 258//616 248//616 249//616
f 256//617 250//617 247//617
f 254//618 317//618 319//618
f 315//619 317//619 254//619
f 253//620 316//620 320//620
f 314//621 316//621 253//621
f 252//622 320//622 315//622
f 318//623 313//623 248//623
f 313//624 314//624 249//624
f 250//625 319//625 318//625
f 335//626 328//626 326//626
f 322//627 325//627 330//627
f 334//495 326//495 322//495
f 324//496 327//496 331//496
f 325//497 323//497 332//497
f 332//628 323//628 324//628
f 327//629 329//629 333//629
f 333//500 329//500 328//500
f 329//630 327//630 244//630
f 239//502 323//502 325//502
f 315//631 331//631 333//631
f 241//504 322//504 326//504
f 332//632 336//632 320//632
f 327//506 324//506 240//506
f 314//507 330//507 332//507
f 320//508 336//508 331//508
f 200//633 338//633 339//633
f 202//634 339//634 344//634
f 203//635 340//635 343//635
f 344//636 342//636 199//636
f 337//637 340//637 203//637
f 341//638 337//638 198//638
f 199//639 342//639 341//639
f 343//640 338//640 200//640
f 351//641 348//641 347//641
f 346//642 345//642 352//642
f 347//643 346//643 350//643
f 351//644 349//644 356//644
f 345//453 346//453 358//453
f 355//645 350//645 352//645
f 352//646 345//646 359//646
f 358//453 346//453 347//453
f 350//647 349//647 351//647
f 192//453 358//453 353//453
f 360//648 359//648 194//648
f 339//525 355//525 360//525
f 359//453 358//453 192//453
f 357//526 356//526 338//526
f 193//453 353//453 354//453
f 338//527 356//527 355//527
f 195//649 354//649 357//649
