# Blender v2.83.5 OBJ File: 'bio.blend'
# www.blender.org
mtllib bio_000012.mtl
o Cube
v -0.944520 -1.132508 -0.380608
v -0.687481 0.655539 -0.432230
v -0.665450 -1.205241 0.544925
v -0.645366 1.119517 0.366255
v -1.010420 -1.120682 -0.055202
v -0.909114 -1.168297 0.300250
v -0.843019 1.005230 0.113476
v -0.859322 0.803999 -0.197457
v -0.781899 1.072564 -0.295237
v -0.687464 0.965133 -0.441381
v -0.155398 0.962200 -0.352221
v -0.129185 1.170383 0.126369
v -0.661981 1.285604 0.047342
v -0.056685 1.078166 -0.001188
v -0.771821 1.199299 -0.101963
v -0.064938 1.021937 -0.171808
v -0.645166 1.891954 -2.143491
v -0.586867 1.775665 -2.136991
v -0.271924 1.753521 -2.171031
v -0.251243 2.124455 -2.215759
v -0.566237 2.145687 -2.181608
v -0.178441 2.006710 -2.210776
v -0.637008 2.038285 -2.161136
v -0.186599 1.860379 -2.193131
v -0.079741 1.894878 -0.958063
v -0.505741 1.927356 -0.932947
v 0.008646 2.018620 -0.943009
v -0.481064 2.346545 -0.878335
v -0.571436 2.225285 -0.886890
v -0.054991 2.312696 -0.897104
v -0.581232 2.059060 -0.907859
v 0.017775 2.173186 -0.922681
v -0.091444 1.940838 -0.989803
v -0.011946 2.021800 -0.899911
v -0.546356 2.185849 -0.792013
v -0.004730 2.121220 -0.791128
v -0.483769 1.988250 -0.997497
v -0.464038 2.258804 -0.698583
v -0.071694 2.213004 -0.692928
v -0.554130 2.079165 -0.910603
v -0.945406 -0.615202 -0.377351
v -0.717239 -0.699934 0.526883
v -0.957441 -0.601507 -0.067814
v -0.764386 -0.710678 0.229121
v -1.040598 -0.905619 0.394138
v -0.865630 -0.968189 0.459994
v -1.234057 -0.715730 0.039098
v -1.191421 -0.804810 0.228699
v -1.016896 -0.558241 -0.093280
v -0.651517 -0.800543 0.335353
v -0.868841 -0.574216 0.035375
v -0.728420 -0.671854 0.203763
v -0.757738 0.180854 -0.237369
v -0.705922 0.553415 0.650167
v -0.918221 0.290056 0.038697
v -0.889658 0.446358 0.380430
v -0.802842 -0.455746 -0.376048
v -0.637565 -0.466784 0.548661
v -0.903873 -0.450920 -0.062915
v -0.811069 -0.470774 0.286723
v -0.886266 -0.489128 2.394549
v -0.804793 -0.532449 2.329821
v -1.007267 -0.303460 2.510555
v -0.966338 -0.398570 2.466024
v -0.861512 -0.206250 2.550679
v -0.659038 -0.435238 2.369945
v -0.753392 -0.256549 2.524644
v -0.673320 -0.347106 2.453170
v -1.112577 0.701387 1.267841
v -1.347675 0.546661 1.234238
v -1.296969 0.390430 1.190957
v -0.952440 0.618530 1.256418
v -0.777358 0.347692 1.077639
v -1.012271 0.193537 1.047334
v -1.165125 0.248464 1.103146
v -0.820797 0.477337 1.167798
v -1.112345 0.532095 0.884880
v -0.976802 0.508334 0.960941
v -0.994942 0.186160 1.238922
v -1.305877 0.411418 0.978438
v -1.259007 0.329792 1.099479
v -0.801768 0.307747 1.143005
v -1.136362 0.243033 1.203386
v -0.853719 0.418909 1.064659
v -0.557637 -1.259187 0.592109
v -0.785792 -1.262727 -0.486436
v -0.860406 -1.244737 -0.221115
v -0.687494 -1.316762 0.261657
v -0.407147 -0.600355 -0.531761
v -0.301165 -0.619975 0.535706
v -0.259727 -0.381903 0.579851
v -0.330758 -0.408221 -0.503896
v -0.324146 -0.050363 -0.415434
v -0.264285 0.047834 0.600935
v -0.242381 -1.474702 0.513875
v -0.414111 -2.489191 0.474471
v -0.572690 -1.464231 -0.583294
v -0.754386 -1.364454 -0.247159
v -0.588849 -1.385506 0.252758
v -0.435294 -2.254932 0.503587
v -0.531787 -2.295106 -0.545515
v -0.718049 -2.256294 -0.306769
v -0.668494 -2.256294 0.264802
v -0.496392 -2.533025 -0.427023
v -0.657753 -2.533025 -0.246430
v -0.615408 -2.533025 0.225405
v -0.429323 -1.867887 0.506973
v -0.658795 -1.865676 0.290351
v -0.714711 -1.865676 -0.324783
v -0.533471 -1.947001 -0.608629
v -0.387981 -2.629123 0.441629
v -0.416901 -2.629123 -0.213870
v -0.531831 -2.629123 -0.157875
v -0.495387 -2.629123 0.215379
v -0.426285 -1.369008 0.477499
v -0.461975 -2.533025 0.445014
v -0.480828 -1.865676 0.482873
v -0.486955 -2.256294 0.479292
v -1.076116 -0.167872 2.330848
v -1.028987 -0.283134 2.276953
v -0.658797 -0.325796 2.162341
v -0.933029 -0.391658 2.191298
v -0.677835 -0.221460 2.261549
v -0.901443 -0.051376 2.378932
v -0.773793 -0.112936 2.347204
v -0.833471 -0.442292 2.114255
v -1.105972 -0.176997 2.376678
v -1.079007 -0.235073 2.461286
v -0.918828 -0.476569 2.295595
v -0.808192 -0.541352 2.219548
v -1.025926 -0.355446 2.391194
v -0.884055 -0.105052 2.514954
v -0.613240 -0.411331 2.273216
v -0.741106 -0.165488 2.469601
v -0.634007 -0.286611 2.374001
v -1.052940 -0.303807 2.303090
v -0.621055 -0.360501 2.180877
v -0.941439 -0.429909 2.203561
v -0.644908 -0.232142 2.285191
v -0.903005 -0.041631 2.432552
v -0.756410 -0.106040 2.384720
v -0.824023 -0.495867 2.125003
v -0.570595 1.796433 -1.864100
v -0.526894 2.220262 -1.729484
v -0.187999 2.197719 -1.763675
v -0.632449 1.919665 -1.870980
v -0.231754 1.772924 -1.898174
v -0.145616 1.887829 -1.921287
v -0.601963 2.106458 -1.707782
v -0.115284 2.071876 -1.757758
v -0.201588 2.687435 -2.285765
v -0.253884 2.803768 -2.292968
v -0.487183 2.819374 -2.267661
v -0.541215 2.710820 -2.249001
v -0.475356 2.852692 -2.079045
v -0.224279 2.836197 -2.103729
v -0.532668 2.737666 -2.059265
v -0.172165 2.711772 -2.095583
v -0.560194 2.254065 -2.194677
v -0.630965 2.146663 -2.174205
v -0.204195 2.273974 -1.962071
v -0.543090 2.296516 -1.927880
v -0.618159 2.182713 -1.906178
v -0.245201 2.232833 -2.228827
v -0.172399 2.115088 -2.223845
v -0.131480 2.148131 -1.956154
v 0.817242 -1.189117 -0.556558
v 0.666122 1.154415 -0.310838
v 0.787175 -1.101482 0.373382
v 0.680582 0.557136 0.383438
v -0.015901 0.996717 -0.399031
v 0.040103 -1.234289 0.569278
v 0.023538 0.963697 0.416578
v -0.046553 -1.295741 -0.654339
v 0.957237 -1.123536 -0.299308
v 0.956993 -1.047794 0.030580
v 0.862049 0.728632 0.174565
v 0.857721 0.987496 -0.091099
v 0.005276 1.060185 -0.136517
v 0.018218 1.036426 0.186766
v 0.812807 1.141325 0.162157
v 0.708172 1.265652 0.038009
v 0.163776 1.189176 -0.067105
v 0.174795 0.895179 0.394712
v 0.714621 0.853228 0.452827
v 0.090687 1.003003 0.220684
v 0.815358 0.978226 0.326204
v 0.086172 1.090963 0.064562
v 0.644862 2.902725 2.089253
v 0.578448 2.986303 2.014618
v 0.260916 2.983786 2.016752
v 0.265410 2.704658 2.265935
v 0.582931 2.707861 2.263189
v 0.184344 2.788447 2.191107
v 0.646635 2.792611 2.187554
v 0.182571 2.898561 2.092806
v 0.217639 2.165291 1.020972
v 0.645843 2.176216 1.026524
v 0.137998 2.053576 1.124205
v 0.651444 1.825284 1.349182
v 0.733210 1.932052 1.251005
v 0.223251 1.813770 1.344681
v 0.730994 2.070858 1.123441
v 0.140063 1.924286 1.243089
v 0.235334 2.069127 0.946159
v 0.163280 1.969372 1.044712
v 0.710901 1.860834 1.164164
v 0.165076 1.854890 1.157617
v 0.630683 2.078460 0.950254
v 0.635582 1.766311 1.258285
v 0.240245 1.756082 1.254842
v 0.708965 1.984265 1.042324
v 0.806006 -0.790912 -0.618420
v 0.814306 -0.628692 0.228909
v -0.036009 -0.553508 -0.567552
v 0.036336 -0.553508 0.567515
v 0.881618 -0.870102 -0.449577
v 0.772689 -0.725023 -0.186174
v 1.068489 -0.653298 -0.217325
v 0.917899 -0.582761 -0.114946
v 1.177427 -1.006868 -0.441010
v 1.177286 -0.831577 -0.341051
v 0.927578 -1.059557 -0.542538
v 0.673456 -0.649421 -0.211245
v 0.807531 -0.937017 -0.488350
v 0.711013 -0.768641 -0.355755
v 0.678119 0.633479 -0.670236
v 0.714483 0.154510 0.130114
v -0.030094 0.413696 -0.497596
v 0.022094 0.399267 0.488100
v 0.857292 0.452909 -0.469575
v 0.864488 0.252887 -0.168191
v 0.670863 -0.503993 -0.642350
v 0.717970 -0.480971 0.247795
v -0.035557 -0.382861 -0.558739
v 0.035658 -0.382861 0.558728
v 0.823609 -0.557779 -0.452297
v 0.818786 -0.524732 -0.126745
v 1.209174 1.608520 -1.467144
v 1.126421 1.594812 -1.391857
v 1.315845 1.583325 -1.691996
v 1.284085 1.603977 -1.585840
v 1.164698 1.598962 -1.787987
v 0.975273 1.610449 -1.487849
v 1.063262 1.626822 -1.726081
v 0.988351 1.631365 -1.607386
v 1.061462 0.023213 -1.905205
v 1.309087 0.017934 -1.757824
v 1.276992 0.069913 -1.587403
v 0.916062 0.087986 -1.807458
v 0.758622 0.106393 -1.450764
v 1.006419 0.103166 -1.304442
v 1.156571 0.094951 -1.403702
v 0.795614 0.112319 -1.624104
v 1.031014 -0.234574 -1.672236
v 0.912441 -0.132710 -1.637321
v 1.012107 0.173199 -1.328193
v 1.249976 -0.160943 -1.578987
v 1.232392 -0.023424 -1.499979
v 0.793044 0.097811 -1.421562
v 1.138407 0.108799 -1.402529
v 0.818401 -0.000027 -1.538057
v 0.684064 -1.187244 0.464638
v 0.652925 -1.289843 -0.609770
v 0.775631 -1.251592 -0.390461
v 0.735624 -1.260610 0.099314
v 0.321505 -0.644047 -0.539695
v 0.380138 -0.598480 0.495840
v 0.324900 -0.408864 0.450873
v 0.251130 -0.399350 -0.566837
v -0.033430 0.031565 -0.528068
v 0.027168 0.011404 0.527599
v 0.249743 0.080691 -0.609917
v 0.309841 -0.045018 0.377863
v 0.315062 -1.474702 0.472036
v 0.038168 -1.319728 0.552485
v 0.464479 -2.489191 0.425288
v -0.045717 -1.471625 -0.674098
v 0.028861 -2.573691 0.515571
v 0.460665 -1.471007 -0.650070
v 0.675300 -1.360603 -0.382330
v 0.635330 -1.345889 0.125804
v 0.490812 -2.254932 0.449460
v 0.030767 -2.256294 0.549613
v -0.032936 -2.295106 -0.588364
v 0.462979 -2.295106 -0.604723
v 0.673922 -2.256294 -0.393591
v 0.695623 -2.256294 0.180722
v -0.026041 -2.533025 -0.465194
v 0.445141 -2.533025 -0.480175
v 0.624907 -2.533025 -0.320489
v 0.636958 -2.533025 0.154119
v 0.491000 -1.867887 0.446832
v 0.692678 -1.865676 0.193345
v 0.658602 -1.865676 -0.425505
v -0.037523 -1.947001 -0.654271
v 0.449483 -1.947001 -0.672360
v 0.031176 -1.865676 0.552819
v 0.434847 -2.629123 0.395567
v 0.027551 -2.669790 0.492153
v 0.009879 -2.669790 0.176469
v -0.013667 -2.669790 -0.244145
v -0.002937 -2.669790 -0.052465
v 0.390426 -2.629123 -0.259064
v 0.510888 -2.629123 -0.216246
v 0.516330 -2.629123 0.158743
v 0.508611 -1.342138 0.402883
v 0.508756 -2.533025 0.390673
v 0.539869 -1.865676 0.414966
v 0.539774 -2.256294 0.418649
v 0.035975 -1.473458 0.528803
v 0.029201 -2.528497 0.521638
v 1.332619 1.349558 -1.714139
v 1.296551 1.374101 -1.585656
v 0.924477 1.382063 -1.469489
v 1.206777 1.379545 -1.443412
v 0.942142 1.406923 -1.611477
v 1.151484 1.368297 -1.829175
v 1.031916 1.401479 -1.753721
v 1.105613 1.363323 -1.354452
v 1.370462 1.385736 -1.732416
v 1.366954 1.491652 -1.727133
v 1.223128 1.512739 -1.426633
v 1.113593 1.507017 -1.325690
v 1.323324 1.506663 -1.585390
v 1.164790 1.512567 -1.855525
v 0.911429 1.527931 -1.454081
v 1.027967 1.537219 -1.772966
v 0.927772 1.543295 -1.614209
v 1.327354 1.401125 -1.583376
v 0.896210 1.423507 -1.448139
v 1.223039 1.407450 -1.418091
v 0.915539 1.439263 -1.613379
v 1.159987 1.407511 -1.866086
v 1.019854 1.432937 -1.778664
v 1.106686 1.401732 -1.314469
v 0.592896 2.812561 1.803027
v 0.597812 2.385752 1.935235
v 0.256492 2.380615 1.936280
v 0.663349 2.723998 1.882113
v 0.251564 2.808151 1.803422
v 0.172950 2.716849 1.884901
v 0.665394 2.475559 1.855088
v 0.174962 2.470475 1.856031
v 0.253901 2.279908 2.645112
v 0.314293 2.195933 2.720098
v 0.549456 2.198395 2.717985
v 0.596285 2.282992 2.642480
v 0.560387 2.062802 2.582629
v 0.307598 2.058463 2.582993
v 0.610067 2.152447 2.502619
v 0.246836 2.148510 2.502585
v 0.584244 2.626307 2.335994
v 0.647948 2.711056 2.260359
v 0.257638 2.433133 2.142870
v 0.598958 2.438270 2.141826
v 0.666540 2.528076 2.061679
v 0.266723 2.623104 2.338740
v 0.185657 2.706892 2.263912
v 0.176108 2.522993 2.062622
vn -0.0711 -0.0496 0.9962
vn 0.6105 0.4589 -0.6455
vn -0.8120 -0.0172 -0.5834
vn -0.4773 -0.8044 0.3538
vn -0.7853 0.5662 0.2505
vn -0.5562 -0.8175 0.1497
vn -0.3966 0.8991 -0.1854
vn -0.1371 -0.1881 0.9725
vn -0.8793 -0.4479 -0.1618
vn 0.1596 0.4496 0.8789
vn -0.2759 0.0056 -0.9612
vn 0.0363 0.4449 0.8948
vn 0.3824 0.9225 0.0525
vn -0.9651 0.2394 -0.1066
vn 0.1237 0.8827 0.4533
vn 0.6019 0.7652 0.2282
vn -0.3658 0.7708 -0.5217
vn -0.8263 0.4372 0.3551
vn 0.8889 -0.2995 -0.3466
vn -0.0492 -0.5430 -0.8383
vn -0.8663 -0.0942 -0.4906
vn 0.9973 -0.0690 -0.0255
vn -0.9812 0.1808 -0.0674
vn 0.8924 0.2473 0.3774
vn -0.2763 0.2447 -0.9294
vn -0.9124 0.3161 0.2601
vn -0.7222 0.6476 -0.2430
vn -0.8133 0.2279 0.5353
vn 0.0350 0.0739 0.9967
vn -0.4553 -0.4929 0.7414
vn -0.7177 -0.6457 0.2608
vn -0.6739 0.6732 -0.3046
vn -0.6919 -0.7092 0.1351
vn 0.2952 -0.6989 -0.6514
vn -0.8103 0.3297 0.4845
vn -0.8321 -0.1007 -0.5454
vn -0.9966 0.0826 -0.0012
vn 0.0585 0.5998 0.7980
vn -0.0364 0.1674 -0.9852
vn -0.0588 -0.1721 0.9833
vn -0.8000 -0.1122 0.5895
vn -0.8537 0.0545 -0.5178
vn -0.9871 -0.0976 0.1271
vn 0.4688 0.6006 -0.6477
vn -0.9749 -0.1759 0.1366
vn -0.6092 0.4994 -0.6161
vn 0.6651 -0.3651 0.6515
vn -0.7410 -0.4360 0.5106
vn -0.4046 -0.5490 0.7314
vn 0.9217 0.3022 -0.2432
vn 0.7432 0.4650 -0.4810
vn -0.3775 0.0703 -0.9233
vn -0.0035 -0.0918 0.9958
vn -0.0275 0.0329 0.9991
vn -0.1867 0.0512 -0.9811
vn -0.1100 0.1170 -0.9870
vn -0.7070 -0.6973 -0.1178
vn -0.5505 -0.8336 0.0452
vn -0.7558 -0.6324 -0.1697
vn -0.2661 0.2231 -0.9378
vn 0.2390 0.1148 0.9642
vn 0.2385 -0.0451 0.9701
vn -0.3790 0.0768 -0.9222
vn -0.0842 -0.1782 -0.9804
vn -0.9957 0.0188 0.0905
vn -0.2049 0.2395 -0.9490
vn -0.4005 -0.8461 0.3518
vn -0.0763 -0.4536 -0.8879
vn -0.9759 -0.1997 0.0876
vn -0.7127 -0.2941 -0.6368
vn -0.7343 0.0053 0.6788
vn -0.8450 -0.0174 -0.5345
vn -0.2543 -0.8142 -0.5219
vn -0.7364 -0.5793 0.3496
vn -0.1398 -0.2326 0.9625
vn -0.7550 -0.1473 0.6390
vn -0.8792 0.0042 -0.4765
vn -0.8099 0.0952 0.5788
vn -0.9349 0.1610 0.3163
vn -0.1692 0.0379 -0.9849
vn -0.0782 -0.9969 0.0076
vn -0.0541 -0.9923 -0.1111
vn -0.0774 -0.9963 0.0367
vn -0.6208 -0.7816 0.0606
vn -0.0325 -0.9156 -0.4007
vn -0.1646 0.0526 0.9850
vn -0.4255 -0.0016 0.9049
vn -0.4160 -0.1487 0.8971
vn -0.4106 0.1795 0.8940
vn -0.1164 -0.1313 0.9845
vn 0.4547 0.1646 0.8753
vn 0.7032 -0.4687 -0.5347
vn 0.7899 0.5503 -0.2707
vn 0.7350 -0.6372 0.2317
vn 0.8184 -0.2186 0.5315
vn 0.7367 -0.6745 0.0478
vn -0.5853 0.7976 -0.1456
vn 0.1737 -0.5281 0.8312
vn 0.4570 -0.8892 -0.0220
vn 0.9444 -0.1445 -0.2954
vn -0.1516 0.0294 -0.9880
vn 0.2516 -0.5001 0.8286
vn -0.5284 0.8449 0.0832
vn 0.9874 0.1209 0.1017
vn 0.3298 0.4661 0.8210
vn 0.2894 0.9145 0.2827
vn -0.1492 0.8883 -0.4343
vn 0.8671 -0.2851 0.4084
vn -0.8951 0.3660 -0.2546
vn 0.0208 0.7541 -0.6564
vn 0.8562 0.4199 -0.3011
vn -0.9983 0.0340 0.0480
vn 0.9963 0.0682 0.0523
vn -0.9237 -0.2440 0.2952
vn -0.2151 -0.1686 -0.9619
vn 0.9401 0.1771 0.2912
vn 0.7802 0.3228 -0.5357
vn 0.9764 -0.2101 -0.0491
vn 0.1582 0.0294 0.9870
vn 0.8609 0.2164 0.4604
vn 0.8005 -0.5840 0.1347
vn 0.2842 -0.1393 -0.9486
vn -0.6259 -0.7435 0.2353
vn -0.3315 -0.8776 0.3463
vn 0.8946 -0.2582 0.3647
vn 0.8214 0.3366 -0.4605
vn 0.9999 0.0064 -0.0101
vn -0.1301 -0.6958 0.7063
vn -0.2820 0.1666 -0.9448
vn 0.2314 0.2878 0.9293
vn 0.8969 -0.0292 0.4414
vn 0.7362 -0.0213 -0.6765
vn 0.9983 -0.0341 -0.0464
vn -0.7301 -0.5183 -0.4453
vn 0.9987 -0.0249 0.0451
vn 0.3773 -0.7546 -0.5369
vn -0.3982 0.7921 0.4626
vn 0.8936 0.3518 0.2789
vn 0.6115 0.6494 0.4521
vn -0.9803 -0.1095 -0.1644
vn -0.9113 -0.3024 -0.2794
vn -0.0239 0.0739 -0.9970
vn 0.5209 0.2348 0.8207
vn 0.5303 0.2305 0.8159
vn -0.0252 0.0516 -0.9983
vn 0.1058 0.1140 -0.9878
vn 0.5541 -0.8153 -0.1678
vn 0.5656 -0.8241 0.0310
vn 0.6972 -0.6622 -0.2746
vn -0.1094 -0.0237 -0.9937
vn 0.4841 0.0978 0.8695
vn 0.3580 0.1979 0.9125
vn -0.2650 0.1007 -0.9590
vn -0.0365 -0.1864 -0.9818
vn 0.9979 0.0346 -0.0549
vn 0.0615 0.1541 -0.9861
vn 0.6649 -0.7086 0.2361
vn -0.0292 -0.4619 -0.8865
vn 0.9823 -0.1838 -0.0371
vn 0.6892 -0.3759 -0.6194
vn 0.8233 0.0052 0.5676
vn 0.7665 -0.0224 -0.6419
vn 0.2857 -0.9027 -0.3216
vn 0.5971 -0.7340 0.3236
vn 0.2610 -0.1522 0.9533
vn 0.8274 -0.1475 0.5419
vn 0.7742 0.0285 -0.6323
vn 0.8996 0.1524 0.4093
vn 0.9960 -0.0397 0.0795
vn 0.0473 0.0456 -0.9978
vn 0.0785 -0.9969 -0.0011
vn 0.0999 -0.9950 -0.0056
vn 0.0981 -0.9952 -0.0055
vn 0.6357 -0.7718 -0.0161
vn -0.0128 -0.9159 -0.4012
vn 0.1964 -0.1520 0.9687
vn 0.5327 0.0055 0.8463
vn 0.5240 -0.1455 0.8392
vn 0.5309 0.1846 0.8271
vn 0.2255 -0.1313 0.9653
vn -0.0026 -0.0992 0.9951
vn 0.5919 0.8059 -0.0126
vn -0.8276 0.0346 -0.5602
vn -0.5364 -0.7702 0.3450
vn -0.7540 0.5656 0.3339
vn -0.7219 -0.6737 0.1581
vn -0.2893 0.9426 -0.1670
vn 0.0563 -0.6879 0.7236
vn -0.8777 -0.4784 -0.0274
vn -0.9564 -0.1077 -0.2716
vn -0.4337 0.1876 -0.8813
vn 0.2401 0.1214 0.9631
vn -0.3479 0.8953 -0.2782
vn -0.9655 0.2388 -0.1039
vn 0.1572 0.8416 0.5167
vn 0.6940 0.7101 -0.1189
vn 0.1650 -0.0291 -0.9859
vn -0.8148 0.4479 0.3681
vn 0.8350 -0.3376 -0.4344
vn 0.1410 -0.4943 -0.8578
vn -0.8350 -0.1369 -0.5329
vn 0.9981 -0.0607 -0.0107
vn -0.9826 0.1655 -0.0845
vn 0.9080 0.2233 0.3546
vn -0.2733 0.2519 -0.9284
vn -0.8492 -0.2737 0.4515
vn -0.9404 0.3362 -0.0514
vn -0.9610 -0.2255 0.1603
vn -0.0942 0.0021 0.9955
vn -0.6887 -0.3550 0.6322
vn -0.8532 -0.4905 0.1775
vn -0.8221 0.0022 -0.5693
vn 0.1792 -0.6490 -0.7394
vn 0.7661 -0.2526 -0.5910
vn -0.8407 0.2889 0.4580
vn -0.8778 -0.1133 -0.4655
vn -0.9918 0.1254 0.0255
vn 0.0168 0.6172 0.7866
vn -0.2171 -0.3430 -0.9139
vn 0.0714 0.0516 0.9961
vn -0.8261 -0.1269 0.5491
vn -0.9426 0.1335 -0.3062
vn -0.9659 -0.0534 0.2533
vn 0.5710 0.5754 -0.5856
vn -0.9502 -0.2234 0.2173
vn -0.6787 0.4442 -0.5849
vn 0.6008 -0.4160 0.6826
vn -0.7856 -0.3988 0.4731
vn -0.4582 -0.5319 0.7121
vn 0.9340 0.2812 -0.2203
vn 0.7995 0.4344 -0.4148
vn -0.1972 0.2387 -0.9509
vn -0.0419 -0.1751 0.9837
vn -0.3048 0.2044 0.9302
vn -0.1178 0.1882 -0.9750
vn -0.2186 0.0583 -0.9741
vn -0.6831 -0.7160 -0.1436
vn -0.5771 -0.8122 0.0855
vn -0.7188 -0.6688 -0.1900
vn -0.2761 0.2355 -0.9319
vn 0.2546 0.1013 0.9617
vn 0.0714 0.0800 0.9942
vn -0.3526 0.0581 -0.9340
vn -0.0900 -0.1864 -0.9783
vn -0.9962 0.0125 0.0864
vn -0.1673 0.1093 -0.9798
vn -0.5168 -0.7857 0.3400
vn -0.0718 -0.4602 -0.8849
vn -0.9772 -0.1945 0.0847
vn -0.7589 -0.3772 -0.5308
vn -0.7631 -0.0233 0.6459
vn -0.7922 -0.1126 -0.5998
vn -0.3213 -0.9024 -0.2870
vn -0.5560 -0.7349 0.3884
vn -0.1530 -0.1522 0.9764
vn -0.7973 -0.2323 0.5571
vn -0.8474 -0.0411 -0.5293
vn -0.7251 0.1581 0.6703
vn -0.9916 -0.0925 0.0901
vn -0.0916 -0.0431 -0.9949
vn -0.0799 -0.9968 0.0045
vn -0.0999 -0.9950 0.0056
vn -0.0981 -0.9952 0.0055
vn -0.6305 -0.7741 0.0566
vn -0.1242 -0.8469 -0.5170
vn -0.0523 -0.1513 0.9871
vn -0.4239 -0.0014 0.9057
vn -0.4176 -0.1492 0.8963
vn -0.1773 0.0301 0.9837
vn -0.1631 -0.4214 0.8921
vn 0.4780 0.1918 0.8572
vn 0.7139 0.4698 0.5193
vn 0.8318 0.5275 -0.1729
vn 0.7103 -0.6585 0.2487
vn 0.8422 -0.1560 0.5161
vn 0.6572 -0.7501 0.0734
vn -0.6635 0.7319 0.1549
vn 0.2892 -0.1909 0.9380
vn 0.6347 -0.3824 0.6715
vn -0.4223 0.6755 0.6045
vn 0.3776 -0.1317 -0.9166
vn 0.1266 0.1244 0.9841
vn 0.1723 0.8603 0.4797
vn 0.9871 0.1209 0.1049
vn -0.1209 -0.2133 0.9695
vn 0.4290 0.8459 0.3168
vn -0.0770 0.9526 -0.2945
vn 0.8674 -0.2849 0.4080
vn -0.8870 0.3764 -0.2675
vn -0.0107 0.7461 -0.6657
vn 0.8570 0.4187 -0.3003
vn -0.9982 0.0330 0.0493
vn 0.9963 0.0677 0.0527
vn -0.8779 -0.3034 0.3704
vn -0.2105 -0.1793 -0.9610
vn 0.9713 -0.2349 0.0382
vn 0.9267 0.1692 -0.3356
vn 0.8358 0.5241 0.1637
vn 0.2045 0.0037 0.9788
vn 0.6260 0.2803 0.7277
vn 0.8231 0.1166 0.5558
vn 0.4096 -0.2540 -0.8762
vn -0.6174 -0.6780 0.3989
vn 0.1001 -0.5795 0.8088
vn 0.8233 -0.2510 0.5091
vn 0.8314 0.3206 -0.4538
vn 0.9998 0.0151 -0.0138
vn 0.0106 -0.6610 0.7503
vn -0.0247 0.5673 -0.8231
vn 0.3529 0.0495 0.9344
vn 0.9658 0.0523 0.2539
vn 0.7739 -0.0366 -0.6323
vn 0.9981 -0.0576 0.0206
vn -0.6498 -0.5936 -0.4748
vn 0.9927 0.0713 0.0969
vn 0.4591 -0.7369 -0.4961
vn -0.4533 0.7778 0.4354
vn 0.8678 0.3873 0.3114
vn 0.6025 0.6547 0.4565
vn -0.9860 -0.0839 -0.1441
vn -0.8686 -0.3651 -0.3349
vn -0.2627 -0.0870 -0.9610
vn 0.4803 0.3324 0.8117
vn 0.5219 0.2218 0.8237
vn 0.0534 -0.0949 -0.9941
vn 0.0618 0.1390 -0.9884
vn 0.6160 -0.7757 -0.1375
vn 0.7094 -0.6868 0.1582
vn 0.6891 -0.6699 -0.2762
vn -0.1976 -0.0882 -0.9763
vn 0.4807 0.0951 0.8717
vn 0.4789 0.0793 0.8743
vn -0.2894 0.0786 -0.9540
vn -0.0324 -0.1918 -0.9809
vn 0.9992 0.0088 -0.0378
vn 0.0470 0.1117 -0.9926
vn 0.5799 -0.7667 0.2756
vn -0.0282 -0.4602 -0.8874
vn 0.9784 -0.2050 -0.0248
vn 0.6334 -0.3006 -0.7131
vn 0.8365 -0.0114 0.5479
vn 0.7131 -0.1070 -0.6928
vn 0.1929 -0.8175 -0.5427
vn 0.7708 -0.5793 0.2652
vn 0.2463 -0.2326 0.9409
vn 0.8564 -0.2262 0.4641
vn 0.7609 0.0125 -0.6487
vn 0.8217 0.0621 0.5666
vn 0.9932 0.1025 -0.0547
vn -0.0371 -0.0423 -0.9984
vn 0.0799 -0.9968 -0.0045
vn 0.0414 -0.9923 -0.1165
vn 0.0810 -0.9963 0.0279
vn 0.6229 -0.7823 -0.0090
vn 0.0657 -0.8469 -0.5277
vn 0.3049 0.0510 0.9510
vn 0.5459 0.0078 0.8378
vn 0.5176 -0.1433 0.8435
vn 0.3115 0.0405 0.9494
vn 0.2617 -0.4214 0.8683
vn -0.0537 0.0617 0.9966
vn -0.0983 -0.0072 0.9951
vn -0.1141 -0.1009 0.9883
vn 0.1992 0.0575 0.9783
vn 0.2127 0.0065 0.9771
vn 0.2237 -0.1009 0.9694
vn -0.0992 0.0297 0.9946
vn -0.0990 -0.0081 0.9951
vn -0.0978 -0.1315 0.9865
vn 0.2246 0.0381 0.9737
vn 0.2246 -0.0082 0.9744
vn 0.2114 -0.1238 0.9695
vn -0.9869 0.1599 0.0218
vn 0.7749 -0.6298 -0.0532
vn -0.0613 -0.9949 0.0798
vn -0.1146 -0.1126 -0.9870
vn -0.8925 -0.4426 0.0869
vn 0.9902 -0.0465 -0.1314
vn -0.9974 0.0605 0.0404
vn 0.1135 0.2477 0.9622
vn 0.8906 0.3756 0.2563
vn 0.1979 -0.1341 0.9710
vn 0.9793 -0.1776 0.0974
vn 0.7573 0.3263 0.5656
vn 0.0903 0.8983 0.4299
vn 0.7266 -0.5663 0.3890
vn -0.7434 0.5248 0.4146
vn 0.0920 0.5816 0.8083
vn 0.5217 0.7628 -0.3820
vn -0.7939 -0.5022 0.3428
vn 0.3451 0.8816 -0.3220
vn 0.2322 -0.6477 0.7257
vn 0.0261 -0.4146 0.9096
vn 0.1313 -0.5400 0.8313
vn 0.4228 0.3840 0.8209
vn -0.4590 -0.8843 0.0855
vn -0.8348 -0.0301 -0.5498
vn 0.7835 0.2406 0.5729
vn -0.5146 0.8409 -0.1678
vn 0.7436 0.4515 -0.4931
vn -0.9255 -0.0490 -0.3755
vn 0.3243 0.9450 -0.0419
vn -0.6438 -0.7333 0.2189
vn -0.5028 0.8608 0.0786
vn -0.4779 0.8033 -0.3554
vn -0.9504 -0.3110 0.0091
vn 0.4111 0.8425 -0.3481
vn 0.8127 0.5334 0.2346
vn 0.9591 0.2754 0.0661
vn -0.6076 -0.7344 -0.3024
vn -0.7744 -0.6052 -0.1843
vn 0.5733 -0.6580 -0.4882
vn -0.5136 0.6619 0.5460
vn -0.9484 -0.3159 0.0290
vn 0.4766 0.7643 0.4345
vn 0.4651 0.7623 0.4501
vn -0.9180 -0.3960 0.0208
vn -0.5556 0.5922 0.5836
vn 0.5799 -0.6920 -0.4300
vn -0.7872 -0.6061 -0.1139
vn -0.6066 -0.7592 -0.2358
vn 0.9848 0.1732 0.0120
vn 0.8119 0.5367 0.2295
vn 0.9278 -0.1654 0.3344
vn -0.6868 -0.7141 0.1354
vn 0.7105 0.5186 -0.4757
vn -0.3958 0.2261 0.8901
vn -0.6410 -0.1029 -0.7606
vn 0.5444 -0.8373 0.0508
vn -0.7072 -0.0701 -0.7035
vn 0.3410 -0.1267 -0.9315
vn 0.0506 0.9875 -0.1492
vn 0.8545 0.4814 -0.1950
vn -0.9906 0.1324 0.0335
vn 0.9875 -0.0382 -0.1527
vn -0.8896 -0.4396 0.1238
vn -0.0671 -0.9880 0.1390
vn 0.8156 -0.5763 -0.0516
vn -0.8379 0.5437 -0.0475
vn -0.8965 0.4424 -0.0222
vn 0.9075 0.3667 -0.2048
vn 0.0472 0.9831 -0.1766
vn -0.1592 0.2852 0.9451
vn 0.4254 0.2354 0.8739
vn 0.9874 0.0329 -0.1550
vn -0.1048 -0.1176 -0.9875
vn 0.9866 -0.1079 -0.1220
vn 0.8568 0.5009 0.1226
vn -0.7758 0.5652 0.2806
vn 0.0973 0.9316 0.3501
vn -0.9974 0.0604 0.0395
vn 0.9937 -0.0193 0.1108
vn -0.8403 0.4360 -0.3221
vn -0.0107 0.7724 -0.6350
vn -0.0003 0.6660 0.7460
vn 0.8581 0.4242 -0.2894
vn -0.9991 -0.0129 0.0402
vn 0.9985 0.0023 0.0541
vn 0.0095 -0.7616 -0.6479
vn -0.8536 -0.4976 0.1542
vn 0.9830 -0.1208 -0.1380
vn -0.9770 -0.1574 -0.1440
vn 0.8457 0.2341 -0.4796
vn 0.0170 -0.8399 0.5425
vn -0.8704 0.1736 -0.4607
vn 0.8502 -0.4927 0.1856
vn -0.0063 0.6133 -0.7898
vn -0.6911 -0.5928 -0.4135
vn 0.9083 0.3672 0.2003
vn -0.5285 -0.6426 -0.5548
vn -0.0071 0.9851 0.1716
vn 0.1857 0.9735 -0.1338
vn 0.0908 0.9957 0.0192
vn -0.3276 0.5361 -0.7780
vn 0.5847 0.3868 0.7131
vn 0.6137 -0.7258 0.3109
vn -0.7105 0.5250 -0.4685
vn 0.3402 -0.6826 -0.6468
vn -0.8697 -0.3990 -0.2906
vn -0.5604 -0.6903 0.4577
vn -0.5758 -0.2203 -0.7874
vn -0.5144 -0.7148 0.4738
vn -0.4798 0.5086 0.7150
vn 0.4662 -0.6978 -0.5438
vn 0.9240 -0.0946 0.3704
vn -0.6067 -0.4923 -0.6241
vn -0.8261 0.0956 -0.5554
vn -0.9714 0.1233 -0.2031
vn 0.5510 -0.0103 0.8344
vn 0.8354 -0.0133 0.5494
vn -0.5061 0.0784 0.8589
vn 0.5116 0.0143 -0.8591
vn 0.9811 -0.0236 0.1920
vn -0.5302 0.0832 -0.8438
vn -0.5118 0.1091 -0.8521
vn 0.9610 0.0181 0.2761
vn 0.5395 0.0598 -0.8398
vn -0.5228 0.1242 0.8434
vn 0.8456 0.0424 0.5321
vn 0.6636 0.0361 0.7472
vn -0.9852 0.1378 -0.1021
vn -0.8402 0.0945 -0.5339
vn -0.8242 0.5662 0.0089
vn 0.8048 0.3268 0.4954
vn -0.7502 -0.6291 -0.2035
vn 0.4912 0.5368 -0.6860
vn 0.5198 -0.7201 0.4597
vn -0.3884 0.5901 0.7077
vn 0.5881 -0.7040 0.3981
vn -0.4602 -0.6340 0.6214
vn 0.0122 -0.7223 0.6914
vn -0.8743 -0.3366 0.3497
vn 0.9965 0.0650 0.0534
vn -0.9990 0.0200 0.0391
vn 0.8571 0.4256 -0.2903
vn -0.0115 0.7729 -0.6345
vn -0.8845 0.3786 -0.2727
vn 0.8691 -0.3152 0.3811
vn 0.9215 -0.2346 0.3094
vn -0.8918 -0.2970 0.3413
vn 0.0131 -0.7059 0.7082
vn 0.2810 -0.7480 -0.6012
vn -0.2381 -0.7582 -0.6070
vn -0.9924 -0.0637 0.1053
vn -0.0073 0.6633 0.7483
vn -0.9995 0.0323 -0.0027
vn -0.7961 -0.5854 0.1532
vn 0.8439 -0.5210 0.1278
vn 0.0153 -0.9691 0.2463
vn 0.9957 0.0882 -0.0280
vn -0.9869 0.1591 0.0257
vn 0.7909 -0.6076 -0.0732
vn -0.0611 -0.9950 0.0794
vn -0.8923 -0.4430 0.0867
vn 0.9873 -0.0721 -0.1416
vn -0.9922 0.1093 0.0603
vn 0.1109 0.2465 0.9628
vn 0.8663 0.3960 0.3046
vn -0.9697 -0.1466 0.1954
vn 0.8936 -0.1100 0.4351
vn 0.4101 -0.4440 0.7967
vn 0.0976 0.8911 0.4431
vn -0.8112 0.1781 0.5570
vn -0.8054 0.4991 0.3199
vn 0.0725 0.7131 0.6973
vn -0.7612 -0.5425 0.3553
vn 0.3538 0.9220 -0.1573
vn 0.3970 0.4350 0.8082
vn -0.4480 -0.8934 0.0340
vn -0.7414 0.0106 -0.6710
vn -0.5146 0.8408 -0.1678
vn 0.5806 0.7460 -0.3261
vn 0.9113 0.1578 -0.3803
vn 0.3727 0.9280 0.0020
vn 0.6510 0.7449 -0.1464
vn -0.5520 0.7872 0.2749
vn -0.6187 0.6482 -0.4438
vn -0.8574 -0.5144 -0.0149
vn 0.3610 0.8530 -0.3769
vn 0.7818 0.5695 0.2539
vn 0.9822 0.1874 -0.0086
vn -0.4366 -0.8031 -0.4054
vn -0.8005 -0.5754 -0.1678
vn 0.5215 -0.6982 -0.4905
vn -0.5640 0.6210 0.5443
vn -0.9264 -0.3765 -0.0049
vn 0.4361 0.7813 0.4465
vn 0.4788 0.7455 0.4637
vn -0.9074 -0.4191 0.0326
vn -0.6002 -0.7554 -0.2629
vn 0.9845 0.1749 -0.0136
vn 0.9067 -0.1633 0.3889
vn 0.5821 0.6135 -0.5335
vn -0.6332 -0.2581 -0.7297
vn -0.7072 -0.0700 -0.7035
vn 0.0722 0.9872 -0.1421
vn 0.8532 0.4839 -0.1947
vn -0.9981 0.0551 0.0291
vn 0.9880 -0.0277 -0.1521
vn -0.8514 -0.5107 0.1192
vn -0.0542 -0.9883 0.1427
vn 0.7943 -0.6055 -0.0499
vn -0.7994 0.5990 -0.0458
vn -0.8963 0.4428 -0.0220
vn 0.8999 0.3928 -0.1895
vn 0.0467 0.9833 -0.1758
vn -0.2459 0.2820 0.9274
vn 0.3568 0.2485 0.9005
vn 0.9870 0.0334 -0.1570
vn -0.1074 -0.1097 -0.9881
vn 0.9872 -0.0722 -0.1420
vn -0.9969 -0.0081 0.0783
vn 0.9933 -0.0177 0.1144
vn -0.8242 0.4448 -0.3506
vn -0.0104 0.7722 -0.6353
vn 0.8583 0.4237 -0.2893
vn -0.9993 0.0142 0.0339
vn 0.9976 0.0540 0.0425
vn 0.0121 -0.7607 -0.6490
vn -0.8532 -0.4971 0.1578
vn 0.9808 -0.1231 -0.1510
vn -0.9748 -0.1591 -0.1561
vn 0.8441 0.2423 -0.4783
vn 0.0169 -0.8401 0.5421
vn -0.8675 0.1960 -0.4571
vn 0.8521 -0.4943 0.1720
vn -0.0055 0.6157 -0.7880
vn 0.8849 0.4054 0.2294
vn -0.5171 -0.5245 -0.6764
vn -0.3425 0.5784 -0.7404
vn 0.6022 0.4225 0.6774
vn 0.7305 -0.6248 0.2758
vn -0.8019 -0.3565 -0.4795
vn -0.9157 -0.3444 -0.2072
vn -0.4756 -0.5669 -0.6726
vn 0.8383 0.1012 0.5357
vn 0.4793 -0.3165 -0.8186
vn 0.3810 -0.6443 -0.6631
vn 0.9708 -0.1058 0.2151
vn -0.6271 -0.4691 -0.6219
vn -0.8397 0.1002 -0.5338
vn -0.9882 0.1129 -0.1032
vn 0.6606 -0.0026 0.7507
vn 0.8453 -0.0165 0.5341
vn -0.5290 0.0752 0.8453
vn 0.5374 0.0182 -0.8432
vn 0.9619 -0.0148 0.2729
vn -0.5159 0.0804 -0.8529
vn -0.5033 0.0861 -0.8598
vn 0.9561 0.0420 0.2899
vn 0.6748 0.0591 0.7356
vn -0.9892 0.1156 -0.0899
vn -0.7952 0.6058 -0.0230
vn -0.8508 -0.5043 -0.1476
vn 0.5419 -0.6133 0.5746
vn 0.0130 -0.7221 0.6917
vn -0.8270 -0.3820 0.4125
vn 0.9959 -0.0016 0.0902
vn -0.9981 -0.0151 0.0590
vn 0.8581 0.4245 -0.2890
vn -0.0107 0.7731 -0.6342
vn -0.8408 0.4265 -0.3333
vn 0.8696 -0.3147 0.3806
vn 0.9217 -0.2341 0.3093
vn -0.8805 -0.3259 0.3441
vn 0.0138 -0.7064 0.7076
vn 0.3648 -0.7243 -0.5850
vn -0.3100 -0.7410 -0.5956
vn -0.9922 -0.0629 0.1072
vn -0.0104 0.6690 0.7431
vn -0.9993 0.0144 0.0342
vn 0.9976 0.0545 0.0431
usemtl color_1
s off
f 94//1 58//1 91//1
f 43//2 49//2 51//2
f 8//3 10//3 2//3
f 88//4 3//4 6//4
f 7//5 13//5 15//5
f 88//6 98//6 99//6
f 171//7 16//7 179//7
f 172//8 115//8 276//8
f 5//9 47//9 1//9
f 3//10 50//10 46//10
f 89//11 1//11 41//11
f 54//12 173//12 4//12
f 179//13 14//13 180//13
f 8//14 15//14 9//14
f 4//15 12//15 13//15
f 180//16 12//16 173//16
f 2//17 11//17 171//17
f 13//18 35//18 15//18
f 11//19 34//19 16//19
f 11//20 37//20 33//20
f 9//21 37//21 10//21
f 16//22 36//22 14//22
f 15//23 40//23 9//23
f 12//24 36//24 39//24
f 89//25 57//25 92//25
f 43//26 60//26 59//26
f 41//27 59//27 57//27
f 60//28 42//28 58//28
f 172//29 90//29 85//29
f 6//30 46//30 45//30
f 5//31 45//31 48//31
f 41//32 47//32 49//32
f 44//33 50//33 42//33
f 44//34 51//34 52//34
f 7//35 54//35 4//35
f 53//36 8//36 2//36
f 8//37 56//37 7//37
f 13//38 39//38 38//38
f 229//39 2//39 171//39
f 216//40 91//40 90//40
f 56//41 58//41 54//41
f 53//42 59//42 55//42
f 55//43 60//43 56//43
f 51//44 77//44 78//44
f 48//45 80//45 47//45
f 49//46 80//46 77//46
f 50//47 79//47 46//47
f 48//48 83//48 81//48
f 45//49 79//49 83//49
f 52//50 82//50 50//50
f 52//51 78//51 84//51
f 235//52 93//52 271//52
f 90//53 58//53 42//53
f 3//54 90//54 42//54
f 215//55 92//55 235//55
f 174//56 89//56 215//56
f 1//57 87//57 5//57
f 5//58 88//58 6//58
f 86//59 98//59 87//59
f 93//60 57//60 53//60
f 94//61 230//61 54//61
f 91//62 272//62 94//62
f 93//63 229//63 271//63
f 110//64 285//64 101//64
f 109//65 103//65 108//65
f 174//66 97//66 86//66
f 85//67 99//67 115//67
f 285//68 104//68 101//68
f 103//69 105//69 106//69
f 102//70 104//70 105//70
f 108//71 118//71 117//71
f 110//72 102//72 109//72
f 105//73 112//73 113//73
f 116//74 114//74 111//74
f 279//75 111//75 300//75
f 103//76 116//76 118//76
f 97//77 109//77 98//77
f 99//78 117//78 115//78
f 98//79 108//79 99//79
f 278//80 110//80 97//80
f 303//81 114//81 113//81
f 112//82 303//82 113//82
f 301//83 111//83 114//83
f 106//84 113//84 114//84
f 289//85 112//85 104//85
f 95//86 276//86 115//86
f 100//87 117//87 118//87
f 96//88 118//88 116//88
f 95//89 117//89 107//89
f 96//90 279//90 312//90
f 274//91 234//91 228//91
f 225//92 213//92 217//92
f 182//93 178//93 168//93
f 266//94 169//94 263//94
f 177//95 185//95 170//95
f 266//96 281//96 265//96
f 179//97 183//97 171//97
f 172//98 307//98 263//98
f 221//99 175//99 167//99
f 169//100 224//100 214//100
f 213//101 264//101 267//101
f 170//102 230//102 228//102
f 180//103 188//103 179//103
f 181//104 177//104 178//104
f 170//105 184//105 173//105
f 173//106 186//106 180//106
f 183//107 168//107 171//107
f 207//108 185//108 187//108
f 188//109 205//109 183//109
f 205//110 182//110 183//110
f 182//111 212//111 181//111
f 186//112 206//112 188//112
f 181//113 207//113 187//113
f 184//114 208//114 186//114
f 233//115 267//115 270//115
f 237//116 218//116 217//116
f 237//117 213//117 233//117
f 238//118 214//118 218//118
f 268//119 172//119 263//119
f 176//120 220//120 169//120
f 222//121 176//121 175//121
f 223//122 167//122 213//122
f 224//123 218//123 214//123
f 226//124 217//124 218//124
f 177//125 228//125 232//125
f 178//126 227//126 168//126
f 177//127 231//127 178//127
f 185//128 211//128 184//128
f 171//129 227//129 229//129
f 269//130 216//130 268//130
f 228//131 238//131 232//131
f 231//132 233//132 227//132
f 232//133 237//133 231//133
f 225//134 255//134 223//134
f 258//135 222//135 221//135
f 223//136 258//136 221//136
f 257//137 224//137 220//137
f 222//138 261//138 219//138
f 219//139 257//139 220//139
f 260//140 226//140 224//140
f 262//141 225//141 226//141
f 271//142 270//142 235//142
f 234//143 268//143 214//143
f 169//144 268//144 263//144
f 270//145 215//145 235//145
f 267//146 174//146 215//146
f 167//147 265//147 264//147
f 175//148 266//148 265//148
f 281//149 264//149 265//149
f 233//150 273//150 227//150
f 230//151 274//151 228//151
f 274//152 236//152 269//152
f 273//153 229//153 227//153
f 297//154 285//154 296//154
f 294//155 287//155 295//155
f 280//156 174//156 264//156
f 263//157 282//157 266//157
f 290//158 285//158 286//158
f 288//159 291//159 287//159
f 287//160 290//160 286//160
f 310//161 294//161 309//161
f 287//162 297//162 295//162
f 291//163 304//163 290//163
f 308//164 306//164 292//164
f 279//165 299//165 308//165
f 308//166 288//166 310//166
f 295//167 280//167 281//167
f 307//168 294//168 282//168
f 282//169 295//169 281//169
f 297//170 278//170 280//170
f 306//171 303//171 305//171
f 304//172 303//172 302//172
f 301//173 299//173 300//173
f 292//174 305//174 291//174
f 304//175 289//175 290//175
f 275//176 276//176 311//176
f 310//177 293//177 283//177
f 277//178 310//178 283//178
f 309//179 275//179 293//179
f 279//180 277//180 312//180
f 94//181 54//181 58//181
f 43//182 41//182 49//182
f 8//183 9//183 10//183
f 88//184 85//184 3//184
f 7//185 4//185 13//185
f 88//186 87//186 98//186
f 171//187 11//187 16//187
f 172//188 85//188 115//188
f 5//189 48//189 47//189
f 3//190 42//190 50//190
f 89//191 86//191 1//191
f 54//192 230//192 173//192
f 179//193 16//193 14//193
f 8//194 7//194 15//194
f 4//195 173//195 12//195
f 180//196 14//196 12//196
f 2//197 10//197 11//197
f 13//198 38//198 35//198
f 11//199 33//199 34//199
f 11//200 10//200 37//200
f 9//201 40//201 37//201
f 16//202 34//202 36//202
f 15//203 35//203 40//203
f 12//204 14//204 36//204
f 89//205 41//205 57//205
f 43//206 44//206 60//206
f 41//207 43//207 59//207
f 60//208 44//208 42//208
f 172//209 216//209 90//209
f 6//210 3//210 46//210
f 5//211 6//211 45//211
f 41//212 1//212 47//212
f 44//213 52//213 50//213
f 44//214 43//214 51//214
f 7//215 56//215 54//215
f 53//216 55//216 8//216
f 8//217 55//217 56//217
f 13//218 12//218 39//218
f 229//219 53//219 2//219
f 216//220 236//220 91//220
f 56//221 60//221 58//221
f 53//222 57//222 59//222
f 55//223 59//223 60//223
f 51//224 49//224 77//224
f 48//225 81//225 80//225
f 49//226 47//226 80//226
f 50//227 82//227 79//227
f 48//228 45//228 83//228
f 45//229 46//229 79//229
f 52//230 84//230 82//230
f 52//231 51//231 78//231
f 235//232 92//232 93//232
f 90//233 91//233 58//233
f 3//234 85//234 90//234
f 215//235 89//235 92//235
f 174//236 86//236 89//236
f 1//237 86//237 87//237
f 5//238 87//238 88//238
f 86//239 97//239 98//239
f 93//240 92//240 57//240
f 94//241 272//241 230//241
f 91//242 236//242 272//242
f 93//243 53//243 229//243
f 110//244 296//244 285//244
f 109//245 102//245 103//245
f 174//246 278//246 97//246
f 85//247 88//247 99//247
f 285//248 289//248 104//248
f 103//249 102//249 105//249
f 102//250 101//250 104//250
f 108//251 103//251 118//251
f 110//252 101//252 102//252
f 105//253 104//253 112//253
f 116//254 106//254 114//254
f 279//255 116//255 111//255
f 103//256 106//256 116//256
f 97//257 110//257 109//257
f 99//258 108//258 117//258
f 98//259 109//259 108//259
f 278//260 296//260 110//260
f 303//261 301//261 114//261
f 112//262 302//262 303//262
f 301//263 300//263 111//263
f 106//264 105//264 113//264
f 289//265 302//265 112//265
f 95//266 311//266 276//266
f 100//267 107//267 117//267
f 96//268 100//268 118//268
f 95//269 115//269 117//269
f 96//270 116//270 279//270
f 274//271 269//271 234//271
f 225//272 223//272 213//272
f 182//273 181//273 178//273
f 266//274 176//274 169//274
f 177//275 187//275 185//275
f 266//276 282//276 281//276
f 179//277 188//277 183//277
f 172//278 276//278 307//278
f 221//279 222//279 175//279
f 169//280 220//280 224//280
f 213//281 167//281 264//281
f 170//282 173//282 230//282
f 180//283 186//283 188//283
f 181//284 187//284 177//284
f 170//285 185//285 184//285
f 173//286 184//286 186//286
f 183//287 182//287 168//287
f 207//288 210//288 185//288
f 188//289 206//289 205//289
f 205//290 209//290 182//290
f 182//291 209//291 212//291
f 186//292 208//292 206//292
f 181//293 212//293 207//293
f 184//294 211//294 208//294
f 233//295 213//295 267//295
f 237//296 238//296 218//296
f 237//297 217//297 213//297
f 238//298 234//298 214//298
f 268//299 216//299 172//299
f 176//300 219//300 220//300
f 222//301 219//301 176//301
f 223//302 221//302 167//302
f 224//303 226//303 218//303
f 226//304 225//304 217//304
f 177//305 170//305 228//305
f 178//306 231//306 227//306
f 177//307 232//307 231//307
f 185//308 210//308 211//308
f 171//309 168//309 227//309
f 269//310 236//310 216//310
f 228//311 234//311 238//311
f 231//312 237//312 233//312
f 232//313 238//313 237//313
f 225//314 256//314 255//314
f 258//315 259//315 222//315
f 223//316 255//316 258//316
f 257//317 260//317 224//317
f 222//318 259//318 261//318
f 219//319 261//319 257//319
f 260//320 262//320 226//320
f 262//321 256//321 225//321
f 271//322 273//322 270//322
f 234//323 269//323 268//323
f 169//324 214//324 268//324
f 270//325 267//325 215//325
f 267//326 264//326 174//326
f 167//327 175//327 265//327
f 175//328 176//328 266//328
f 281//329 280//329 264//329
f 233//330 270//330 273//330
f 230//331 272//331 274//331
f 274//332 272//332 236//332
f 273//333 271//333 229//333
f 297//334 286//334 285//334
f 294//335 288//335 287//335
f 280//336 278//336 174//336
f 263//337 307//337 282//337
f 290//338 289//338 285//338
f 288//339 292//339 291//339
f 287//340 291//340 290//340
f 310//341 288//341 294//341
f 287//342 286//342 297//342
f 291//343 305//343 304//343
f 308//344 299//344 306//344
f 279//345 300//345 299//345
f 308//346 292//346 288//346
f 295//347 297//347 280//347
f 307//348 309//348 294//348
f 282//349 294//349 295//349
f 297//350 296//350 278//350
f 306//351 301//351 303//351
f 304//352 305//352 303//352
f 301//353 306//353 299//353
f 292//354 306//354 305//354
f 304//355 302//355 289//355
f 275//356 307//356 276//356
f 310//357 309//357 293//357
f 277//358 308//358 310//358
f 309//359 307//359 275//359
f 279//360 308//360 277//360
usemtl color_2
f 95//361 298//361 311//361
f 284//362 107//362 100//362
f 284//363 96//363 312//363
f 298//364 275//364 311//364
f 293//365 284//365 283//365
f 277//366 284//366 312//366
f 95//367 107//367 298//367
f 284//368 298//368 107//368
f 284//369 100//369 96//369
f 298//370 293//370 275//370
f 293//371 298//371 284//371
f 277//372 283//372 284//372
usemtl color_3
f 160//373 157//373 154//373
f 148//374 19//374 24//374
f 147//375 18//375 19//375
f 23//376 20//376 22//376
f 17//376 19//376 18//376
f 17//376 22//376 24//376
f 143//377 17//377 18//377
f 148//378 22//378 150//378
f 146//379 23//379 17//379
f 161//380 155//380 162//380
f 36//381 30//381 39//381
f 40//382 29//382 31//382
f 34//383 32//383 36//383
f 37//384 31//384 26//384
f 159//376 154//376 153//376
f 38//385 30//385 28//385
f 34//386 25//386 27//386
f 35//387 28//387 29//387
f 33//388 26//388 25//388
f 125//389 139//389 123//389
f 63//390 131//390 64//390
f 124//391 141//391 125//391
f 61//392 66//392 68//392
f 65//393 64//393 67//393
f 67//394 61//394 68//394
f 65//395 134//395 132//395
f 62//396 129//396 130//396
f 119//397 136//397 127//397
f 68//398 134//398 67//398
f 119//399 140//399 124//399
f 78//400 76//400 84//400
f 82//401 76//401 73//401
f 83//402 74//402 75//402
f 81//403 75//403 71//403
f 82//404 74//404 79//404
f 77//405 70//405 69//405
f 80//406 71//406 70//406
f 78//407 69//407 72//407
f 76//408 125//408 123//408
f 76//409 121//409 73//409
f 75//410 126//410 122//410
f 75//411 120//411 71//411
f 74//412 121//412 126//412
f 70//413 124//413 69//413
f 71//414 119//414 70//414
f 72//415 124//415 125//415
f 141//416 132//416 134//416
f 136//417 128//417 127//417
f 140//418 128//418 132//418
f 137//419 130//419 142//419
f 136//420 129//420 131//420
f 138//421 130//421 129//421
f 139//422 133//422 137//422
f 139//423 134//423 135//423
f 66//424 135//424 68//424
f 61//425 131//425 129//425
f 121//426 139//426 137//426
f 63//427 132//427 128//427
f 126//428 138//428 122//428
f 62//429 133//429 66//429
f 122//430 136//430 120//430
f 126//431 137//431 142//431
f 28//432 145//432 144//432
f 32//433 145//433 30//433
f 31//434 149//434 146//434
f 27//435 150//435 32//435
f 26//436 146//436 143//436
f 26//437 147//437 25//437
f 25//438 148//438 27//438
f 29//439 144//439 149//439
f 157//440 153//440 154//440
f 158//441 152//441 156//441
f 156//442 153//442 155//442
f 162//443 157//443 163//443
f 164//376 151//376 165//376
f 161//444 158//444 156//444
f 165//445 158//445 166//445
f 164//376 153//376 152//376
f 156//446 157//446 155//446
f 20//376 159//376 164//376
f 22//447 166//447 150//447
f 145//448 166//448 161//448
f 20//376 165//376 22//376
f 144//449 163//449 149//449
f 21//376 160//376 159//376
f 144//450 161//450 162//450
f 23//451 163//451 160//451
f 354//452 351//452 357//452
f 342//453 191//453 341//453
f 341//454 190//454 337//454
f 192//455 195//455 194//455
f 191//455 189//455 190//455
f 194//455 189//455 196//455
f 337//456 189//456 340//456
f 194//457 342//457 344//457
f 340//458 195//458 343//458
f 349//459 355//459 356//459
f 211//460 204//460 208//460
f 203//461 207//461 212//461
f 208//462 199//462 206//462
f 209//463 203//463 212//463
f 353//455 348//455 354//455
f 210//464 202//464 211//464
f 199//465 205//465 206//465
f 201//466 210//466 207//466
f 197//467 209//467 205//467
f 333//468 319//468 317//468
f 325//469 241//469 242//469
f 335//470 318//470 319//470
f 244//471 239//471 246//471
f 243//472 242//472 241//472
f 246//473 242//473 245//473
f 243//474 328//474 245//474
f 240//475 323//475 239//475
f 313//476 330//476 314//476
f 328//477 246//477 245//477
f 334//478 313//478 318//478
f 254//479 256//479 262//479
f 251//480 262//480 260//480
f 261//481 252//481 257//481
f 259//482 253//482 261//482
f 257//483 251//483 260//483
f 255//484 248//484 258//484
f 258//485 249//485 259//485
f 256//486 247//486 255//486
f 254//487 319//487 250//487
f 315//488 254//488 251//488
f 253//489 320//489 252//489
f 314//490 253//490 249//490
f 252//491 315//491 251//491
f 318//492 248//492 247//492
f 313//493 249//493 248//493
f 250//494 318//494 247//494
f 335//495 326//495 334//495
f 322//496 330//496 321//496
f 334//497 322//497 321//497
f 324//498 331//498 336//498
f 330//499 323//499 332//499
f 332//500 324//500 336//500
f 327//501 333//501 331//501
f 333//502 328//502 335//502
f 329//503 244//503 246//503
f 239//504 325//504 242//504
f 315//505 333//505 317//505
f 241//506 326//506 243//506
f 332//507 320//507 316//507
f 327//508 240//508 244//508
f 330//509 316//509 314//509
f 320//510 331//510 315//510
f 200//511 339//511 202//511
f 202//512 344//512 204//512
f 203//513 343//513 201//513
f 344//514 199//514 204//514
f 337//515 203//515 198//515
f 341//516 198//516 197//516
f 199//517 341//517 197//517
f 343//518 200//518 201//518
f 351//519 347//519 349//519
f 346//520 352//520 350//520
f 347//521 350//521 349//521
f 351//522 356//522 357//522
f 345//455 358//455 359//455
f 355//523 352//523 360//523
f 352//524 359//524 360//524
f 358//455 347//455 353//455
f 350//525 351//525 352//525
f 192//455 353//455 193//455
f 360//526 194//526 344//526
f 339//527 360//527 344//527
f 359//455 192//455 194//455
f 357//528 338//528 343//528
f 193//455 354//455 195//455
f 338//529 355//529 339//529
f 195//530 357//530 343//530
f 160//531 163//531 157//531
f 148//532 147//532 19//532
f 147//533 143//533 18//533
f 23//376 21//376 20//376
f 17//376 24//376 19//376
f 17//376 23//376 22//376
f 143//534 146//534 17//534
f 148//535 24//535 22//535
f 146//536 149//536 23//536
f 161//537 156//537 155//537
f 36//538 32//538 30//538
f 40//539 35//539 29//539
f 34//540 27//540 32//540
f 37//541 40//541 31//541
f 159//376 160//376 154//376
f 38//542 39//542 30//542
f 34//543 33//543 25//543
f 35//544 38//544 28//544
f 33//545 37//545 26//545
f 125//389 141//389 139//389
f 63//546 128//546 131//546
f 124//547 140//547 141//547
f 61//392 62//392 66//392
f 65//393 63//393 64//393
f 67//394 64//394 61//394
f 65//548 67//548 134//548
f 62//549 61//549 129//549
f 119//550 120//550 136//550
f 68//398 135//398 134//398
f 119//551 127//551 140//551
f 78//552 72//552 76//552
f 82//553 84//553 76//553
f 83//554 79//554 74//554
f 81//555 83//555 75//555
f 82//556 73//556 74//556
f 77//557 80//557 70//557
f 80//558 81//558 71//558
f 78//559 77//559 69//559
f 76//560 72//560 125//560
f 76//561 123//561 121//561
f 75//562 74//562 126//562
f 75//563 122//563 120//563
f 74//564 73//564 121//564
f 70//565 119//565 124//565
f 71//566 120//566 119//566
f 72//567 69//567 124//567
f 141//568 140//568 132//568
f 136//569 131//569 128//569
f 140//418 127//418 128//418
f 137//419 133//419 130//419
f 136//420 138//420 129//420
f 138//570 142//570 130//570
f 139//571 135//571 133//571
f 139//423 141//423 134//423
f 66//572 133//572 135//572
f 61//425 64//425 131//425
f 121//573 123//573 139//573
f 63//427 65//427 132//427
f 126//574 142//574 138//574
f 62//429 130//429 133//429
f 122//575 138//575 136//575
f 126//431 121//431 137//431
f 28//576 30//576 145//576
f 32//577 150//577 145//577
f 31//578 29//578 149//578
f 27//579 148//579 150//579
f 26//580 31//580 146//580
f 26//581 143//581 147//581
f 25//582 147//582 148//582
f 29//583 28//583 144//583
f 157//584 155//584 153//584
f 158//585 151//585 152//585
f 156//586 152//586 153//586
f 162//587 155//587 157//587
f 164//376 152//376 151//376
f 161//588 166//588 158//588
f 165//589 151//589 158//589
f 164//376 159//376 153//376
f 156//590 158//590 157//590
f 20//376 21//376 159//376
f 22//591 165//591 166//591
f 145//448 150//448 166//448
f 20//376 164//376 165//376
f 144//449 162//449 163//449
f 21//376 23//376 160//376
f 144//450 145//450 161//450
f 23//592 149//592 163//592
f 354//593 348//593 351//593
f 342//594 196//594 191//594
f 341//595 191//595 190//595
f 192//455 193//455 195//455
f 191//455 196//455 189//455
f 194//455 195//455 189//455
f 337//596 190//596 189//596
f 194//597 196//597 342//597
f 340//598 189//598 195//598
f 349//599 350//599 355//599
f 211//600 202//600 204//600
f 203//601 201//601 207//601
f 208//602 204//602 199//602
f 209//603 198//603 203//603
f 353//455 347//455 348//455
f 210//604 200//604 202//604
f 199//605 197//605 205//605
f 201//606 200//606 210//606
f 197//607 198//607 209//607
f 333//468 335//468 319//468
f 325//608 322//608 241//608
f 335//609 334//609 318//609
f 244//471 240//471 239//471
f 243//472 245//472 242//472
f 246//473 239//473 242//473
f 243//610 326//610 328//610
f 240//611 324//611 323//611
f 313//612 321//612 330//612
f 328//477 329//477 246//477
f 334//478 321//478 313//478
f 254//613 250//613 256//613
f 251//614 254//614 262//614
f 261//615 253//615 252//615
f 259//616 249//616 253//616
f 257//617 252//617 251//617
f 255//618 247//618 248//618
f 258//619 248//619 249//619
f 256//620 250//620 247//620
f 254//621 317//621 319//621
f 315//622 317//622 254//622
f 253//623 316//623 320//623
f 314//624 316//624 253//624
f 252//625 320//625 315//625
f 318//626 313//626 248//626
f 313//627 314//627 249//627
f 250//628 319//628 318//628
f 335//629 328//629 326//629
f 322//630 325//630 330//630
f 334//497 326//497 322//497
f 324//498 327//498 331//498
f 330//499 325//499 323//499
f 332//631 323//631 324//631
f 327//632 329//632 333//632
f 333//502 329//502 328//502
f 329//633 327//633 244//633
f 239//504 323//504 325//504
f 315//634 331//634 333//634
f 241//506 322//506 326//506
f 332//635 336//635 320//635
f 327//508 324//508 240//508
f 330//509 332//509 316//509
f 320//510 336//510 331//510
f 200//636 338//636 339//636
f 202//637 339//637 344//637
f 203//638 340//638 343//638
f 344//639 342//639 199//639
f 337//640 340//640 203//640
f 341//641 337//641 198//641
f 199//642 342//642 341//642
f 343//643 338//643 200//643
f 351//644 348//644 347//644
f 346//645 345//645 352//645
f 347//646 346//646 350//646
f 351//647 349//647 356//647
f 345//455 346//455 358//455
f 355//648 350//648 352//648
f 352//649 345//649 359//649
f 358//455 346//455 347//455
f 350//650 349//650 351//650
f 192//455 358//455 353//455
f 360//651 359//651 194//651
f 339//527 355//527 360//527
f 359//455 358//455 192//455
f 357//528 356//528 338//528
f 193//455 353//455 354//455
f 338//529 356//529 355//529
f 195//652 354//652 357//652
