# Blender v2.83.5 OBJ File: 'bio.blend'
# www.blender.org
mtllib bio_000014.mtl
o Cube
v -0.927937 -1.070969 -0.416143
v -0.661097 0.939910 -0.475695
v -0.684375 -1.118144 0.530946
v -0.670792 1.004202 0.461395
v -1.006299 -1.050678 -0.090438
v -0.917676 -1.078114 0.276527
v -0.852780 1.006194 0.172575
v -0.848079 0.977920 -0.198043
v -0.771595 1.260826 -0.148604
v -0.667150 1.236677 -0.322746
v -0.138592 1.181361 -0.284642
v -0.141401 1.188590 0.288688
v -0.674845 1.281366 0.260470
v -0.059072 1.172314 0.115890
v -0.774638 1.278499 0.082038
v -0.057820 1.177879 -0.085488
v -0.642159 2.230784 -1.382859
v -0.578056 2.117415 -1.381438
v -0.263090 2.112293 -1.421550
v -0.261659 2.485112 -1.453548
v -0.576628 2.489317 -1.413357
v -0.183029 2.371069 -1.453940
v -0.641594 2.377859 -1.395482
v -0.183594 2.223994 -1.441316
v -0.051183 2.254961 -0.207762
v -0.477316 2.269280 -0.175772
v 0.029174 2.362605 -0.183928
v -0.477821 2.634679 -0.090637
v -0.560592 2.525486 -0.107225
v -0.051699 2.615905 -0.115201
v -0.560436 2.380170 -0.140237
v 0.029028 2.497313 -0.152251
v -0.062845 2.351625 -0.276642
v 0.008868 2.380406 -0.167794
v -0.534735 2.476042 -0.033059
v 0.007093 2.416603 -0.036647
v -0.455058 2.398427 -0.280750
v -0.459855 2.495559 0.079600
v -0.067676 2.451222 0.081326
v -0.532803 2.438171 -0.175947
v -0.931519 -0.570042 -0.455241
v -0.736656 -0.624643 0.482180
v -0.961524 -0.551561 -0.152506
v -0.777204 -0.615519 0.171823
v -1.055940 -0.769821 0.342206
v -0.881173 -0.811844 0.426184
v -1.243292 -0.668536 -0.053096
v -1.204444 -0.714275 0.153041
v -1.026631 -0.529985 -0.204049
v -0.668445 -0.666171 0.280279
v -0.883277 -0.514890 -0.070235
v -0.745388 -0.569969 0.121314
v -0.735999 0.360929 -0.469363
v -0.735883 0.412902 0.528251
v -0.912700 0.370016 -0.183211
v -0.904579 0.389076 0.207519
v -0.785942 -0.395948 -0.479303
v -0.658421 -0.427407 0.479828
v -0.901800 -0.404075 -0.181464
v -0.822675 -0.427274 0.185874
v -1.021981 0.240886 2.254655
v -0.934780 0.184557 2.210754
v -1.158478 0.445618 2.299651
v -1.110447 0.344127 2.289810
v -1.020212 0.559736 2.312457
v -0.796513 0.298675 2.223560
v -0.908443 0.510851 2.308519
v -0.819977 0.407610 2.273364
v -1.237141 0.997516 0.798572
v -1.461821 0.823272 0.805682
v -1.400783 0.662593 0.816392
v -1.072398 0.923314 0.820371
v -0.873442 0.617087 0.743532
v -1.098129 0.444225 0.753494
v -1.256949 0.506949 0.783711
v -0.928749 0.768151 0.786746
v -1.210470 0.737109 0.486463
v -1.077045 0.738462 0.570764
v -1.091219 0.486185 0.918790
v -1.401849 0.630685 0.600845
v -1.356125 0.581460 0.740157
v -0.900106 0.592804 0.802017
v -1.233727 0.526638 0.866090
v -0.954107 0.681195 0.697235
v -0.579326 -1.176104 0.579238
v -0.764581 -1.195879 -0.513966
v -0.849507 -1.175786 -0.249442
v -0.695645 -1.236945 0.243391
v -0.384826 -0.534727 -0.545793
v -0.321632 -0.547515 0.524148
v -0.282956 -0.332748 0.541326
v -0.309163 -0.332693 -0.531386
v -0.303167 0.045057 -0.507057
v -0.289078 0.058351 0.538392
v -0.263298 -1.398065 0.503478
v -0.433264 -2.412553 0.457048
v -0.547720 -1.392031 -0.602992
v -0.742513 -1.292719 -0.271556
v -0.597206 -1.307169 0.236192
v -0.455626 -2.178294 0.485269
v -0.508914 -2.218469 -0.566913
v -0.704833 -2.179657 -0.336025
v -0.678813 -2.179657 0.237100
v -0.478420 -2.456387 -0.447066
v -0.647068 -2.456387 -0.273258
v -0.624153 -2.456387 0.199919
v -0.449799 -1.791249 0.488898
v -0.670173 -1.789039 0.263026
v -0.700756 -1.789039 -0.353886
v -0.508003 -1.870364 -0.630042
v -0.405806 -2.552485 0.425308
v -0.407758 -2.552485 -0.230826
v -0.524892 -2.552485 -0.179602
v -0.503822 -2.552485 0.194834
v -0.444592 -1.290733 0.464399
v -0.479876 -2.456387 0.425648
v -0.500270 -1.789039 0.462700
v -0.506245 -2.179657 0.458871
v -1.222757 0.512167 2.083182
v -1.167018 0.389036 2.071221
v -0.788977 0.336070 1.991996
v -1.061001 0.265312 2.029090
v -0.818919 0.465113 2.051511
v -1.057058 0.648925 2.098529
v -0.924936 0.588837 2.093642
v -0.954676 0.199311 1.976649
v -1.254852 0.516208 2.128223
v -1.230298 0.489972 2.228059
v -1.049079 0.219145 2.155645
v -0.931094 0.140796 2.109157
v -1.167404 0.357233 2.202667
v -1.045363 0.642607 2.245187
v -0.746159 0.293432 2.126285
v -0.897218 0.580230 2.227690
v -0.778893 0.442142 2.180668
v -1.191489 0.376264 2.101590
v -0.750809 0.311588 2.022266
v -1.068300 0.232500 2.052635
v -0.787006 0.464665 2.078688
v -1.062314 0.675119 2.146055
v -0.910196 0.608429 2.127643
v -0.943347 0.152677 2.004433
v -0.557763 2.129615 -1.108298
v -0.532631 2.550244 -0.959617
v -0.193729 2.545931 -1.000298
v -0.625766 2.249749 -1.109794
v -0.218865 2.124332 -1.148896
v -0.138974 2.244141 -1.169405
v -0.601549 2.432137 -0.940666
v -0.114767 2.423770 -1.000039
v -0.241284 3.051941 -1.504541
v -0.299407 3.165680 -1.506764
v -0.532681 3.168676 -1.476987
v -0.580909 3.056970 -1.461246
v -0.519016 3.196066 -1.287542
v -0.267932 3.193054 -1.317028
v -0.570178 3.077697 -1.270854
v -0.209572 3.071198 -1.314143
v -0.576209 2.598246 -1.422706
v -0.641176 2.486788 -1.404831
v -0.217371 2.628027 -1.195589
v -0.556273 2.632340 -1.154908
v -0.625191 2.514234 -1.135956
v -0.261241 2.594040 -1.462897
v -0.182611 2.479998 -1.463289
v -0.138410 2.505866 -1.195330
v 0.839802 -1.109069 -0.540073
v 0.670516 1.144013 -0.393696
v 0.773657 -1.041907 0.413176
v 0.676541 0.742924 0.446233
v 0.001153 1.111779 -0.421303
v 0.016669 -1.157652 0.570445
v 0.007344 1.031560 0.462350
v -0.019617 -1.219104 -0.655700
v 0.969479 -1.048140 -0.269568
v 0.957118 -0.987213 0.080088
v 0.860904 0.857618 0.192951
v 0.858787 1.031271 -0.135528
v 0.012921 1.199047 -0.132014
v 0.012750 1.137013 0.243529
v 0.812952 1.249986 0.062277
v 0.709276 1.333794 -0.092793
v 0.168498 1.278836 -0.150310
v 0.170717 1.066365 0.390815
v 0.712532 1.057093 0.422605
v 0.089106 1.140602 0.207007
v 0.814239 1.140560 0.266100
v 0.088204 1.209468 0.018953
v 0.640584 3.488821 1.404805
v 0.574772 3.547679 1.309039
v 0.257227 3.546304 1.310059
v 0.259714 3.350004 1.628626
v 0.577253 3.351862 1.626823
v 0.179252 3.409029 1.532534
v 0.641565 3.411382 1.530478
v 0.178271 3.486468 1.406861
v 0.216499 2.477468 0.589421
v 0.644700 2.488948 0.593972
v 0.136038 2.400015 0.719831
v 0.647732 2.244833 1.003473
v 0.730279 2.318987 0.879333
v 0.219535 2.233089 1.000097
v 0.729078 2.415560 0.717417
v 0.137157 2.310081 0.870709
v 0.234286 2.363909 0.545300
v 0.161470 2.296572 0.667850
v 0.708192 2.225955 0.816340
v 0.162391 2.219124 0.808767
v 0.629637 2.373491 0.548728
v 0.632147 2.162370 0.933131
v 0.236804 2.152116 0.930583
v 0.707200 2.309427 0.664302
v 0.826981 -0.706721 -0.606686
v 0.804771 -0.571163 0.293008
v -0.012650 -0.476871 -0.568553
v 0.012978 -0.476871 0.568529
v 0.892554 -0.754732 -0.426030
v 0.775957 -0.636757 -0.124326
v 1.072838 -0.574404 -0.112666
v 0.920965 -0.527129 0.005128
v 1.185534 -0.869341 -0.417739
v 1.183352 -0.719297 -0.276532
v 0.936788 -0.900095 -0.538083
v 0.676925 -0.568192 -0.112447
v 0.814688 -0.788953 -0.454388
v 0.716061 -0.652953 -0.284029
v 0.687708 0.570236 -0.637590
v 0.707229 0.248821 0.280702
v -0.010216 0.489156 -0.522574
v 0.001532 0.452428 0.495139
v 0.861603 0.431195 -0.398540
v 0.863571 0.297973 -0.043728
v 0.691424 -0.450693 -0.616111
v 0.706353 -0.423352 0.316775
v -0.012560 -0.306223 -0.559729
v 0.012662 -0.306223 0.559721
v 0.835042 -0.494606 -0.406606
v 0.819221 -0.464280 -0.055830
v 1.208705 2.007541 -1.158422
v 1.127219 1.994202 -1.081698
v 1.311532 1.981413 -1.384950
v 1.281594 2.002484 -1.278347
v 1.158803 1.996886 -1.478430
v 0.974489 2.009675 -1.175179
v 1.058459 2.025088 -1.414921
v 0.985569 2.030146 -1.294995
v 1.052598 0.429329 -1.596906
v 1.302286 0.420016 -1.449525
v 1.272740 0.468825 -1.273373
v 0.908529 0.490600 -1.491281
v 0.756333 0.501406 -1.122876
v 1.006138 0.493723 -0.976099
v 1.155129 0.491099 -1.083654
v 0.790897 0.512379 -1.301884
v 1.028052 0.181188 -1.420604
v 0.908913 0.272871 -1.362077
v 1.007482 0.505424 -0.984763
v 1.246821 0.234599 -1.311760
v 1.228572 0.352081 -1.202076
v 0.788641 0.450711 -1.093857
v 1.133972 0.459402 -1.074044
v 0.814283 0.380369 -1.232649
v 0.666308 -1.123210 0.496666
v 0.678143 -1.213532 -0.594374
v 0.792103 -1.177903 -0.368792
v 0.732692 -1.194525 0.130071
v 0.344097 -0.567651 -0.537771
v 0.360671 -0.531415 0.514468
v 0.305165 -0.338970 0.485517
v 0.273306 -0.330272 -0.554565
v -0.012520 0.099355 -0.552880
v 0.005174 0.078132 0.527949
v 0.268669 0.112610 -0.584320
v 0.292275 0.028021 0.437176
v 0.295393 -1.398065 0.484588
v 0.015426 -1.243091 0.553587
v 0.446606 -2.412553 0.444021
v -0.017970 -1.394987 -0.675407
v 0.007645 -2.497054 0.516322
v 0.487563 -1.395845 -0.636364
v 0.691489 -1.287755 -0.361527
v 0.631000 -1.277210 0.151512
v 0.471922 -2.178294 0.469254
v 0.008150 -2.179657 0.550414
v -0.008724 -2.218469 -0.589221
v 0.487444 -2.218469 -0.585182
v 0.689531 -2.179657 -0.365557
v 0.687606 -2.179657 0.209162
v -0.006898 -2.456387 -0.465871
v 0.464502 -2.456387 -0.461472
v 0.637553 -2.456387 -0.294531
v 0.630085 -2.456387 0.180170
v 0.472218 -1.791249 0.466637
v 0.684145 -1.789039 0.221654
v 0.675536 -1.789039 -0.398074
v -0.010598 -1.870364 -0.655261
v 0.476740 -1.870364 -0.653316
v 0.008427 -1.789039 0.553633
v 0.418220 -2.552485 0.413107
v 0.007298 -2.593152 0.492870
v 0.002617 -2.593152 0.176726
v -0.003620 -2.593152 -0.244501
v -0.000778 -2.593152 -0.052542
v 0.400745 -2.552485 -0.242797
v 0.519345 -2.552485 -0.195064
v 0.509369 -2.552485 0.179832
v 0.492498 -1.270802 0.423992
v 0.492268 -2.456387 0.411254
v 0.522356 -1.789039 0.436806
v 0.522109 -2.179657 0.440482
v 0.014208 -1.396821 0.529835
v 0.007735 -2.451859 0.522397
v 1.327666 1.747548 -1.406530
v 1.293801 1.772595 -1.277546
v 0.923753 1.781417 -1.155140
v 1.206450 1.778656 -1.133826
v 0.939045 1.805746 -1.297495
v 1.144635 1.766090 -1.518557
v 1.026397 1.799685 -1.441215
v 1.106785 1.762874 -1.043113
v 1.365236 1.783616 -1.425575
v 1.361937 1.889554 -1.420615
v 1.223233 1.911890 -1.117806
v 1.115412 1.906660 -1.015008
v 1.320725 1.905125 -1.278210
v 1.157656 1.910249 -1.545648
v 0.911132 1.927355 -1.140041
v 1.022276 1.935360 -1.460880
v 0.924784 1.942124 -1.300476
v 1.324669 1.799590 -1.275883
v 0.895897 1.822971 -1.133465
v 1.223168 1.806633 -1.108884
v 0.912449 1.838110 -1.299065
v 1.152557 1.805162 -1.555748
v 1.013950 1.831067 -1.466063
v 1.108576 1.801425 -1.003292
v 0.589761 3.320704 1.155991
v 0.592825 2.949457 1.404658
v 0.251490 2.945291 1.405253
v 0.659576 3.258335 1.257470
v 0.248420 3.317050 1.155755
v 0.169152 3.252940 1.259491
v 0.661050 3.012528 1.302565
v 0.170607 3.008586 1.302229
v 0.245151 3.051318 2.113284
v 0.304939 2.992188 2.209469
v 0.540116 2.993627 2.208031
v 0.587553 3.053061 2.111762
v 0.551324 2.824997 2.117120
v 0.298525 2.821283 2.117321
v 0.601648 2.887977 2.015107
v 0.238412 2.884683 2.014205
v 0.577979 3.294508 1.719900
v 0.642292 3.354028 1.623556
v 0.251775 3.054646 1.588229
v 0.593110 3.058812 1.587635
v 0.661336 3.121883 1.485542
v 0.260441 3.292650 1.721704
v 0.179979 3.351675 1.625611
v 0.170893 3.117941 1.485205
vn -0.1628 0.0049 0.9866
vn 0.6500 0.2347 -0.7228
vn -0.7799 0.2741 -0.5627
vn -0.5114 -0.7869 0.3452
vn -0.8096 0.3808 0.4467
vn -0.5683 -0.8109 0.1396
vn -0.2202 0.9696 0.1063
vn -0.1681 -0.1885 0.9676
vn -0.8447 -0.5071 -0.1716
vn 0.2657 0.4604 0.8470
vn -0.1580 -0.0780 -0.9844
vn 0.0388 0.1080 0.9934
vn 0.1915 0.9684 0.1600
vn -0.9633 0.2662 -0.0331
vn 0.0593 0.5865 0.8078
vn 0.3948 0.8238 0.4068
vn -0.1613 0.8030 -0.5738
vn -0.8535 0.2165 0.4739
vn 0.8421 -0.0832 -0.5328
vn 0.0112 0.0061 -0.9999
vn -0.8343 0.1712 -0.5241
vn 0.9984 -0.0497 0.0272
vn -0.9798 0.1981 -0.0281
vn 0.8489 0.0370 0.5272
vn -0.1231 0.1164 -0.9855
vn -0.8892 0.4027 0.2170
vn -0.7555 0.5934 -0.2777
vn -0.8234 0.3321 0.4602
vn 0.0122 0.0824 0.9965
vn -0.4733 -0.3814 0.7941
vn -0.8006 -0.5801 0.1500
vn -0.9364 -0.0340 -0.3492
vn -0.4483 -0.8933 0.0323
vn 0.3614 -0.7942 -0.4885
vn -0.8358 0.1517 0.5277
vn -0.8189 0.0998 -0.5652
vn -0.9964 0.0826 -0.0189
vn 0.0121 0.1452 0.9893
vn 0.0396 0.1597 -0.9864
vn -0.1193 -0.0578 0.9912
vn -0.8766 -0.1078 0.4691
vn -0.8483 0.0629 -0.5258
vn -0.9997 -0.0140 0.0215
vn 0.4714 0.4582 -0.7535
vn -0.9717 -0.1896 0.1411
vn -0.6088 0.3097 -0.7304
vn 0.6376 -0.1810 0.7488
vn -0.7436 -0.3462 0.5720
vn -0.4147 -0.3892 0.8225
vn 0.9193 0.2827 -0.2739
vn 0.8044 0.3539 -0.4773
vn -0.1588 0.0167 -0.9872
vn -0.1107 0.0557 0.9923
vn -0.1160 0.0855 0.9896
vn -0.0995 0.0514 -0.9937
vn -0.0787 0.1170 -0.9900
vn -0.6917 -0.7118 -0.1221
vn -0.5724 -0.8163 0.0772
vn -0.7420 -0.6431 -0.1894
vn -0.0737 0.0180 -0.9971
vn 0.0405 0.0795 0.9960
vn -0.0627 0.0065 0.9980
vn -0.1694 0.0774 -0.9825
vn -0.0438 -0.1782 -0.9830
vn -0.9986 0.0188 0.0495
vn -0.1742 0.2408 -0.9548
vn -0.4505 -0.8380 0.3079
vn -0.0397 -0.4536 -0.8903
vn -0.9787 -0.1997 0.0474
vn -0.6859 -0.2941 -0.6656
vn -0.7616 0.0053 0.6480
vn -0.8223 -0.0174 -0.5688
vn -0.2326 -0.8142 -0.5320
vn -0.7501 -0.5793 0.3190
vn -0.1792 -0.2326 0.9559
vn -0.7806 -0.1473 0.6074
vn -0.8605 0.0121 -0.5093
vn -0.8308 0.0910 0.5491
vn -0.9480 0.1589 0.2758
vn -0.1351 0.0448 -0.9898
vn -0.0784 -0.9969 0.0044
vn -0.0495 -0.9923 -0.1133
vn -0.0788 -0.9963 0.0335
vn -0.6227 -0.7816 0.0350
vn -0.0160 -0.9156 -0.4017
vn -0.1933 0.0306 0.9807
vn -0.4624 -0.0016 0.8867
vn -0.4525 -0.1487 0.8793
vn -0.4470 0.1795 0.8763
vn -0.1568 -0.1313 0.9789
vn 0.3289 0.0502 0.9430
vn 0.8805 0.4269 -0.2062
vn 0.8031 0.4518 -0.3884
vn 0.7023 -0.6641 0.2564
vn 0.8182 -0.0507 0.5726
vn 0.7380 -0.6716 0.0655
vn -0.4652 0.8525 -0.2382
vn 0.1229 -0.5512 0.8253
vn 0.5912 -0.7999 -0.1032
vn 0.9442 -0.1387 -0.2987
vn -0.1367 0.0161 -0.9905
vn 0.1969 -0.3004 0.9333
vn -0.4201 0.8954 0.1477
vn 0.9871 0.1438 0.0697
vn 0.2456 0.5238 0.8157
vn -0.0018 0.9009 0.4341
vn -0.0200 0.8565 -0.5157
vn 0.8643 -0.1577 0.4776
vn -0.9090 0.2626 -0.3236
vn 0.0349 0.5379 -0.8423
vn 0.8588 0.3152 -0.4038
vn -0.9983 0.0529 0.0242
vn 0.9962 0.0790 0.0361
vn -0.9247 -0.1357 0.3558
vn -0.1790 -0.1224 -0.9762
vn 0.9388 0.1859 0.2901
vn 0.7922 0.4025 -0.4587
vn 0.9723 -0.2317 -0.0307
vn 0.1114 0.0276 0.9934
vn 0.8558 0.1480 0.4957
vn 0.8331 -0.5392 0.1234
vn 0.3294 -0.1440 -0.9331
vn -0.5477 -0.8199 0.1667
vn -0.3466 -0.9113 0.2224
vn 0.8978 -0.1679 0.4072
vn 0.8313 0.2384 -0.5021
vn 1.0000 0.0061 -0.0032
vn -0.0601 -0.4414 0.8953
vn -0.1787 0.1611 -0.9706
vn 0.1807 0.1971 0.9636
vn 0.9028 -0.0593 0.4261
vn 0.8060 -0.0095 -0.5918
vn 0.9995 -0.0285 -0.0163
vn -0.7352 -0.3903 -0.5542
vn 0.9989 -0.0231 0.0400
vn 0.4101 -0.5876 -0.6975
vn -0.4165 0.6471 0.6386
vn 0.8922 0.2781 0.3558
vn 0.6196 0.5155 0.5919
vn -0.9796 -0.0730 -0.1873
vn -0.9105 -0.2293 -0.3441
vn -0.1119 0.0168 -0.9936
vn 0.4519 0.1598 0.8776
vn 0.4859 0.2255 0.8444
vn 0.0224 0.0516 -0.9984
vn 0.1144 0.1148 -0.9868
vn 0.5735 -0.8028 -0.1629
vn 0.5748 -0.8172 0.0412
vn 0.7053 -0.6627 -0.2517
vn -0.1032 -0.0213 -0.9944
vn 0.3119 0.0844 0.9463
vn 0.2578 0.1351 0.9567
vn -0.1668 0.0380 -0.9853
vn 0.0039 -0.1864 -0.9825
vn 0.9993 0.0346 -0.0139
vn 0.0856 0.1378 -0.9868
vn 0.6417 -0.7227 0.2568
vn 0.0072 -0.4619 -0.8869
vn 0.9830 -0.1838 0.0033
vn 0.7141 -0.3759 -0.5906
vn 0.7992 0.0051 0.6010
vn 0.7922 -0.0224 -0.6099
vn 0.2987 -0.9027 -0.3096
vn 0.5833 -0.7340 0.3479
vn 0.2216 -0.1522 0.9632
vn 0.8044 -0.1475 0.5755
vn 0.7995 0.0183 -0.6004
vn 0.8825 0.1526 0.4450
vn 0.9922 -0.0402 0.1178
vn 0.0770 0.0338 -0.9965
vn 0.0785 -0.9969 0.0021
vn 0.1001 -0.9950 -0.0015
vn 0.0982 -0.9952 -0.0015
vn 0.6358 -0.7718 0.0100
vn 0.0037 -0.9159 -0.4014
vn 0.1564 -0.1520 0.9759
vn 0.4975 0.0055 0.8675
vn 0.4891 -0.1455 0.8600
vn 0.4965 0.1846 0.8482
vn 0.1857 -0.1313 0.9738
vn -0.0735 -0.0641 0.9952
vn 0.3320 0.9430 -0.0247
vn -0.7970 0.3064 -0.5205
vn -0.5683 -0.7524 0.3331
vn -0.7910 0.3515 0.5008
vn -0.7173 -0.6827 0.1392
vn 0.1833 0.9391 -0.2907
vn 0.0320 -0.6884 0.7247
vn -0.8472 -0.5295 0.0422
vn -0.9472 -0.1293 -0.2934
vn -0.3971 0.1848 -0.8990
vn -0.0037 0.0566 0.9984
vn -0.2715 0.9621 0.0249
vn -0.9635 0.2657 -0.0325
vn -0.0303 0.7283 0.6846
vn 0.3352 0.9395 0.0712
vn 0.1114 0.4571 -0.8824
vn -0.8292 0.2232 0.5125
vn 0.9248 -0.0573 -0.3761
vn 0.0742 0.0225 -0.9970
vn -0.7687 0.1414 -0.6238
vn 0.9985 -0.0551 0.0047
vn -0.9797 0.1901 -0.0636
vn 0.9029 0.0047 0.4298
vn -0.1634 0.0003 -0.9866
vn -0.8633 -0.2416 0.4430
vn -0.9284 0.3537 -0.1136
vn -0.9631 -0.2415 0.1187
vn -0.1319 0.0021 0.9913
vn -0.7324 -0.2546 0.6315
vn -0.7639 -0.4426 0.4697
vn -0.6366 0.1780 -0.7503
vn 0.2099 -0.7882 -0.5786
vn 0.7403 -0.4407 -0.5076
vn -0.8836 0.1001 0.4573
vn -0.8472 0.0772 -0.5256
vn -0.9942 0.1061 0.0155
vn -0.0238 0.1634 0.9863
vn -0.0729 -0.0015 -0.9973
vn -0.0666 0.0513 0.9965
vn -0.8686 -0.1000 0.4853
vn -0.9318 -0.0139 -0.3628
vn -0.9737 -0.1031 0.2032
vn 0.5826 0.4525 -0.6752
vn -0.9476 -0.2171 0.2343
vn -0.6610 0.2714 -0.6996
vn 0.5931 -0.2127 0.7765
vn -0.7885 -0.3203 0.5250
vn -0.4732 -0.3785 0.7955
vn 0.9295 0.2705 -0.2508
vn 0.7420 0.3926 -0.5434
vn -0.1007 0.0655 -0.9928
vn -0.1486 -0.0522 0.9875
vn -0.3111 0.2088 0.9272
vn -0.0761 0.0992 -0.9921
vn -0.1848 0.0589 -0.9810
vn -0.6569 -0.7379 -0.1549
vn -0.5726 -0.8161 0.0775
vn -0.7017 -0.6813 -0.2083
vn -0.1170 0.0657 -0.9910
vn 0.0295 0.0876 0.9957
vn 0.0298 0.0829 0.9961
vn -0.0758 0.0151 -0.9970
vn -0.0497 -0.1864 -0.9812
vn -0.9989 0.0125 0.0453
vn -0.1340 0.1091 -0.9850
vn -0.5133 -0.7603 0.3980
vn -0.0354 -0.4602 -0.8871
vn -0.9799 -0.1945 0.0445
vn -0.7365 -0.3772 -0.5615
vn -0.7890 -0.0233 0.6140
vn -0.7669 -0.1126 -0.6318
vn -0.3092 -0.9024 -0.3000
vn -0.5715 -0.7349 0.3652
vn -0.1930 -0.1522 0.9693
vn -0.8196 -0.2323 0.5238
vn -0.8245 -0.0365 -0.5647
vn -0.7530 0.1497 0.6407
vn -0.9946 -0.0919 0.0493
vn -0.0506 -0.0431 -0.9978
vn -0.0800 -0.9968 0.0012
vn -0.1001 -0.9950 0.0015
vn -0.0982 -0.9952 0.0015
vn -0.6323 -0.7741 0.0306
vn -0.1029 -0.8469 -0.5217
vn -0.0928 -0.1513 0.9841
vn -0.4607 -0.0014 0.8875
vn -0.4541 -0.1492 0.8784
vn -0.1999 0.0190 0.9796
vn -0.1997 -0.4214 0.8846
vn 0.4079 0.1333 0.9032
vn -0.0177 -0.6138 0.7893
vn 0.8338 0.4560 -0.3110
vn 0.6854 -0.6778 0.2662
vn 0.8390 -0.0023 0.5441
vn 0.6397 -0.7632 0.0911
vn -0.4361 0.8862 0.1563
vn 0.2470 -0.1910 0.9500
vn 0.7290 -0.4635 0.5037
vn -0.4195 0.6346 0.6491
vn 0.3943 -0.1379 -0.9086
vn 0.0482 0.0560 0.9973
vn 0.1192 0.9325 0.3409
vn 0.9870 0.1444 0.0713
vn -0.0570 0.0814 0.9951
vn 0.1131 0.9377 0.3285
vn -0.0297 0.8472 -0.5305
vn 0.8646 -0.1575 0.4772
vn -0.8849 0.2812 -0.3713
vn -0.0053 0.5248 -0.8512
vn 0.8597 0.3143 -0.4027
vn -0.9982 0.0491 0.0335
vn 0.9962 0.0786 0.0367
vn -0.8796 -0.1677 0.4451
vn -0.1765 -0.1294 -0.9758
vn 0.9613 -0.2675 0.0665
vn 0.9332 0.2271 -0.2784
vn 0.8306 0.5218 0.1943
vn 0.1542 0.0036 0.9880
vn 0.6367 0.1725 0.7516
vn 0.8372 0.0205 0.5465
vn 0.4466 -0.1990 -0.8723
vn -0.5240 -0.8050 0.2782
vn 0.0923 -0.7514 0.6533
vn 0.8288 -0.1308 0.5441
vn 0.8452 0.2179 -0.4881
vn 0.0050 -0.4190 0.9080
vn 0.0191 0.3916 -0.9199
vn 0.2509 0.0504 0.9667
vn 0.9574 0.0142 0.2884
vn 0.8228 -0.0187 -0.5680
vn 0.9970 -0.0588 0.0501
vn -0.6506 -0.4593 -0.6048
vn 0.9927 0.0523 0.1091
vn 0.4718 -0.5811 -0.6631
vn -0.4649 0.6401 0.6116
vn 0.8700 0.3008 0.3907
vn 0.6108 0.5195 0.5975
vn -0.9864 -0.0502 -0.1568
vn -0.8704 -0.2730 -0.4097
vn 0.0124 -0.0669 -0.9977
vn 0.4198 0.2522 0.8719
vn 0.4517 0.1925 0.8712
vn 0.0736 -0.0485 -0.9961
vn 0.0858 0.1309 -0.9877
vn 0.6320 -0.7638 -0.1309
vn 0.6887 -0.7098 0.1480
vn 0.6973 -0.6704 -0.2537
vn -0.1644 -0.0678 -0.9841
vn 0.3140 0.0859 0.9455
vn 0.3137 0.0843 0.9458
vn -0.1144 0.0777 -0.9904
vn 0.0080 -0.1918 -0.9814
vn 1.0000 0.0088 0.0033
vn 0.0767 0.1117 -0.9908
vn 0.5438 -0.7857 0.2949
vn 0.0083 -0.4602 -0.8878
vn 0.9786 -0.2050 0.0154
vn 0.6622 -0.3006 -0.6864
vn 0.8132 -0.0114 0.5818
vn 0.7410 -0.1070 -0.6629
vn 0.2150 -0.8175 -0.5343
vn 0.7592 -0.5793 0.2967
vn 0.2075 -0.2326 0.9502
vn 0.8366 -0.2262 0.4989
vn 0.7883 0.0040 -0.6153
vn 0.7978 0.0608 0.5999
vn 0.9948 0.1014 -0.0138
vn 0.0040 -0.0423 -0.9991
vn 0.0800 -0.9968 -0.0012
vn 0.0462 -0.9923 -0.1147
vn 0.0798 -0.9963 0.0312
vn 0.6227 -0.7823 0.0166
vn 0.0874 -0.8469 -0.5245
vn 0.2645 0.0490 0.9631
vn 0.5110 0.0078 0.8595
vn 0.4825 -0.1433 0.8641
vn 0.2703 0.0394 0.9620
vn 0.2258 -0.4214 0.8783
vn -0.0946 0.0617 0.9936
vn -0.1391 -0.0072 0.9902
vn -0.1546 -0.1009 0.9828
vn 0.1589 0.0575 0.9856
vn 0.1724 0.0065 0.9850
vn 0.1837 -0.1009 0.9778
vn -0.1400 0.0297 0.9897
vn -0.1398 -0.0081 0.9901
vn -0.1383 -0.1315 0.9816
vn 0.1844 0.0381 0.9821
vn 0.1843 -0.0082 0.9828
vn 0.1714 -0.1238 0.9774
vn -0.9930 0.1093 0.0441
vn 0.8041 -0.5879 -0.0884
vn -0.0104 -0.9989 0.0458
vn -0.1272 -0.0843 -0.9883
vn -0.8677 -0.4895 0.0863
vn 0.9887 0.0078 -0.1496
vn -0.9982 0.0089 0.0593
vn 0.1190 0.2199 0.9682
vn 0.8223 0.4015 0.4033
vn 0.8648 -0.1104 0.4899
vn 0.9821 -0.1776 0.0623
vn 0.8195 0.2698 0.5056
vn 0.0703 0.7760 0.6268
vn -0.3576 -0.8173 0.4517
vn -0.7051 0.4514 0.5468
vn 0.0802 0.5848 0.8072
vn 0.5068 0.6334 -0.5847
vn -0.7883 -0.4169 0.4525
vn 0.3215 0.7535 -0.5735
vn 0.2186 -0.3664 0.9044
vn -0.0090 -0.1007 0.9949
vn 0.1066 -0.2375 0.9655
vn 0.3537 0.6519 0.6708
vn -0.4206 -0.8387 0.3460
vn -0.7977 -0.2574 -0.5453
vn 0.7352 0.4606 0.4974
vn -0.5431 0.7086 -0.4506
vn 0.7451 0.3604 -0.5612
vn -0.8640 -0.1820 -0.4695
vn 0.3002 0.9051 -0.3010
vn -0.6556 -0.6764 0.3358
vn -0.5613 0.8074 -0.1815
vn -0.5125 0.6373 -0.5755
vn -0.9346 -0.3512 0.0566
vn 0.4025 0.7321 -0.5496
vn 0.7707 0.6316 0.0844
vn 0.9402 0.3405 0.0130
vn -0.5521 -0.8304 -0.0743
vn -0.7355 -0.6774 -0.0107
vn 0.6327 -0.7416 -0.2227
vn -0.5818 0.7618 0.2849
vn -0.9330 -0.3484 0.0897
vn 0.4124 0.8917 0.1865
vn 0.4002 0.8943 0.2002
vn -0.8977 -0.4271 0.1085
vn -0.6174 0.7101 0.3385
vn 0.6371 -0.7540 -0.1601
vn -0.7491 -0.6603 0.0542
vn -0.5544 -0.8322 -0.0044
vn 0.9729 0.2312 -0.0031
vn 0.7701 0.6331 0.0786
vn 0.9128 0.0100 0.4083
vn -0.6589 -0.6766 0.3289
vn 0.7123 0.3848 -0.5870
vn -0.4591 0.4717 0.7528
vn -0.5883 -0.3810 -0.7133
vn 0.5797 -0.7405 0.3400
vn -0.6594 -0.3360 -0.6726
vn 0.4022 -0.3945 -0.8262
vn 0.0010 0.9953 -0.0968
vn 0.7882 0.5906 -0.1732
vn -0.9952 0.0799 0.0563
vn 0.9845 0.0412 -0.1706
vn -0.8616 -0.4859 0.1471
vn -0.0226 -0.9897 0.1414
vn 0.8066 -0.5873 -0.0670
vn -0.8646 0.5023 -0.0138
vn -0.9176 0.3974 0.0085
vn 0.8843 0.4186 -0.2071
vn -0.0049 0.9897 -0.1427
vn -0.1555 0.2443 0.9571
vn 0.4294 0.2263 0.8743
vn 0.9815 0.0877 -0.1704
vn -0.1172 -0.0888 -0.9891
vn 0.9883 -0.0540 -0.1424
vn 0.8331 0.5387 0.1256
vn -0.7975 0.5156 0.3133
vn 0.0575 0.9228 0.3810
vn -0.9983 0.0088 0.0584
vn 0.9930 0.0118 0.1171
vn -0.8375 0.3269 -0.4379
vn -0.0054 0.5588 -0.8293
vn -0.0020 0.8513 0.5246
vn 0.8607 0.3227 -0.3938
vn -0.9993 0.0005 0.0367
vn 0.9983 0.0164 0.0567
vn 0.0105 -0.9150 -0.4032
vn -0.8557 -0.4317 0.2853
vn 0.9834 -0.1565 -0.0923
vn -0.9767 -0.1907 -0.0984
vn 0.8487 0.0862 -0.5218
vn 0.0120 -0.6499 0.7600
vn -0.8677 0.0358 -0.4958
vn 0.8479 -0.4202 0.3233
vn -0.0007 0.3621 -0.9322
vn -0.6986 -0.5935 -0.3996
vn 0.9120 0.3668 0.1836
vn -0.5385 -0.6439 -0.5435
vn -0.0030 0.9858 0.1681
vn 0.1845 0.9727 -0.1405
vn 0.0922 0.9956 0.0141
vn -0.3401 0.5337 -0.7743
vn 0.5971 0.3887 0.7017
vn 0.6180 -0.7254 0.3031
vn -0.7177 0.5242 -0.4583
vn 0.3284 -0.6853 -0.6500
vn -0.8711 -0.3402 -0.3543
vn -0.8628 -0.4970 0.0925
vn -0.6204 -0.4195 -0.6627
vn 0.6747 -0.2386 0.6985
vn -0.4755 0.1888 0.8592
vn 0.4668 -0.6131 -0.6373
vn 0.9336 -0.1562 0.3226
vn -0.6348 -0.4048 -0.6581
vn -0.8406 0.0961 -0.5331
vn -0.9758 0.1231 -0.1809
vn 0.5853 -0.0036 0.8108
vn 0.8492 -0.0120 0.5279
vn -0.5027 0.0874 0.8601
vn 0.5087 0.0154 -0.8608
vn 0.9848 -0.0244 0.1719
vn -0.5647 0.0870 -0.8207
vn -0.5260 0.1066 -0.8438
vn 0.9655 0.0179 0.2598
vn 0.5253 0.0561 -0.8490
vn -0.5083 0.1278 0.8516
vn 0.8545 0.0433 0.5176
vn 0.6762 0.0380 0.7357
vn -0.9866 0.1386 -0.0859
vn -0.8490 0.0936 -0.5200
vn -0.8233 0.5672 0.0208
vn 0.8134 0.3276 0.4806
vn -0.7542 -0.6290 -0.1885
vn 0.4801 0.5337 -0.6961
vn 0.5266 -0.7190 0.4535
vn -0.3757 0.5931 0.7121
vn 0.5940 -0.7033 0.3907
vn -0.4504 -0.6313 0.6314
vn 0.0067 -0.4947 0.8690
vn -0.8769 -0.2215 0.4265
vn 0.9964 0.0762 0.0381
vn -0.9992 0.0316 0.0263
vn 0.8597 0.3238 -0.3951
vn -0.0062 0.5594 -0.8289
vn -0.8821 0.2860 -0.3743
vn 0.8664 -0.1943 0.4601
vn 0.9194 -0.1376 0.3686
vn -0.8943 -0.1859 0.4070
vn 0.0077 -0.4741 0.8804
vn 0.2818 -0.8890 -0.3609
vn -0.2373 -0.8997 -0.3664
vn -0.9931 -0.0297 0.1137
vn -0.0090 0.8495 0.5275
vn -0.9994 0.0315 -0.0173
vn -0.7985 -0.5162 0.3097
vn 0.8418 -0.4639 0.2759
vn 0.0114 -0.8583 0.5130
vn 0.9961 0.0752 -0.0465
vn -0.9929 0.1084 0.0480
vn 0.8185 -0.5643 -0.1079
vn -0.0101 -0.9989 0.0454
vn -0.8675 -0.4900 0.0861
vn 0.9869 -0.0176 -0.1606
vn -0.9951 0.0572 0.0808
vn 0.1164 0.2186 0.9688
vn 0.8011 0.4087 0.4373
vn -0.9288 -0.3610 0.0831
vn 0.4974 -0.1981 0.8446
vn 0.5951 0.1963 0.7793
vn 0.0831 0.7605 0.6440
vn -0.6813 0.3685 0.6325
vn -0.7809 0.4408 0.4426
vn 0.0661 0.6225 0.7798
vn -0.7545 -0.4491 0.4787
vn 0.3182 0.8447 -0.4304
vn 0.3263 0.6944 0.6414
vn -0.4061 -0.8630 0.3006
vn -0.6992 -0.2515 -0.6692
vn 0.5842 0.6470 -0.4900
vn 0.9196 0.1176 -0.3748
vn 0.3474 0.9053 -0.2443
vn 0.6559 0.6712 -0.3453
vn -0.6075 0.7926 0.0521
vn -0.6302 0.4650 -0.6217
vn -0.8375 -0.5400 0.0841
vn 0.3589 0.7316 -0.5797
vn 0.7404 0.6662 0.0892
vn 0.9709 0.2379 -0.0273
vn -0.3863 -0.9121 -0.1373
vn -0.7604 -0.6494 -0.0064
vn 0.5895 -0.7786 -0.2151
vn -0.6246 0.7239 0.2932
vn -0.9054 -0.4174 0.0777
vn 0.3823 0.9044 0.1896
vn 0.4139 0.8836 0.2190
vn -0.8866 -0.4445 0.1276
vn -0.5466 -0.8368 -0.0310
vn 0.9741 0.2246 -0.0279
vn 0.8883 0.0279 0.4583
vn 0.5833 0.4479 -0.6776
vn -0.5750 -0.5173 -0.6338
vn 0.0390 0.9956 -0.0850
vn 0.8253 0.5331 -0.1862
vn -0.9986 -0.0125 0.0505
vn 0.9848 0.0290 -0.1715
vn -0.7714 -0.6217 0.1356
vn 0.0023 -0.9890 0.1479
vn 0.8245 -0.5616 -0.0690
vn -0.7963 0.6049 -0.0086
vn -0.9174 0.3978 0.0087
vn 0.8756 0.4437 -0.1907
vn -0.0054 0.9899 -0.1419
vn -0.2423 0.2373 0.9407
vn 0.3608 0.2351 0.9025
vn 0.9811 0.0882 -0.1723
vn -0.1202 -0.0810 -0.9894
vn 0.9868 -0.0176 -0.1611
vn -0.9936 -0.0608 0.0947
vn 0.9926 0.0144 0.1202
vn -0.8212 0.3271 -0.4676
vn -0.0051 0.5585 -0.8295
vn 0.8609 0.3223 -0.3936
vn -0.9994 0.0246 0.0229
vn 0.9976 0.0625 0.0308
vn 0.0131 -0.9144 -0.4045
vn -0.8554 -0.4302 0.2886
vn 0.9812 -0.1624 -0.1042
vn -0.9745 -0.1958 -0.1095
vn 0.8471 0.0944 -0.5229
vn 0.0118 -0.6502 0.7596
vn -0.8647 0.0584 -0.4989
vn 0.8498 -0.4257 0.3108
vn 0.0001 0.3648 -0.9311
vn 0.8891 0.4052 0.2130
vn -0.5291 -0.5263 -0.6656
vn 0.1845 0.9727 -0.1404
vn -0.3543 0.5761 -0.7366
vn 0.6140 0.4242 0.6656
vn 0.7343 -0.6246 0.2657
vn -0.8282 -0.2871 -0.4814
vn -0.9419 -0.2710 -0.1985
vn 0.5777 -0.1420 0.8038
vn 0.8499 0.0002 0.5269
vn 0.4015 -0.5744 -0.7134
vn 0.4072 -0.5554 -0.7250
vn 0.9694 -0.1403 0.2015
vn -0.6465 -0.3902 -0.6556
vn -0.8485 0.0990 -0.5199
vn -0.9897 0.1137 -0.0869
vn 0.6729 0.0020 0.7397
vn 0.8542 -0.0138 0.5198
vn -0.5138 0.0858 0.8536
vn 0.5233 0.0176 -0.8520
vn 0.9664 -0.0148 0.2566
vn -0.5296 0.0800 -0.8444
vn -0.5176 0.0836 -0.8515
vn 0.9610 0.0419 0.2735
vn 0.6872 0.0609 0.7239
vn -0.9905 0.1165 -0.0736
vn -0.7948 0.6067 -0.0118
vn -0.8538 -0.5038 -0.1314
vn 0.5508 -0.6119 0.5676
vn 0.0075 -0.4943 0.8692
vn -0.8301 -0.2471 0.4999
vn 0.9955 0.0229 0.0924
vn -0.9985 0.0037 0.0554
vn 0.8607 0.3231 -0.3935
vn -0.0054 0.5596 -0.8287
vn -0.8380 0.3146 -0.4459
vn 0.8668 -0.1940 0.4594
vn 0.9195 -0.1372 0.3684
vn -0.8831 -0.2129 0.4181
vn 0.0083 -0.4748 0.8801
vn 0.3656 -0.8618 -0.3517
vn -0.3092 -0.8799 -0.3608
vn -0.9929 -0.0284 0.1152
vn -0.0121 0.8535 0.5209
vn -0.9994 0.0249 0.0232
vn 0.9975 0.0633 0.0312
usemtl color_1
s off
f 94//1 58//1 91//1
f 43//2 49//2 51//2
f 8//3 10//3 2//3
f 88//4 3//4 6//4
f 7//5 13//5 15//5
f 88//6 98//6 99//6
f 179//7 11//7 16//7
f 172//8 115//8 276//8
f 5//9 47//9 1//9
f 3//10 50//10 46//10
f 89//11 1//11 41//11
f 230//12 4//12 54//12
f 179//13 14//13 180//13
f 8//14 15//14 9//14
f 4//15 12//15 13//15
f 180//16 12//16 173//16
f 2//17 11//17 171//17
f 13//18 35//18 15//18
f 16//19 33//19 34//19
f 11//20 37//20 33//20
f 9//21 37//21 10//21
f 14//22 34//22 36//22
f 15//23 40//23 9//23
f 12//24 36//24 39//24
f 89//25 57//25 92//25
f 43//26 60//26 59//26
f 41//27 59//27 57//27
f 60//28 42//28 58//28
f 172//29 90//29 85//29
f 6//30 46//30 45//30
f 6//31 48//31 5//31
f 1//32 49//32 41//32
f 44//33 50//33 42//33
f 44//34 51//34 52//34
f 7//35 54//35 4//35
f 53//36 8//36 2//36
f 8//37 56//37 7//37
f 13//38 39//38 38//38
f 229//39 2//39 171//39
f 216//40 91//40 90//40
f 56//41 58//41 54//41
f 57//42 55//42 53//42
f 59//43 56//43 55//43
f 51//44 77//44 78//44
f 48//45 80//45 47//45
f 49//46 80//46 77//46
f 50//47 79//47 46//47
f 48//48 83//48 81//48
f 45//49 79//49 83//49
f 52//50 82//50 50//50
f 51//51 84//51 52//51
f 235//52 93//52 271//52
f 90//53 58//53 42//53
f 3//54 90//54 42//54
f 215//55 92//55 235//55
f 174//56 89//56 215//56
f 1//57 87//57 5//57
f 5//58 88//58 6//58
f 86//59 98//59 87//59
f 93//60 57//60 53//60
f 94//61 230//61 54//61
f 236//62 94//62 91//62
f 93//63 229//63 271//63
f 110//64 285//64 101//64
f 109//65 103//65 108//65
f 174//66 97//66 86//66
f 88//67 115//67 85//67
f 285//68 104//68 101//68
f 103//69 105//69 106//69
f 102//70 104//70 105//70
f 108//71 118//71 117//71
f 110//72 102//72 109//72
f 105//73 112//73 113//73
f 116//74 114//74 111//74
f 279//75 111//75 300//75
f 103//76 116//76 118//76
f 97//77 109//77 98//77
f 99//78 117//78 115//78
f 98//79 108//79 99//79
f 278//80 110//80 97//80
f 303//81 114//81 113//81
f 112//82 303//82 113//82
f 301//83 111//83 114//83
f 106//84 113//84 114//84
f 289//85 112//85 104//85
f 95//86 276//86 115//86
f 100//87 117//87 118//87
f 96//88 118//88 116//88
f 95//89 117//89 107//89
f 96//90 279//90 312//90
f 274//91 234//91 228//91
f 217//92 223//92 213//92
f 182//93 178//93 168//93
f 266//94 169//94 263//94
f 177//95 185//95 170//95
f 266//96 281//96 265//96
f 179//97 183//97 171//97
f 172//98 307//98 263//98
f 221//99 175//99 167//99
f 169//100 224//100 214//100
f 213//101 264//101 267//101
f 170//102 230//102 228//102
f 180//103 188//103 179//103
f 181//104 177//104 178//104
f 170//105 184//105 173//105
f 184//106 180//106 173//106
f 183//107 168//107 171//107
f 207//108 185//108 187//108
f 188//109 205//109 183//109
f 205//110 182//110 183//110
f 182//111 212//111 181//111
f 186//112 206//112 188//112
f 181//113 207//113 187//113
f 184//114 208//114 186//114
f 233//115 267//115 270//115
f 237//116 218//116 217//116
f 237//117 213//117 233//117
f 238//118 214//118 218//118
f 268//119 172//119 263//119
f 176//120 220//120 169//120
f 222//121 176//121 175//121
f 223//122 167//122 213//122
f 224//123 218//123 214//123
f 226//124 217//124 218//124
f 177//125 228//125 232//125
f 178//126 227//126 168//126
f 177//127 231//127 178//127
f 185//128 211//128 184//128
f 171//129 227//129 229//129
f 269//130 216//130 268//130
f 228//131 238//131 232//131
f 231//132 233//132 227//132
f 232//133 237//133 231//133
f 225//134 255//134 223//134
f 258//135 222//135 221//135
f 223//136 258//136 221//136
f 257//137 224//137 220//137
f 222//138 261//138 219//138
f 219//139 257//139 220//139
f 260//140 226//140 224//140
f 262//141 225//141 226//141
f 273//142 235//142 271//142
f 234//143 268//143 214//143
f 169//144 268//144 263//144
f 270//145 215//145 235//145
f 267//146 174//146 215//146
f 167//147 265//147 264//147
f 175//148 266//148 265//148
f 281//149 264//149 265//149
f 233//150 273//150 227//150
f 230//151 274//151 228//151
f 274//152 236//152 269//152
f 273//153 229//153 227//153
f 297//154 285//154 296//154
f 294//155 287//155 295//155
f 280//156 174//156 264//156
f 263//157 282//157 266//157
f 290//158 285//158 286//158
f 288//159 291//159 287//159
f 287//160 290//160 286//160
f 310//161 294//161 309//161
f 287//162 297//162 295//162
f 291//163 304//163 290//163
f 308//164 306//164 292//164
f 279//165 299//165 308//165
f 308//166 288//166 310//166
f 295//167 280//167 281//167
f 307//168 294//168 282//168
f 282//169 295//169 281//169
f 297//170 278//170 280//170
f 306//171 303//171 305//171
f 304//172 303//172 302//172
f 301//173 299//173 300//173
f 292//174 305//174 291//174
f 304//175 289//175 290//175
f 275//176 276//176 311//176
f 310//177 293//177 283//177
f 277//178 310//178 283//178
f 309//179 275//179 293//179
f 279//180 277//180 312//180
f 94//181 54//181 58//181
f 43//182 41//182 49//182
f 8//183 9//183 10//183
f 88//184 85//184 3//184
f 7//185 4//185 13//185
f 88//186 87//186 98//186
f 179//187 171//187 11//187
f 172//188 85//188 115//188
f 5//189 48//189 47//189
f 3//190 42//190 50//190
f 89//191 86//191 1//191
f 230//192 173//192 4//192
f 179//193 16//193 14//193
f 8//194 7//194 15//194
f 4//195 173//195 12//195
f 180//196 14//196 12//196
f 2//197 10//197 11//197
f 13//198 38//198 35//198
f 16//199 11//199 33//199
f 11//200 10//200 37//200
f 9//201 40//201 37//201
f 14//202 16//202 34//202
f 15//203 35//203 40//203
f 12//204 14//204 36//204
f 89//205 41//205 57//205
f 43//206 44//206 60//206
f 41//207 43//207 59//207
f 60//208 44//208 42//208
f 172//209 216//209 90//209
f 6//210 3//210 46//210
f 6//211 45//211 48//211
f 1//212 47//212 49//212
f 44//213 52//213 50//213
f 44//214 43//214 51//214
f 7//215 56//215 54//215
f 53//216 55//216 8//216
f 8//217 55//217 56//217
f 13//218 12//218 39//218
f 229//219 53//219 2//219
f 216//220 236//220 91//220
f 56//221 60//221 58//221
f 57//222 59//222 55//222
f 59//223 60//223 56//223
f 51//224 49//224 77//224
f 48//225 81//225 80//225
f 49//226 47//226 80//226
f 50//227 82//227 79//227
f 48//228 45//228 83//228
f 45//229 46//229 79//229
f 52//230 84//230 82//230
f 51//231 78//231 84//231
f 235//232 92//232 93//232
f 90//233 91//233 58//233
f 3//234 85//234 90//234
f 215//235 89//235 92//235
f 174//236 86//236 89//236
f 1//237 86//237 87//237
f 5//238 87//238 88//238
f 86//239 97//239 98//239
f 93//240 92//240 57//240
f 94//241 272//241 230//241
f 236//242 272//242 94//242
f 93//243 53//243 229//243
f 110//244 296//244 285//244
f 109//245 102//245 103//245
f 174//246 278//246 97//246
f 88//247 99//247 115//247
f 285//248 289//248 104//248
f 103//249 102//249 105//249
f 102//250 101//250 104//250
f 108//251 103//251 118//251
f 110//252 101//252 102//252
f 105//253 104//253 112//253
f 116//254 106//254 114//254
f 279//255 116//255 111//255
f 103//256 106//256 116//256
f 97//257 110//257 109//257
f 99//258 108//258 117//258
f 98//259 109//259 108//259
f 278//260 296//260 110//260
f 303//261 301//261 114//261
f 112//262 302//262 303//262
f 301//263 300//263 111//263
f 106//264 105//264 113//264
f 289//265 302//265 112//265
f 95//266 311//266 276//266
f 100//267 107//267 117//267
f 96//268 100//268 118//268
f 95//269 115//269 117//269
f 96//270 116//270 279//270
f 274//271 269//271 234//271
f 217//272 225//272 223//272
f 182//273 181//273 178//273
f 266//274 176//274 169//274
f 177//275 187//275 185//275
f 266//276 282//276 281//276
f 179//277 188//277 183//277
f 172//278 276//278 307//278
f 221//279 222//279 175//279
f 169//280 220//280 224//280
f 213//281 167//281 264//281
f 170//282 173//282 230//282
f 180//283 186//283 188//283
f 181//284 187//284 177//284
f 170//285 185//285 184//285
f 184//286 186//286 180//286
f 183//287 182//287 168//287
f 207//288 210//288 185//288
f 188//289 206//289 205//289
f 205//290 209//290 182//290
f 182//291 209//291 212//291
f 186//292 208//292 206//292
f 181//293 212//293 207//293
f 184//294 211//294 208//294
f 233//295 213//295 267//295
f 237//296 238//296 218//296
f 237//297 217//297 213//297
f 238//298 234//298 214//298
f 268//299 216//299 172//299
f 176//300 219//300 220//300
f 222//301 219//301 176//301
f 223//302 221//302 167//302
f 224//303 226//303 218//303
f 226//304 225//304 217//304
f 177//305 170//305 228//305
f 178//306 231//306 227//306
f 177//127 232//127 231//127
f 185//307 210//307 211//307
f 171//308 168//308 227//308
f 269//309 236//309 216//309
f 228//310 234//310 238//310
f 231//311 237//311 233//311
f 232//312 238//312 237//312
f 225//313 256//313 255//313
f 258//314 259//314 222//314
f 223//315 255//315 258//315
f 257//316 260//316 224//316
f 222//317 259//317 261//317
f 219//318 261//318 257//318
f 260//319 262//319 226//319
f 262//320 256//320 225//320
f 273//321 270//321 235//321
f 234//322 269//322 268//322
f 169//323 214//323 268//323
f 270//324 267//324 215//324
f 267//325 264//325 174//325
f 167//326 175//326 265//326
f 175//327 176//327 266//327
f 281//328 280//328 264//328
f 233//329 270//329 273//329
f 230//330 272//330 274//330
f 274//331 272//331 236//331
f 273//332 271//332 229//332
f 297//333 286//333 285//333
f 294//334 288//334 287//334
f 280//335 278//335 174//335
f 263//336 307//336 282//336
f 290//337 289//337 285//337
f 288//338 292//338 291//338
f 287//339 291//339 290//339
f 310//340 288//340 294//340
f 287//341 286//341 297//341
f 291//342 305//342 304//342
f 308//343 299//343 306//343
f 279//344 300//344 299//344
f 308//345 292//345 288//345
f 295//346 297//346 280//346
f 307//347 309//347 294//347
f 282//348 294//348 295//348
f 297//349 296//349 278//349
f 306//350 301//350 303//350
f 304//351 305//351 303//351
f 301//352 306//352 299//352
f 292//353 306//353 305//353
f 304//354 302//354 289//354
f 275//355 307//355 276//355
f 310//356 309//356 293//356
f 277//357 308//357 310//357
f 309//358 307//358 275//358
f 279//359 308//359 277//359
usemtl color_2
f 95//360 298//360 311//360
f 284//361 107//361 100//361
f 284//362 96//362 312//362
f 298//363 275//363 311//363
f 293//364 284//364 283//364
f 277//365 284//365 312//365
f 95//366 107//366 298//366
f 284//367 298//367 107//367
f 284//368 100//368 96//368
f 298//369 293//369 275//369
f 293//370 298//370 284//370
f 277//371 283//371 284//371
usemtl color_3
f 160//372 157//372 154//372
f 148//373 19//373 24//373
f 147//374 18//374 19//374
f 23//375 20//375 22//375
f 17//375 19//375 18//375
f 17//375 22//375 24//375
f 143//376 17//376 18//376
f 148//377 22//377 150//377
f 146//378 23//378 17//378
f 161//379 155//379 162//379
f 36//380 30//380 39//380
f 40//381 29//381 31//381
f 34//382 32//382 36//382
f 40//383 26//383 37//383
f 159//375 154//375 153//375
f 38//384 30//384 28//384
f 33//385 27//385 34//385
f 35//386 28//386 29//386
f 33//387 26//387 25//387
f 125//388 139//388 123//388
f 63//389 131//389 64//389
f 124//390 141//390 125//390
f 61//391 66//391 68//391
f 65//392 64//392 67//392
f 67//393 61//393 68//393
f 65//394 134//394 132//394
f 62//395 129//395 130//395
f 119//396 136//396 127//396
f 67//397 135//397 134//397
f 119//398 140//398 124//398
f 78//399 76//399 84//399
f 82//400 76//400 73//400
f 83//401 74//401 75//401
f 81//402 75//402 71//402
f 82//403 74//403 79//403
f 77//404 70//404 69//404
f 80//405 71//405 70//405
f 78//406 69//406 72//406
f 76//407 125//407 123//407
f 76//408 121//408 73//408
f 75//409 126//409 122//409
f 75//410 120//410 71//410
f 74//411 121//411 126//411
f 70//412 124//412 69//412
f 71//413 119//413 70//413
f 72//414 124//414 125//414
f 141//415 132//415 134//415
f 136//416 128//416 127//416
f 140//417 128//417 132//417
f 137//418 130//418 142//418
f 136//419 129//419 131//419
f 138//420 130//420 129//420
f 139//421 133//421 137//421
f 141//422 135//422 139//422
f 66//423 135//423 68//423
f 64//424 129//424 61//424
f 121//425 139//425 137//425
f 63//426 132//426 128//426
f 126//427 138//427 122//427
f 62//428 133//428 66//428
f 120//429 138//429 136//429
f 126//430 137//430 142//430
f 28//431 145//431 144//431
f 32//432 145//432 30//432
f 31//433 149//433 146//433
f 27//434 150//434 32//434
f 26//435 146//435 143//435
f 26//436 147//436 25//436
f 25//437 148//437 27//437
f 29//438 144//438 149//438
f 157//439 153//439 154//439
f 158//440 152//440 156//440
f 156//441 153//441 155//441
f 162//442 157//442 163//442
f 164//375 151//375 165//375
f 161//443 158//443 156//443
f 165//444 158//444 166//444
f 164//375 153//375 152//375
f 156//445 157//445 155//445
f 20//375 159//375 164//375
f 22//446 166//446 150//446
f 145//447 166//447 161//447
f 20//375 165//375 22//375
f 144//448 163//448 149//448
f 21//375 160//375 159//375
f 144//449 161//449 162//449
f 23//450 163//450 160//450
f 354//451 351//451 357//451
f 342//452 191//452 341//452
f 341//453 190//453 337//453
f 192//454 195//454 194//454
f 191//454 189//454 190//454
f 194//454 189//454 196//454
f 337//455 189//455 340//455
f 194//456 342//456 344//456
f 340//457 195//457 343//457
f 349//458 355//458 356//458
f 211//459 204//459 208//459
f 203//460 207//460 212//460
f 208//461 199//461 206//461
f 209//462 203//462 212//462
f 353//454 348//454 354//454
f 210//463 202//463 211//463
f 199//464 205//464 206//464
f 201//465 210//465 207//465
f 197//466 209//466 205//466
f 333//467 319//467 317//467
f 325//468 241//468 242//468
f 335//469 318//469 319//469
f 244//470 239//470 246//470
f 243//471 242//471 241//471
f 246//472 242//472 245//472
f 243//473 328//473 245//473
f 240//474 323//474 239//474
f 313//475 330//475 314//475
f 328//476 246//476 245//476
f 334//477 313//477 318//477
f 254//478 256//478 262//478
f 251//479 262//479 260//479
f 261//480 252//480 257//480
f 259//481 253//481 261//481
f 257//482 251//482 260//482
f 255//483 248//483 258//483
f 258//484 249//484 259//484
f 256//485 247//485 255//485
f 254//486 319//486 250//486
f 315//487 254//487 251//487
f 253//488 320//488 252//488
f 314//489 253//489 249//489
f 252//490 315//490 251//490
f 318//491 248//491 247//491
f 313//492 249//492 248//492
f 250//493 318//493 247//493
f 335//494 326//494 334//494
f 322//495 330//495 321//495
f 334//496 322//496 321//496
f 324//497 331//497 336//497
f 330//498 323//498 332//498
f 332//499 324//499 336//499
f 327//500 333//500 331//500
f 333//501 328//501 335//501
f 329//502 244//502 246//502
f 239//503 325//503 242//503
f 315//504 333//504 317//504
f 241//505 326//505 243//505
f 332//506 320//506 316//506
f 327//507 240//507 244//507
f 330//508 316//508 314//508
f 320//509 331//509 315//509
f 200//510 339//510 202//510
f 202//511 344//511 204//511
f 203//512 343//512 201//512
f 344//513 199//513 204//513
f 337//514 203//514 198//514
f 341//515 198//515 197//515
f 199//516 341//516 197//516
f 343//517 200//517 201//517
f 351//518 347//518 349//518
f 346//519 352//519 350//519
f 347//520 350//520 349//520
f 351//521 356//521 357//521
f 345//454 358//454 359//454
f 355//522 352//522 360//522
f 352//523 359//523 360//523
f 358//454 347//454 353//454
f 350//524 351//524 352//524
f 192//454 353//454 193//454
f 360//525 194//525 344//525
f 339//526 360//526 344//526
f 359//454 192//454 194//454
f 357//527 338//527 343//527
f 193//454 354//454 195//454
f 338//528 355//528 339//528
f 195//529 357//529 343//529
f 160//530 163//530 157//530
f 148//531 147//531 19//531
f 147//532 143//532 18//532
f 23//375 21//375 20//375
f 17//375 24//375 19//375
f 17//375 23//375 22//375
f 143//533 146//533 17//533
f 148//534 24//534 22//534
f 146//535 149//535 23//535
f 161//536 156//536 155//536
f 36//537 32//537 30//537
f 40//538 35//538 29//538
f 34//539 27//539 32//539
f 40//540 31//540 26//540
f 159//375 160//375 154//375
f 38//541 39//541 30//541
f 33//542 25//542 27//542
f 35//543 38//543 28//543
f 33//544 37//544 26//544
f 125//388 141//388 139//388
f 63//545 128//545 131//545
f 124//546 140//546 141//546
f 61//391 62//391 66//391
f 65//392 63//392 64//392
f 67//393 64//393 61//393
f 65//547 67//547 134//547
f 62//548 61//548 129//548
f 119//549 120//549 136//549
f 67//397 68//397 135//397
f 119//398 127//398 140//398
f 78//550 72//550 76//550
f 82//551 84//551 76//551
f 83//552 79//552 74//552
f 81//553 83//553 75//553
f 82//554 73//554 74//554
f 77//555 80//555 70//555
f 80//556 81//556 71//556
f 78//557 77//557 69//557
f 76//558 72//558 125//558
f 76//559 123//559 121//559
f 75//560 74//560 126//560
f 75//561 122//561 120//561
f 74//562 73//562 121//562
f 70//563 119//563 124//563
f 71//564 120//564 119//564
f 72//565 69//565 124//565
f 141//566 140//566 132//566
f 136//567 131//567 128//567
f 140//417 127//417 128//417
f 137//418 133//418 130//418
f 136//419 138//419 129//419
f 138//568 142//568 130//568
f 139//569 135//569 133//569
f 141//422 134//422 135//422
f 66//570 133//570 135//570
f 64//424 131//424 129//424
f 121//571 123//571 139//571
f 63//426 65//426 132//426
f 126//572 142//572 138//572
f 62//428 130//428 133//428
f 120//429 122//429 138//429
f 126//430 121//430 137//430
f 28//573 30//573 145//573
f 32//574 150//574 145//574
f 31//575 29//575 149//575
f 27//576 148//576 150//576
f 26//577 31//577 146//577
f 26//578 143//578 147//578
f 25//579 147//579 148//579
f 29//580 28//580 144//580
f 157//581 155//581 153//581
f 158//582 151//582 152//582
f 156//583 152//583 153//583
f 162//584 155//584 157//584
f 164//375 152//375 151//375
f 161//585 166//585 158//585
f 165//586 151//586 158//586
f 164//375 159//375 153//375
f 156//587 158//587 157//587
f 20//375 21//375 159//375
f 22//588 165//588 166//588
f 145//447 150//447 166//447
f 20//375 164//375 165//375
f 144//448 162//448 163//448
f 21//375 23//375 160//375
f 144//449 145//449 161//449
f 23//589 149//589 163//589
f 354//590 348//590 351//590
f 342//591 196//591 191//591
f 341//592 191//592 190//592
f 192//454 193//454 195//454
f 191//454 196//454 189//454
f 194//454 195//454 189//454
f 337//593 190//593 189//593
f 194//594 196//594 342//594
f 340//595 189//595 195//595
f 349//596 350//596 355//596
f 211//597 202//597 204//597
f 203//598 201//598 207//598
f 208//599 204//599 199//599
f 209//600 198//600 203//600
f 353//454 347//454 348//454
f 210//601 200//601 202//601
f 199//602 197//602 205//602
f 201//603 200//603 210//603
f 197//604 198//604 209//604
f 333//467 335//467 319//467
f 325//605 322//605 241//605
f 335//606 334//606 318//606
f 244//470 240//470 239//470
f 243//607 245//607 242//607
f 246//472 239//472 242//472
f 243//608 326//608 328//608
f 240//609 324//609 323//609
f 313//610 321//610 330//610
f 328//476 329//476 246//476
f 334//477 321//477 313//477
f 254//611 250//611 256//611
f 251//612 254//612 262//612
f 261//613 253//613 252//613
f 259//614 249//614 253//614
f 257//615 252//615 251//615
f 255//616 247//616 248//616
f 258//617 248//617 249//617
f 256//618 250//618 247//618
f 254//619 317//619 319//619
f 315//620 317//620 254//620
f 253//621 316//621 320//621
f 314//622 316//622 253//622
f 252//623 320//623 315//623
f 318//624 313//624 248//624
f 313//625 314//625 249//625
f 250//626 319//626 318//626
f 335//627 328//627 326//627
f 322//628 325//628 330//628
f 334//496 326//496 322//496
f 324//497 327//497 331//497
f 330//498 325//498 323//498
f 332//629 323//629 324//629
f 327//630 329//630 333//630
f 333//501 329//501 328//501
f 329//631 327//631 244//631
f 239//503 323//503 325//503
f 315//632 331//632 333//632
f 241//505 322//505 326//505
f 332//633 336//633 320//633
f 327//507 324//507 240//507
f 330//508 332//508 316//508
f 320//509 336//509 331//509
f 200//634 338//634 339//634
f 202//635 339//635 344//635
f 203//636 340//636 343//636
f 344//637 342//637 199//637
f 337//638 340//638 203//638
f 341//639 337//639 198//639
f 199//640 342//640 341//640
f 343//641 338//641 200//641
f 351//642 348//642 347//642
f 346//643 345//643 352//643
f 347//644 346//644 350//644
f 351//645 349//645 356//645
f 345//454 346//454 358//454
f 355//646 350//646 352//646
f 352//647 345//647 359//647
f 358//454 346//454 347//454
f 350//648 349//648 351//648
f 192//454 358//454 353//454
f 360//649 359//649 194//649
f 339//526 355//526 360//526
f 359//454 358//454 192//454
f 357//527 356//527 338//527
f 193//454 353//454 354//454
f 338//528 356//528 355//528
f 195//650 354//650 357//650
