# Blender v2.83.5 OBJ File: 'bio.blend'
# www.blender.org
mtllib bio_000008.mtl
o Cube
v -0.915925 -1.094050 -0.435566
v -0.683417 0.750454 -0.441805
v -0.698251 -1.102440 0.524581
v -0.663630 1.137488 0.401972
v -1.001212 -1.059282 -0.124843
v -0.927765 -1.056138 0.245332
v -0.856932 1.025605 0.141376
v -0.862658 0.857774 -0.189228
v -0.815133 1.141243 -0.258788
v -0.715025 1.060088 -0.417567
v -0.176400 1.085078 -0.341773
v -0.161176 1.250058 0.153495
v -0.706508 1.327655 0.102571
v -0.084160 1.168404 0.016352
v -0.811765 1.247057 -0.053090
v -0.089220 1.130227 -0.157230
v -0.639451 3.515028 -1.344541
v -0.575908 3.468921 -1.448478
v -0.258396 3.465993 -1.452413
v -0.253374 3.617043 -1.110094
v -0.570898 3.619600 -1.107001
v -0.175191 3.570624 -1.214614
v -0.637470 3.574617 -1.209498
v -0.177172 3.511036 -1.349657
v -0.220702 2.265927 -0.981451
v -0.648841 2.280216 -0.980712
v -0.137210 2.328643 -0.845160
v -0.642296 2.479043 -0.547450
v -0.727731 2.419640 -0.677433
v -0.214137 2.465573 -0.547305
v -0.730317 2.341053 -0.848786
v -0.134800 2.401905 -0.685534
v -0.238227 2.165353 -0.912625
v -0.162612 2.227405 -0.788985
v -0.705916 2.314791 -0.636921
v -0.160298 2.299544 -0.645294
v -0.633525 2.177330 -0.911544
v -0.627211 2.374198 -0.519694
v -0.231899 2.362564 -0.519723
v -0.708414 2.236909 -0.791880
v -0.913515 -0.631128 -0.471848
v -0.745296 -0.599583 0.473924
v -0.955912 -0.613999 -0.242709
v -0.784758 -0.612384 0.085958
v -1.066489 -0.686789 0.245820
v -0.894156 -0.701016 0.344089
v -1.243643 -0.724660 -0.165376
v -1.210261 -0.700431 0.044788
v -1.024003 -0.637094 -0.339587
v -0.679193 -0.611593 0.172388
v -0.885209 -0.582282 -0.215144
v -0.752449 -0.571916 -0.011191
v -0.713350 0.246721 -0.284192
v -0.682207 0.557720 0.640191
v -0.876162 0.306671 -0.010755
v -0.859111 0.442046 0.348954
v -0.766600 -0.444750 -0.439828
v -0.650141 -0.399664 0.514003
v -0.882194 -0.444962 -0.169657
v -0.812773 -0.423751 0.197480
v -1.173357 1.333587 1.611437
v -1.081593 1.268155 1.612975
v -1.317725 1.517376 1.522269
v -1.266739 1.432145 1.575566
v -1.183616 1.626886 1.474034
v -0.947484 1.377666 1.564740
v -1.070809 1.592138 1.505096
v -0.977426 1.493580 1.540967
v -1.288228 1.110605 -0.023017
v -1.507644 0.951790 0.071547
v -1.442719 0.824420 0.177659
v -1.122793 1.066608 0.047657
v -0.908980 0.772818 0.173073
v -1.128551 0.616138 0.269192
v -1.292162 0.682736 0.249219
v -0.972355 0.924901 0.118328
v -1.243317 0.767449 -0.160323
v -1.112125 0.802849 -0.077072
v -1.131089 0.692378 0.349041
v -1.436010 0.705339 -0.016386
v -1.393290 0.711902 0.135511
v -0.938513 0.753686 0.203259
v -1.273122 0.708547 0.279242
v -0.991492 0.797924 0.068033
v -0.585839 -1.167596 0.582714
v -0.758647 -1.211676 -0.515771
v -0.841152 -1.186953 -0.265277
v -0.702427 -1.232396 0.232699
v -0.404794 -0.555601 -0.525372
v -0.298470 -0.547462 0.548913
v -0.249211 -0.317075 0.579123
v -0.330594 -0.343123 -0.503737
v -0.314625 0.023967 -0.429697
v -0.245226 0.105644 0.594746
v -0.240099 -1.403546 0.514916
v -0.401260 -2.418035 0.485388
v -0.562590 -1.401469 -0.585536
v -0.737933 -1.300704 -0.274865
v -0.601054 -1.306040 0.234089
v -0.423170 -2.183776 0.513804
v -0.543722 -2.223950 -0.533596
v -0.723613 -2.185138 -0.293323
v -0.663096 -2.185138 0.277979
v -0.507390 -2.461869 -0.413891
v -0.663594 -2.461869 -0.230214
v -0.609429 -2.461869 0.241091
v -0.421376 -1.796731 0.513552
v -0.656596 -1.794520 0.295143
v -0.716169 -1.794520 -0.321375
v -0.542603 -1.875845 -0.600443
v -0.376018 -2.557967 0.451857
v -0.422477 -2.557967 -0.202632
v -0.535867 -2.557967 -0.143580
v -0.489443 -2.557967 0.228564
v -0.434906 -1.291560 0.478174
v -0.449895 -2.461869 0.457222
v -0.473977 -1.794520 0.489544
v -0.475768 -2.185138 0.490382
v -1.365604 1.442823 1.304167
v -1.306270 1.339240 1.368674
v -0.921906 1.275395 1.355065
v -1.194361 1.221127 1.411662
v -0.959558 1.412862 1.327211
v -1.204887 1.574060 1.246362
v -1.071467 1.530975 1.284223
v -1.082623 1.144157 1.412869
v -1.401356 1.469920 1.336764
v -1.384449 1.507600 1.434502
v -1.191768 1.257103 1.542002
v -1.068616 1.174261 1.555823
v -1.316669 1.388928 1.494023
v -1.205075 1.654074 1.369987
v -0.889242 1.320735 1.491308
v -1.054607 1.602923 1.399768
v -0.929706 1.471098 1.447747
v -1.332843 1.344691 1.399471
v -0.885789 1.275372 1.395906
v -1.202807 1.207447 1.449422
v -0.929971 1.430239 1.351291
v -1.214607 1.622415 1.269596
v -1.060007 1.567483 1.301340
v -1.072539 1.122876 1.463073
v -0.591537 3.214289 -1.348055
v -0.586727 3.208556 -0.901274
v -0.245412 3.203470 -0.903576
v -0.658948 3.263147 -1.237916
v -0.250235 3.208810 -1.351248
v -0.168536 3.257136 -1.241046
v -0.657347 3.160890 -1.009886
v -0.166972 3.153761 -1.015550
v -0.227390 3.846650 -0.589591
v -0.284899 3.892890 -0.485300
v -0.520068 3.894736 -0.483118
v -0.569765 3.849607 -0.585802
v -0.531343 3.724332 -0.395584
v -0.278557 3.720011 -0.396906
v -0.584063 3.676511 -0.504393
v -0.220886 3.670481 -0.508650
v -0.569431 3.663733 -1.006984
v -0.636002 3.618750 -1.109481
v -0.243434 3.416186 -0.889893
v -0.584749 3.421272 -0.887592
v -0.655369 3.373605 -0.996203
v -0.251907 3.661177 -1.010077
v -0.173724 3.614758 -1.114597
v -0.164994 3.366477 -1.001867
v 0.846283 -1.103165 -0.550080
v 0.648357 1.280450 -0.234026
v 0.772360 -1.075182 0.426824
v 0.688465 0.577621 0.332993
v -0.029295 1.088213 -0.387369
v 0.046079 -1.163133 0.569116
v 0.023056 1.012311 0.407984
v -0.052908 -1.224585 -0.654203
v 0.976444 -1.052708 -0.257717
v 0.957715 -1.020990 0.114204
v 0.861286 0.791552 0.172031
v 0.846741 1.095677 -0.038650
v -0.015820 1.142920 -0.115685
v -0.000702 1.085513 0.192016
v 0.783449 1.194643 0.238344
v 0.674230 1.334121 0.136200
v 0.137351 1.246452 -0.015005
v 0.160716 0.884815 0.382245
v 0.696798 0.849415 0.462928
v 0.070958 1.020500 0.229173
v 0.792374 1.002957 0.367554
v 0.063127 1.130104 0.093507
v 0.638818 2.933068 0.748361
v 0.571901 2.898216 0.642186
v 0.255391 2.923598 0.638203
v 0.262249 3.056540 0.987917
v 0.578742 3.030832 0.991040
v 0.180724 3.022704 0.881148
v 0.641524 2.985513 0.886321
v 0.178019 2.970259 0.743188
v 0.105468 1.785822 1.097558
v 0.533064 1.773857 1.101983
v 0.028128 1.794016 1.220131
v 0.544390 1.804663 1.501706
v 0.624236 1.789784 1.381360
v 0.116890 1.809073 1.496390
v 0.619791 1.776798 1.222848
v 0.032278 1.805143 1.367577
v 0.118580 1.855189 1.148954
v 0.050062 1.768888 1.234460
v 0.599708 1.695066 1.360723
v 0.055797 1.667255 1.333696
v 0.512264 1.882729 1.168809
v 0.527899 1.602853 1.439089
v 0.134241 1.578013 1.420586
v 0.593499 1.806239 1.254146
v 0.836538 -0.644779 -0.637659
v 0.807141 -0.591075 0.298298
v -0.046431 -0.482352 -0.566959
v 0.046387 -0.482352 0.566958
v 0.898398 -0.684942 -0.408034
v 0.777315 -0.632991 -0.059921
v 1.075434 -0.607110 0.010529
v 0.923832 -0.599570 0.140983
v 1.187435 -0.781347 -0.384854
v 1.185289 -0.686210 -0.196386
v 0.938182 -0.771566 -0.519545
v 0.678556 -0.593792 0.007183
v 0.815277 -0.689894 -0.397840
v 0.716939 -0.617059 -0.187594
v 0.693542 0.810469 -0.656436
v 0.749468 0.247667 0.041624
v -0.034631 0.499713 -0.503585
v 0.040035 0.465516 0.471456
v 0.882106 0.633961 -0.482713
v 0.895763 0.392324 -0.221335
v 0.699346 -0.371798 -0.664908
v 0.718871 -0.419565 0.263185
v -0.045697 -0.311705 -0.558167
v 0.045683 -0.311705 0.558167
v 0.848529 -0.410988 -0.446118
v 0.830361 -0.423022 -0.091886
v 1.156182 1.686725 0.555916
v 1.074171 1.619336 0.593827
v 1.261939 1.842389 0.391126
v 1.230438 1.774935 0.475755
v 1.109932 1.922684 0.338675
v 0.922164 1.699632 0.541376
v 1.008360 1.892245 0.399125
v 0.934104 1.804036 0.479286
v 1.035755 0.969637 -0.930120
v 1.284647 0.864420 -0.836124
v 1.252927 0.774638 -0.687869
v 0.890077 0.941594 -0.820933
v 0.735175 0.692770 -0.577808
v 0.984226 0.590277 -0.483077
v 1.133453 0.654783 -0.551420
v 0.770579 0.821390 -0.685376
v 1.009706 0.585884 -0.933670
v 0.890498 0.643958 -0.846170
v 0.991548 0.707315 -0.425504
v 1.229257 0.593423 -0.818637
v 1.211304 0.655607 -0.675703
v 0.771905 0.698290 -0.542091
v 1.117376 0.702145 -0.521724
v 0.796518 0.689417 -0.690179
v 0.670088 -1.148605 0.497789
v 0.677104 -1.215008 -0.610519
v 0.798120 -1.183986 -0.371596
v 0.733099 -1.215762 0.138092
v 0.319608 -0.567978 -0.567645
v 0.385257 -0.545738 0.488071
v 0.336902 -0.335044 0.432045
v 0.247343 -0.321446 -0.577481
v -0.036795 0.116117 -0.537347
v 0.044318 0.081998 0.520087
v 0.249086 0.182535 -0.619826
v 0.330480 0.034903 0.340260
v 0.319427 -1.403546 0.469975
v 0.044813 -1.248572 0.552246
v 0.475699 -2.418035 0.412700
v -0.054783 -1.400469 -0.673714
v 0.042654 -2.502535 0.514613
v 0.466709 -1.401298 -0.658797
v 0.692975 -1.296198 -0.370394
v 0.632493 -1.294231 0.151083
v 0.501731 -2.183776 0.437449
v 0.045471 -2.185138 0.548593
v -0.048677 -2.223950 -0.587272
v 0.449076 -2.223950 -0.615424
v 0.666204 -2.185138 -0.407345
v 0.699622 -2.185138 0.166056
v -0.038486 -2.461869 -0.464330
v 0.432390 -2.461869 -0.491728
v 0.616810 -2.461869 -0.336044
v 0.640781 -2.461869 0.137623
v 0.499194 -1.796731 0.438407
v 0.695597 -1.794520 0.185909
v 0.655639 -1.794520 -0.431936
v -0.054018 -1.875845 -0.653154
v 0.438067 -1.875845 -0.680590
v 0.045707 -1.794520 0.551817
v 0.445281 -2.557967 0.383783
v 0.040717 -2.598634 0.491239
v 0.014600 -2.598634 0.176142
v -0.020199 -2.598634 -0.243692
v -0.004341 -2.598634 -0.052368
v 0.383351 -2.557967 -0.269424
v 0.504915 -2.557967 -0.229846
v 0.520395 -2.557967 0.144863
v 0.505881 -1.284162 0.410001
v 0.519033 -2.461869 0.376912
v 0.547085 -1.794520 0.406355
v 0.549716 -2.185138 0.405808
v 0.042961 -1.402302 0.528514
v 0.043156 -2.457340 0.520669
v 1.283082 1.706827 0.199828
v 1.247335 1.624933 0.301939
v 0.875896 1.535747 0.379887
v 1.158346 1.519222 0.398004
v 0.892208 1.659806 0.306172
v 1.100918 1.803053 0.136971
v 0.981197 1.765517 0.210106
v 1.058061 1.439520 0.442744
v 1.320107 1.744940 0.215688
v 1.314589 1.810028 0.299303
v 1.172228 1.593755 0.509993
v 1.063445 1.511689 0.570421
v 1.271548 1.711738 0.402775
v 1.111276 1.917426 0.229149
v 0.860132 1.619087 0.500266
v 0.974513 1.868643 0.300281
v 0.875193 1.750660 0.407499
v 1.277624 1.641379 0.324217
v 0.846966 1.546150 0.424914
v 1.174222 1.518545 0.435843
v 0.864975 1.681902 0.329135
v 1.108436 1.856753 0.142650
v 0.968378 1.804735 0.217509
v 1.058638 1.434336 0.497952
v 0.564566 2.638338 0.729213
v 0.557350 2.609890 1.175084
v 0.216932 2.635147 1.172627
v 0.635552 2.675262 0.841723
v 0.224130 2.663249 0.725845
v 0.146542 2.712832 0.838436
v 0.623953 2.561860 1.064119
v 0.134893 2.598446 1.058243
v 0.254394 3.260238 1.519666
v 0.315312 3.295737 1.626204
v 0.549713 3.276654 1.628405
v 0.595674 3.232693 1.523498
v 0.545530 3.101614 1.706946
v 0.293357 3.119748 1.705480
v 0.594290 3.055025 1.595780
v 0.232020 3.081377 1.591328
v 0.580746 3.069675 1.093219
v 0.643527 3.024355 0.988500
v 0.233675 2.846204 1.197364
v 0.574093 2.820947 1.199821
v 0.640697 2.772917 1.088855
v 0.264252 3.095383 1.090095
v 0.182728 3.061547 0.983326
v 0.151637 2.809504 1.082980
vn -0.1532 -0.0351 0.9876
vn 0.4380 -0.8940 -0.0947
vn -0.8227 -0.0396 -0.5670
vn -0.5670 -0.7494 0.3418
vn -0.8291 0.4547 0.3252
vn -0.5826 -0.7991 0.1483
vn -0.0594 0.9792 -0.1942
vn -0.1332 -0.1901 0.9727
vn -0.7917 -0.5919 -0.1511
vn -0.6624 0.0135 0.7490
vn -0.1112 0.0454 -0.9928
vn 0.0608 0.3777 0.9239
vn 0.5520 0.8242 0.1266
vn -0.9867 0.1504 -0.0612
vn 0.0712 0.8466 0.5275
vn 0.6866 0.7082 0.1645
vn -0.2480 0.6025 -0.7586
vn -0.8541 0.3121 0.4160
vn 0.9069 -0.1631 -0.3885
vn 0.1447 -0.4558 -0.8782
vn -0.8696 -0.1452 -0.4719
vn 0.9983 0.0445 -0.0389
vn -0.9961 0.0842 -0.0263
vn 0.8994 0.2667 0.3463
vn -0.1799 0.1616 -0.9703
vn -0.9472 -0.2553 0.1939
vn -0.7986 0.4958 -0.3413
vn -0.8517 0.3226 0.4130
vn 0.0212 0.0446 0.9988
vn -0.4982 -0.1882 0.8464
vn -0.8157 -0.5539 0.1666
vn -0.7656 -0.0463 -0.6417
vn -0.0213 -0.9992 0.0351
vn 0.4180 -0.8795 -0.2274
vn -0.8262 0.2366 0.5113
vn -0.8329 -0.1196 -0.5403
vn -0.9999 0.0084 0.0131
vn 0.0151 0.5102 0.8599
vn -0.0185 0.1939 -0.9809
vn -0.0285 -0.1240 0.9919
vn -0.8323 -0.0997 0.5452
vn -0.8416 0.1182 -0.5270
vn -0.9952 -0.0659 0.0720
vn 0.4960 0.1662 -0.8523
vn -0.9738 -0.1489 0.1718
vn -0.6002 0.0084 -0.7998
vn 0.5957 0.0985 0.7971
vn -0.7613 -0.1393 0.6332
vn -0.4474 -0.0876 0.8901
vn 0.9260 0.1834 -0.3299
vn 0.8211 0.1747 -0.5434
vn -0.3760 0.0528 -0.9251
vn -0.1500 -0.1252 0.9807
vn -0.1743 0.0825 0.9812
vn -0.1929 0.0513 -0.9799
vn -0.1380 0.1168 -0.9835
vn -0.6740 -0.7315 -0.1031
vn -0.6067 -0.7847 0.1270
vn -0.7362 -0.6530 -0.1780
vn -0.2175 0.2302 -0.9485
vn 0.2419 0.1373 0.9605
vn 0.2466 -0.0381 0.9684
vn -0.3839 0.0831 -0.9196
vn -0.1059 -0.1872 -0.9766
vn -0.9944 0.0119 0.1053
vn -0.1870 0.1629 -0.9688
vn -0.4392 -0.8282 0.3481
vn -0.0958 -0.4590 -0.8833
vn -0.9727 -0.2035 0.1118
vn -0.7270 -0.2987 -0.6183
vn -0.7288 0.0048 0.6847
vn -0.8517 -0.0214 -0.5235
vn -0.2668 -0.8164 -0.5122
vn -0.7267 -0.5793 0.3692
vn -0.1140 -0.2326 0.9659
vn -0.7418 -0.1477 0.6542
vn -0.8697 0.0082 -0.4935
vn -0.8263 0.0768 0.5579
vn -0.9877 0.1242 0.0954
vn -0.1711 0.0237 -0.9850
vn -0.0779 -0.9969 0.0097
vn -0.0571 -0.9923 -0.1097
vn -0.0764 -0.9963 0.0388
vn -0.6183 -0.7821 0.0771
vn -0.0430 -0.9158 -0.3993
vn -0.1568 0.0508 0.9863
vn -0.4068 0.0025 0.9135
vn -0.3943 -0.1456 0.9074
vn -0.4019 0.1822 0.8974
vn -0.0900 -0.1313 0.9873
vn 0.4701 0.2587 0.8439
vn 0.8285 0.5451 -0.1279
vn 0.7475 0.6480 -0.1462
vn 0.6726 -0.6972 0.2480
vn 0.8139 -0.2707 0.5141
vn 0.7291 -0.6826 0.0504
vn -0.4843 0.8620 -0.1495
vn 0.1030 -0.6256 0.7734
vn 0.7226 -0.6593 -0.2079
vn 0.8018 0.0989 0.5894
vn -0.1356 -0.0093 -0.9907
vn 0.2649 -0.6103 0.7466
vn -0.3502 0.9175 0.1884
vn 0.9731 0.1608 0.1649
vn 0.0627 0.2621 -0.9630
vn 0.6010 0.7747 0.1965
vn -0.1943 0.9311 -0.3087
vn 0.8721 -0.3055 0.3821
vn -0.9015 0.3774 -0.2119
vn -0.0141 0.8859 -0.4636
vn 0.8297 0.5363 -0.1548
vn -0.9986 -0.0505 0.0168
vn 0.9864 0.1211 0.1115
vn -0.9065 -0.3696 0.2040
vn -0.1994 -0.0974 -0.9751
vn 0.9808 0.1864 0.0566
vn 0.8009 0.3543 -0.4826
vn 0.9359 -0.1914 0.2957
vn 0.1117 0.0688 0.9914
vn 0.8568 0.0362 0.5143
vn 0.8593 -0.5041 0.0863
vn 0.6831 -0.1230 -0.7199
vn -0.2851 -0.9490 0.1348
vn -0.3165 -0.9481 0.0314
vn 0.8969 -0.2686 0.3512
vn 0.8040 0.4384 -0.4018
vn 0.9981 0.0598 0.0174
vn -0.1369 -0.8255 0.5476
vn -0.2782 0.1885 -0.9419
vn 0.2697 0.3048 0.9135
vn 0.8720 0.0078 0.4894
vn 0.6819 0.0086 -0.7314
vn 0.9958 -0.0350 -0.0843
vn -0.7458 -0.1581 -0.6471
vn 0.9995 -0.0231 0.0231
vn 0.4476 -0.2814 -0.8488
vn -0.4368 0.3767 0.8169
vn 0.8958 0.1425 0.4211
vn 0.6342 0.2796 0.7208
vn -0.9813 -0.0108 -0.1921
vn -0.9140 -0.0960 -0.3942
vn -0.0640 0.0498 -0.9967
vn 0.4130 0.3818 0.8268
vn 0.4425 0.2231 0.8686
vn -0.0640 0.0516 -0.9966
vn 0.0254 0.1165 -0.9929
vn 0.5886 -0.7842 -0.1963
vn 0.5828 -0.8123 0.0237
vn 0.7013 -0.6600 -0.2695
vn -0.0915 0.0067 -0.9958
vn 0.5395 0.1095 0.8349
vn 0.4023 0.2270 0.8869
vn -0.2543 0.1241 -0.9591
vn -0.0547 -0.1865 -0.9809
vn 0.9977 0.0229 -0.0645
vn 0.0561 0.1906 -0.9801
vn 0.6155 -0.7482 0.2475
vn -0.0502 -0.4579 -0.8876
vn 0.9802 -0.1897 -0.0571
vn 0.6751 -0.3770 -0.6341
vn 0.8293 0.0048 0.5587
vn 0.7558 -0.0208 -0.6545
vn 0.2777 -0.9026 -0.3289
vn 0.6048 -0.7345 0.3077
vn 0.2864 -0.1522 0.9459
vn 0.8386 -0.1477 0.5243
vn 0.7834 0.0180 -0.6212
vn 0.8972 0.0693 0.4361
vn 0.9847 0.1321 0.1137
vn 0.0286 0.0441 -0.9986
vn 0.0785 -0.9969 -0.0032
vn 0.0997 -0.9950 -0.0083
vn 0.0979 -0.9952 -0.0081
vn 0.6335 -0.7731 -0.0321
vn -0.0233 -0.9158 -0.4010
vn 0.2041 -0.1518 0.9671
vn 0.5505 0.0015 0.8348
vn 0.5415 -0.1476 0.8276
vn 0.5412 0.1815 0.8211
vn 0.2513 -0.1313 0.9590
vn -0.0332 -0.1317 0.9907
vn -0.1802 0.9779 -0.1064
vn -0.8436 0.0097 -0.5368
vn -0.5959 -0.7304 0.3337
vn -0.7990 0.4493 0.3998
vn -0.7272 -0.6718 0.1413
vn -0.0827 0.9763 -0.1998
vn 0.0212 -0.6293 0.7768
vn -0.8056 -0.5603 0.1926
vn -0.4725 0.8704 -0.1383
vn -0.4918 -0.0655 -0.8683
vn 0.2403 0.1193 0.9633
vn -0.0481 0.9758 -0.2132
vn -0.9870 0.1496 -0.0589
vn 0.1351 0.7709 0.6224
vn 0.7173 0.6967 -0.0120
vn 0.1346 0.0910 -0.9867
vn -0.8544 0.3119 0.4156
vn 0.8770 -0.1843 -0.4438
vn -0.0147 -0.4034 -0.9149
vn -0.8688 -0.1457 -0.4733
vn 0.9983 0.0446 -0.0385
vn -0.9961 0.0840 -0.0269
vn 0.8881 0.2752 0.3683
vn -0.1408 0.2744 -0.9512
vn -0.8721 0.1844 0.4532
vn -0.7557 0.6278 -0.1867
vn -0.9726 -0.2070 0.1058
vn -0.0529 0.0032 0.9986
vn -0.7767 -0.0994 0.6219
vn -0.7691 -0.2896 0.5697
vn -0.6253 0.0160 -0.7803
vn 0.2521 -0.9202 -0.2995
vn 0.4743 -0.8462 -0.2428
vn -0.8707 0.1677 0.4623
vn -0.8641 -0.1358 -0.4847
vn -0.9988 0.0355 0.0340
vn -0.0063 0.5174 0.8557
vn -0.1983 -0.2819 -0.9387
vn 0.0699 0.0516 0.9962
vn -0.8782 -0.1276 0.4609
vn -0.9080 0.1573 -0.3884
vn -0.9818 -0.0318 0.1875
vn 0.6115 0.1934 -0.7672
vn -0.9514 -0.1409 0.2737
vn -0.6210 -0.0019 -0.7838
vn 0.5821 0.0923 0.8078
vn -0.8019 -0.1327 0.5825
vn -0.4989 -0.0879 0.8622
vn 0.9344 0.1808 -0.3069
vn 0.7586 0.1865 -0.6243
vn -0.2052 0.2021 -0.9576
vn -0.1396 -0.0993 0.9852
vn -0.3494 0.2116 0.9128
vn -0.1442 0.1499 -0.9781
vn -0.1902 0.0883 -0.9778
vn -0.6366 -0.7593 -0.1347
vn -0.5743 -0.8142 0.0857
vn -0.7168 -0.6718 -0.1867
vn -0.1880 0.2020 -0.9612
vn 0.2573 0.1244 0.9583
vn 0.0688 0.0963 0.9930
vn -0.3216 0.0423 -0.9459
vn -0.1054 -0.1865 -0.9768
vn -0.9950 0.0259 0.0961
vn -0.1702 0.1104 -0.9792
vn -0.5583 -0.7624 0.3271
vn -0.0950 -0.4602 -0.8827
vn -0.9767 -0.1882 0.1035
vn -0.7697 -0.3768 -0.5154
vn -0.7499 -0.0166 0.6614
vn -0.8041 -0.1096 -0.5843
vn -0.3279 -0.9026 -0.2788
vn -0.5461 -0.7344 0.4031
vn -0.1268 -0.1522 0.9802
vn -0.7832 -0.2289 0.5781
vn -0.8515 -0.0194 -0.5240
vn -0.7187 0.1661 0.6752
vn -0.9637 -0.0668 0.2585
vn -0.1072 -0.0431 -0.9933
vn -0.0797 -0.9968 0.0066
vn -0.0997 -0.9950 0.0083
vn -0.0979 -0.9952 0.0081
vn -0.6306 -0.7728 0.0725
vn -0.1380 -0.8469 -0.5135
vn -0.0468 -0.1518 0.9873
vn -0.4151 0.0039 0.9098
vn -0.3992 -0.1471 0.9050
vn -0.1657 0.0351 0.9856
vn -0.1392 -0.4214 0.8961
vn 0.4351 0.2239 0.8721
vn 0.1234 -0.7619 0.6359
vn 0.7983 0.6014 -0.0324
vn 0.6482 -0.7156 0.2603
vn 0.8349 -0.2016 0.5122
vn 0.6193 -0.7816 0.0748
vn -0.6597 0.6927 0.2914
vn 0.2760 -0.1901 0.9422
vn 0.8174 -0.5105 0.2670
vn 0.0377 0.9990 -0.0260
vn 0.4248 -0.1612 -0.8908
vn 0.1876 0.1190 0.9750
vn 0.3691 0.7332 0.5711
vn 0.9724 0.1598 0.1699
vn -0.1621 -0.4216 0.8922
vn 0.6849 0.6961 0.2154
vn -0.1228 0.9833 -0.1340
vn 0.8562 -0.3266 0.4002
vn -0.8641 0.4349 -0.2534
vn -0.0377 0.8800 -0.4734
vn 0.7783 0.5916 -0.2106
vn -0.9989 -0.0444 0.0123
vn 0.9855 0.1429 0.0916
vn -0.8404 -0.4604 0.2859
vn -0.1578 -0.1763 -0.9716
vn 0.9205 -0.1797 0.3470
vn 0.9617 0.1425 -0.2342
vn 0.8924 0.4337 -0.1250
vn 0.2273 0.0030 0.9738
vn 0.6524 0.0043 0.7579
vn 0.8575 -0.1185 0.5006
vn 0.4733 -0.0502 -0.8795
vn -0.3422 -0.9386 0.0447
vn 0.1001 -0.9247 0.3672
vn 0.8188 -0.2875 0.4970
vn 0.7953 0.4507 -0.4053
vn 0.9973 0.0719 0.0144
vn 0.0210 -0.7897 0.6131
vn -0.0208 0.6672 -0.7446
vn 0.4002 0.0488 0.9151
vn 0.9528 0.0555 0.2986
vn 0.8214 -0.0463 -0.5684
vn 0.9962 -0.0722 0.0486
vn -0.6431 -0.2111 -0.7361
vn 0.9931 0.0219 0.1152
vn 0.4529 -0.2819 -0.8458
vn -0.4463 0.3772 0.8115
vn 0.8635 0.1547 0.4800
vn 0.5891 0.2880 0.7550
vn -0.9865 -0.0029 -0.1638
vn -0.8653 -0.1152 -0.4878
vn -0.2591 -0.0800 -0.9625
vn 0.4416 0.3238 0.8367
vn 0.4198 0.2046 0.8843
vn -0.0120 -0.0434 -0.9990
vn 0.0582 0.0980 -0.9935
vn 0.6498 -0.7429 -0.1611
vn 0.6579 -0.7468 0.0968
vn 0.6718 -0.6871 -0.2767
vn -0.1980 -0.0814 -0.9768
vn 0.5419 0.1117 0.8330
vn 0.5400 0.0829 0.8376
vn -0.2945 0.0854 -0.9518
vn -0.0555 -0.1854 -0.9811
vn 0.9982 0.0132 -0.0582
vn 0.0286 0.1099 -0.9935
vn 0.5157 -0.8084 0.2836
vn -0.0516 -0.4602 -0.8863
vn 0.9780 -0.2029 -0.0495
vn 0.6158 -0.2979 -0.7294
vn 0.8478 -0.0182 0.5301
vn 0.6979 -0.1104 -0.7076
vn 0.1790 -0.8159 -0.5498
vn 0.7776 -0.5793 0.2445
vn 0.2714 -0.2326 0.9339
vn 0.8674 -0.2298 0.4413
vn 0.7550 -0.0155 -0.6556
vn 0.8209 0.1420 0.5531
vn 0.9957 -0.0666 -0.0644
vn -0.0556 -0.0432 -0.9975
vn 0.0797 -0.9968 -0.0066
vn 0.0383 -0.9923 -0.1176
vn 0.0817 -0.9963 0.0257
vn 0.6227 -0.7820 -0.0257
vn 0.0516 -0.8469 -0.5292
vn 0.2960 0.0175 0.9550
vn 0.5561 0.0026 0.8311
vn 0.5377 -0.1463 0.8303
vn 0.2962 0.0171 0.9550
vn 0.2848 -0.4214 0.8610
vn -0.0482 0.0589 0.9971
vn -0.0740 0.0010 0.9973
vn -0.0876 -0.1009 0.9910
vn 0.2070 0.0595 0.9765
vn 0.2367 -0.0009 0.9716
vn 0.2496 -0.1009 0.9631
vn -0.0818 0.0342 0.9961
vn -0.0816 -0.0082 0.9966
vn -0.0738 -0.1269 0.9892
vn 0.2426 0.0331 0.9696
vn 0.2426 -0.0082 0.9701
vn 0.2351 -0.1279 0.9635
vn -0.9904 0.1166 0.0739
vn 0.8096 -0.2073 -0.5491
vn -0.0149 -0.3664 -0.9303
vn 0.0034 0.9149 -0.4037
vn -0.8708 -0.1332 -0.4733
vn 0.9998 0.0210 0.0027
vn -0.9974 0.0703 -0.0164
vn -0.0091 -0.8510 0.5252
vn 0.8643 -0.0144 0.5027
vn -0.9834 -0.1555 0.0940
vn 0.9742 -0.2105 0.0819
vn -0.8572 -0.3691 -0.3592
vn 0.0078 0.2570 0.9664
vn 0.8583 -0.3963 -0.3260
vn -0.8380 0.0360 0.5444
vn -0.0193 -0.5624 -0.8267
vn 0.5383 0.2133 -0.8153
vn -0.8129 -0.1315 0.5674
vn 0.3499 0.3054 -0.8856
vn 0.1523 0.2362 0.9597
vn -0.0880 0.4898 0.8674
vn 0.0327 0.3691 0.9288
vn 0.2827 0.9407 0.1875
vn -0.4282 -0.5123 0.7445
vn -0.7444 -0.5762 -0.3374
vn 0.6813 0.7101 0.1775
vn -0.5205 0.2825 -0.8058
vn 0.7642 0.1347 -0.6308
vn 0.2024 -0.9046 -0.3752
vn 0.3331 0.6002 -0.7272
vn -0.7073 -0.4985 0.5012
vn -0.6044 0.5665 -0.5601
vn -0.5318 0.2537 -0.8080
vn -0.9281 -0.3307 0.1709
vn 0.4478 0.3970 -0.8012
vn 0.7465 0.6142 -0.2558
vn 0.9309 0.3396 -0.1342
vn -0.5243 -0.7550 0.3938
vn -0.7251 -0.5980 0.3416
vn 0.6657 -0.6873 0.2906
vn -0.6335 0.7393 -0.2283
vn -0.9310 -0.2892 0.2225
vn 0.3749 0.8627 -0.3395
vn 0.3619 0.8706 -0.3333
vn -0.8935 -0.3449 0.2875
vn -0.6591 0.7329 -0.1685
vn 0.6652 -0.6647 0.3401
vn -0.7357 -0.5565 0.3862
vn -0.5330 -0.7175 0.4484
vn 0.9644 0.2508 -0.0844
vn 0.7464 0.6121 -0.2613
vn 0.8759 0.3032 0.3753
vn -0.6679 -0.4057 0.6240
vn 0.7489 0.0229 -0.6623
vn -0.5297 0.7875 0.3150
vn -0.5192 -0.7598 -0.3914
vn 0.5668 -0.3698 0.7362
vn -0.5943 -0.7044 -0.3881
vn 0.4773 -0.7705 -0.4225
vn 0.0126 0.4356 0.9001
vn 0.8411 0.2636 0.4722
vn -0.9938 0.0985 0.0512
vn 0.9991 0.0301 -0.0289
vn -0.8696 -0.1336 -0.4754
vn -0.0138 -0.3655 -0.9307
vn 0.8269 -0.1967 -0.5268
vn -0.8562 0.2769 0.4362
vn -0.9115 0.2343 0.3381
vn 0.9031 0.2213 0.3680
vn 0.0125 0.4562 0.8898
vn -0.2799 -0.7988 0.5326
vn 0.3108 -0.7991 0.5146
vn 0.9952 0.0673 0.0713
vn 0.0135 0.9130 -0.4078
vn 0.9986 -0.0058 -0.0535
vn 0.8086 -0.0452 0.5866
vn -0.8324 -0.0279 0.5535
vn 0.0058 -0.0642 0.9979
vn -0.9973 0.0711 -0.0167
vn 0.9966 0.0206 0.0798
vn -0.8371 -0.0816 -0.5409
vn -0.0138 -0.3172 -0.9483
vn 0.0792 0.9313 -0.3556
vn 0.8574 -0.1848 -0.4803
vn -0.9940 0.1091 0.0041
vn 0.9989 -0.0249 0.0394
vn -0.0684 -0.8745 0.4802
vn -0.8280 -0.2299 0.5114
vn 0.9484 -0.1903 -0.2538
vn -0.9851 -0.1454 -0.0920
vn -0.7147 -0.6972 0.0554
vn -0.0249 -0.3133 0.9493
vn 0.8695 -0.3894 0.3037
vn 0.8354 -0.2240 0.5019
vn -0.0063 -0.5240 0.8517
vn -0.6820 -0.0858 -0.7263
vn 0.9023 0.1037 0.4185
vn -0.5194 -0.0085 -0.8545
vn -0.0250 0.5131 0.8580
vn 0.1661 0.7401 0.6517
vn 0.0717 0.6371 0.7675
vn -0.3426 0.9335 -0.1056
vn 0.5815 -0.2774 0.7648
vn 0.6295 -0.6987 -0.3400
vn -0.7234 0.6853 0.0841
vn 0.3493 0.0500 -0.9357
vn -0.8656 -0.1528 -0.4769
vn 0.0788 -0.9942 0.0727
vn -0.5472 0.3968 -0.7370
vn -0.8467 0.0450 -0.5301
vn 0.4217 0.3789 -0.8238
vn 0.4628 -0.1510 -0.8735
vn 0.9226 -0.2976 0.2453
vn -0.5762 0.0467 -0.8160
vn -0.8251 0.4747 -0.3064
vn -0.9733 0.2232 -0.0535
vn 0.5306 -0.6453 0.5496
vn 0.8332 -0.4172 0.3631
vn -0.4886 -0.6181 0.6158
vn 0.4929 0.6709 -0.5541
vn 0.9817 -0.1470 0.1210
vn -0.5140 0.6910 -0.5083
vn -0.5190 0.7077 -0.4793
vn 0.9621 -0.1807 0.2042
vn 0.5331 0.6843 -0.4975
vn -0.5199 -0.5666 0.6393
vn 0.8479 -0.3606 0.3886
vn 0.6674 -0.5308 0.5223
vn -0.9883 0.1503 0.0272
vn -0.8452 0.4516 -0.2860
vn -0.8349 0.3487 0.4258
vn 0.8014 -0.1480 0.5795
vn -0.7392 -0.2696 -0.6172
vn 0.4765 0.8784 -0.0363
vn 0.5363 -0.8093 -0.2395
vn -0.3954 -0.1574 0.9049
vn 0.6040 -0.7510 -0.2668
vn -0.4441 -0.8925 -0.0792
vn -0.0078 0.3657 0.9307
vn -0.8015 0.2998 0.5173
vn 0.9996 -0.0108 -0.0271
vn -0.9907 0.1350 0.0177
vn 0.7893 -0.2515 -0.5602
vn -0.0014 -0.3899 -0.9208
vn -0.8439 -0.1094 -0.5252
vn 0.8277 0.1994 0.5245
vn 0.9270 0.1349 0.3500
vn -0.8816 0.2808 0.3793
vn 0.0241 0.4088 0.9123
vn 0.2059 -0.8469 0.4902
vn -0.3124 -0.8163 0.4859
vn -0.9857 0.1512 0.0750
vn 0.0722 0.9330 -0.3524
vn -0.9949 0.0852 -0.0534
vn -0.8120 -0.0040 0.5837
vn 0.8243 -0.1300 0.5510
vn -0.0157 -0.1152 0.9932
vn 0.9950 -0.0707 -0.0702
vn -0.9909 0.1126 0.0743
vn 0.8265 -0.1832 -0.5324
vn -0.0146 -0.3661 -0.9305
vn -0.8705 -0.1332 -0.4737
vn 0.9994 0.0233 -0.0250
vn -0.9972 0.0654 0.0364
vn -0.0118 -0.8516 0.5240
vn 0.8646 -0.0180 0.5021
vn -0.9814 -0.1686 0.0921
vn 0.9765 -0.1985 0.0839
vn -0.8587 -0.3728 -0.3518
vn 0.0076 0.2574 0.9663
vn 0.8551 -0.3859 -0.3462
vn -0.8401 0.0226 0.5419
vn -0.0201 -0.5599 -0.8283
vn -0.7806 -0.1404 0.6091
vn 0.3329 0.4619 -0.8221
vn 0.2568 0.9566 0.1375
vn -0.4094 -0.5572 0.7224
vn -0.6363 -0.6362 -0.4364
vn 0.6464 0.3474 -0.6793
vn 0.7944 0.1164 -0.5962
vn 0.3865 0.6732 -0.6305
vn 0.7576 0.1732 -0.6293
vn -0.6041 0.7919 -0.0891
vn -0.6159 0.0998 -0.7815
vn -0.8453 -0.4679 0.2579
vn 0.4186 0.3841 -0.8230
vn 0.7243 0.6350 -0.2685
vn 0.9642 0.2422 -0.1080
vn -0.3871 -0.8311 0.3993
vn -0.7421 -0.5822 0.3321
vn 0.6382 -0.7059 0.3071
vn -0.6626 0.7189 -0.2100
vn -0.8989 -0.3552 0.2565
vn 0.3745 0.8628 -0.3396
vn 0.3743 0.8736 -0.3110
vn -0.8837 -0.3474 0.3137
vn -0.5229 -0.7361 0.4299
vn 0.9677 0.2313 -0.1006
vn 0.8470 0.3451 0.4043
vn 0.6263 0.0136 -0.7794
vn -0.5093 -0.8244 -0.2471
vn 0.0134 0.4352 0.9002
vn 0.8864 0.2173 0.4087
vn -0.9962 0.0840 -0.0235
vn 0.9992 0.0382 0.0106
vn -0.8705 -0.1326 -0.4740
vn -0.0146 -0.3652 -0.9308
vn 0.8726 -0.1544 -0.4635
vn -0.8566 0.2765 0.4356
vn -0.9113 0.2342 0.3386
vn 0.8924 0.2152 0.3967
vn 0.0118 0.4556 0.8901
vn -0.3638 -0.7750 0.5168
vn 0.2391 -0.8143 0.5290
vn 0.9951 0.0694 0.0711
vn 0.0105 0.9162 -0.4007
vn 0.9994 0.0237 -0.0251
vn -0.9974 0.0138 -0.0707
vn 0.9965 0.0246 0.0796
vn -0.8224 -0.1062 -0.5589
vn -0.0135 -0.3176 -0.9481
vn 0.8576 -0.1849 -0.4798
vn -0.9933 0.1128 -0.0234
vn 0.9998 -0.0174 -0.0130
vn -0.0657 -0.8754 0.4790
vn -0.8014 -0.2681 0.5346
vn -0.7011 -0.7088 0.0777
vn -0.7708 -0.6332 0.0695
vn -0.7164 -0.4593 0.5252
vn -0.0149 -0.2952 0.9553
vn -0.6070 -0.7207 -0.3348
vn 0.7709 -0.3197 0.5510
vn -0.0249 -0.5921 0.8055
vn 0.8783 0.1062 0.4662
vn -0.5110 0.1608 -0.8444
vn -0.3581 0.9324 -0.0492
vn 0.5981 -0.2267 0.7687
vn 0.7441 -0.6041 -0.2852
vn -0.7718 0.0526 -0.6337
vn -0.8692 -0.1537 -0.4699
vn -0.5068 0.3278 -0.7973
vn 0.8243 -0.2356 0.5148
vn 0.4888 0.6328 -0.6005
vn 0.3477 -0.0149 -0.9375
vn 0.9768 -0.1937 0.0917
vn -0.6066 0.0663 -0.7923
vn -0.8447 0.4553 -0.2814
vn -0.9908 0.1348 0.0076
vn 0.6654 -0.5606 0.4929
vn 0.8487 -0.4020 0.3438
vn -0.5259 -0.6055 0.5973
vn 0.5316 0.6576 -0.5339
vn 0.9637 -0.1998 0.1771
vn -0.5231 0.6877 -0.5034
vn -0.5101 0.6987 -0.5016
vn 0.9569 -0.1756 0.2313
vn 0.6780 -0.5068 0.5323
vn -0.9918 0.1265 0.0184
vn -0.8069 0.3993 0.4353
vn 0.8014 -0.1479 0.5796
vn -0.8418 -0.2321 -0.4873
vn 0.5571 -0.8262 -0.0834
vn 0.0212 0.3755 0.9266
vn -0.8184 0.2975 0.4915
vn 0.9985 0.0058 0.0550
vn -0.9907 0.1351 0.0178
vn 0.8553 -0.2311 -0.4638
vn -0.0198 -0.3953 -0.9183
vn -0.8405 -0.1110 -0.5303
vn 0.8759 0.1837 0.4462
vn 0.9271 0.1350 0.3496
vn -0.8716 0.2723 0.4076
vn 0.0246 0.4080 0.9126
vn 0.2916 -0.8299 0.4757
vn -0.3824 -0.7941 0.4724
vn -0.9853 0.1533 0.0749
vn 0.0690 0.9305 -0.3597
vn -0.9933 0.1132 -0.0236
vn 0.9998 -0.0166 -0.0133
usemtl color_1
s off
f 94//1 58//1 91//1
f 43//2 49//2 51//2
f 8//3 10//3 2//3
f 88//4 3//4 6//4
f 7//5 13//5 15//5
f 88//6 98//6 99//6
f 171//7 16//7 179//7
f 172//8 115//8 276//8
f 5//9 47//9 1//9
f 42//10 46//10 3//10
f 86//11 41//11 89//11
f 54//12 173//12 4//12
f 179//13 14//13 180//13
f 8//14 15//14 9//14
f 4//15 12//15 13//15
f 180//16 12//16 173//16
f 2//17 11//17 171//17
f 13//18 35//18 15//18
f 11//19 34//19 16//19
f 10//20 33//20 11//20
f 10//21 40//21 37//21
f 16//22 36//22 14//22
f 9//23 35//23 40//23
f 14//24 39//24 12//24
f 89//25 57//25 92//25
f 59//26 44//26 60//26
f 57//27 43//27 59//27
f 60//28 42//28 58//28
f 172//29 90//29 85//29
f 6//30 46//30 45//30
f 6//31 48//31 5//31
f 1//32 49//32 41//32
f 44//33 50//33 42//33
f 44//34 51//34 52//34
f 7//35 54//35 4//35
f 53//36 8//36 2//36
f 8//37 56//37 7//37
f 13//38 39//38 38//38
f 229//39 2//39 171//39
f 216//40 91//40 90//40
f 56//41 58//41 54//41
f 53//42 59//42 55//42
f 55//43 60//43 56//43
f 51//44 77//44 78//44
f 48//45 80//45 47//45
f 49//46 80//46 77//46
f 50//47 79//47 46//47
f 48//48 83//48 81//48
f 45//49 79//49 83//49
f 52//50 82//50 50//50
f 51//51 84//51 52//51
f 235//52 93//52 271//52
f 90//53 58//53 42//53
f 3//54 90//54 42//54
f 215//55 92//55 235//55
f 174//56 89//56 215//56
f 1//57 87//57 5//57
f 5//58 88//58 6//58
f 86//59 98//59 87//59
f 93//60 57//60 53//60
f 94//61 230//61 54//61
f 91//62 272//62 94//62
f 93//63 229//63 271//63
f 110//64 285//64 101//64
f 108//65 102//65 103//65
f 174//66 97//66 86//66
f 85//67 99//67 115//67
f 285//68 104//68 101//68
f 103//69 105//69 106//69
f 102//70 104//70 105//70
f 108//71 118//71 117//71
f 110//72 102//72 109//72
f 105//73 112//73 113//73
f 116//74 114//74 111//74
f 279//75 111//75 300//75
f 103//76 116//76 118//76
f 97//77 109//77 98//77
f 99//78 117//78 115//78
f 99//79 109//79 108//79
f 278//80 110//80 97//80
f 303//81 114//81 113//81
f 112//82 303//82 113//82
f 301//83 111//83 114//83
f 106//84 113//84 114//84
f 289//85 112//85 104//85
f 95//86 276//86 115//86
f 107//87 118//87 100//87
f 96//88 118//88 116//88
f 95//89 117//89 107//89
f 96//90 279//90 312//90
f 274//91 234//91 228//91
f 217//92 223//92 213//92
f 182//93 178//93 168//93
f 266//94 169//94 263//94
f 177//95 185//95 170//95
f 266//96 281//96 265//96
f 179//97 183//97 171//97
f 172//98 307//98 263//98
f 221//99 175//99 167//99
f 220//100 214//100 169//100
f 213//101 264//101 267//101
f 170//102 230//102 228//102
f 180//103 188//103 179//103
f 181//104 177//104 178//104
f 170//105 184//105 173//105
f 173//106 186//106 180//106
f 183//107 168//107 171//107
f 207//108 185//108 187//108
f 188//109 205//109 183//109
f 205//110 182//110 183//110
f 209//111 181//111 182//111
f 186//112 206//112 188//112
f 212//113 187//113 181//113
f 184//114 208//114 186//114
f 233//115 267//115 270//115
f 238//116 217//116 237//116
f 237//117 213//117 233//117
f 234//118 218//118 238//118
f 268//119 172//119 263//119
f 176//120 220//120 169//120
f 222//121 176//121 175//121
f 223//122 167//122 213//122
f 224//123 218//123 214//123
f 226//124 217//124 218//124
f 177//125 228//125 232//125
f 178//126 227//126 168//126
f 177//127 231//127 178//127
f 185//128 211//128 184//128
f 171//129 227//129 229//129
f 269//130 216//130 268//130
f 228//131 238//131 232//131
f 231//132 233//132 227//132
f 232//133 237//133 231//133
f 225//134 255//134 223//134
f 258//135 222//135 221//135
f 223//136 258//136 221//136
f 257//137 224//137 220//137
f 222//138 261//138 219//138
f 219//139 257//139 220//139
f 260//140 226//140 224//140
f 262//141 225//141 226//141
f 271//142 270//142 235//142
f 234//143 268//143 214//143
f 169//144 268//144 263//144
f 270//145 215//145 235//145
f 267//146 174//146 215//146
f 167//147 265//147 264//147
f 175//148 266//148 265//148
f 281//149 264//149 265//149
f 233//150 273//150 227//150
f 230//151 274//151 228//151
f 274//152 236//152 269//152
f 273//153 229//153 227//153
f 297//154 285//154 296//154
f 294//155 287//155 295//155
f 280//156 174//156 264//156
f 263//157 282//157 266//157
f 290//158 285//158 286//158
f 288//159 291//159 287//159
f 287//160 290//160 286//160
f 310//161 294//161 309//161
f 287//162 297//162 295//162
f 291//163 304//163 290//163
f 308//164 306//164 292//164
f 279//165 299//165 308//165
f 308//166 288//166 310//166
f 295//167 280//167 281//167
f 309//168 282//168 307//168
f 294//169 281//169 282//169
f 297//170 278//170 280//170
f 306//171 303//171 305//171
f 304//172 303//172 302//172
f 301//173 299//173 300//173
f 292//174 305//174 291//174
f 304//175 289//175 290//175
f 275//176 276//176 311//176
f 310//177 293//177 283//177
f 277//178 310//178 283//178
f 309//179 275//179 293//179
f 279//180 277//180 312//180
f 94//181 54//181 58//181
f 43//182 41//182 49//182
f 8//183 9//183 10//183
f 88//184 85//184 3//184
f 7//185 4//185 13//185
f 88//186 87//186 98//186
f 171//187 11//187 16//187
f 172//188 85//188 115//188
f 5//189 48//189 47//189
f 42//190 50//190 46//190
f 86//191 1//191 41//191
f 54//192 230//192 173//192
f 179//193 16//193 14//193
f 8//194 7//194 15//194
f 4//195 173//195 12//195
f 180//196 14//196 12//196
f 2//197 10//197 11//197
f 13//198 38//198 35//198
f 11//199 33//199 34//199
f 10//200 37//200 33//200
f 10//201 9//201 40//201
f 16//202 34//202 36//202
f 9//203 15//203 35//203
f 14//204 36//204 39//204
f 89//205 41//205 57//205
f 59//206 43//206 44//206
f 57//207 41//207 43//207
f 60//208 44//208 42//208
f 172//209 216//209 90//209
f 6//210 3//210 46//210
f 6//211 45//211 48//211
f 1//212 47//212 49//212
f 44//213 52//213 50//213
f 44//214 43//214 51//214
f 7//215 56//215 54//215
f 53//216 55//216 8//216
f 8//217 55//217 56//217
f 13//218 12//218 39//218
f 229//219 53//219 2//219
f 216//220 236//220 91//220
f 56//221 60//221 58//221
f 53//222 57//222 59//222
f 55//223 59//223 60//223
f 51//224 49//224 77//224
f 48//225 81//225 80//225
f 49//226 47//226 80//226
f 50//227 82//227 79//227
f 48//228 45//228 83//228
f 45//229 46//229 79//229
f 52//230 84//230 82//230
f 51//231 78//231 84//231
f 235//232 92//232 93//232
f 90//233 91//233 58//233
f 3//234 85//234 90//234
f 215//235 89//235 92//235
f 174//236 86//236 89//236
f 1//237 86//237 87//237
f 5//238 87//238 88//238
f 86//239 97//239 98//239
f 93//240 92//240 57//240
f 94//241 272//241 230//241
f 91//242 236//242 272//242
f 93//243 53//243 229//243
f 110//244 296//244 285//244
f 108//245 109//245 102//245
f 174//246 278//246 97//246
f 85//247 88//247 99//247
f 285//248 289//248 104//248
f 103//249 102//249 105//249
f 102//250 101//250 104//250
f 108//251 103//251 118//251
f 110//252 101//252 102//252
f 105//253 104//253 112//253
f 116//254 106//254 114//254
f 279//255 116//255 111//255
f 103//256 106//256 116//256
f 97//257 110//257 109//257
f 99//258 108//258 117//258
f 99//259 98//259 109//259
f 278//260 296//260 110//260
f 303//261 301//261 114//261
f 112//262 302//262 303//262
f 301//263 300//263 111//263
f 106//264 105//264 113//264
f 289//265 302//265 112//265
f 95//266 311//266 276//266
f 107//267 117//267 118//267
f 96//268 100//268 118//268
f 95//269 115//269 117//269
f 96//270 116//270 279//270
f 274//271 269//271 234//271
f 217//272 225//272 223//272
f 182//273 181//273 178//273
f 266//274 176//274 169//274
f 177//275 187//275 185//275
f 266//276 282//276 281//276
f 179//277 188//277 183//277
f 172//278 276//278 307//278
f 221//279 222//279 175//279
f 220//280 224//280 214//280
f 213//281 167//281 264//281
f 170//282 173//282 230//282
f 180//283 186//283 188//283
f 181//284 187//284 177//284
f 170//285 185//285 184//285
f 173//286 184//286 186//286
f 183//287 182//287 168//287
f 207//288 210//288 185//288
f 188//289 206//289 205//289
f 205//290 209//290 182//290
f 209//291 212//291 181//291
f 186//292 208//292 206//292
f 212//293 207//293 187//293
f 184//294 211//294 208//294
f 233//295 213//295 267//295
f 238//296 218//296 217//296
f 237//297 217//297 213//297
f 234//298 214//298 218//298
f 268//299 216//299 172//299
f 176//300 219//300 220//300
f 222//301 219//301 176//301
f 223//302 221//302 167//302
f 224//303 226//303 218//303
f 226//304 225//304 217//304
f 177//305 170//305 228//305
f 178//306 231//306 227//306
f 177//307 232//307 231//307
f 185//308 210//308 211//308
f 171//309 168//309 227//309
f 269//310 236//310 216//310
f 228//311 234//311 238//311
f 231//312 237//312 233//312
f 232//313 238//313 237//313
f 225//314 256//314 255//314
f 258//315 259//315 222//315
f 223//316 255//316 258//316
f 257//317 260//317 224//317
f 222//318 259//318 261//318
f 219//319 261//319 257//319
f 260//320 262//320 226//320
f 262//321 256//321 225//321
f 271//322 273//322 270//322
f 234//323 269//323 268//323
f 169//324 214//324 268//324
f 270//325 267//325 215//325
f 267//326 264//326 174//326
f 167//327 175//327 265//327
f 175//328 176//328 266//328
f 281//329 280//329 264//329
f 233//330 270//330 273//330
f 230//331 272//331 274//331
f 274//332 272//332 236//332
f 273//333 271//333 229//333
f 297//334 286//334 285//334
f 294//335 288//335 287//335
f 280//336 278//336 174//336
f 263//337 307//337 282//337
f 290//338 289//338 285//338
f 288//339 292//339 291//339
f 287//340 291//340 290//340
f 310//341 288//341 294//341
f 287//342 286//342 297//342
f 291//343 305//343 304//343
f 308//344 299//344 306//344
f 279//345 300//345 299//345
f 308//346 292//346 288//346
f 295//347 297//347 280//347
f 309//348 294//348 282//348
f 294//349 295//349 281//349
f 297//350 296//350 278//350
f 306//351 301//351 303//351
f 304//352 305//352 303//352
f 301//353 306//353 299//353
f 292//354 306//354 305//354
f 304//355 302//355 289//355
f 275//356 307//356 276//356
f 310//357 309//357 293//357
f 277//358 308//358 310//358
f 309//359 307//359 275//359
f 279//360 308//360 277//360
usemtl color_2
f 95//361 298//361 311//361
f 284//362 107//362 100//362
f 284//363 96//363 312//363
f 298//364 275//364 311//364
f 293//365 284//365 283//365
f 277//366 284//366 312//366
f 95//367 107//367 298//367
f 284//368 298//368 107//368
f 284//369 100//369 96//369
f 298//370 293//370 275//370
f 293//371 298//371 284//371
f 277//372 283//372 284//372
usemtl color_3
f 160//373 157//373 154//373
f 148//374 19//374 24//374
f 147//375 18//375 19//375
f 23//376 20//376 22//376
f 17//376 19//376 18//376
f 17//376 22//376 24//376
f 143//377 17//377 18//377
f 148//378 22//378 150//378
f 146//379 23//379 17//379
f 161//380 155//380 162//380
f 39//381 32//381 30//381
f 35//382 31//382 40//382
f 36//383 27//383 32//383
f 37//384 31//384 26//384
f 159//376 154//376 153//376
f 38//385 30//385 28//385
f 33//386 27//386 34//386
f 38//387 29//387 35//387
f 37//388 25//388 33//388
f 123//389 141//389 139//389
f 63//390 131//390 64//390
f 124//391 141//391 125//391
f 61//392 66//392 68//392
f 65//393 64//393 67//393
f 67//394 61//394 68//394
f 65//395 134//395 132//395
f 62//396 129//396 130//396
f 119//397 136//397 127//397
f 67//398 135//398 134//398
f 119//399 140//399 124//399
f 78//400 76//400 84//400
f 84//401 73//401 82//401
f 83//402 74//402 75//402
f 81//403 75//403 71//403
f 82//404 74//404 79//404
f 77//405 70//405 69//405
f 80//406 71//406 70//406
f 78//407 69//407 72//407
f 76//408 125//408 123//408
f 76//409 121//409 73//409
f 75//410 126//410 122//410
f 75//411 120//411 71//411
f 74//412 121//412 126//412
f 70//413 124//413 69//413
f 71//414 119//414 70//414
f 72//415 124//415 125//415
f 141//416 132//416 134//416
f 136//417 128//417 127//417
f 140//418 128//418 132//418
f 137//419 130//419 142//419
f 138//420 131//420 136//420
f 138//421 130//421 129//421
f 139//422 133//422 137//422
f 141//423 135//423 139//423
f 66//424 135//424 68//424
f 61//425 131//425 129//425
f 121//426 139//426 137//426
f 63//427 132//427 128//427
f 126//428 138//428 122//428
f 62//429 133//429 66//429
f 120//430 138//430 136//430
f 126//431 137//431 142//431
f 28//432 145//432 144//432
f 30//433 150//433 145//433
f 31//434 149//434 146//434
f 27//435 150//435 32//435
f 31//436 143//436 26//436
f 26//437 147//437 25//437
f 27//438 147//438 148//438
f 28//439 149//439 29//439
f 157//440 153//440 154//440
f 158//441 152//441 156//441
f 156//442 153//442 155//442
f 162//443 157//443 163//443
f 164//376 151//376 165//376
f 161//444 158//444 156//444
f 165//445 158//445 166//445
f 164//376 153//376 152//376
f 156//446 157//446 155//446
f 20//376 159//376 164//376
f 22//447 166//447 150//447
f 145//448 166//448 161//448
f 20//376 165//376 22//376
f 144//449 163//449 149//449
f 21//376 160//376 159//376
f 144//450 161//450 162//450
f 23//451 163//451 160//451
f 354//452 351//452 357//452
f 342//453 191//453 341//453
f 341//454 190//454 337//454
f 192//455 195//455 194//455
f 191//455 189//455 190//455
f 194//455 189//455 196//455
f 337//456 189//456 340//456
f 194//457 342//457 344//457
f 340//458 195//458 343//458
f 349//459 355//459 356//459
f 202//460 208//460 211//460
f 212//461 201//461 207//461
f 204//462 206//462 208//462
f 209//463 203//463 212//463
f 353//455 348//455 354//455
f 210//464 202//464 211//464
f 206//465 197//465 205//465
f 207//466 200//466 210//466
f 205//467 198//467 209//467
f 333//468 319//468 317//468
f 325//469 241//469 242//469
f 335//470 318//470 319//470
f 244//471 239//471 246//471
f 243//472 242//472 241//472
f 246//473 242//473 245//473
f 243//474 328//474 245//474
f 240//475 323//475 239//475
f 313//476 330//476 314//476
f 328//477 246//477 245//477
f 334//478 313//478 318//478
f 254//479 256//479 262//479
f 251//480 262//480 260//480
f 261//481 252//481 257//481
f 259//482 253//482 261//482
f 252//483 260//483 257//483
f 255//484 248//484 258//484
f 258//485 249//485 259//485
f 256//486 247//486 255//486
f 254//487 319//487 250//487
f 315//488 254//488 251//488
f 253//489 320//489 252//489
f 314//490 253//490 249//490
f 252//491 315//491 251//491
f 318//492 248//492 247//492
f 313//493 249//493 248//493
f 250//494 318//494 247//494
f 335//495 326//495 334//495
f 322//496 330//496 321//496
f 334//497 322//497 321//497
f 324//498 331//498 336//498
f 330//499 323//499 332//499
f 332//500 324//500 336//500
f 327//501 333//501 331//501
f 333//502 328//502 335//502
f 329//503 244//503 246//503
f 323//504 242//504 239//504
f 315//505 333//505 317//505
f 241//506 326//506 243//506
f 332//507 320//507 316//507
f 327//508 240//508 244//508
f 330//509 316//509 314//509
f 320//510 331//510 315//510
f 200//511 339//511 202//511
f 339//512 204//512 202//512
f 203//513 343//513 201//513
f 344//514 199//514 204//514
f 198//515 340//515 203//515
f 341//516 198//516 197//516
f 342//517 197//517 199//517
f 201//518 338//518 200//518
f 351//519 347//519 349//519
f 346//520 352//520 350//520
f 347//521 350//521 349//521
f 351//522 356//522 357//522
f 345//455 358//455 359//455
f 355//523 352//523 360//523
f 352//524 359//524 360//524
f 358//455 347//455 353//455
f 350//525 351//525 352//525
f 192//455 353//455 193//455
f 360//526 194//526 344//526
f 339//527 360//527 344//527
f 359//455 192//455 194//455
f 357//528 338//528 343//528
f 193//455 354//455 195//455
f 338//529 355//529 339//529
f 195//530 357//530 343//530
f 160//531 163//531 157//531
f 148//532 147//532 19//532
f 147//533 143//533 18//533
f 23//376 21//376 20//376
f 17//376 24//376 19//376
f 17//376 23//376 22//376
f 143//534 146//534 17//534
f 148//535 24//535 22//535
f 146//536 149//536 23//536
f 161//537 156//537 155//537
f 39//538 36//538 32//538
f 35//539 29//539 31//539
f 36//540 34//540 27//540
f 37//541 40//541 31//541
f 159//376 160//376 154//376
f 38//542 39//542 30//542
f 33//543 25//543 27//543
f 38//544 28//544 29//544
f 37//545 26//545 25//545
f 123//389 125//389 141//389
f 63//546 128//546 131//546
f 124//547 140//547 141//547
f 61//392 62//392 66//392
f 65//393 63//393 64//393
f 67//394 64//394 61//394
f 65//548 67//548 134//548
f 62//549 61//549 129//549
f 119//550 120//550 136//550
f 67//398 68//398 135//398
f 119//399 127//399 140//399
f 78//551 72//551 76//551
f 84//552 76//552 73//552
f 83//553 79//553 74//553
f 81//554 83//554 75//554
f 82//555 73//555 74//555
f 77//556 80//556 70//556
f 80//557 81//557 71//557
f 78//558 77//558 69//558
f 76//559 72//559 125//559
f 76//560 123//560 121//560
f 75//561 74//561 126//561
f 75//562 122//562 120//562
f 74//563 73//563 121//563
f 70//564 119//564 124//564
f 71//565 120//565 119//565
f 72//566 69//566 124//566
f 141//567 140//567 132//567
f 136//568 131//568 128//568
f 140//418 127//418 128//418
f 137//419 133//419 130//419
f 138//420 129//420 131//420
f 138//569 142//569 130//569
f 139//570 135//570 133//570
f 141//423 134//423 135//423
f 66//571 133//571 135//571
f 61//425 64//425 131//425
f 121//572 123//572 139//572
f 63//427 65//427 132//427
f 126//573 142//573 138//573
f 62//429 130//429 133//429
f 120//430 122//430 138//430
f 126//431 121//431 137//431
f 28//574 30//574 145//574
f 30//575 32//575 150//575
f 31//576 29//576 149//576
f 27//577 148//577 150//577
f 31//578 146//578 143//578
f 26//579 143//579 147//579
f 27//580 25//580 147//580
f 28//581 144//581 149//581
f 157//582 155//582 153//582
f 158//583 151//583 152//583
f 156//584 152//584 153//584
f 162//585 155//585 157//585
f 164//376 152//376 151//376
f 161//586 166//586 158//586
f 165//587 151//587 158//587
f 164//376 159//376 153//376
f 156//588 158//588 157//588
f 20//376 21//376 159//376
f 22//589 165//589 166//589
f 145//448 150//448 166//448
f 20//376 164//376 165//376
f 144//449 162//449 163//449
f 21//376 23//376 160//376
f 144//450 145//450 161//450
f 23//590 149//590 163//590
f 354//591 348//591 351//591
f 342//592 196//592 191//592
f 341//593 191//593 190//593
f 192//455 193//455 195//455
f 191//455 196//455 189//455
f 194//455 195//455 189//455
f 337//594 190//594 189//594
f 194//595 196//595 342//595
f 340//596 189//596 195//596
f 349//597 350//597 355//597
f 202//598 204//598 208//598
f 212//599 203//599 201//599
f 204//600 199//600 206//600
f 209//601 198//601 203//601
f 353//455 347//455 348//455
f 210//602 200//602 202//602
f 206//603 199//603 197//603
f 207//604 201//604 200//604
f 205//605 197//605 198//605
f 333//468 335//468 319//468
f 325//606 322//606 241//606
f 335//607 334//607 318//607
f 244//471 240//471 239//471
f 243//472 245//472 242//472
f 246//473 239//473 242//473
f 243//608 326//608 328//608
f 240//609 324//609 323//609
f 313//610 321//610 330//610
f 328//477 329//477 246//477
f 334//478 321//478 313//478
f 254//611 250//611 256//611
f 251//612 254//612 262//612
f 261//613 253//613 252//613
f 259//614 249//614 253//614
f 252//615 251//615 260//615
f 255//616 247//616 248//616
f 258//617 248//617 249//617
f 256//618 250//618 247//618
f 254//619 317//619 319//619
f 315//620 317//620 254//620
f 253//621 316//621 320//621
f 314//622 316//622 253//622
f 252//623 320//623 315//623
f 318//624 313//624 248//624
f 313//625 314//625 249//625
f 250//626 319//626 318//626
f 335//627 328//627 326//627
f 322//628 325//628 330//628
f 334//497 326//497 322//497
f 324//498 327//498 331//498
f 330//499 325//499 323//499
f 332//629 323//629 324//629
f 327//630 329//630 333//630
f 333//502 329//502 328//502
f 329//631 327//631 244//631
f 323//632 325//632 242//632
f 315//633 331//633 333//633
f 241//506 322//506 326//506
f 332//634 336//634 320//634
f 327//508 324//508 240//508
f 330//509 332//509 316//509
f 320//510 336//510 331//510
f 200//635 338//635 339//635
f 339//636 344//636 204//636
f 203//637 340//637 343//637
f 344//638 342//638 199//638
f 198//639 337//639 340//639
f 341//640 337//640 198//640
f 342//641 341//641 197//641
f 201//642 343//642 338//642
f 351//643 348//643 347//643
f 346//644 345//644 352//644
f 347//645 346//645 350//645
f 351//646 349//646 356//646
f 345//455 346//455 358//455
f 355//647 350//647 352//647
f 352//648 345//648 359//648
f 358//455 346//455 347//455
f 350//649 349//649 351//649
f 192//455 358//455 353//455
f 360//650 359//650 194//650
f 339//527 355//527 360//527
f 359//455 358//455 192//455
f 357//528 356//528 338//528
f 193//455 353//455 354//455
f 338//529 356//529 355//529
f 195//651 354//651 357//651
