# Blender v2.83.5 OBJ File: 'bio.blend'
# www.blender.org
mtllib bio_000007.mtl
o Cube
v -0.898324 -1.066417 -0.469067
v -0.681290 0.849576 -0.460935
v -0.722790 -1.061578 0.501506
v -0.665807 1.103320 0.438323
v -0.996251 -1.024300 -0.168544
v -0.942489 -1.010417 0.204471
v -0.857758 1.029531 0.162240
v -0.861842 0.919432 -0.192210
v -0.814533 1.210927 -0.212227
v -0.713642 1.157966 -0.382036
v -0.175582 1.166576 -0.323685
v -0.162526 1.265777 0.212037
v -0.707696 1.333486 0.175965
v -0.085004 1.210411 0.057246
v -0.812181 1.280339 0.008444
v -0.089387 1.191948 -0.130560
v -0.638558 3.734597 -0.879074
v -0.574515 3.706842 -0.989050
v -0.256986 3.704942 -0.992064
v -0.253612 3.795774 -0.629074
v -0.571149 3.797452 -0.626953
v -0.174926 3.767825 -0.739615
v -0.637227 3.770430 -0.735876
v -0.176257 3.731992 -0.882812
v -0.219125 2.442441 -0.731211
v -0.647287 2.455969 -0.729895
v -0.136295 2.481226 -0.585904
v -0.642842 2.578471 -0.269173
v -0.727646 2.541879 -0.407710
v -0.214665 2.565600 -0.269479
v -0.729402 2.493477 -0.589915
v -0.134658 2.526367 -0.416160
v -0.236754 2.331636 -0.680508
v -0.161749 2.371904 -0.547815
v -0.705815 2.431702 -0.385467
v -0.160141 2.418640 -0.393965
v -0.632073 2.342861 -0.679105
v -0.627688 2.470453 -0.259529
v -0.232360 2.459389 -0.259836
v -0.707550 2.381216 -0.551395
v -0.887705 -0.625958 -0.513826
v -0.764775 -0.573873 0.441842
v -0.930673 -0.619801 -0.299824
v -0.780523 -0.596330 0.039291
v -1.073696 -0.614921 0.159534
v -0.910652 -0.625300 0.275123
v -1.219440 -0.708842 -0.254378
v -1.201225 -0.653490 -0.049307
v -0.983589 -0.662039 -0.413325
v -0.678691 -0.578856 0.117527
v -0.851230 -0.598510 -0.287054
v -0.734751 -0.564392 -0.075277
v -0.709344 0.306797 -0.365888
v -0.686492 0.510785 0.602596
v -0.871936 0.327364 -0.087108
v -0.859227 0.417352 0.292203
v -0.746801 -0.431721 -0.482110
v -0.665640 -0.388299 0.483957
v -0.866831 -0.442821 -0.224936
v -0.814216 -0.419368 0.148631
v -1.192444 1.867235 0.987039
v -1.105381 1.804906 1.022245
v -1.315612 2.010056 0.822712
v -1.275583 1.948365 0.908130
v -1.170959 2.092768 0.755344
v -0.960727 1.887619 0.954877
v -1.064247 2.069206 0.809707
v -0.981108 1.988077 0.888616
v -1.151001 1.089688 -0.468342
v -1.387622 0.974458 -0.350084
v -1.341183 0.887123 -0.197598
v -0.996118 1.065564 -0.366068
v -0.813287 0.821847 -0.119773
v -1.050047 0.708702 -0.000741
v -1.207105 0.773268 -0.062758
v -0.862071 0.951495 -0.231953
v -1.117677 0.750619 -0.501821
v -0.991839 0.794600 -0.412666
v -1.053559 0.765710 0.029644
v -1.325444 0.726106 -0.366250
v -1.295275 0.759123 -0.212670
v -0.845788 0.789162 -0.107252
v -1.187948 0.776059 -0.057166
v -0.884314 0.810556 -0.255666
v -0.608447 -1.130108 0.566361
v -0.741830 -1.182294 -0.538093
v -0.831604 -1.154612 -0.295722
v -0.714385 -1.195278 0.207894
v -0.396232 -0.531837 -0.526711
v -0.309322 -0.519091 0.547845
v -0.256491 -0.297312 0.567739
v -0.323623 -0.314579 -0.511756
v -0.310215 0.058674 -0.460030
v -0.250119 0.112079 0.575887
v -0.247196 -1.373616 0.511228
v -0.404431 -2.388104 0.482749
v -0.550925 -1.371080 -0.595585
v -0.729554 -1.268092 -0.297791
v -0.611338 -1.271043 0.215394
v -0.426992 -2.153845 0.510560
v -0.539318 -2.194020 -0.537908
v -0.720710 -2.155208 -0.299940
v -0.665409 -2.155208 0.272038
v -0.504574 -2.431938 -0.417302
v -0.661855 -2.431938 -0.235033
v -0.611067 -2.431938 0.236850
v -0.426511 -1.766800 0.509041
v -0.660070 -1.764590 0.286439
v -0.711270 -1.764590 -0.331111
v -0.536161 -1.845915 -0.605875
v -0.378971 -2.528036 0.449384
v -0.421141 -2.528036 -0.205395
v -0.534915 -2.528036 -0.147088
v -0.490930 -2.528036 0.225353
v -0.447008 -1.258646 0.469739
v -0.452881 -2.431938 0.454265
v -0.479070 -1.764590 0.484246
v -0.479522 -2.155208 0.486612
v -1.344930 1.863827 0.640567
v -1.298866 1.788808 0.743821
v -0.919636 1.717099 0.798954
v -1.199232 1.691581 0.838385
v -0.945968 1.836398 0.720435
v -1.171577 1.962950 0.559833
v -1.045602 1.933624 0.625871
v -1.092990 1.617976 0.879688
v -1.382202 1.901398 0.657130
v -1.373326 1.971005 0.736719
v -1.208053 1.771440 0.947171
v -1.092137 1.696611 1.003600
v -1.319254 1.879953 0.841628
v -1.179848 2.081635 0.646612
v -0.898659 1.807242 0.913493
v -1.036587 2.041582 0.709985
v -0.925387 1.933068 0.815527
v -1.328122 1.805336 0.767383
v -0.888020 1.730903 0.841172
v -1.212349 1.692361 0.877264
v -0.918061 1.860635 0.740209
v -1.180769 2.016577 0.563318
v -1.033834 1.973610 0.630327
v -1.089452 1.615724 0.934983
v -0.590111 3.438855 -0.933316
v -0.587101 3.357464 -0.493959
v -0.245771 3.353184 -0.495627
v -0.658051 3.468266 -0.816779
v -0.248790 3.434338 -0.935930
v -0.167621 3.463364 -0.818781
v -0.657198 3.328831 -0.609380
v -0.166793 3.323256 -0.614070
v -0.230134 3.933837 -0.077073
v -0.288146 3.961670 0.033300
v -0.523323 3.962883 0.034756
v -0.572526 3.935766 -0.074305
v -0.534659 3.780095 0.092085
v -0.281863 3.776314 0.091133
v -0.586854 3.751361 -0.023481
v -0.223653 3.746503 -0.027143
v -0.570164 3.823991 -0.520895
v -0.636242 3.796969 -0.629819
v -0.244216 3.560502 -0.446072
v -0.585546 3.564782 -0.444404
v -0.655643 3.536149 -0.559825
v -0.252626 3.822313 -0.523017
v -0.173940 3.794364 -0.633558
v -0.165238 3.530575 -0.564515
v 0.869386 -1.062000 -0.522483
v 0.646099 1.278904 -0.293295
v 0.753082 -1.065779 0.456317
v 0.688958 0.661058 0.380098
v -0.027988 1.130752 -0.402638
v 0.038675 -1.133203 0.569571
v 0.020948 1.043768 0.431219
v -0.044192 -1.194655 -0.654735
v 0.987997 -1.021698 -0.215229
v 0.951093 -1.014284 0.162792
v 0.860763 0.854300 0.186614
v 0.844805 1.121537 -0.070001
v -0.016874 1.199120 -0.121740
v -0.002331 1.132441 0.215840
v 0.778215 1.262105 0.187049
v 0.668404 1.382226 0.063239
v 0.134071 1.288784 -0.062124
v 0.158305 0.965589 0.393012
v 0.693291 0.956175 0.463313
v 0.068432 1.084560 0.226536
v 0.788057 1.093616 0.345266
v 0.060317 1.184232 0.069668
v 0.639263 2.867125 0.203800
v 0.572224 2.797353 0.116606
v 0.256145 2.823615 0.101008
v 0.263698 3.073066 0.379822
v 0.579759 3.046191 0.394734
v 0.182072 3.004213 0.291581
v 0.642242 2.965532 0.313791
v 0.179092 2.905806 0.181590
v 0.085957 1.935944 0.949212
v 0.513137 1.922444 0.962624
v 0.009128 1.981817 1.053884
v 0.525637 2.076449 1.308704
v 0.605030 2.024026 1.207274
v 0.098556 2.081498 1.296345
v 0.600127 1.962124 1.070174
v 0.013705 2.038366 1.181646
v 0.098386 2.045057 0.982498
v 0.030457 1.977437 1.076661
v 0.580031 1.933790 1.214387
v 0.036787 1.897383 1.187599
v 0.491545 2.078973 1.000679
v 0.508798 1.857611 1.303627
v 0.115671 1.827029 1.285944
v 0.573177 2.021955 1.094773
v 0.862664 -0.583836 -0.609698
v 0.792179 -0.583992 0.343506
v -0.040824 -0.452422 -0.567336
v 0.040634 -0.452422 0.567341
v 0.917102 -0.604098 -0.347611
v 0.779616 -0.601384 0.009439
v 1.074870 -0.622358 0.128083
v 0.917189 -0.642441 0.249686
v 1.204986 -0.690999 -0.296335
v 1.194169 -0.646557 -0.087698
v 0.962340 -0.642673 -0.444412
v 0.678357 -0.593327 0.102941
v 0.833933 -0.588332 -0.309256
v 0.725885 -0.567865 -0.091288
v 0.699757 0.765089 -0.660848
v 0.752615 0.270341 0.122889
v -0.031350 0.524728 -0.514321
v 0.037770 0.485167 0.478748
v 0.889057 0.612998 -0.459336
v 0.900955 0.398122 -0.160217
v 0.721290 -0.338634 -0.645033
v 0.707295 -0.407251 0.302238
v -0.040129 -0.281774 -0.558540
v 0.040070 -0.281774 0.558542
v 0.864279 -0.372294 -0.402906
v 0.831075 -0.401402 -0.038627
v 1.152122 1.618333 1.207028
v 1.068165 1.547204 1.231444
v 1.265423 1.795225 1.071221
v 1.230131 1.716417 1.143665
v 1.116211 1.884484 1.025690
v 0.918953 1.636463 1.185913
v 1.012136 1.846823 1.077146
v 0.934127 1.748739 1.140508
v 1.083879 1.137408 -0.372997
v 1.327871 1.012877 -0.286342
v 1.289465 0.899181 -0.153525
v 0.933600 1.091942 -0.273798
v 0.766929 0.805220 -0.075737
v 1.011049 0.682942 0.012094
v 1.163636 0.759249 -0.040519
v 0.807781 0.951875 -0.161645
v 1.057000 0.782355 -0.454511
v 0.934034 0.816708 -0.358715
v 1.015440 0.761531 0.072601
v 1.270946 0.754917 -0.330842
v 1.246557 0.776717 -0.175797
v 0.801463 0.787961 -0.052725
v 1.145648 0.780937 -0.017269
v 0.832996 0.819592 -0.198628
v 0.650938 -1.132962 0.518638
v 0.699082 -1.179762 -0.593166
v 0.813823 -1.152604 -0.344258
v 0.726183 -1.196880 0.165641
v 0.329469 -0.530085 -0.571731
v 0.376377 -0.522753 0.490075
v 0.331167 -0.312128 0.446389
v 0.255478 -0.294385 -0.574965
v -0.033055 0.137851 -0.546891
v 0.041239 0.107196 0.521863
v 0.255096 0.185426 -0.614911
v 0.328338 0.055437 0.369067
v 0.312317 -1.373616 0.474795
v 0.037963 -1.218642 0.552673
v 0.472985 -2.388104 0.415808
v -0.046806 -1.370538 -0.674219
v 0.039282 -2.472605 0.514882
v 0.481536 -1.370063 -0.652085
v 0.706659 -1.266973 -0.349923
v 0.625939 -1.272130 0.171631
v 0.498366 -2.153845 0.441298
v 0.041876 -2.155208 0.548879
v -0.044828 -2.194020 -0.587578
v 0.454195 -2.194020 -0.611683
v 0.670142 -2.155208 -0.400910
v 0.698092 -2.155208 0.172503
v -0.035444 -2.431938 -0.464572
v 0.435719 -2.431938 -0.488784
v 0.619290 -2.431938 -0.331471
v 0.639807 -2.431938 0.142103
v 0.494442 -1.766800 0.443826
v 0.693003 -1.764590 0.195639
v 0.662113 -1.764590 -0.422117
v -0.049338 -1.845915 -0.653512
v 0.445552 -1.845915 -0.675780
v 0.041989 -1.764590 0.552110
v 0.442758 -2.528036 0.386692
v 0.037498 -2.568703 0.491496
v 0.013445 -2.568703 0.176233
v -0.018602 -2.568703 -0.243819
v -0.003997 -2.568703 -0.052395
v 0.385108 -2.528036 -0.266906
v 0.506410 -2.528036 -0.226534
v 0.519435 -2.528036 0.148269
v 0.495394 -1.259588 0.420130
v 0.516553 -2.431938 0.380304
v 0.542449 -1.764590 0.412607
v 0.546475 -2.155208 0.410188
v 0.036654 -1.372371 0.528912
v 0.039744 -2.427410 0.520941
v 1.292847 1.689221 0.862822
v 1.252520 1.593602 0.950240
v 0.877638 1.498961 1.000269
v 1.159034 1.476058 1.026174
v 0.897789 1.632336 0.946457
v 1.114032 1.796190 0.808258
v 0.991275 1.749880 0.870523
v 1.056453 1.391993 1.054833
v 1.329539 1.724053 0.885528
v 1.321320 1.776105 0.977623
v 1.169179 1.532980 1.148429
v 1.057482 1.444370 1.191925
v 1.273518 1.664171 1.063679
v 1.121745 1.895492 0.916724
v 0.857907 1.563757 1.131027
v 0.981944 1.838592 0.974708
v 0.877605 1.707401 1.059457
v 1.282058 1.606149 0.975820
v 0.847074 1.502974 1.045239
v 1.173429 1.469565 1.064053
v 0.869867 1.651157 0.971424
v 1.121759 1.848348 0.822126
v 0.978496 1.787741 0.883191
v 1.054854 1.378679 1.108641
v 0.560699 2.586109 0.290984
v 0.551423 2.719599 0.717317
v 0.211432 2.746594 0.702978
v 0.631813 2.660037 0.383384
v 0.220688 2.612454 0.275920
v 0.143435 2.700105 0.362553
v 0.617710 2.634121 0.631548
v 0.129276 2.672343 0.608652
v 0.256927 3.454044 0.803048
v 0.317974 3.524627 0.890296
v 0.552055 3.504643 0.901252
v 0.597741 3.425396 0.819498
v 0.544977 3.369498 1.037308
v 0.293111 3.389085 1.027224
v 0.593445 3.285518 0.950680
v 0.231628 3.313097 0.933895
v 0.581966 3.119074 0.476197
v 0.644449 3.038415 0.395254
v 0.231226 2.952247 0.650517
v 0.571218 2.925251 0.664855
v 0.637505 2.839774 0.579087
v 0.265905 3.145949 0.461285
v 0.184278 3.077097 0.373044
v 0.149071 2.877995 0.556190
vn -0.1971 -0.0164 0.9803
vn 0.2125 -0.9440 0.2523
vn -0.8214 0.0589 -0.5672
vn -0.6000 -0.7344 0.3173
vn -0.8311 0.3925 0.3939
vn -0.5934 -0.7940 0.1321
vn -0.0676 0.9700 -0.2334
vn -0.1502 -0.1906 0.9701
vn -0.7819 -0.5996 -0.1707
vn -0.7548 0.0152 0.6558
vn -0.0329 0.0349 -0.9988
vn 0.0330 0.2659 0.9634
vn 0.5184 0.8429 0.1442
vn -0.9868 0.1575 -0.0390
vn 0.0505 0.7547 0.6541
vn 0.6174 0.7487 0.2415
vn -0.2216 0.6630 -0.7150
vn -0.8564 0.2362 0.4592
vn 0.9140 -0.0843 -0.3969
vn 0.1078 -0.2860 -0.9522
vn -0.8674 -0.0640 -0.4934
vn 0.9983 0.0515 -0.0284
vn -0.9961 0.0865 -0.0159
vn 0.9027 0.2028 0.3795
vn -0.0972 0.1007 -0.9902
vn -0.9498 -0.2741 0.1510
vn -0.8174 0.4481 -0.3621
vn -0.8582 0.3801 0.3450
vn -0.0048 0.0326 0.9995
vn -0.5797 -0.1004 0.8086
vn -0.8465 -0.5133 0.1411
vn -0.7127 -0.0539 -0.6994
vn 0.1314 -0.9901 0.0501
vn 0.3797 -0.9192 -0.1045
vn -0.8297 0.1759 0.5298
vn -0.8352 -0.0527 -0.5474
vn -0.9999 0.0045 0.0101
vn 0.0107 0.3570 0.9340
vn 0.0098 0.1812 -0.9834
vn -0.0403 -0.0797 0.9960
vn -0.8592 -0.0865 0.5042
vn -0.8580 0.0850 -0.5067
vn -0.9969 -0.0619 0.0481
vn 0.5814 -0.0147 -0.8135
vn -0.9923 -0.0651 0.1057
vn -0.5350 -0.1033 -0.8385
vn 0.5229 0.2000 0.8286
vn -0.8235 0.0108 0.5672
vn -0.5358 0.0868 0.8399
vn 0.9592 0.0722 -0.2735
vn 0.8736 0.0313 -0.4856
vn -0.3071 0.0316 -0.9511
vn -0.2132 -0.1065 0.9712
vn -0.2367 0.0979 0.9666
vn -0.1684 0.0514 -0.9844
vn -0.1384 0.1164 -0.9835
vn -0.6698 -0.7336 -0.1154
vn -0.6262 -0.7705 0.1189
vn -0.7309 -0.6537 -0.1961
vn -0.1309 0.1606 -0.9783
vn 0.1715 0.1222 0.9776
vn 0.0321 -0.0204 0.9993
vn -0.3190 0.0809 -0.9443
vn -0.0981 -0.1898 -0.9769
vn -0.9953 0.0101 0.0962
vn -0.1611 0.1349 -0.9777
vn -0.4561 -0.8245 0.3349
vn -0.0887 -0.4606 -0.8831
vn -0.9733 -0.2044 0.1048
vn -0.7223 -0.2998 -0.6233
vn -0.7377 0.0049 0.6751
vn -0.8460 -0.0221 -0.5327
vn -0.2630 -0.8170 -0.5132
vn -0.7291 -0.5793 0.3644
vn -0.1203 -0.2326 0.9651
vn -0.7475 -0.1477 0.6476
vn -0.8571 0.0030 -0.5152
vn -0.8395 0.0687 0.5390
vn -0.9906 0.1096 0.0821
vn -0.1541 0.0166 -0.9879
vn -0.0780 -0.9969 0.0092
vn -0.0564 -0.9923 -0.1100
vn -0.0766 -0.9963 0.0383
vn -0.6187 -0.7822 0.0731
vn -0.0403 -0.9159 -0.3995
vn -0.1727 0.0548 0.9835
vn -0.4149 0.0041 0.9099
vn -0.4012 -0.1444 0.9046
vn -0.4131 0.1834 0.8920
vn -0.0965 -0.1313 0.9866
vn 0.4101 0.2076 0.8881
vn 0.5752 0.8161 -0.0564
vn 0.7487 0.6228 -0.2273
vn 0.6379 -0.7224 0.2668
vn 0.8146 -0.1685 0.5550
vn 0.7265 -0.6840 0.0655
vn -0.4426 0.8751 -0.1955
vn 0.0626 -0.6596 0.7490
vn 0.7872 -0.5727 -0.2288
vn 0.6328 0.1275 0.7638
vn -0.0718 -0.0080 -0.9974
vn 0.2603 -0.5009 0.8254
vn -0.3093 0.9303 0.1971
vn 0.9699 0.1962 0.1440
vn 0.4980 0.8670 0.0161
vn 0.5085 0.8142 0.2802
vn -0.1444 0.9220 -0.3592
vn 0.8721 -0.2306 0.4316
vn -0.9125 0.3160 -0.2599
vn -0.0040 0.8099 -0.5865
vn 0.8244 0.5175 -0.2291
vn -0.9983 -0.0571 0.0154
vn 0.9840 0.1490 0.0975
vn -0.9084 -0.3335 0.2521
vn -0.1542 -0.0619 -0.9861
vn 0.9635 0.2452 0.1074
vn 0.8104 0.4064 -0.4221
vn 0.9289 -0.1586 0.3346
vn 0.0826 0.0836 0.9931
vn 0.8321 -0.0531 0.5520
vn 0.8587 -0.5038 0.0937
vn 0.8393 -0.0861 -0.5368
vn -0.0304 -0.9981 0.0531
vn -0.2200 -0.9724 -0.0773
vn 0.9018 -0.2083 0.3785
vn 0.8066 0.3973 -0.4377
vn 0.9971 0.0747 0.0158
vn -0.1063 -0.6896 0.7164
vn -0.2490 0.1769 -0.9522
vn 0.2666 0.2503 0.9307
vn 0.8871 -0.0074 0.4615
vn 0.7305 0.0045 -0.6829
vn 0.9978 -0.0285 -0.0602
vn -0.7157 0.0426 -0.6971
vn 0.9972 -0.0440 0.0611
vn 0.5140 -0.0439 -0.8566
vn -0.4967 0.1427 0.8561
vn 0.8754 0.0059 0.4833
vn 0.6050 0.0578 0.7941
vn -0.9714 0.0607 -0.2297
vn -0.8941 0.0345 -0.4465
vn -0.0542 0.0286 -0.9981
vn 0.3568 0.3715 0.8571
vn 0.3980 0.2208 0.8904
vn -0.0532 0.0516 -0.9972
vn 0.0127 0.1169 -0.9931
vn 0.6118 -0.7657 -0.1985
vn 0.5860 -0.8097 0.0304
vn 0.7116 -0.6540 -0.2567
vn -0.0822 -0.0159 -0.9965
vn 0.4654 0.0899 0.8805
vn 0.3702 0.1940 0.9085
vn -0.2260 0.0966 -0.9693
vn -0.0442 -0.1865 -0.9815
vn 0.9986 0.0160 -0.0499
vn 0.0764 0.2142 -0.9738
vn 0.5891 -0.7638 0.2639
vn -0.0429 -0.4559 -0.8890
vn 0.9802 -0.1921 -0.0478
vn 0.6807 -0.3772 -0.6280
vn 0.8216 0.0049 0.5701
vn 0.7634 -0.0194 -0.6456
vn 0.2802 -0.9025 -0.3270
vn 0.6025 -0.7347 0.3118
vn 0.2802 -0.1522 0.9478
vn 0.8338 -0.1476 0.5319
vn 0.7992 0.0156 -0.6008
vn 0.8843 0.0755 0.4607
vn 0.9782 0.1407 0.1528
vn 0.0418 0.0465 -0.9980
vn 0.0785 -0.9969 -0.0027
vn 0.0998 -0.9950 -0.0076
vn 0.0979 -0.9952 -0.0075
vn 0.6331 -0.7736 -0.0274
vn -0.0206 -0.9157 -0.4013
vn 0.1898 -0.1516 0.9701
vn 0.5452 0.0001 0.8383
vn 0.5340 -0.1484 0.8323
vn 0.5304 0.1804 0.8283
vn 0.2450 -0.1313 0.9606
vn -0.0600 -0.1320 0.9894
vn -0.4546 0.8830 -0.1167
vn -0.8414 0.1001 -0.5311
vn -0.6125 -0.7258 0.3130
vn -0.8048 0.3766 0.4589
vn -0.7373 -0.6652 0.1179
vn 0.1354 0.9727 -0.1882
vn -0.0068 -0.6063 0.7952
vn -0.8239 -0.5245 0.2147
vn -0.2481 0.9654 -0.0807
vn -0.4510 -0.0795 -0.8890
vn 0.1709 0.0886 0.9813
vn -0.0865 0.9917 -0.0955
vn -0.9870 0.1565 -0.0372
vn 0.0703 0.7296 0.6802
vn 0.6385 0.7683 0.0449
vn 0.1002 0.2565 -0.9614
vn -0.8566 0.2360 0.4588
vn 0.8788 -0.0970 -0.4673
vn -0.0103 -0.2425 -0.9701
vn -0.8666 -0.0642 -0.4949
vn 0.9983 0.0520 -0.0262
vn -0.9961 0.0864 -0.0166
vn 0.8861 0.2095 0.4134
vn -0.0652 0.2067 -0.9762
vn -0.9064 0.1619 0.3901
vn -0.7833 0.5967 -0.1744
vn -0.9750 -0.2167 0.0502
vn -0.0563 0.0034 0.9984
vn -0.8067 -0.0415 0.5895
vn -0.8167 -0.2099 0.5375
vn -0.5584 -0.0034 -0.8296
vn 0.2798 -0.9479 -0.1525
vn 0.2567 -0.9664 0.0145
vn -0.8819 0.0999 0.4607
vn -0.8638 -0.0737 -0.4984
vn -0.9994 0.0221 0.0283
vn -0.0160 0.3668 0.9302
vn -0.1610 -0.1622 -0.9735
vn 0.0283 0.0516 0.9983
vn -0.9036 -0.1192 0.4114
vn -0.9024 0.1113 -0.4164
vn -0.9894 -0.0319 0.1414
vn 0.6852 0.0194 -0.7281
vn -0.9786 -0.0419 0.2012
vn -0.5414 -0.1050 -0.8342
vn 0.5232 0.2000 0.8284
vn -0.8543 0.0108 0.5197
vn -0.5726 0.0851 0.8154
vn 0.9678 0.0737 -0.2406
vn 0.8231 0.0320 -0.5670
vn -0.1771 0.1413 -0.9740
vn -0.1914 -0.0424 0.9806
vn -0.3817 0.2141 0.8992
vn -0.1379 0.1138 -0.9839
vn -0.1622 0.1034 -0.9813
vn -0.6295 -0.7632 -0.1460
vn -0.5848 -0.8081 0.0709
vn -0.7187 -0.6656 -0.2009
vn -0.1078 0.1403 -0.9842
vn 0.1830 0.1131 0.9766
vn 0.1830 0.0917 0.9788
vn -0.2192 0.0175 -0.9755
vn -0.0957 -0.1864 -0.9778
vn -0.9961 0.0307 0.0826
vn -0.1533 0.1110 -0.9819
vn -0.5780 -0.7556 0.3082
vn -0.0890 -0.4602 -0.8833
vn -0.9780 -0.1858 0.0946
vn -0.7654 -0.3764 -0.5220
vn -0.7558 -0.0138 0.6547
vn -0.7991 -0.1082 -0.5914
vn -0.3258 -0.9027 -0.2811
vn -0.5490 -0.7342 0.3995
vn -0.1332 -0.1522 0.9793
vn -0.7874 -0.2275 0.5729
vn -0.8452 -0.0147 -0.5343
vn -0.7273 0.1676 0.6655
vn -0.9733 -0.0509 0.2239
vn -0.0973 -0.0428 -0.9943
vn -0.0798 -0.9968 0.0061
vn -0.0998 -0.9950 0.0076
vn -0.0979 -0.9952 0.0075
vn -0.6317 -0.7722 0.0680
vn -0.1347 -0.8469 -0.5144
vn -0.0608 -0.1520 0.9865
vn -0.4264 0.0060 0.9045
vn -0.4072 -0.1463 0.9015
vn -0.1812 0.0397 0.9826
vn -0.1451 -0.4214 0.8952
vn 0.3932 0.1922 0.8991
vn -0.0069 -0.9300 0.3674
vn 0.7920 0.5983 -0.1220
vn 0.6074 -0.7437 0.2792
vn 0.8326 -0.1073 0.5434
vn 0.6014 -0.7944 0.0852
vn -0.5708 0.7682 0.2900
vn 0.2576 -0.1895 0.9475
vn 0.8430 -0.5155 0.1535
vn 0.3028 0.9360 -0.1796
vn 0.4669 -0.1523 -0.8711
vn 0.1260 0.0879 0.9881
vn 0.4477 0.7650 0.4629
vn 0.9693 0.1960 0.1485
vn -0.1302 -0.2673 0.9548
vn 0.5327 0.7978 0.2826
vn -0.1038 0.9570 -0.2708
vn 0.8501 -0.2554 0.4606
vn -0.8561 0.3933 -0.3352
vn -0.0411 0.7982 -0.6010
vn 0.7579 0.5743 -0.3095
vn -0.9982 -0.0573 0.0156
vn 0.9828 0.1711 0.0698
vn -0.8305 -0.4201 0.3656
vn -0.0890 -0.1921 -0.9773
vn 0.9220 -0.1516 0.3562
vn 0.9665 0.1756 -0.1872
vn 0.9051 0.4216 -0.0560
vn 0.2248 0.0025 0.9744
vn 0.6158 -0.1256 0.7778
vn 0.8424 -0.2226 0.4907
vn 0.5265 0.0414 -0.8492
vn -0.2466 -0.9513 -0.1850
vn -0.3810 -0.9189 -0.1026
vn 0.8258 -0.2101 0.5234
vn 0.7987 0.4081 -0.4423
vn 0.9970 0.0763 0.0152
vn 0.0247 -0.7189 0.6947
vn 0.0040 0.5821 -0.8131
vn 0.3635 0.0492 0.9303
vn 0.9394 0.0276 0.3416
vn 0.8568 -0.0509 -0.5131
vn 0.9937 -0.0740 0.0847
vn -0.6117 0.0157 -0.7909
vn 0.9869 -0.0265 0.1590
vn 0.4963 -0.0391 -0.8673
vn -0.4874 0.1406 0.8618
vn 0.8436 0.0022 0.5369
vn 0.5613 0.0572 0.8256
vn -0.9783 0.0602 -0.1984
vn -0.8446 0.0414 -0.5338
vn -0.2163 -0.0812 -0.9730
vn 0.4031 0.2680 0.8750
vn 0.3509 0.1864 0.9177
vn -0.0158 -0.0187 -0.9997
vn 0.0807 0.0787 -0.9936
vn 0.6667 -0.7275 -0.1620
vn 0.6290 -0.7736 0.0766
vn 0.6744 -0.6881 -0.2677
vn -0.1559 -0.0821 -0.9844
vn 0.4818 0.1037 0.8701
vn 0.4796 0.0809 0.8737
vn -0.2418 0.0825 -0.9668
vn -0.0474 -0.1820 -0.9821
vn 0.9987 0.0179 -0.0487
vn 0.0415 0.1094 -0.9931
vn 0.4835 -0.8239 0.2956
vn -0.0456 -0.4602 -0.8866
vn 0.9786 -0.2015 -0.0424
vn 0.6215 -0.2962 -0.7253
vn 0.8429 -0.0209 0.5377
vn 0.7043 -0.1116 -0.7011
vn 0.1829 -0.8151 -0.5497
vn 0.7760 -0.5793 0.2496
vn 0.2653 -0.2326 0.9357
vn 0.8641 -0.2311 0.4471
vn 0.7643 -0.0257 -0.6443
vn 0.8137 0.1383 0.5646
vn 0.9954 -0.0819 -0.0498
vn -0.0449 -0.0432 -0.9981
vn 0.0798 -0.9968 -0.0061
vn 0.0390 -0.9923 -0.1173
vn 0.0815 -0.9963 0.0262
vn 0.6231 -0.7819 -0.0217
vn 0.0551 -0.8469 -0.5289
vn 0.2793 0.0119 0.9601
vn 0.5430 0.0004 0.8397
vn 0.5314 -0.1475 0.8342
vn 0.2794 0.0117 0.9601
vn 0.2792 -0.4214 0.8628
vn -0.0623 0.0581 0.9964
vn -0.0814 0.0040 0.9967
vn -0.0941 -0.1009 0.9904
vn 0.1925 0.0605 0.9794
vn 0.2294 -0.0040 0.9733
vn 0.2433 -0.1009 0.9647
vn -0.0917 0.0363 0.9951
vn -0.0915 -0.0082 0.9958
vn -0.0812 -0.1252 0.9888
vn 0.2328 0.0313 0.9720
vn 0.2327 -0.0081 0.9725
vn 0.2278 -0.1297 0.9650
vn -0.9909 0.1013 0.0883
vn 0.8122 -0.1104 -0.5728
vn -0.0105 -0.2034 -0.9790
vn 0.0035 0.9701 -0.2428
vn -0.8686 -0.0519 -0.4927
vn 0.9997 0.0213 0.0105
vn -0.9974 0.0710 -0.0085
vn -0.0098 -0.9277 0.3732
vn 0.8623 -0.0986 0.4967
vn -0.9835 -0.1701 0.0621
vn 0.9742 -0.2203 0.0492
vn -0.8551 -0.3037 -0.4202
vn 0.0034 0.0894 0.9960
vn 0.8603 -0.3344 -0.3848
vn -0.8403 -0.0577 0.5390
vn -0.0150 -0.4141 -0.9101
vn 0.6317 -0.1002 -0.7687
vn -0.8737 0.0939 0.4772
vn 0.4575 -0.0356 -0.8885
vn 0.0656 0.5587 0.8268
vn -0.1483 0.7674 0.6238
vn -0.0420 0.6741 0.7374
vn 0.3170 0.9405 -0.1222
vn -0.5328 -0.2065 0.8207
vn -0.7382 -0.6444 -0.1994
vn 0.7001 0.7140 -0.0036
vn -0.4164 -0.0123 -0.9091
vn 0.8262 -0.0358 -0.5622
vn 0.6297 -0.7290 -0.2685
vn 0.2992 -0.1735 -0.9383
vn -0.7948 -0.3439 0.4999
vn -0.5516 0.3656 -0.7497
vn -0.4629 0.0419 -0.8854
vn -0.9570 -0.2493 0.1487
vn 0.5609 0.1489 -0.8144
vn 0.8042 0.4691 -0.3650
vn 0.9599 0.2481 -0.1307
vn -0.6059 -0.5545 0.5704
vn -0.7957 -0.4192 0.4372
vn 0.5896 -0.5473 0.5940
vn -0.5709 0.6201 -0.5381
vn -0.9655 -0.1717 0.1957
vn 0.4583 0.6801 -0.5723
vn 0.4456 0.6885 -0.5721
vn -0.9374 -0.2035 0.2825
vn -0.5934 0.6375 -0.4914
vn 0.5856 -0.5130 0.6276
vn -0.8035 -0.3692 0.4670
vn -0.6183 -0.5014 0.6052
vn 0.9811 0.1864 -0.0524
vn 0.8045 0.4653 -0.3692
vn 0.8487 0.4002 0.3458
vn -0.7519 -0.1451 0.6431
vn 0.8137 -0.2278 -0.5348
vn -0.5119 0.8578 -0.0460
vn -0.5199 -0.8394 -0.1586
vn 0.4643 -0.0948 0.8806
vn -0.5916 -0.7850 -0.1838
vn 0.4720 -0.8791 -0.0660
vn 0.0082 0.2767 0.9609
vn 0.8388 0.1806 0.5137
vn -0.9942 0.0874 0.0629
vn 0.9992 0.0356 -0.0191
vn -0.8674 -0.0520 -0.4949
vn -0.0094 -0.2024 -0.9793
vn 0.8294 -0.1037 -0.5490
vn -0.8584 0.1981 0.4731
vn -0.9132 0.1727 0.3691
vn 0.9012 0.1566 0.4041
vn 0.0081 0.2988 0.9543
vn -0.2807 -0.8778 0.3882
vn 0.3101 -0.8745 0.3730
vn 0.9948 0.0553 0.0859
vn 0.0136 0.9689 -0.2470
vn 0.9988 0.0043 -0.0494
vn 0.8063 -0.1432 0.5739
vn -0.8346 -0.1221 0.5372
vn 0.0018 -0.2325 0.9726
vn -0.9974 0.0719 -0.0087
vn 0.9965 0.0353 0.0758
vn -0.8362 -0.2597 -0.4830
vn -0.0151 -0.6360 -0.7715
vn 0.0944 0.7407 -0.6652
vn 0.8563 -0.3556 -0.3745
vn -0.9923 0.1158 -0.0440
vn 0.9983 -0.0217 0.0545
vn -0.0832 -0.6431 0.7612
vn -0.8042 -0.0782 0.5892
vn 0.9259 -0.2768 -0.2571
vn -0.9845 -0.1638 -0.0620
vn -0.8008 -0.2435 0.5472
vn -0.0415 -0.0436 0.9982
vn 0.2740 -0.8639 -0.4227
vn 0.8098 -0.0758 0.5817
vn -0.0242 -0.2393 0.9706
vn -0.6541 0.0321 -0.7557
vn 0.8862 0.0281 0.4624
vn -0.4860 0.1254 -0.8649
vn -0.0540 0.3806 0.9232
vn 0.1467 0.6330 0.7601
vn 0.0471 0.5153 0.8557
vn -0.3307 0.9435 0.0217
vn 0.5492 -0.3956 0.7361
vn 0.6365 -0.6492 -0.4165
vn -0.7205 0.6752 0.1581
vn 0.3856 0.1833 -0.9043
vn -0.8457 -0.0120 -0.5335
vn -0.2863 -0.9217 -0.2617
vn -0.5325 0.5348 -0.6560
vn -0.8383 -0.1268 -0.5302
vn 0.4789 0.5186 -0.7083
vn 0.5037 0.0377 -0.8630
vn 0.9143 -0.3556 0.1938
vn -0.5587 0.2255 -0.7981
vn -0.8125 0.5222 -0.2593
vn -0.9696 0.2385 -0.0540
vn 0.5190 -0.7172 0.4651
vn 0.8186 -0.4734 0.3252
vn -0.5249 -0.6897 0.4987
vn 0.5267 0.7366 -0.4243
vn 0.9757 -0.1747 0.1326
vn -0.5018 0.7608 -0.4115
vn -0.4944 0.7780 -0.3878
vn 0.9520 -0.2222 0.2105
vn 0.5575 0.7431 -0.3702
vn -0.5488 -0.6479 0.5283
vn 0.8293 -0.4258 0.3618
vn 0.6424 -0.6115 0.4620
vn -0.9873 0.1582 0.0126
vn -0.8298 0.5005 -0.2468
vn -0.8479 0.2932 0.4417
vn 0.7772 -0.2432 0.5804
vn -0.7169 -0.1650 -0.6774
vn 0.4847 0.8675 0.1122
vn 0.5386 -0.7722 -0.3371
vn -0.4313 -0.2842 0.8563
vn 0.6078 -0.7114 -0.3529
vn -0.4479 -0.8647 -0.2273
vn -0.0137 0.6670 0.7450
vn -0.7804 0.4848 0.3950
vn 0.9991 -0.0382 -0.0185
vn -0.9880 0.1515 -0.0317
vn 0.7628 -0.4708 -0.4433
vn -0.0000 -0.7054 -0.7088
vn -0.8268 -0.3021 -0.4745
vn 0.8141 0.3751 0.4434
vn 0.9276 0.2398 0.2865
vn -0.8787 0.4093 0.2456
vn 0.0269 0.7085 0.7052
vn 0.1915 -0.6172 0.7631
vn -0.3263 -0.5836 0.7436
vn -0.9836 0.1805 0.0071
vn 0.0874 0.7435 -0.6630
vn -0.9934 0.0729 -0.0891
vn -0.8141 0.2159 0.5391
vn 0.8203 0.0660 0.5682
vn -0.0211 0.2490 0.9683
vn 0.9941 -0.1037 -0.0314
vn -0.9913 0.0974 0.0881
vn 0.8289 -0.0894 -0.5522
vn -0.0102 -0.2030 -0.9791
vn -0.8684 -0.0518 -0.4932
vn 0.9995 0.0282 -0.0164
vn -0.9974 0.0573 0.0426
vn -0.0125 -0.9282 0.3720
vn 0.8626 -0.1020 0.4954
vn -0.9814 -0.1828 0.0580
vn 0.9765 -0.2088 0.0532
vn -0.8566 -0.3086 -0.4135
vn 0.0033 0.0899 0.9959
vn 0.8572 -0.3208 -0.4030
vn -0.8424 -0.0705 0.5343
vn -0.0158 -0.4114 -0.9113
vn 0.6317 -0.1003 -0.7687
vn -0.8466 0.0997 0.5229
vn 0.4433 0.1336 -0.8864
vn 0.2975 0.9381 -0.1774
vn -0.5146 -0.2566 0.8181
vn -0.6241 -0.7377 -0.2575
vn 0.7523 0.1232 -0.6472
vn 0.8866 -0.0628 -0.4582
vn 0.5134 0.4281 -0.7438
vn 0.1412 -0.9899 0.0104
vn 0.5526 -0.2442 0.7969
vn -0.5381 -0.0801 -0.8391
vn -0.9009 -0.3529 0.2528
vn 0.5409 0.1351 -0.8301
vn 0.7900 0.4804 -0.3810
vn 0.9829 0.1700 -0.0714
vn -0.4952 -0.6163 0.6124
vn -0.8058 -0.4113 0.4261
vn 0.5699 -0.5546 0.6064
vn -0.5934 0.6115 -0.5234
vn -0.9402 -0.2239 0.2567
vn 0.4771 0.6745 -0.5634
vn 0.4557 0.6991 -0.5510
vn -0.9305 -0.1967 0.3089
vn -0.6075 -0.5255 0.5957
vn 0.9849 0.1623 -0.0603
vn 0.8195 0.4502 0.3547
vn 0.7036 -0.2758 -0.6549
vn -0.5289 -0.8487 -0.0007
vn 0.0090 0.2763 0.9610
vn 0.8844 0.1458 0.4434
vn -0.9962 0.0858 -0.0132
vn 0.9991 0.0369 0.0212
vn -0.8683 -0.0512 -0.4933
vn -0.0102 -0.2021 -0.9793
vn 0.8747 -0.0727 -0.4792
vn -0.8588 0.1978 0.4725
vn -0.9131 0.1725 0.3695
vn 0.8904 0.1457 0.4312
vn 0.0074 0.2981 0.9545
vn -0.3645 -0.8517 0.3764
vn 0.2384 -0.8919 0.3843
vn 0.9946 0.0573 0.0861
vn 0.0106 0.9708 -0.2395
vn 0.9995 0.0287 -0.0165
vn -0.9971 0.0246 -0.0716
vn 0.9965 0.0390 0.0742
vn -0.8219 -0.2893 -0.4908
vn -0.0148 -0.6364 -0.7712
vn 0.8566 -0.3555 -0.3741
vn -0.9915 0.1094 -0.0710
vn 0.9994 -0.0335 0.0029
vn -0.0806 -0.6444 0.7605
vn -0.7811 -0.1019 0.6161
vn -0.8414 -0.4806 0.2471
vn -0.5382 -0.7634 0.3572
vn -0.5614 -0.5182 0.6452
vn -0.0292 -0.0209 0.9994
vn 0.7123 -0.2778 0.6446
vn 0.7383 -0.1528 0.6569
vn -0.0391 -0.2875 0.9570
vn 0.8604 0.0239 0.5090
vn -0.4767 0.2912 -0.8294
vn -0.3484 0.9342 0.0767
vn 0.5660 -0.3463 0.7481
vn 0.7496 -0.5654 -0.3441
vn -0.7625 0.1896 -0.6186
vn -0.8786 -0.0343 -0.4763
vn -0.4781 0.4266 -0.7678
vn 0.8134 -0.3671 0.4512
vn 0.4488 0.8936 -0.0033
vn 0.4076 0.1749 -0.8963
vn 0.9698 -0.2286 0.0847
vn -0.5842 0.2384 -0.7758
vn -0.8295 0.5035 -0.2418
vn -0.9893 0.1458 -0.0092
vn 0.6411 -0.6357 0.4300
vn 0.8314 -0.4595 0.3124
vn -0.5532 -0.6775 0.4848
vn 0.5571 0.7230 -0.4085
vn 0.9545 -0.2370 0.1811
vn -0.4974 0.7627 -0.4134
vn -0.4847 0.7722 -0.4108
vn 0.9458 -0.2210 0.2379
vn 0.6529 -0.5894 0.4758
vn -0.9907 0.1360 0.0002
vn -0.8199 0.3414 0.4596
vn -0.8242 -0.1458 -0.5472
vn 0.5532 -0.8123 -0.1845
vn 0.0226 0.6762 0.7364
vn -0.8161 0.4623 0.3469
vn 0.9983 0.0117 0.0580
vn -0.9885 0.1459 -0.0404
vn 0.8526 -0.4007 -0.3356
vn -0.0239 -0.7103 -0.7035
vn -0.8409 -0.2884 -0.4580
vn 0.8769 0.3202 0.3586
vn 0.9277 0.2398 0.2860
vn -0.8689 0.4114 0.2752
vn 0.0274 0.7079 0.7057
vn 0.2775 -0.6076 0.7442
vn -0.3960 -0.5669 0.7224
vn -0.9832 0.1823 0.0063
vn 0.0842 0.7386 -0.6689
vn -0.9914 0.1097 -0.0713
vn 0.9995 -0.0328 0.0023
usemtl color_1
s off
f 94//1 58//1 91//1
f 43//2 49//2 51//2
f 8//3 10//3 2//3
f 88//4 3//4 6//4
f 7//5 13//5 15//5
f 88//6 98//6 99//6
f 171//7 16//7 179//7
f 172//8 115//8 276//8
f 5//9 47//9 1//9
f 42//10 46//10 3//10
f 86//11 41//11 89//11
f 54//12 173//12 4//12
f 179//13 14//13 180//13
f 8//14 15//14 9//14
f 4//15 12//15 13//15
f 180//16 12//16 173//16
f 2//17 11//17 171//17
f 13//18 35//18 15//18
f 11//19 34//19 16//19
f 10//20 33//20 11//20
f 10//21 40//21 37//21
f 16//22 36//22 14//22
f 9//23 35//23 40//23
f 14//24 39//24 12//24
f 89//25 57//25 92//25
f 59//26 44//26 60//26
f 57//27 43//27 59//27
f 60//28 42//28 58//28
f 172//29 90//29 85//29
f 6//30 46//30 45//30
f 6//31 48//31 5//31
f 1//32 49//32 41//32
f 44//33 50//33 42//33
f 43//34 52//34 44//34
f 7//35 54//35 4//35
f 53//36 8//36 2//36
f 8//37 56//37 7//37
f 13//38 39//38 38//38
f 229//39 2//39 171//39
f 216//40 91//40 90//40
f 56//41 58//41 54//41
f 53//42 59//42 55//42
f 55//43 60//43 56//43
f 51//44 77//44 78//44
f 48//45 80//45 47//45
f 49//46 80//46 77//46
f 50//47 79//47 46//47
f 48//48 83//48 81//48
f 45//49 79//49 83//49
f 52//50 82//50 50//50
f 51//51 84//51 52//51
f 235//52 93//52 271//52
f 90//53 58//53 42//53
f 3//54 90//54 42//54
f 215//55 92//55 235//55
f 174//56 89//56 215//56
f 1//57 87//57 5//57
f 5//58 88//58 6//58
f 86//59 98//59 87//59
f 93//60 57//60 53//60
f 94//61 230//61 54//61
f 236//62 94//62 91//62
f 93//63 229//63 271//63
f 110//64 285//64 101//64
f 108//65 102//65 103//65
f 174//66 97//66 86//66
f 85//67 99//67 115//67
f 285//68 104//68 101//68
f 103//69 105//69 106//69
f 102//70 104//70 105//70
f 108//71 118//71 117//71
f 110//72 102//72 109//72
f 105//73 112//73 113//73
f 116//74 114//74 111//74
f 279//75 111//75 300//75
f 103//76 116//76 118//76
f 97//77 109//77 98//77
f 99//78 117//78 115//78
f 99//79 109//79 108//79
f 278//80 110//80 97//80
f 303//81 114//81 113//81
f 112//82 303//82 113//82
f 301//83 111//83 114//83
f 106//84 113//84 114//84
f 289//85 112//85 104//85
f 95//86 276//86 115//86
f 107//87 118//87 100//87
f 96//88 118//88 116//88
f 95//89 117//89 107//89
f 96//90 279//90 312//90
f 274//91 234//91 228//91
f 217//92 223//92 213//92
f 182//93 178//93 168//93
f 266//94 169//94 263//94
f 177//95 185//95 170//95
f 266//96 281//96 265//96
f 179//97 183//97 171//97
f 172//98 307//98 263//98
f 221//99 175//99 167//99
f 220//100 214//100 169//100
f 213//101 264//101 267//101
f 170//102 230//102 228//102
f 180//103 188//103 179//103
f 181//104 177//104 178//104
f 170//105 184//105 173//105
f 173//106 186//106 180//106
f 183//107 168//107 171//107
f 207//108 185//108 187//108
f 188//109 205//109 183//109
f 205//110 182//110 183//110
f 209//111 181//111 182//111
f 186//112 206//112 188//112
f 212//113 187//113 181//113
f 184//114 208//114 186//114
f 233//115 267//115 270//115
f 238//116 217//116 237//116
f 237//117 213//117 233//117
f 234//118 218//118 238//118
f 268//119 172//119 263//119
f 176//120 220//120 169//120
f 222//121 176//121 175//121
f 223//122 167//122 213//122
f 224//123 218//123 214//123
f 218//124 225//124 217//124
f 177//125 228//125 232//125
f 178//126 227//126 168//126
f 177//127 231//127 178//127
f 210//128 184//128 185//128
f 171//129 227//129 229//129
f 269//130 216//130 268//130
f 228//131 238//131 232//131
f 231//132 233//132 227//132
f 232//133 237//133 231//133
f 225//134 255//134 223//134
f 258//135 222//135 221//135
f 223//136 258//136 221//136
f 257//137 224//137 220//137
f 222//138 261//138 219//138
f 219//139 257//139 220//139
f 260//140 226//140 224//140
f 262//141 225//141 226//141
f 271//142 270//142 235//142
f 234//143 268//143 214//143
f 169//144 268//144 263//144
f 270//145 215//145 235//145
f 267//146 174//146 215//146
f 167//147 265//147 264//147
f 175//148 266//148 265//148
f 281//149 264//149 265//149
f 233//150 273//150 227//150
f 230//151 274//151 228//151
f 274//152 236//152 269//152
f 273//153 229//153 227//153
f 297//154 285//154 296//154
f 288//155 295//155 294//155
f 280//156 174//156 264//156
f 263//157 282//157 266//157
f 290//158 285//158 286//158
f 288//159 291//159 287//159
f 287//160 290//160 286//160
f 310//161 294//161 309//161
f 287//162 297//162 295//162
f 291//163 304//163 290//163
f 308//164 306//164 292//164
f 279//165 299//165 308//165
f 308//166 288//166 310//166
f 295//167 280//167 281//167
f 309//168 282//168 307//168
f 294//169 281//169 282//169
f 297//170 278//170 280//170
f 306//171 303//171 305//171
f 304//172 303//172 302//172
f 301//173 299//173 300//173
f 292//174 305//174 291//174
f 304//175 289//175 290//175
f 275//176 276//176 311//176
f 283//177 309//177 293//177
f 277//178 310//178 283//178
f 309//179 275//179 293//179
f 279//180 277//180 312//180
f 94//181 54//181 58//181
f 43//182 41//182 49//182
f 8//183 9//183 10//183
f 88//184 85//184 3//184
f 7//185 4//185 13//185
f 88//186 87//186 98//186
f 171//187 11//187 16//187
f 172//188 85//188 115//188
f 5//189 48//189 47//189
f 42//190 50//190 46//190
f 86//191 1//191 41//191
f 54//192 230//192 173//192
f 179//193 16//193 14//193
f 8//194 7//194 15//194
f 4//195 173//195 12//195
f 180//196 14//196 12//196
f 2//197 10//197 11//197
f 13//198 38//198 35//198
f 11//199 33//199 34//199
f 10//200 37//200 33//200
f 10//201 9//201 40//201
f 16//202 34//202 36//202
f 9//203 15//203 35//203
f 14//204 36//204 39//204
f 89//205 41//205 57//205
f 59//206 43//206 44//206
f 57//207 41//207 43//207
f 60//208 44//208 42//208
f 172//209 216//209 90//209
f 6//210 3//210 46//210
f 6//211 45//211 48//211
f 1//212 47//212 49//212
f 44//213 52//213 50//213
f 43//214 51//214 52//214
f 7//215 56//215 54//215
f 53//216 55//216 8//216
f 8//217 55//217 56//217
f 13//218 12//218 39//218
f 229//219 53//219 2//219
f 216//220 236//220 91//220
f 56//221 60//221 58//221
f 53//222 57//222 59//222
f 55//223 59//223 60//223
f 51//224 49//224 77//224
f 48//225 81//225 80//225
f 49//226 47//226 80//226
f 50//227 82//227 79//227
f 48//228 45//228 83//228
f 45//229 46//229 79//229
f 52//230 84//230 82//230
f 51//231 78//231 84//231
f 235//232 92//232 93//232
f 90//233 91//233 58//233
f 3//234 85//234 90//234
f 215//235 89//235 92//235
f 174//236 86//236 89//236
f 1//237 86//237 87//237
f 5//238 87//238 88//238
f 86//239 97//239 98//239
f 93//240 92//240 57//240
f 94//241 272//241 230//241
f 236//242 272//242 94//242
f 93//243 53//243 229//243
f 110//244 296//244 285//244
f 108//245 109//245 102//245
f 174//246 278//246 97//246
f 85//247 88//247 99//247
f 285//248 289//248 104//248
f 103//249 102//249 105//249
f 102//250 101//250 104//250
f 108//251 103//251 118//251
f 110//252 101//252 102//252
f 105//253 104//253 112//253
f 116//254 106//254 114//254
f 279//255 116//255 111//255
f 103//256 106//256 116//256
f 97//257 110//257 109//257
f 99//258 108//258 117//258
f 99//259 98//259 109//259
f 278//260 296//260 110//260
f 303//261 301//261 114//261
f 112//262 302//262 303//262
f 301//263 300//263 111//263
f 106//264 105//264 113//264
f 289//265 302//265 112//265
f 95//266 311//266 276//266
f 107//267 117//267 118//267
f 96//268 100//268 118//268
f 95//269 115//269 117//269
f 96//270 116//270 279//270
f 274//271 269//271 234//271
f 217//272 225//272 223//272
f 182//273 181//273 178//273
f 266//274 176//274 169//274
f 177//275 187//275 185//275
f 266//276 282//276 281//276
f 179//277 188//277 183//277
f 172//278 276//278 307//278
f 221//279 222//279 175//279
f 220//280 224//280 214//280
f 213//281 167//281 264//281
f 170//282 173//282 230//282
f 180//283 186//283 188//283
f 181//284 187//284 177//284
f 170//285 185//285 184//285
f 173//286 184//286 186//286
f 183//287 182//287 168//287
f 207//288 210//288 185//288
f 188//289 206//289 205//289
f 205//290 209//290 182//290
f 209//291 212//291 181//291
f 186//292 208//292 206//292
f 212//293 207//293 187//293
f 184//294 211//294 208//294
f 233//295 213//295 267//295
f 238//296 218//296 217//296
f 237//297 217//297 213//297
f 234//298 214//298 218//298
f 268//299 216//299 172//299
f 176//300 219//300 220//300
f 222//301 219//301 176//301
f 223//302 221//302 167//302
f 224//303 226//303 218//303
f 218//304 226//304 225//304
f 177//305 170//305 228//305
f 178//306 231//306 227//306
f 177//307 232//307 231//307
f 210//308 211//308 184//308
f 171//309 168//309 227//309
f 269//310 236//310 216//310
f 228//311 234//311 238//311
f 231//312 237//312 233//312
f 232//313 238//313 237//313
f 225//314 256//314 255//314
f 258//315 259//315 222//315
f 223//316 255//316 258//316
f 257//317 260//317 224//317
f 222//318 259//318 261//318
f 219//319 261//319 257//319
f 260//320 262//320 226//320
f 262//321 256//321 225//321
f 271//322 273//322 270//322
f 234//323 269//323 268//323
f 169//324 214//324 268//324
f 270//325 267//325 215//325
f 267//326 264//326 174//326
f 167//327 175//327 265//327
f 175//328 176//328 266//328
f 281//329 280//329 264//329
f 233//330 270//330 273//330
f 230//331 272//331 274//331
f 274//332 272//332 236//332
f 273//333 271//333 229//333
f 297//334 286//334 285//334
f 288//335 287//335 295//335
f 280//336 278//336 174//336
f 263//337 307//337 282//337
f 290//338 289//338 285//338
f 288//339 292//339 291//339
f 287//340 291//340 290//340
f 310//341 288//341 294//341
f 287//342 286//342 297//342
f 291//343 305//343 304//343
f 308//344 299//344 306//344
f 279//345 300//345 299//345
f 308//346 292//346 288//346
f 295//347 297//347 280//347
f 309//348 294//348 282//348
f 294//349 295//349 281//349
f 297//350 296//350 278//350
f 306//351 301//351 303//351
f 304//352 305//352 303//352
f 301//353 306//353 299//353
f 292//354 306//354 305//354
f 304//355 302//355 289//355
f 275//356 307//356 276//356
f 283//357 310//357 309//357
f 277//358 308//358 310//358
f 309//359 307//359 275//359
f 279//360 308//360 277//360
usemtl color_2
f 95//361 298//361 311//361
f 284//362 107//362 100//362
f 284//363 96//363 312//363
f 298//364 275//364 311//364
f 293//365 284//365 283//365
f 277//366 284//366 312//366
f 95//367 107//367 298//367
f 284//368 298//368 107//368
f 284//369 100//369 96//369
f 298//370 293//370 275//370
f 293//371 298//371 284//371
f 277//372 283//372 284//372
usemtl color_3
f 160//373 157//373 154//373
f 148//374 19//374 24//374
f 147//375 18//375 19//375
f 23//376 20//376 22//376
f 17//376 19//376 18//376
f 17//376 22//376 24//376
f 143//377 17//377 18//377
f 148//378 22//378 150//378
f 146//379 23//379 17//379
f 161//380 155//380 162//380
f 39//381 32//381 30//381
f 35//382 31//382 40//382
f 36//383 27//383 32//383
f 37//384 31//384 26//384
f 159//376 154//376 153//376
f 38//385 30//385 28//385
f 33//386 27//386 34//386
f 38//387 29//387 35//387
f 37//388 25//388 33//388
f 125//389 139//389 123//389
f 63//390 131//390 64//390
f 124//391 141//391 125//391
f 61//392 66//392 68//392
f 65//393 64//393 67//393
f 64//394 68//394 67//394
f 65//395 134//395 132//395
f 62//396 129//396 130//396
f 119//397 136//397 127//397
f 67//398 135//398 134//398
f 119//399 140//399 124//399
f 78//400 76//400 84//400
f 84//401 73//401 82//401
f 83//402 74//402 75//402
f 81//403 75//403 71//403
f 79//404 73//404 74//404
f 77//405 70//405 69//405
f 80//406 71//406 70//406
f 78//407 69//407 72//407
f 76//408 125//408 123//408
f 76//409 121//409 73//409
f 75//410 126//410 122//410
f 75//411 120//411 71//411
f 74//412 121//412 126//412
f 70//413 124//413 69//413
f 71//414 119//414 70//414
f 72//415 124//415 125//415
f 141//416 132//416 134//416
f 136//417 128//417 127//417
f 140//418 128//418 132//418
f 137//419 130//419 142//419
f 138//420 131//420 136//420
f 138//421 130//421 129//421
f 139//422 133//422 137//422
f 141//423 135//423 139//423
f 66//424 135//424 68//424
f 64//425 129//425 61//425
f 121//426 139//426 137//426
f 63//427 132//427 128//427
f 126//428 138//428 122//428
f 62//429 133//429 66//429
f 120//430 138//430 136//430
f 126//431 137//431 142//431
f 28//432 145//432 144//432
f 30//433 150//433 145//433
f 31//434 149//434 146//434
f 27//435 150//435 32//435
f 31//436 143//436 26//436
f 26//437 147//437 25//437
f 27//438 147//438 148//438
f 28//439 149//439 29//439
f 157//440 153//440 154//440
f 158//441 152//441 156//441
f 156//442 153//442 155//442
f 162//443 157//443 163//443
f 164//376 151//376 165//376
f 161//444 158//444 156//444
f 165//445 158//445 166//445
f 164//376 153//376 152//376
f 156//446 157//446 155//446
f 20//376 159//376 164//376
f 22//447 166//447 150//447
f 145//448 166//448 161//448
f 20//376 165//376 22//376
f 144//449 163//449 149//449
f 21//376 160//376 159//376
f 144//450 161//450 162//450
f 23//451 163//451 160//451
f 354//452 351//452 357//452
f 342//453 191//453 341//453
f 341//454 190//454 337//454
f 192//455 195//455 194//455
f 191//455 189//455 190//455
f 194//455 189//455 196//455
f 337//456 189//456 340//456
f 194//457 342//457 344//457
f 340//458 195//458 343//458
f 349//459 355//459 356//459
f 202//460 208//460 211//460
f 212//461 201//461 207//461
f 204//462 206//462 208//462
f 198//463 212//463 209//463
f 353//455 348//455 354//455
f 210//464 202//464 211//464
f 199//465 205//465 206//465
f 207//466 200//466 210//466
f 205//467 198//467 209//467
f 333//468 319//468 317//468
f 325//469 241//469 242//469
f 335//470 318//470 319//470
f 244//471 239//471 246//471
f 243//472 242//472 241//472
f 245//473 239//473 242//473
f 243//474 328//474 245//474
f 240//475 323//475 239//475
f 313//476 330//476 314//476
f 328//477 246//477 245//477
f 334//478 313//478 318//478
f 254//479 256//479 262//479
f 251//480 262//480 260//480
f 261//481 252//481 257//481
f 259//482 253//482 261//482
f 252//483 260//483 257//483
f 255//484 248//484 258//484
f 258//485 249//485 259//485
f 256//486 247//486 255//486
f 254//487 319//487 250//487
f 315//488 254//488 251//488
f 253//489 320//489 252//489
f 314//490 253//490 249//490
f 252//491 315//491 251//491
f 318//492 248//492 247//492
f 313//493 249//493 248//493
f 250//494 318//494 247//494
f 335//495 326//495 334//495
f 322//496 330//496 321//496
f 334//497 322//497 321//497
f 324//498 331//498 336//498
f 330//499 323//499 332//499
f 332//500 324//500 336//500
f 327//501 333//501 331//501
f 329//502 335//502 333//502
f 329//503 244//503 246//503
f 323//504 242//504 239//504
f 315//505 333//505 317//505
f 241//506 326//506 243//506
f 332//507 320//507 316//507
f 327//508 240//508 244//508
f 314//509 332//509 316//509
f 320//510 331//510 315//510
f 200//511 339//511 202//511
f 339//512 204//512 202//512
f 203//513 343//513 201//513
f 344//514 199//514 204//514
f 198//515 340//515 203//515
f 341//516 198//516 197//516
f 342//517 197//517 199//517
f 201//518 338//518 200//518
f 351//519 347//519 349//519
f 346//520 352//520 350//520
f 347//521 350//521 349//521
f 351//522 356//522 357//522
f 345//455 358//455 359//455
f 355//523 352//523 360//523
f 352//524 359//524 360//524
f 358//455 347//455 353//455
f 350//525 351//525 352//525
f 192//455 353//455 193//455
f 360//526 194//526 344//526
f 339//527 360//527 344//527
f 359//455 192//455 194//455
f 357//528 338//528 343//528
f 193//455 354//455 195//455
f 338//529 355//529 339//529
f 195//530 357//530 343//530
f 160//531 163//531 157//531
f 148//532 147//532 19//532
f 147//533 143//533 18//533
f 23//376 21//376 20//376
f 17//376 24//376 19//376
f 17//376 23//376 22//376
f 143//534 146//534 17//534
f 148//535 24//535 22//535
f 146//536 149//536 23//536
f 161//537 156//537 155//537
f 39//538 36//538 32//538
f 35//539 29//539 31//539
f 36//540 34//540 27//540
f 37//541 40//541 31//541
f 159//376 160//376 154//376
f 38//542 39//542 30//542
f 33//543 25//543 27//543
f 38//544 28//544 29//544
f 37//545 26//545 25//545
f 125//546 141//546 139//546
f 63//547 128//547 131//547
f 124//548 140//548 141//548
f 61//392 62//392 66//392
f 65//393 63//393 64//393
f 64//394 61//394 68//394
f 65//549 67//549 134//549
f 62//550 61//550 129//550
f 119//551 120//551 136//551
f 67//398 68//398 135//398
f 119//399 127//399 140//399
f 78//552 72//552 76//552
f 84//553 76//553 73//553
f 83//554 79//554 74//554
f 81//555 83//555 75//555
f 79//556 82//556 73//556
f 77//557 80//557 70//557
f 80//558 81//558 71//558
f 78//559 77//559 69//559
f 76//560 72//560 125//560
f 76//561 123//561 121//561
f 75//562 74//562 126//562
f 75//563 122//563 120//563
f 74//564 73//564 121//564
f 70//565 119//565 124//565
f 71//566 120//566 119//566
f 72//567 69//567 124//567
f 141//568 140//568 132//568
f 136//569 131//569 128//569
f 140//418 127//418 128//418
f 137//419 133//419 130//419
f 138//420 129//420 131//420
f 138//570 142//570 130//570
f 139//571 135//571 133//571
f 141//423 134//423 135//423
f 66//572 133//572 135//572
f 64//425 131//425 129//425
f 121//573 123//573 139//573
f 63//427 65//427 132//427
f 126//574 142//574 138//574
f 62//429 130//429 133//429
f 120//430 122//430 138//430
f 126//431 121//431 137//431
f 28//575 30//575 145//575
f 30//576 32//576 150//576
f 31//577 29//577 149//577
f 27//578 148//578 150//578
f 31//579 146//579 143//579
f 26//580 143//580 147//580
f 27//581 25//581 147//581
f 28//582 144//582 149//582
f 157//583 155//583 153//583
f 158//584 151//584 152//584
f 156//585 152//585 153//585
f 162//586 155//586 157//586
f 164//376 152//376 151//376
f 161//587 166//587 158//587
f 165//588 151//588 158//588
f 164//376 159//376 153//376
f 156//589 158//589 157//589
f 20//376 21//376 159//376
f 22//590 165//590 166//590
f 145//448 150//448 166//448
f 20//376 164//376 165//376
f 144//449 162//449 163//449
f 21//376 23//376 160//376
f 144//450 145//450 161//450
f 23//591 149//591 163//591
f 354//592 348//592 351//592
f 342//593 196//593 191//593
f 341//594 191//594 190//594
f 192//455 193//455 195//455
f 191//455 196//455 189//455
f 194//455 195//455 189//455
f 337//595 190//595 189//595
f 194//596 196//596 342//596
f 340//597 189//597 195//597
f 349//598 350//598 355//598
f 202//599 204//599 208//599
f 212//600 203//600 201//600
f 204//601 199//601 206//601
f 198//602 203//602 212//602
f 353//455 347//455 348//455
f 210//603 200//603 202//603
f 199//604 197//604 205//604
f 207//605 201//605 200//605
f 205//606 197//606 198//606
f 333//468 335//468 319//468
f 325//607 322//607 241//607
f 335//608 334//608 318//608
f 244//471 240//471 239//471
f 243//472 245//472 242//472
f 245//473 246//473 239//473
f 243//609 326//609 328//609
f 240//610 324//610 323//610
f 313//611 321//611 330//611
f 328//477 329//477 246//477
f 334//478 321//478 313//478
f 254//612 250//612 256//612
f 251//613 254//613 262//613
f 261//614 253//614 252//614
f 259//615 249//615 253//615
f 252//616 251//616 260//616
f 255//617 247//617 248//617
f 258//618 248//618 249//618
f 256//619 250//619 247//619
f 254//620 317//620 319//620
f 315//621 317//621 254//621
f 253//622 316//622 320//622
f 314//623 316//623 253//623
f 252//624 320//624 315//624
f 318//625 313//625 248//625
f 313//626 314//626 249//626
f 250//627 319//627 318//627
f 335//628 328//628 326//628
f 322//629 325//629 330//629
f 334//497 326//497 322//497
f 324//498 327//498 331//498
f 330//499 325//499 323//499
f 332//630 323//630 324//630
f 327//631 329//631 333//631
f 329//502 328//502 335//502
f 329//632 327//632 244//632
f 323//504 325//504 242//504
f 315//633 331//633 333//633
f 241//506 322//506 326//506
f 332//634 336//634 320//634
f 327//508 324//508 240//508
f 314//509 330//509 332//509
f 320//510 336//510 331//510
f 200//635 338//635 339//635
f 339//636 344//636 204//636
f 203//637 340//637 343//637
f 344//638 342//638 199//638
f 198//639 337//639 340//639
f 341//640 337//640 198//640
f 342//641 341//641 197//641
f 201//642 343//642 338//642
f 351//643 348//643 347//643
f 346//644 345//644 352//644
f 347//645 346//645 350//645
f 351//646 349//646 356//646
f 345//455 346//455 358//455
f 355//647 350//647 352//647
f 352//648 345//648 359//648
f 358//455 346//455 347//455
f 350//649 349//649 351//649
f 192//455 358//455 353//455
f 360//650 359//650 194//650
f 339//527 355//527 360//527
f 359//455 358//455 192//455
f 357//528 356//528 338//528
f 193//455 353//455 354//455
f 338//529 356//529 355//529
f 195//651 354//651 357//651
