# Blender v2.83.5 OBJ File: 'bio.blend'
# www.blender.org
mtllib bio_000017.mtl
o Cube
v -0.891688 -1.037366 -0.485992
v -0.646304 1.258321 -0.343904
v -0.730753 -1.058012 0.486068
v -0.687806 0.736377 0.417032
v -0.997118 -1.003744 -0.168617
v -0.941684 -1.009577 0.208814
v -0.860008 0.904449 0.195000
v -0.844021 1.130074 -0.099392
v -0.775117 1.307196 0.132534
v -0.665314 1.406291 -0.008675
v -0.133088 1.312582 -0.105039
v -0.155793 1.032745 0.396087
v -0.690405 1.046463 0.451858
v -0.066515 1.132931 0.220764
v -0.785040 1.164896 0.314660
v -0.058870 1.221412 0.046897
v -0.639625 2.776450 -0.164672
v -0.572664 2.687432 -0.232176
v -0.256894 2.710647 -0.256448
v -0.264399 3.021907 -0.048889
v -0.580151 2.997927 -0.025128
v -0.182865 2.933595 -0.117757
v -0.642586 2.899240 -0.082791
v -0.179904 2.810805 -0.199637
v -0.073817 2.068752 0.791240
v -0.500696 2.057525 0.811638
v 0.002914 2.136249 0.877841
v -0.513217 2.283760 1.101375
v -0.592533 2.210140 1.019021
v -0.086433 2.286509 1.083766
v -0.587625 2.119595 0.904408
v -0.001668 2.219459 0.984890
v -0.085892 2.195701 0.799848
v -0.018059 2.144449 0.900571
v -0.567237 2.126876 1.044479
v -0.024441 2.083840 1.020306
v -0.478710 2.234191 0.814822
v -0.496099 2.065856 1.142408
v -0.103317 2.030888 1.127165
v -0.560328 2.194128 0.914995
v -0.887570 -0.548424 -0.567141
v -0.774209 -0.576060 0.387383
v -0.933537 -0.556592 -0.283036
v -0.779967 -0.580006 0.069406
v -1.072003 -0.640358 0.213381
v -0.908474 -0.671802 0.323927
v -1.219846 -0.647561 -0.211433
v -1.200474 -0.634415 0.001695
v -0.984473 -0.570775 -0.365350
v -0.676755 -0.591722 0.172225
v -0.851010 -0.531275 -0.228078
v -0.733474 -0.539455 -0.014345
v -0.707055 0.710745 -0.651771
v -0.751530 0.292860 0.202648
v -0.895003 0.583161 -0.425998
v -0.903529 0.400191 -0.096395
v -0.743178 -0.322820 -0.611069
v -0.692215 -0.396670 0.344785
v -0.877958 -0.352028 -0.349896
v -0.829099 -0.387698 0.017779
v -1.149544 1.426621 1.634360
v -1.063117 1.355098 1.645275
v -1.272284 1.617533 1.529199
v -1.232262 1.530405 1.588456
v -1.127093 1.716285 1.490831
v -0.917925 1.453850 1.606907
v -1.020141 1.674678 1.532401
v -0.937422 1.570894 1.578306
v -1.138229 1.173346 0.001266
v -1.375537 1.030801 0.078984
v -1.329028 0.900176 0.192973
v -0.982864 1.117949 0.087184
v -0.801696 0.809857 0.236281
v -1.039125 0.669315 0.315478
v -1.195486 0.748832 0.280219
v -0.849366 0.966599 0.173586
v -1.107860 0.839027 -0.132840
v -0.981447 0.860715 -0.037604
v -1.042368 0.733960 0.382798
v -1.315477 0.786119 -0.006451
v -1.284631 0.783179 0.149225
v -0.834772 0.786139 0.254657
v -1.176835 0.764252 0.302419
v -0.873430 0.840268 0.116893
v -0.628275 -1.121727 0.541266
v -0.722106 -1.158070 -0.567657
v -0.828312 -1.133347 -0.310475
v -0.717053 -1.184213 0.195383
v -0.343877 -0.505328 -0.566940
v -0.362536 -0.506372 0.497556
v -0.320061 -0.297516 0.464377
v -0.268650 -0.278529 -0.567822
v -0.265558 0.179218 -0.603754
v -0.320680 0.069225 0.400515
v -0.300465 -1.354927 0.482291
v -0.465338 -2.369415 0.424348
v -0.500733 -1.350561 -0.638984
v -0.720168 -1.248773 -0.323372
v -0.617386 -1.257613 0.195055
v -0.489854 -2.135156 0.450709
v -0.466052 -2.175331 -0.602668
v -0.678210 -2.136519 -0.387020
v -0.694428 -2.136519 0.186582
v -0.444628 -2.413249 -0.480690
v -0.625420 -2.413249 -0.319732
v -0.637057 -2.413249 0.153939
v -0.484763 -1.748111 0.454308
v -0.688060 -1.745901 0.212093
v -0.672218 -1.745901 -0.405640
v -0.459999 -1.827226 -0.665958
v -0.435646 -2.509347 0.394687
v -0.389902 -2.509347 -0.259852
v -0.510450 -2.509347 -0.217279
v -0.516650 -2.509347 0.157699
v -0.481225 -1.243635 0.433761
v -0.509545 -2.413249 0.389643
v -0.533237 -1.745901 0.424358
v -0.538450 -2.136519 0.420639
v -1.306246 1.540839 1.309237
v -1.260198 1.435123 1.380756
v -0.881582 1.344680 1.402363
v -1.161068 1.310748 1.435768
v -0.906862 1.483645 1.368592
v -1.132249 1.659182 1.263257
v -1.005992 1.608020 1.313580
v -1.055580 1.226336 1.448342
v -1.342681 1.571162 1.338013
v -1.331680 1.610103 1.436099
v -1.167235 1.349816 1.565093
v -1.051913 1.259089 1.591354
v -1.277874 1.488630 1.503695
v -1.137482 1.742186 1.384781
v -0.857716 1.391172 1.540036
v -0.994155 1.681599 1.428721
v -0.883517 1.542785 1.490119
v -1.288887 1.443182 1.408975
v -0.849231 1.343230 1.446223
v -1.173699 1.298661 1.472897
v -0.878317 1.499563 1.394841
v -1.140499 1.708675 1.284585
v -0.993504 1.644085 1.330918
v -1.051413 1.205717 1.499651
v -0.558460 2.526632 -0.010576
v -0.547323 2.762643 0.368687
v -0.207639 2.787012 0.345255
v -0.629492 2.620954 0.060962
v -0.218756 2.550189 -0.034548
v -0.141565 2.657148 0.026752
v -0.613559 2.658063 0.307590
v -0.125577 2.691953 0.271843
v -0.257572 3.496732 0.265443
v -0.318548 3.586580 0.332747
v -0.552400 3.568721 0.350279
v -0.598054 3.471288 0.291339
v -0.543446 3.471978 0.515768
v -0.291801 3.489767 0.499033
v -0.591880 3.368728 0.453317
v -0.230392 3.393165 0.427191
v -0.582344 3.088870 0.035516
v -0.644778 2.990183 -0.022147
v -0.229264 2.972874 0.243155
v -0.568948 2.948506 0.266587
v -0.635184 2.843925 0.205490
v -0.266592 3.112850 0.011755
v -0.185057 3.024538 -0.057113
v -0.147202 2.877816 0.169743
v 0.879946 -1.053865 -0.496368
v 0.678865 0.943155 -0.468679
v 0.742105 -1.029392 0.476372
v 0.668267 1.049403 0.463617
v 0.023217 1.160759 -0.412784
v -0.025775 -1.114514 0.570169
v -0.015802 1.061857 0.450223
v 0.029224 -1.175966 -0.655417
v 0.988831 -1.004839 -0.205673
v 0.950992 -0.975839 0.164835
v 0.858497 1.017973 0.179166
v 0.861084 0.971742 -0.189444
v 0.016717 1.239085 -0.122768
v 0.004176 1.162609 0.237073
v 0.813947 1.262490 -0.156772
v 0.712371 1.240511 -0.332893
v 0.174149 1.232835 -0.295398
v 0.164091 1.258904 0.267855
v 0.708681 1.314213 0.247420
v 0.085747 1.232648 0.099345
v 0.812488 1.291637 0.072723
v 0.089182 1.236037 -0.097983
v 0.637321 3.864455 -0.364452
v 0.572839 3.856662 -0.477360
v 0.255299 3.855339 -0.479433
v 0.253375 3.880306 -0.106074
v 0.570920 3.881567 -0.104918
v 0.174248 3.872423 -0.219515
v 0.636562 3.874304 -0.217164
v 0.175007 3.862574 -0.366803
v 0.217489 2.566587 -0.446646
v 0.645663 2.579649 -0.444608
v 0.135241 2.578971 -0.296441
v 0.643063 2.618437 0.030557
v 0.727312 2.607010 -0.112603
v 0.214878 2.605842 0.029629
v 0.728338 2.591714 -0.300511
v 0.134284 2.593269 -0.121375
v 0.235228 2.448541 -0.416481
v 0.160759 2.464623 -0.278458
v 0.705483 2.494635 -0.110183
v 0.159771 2.483313 -0.118751
v 0.630558 2.459322 -0.414639
v 0.627866 2.510424 0.020935
v 0.232530 2.499606 0.020200
v 0.706549 2.474399 -0.282442
v 0.866044 -0.631868 -0.547748
v 0.780579 -0.550119 0.404132
v 0.029191 -0.433733 -0.567979
v -0.028899 -0.433733 0.567980
v 0.914281 -0.637699 -0.347978
v 0.779366 -0.582813 -0.010427
v 1.077038 -0.564707 0.072048
v 0.920148 -0.559511 0.196622
v 1.203571 -0.726209 -0.325016
v 1.194554 -0.637582 -0.133149
v 0.959860 -0.708975 -0.470442
v 0.680191 -0.545686 0.052172
v 0.832660 -0.629577 -0.350659
v 0.726334 -0.562709 -0.141903
v 0.704361 0.370877 -0.446143
v 0.691884 0.456522 0.548338
v 0.023203 0.540652 -0.523092
v -0.030267 0.495399 0.484093
v 0.868805 0.351275 -0.166491
v 0.860310 0.391492 0.223872
v 0.728735 -0.424881 -0.521486
v 0.679764 -0.379071 0.446819
v 0.028644 -0.263085 -0.559172
v -0.028554 -0.263085 0.559172
v 0.855205 -0.445297 -0.277517
v 0.816401 -0.416303 0.096230
v 1.199687 2.125793 0.297197
v 1.115973 2.075824 0.353761
v 1.310436 2.216653 0.092135
v 1.276590 2.181486 0.193733
v 1.160619 2.276901 0.013209
v 0.966156 2.136072 0.274835
v 1.057710 2.269508 0.078424
v 0.980807 2.213815 0.181888
v 1.087764 0.974278 -0.876985
v 1.332762 0.894986 -0.745138
v 1.296704 0.851767 -0.570535
v 0.939375 0.977340 -0.761554
v 0.775311 0.807841 -0.444468
v 1.020437 0.730536 -0.312391
v 1.172655 0.778378 -0.400424
v 0.815323 0.903612 -0.592032
v 1.060249 0.653297 -0.830292
v 0.938343 0.712776 -0.743860
v 1.023288 0.770612 -0.304986
v 1.275162 0.657455 -0.703223
v 1.252319 0.719551 -0.556594
v 0.808324 0.765247 -0.432989
v 1.152812 0.765192 -0.400307
v 0.838748 0.757875 -0.586050
v 0.628214 -1.101992 0.547457
v 0.723046 -1.166259 -0.557730
v 0.820031 -1.135856 -0.321873
v 0.722470 -1.168928 0.183618
v 0.383542 -0.518420 -0.529060
v 0.322823 -0.498489 0.542805
v 0.268061 -0.286619 0.551741
v 0.312110 -0.296063 -0.522240
v 0.024017 0.151107 -0.555155
v -0.032085 0.122127 0.523310
v 0.301483 0.087354 -0.492968
v 0.259505 0.109537 0.550044
v 0.258657 -1.354927 0.505256
v -0.025677 -1.199953 0.553262
v 0.413151 -2.369415 0.475307
v 0.032078 -1.351849 -0.674948
v -0.029904 -2.453916 0.515512
v 0.534823 -1.352814 -0.607095
v 0.718899 -1.248187 -0.318918
v 0.619032 -1.246902 0.196261
v 0.436480 -2.135156 0.502413
v -0.031878 -2.136519 0.549550
v 0.034126 -2.175331 -0.588297
v 0.528878 -2.175331 -0.548064
v 0.714495 -2.136519 -0.314108
v 0.670505 -2.136519 0.258912
v 0.026982 -2.413249 -0.465141
v 0.496835 -2.413249 -0.426472
v 0.657324 -2.413249 -0.247320
v 0.615312 -2.413249 0.225541
v 0.436719 -1.748111 0.500097
v 0.665973 -1.745901 0.271694
v 0.703306 -1.745901 -0.346947
v 0.037159 -1.827226 -0.654300
v 0.523489 -1.827226 -0.616592
v -0.031862 -1.745901 0.552782
v 0.387087 -2.509347 0.442412
v -0.028545 -2.550014 0.492097
v -0.010235 -2.550014 0.176449
v 0.014161 -2.550014 -0.244117
v 0.003043 -2.550014 -0.052459
v 0.417333 -2.509347 -0.213027
v 0.532149 -2.509347 -0.156800
v 0.494951 -2.509347 0.216380
v 0.460116 -1.236351 0.458447
v 0.461074 -2.413249 0.445947
v 0.488876 -1.745901 0.474080
v 0.488611 -2.136519 0.477402
v -0.025066 -1.353683 0.529482
v -0.030256 -2.408721 0.521578
v 1.331711 2.025063 -0.042993
v 1.293125 1.982126 0.079802
v 0.919125 1.928496 0.175955
v 1.200963 1.915382 0.203794
v 0.938658 2.020868 0.065607
v 1.152170 2.097265 -0.137578
v 1.030819 2.087611 -0.058385
v 1.098667 1.856293 0.270540
v 1.369199 2.065813 -0.039972
v 1.363728 2.155013 0.017227
v 1.214674 2.022661 0.284990
v 1.103628 1.966650 0.367159
v 1.317535 2.097152 0.146604
v 1.163343 2.235598 -0.088339
v 0.903244 2.047235 0.261593
v 1.024778 2.214884 -0.007625
v 0.921918 2.140392 0.130761
v 1.323402 2.004650 0.095932
v 0.889783 1.953604 0.214440
v 1.216313 1.927096 0.240008
v 0.911520 2.049668 0.079438
v 1.160576 2.149711 -0.149878
v 1.018609 2.127222 -0.064638
v 1.098407 1.869706 0.324346
v 0.588447 3.583037 -0.470134
v 0.587049 3.424960 -0.052188
v 0.245712 3.421058 -0.053267
v 0.656852 3.591295 -0.350490
v 0.247115 3.579070 -0.472186
v 0.166415 3.586846 -0.351432
v 0.656684 3.417264 -0.171130
v 0.166261 3.412630 -0.174835
v 0.232102 3.918208 0.461754
v 0.290554 3.926007 0.575090
v 0.525737 3.926933 0.575827
v 0.574504 3.919601 0.463495
v 0.537154 3.736872 0.599760
v 0.284353 3.733330 0.599132
v 0.588887 3.729103 0.480728
v 0.225671 3.724987 0.477669
v 0.570357 3.888862 0.004168
v 0.636000 3.881598 -0.108077
v 0.244500 3.616290 0.032302
v 0.585837 3.620192 0.033381
v 0.655473 3.612496 -0.085561
v 0.252813 3.887601 0.003013
v 0.173686 3.879718 -0.110428
v 0.165049 3.607862 -0.089266
vn -0.3405 0.1607 0.9264
vn 0.3103 -0.9502 -0.0283
vn -0.7524 0.5857 -0.3012
vn -0.5735 -0.7610 0.3034
vn -0.8300 -0.0173 0.5576
vn -0.5896 -0.8011 0.1032
vn 0.4491 0.8458 0.2882
vn -0.2322 -0.1891 0.9541
vn -0.8164 -0.5363 -0.2144
vn -0.4982 0.1306 0.8572
vn 0.0003 0.0009 -1.0000
vn -0.2354 -0.3953 0.8879
vn -0.4316 0.8115 0.3940
vn -0.9678 0.2223 0.1178
vn 0.1003 -0.1102 0.9888
vn -0.3168 0.8840 0.3438
vn 0.0912 0.9107 -0.4029
vn -0.8709 -0.1562 0.4659
vn 0.8516 0.3351 -0.4030
vn -0.0004 0.7157 -0.6984
vn -0.8222 0.4837 -0.2999
vn 0.9978 -0.0623 0.0216
vn -0.9825 0.1688 0.0784
vn 0.8269 -0.3599 0.4320
vn 0.0939 -0.0350 -0.9950
vn -0.9395 0.3058 0.1545
vn -0.8136 0.4487 -0.3697
vn -0.9157 -0.1320 0.3797
vn -0.0488 0.0917 0.9946
vn -0.5750 -0.2127 0.7900
vn -0.8464 -0.5197 0.1163
vn -0.8967 -0.0651 -0.4378
vn -0.1271 -0.9918 0.0146
vn 0.3638 -0.9015 -0.2345
vn -0.8311 -0.1407 0.5381
vn -0.8093 0.3535 -0.4690
vn -0.9962 0.0859 0.0117
vn 0.0709 -0.5687 0.8195
vn -0.0180 0.4915 -0.8707
vn -0.2439 0.2003 0.9489
vn -0.8941 -0.0196 0.4474
vn -0.7690 0.0017 -0.6392
vn -0.9991 -0.0213 -0.0377
vn 0.5756 0.1636 -0.8012
vn -0.9923 -0.0798 0.0951
vn -0.5347 0.0917 -0.8400
vn 0.5436 0.0166 0.8392
vn -0.8193 -0.1073 0.5633
vn -0.5262 -0.0929 0.8453
vn 0.9585 0.1253 -0.2563
vn 0.8706 0.1334 -0.4736
vn 0.1576 -0.0783 -0.9844
vn -0.2968 0.3469 0.8897
vn -0.2813 0.1681 0.9448
vn 0.0264 0.0516 -0.9983
vn -0.0252 0.1170 -0.9928
vn -0.6779 -0.7199 -0.1489
vn -0.6091 -0.7894 0.0773
vn -0.7222 -0.6503 -0.2357
vn 0.0587 -0.0413 -0.9974
vn -0.3817 0.0795 0.9209
vn -0.3224 0.1619 0.9327
vn 0.1726 0.0812 -0.9816
vn 0.0283 -0.1793 -0.9834
vn -0.9995 0.0180 -0.0256
vn -0.1073 0.2346 -0.9661
vn -0.4866 -0.8293 0.2747
vn 0.0256 -0.4542 -0.8905
vn -0.9795 -0.2002 -0.0241
vn -0.6354 -0.2948 -0.7137
vn -0.8079 0.0052 0.5893
vn -0.7777 -0.0180 -0.6284
vn -0.1932 -0.8145 -0.5471
vn -0.7713 -0.5793 0.2636
vn -0.2482 -0.2326 0.9403
vn -0.8231 -0.1474 0.5485
vn -0.8185 0.0161 -0.5743
vn -0.8678 0.0807 0.4903
vn -0.9697 0.1472 0.1948
vn -0.0671 0.0507 -0.9965
vn -0.0785 -0.9969 -0.0013
vn -0.0412 -0.9923 -0.1166
vn -0.0810 -0.9963 0.0277
vn -0.6236 -0.7817 -0.0103
vn 0.0132 -0.9157 -0.4017
vn -0.2545 0.0084 0.9670
vn -0.5262 -0.0011 0.8504
vn -0.5154 -0.1484 0.8440
vn -0.5111 0.1798 0.8405
vn -0.2275 -0.1313 0.9649
vn 0.1013 -0.1214 0.9874
vn 0.6979 0.7007 -0.1481
vn 0.8192 0.1593 -0.5509
vn 0.6379 -0.7109 0.2961
vn 0.8096 0.2921 0.5091
vn 0.7408 -0.6643 0.0995
vn -0.2457 0.9344 -0.2579
vn 0.0393 -0.5856 0.8097
vn 0.7441 -0.6462 -0.1697
vn 0.8300 0.0174 0.5575
vn -0.0323 0.0273 -0.9991
vn -0.0804 0.1379 0.9872
vn -0.4623 0.8705 0.1689
vn 0.9869 0.1608 -0.0132
vn -0.0020 0.6802 0.7330
vn -0.5332 0.7831 0.3202
vn 0.1807 0.7174 -0.6728
vn 0.8583 0.1509 0.4905
vn -0.9186 -0.0045 -0.3953
vn -0.0678 -0.0955 -0.9931
vn 0.8647 0.0246 -0.5018
vn -0.9983 0.0562 -0.0164
vn 0.9961 0.0879 -0.0048
vn -0.9067 0.1301 0.4013
vn 0.0125 0.0347 -0.9993
vn 0.9255 0.1581 0.3442
vn 0.8092 0.5595 -0.1791
vn 0.9740 -0.2262 0.0150
vn 0.0342 0.0250 0.9991
vn 0.8289 0.0187 0.5590
vn 0.8545 -0.5037 0.1267
vn 0.5952 -0.0778 -0.7998
vn -0.3073 -0.9486 0.0757
vn -0.3657 -0.9307 0.0052
vn 0.8899 0.0350 0.4549
vn 0.8366 0.0157 -0.5476
vn 0.9997 0.0132 0.0204
vn 0.0170 0.1948 0.9807
vn -0.0258 0.1751 -0.9842
vn 0.0668 -0.0248 0.9975
vn 0.9223 -0.1088 0.3710
vn 0.8880 0.0702 -0.4545
vn 0.9939 -0.0317 0.1057
vn -0.7208 -0.1269 -0.6814
vn 0.9974 -0.0344 0.0628
vn 0.4823 -0.2541 -0.8383
vn -0.4698 0.3431 0.8133
vn 0.8790 0.1143 0.4628
vn 0.6088 0.2382 0.7568
vn -0.9727 0.0092 -0.2321
vn -0.8978 -0.0698 -0.4349
vn 0.2213 0.0119 -0.9751
vn 0.2816 -0.0728 0.9568
vn 0.4140 0.2163 0.8842
vn 0.1349 0.0515 -0.9895
vn 0.1358 0.1159 -0.9839
vn 0.6143 -0.7741 -0.1528
vn 0.5858 -0.8082 0.0602
vn 0.7234 -0.6569 -0.2128
vn 0.0483 0.0956 -0.9942
vn -0.0824 0.1075 0.9908
vn 0.0254 0.0048 0.9997
vn 0.1131 0.0034 -0.9936
vn 0.0759 -0.1864 -0.9795
vn 0.9976 0.0336 0.0602
vn 0.1367 0.1222 -0.9830
vn 0.5982 -0.7462 0.2922
vn 0.0719 -0.4616 -0.8842
vn 0.9800 -0.1843 0.0752
vn 0.7552 -0.3761 -0.5368
vn 0.7525 0.0051 0.6585
vn 0.8349 -0.0223 -0.5500
vn 0.3205 -0.9027 -0.2871
vn 0.5564 -0.7340 0.3894
vn 0.1510 -0.1522 0.9768
vn 0.7601 -0.1476 0.6328
vn 0.8421 0.0040 -0.5393
vn 0.8474 0.1564 0.5073
vn 0.9809 -0.0414 0.1902
vn 0.1338 0.0166 -0.9909
vn 0.0782 -0.9969 0.0078
vn 0.0999 -0.9950 0.0058
vn 0.0980 -0.9952 0.0057
vn 0.6333 -0.7719 0.0563
vn 0.0329 -0.9159 -0.4001
vn 0.0834 -0.1520 0.9849
vn 0.4327 0.0051 0.9015
vn 0.4249 -0.1457 0.8935
vn 0.4325 0.1843 0.8826
vn 0.1144 -0.1313 0.9847
vn -0.3414 0.1615 0.9259
vn -0.2494 0.9683 -0.0125
vn -0.7889 0.5785 -0.2074
vn -0.6131 -0.7348 0.2901
vn -0.8137 -0.0716 0.5769
vn -0.7218 -0.6863 0.0897
vn 0.4066 0.8842 -0.2297
vn -0.0270 -0.6793 0.7333
vn -0.8487 -0.5176 0.1091
vn -0.4693 0.8395 -0.2737
vn -0.5072 -0.1369 -0.8509
vn -0.0789 0.0615 0.9950
vn 0.2495 0.9454 0.2096
vn -0.9673 0.2227 0.1213
vn -0.3761 0.7167 0.5872
vn -0.4302 0.8311 0.3525
vn 0.0887 0.9131 -0.3980
vn -0.8457 -0.1793 0.5026
vn 0.9204 0.2548 -0.2967
vn 0.0414 0.6999 -0.7130
vn -0.7482 0.5315 -0.3971
vn 0.9982 -0.0576 0.0146
vn -0.9812 0.1878 0.0452
vn 0.9096 -0.2902 0.2973
vn 0.0163 -0.2011 -0.9794
vn -0.9122 -0.1286 0.3889
vn -0.9654 0.2132 -0.1501
vn -0.9084 0.4179 0.0113
vn -0.2070 0.0022 0.9783
vn -0.8001 -0.1215 0.5875
vn -0.8203 -0.2956 0.4896
vn -0.5670 0.0987 -0.8178
vn 0.2186 -0.9204 -0.3243
vn 0.4298 -0.8691 -0.2450
vn -0.9020 -0.1550 0.4029
vn -0.8072 0.3563 -0.4706
vn -0.9969 0.0764 0.0166
vn -0.0212 -0.5900 0.8071
vn 0.2095 0.1712 -0.9627
vn -0.3142 0.0496 0.9481
vn -0.9224 0.0002 0.3861
vn -0.8849 -0.0538 -0.4627
vn -0.9894 -0.0755 0.1242
vn 0.6798 0.1769 -0.7118
vn -0.9782 -0.0781 0.1923
vn -0.5637 0.0799 -0.8221
vn 0.5236 0.0091 0.8519
vn -0.8521 -0.0962 0.5144
vn -0.5695 -0.0885 0.8172
vn 0.9671 0.1195 -0.2245
vn 0.8193 0.1524 -0.5527
vn 0.0286 0.0100 -0.9995
vn -0.3504 0.2160 0.9113
vn -0.3545 0.2177 0.9094
vn -0.0022 -0.0032 -1.0000
vn -0.1142 0.0672 -0.9912
vn -0.6278 -0.7557 -0.1866
vn -0.5833 -0.8109 0.0468
vn -0.6799 -0.6891 -0.2505
vn 0.0977 -0.0785 -0.9921
vn -0.4047 0.0975 0.9092
vn -0.4028 0.0812 0.9117
vn 0.1885 0.0681 -0.9797
vn 0.0230 -0.1864 -0.9822
vn -0.9995 0.0140 -0.0283
vn -0.0667 0.1091 -0.9918
vn -0.5526 -0.7520 0.3593
vn 0.0293 -0.4602 -0.8873
vn -0.9806 -0.1938 -0.0277
vn -0.6932 -0.3773 -0.6141
vn -0.8319 -0.0226 0.5544
vn -0.7184 -0.1123 -0.6865
vn -0.2864 -0.9025 -0.3217
vn -0.5966 -0.7348 0.3227
vn -0.2629 -0.1522 0.9527
vn -0.8556 -0.2320 0.4628
vn -0.7795 -0.0312 -0.6257
vn -0.8004 0.1362 0.5838
vn -0.9955 -0.0918 -0.0255
vn 0.0234 -0.0431 -0.9988
vn -0.0799 -0.9968 -0.0046
vn -0.0999 -0.9950 -0.0058
vn -0.0980 -0.9952 -0.0057
vn -0.6331 -0.7740 -0.0156
vn -0.0647 -0.8469 -0.5278
vn -0.1663 -0.1514 0.9744
vn -0.5257 -0.0010 0.8507
vn -0.5173 -0.1490 0.8427
vn -0.2545 0.0083 0.9670
vn -0.2635 -0.4214 0.8678
vn 0.2490 0.0095 0.9685
vn -0.1026 -0.8758 0.4716
vn 0.8393 0.1932 -0.5082
vn 0.6301 -0.7166 0.2993
vn 0.8329 0.3166 0.4540
vn 0.6069 -0.7857 0.1196
vn 0.0415 0.9991 0.0016
vn 0.1742 -0.1910 0.9660
vn 0.8149 -0.5106 0.2742
vn 0.0603 0.9982 -0.0046
vn 0.4214 -0.0959 -0.9018
vn -0.0184 0.0601 0.9980
vn 0.0359 0.9992 0.0178
vn 0.9868 0.1616 -0.0142
vn -0.0356 0.6353 0.7715
vn -0.5286 0.8411 0.1147
vn -0.0690 0.4208 -0.9045
vn 0.8585 0.1508 0.4901
vn -0.8802 -0.0030 -0.4746
vn 0.0065 -0.0665 -0.9978
vn 0.8655 0.0245 -0.5003
vn -0.9983 0.0563 -0.0128
vn 0.9961 0.0878 -0.0042
vn -0.8845 0.1305 0.4479
vn -0.0105 0.1190 -0.9928
vn 0.9497 -0.2887 0.1210
vn 0.8273 0.3989 -0.3955
vn 0.8548 0.4321 0.2873
vn 0.0720 0.0035 0.9974
vn 0.6215 -0.0138 0.7833
vn 0.8377 -0.1375 0.5286
vn 0.5089 -0.0533 -0.8592
vn -0.3514 -0.9362 -0.0014
vn -0.1040 -0.9613 0.2549
vn 0.8317 0.1109 0.5440
vn 0.8617 -0.0080 -0.5073
vn 1.0000 0.0034 0.0066
vn -0.0069 0.1856 0.9826
vn 0.1037 -0.0345 -0.9940
vn 0.0291 0.0515 0.9983
vn 0.8796 -0.0699 0.4706
vn 0.8624 0.0554 -0.5032
vn 0.9979 -0.0586 0.0278
vn -0.6246 -0.1738 -0.7613
vn 0.9884 0.0053 0.1517
vn 0.4957 -0.2558 -0.8300
vn -0.4866 0.3447 0.8028
vn 0.8530 0.1220 0.5075
vn 0.5816 0.2426 0.7765
vn -0.9805 0.0176 -0.1957
vn -0.8533 -0.0836 -0.5146
vn 0.1378 0.0792 -0.9873
vn 0.2520 0.0243 0.9674
vn 0.3001 0.1186 0.9465
vn 0.1256 0.0707 -0.9896
vn 0.1369 0.1153 -0.9839
vn 0.6596 -0.7416 -0.1220
vn 0.6463 -0.7528 0.1249
vn 0.7153 -0.6647 -0.2156
vn 0.0256 0.0768 -0.9967
vn -0.0863 0.1045 0.9908
vn -0.0870 0.0916 0.9920
vn 0.2355 0.0802 -0.9686
vn 0.0796 -0.1914 -0.9783
vn 0.9970 0.0091 0.0765
vn 0.1331 0.1115 -0.9848
vn 0.4801 -0.8152 0.3238
vn 0.0728 -0.4602 -0.8848
vn 0.9749 -0.2049 0.0866
vn 0.7104 -0.3004 -0.6364
vn 0.7685 -0.0120 0.6398
vn 0.7875 -0.1073 -0.6070
vn 0.2534 -0.8174 -0.5174
vn 0.7356 -0.5793 0.3511
vn 0.1378 -0.2326 0.9627
vn 0.7980 -0.2265 0.5584
vn 0.8332 -0.0088 -0.5529
vn 0.7511 0.0626 0.6572
vn 0.9929 0.1025 0.0599
vn 0.0772 -0.0424 -0.9961
vn 0.0799 -0.9968 0.0046
vn 0.0544 -0.9923 -0.1110
vn 0.0773 -0.9963 0.0369
vn 0.6199 -0.7823 0.0618
vn 0.1253 -0.8469 -0.5168
vn 0.1952 0.0549 0.9792
vn 0.4461 0.0073 0.8949
vn 0.4182 -0.1436 0.8969
vn 0.2029 0.0415 0.9783
vn 0.1613 -0.4214 0.8924
vn -0.1688 0.0614 0.9837
vn -0.2110 -0.0063 0.9775
vn -0.2257 -0.1009 0.9690
vn 0.0852 0.0576 0.9947
vn 0.1001 0.0059 0.9950
vn 0.1121 -0.1009 0.9886
vn -0.2125 0.0301 0.9767
vn -0.2124 -0.0081 0.9771
vn -0.2095 -0.1310 0.9690
vn 0.1118 0.0376 0.9930
vn 0.1117 -0.0082 0.9937
vn 0.0997 -0.1242 0.9872
vn -0.9962 0.0510 0.0703
vn 0.8207 -0.3986 -0.4095
vn 0.0143 -0.8091 -0.5875
vn -0.1041 0.5500 -0.8286
vn -0.8564 -0.4424 -0.2661
vn 0.9911 0.1064 -0.0798
vn -0.9991 -0.0370 0.0194
vn 0.0929 -0.4316 0.8973
vn 0.7912 0.0512 0.6094
vn 0.8718 -0.3656 0.3262
vn 0.9840 -0.1746 -0.0359
vn 0.7916 -0.1093 0.6012
vn 0.0393 0.1879 0.9814
vn -0.4747 -0.8714 -0.1237
vn -0.7179 -0.0053 0.6961
vn 0.0493 -0.0629 0.9968
vn 0.6206 0.1546 -0.7687
vn -0.8662 -0.0606 0.4960
vn 0.4460 0.2576 -0.8571
vn 0.0850 0.2499 0.9645
vn -0.1279 0.5169 0.8464
vn -0.0218 0.3898 0.9206
vn 0.3312 0.9236 0.1931
vn -0.5262 -0.4623 0.7137
vn -0.7512 -0.5322 -0.3904
vn 0.7119 0.6660 0.2229
vn -0.4275 0.2967 -0.8539
vn 0.8217 0.0956 -0.5618
vn 0.3583 -0.8303 -0.4268
vn 0.4332 0.5278 -0.7306
vn -0.7873 -0.4545 0.4166
vn -0.5235 0.6018 -0.6031
vn -0.4532 0.2961 -0.8408
vn -0.9600 -0.2660 0.0869
vn 0.5470 0.3678 -0.7520
vn 0.8074 0.5546 -0.2011
vn 0.9613 0.2693 -0.0577
vn -0.6084 -0.7064 0.3616
vn -0.7943 -0.5354 0.2871
vn 0.5877 -0.7227 0.3639
vn -0.5612 0.7733 -0.2951
vn -0.9653 -0.2175 0.1446
vn 0.4629 0.8261 -0.3214
vn 0.4501 0.8347 -0.3172
vn -0.9372 -0.2751 0.2143
vn -0.5885 0.7719 -0.2404
vn 0.5845 -0.6999 0.4105
vn -0.8039 -0.4944 0.3307
vn -0.6192 -0.6674 0.4137
vn 0.9834 0.1817 -0.0039
vn 0.8076 0.5524 -0.2065
vn 0.8594 0.2519 0.4450
vn -0.7464 -0.3426 0.5705
vn 0.8032 -0.0458 -0.5940
vn -0.4980 0.8299 0.2515
vn -0.5357 -0.7322 -0.4206
vn 0.4733 -0.3887 0.7905
vn -0.6068 -0.6716 -0.4251
vn 0.4564 -0.8122 -0.3635
vn -0.0222 0.8364 0.5477
vn 0.7698 0.5799 0.2667
vn -0.9979 0.0200 0.0615
vn 0.9862 0.1483 -0.0731
vn -0.8514 -0.4792 -0.2136
vn -0.0013 -0.8640 -0.5035
vn 0.8165 -0.4203 -0.3958
vn -0.8767 0.3949 0.2745
vn -0.9275 0.2988 0.2245
vn 0.8773 0.4624 0.1281
vn -0.0273 0.8623 0.5056
vn -0.1819 -0.4076 0.8949
vn 0.4048 -0.3659 0.8380
vn 0.9823 0.1817 -0.0464
vn -0.0940 0.5472 -0.8317
vn 0.9922 0.0535 -0.1127
vn 0.8161 0.3483 0.4612
vn -0.8169 0.2018 0.5403
vn 0.0257 0.4836 0.8749
vn -0.9992 -0.0365 0.0186
vn 0.9917 0.0801 0.1001
vn -0.8311 0.0100 -0.5561
vn 0.0063 -0.0260 -0.9996
vn -0.0037 0.9978 -0.0667
vn 0.8665 0.0365 -0.4979
vn -0.9997 0.0191 0.0180
vn 0.9976 0.0488 0.0483
vn 0.0106 -0.9792 0.2026
vn -0.8608 -0.1882 0.4728
vn 0.9836 -0.1785 0.0271
vn -0.9765 -0.2149 0.0191
vn 0.8548 -0.2304 -0.4651
vn 0.0006 -0.0883 0.9961
vn -0.8620 -0.2607 -0.4347
vn 0.8423 -0.1525 0.5170
vn 0.0112 -0.2460 -0.9692
vn -0.6736 -0.3133 -0.6694
vn 0.8983 0.2253 0.3772
vn -0.5079 -0.2849 -0.8130
vn -0.0273 0.7689 0.6388
vn 0.1706 0.9122 0.3726
vn 0.0728 0.8546 0.5142
vn -0.3243 0.8499 -0.4154
vn 0.5660 -0.0153 0.8242
vn 0.6213 -0.7797 -0.0774
vn -0.7120 0.6834 -0.1613
vn 0.3627 -0.2675 -0.8927
vn -0.8548 -0.1577 -0.4944
vn -0.7682 -0.6284 -0.1224
vn -0.5771 0.1879 -0.7948
vn 0.4774 -0.7138 0.5124
vn -0.5021 -0.1601 0.8499
vn 0.4944 -0.2659 -0.8275
vn 0.9226 -0.2820 0.2631
vn -0.5981 -0.0649 -0.7988
vn -0.8218 0.3517 -0.4484
vn -0.9708 0.1989 -0.1342
vn 0.5497 -0.4139 0.7256
vn 0.8294 -0.2767 0.4854
vn -0.5279 -0.3585 0.7699
vn 0.5318 0.4442 -0.7210
vn 0.9786 -0.1080 0.1753
vn -0.5298 0.4874 -0.6941
vn -0.4997 0.5151 -0.6964
vn 0.9559 -0.1148 0.2704
vn 0.5520 0.4738 -0.6861
vn -0.5386 -0.3159 0.7811
vn 0.8360 -0.2219 0.5019
vn 0.6506 -0.3358 0.6811
vn -0.9857 0.1632 -0.0426
vn -0.8330 0.3417 -0.4352
vn -0.8341 0.4806 0.2705
vn 0.7907 0.0426 0.6107
vn -0.7355 -0.4498 -0.5067
vn 0.4927 0.8106 -0.3165
vn 0.5249 -0.8496 0.0523
vn -0.4103 0.1566 0.8984
vn 0.5940 -0.8045 0.0084
vn -0.4590 -0.8626 0.2128
vn -0.0051 0.1014 0.9948
vn -0.8826 0.0648 0.4657
vn 0.9962 0.0867 -0.0016
vn -0.9992 0.0384 -0.0086
vn 0.8655 0.0366 -0.4996
vn 0.0055 -0.0254 -0.9997
vn -0.8766 0.0135 -0.4811
vn 0.8604 0.1109 0.4975
vn 0.9146 0.1041 0.3907
vn -0.8996 0.0825 0.4289
vn -0.0042 0.1247 0.9922
vn 0.2815 -0.9328 0.2252
vn -0.2375 -0.9459 0.2208
vn -0.9944 0.0392 0.0982
vn -0.0108 0.9979 -0.0633
vn -0.9989 0.0131 -0.0440
vn -0.8043 -0.2427 0.5424
vn 0.8365 -0.2156 0.5037
vn 0.0017 -0.4014 0.9159
vn 0.9969 0.0368 -0.0699
vn -0.9962 0.0479 0.0727
vn 0.8349 -0.3678 -0.4095
vn 0.0146 -0.8088 -0.5879
vn -0.8562 -0.4426 -0.2666
vn 0.9902 0.0934 -0.1043
vn -0.9977 -0.0127 0.0664
vn 0.0903 -0.4330 0.8968
vn 0.7708 0.0366 0.6360
vn -0.9099 -0.3463 -0.2284
vn 0.3471 -0.7332 0.5848
vn 0.5763 -0.3180 0.7528
vn 0.0528 0.1638 0.9851
vn -0.6977 -0.1143 0.7072
vn -0.7922 0.0523 0.6080
vn 0.0359 -0.0225 0.9991
vn 0.6206 0.1547 -0.7687
vn -0.8384 -0.0706 0.5405
vn 0.4347 0.4165 -0.7984
vn 0.0849 0.2499 0.9645
vn 0.3110 0.9399 0.1407
vn -0.5089 -0.5089 0.6943
vn -0.6395 -0.6020 -0.4782
vn 0.7341 0.2996 -0.6094
vn 0.8624 0.0613 -0.5026
vn 0.4958 0.6382 -0.5889
vn 0.8026 -0.1339 -0.5813
vn -0.3319 0.8217 0.4632
vn -0.5422 0.1552 -0.8258
vn -0.8985 -0.4046 0.1704
vn 0.5219 0.3580 -0.7743
vn 0.7900 0.5743 -0.2146
vn 0.9846 0.1725 -0.0273
vn -0.4859 -0.7871 0.3799
vn -0.8074 -0.5208 0.2773
vn 0.5617 -0.7368 0.3764
vn -0.5894 0.7575 -0.2808
vn -0.9406 -0.2858 0.1832
vn 0.4699 0.8230 -0.3191
vn 0.4607 0.8375 -0.2940
vn -0.9299 -0.2776 0.2413
vn -0.6089 -0.6870 0.3965
vn 0.9867 0.1615 -0.0194
vn 0.8311 0.2964 0.4705
vn 0.6909 -0.0496 -0.7213
vn -0.5430 -0.7935 -0.2748
vn 0.0177 0.8290 0.5589
vn 0.8152 0.5379 0.2148
vn -0.9987 -0.0509 -0.0025
vn 0.9870 0.1368 -0.0838
vn -0.7492 -0.5850 -0.3106
vn 0.0251 -0.8675 -0.4967
vn 0.8402 -0.3912 -0.3755
vn -0.8061 0.4774 0.3496
vn -0.9274 0.2990 0.2249
vn 0.8677 0.4718 0.1563
vn -0.0279 0.8619 0.5063
vn -0.2681 -0.4034 0.8749
vn 0.3355 -0.3771 0.8633
vn 0.9819 0.1833 -0.0476
vn -0.0972 0.5534 -0.8272
vn 0.9901 0.0937 -0.1046
vn -0.9935 -0.1136 0.0037
vn 0.9913 0.0840 0.1011
vn -0.8145 -0.0070 -0.5802
vn 0.0066 -0.0264 -0.9996
vn 0.8667 0.0363 -0.4975
vn -0.9995 0.0307 -0.0072
vn 0.9975 0.0713 0.0004
vn 0.0132 -0.9794 0.2013
vn -0.8605 -0.1851 0.4747
vn 0.9815 -0.1902 0.0208
vn -0.9742 -0.2255 0.0131
vn 0.8533 -0.2244 -0.4708
vn 0.0005 -0.0888 0.9961
vn -0.8589 -0.2441 -0.4502
vn 0.8443 -0.1642 0.5100
vn 0.0120 -0.2431 -0.9699
vn 0.8737 0.2438 0.4210
vn -0.4967 -0.1219 -0.8593
vn 0.0728 0.8546 0.5141
vn -0.3406 0.8677 -0.3621
vn 0.5835 0.0336 0.8114
vn 0.7369 -0.6738 -0.0549
vn -0.7987 -0.0371 -0.6006
vn -0.9206 -0.1626 -0.3551
vn 0.4952 -0.7411 0.4534
vn 0.8309 -0.2253 0.5087
vn 0.5005 0.1227 -0.8570
vn 0.4252 -0.1659 -0.8898
vn 0.9668 -0.2083 0.1481
vn -0.6139 -0.0503 -0.7878
vn -0.8325 0.3464 -0.4323
vn -0.9883 0.1421 -0.0560
vn 0.6480 -0.3699 0.6657
vn 0.8366 -0.2732 0.4748
vn -0.5436 -0.3559 0.7602
vn 0.5507 0.4409 -0.7088
vn 0.9575 -0.1416 0.2514
vn -0.5030 0.4916 -0.7108
vn -0.4907 0.4991 -0.7143
vn 0.9504 -0.1009 0.2942
vn 0.6616 -0.3100 0.6828
vn -0.9895 0.1378 -0.0431
vn -0.8054 0.5311 0.2632
vn -0.8392 -0.3700 -0.3984
vn 0.5432 -0.8140 0.2055
vn -0.0043 0.1018 0.9948
vn -0.8367 0.0866 0.5408
vn 0.9945 0.0748 0.0735
vn -0.9990 0.0326 0.0313
vn 0.8664 0.0371 -0.4979
vn 0.0063 -0.0251 -0.9997
vn -0.8315 -0.0046 -0.5554
vn 0.8608 0.1107 0.4968
vn 0.9147 0.1044 0.3903
vn -0.8886 0.0669 0.4537
vn -0.0036 0.1239 0.9923
vn 0.3653 -0.9050 0.2178
vn -0.3093 -0.9268 0.2131
vn -0.9943 0.0412 0.0987
vn -0.0138 0.9974 -0.0711
vn -0.9995 0.0312 -0.0072
vn 0.9974 0.0722 0.0003
usemtl color_1
s off
f 94//1 58//1 91//1
f 43//2 49//2 51//2
f 8//3 10//3 2//3
f 88//4 3//4 6//4
f 7//5 13//5 15//5
f 88//6 98//6 99//6
f 179//7 11//7 16//7
f 172//8 115//8 276//8
f 5//9 47//9 1//9
f 42//10 46//10 3//10
f 86//11 41//11 89//11
f 230//12 4//12 54//12
f 180//13 16//13 14//13
f 7//14 9//14 8//14
f 4//15 12//15 13//15
f 173//16 14//16 12//16
f 2//17 11//17 171//17
f 13//18 35//18 15//18
f 16//19 33//19 34//19
f 10//20 33//20 11//20
f 9//21 37//21 10//21
f 14//22 34//22 36//22
f 15//23 40//23 9//23
f 12//24 36//24 39//24
f 89//25 57//25 92//25
f 43//26 60//26 59//26
f 41//27 59//27 57//27
f 44//28 58//28 60//28
f 172//29 90//29 85//29
f 6//30 46//30 45//30
f 6//31 48//31 5//31
f 1//32 49//32 41//32
f 44//33 50//33 42//33
f 44//34 51//34 52//34
f 7//35 54//35 4//35
f 53//36 8//36 2//36
f 55//37 7//37 8//37
f 12//38 38//38 13//38
f 171//39 53//39 2//39
f 216//40 91//40 90//40
f 60//41 54//41 56//41
f 57//42 55//42 53//42
f 59//43 56//43 55//43
f 51//44 77//44 78//44
f 48//45 80//45 47//45
f 49//46 80//46 77//46
f 50//47 79//47 46//47
f 48//48 83//48 81//48
f 45//49 79//49 83//49
f 52//50 82//50 50//50
f 51//51 84//51 52//51
f 271//52 92//52 93//52
f 90//53 58//53 42//53
f 3//54 90//54 42//54
f 215//55 92//55 235//55
f 174//56 89//56 215//56
f 1//57 87//57 5//57
f 5//58 88//58 6//58
f 86//59 98//59 87//59
f 93//60 57//60 53//60
f 94//61 230//61 54//61
f 236//62 94//62 91//62
f 93//63 229//63 271//63
f 110//64 285//64 101//64
f 109//65 103//65 108//65
f 174//66 97//66 86//66
f 88//67 115//67 85//67
f 285//68 104//68 101//68
f 103//69 105//69 106//69
f 102//70 104//70 105//70
f 108//71 118//71 117//71
f 110//72 102//72 109//72
f 105//73 112//73 113//73
f 116//74 114//74 111//74
f 279//75 111//75 300//75
f 103//76 116//76 118//76
f 97//77 109//77 98//77
f 99//78 117//78 115//78
f 98//79 108//79 99//79
f 278//80 110//80 97//80
f 303//81 114//81 113//81
f 112//82 303//82 113//82
f 301//83 111//83 114//83
f 106//84 113//84 114//84
f 289//85 112//85 104//85
f 95//86 276//86 115//86
f 100//87 117//87 118//87
f 96//88 118//88 116//88
f 95//89 117//89 107//89
f 96//90 279//90 312//90
f 274//91 234//91 228//91
f 217//92 223//92 213//92
f 182//93 178//93 168//93
f 266//94 169//94 263//94
f 177//95 185//95 170//95
f 266//96 281//96 265//96
f 179//97 183//97 171//97
f 172//98 307//98 263//98
f 221//99 175//99 167//99
f 220//100 214//100 169//100
f 213//101 264//101 267//101
f 170//102 230//102 228//102
f 186//103 179//103 180//103
f 178//104 187//104 177//104
f 170//105 184//105 173//105
f 184//106 180//106 173//106
f 183//107 168//107 171//107
f 207//108 185//108 187//108
f 206//109 183//109 188//109
f 205//110 182//110 183//110
f 182//111 212//111 181//111
f 208//112 188//112 186//112
f 181//113 207//113 187//113
f 211//114 186//114 184//114
f 233//115 267//115 270//115
f 237//116 218//116 217//116
f 233//117 217//117 213//117
f 238//118 214//118 218//118
f 268//119 172//119 263//119
f 176//120 220//120 169//120
f 222//121 176//121 175//121
f 223//122 167//122 213//122
f 224//123 218//123 214//123
f 226//124 217//124 218//124
f 177//125 228//125 232//125
f 178//126 227//126 168//126
f 178//127 232//127 231//127
f 185//128 211//128 184//128
f 168//129 229//129 171//129
f 269//130 216//130 268//130
f 232//131 234//131 238//131
f 227//132 237//132 233//132
f 231//133 238//133 237//133
f 225//134 255//134 223//134
f 258//135 222//135 221//135
f 223//136 258//136 221//136
f 257//137 224//137 220//137
f 222//138 261//138 219//138
f 219//139 257//139 220//139
f 260//140 226//140 224//140
f 262//141 225//141 226//141
f 273//142 235//142 271//142
f 234//143 268//143 214//143
f 169//144 268//144 263//144
f 270//145 215//145 235//145
f 267//146 174//146 215//146
f 167//147 265//147 264//147
f 175//148 266//148 265//148
f 281//149 264//149 265//149
f 233//150 273//150 227//150
f 230//151 274//151 228//151
f 274//152 236//152 269//152
f 273//153 229//153 227//153
f 297//154 285//154 296//154
f 294//155 287//155 295//155
f 280//156 174//156 264//156
f 263//157 282//157 266//157
f 290//158 285//158 286//158
f 288//159 291//159 287//159
f 287//160 290//160 286//160
f 310//161 294//161 309//161
f 287//162 297//162 295//162
f 291//163 304//163 290//163
f 308//164 306//164 292//164
f 279//165 299//165 308//165
f 308//166 288//166 310//166
f 295//167 280//167 281//167
f 307//168 294//168 282//168
f 282//169 295//169 281//169
f 297//170 278//170 280//170
f 306//171 303//171 305//171
f 304//172 303//172 302//172
f 301//173 299//173 300//173
f 292//174 305//174 291//174
f 304//175 289//175 290//175
f 275//176 276//176 311//176
f 310//177 293//177 283//177
f 277//178 310//178 283//178
f 309//179 275//179 293//179
f 279//180 277//180 312//180
f 94//181 54//181 58//181
f 43//182 41//182 49//182
f 8//183 9//183 10//183
f 88//184 85//184 3//184
f 7//185 4//185 13//185
f 88//186 87//186 98//186
f 179//187 171//187 11//187
f 172//188 85//188 115//188
f 5//189 48//189 47//189
f 42//190 50//190 46//190
f 86//191 1//191 41//191
f 230//192 173//192 4//192
f 180//193 179//193 16//193
f 7//194 15//194 9//194
f 4//195 173//195 12//195
f 173//196 180//196 14//196
f 2//197 10//197 11//197
f 13//198 38//198 35//198
f 16//199 11//199 33//199
f 10//200 37//200 33//200
f 9//201 40//201 37//201
f 14//202 16//202 34//202
f 15//203 35//203 40//203
f 12//204 14//204 36//204
f 89//205 41//205 57//205
f 43//206 44//206 60//206
f 41//207 43//207 59//207
f 44//208 42//208 58//208
f 172//209 216//209 90//209
f 6//210 3//210 46//210
f 6//211 45//211 48//211
f 1//212 47//212 49//212
f 44//213 52//213 50//213
f 44//214 43//214 51//214
f 7//215 56//215 54//215
f 53//216 55//216 8//216
f 55//217 56//217 7//217
f 12//218 39//218 38//218
f 171//219 229//219 53//219
f 216//220 236//220 91//220
f 60//221 58//221 54//221
f 57//222 59//222 55//222
f 59//223 60//223 56//223
f 51//224 49//224 77//224
f 48//225 81//225 80//225
f 49//226 47//226 80//226
f 50//227 82//227 79//227
f 48//228 45//228 83//228
f 45//229 46//229 79//229
f 52//230 84//230 82//230
f 51//231 78//231 84//231
f 271//232 235//232 92//232
f 90//233 91//233 58//233
f 3//234 85//234 90//234
f 215//235 89//235 92//235
f 174//236 86//236 89//236
f 1//237 86//237 87//237
f 5//238 87//238 88//238
f 86//239 97//239 98//239
f 93//240 92//240 57//240
f 94//241 272//241 230//241
f 236//242 272//242 94//242
f 93//243 53//243 229//243
f 110//244 296//244 285//244
f 109//245 102//245 103//245
f 174//246 278//246 97//246
f 88//247 99//247 115//247
f 285//248 289//248 104//248
f 103//249 102//249 105//249
f 102//250 101//250 104//250
f 108//251 103//251 118//251
f 110//252 101//252 102//252
f 105//253 104//253 112//253
f 116//254 106//254 114//254
f 279//255 116//255 111//255
f 103//256 106//256 116//256
f 97//257 110//257 109//257
f 99//258 108//258 117//258
f 98//259 109//259 108//259
f 278//260 296//260 110//260
f 303//261 301//261 114//261
f 112//262 302//262 303//262
f 301//263 300//263 111//263
f 106//264 105//264 113//264
f 289//265 302//265 112//265
f 95//266 311//266 276//266
f 100//267 107//267 117//267
f 96//268 100//268 118//268
f 95//269 115//269 117//269
f 96//270 116//270 279//270
f 274//271 269//271 234//271
f 217//272 225//272 223//272
f 182//273 181//273 178//273
f 266//274 176//274 169//274
f 177//275 187//275 185//275
f 266//276 282//276 281//276
f 179//277 188//277 183//277
f 172//278 276//278 307//278
f 221//279 222//279 175//279
f 220//280 224//280 214//280
f 213//281 167//281 264//281
f 170//282 173//282 230//282
f 186//283 188//283 179//283
f 178//284 181//284 187//284
f 170//285 185//285 184//285
f 184//286 186//286 180//286
f 183//287 182//287 168//287
f 207//288 210//288 185//288
f 206//289 205//289 183//289
f 205//290 209//290 182//290
f 182//291 209//291 212//291
f 208//292 206//292 188//292
f 181//293 212//293 207//293
f 211//294 208//294 186//294
f 233//295 213//295 267//295
f 237//296 238//296 218//296
f 233//297 237//297 217//297
f 238//298 234//298 214//298
f 268//299 216//299 172//299
f 176//300 219//300 220//300
f 222//301 219//301 176//301
f 223//302 221//302 167//302
f 224//303 226//303 218//303
f 226//304 225//304 217//304
f 177//305 170//305 228//305
f 178//306 231//306 227//306
f 178//307 177//307 232//307
f 185//308 210//308 211//308
f 168//309 227//309 229//309
f 269//310 236//310 216//310
f 232//311 228//311 234//311
f 227//312 231//312 237//312
f 231//313 232//313 238//313
f 225//314 256//314 255//314
f 258//315 259//315 222//315
f 223//316 255//316 258//316
f 257//317 260//317 224//317
f 222//318 259//318 261//318
f 219//319 261//319 257//319
f 260//320 262//320 226//320
f 262//321 256//321 225//321
f 273//322 270//322 235//322
f 234//323 269//323 268//323
f 169//324 214//324 268//324
f 270//325 267//325 215//325
f 267//326 264//326 174//326
f 167//327 175//327 265//327
f 175//328 176//328 266//328
f 281//329 280//329 264//329
f 233//330 270//330 273//330
f 230//331 272//331 274//331
f 274//332 272//332 236//332
f 273//333 271//333 229//333
f 297//334 286//334 285//334
f 294//335 288//335 287//335
f 280//336 278//336 174//336
f 263//337 307//337 282//337
f 290//338 289//338 285//338
f 288//339 292//339 291//339
f 287//340 291//340 290//340
f 310//341 288//341 294//341
f 287//342 286//342 297//342
f 291//343 305//343 304//343
f 308//344 299//344 306//344
f 279//345 300//345 299//345
f 308//346 292//346 288//346
f 295//347 297//347 280//347
f 307//348 309//348 294//348
f 282//349 294//349 295//349
f 297//350 296//350 278//350
f 306//351 301//351 303//351
f 304//352 305//352 303//352
f 301//353 306//353 299//353
f 292//354 306//354 305//354
f 304//355 302//355 289//355
f 275//356 307//356 276//356
f 310//357 309//357 293//357
f 277//358 308//358 310//358
f 309//359 307//359 275//359
f 279//360 308//360 277//360
usemtl color_2
f 95//361 298//361 311//361
f 284//362 107//362 100//362
f 284//363 96//363 312//363
f 298//364 275//364 311//364
f 293//365 284//365 283//365
f 277//366 284//366 312//366
f 95//367 107//367 298//367
f 284//368 298//368 107//368
f 284//369 100//369 96//369
f 298//370 293//370 275//370
f 293//371 298//371 284//371
f 277//372 283//372 284//372
usemtl color_3
f 160//373 157//373 154//373
f 148//374 19//374 24//374
f 147//375 18//375 19//375
f 23//376 20//376 22//376
f 17//376 19//376 18//376
f 17//376 22//376 24//376
f 143//377 17//377 18//377
f 148//378 22//378 150//378
f 146//379 23//379 17//379
f 161//380 155//380 162//380
f 36//381 30//381 39//381
f 40//382 29//382 31//382
f 34//383 32//383 36//383
f 40//384 26//384 37//384
f 159//376 154//376 153//376
f 38//385 30//385 28//385
f 33//386 27//386 34//386
f 35//387 28//387 29//387
f 33//388 26//388 25//388
f 125//389 139//389 123//389
f 63//390 131//390 64//390
f 124//391 141//391 125//391
f 61//392 66//392 68//392
f 65//393 64//393 67//393
f 67//394 61//394 68//394
f 65//395 134//395 132//395
f 62//396 129//396 130//396
f 119//397 136//397 127//397
f 67//398 135//398 134//398
f 119//399 140//399 124//399
f 78//400 76//400 84//400
f 84//401 73//401 82//401
f 83//402 74//402 75//402
f 81//403 75//403 71//403
f 82//404 74//404 79//404
f 77//405 70//405 69//405
f 80//406 71//406 70//406
f 78//407 69//407 72//407
f 76//408 125//408 123//408
f 76//409 121//409 73//409
f 75//410 126//410 122//410
f 75//411 120//411 71//411
f 74//412 121//412 126//412
f 70//413 124//413 69//413
f 71//414 119//414 70//414
f 72//415 124//415 125//415
f 141//416 132//416 134//416
f 136//417 128//417 127//417
f 140//418 128//418 132//418
f 137//419 130//419 142//419
f 136//420 129//420 131//420
f 138//421 130//421 129//421
f 139//422 133//422 137//422
f 141//423 135//423 139//423
f 66//424 135//424 68//424
f 61//425 131//425 129//425
f 121//426 139//426 137//426
f 63//427 132//427 128//427
f 126//428 138//428 122//428
f 62//429 133//429 66//429
f 122//430 136//430 120//430
f 126//431 137//431 142//431
f 28//432 145//432 144//432
f 32//433 145//433 30//433
f 31//434 149//434 146//434
f 27//435 150//435 32//435
f 26//436 146//436 143//436
f 26//437 147//437 25//437
f 25//438 148//438 27//438
f 29//439 144//439 149//439
f 157//440 153//440 154//440
f 158//441 152//441 156//441
f 156//442 153//442 155//442
f 162//443 157//443 163//443
f 164//376 151//376 165//376
f 161//444 158//444 156//444
f 165//445 158//445 166//445
f 164//376 153//376 152//376
f 156//446 157//446 155//446
f 20//376 159//376 164//376
f 22//447 166//447 150//447
f 145//448 166//448 161//448
f 20//376 165//376 22//376
f 144//449 163//449 149//449
f 21//376 160//376 159//376
f 144//450 161//450 162//450
f 23//451 163//451 160//451
f 354//452 351//452 357//452
f 342//453 191//453 341//453
f 341//454 190//454 337//454
f 192//455 195//455 194//455
f 191//455 189//455 190//455
f 194//455 189//455 196//455
f 337//456 189//456 340//456
f 194//457 342//457 344//457
f 340//458 195//458 343//458
f 349//459 355//459 356//459
f 211//460 204//460 208//460
f 203//461 207//461 212//461
f 208//462 199//462 206//462
f 209//463 203//463 212//463
f 353//455 348//455 354//455
f 210//464 202//464 211//464
f 199//465 205//465 206//465
f 201//466 210//466 207//466
f 197//467 209//467 205//467
f 317//468 335//468 319//468
f 325//469 241//469 242//469
f 335//470 318//470 319//470
f 244//471 239//471 246//471
f 243//472 242//472 241//472
f 246//473 242//473 245//473
f 243//474 328//474 245//474
f 240//475 323//475 239//475
f 313//476 330//476 314//476
f 328//477 246//477 245//477
f 334//478 313//478 318//478
f 254//479 256//479 262//479
f 251//480 262//480 260//480
f 261//481 252//481 257//481
f 259//482 253//482 261//482
f 257//483 251//483 260//483
f 255//484 248//484 258//484
f 258//485 249//485 259//485
f 256//486 247//486 255//486
f 254//487 319//487 250//487
f 315//488 254//488 251//488
f 253//489 320//489 252//489
f 314//490 253//490 249//490
f 252//491 315//491 251//491
f 318//492 248//492 247//492
f 313//493 249//493 248//493
f 250//494 318//494 247//494
f 335//495 326//495 334//495
f 322//496 330//496 321//496
f 334//497 322//497 321//497
f 324//498 331//498 336//498
f 325//499 332//499 330//499
f 332//500 324//500 336//500
f 327//501 333//501 331//501
f 329//502 335//502 333//502
f 329//503 244//503 246//503
f 323//504 242//504 239//504
f 315//505 333//505 317//505
f 241//506 326//506 243//506
f 332//507 320//507 316//507
f 327//508 240//508 244//508
f 330//509 316//509 314//509
f 320//510 331//510 315//510
f 200//511 339//511 202//511
f 202//512 344//512 204//512
f 203//513 343//513 201//513
f 344//514 199//514 204//514
f 337//515 203//515 198//515
f 341//516 198//516 197//516
f 199//517 341//517 197//517
f 343//518 200//518 201//518
f 351//519 347//519 349//519
f 346//520 352//520 350//520
f 347//521 350//521 349//521
f 351//522 356//522 357//522
f 345//455 358//455 359//455
f 355//523 352//523 360//523
f 352//524 359//524 360//524
f 358//455 347//455 353//455
f 350//525 351//525 352//525
f 192//455 353//455 193//455
f 360//526 194//526 344//526
f 339//527 360//527 344//527
f 359//455 192//455 194//455
f 357//528 338//528 343//528
f 193//455 354//455 195//455
f 338//529 355//529 339//529
f 195//530 357//530 343//530
f 160//531 163//531 157//531
f 148//532 147//532 19//532
f 147//533 143//533 18//533
f 23//376 21//376 20//376
f 17//376 24//376 19//376
f 17//376 23//376 22//376
f 143//534 146//534 17//534
f 148//535 24//535 22//535
f 146//536 149//536 23//536
f 161//537 156//537 155//537
f 36//538 32//538 30//538
f 40//539 35//539 29//539
f 34//540 27//540 32//540
f 40//541 31//541 26//541
f 159//376 160//376 154//376
f 38//542 39//542 30//542
f 33//543 25//543 27//543
f 35//544 38//544 28//544
f 33//545 37//545 26//545
f 125//546 141//546 139//546
f 63//547 128//547 131//547
f 124//548 140//548 141//548
f 61//549 62//549 66//549
f 65//393 63//393 64//393
f 67//394 64//394 61//394
f 65//550 67//550 134//550
f 62//551 61//551 129//551
f 119//552 120//552 136//552
f 67//398 68//398 135//398
f 119//399 127//399 140//399
f 78//553 72//553 76//553
f 84//554 76//554 73//554
f 83//555 79//555 74//555
f 81//556 83//556 75//556
f 82//557 73//557 74//557
f 77//558 80//558 70//558
f 80//559 81//559 71//559
f 78//560 77//560 69//560
f 76//561 72//561 125//561
f 76//562 123//562 121//562
f 75//563 74//563 126//563
f 75//564 122//564 120//564
f 74//565 73//565 121//565
f 70//566 119//566 124//566
f 71//567 120//567 119//567
f 72//568 69//568 124//568
f 141//569 140//569 132//569
f 136//570 131//570 128//570
f 140//418 127//418 128//418
f 137//419 133//419 130//419
f 136//420 138//420 129//420
f 138//571 142//571 130//571
f 139//572 135//572 133//572
f 141//423 134//423 135//423
f 66//573 133//573 135//573
f 61//425 64//425 131//425
f 121//574 123//574 139//574
f 63//427 65//427 132//427
f 126//575 142//575 138//575
f 62//429 130//429 133//429
f 122//430 138//430 136//430
f 126//431 121//431 137//431
f 28//576 30//576 145//576
f 32//577 150//577 145//577
f 31//578 29//578 149//578
f 27//579 148//579 150//579
f 26//580 31//580 146//580
f 26//581 143//581 147//581
f 25//582 147//582 148//582
f 29//583 28//583 144//583
f 157//584 155//584 153//584
f 158//585 151//585 152//585
f 156//586 152//586 153//586
f 162//587 155//587 157//587
f 164//376 152//376 151//376
f 161//588 166//588 158//588
f 165//589 151//589 158//589
f 164//376 159//376 153//376
f 156//590 158//590 157//590
f 20//376 21//376 159//376
f 22//591 165//591 166//591
f 145//448 150//448 166//448
f 20//376 164//376 165//376
f 144//449 162//449 163//449
f 21//376 23//376 160//376
f 144//450 145//450 161//450
f 23//592 149//592 163//592
f 354//593 348//593 351//593
f 342//594 196//594 191//594
f 341//595 191//595 190//595
f 192//455 193//455 195//455
f 191//455 196//455 189//455
f 194//455 195//455 189//455
f 337//596 190//596 189//596
f 194//597 196//597 342//597
f 340//598 189//598 195//598
f 349//599 350//599 355//599
f 211//600 202//600 204//600
f 203//601 201//601 207//601
f 208//602 204//602 199//602
f 209//603 198//603 203//603
f 353//455 347//455 348//455
f 210//604 200//604 202//604
f 199//605 197//605 205//605
f 201//606 200//606 210//606
f 197//607 198//607 209//607
f 317//468 333//468 335//468
f 325//608 322//608 241//608
f 335//609 334//609 318//609
f 244//471 240//471 239//471
f 243//472 245//472 242//472
f 246//610 239//610 242//610
f 243//611 326//611 328//611
f 240//612 324//612 323//612
f 313//613 321//613 330//613
f 328//477 329//477 246//477
f 334//478 321//478 313//478
f 254//614 250//614 256//614
f 251//615 254//615 262//615
f 261//616 253//616 252//616
f 259//617 249//617 253//617
f 257//618 252//618 251//618
f 255//619 247//619 248//619
f 258//620 248//620 249//620
f 256//621 250//621 247//621
f 254//622 317//622 319//622
f 315//623 317//623 254//623
f 253//624 316//624 320//624
f 314//625 316//625 253//625
f 252//626 320//626 315//626
f 318//627 313//627 248//627
f 313//628 314//628 249//628
f 250//629 319//629 318//629
f 335//630 328//630 326//630
f 322//631 325//631 330//631
f 334//497 326//497 322//497
f 324//498 327//498 331//498
f 325//499 323//499 332//499
f 332//632 323//632 324//632
f 327//633 329//633 333//633
f 329//502 328//502 335//502
f 329//634 327//634 244//634
f 323//504 325//504 242//504
f 315//635 331//635 333//635
f 241//506 322//506 326//506
f 332//636 336//636 320//636
f 327//508 324//508 240//508
f 330//509 332//509 316//509
f 320//510 336//510 331//510
f 200//637 338//637 339//637
f 202//638 339//638 344//638
f 203//639 340//639 343//639
f 344//640 342//640 199//640
f 337//641 340//641 203//641
f 341//642 337//642 198//642
f 199//643 342//643 341//643
f 343//644 338//644 200//644
f 351//645 348//645 347//645
f 346//646 345//646 352//646
f 347//647 346//647 350//647
f 351//648 349//648 356//648
f 345//455 346//455 358//455
f 355//649 350//649 352//649
f 352//650 345//650 359//650
f 358//455 346//455 347//455
f 350//651 349//651 351//651
f 192//455 358//455 353//455
f 360//652 359//652 194//652
f 339//527 355//527 360//527
f 359//455 358//455 192//455
f 357//528 356//528 338//528
f 193//455 353//455 354//455
f 338//529 356//529 355//529
f 195//653 354//653 357//653
