# Blender v2.83.5 OBJ File: 'bio.blend'
# www.blender.org
mtllib bio_000005.mtl
o Cube
v -0.864983 -1.052558 -0.515003
v -0.676126 1.033028 -0.461558
v -0.755413 -1.011470 0.454148
v -0.671026 0.970836 0.475961
v -0.982041 -0.998546 -0.231866
v -0.954954 -0.956986 0.133200
v -0.859289 0.987846 0.191472
v -0.860296 1.014558 -0.179293
v -0.813462 1.293491 -0.088997
v -0.711175 1.306749 -0.265579
v -0.172476 1.282773 -0.254459
v -0.166007 1.225617 0.321514
v -0.709830 1.264189 0.317855
v -0.086674 1.232821 0.143317
v -0.812930 1.276660 0.141731
v -0.088950 1.260747 -0.058302
v -0.637125 3.885047 0.222886
v -0.572190 3.899720 0.110927
v -0.254644 3.898711 0.109900
v -0.254219 3.849321 0.480824
v -0.571766 3.850452 0.480938
v -0.174637 3.864005 0.368383
v -0.636958 3.865563 0.369213
v -0.174805 3.883489 0.222056
v -0.216412 2.628928 -0.112765
v -0.644597 2.641495 -0.109894
v -0.134770 2.611320 0.037247
v -0.643908 2.585513 0.363559
v -0.727580 2.602666 0.220633
v -0.215718 2.573184 0.361868
v -0.727851 2.624847 0.033410
v -0.134517 2.590702 0.211684
v -0.234222 2.507254 -0.106621
v -0.160310 2.495684 0.032152
v -0.705713 2.492025 0.200861
v -0.159967 2.482409 0.192402
v -0.629560 2.517612 -0.104261
v -0.628626 2.481532 0.332820
v -0.233287 2.470920 0.331539
v -0.706084 2.506268 0.028000
v -0.850438 -0.641757 -0.572609
v -0.791139 -0.537478 0.367068
v -0.904334 -0.660193 -0.381145
v -0.778304 -0.579634 -0.051999
v -1.076836 -0.540268 0.001957
v -0.923053 -0.519671 0.128094
v -1.194419 -0.755353 -0.368961
v -1.189697 -0.641506 -0.192830
v -0.947350 -0.757948 -0.504275
v -0.679917 -0.528290 -0.005984
v -0.822916 -0.665432 -0.394743
v -0.721450 -0.571412 -0.195529
v -0.698952 0.442783 -0.524235
v -0.697372 0.393330 0.473792
v -0.866286 0.381149 -0.250157
v -0.861573 0.364020 0.141111
v -0.714597 -0.420438 -0.557433
v -0.690495 -0.378055 0.405569
v -0.847105 -0.449504 -0.324941
v -0.817865 -0.418319 0.044550
v -1.202098 2.218284 -0.338034
v -1.120259 2.184760 -0.268157
v -1.306398 2.253435 -0.562661
v -1.275710 2.245442 -0.454500
v -1.154114 2.292345 -0.649838
v -0.967974 2.223670 -0.355334
v -1.053226 2.302289 -0.581864
v -0.979614 2.275131 -0.465397
v -1.058679 0.810958 -1.178920
v -1.307581 0.764395 -1.037508
v -1.276720 0.764973 -0.855065
v -0.913626 0.841666 -1.062041
v -0.759270 0.754431 -0.705170
v -1.008284 0.709620 -0.563917
v -1.157888 0.735935 -0.667149
v -0.794778 0.812230 -0.874572
v -1.034617 0.523866 -1.072855
v -0.914603 0.596899 -0.993629
v -1.009729 0.725317 -0.568894
v -1.252470 0.548568 -0.952547
v -1.232912 0.633880 -0.816591
v -0.791813 0.699410 -0.689789
v -1.136974 0.704330 -0.666066
v -0.818626 0.667155 -0.841693
v -0.643303 -1.087422 0.529925
v -0.706784 -1.161876 -0.572473
v -0.809997 -1.129416 -0.340816
v -0.727345 -1.156037 0.163825
v -0.370207 -0.515158 -0.532114
v -0.336252 -0.489247 0.534745
v -0.280745 -0.286361 0.531586
v -0.299224 -0.288078 -0.533740
v -0.290874 0.110596 -0.527309
v -0.270503 0.097215 0.516691
v -0.271188 -1.348476 0.498537
v -0.424214 -2.362964 0.465461
v -0.518631 -1.346606 -0.617835
v -0.709249 -1.240727 -0.335421
v -0.624246 -1.235798 0.180000
v -0.448258 -2.128706 0.491910
v -0.515651 -2.168880 -0.560485
v -0.706685 -2.130068 -0.331181
v -0.676480 -2.130068 0.242747
v -0.486649 -2.406798 -0.438054
v -0.651274 -2.406798 -0.262800
v -0.620455 -2.406798 0.210959
v -0.448682 -1.741660 0.489310
v -0.672408 -1.739450 0.255053
v -0.694307 -1.739450 -0.364348
v -0.508313 -1.820775 -0.629063
v -0.397384 -2.502897 0.433187
v -0.412208 -2.502897 -0.222781
v -0.528315 -2.502897 -0.169270
v -0.499902 -2.502897 0.204681
v -0.471993 -1.226747 0.446884
v -0.471433 -2.406798 0.434981
v -0.500227 -1.739450 0.461983
v -0.499800 -2.130068 0.465642
v -1.324164 2.033667 -0.645154
v -1.289395 2.023576 -0.514385
v -0.918597 1.997996 -0.396693
v -1.201179 1.991029 -0.374812
v -0.934553 2.059154 -0.527444
v -1.141666 2.080297 -0.749627
v -1.022769 2.091702 -0.667018
v -1.101095 1.951366 -0.292220
v -1.361610 2.073661 -0.653717
v -1.357599 2.174506 -0.620964
v -1.217009 2.115368 -0.324033
v -1.108633 2.082650 -0.227057
v -1.315466 2.151694 -0.479810
v -1.153914 2.226549 -0.737566
v -0.904948 2.134694 -0.343659
v -1.017888 2.227728 -0.650162
v -0.919430 2.191402 -0.494385
v -1.320078 2.049316 -0.505425
v -0.890349 2.032213 -0.365011
v -1.217572 2.011497 -0.343243
v -0.907759 2.090657 -0.520599
v -1.149551 2.127845 -0.775113
v -1.010265 2.128476 -0.682780
v -1.102408 1.978030 -0.243615
v -0.587709 3.630080 0.063815
v -0.587910 3.392444 0.442231
v -0.246570 3.388700 0.441764
v -0.656595 3.614532 0.182454
v -0.246370 3.626465 0.062383
v -0.166156 3.610167 0.182609
v -0.657067 3.408457 0.323840
v -0.166631 3.404458 0.321250
v -0.235227 3.774132 1.045008
v -0.294134 3.759378 1.157412
v -0.529317 3.760231 1.157379
v -0.577633 3.775286 1.045623
v -0.540749 3.569196 1.143193
v -0.287946 3.565750 1.142886
v -0.592004 3.585149 1.024770
v -0.228777 3.581578 1.022408
v -0.571642 3.836021 0.589313
v -0.636834 3.851133 0.477588
v -0.245784 3.563145 0.564269
v -0.587123 3.566889 0.564736
v -0.656281 3.582902 0.446345
v -0.254095 3.834890 0.589199
v -0.174513 3.849575 0.476758
v -0.165845 3.578902 0.443755
v 0.907232 -1.029242 -0.456411
v 0.647705 1.211355 -0.392643
v 0.711404 -1.057269 0.507203
v 0.685500 0.812137 0.447975
v -0.016853 1.176098 -0.418790
v 0.011423 -1.108063 0.570574
v 0.009076 1.066585 0.464920
v -0.012674 -1.169515 -0.655871
v 1.001654 -1.000002 -0.133827
v 0.931689 -1.011935 0.240600
v 0.858867 0.946880 0.198647
v 0.843687 1.119283 -0.130156
v -0.016196 1.261091 -0.120756
v -0.006457 1.175981 0.254744
v 0.772362 1.332608 0.067047
v 0.662953 1.405271 -0.089690
v 0.132838 1.314939 -0.151052
v 0.152614 1.091689 0.389293
v 0.686956 1.130183 0.426010
v 0.064391 1.167422 0.208372
v 0.781855 1.223819 0.270989
v 0.057660 1.240921 0.020016
v 0.640064 2.637351 -0.503664
v 0.573338 2.534906 -0.548577
v 0.257892 2.552242 -0.580700
v 0.264838 2.904071 -0.453468
v 0.580267 2.885870 -0.421659
v 0.183553 2.802014 -0.500012
v 0.642804 2.776145 -0.453472
v 0.180813 2.663219 -0.550204
v 0.062345 2.183166 0.591657
v 0.488908 2.176916 0.618486
v -0.014529 2.266875 0.657489
v 0.500698 2.458686 0.842233
v 0.580162 2.369590 0.781701
v 0.074219 2.456953 0.819966
v 0.575544 2.257067 0.693413
v -0.010219 2.370607 0.740257
v 0.074151 2.317697 0.570825
v 0.006126 2.284811 0.676662
v 0.554583 2.295944 0.823262
v 0.012227 2.246382 0.803376
v 0.466644 2.360367 0.581347
v 0.483259 2.252715 0.928620
v 0.090806 2.213523 0.917033
v 0.547978 2.339218 0.685848
v 0.906917 -0.535140 -0.530232
v 0.758911 -0.572436 0.420503
v -0.015345 -0.427282 -0.568486
v 0.015015 -0.427282 0.568479
v 0.948020 -0.532986 -0.235932
v 0.780622 -0.567172 0.108099
v 1.067383 -0.661378 0.268398
v 0.898224 -0.694184 0.368649
v 1.233346 -0.635983 -0.148926
v 1.205237 -0.641258 0.063836
v 1.006637 -0.535616 -0.307508
v 0.675402 -0.589347 0.213111
v 0.868947 -0.501637 -0.172353
v 0.741887 -0.523264 0.034414
v 0.714867 0.636283 -0.628825
v 0.749445 0.316784 0.289995
v -0.012692 0.545602 -0.529487
v 0.020411 0.495317 0.487829
v 0.900914 0.538089 -0.381010
v 0.905816 0.397240 -0.023817
v 0.760686 -0.325214 -0.576425
v 0.679202 -0.391930 0.384025
v -0.015000 -0.256634 -0.559669
v 0.014898 -0.256634 0.559666
v 0.888949 -0.349084 -0.302432
v 0.827480 -0.383465 0.066494
v 1.136001 1.115813 1.914783
v 1.047127 1.046834 1.907875
v 1.269742 1.318044 1.853241
v 1.224038 1.223067 1.893177
v 1.129752 1.427610 1.826734
v 0.907138 1.156401 1.881368
v 1.019516 1.383141 1.854450
v 0.931480 1.275887 1.876057
v 1.208594 1.164519 0.263329
v 1.437320 1.003162 0.325553
v 1.381161 0.857890 0.411110
v 1.047489 1.102550 0.329938
v 0.850200 0.783618 0.411237
v 1.079047 0.624160 0.475348
v 1.238981 0.700062 0.462358
v 0.905402 0.944843 0.380289
v 1.173067 0.842871 0.074450
v 1.043430 0.859818 0.165407
v 1.081083 0.689227 0.569227
v 1.372804 0.768993 0.202176
v 1.334965 0.751304 0.354284
v 0.881437 0.762596 0.439526
v 1.219922 0.721671 0.498924
v 0.928027 0.828380 0.311188
v 0.608507 -1.119135 0.558384
v 0.739320 -1.150916 -0.545583
v 0.837436 -1.127857 -0.283824
v 0.708185 -1.181431 0.217312
v 0.358316 -0.494762 -0.559737
v 0.347818 -0.499899 0.506292
v 0.307719 -0.293029 0.484950
v 0.282660 -0.275470 -0.558479
v -0.012397 0.154071 -0.561451
v 0.020181 0.125765 0.524301
v 0.277725 0.159330 -0.586232
v 0.311213 0.075005 0.436460
v 0.287756 -1.348476 0.489910
v 0.011836 -1.193502 0.553675
v 0.455231 -2.362964 0.435173
v -0.015289 -1.345398 -0.675473
v 0.017773 -2.447465 0.516072
v 0.518023 -1.344121 -0.625551
v 0.729339 -1.243484 -0.301432
v 0.609217 -1.253691 0.213163
v 0.478954 -2.128706 0.462259
v 0.018947 -2.130068 0.550148
v -0.020283 -2.168880 -0.588936
v 0.480399 -2.168880 -0.591271
v 0.687442 -2.130068 -0.370303
v 0.689659 -2.130068 0.203407
v -0.016037 -2.406798 -0.465646
v 0.455840 -2.406798 -0.470068
v 0.632836 -2.406798 -0.304770
v 0.633235 -2.406798 0.168961
v 0.473313 -1.741660 0.466170
v 0.682304 -1.739450 0.229727
v 0.682492 -1.739450 -0.387943
v -0.021661 -1.820775 -0.654988
v 0.476382 -1.820775 -0.654279
v 0.018828 -1.739450 0.553377
v 0.426244 -2.502897 0.404822
v 0.016966 -2.543563 0.492632
v 0.006083 -2.543563 0.176641
v -0.008416 -2.543563 -0.244383
v -0.001809 -2.543563 -0.052516
v 0.395904 -2.502897 -0.250612
v 0.515418 -2.502897 -0.205215
v 0.512799 -2.502897 0.169804
v 0.467581 -1.238651 0.445996
v 0.500242 -2.406798 0.401517
v 0.522434 -1.739450 0.437521
v 0.528213 -2.130068 0.433402
v 0.011883 -1.347232 0.529892
v 0.017982 -2.402270 0.522145
v 1.313807 1.281981 1.624819
v 1.260881 1.166717 1.673029
v 0.879263 1.088268 1.658527
v 1.155378 1.038183 1.698921
v 0.910279 1.230016 1.652511
v 1.146044 1.413285 1.593053
v 1.015783 1.358549 1.626619
v 1.047027 0.956963 1.690293
v 1.349409 1.305075 1.660515
v 1.334028 1.325656 1.763464
v 1.155384 1.052478 1.833402
v 1.036275 0.962906 1.836538
v 1.273135 1.195934 1.804503
v 1.146788 1.472204 1.728009
v 0.849035 1.109454 1.801084
v 0.999583 1.410037 1.752705
v 0.881832 1.266581 1.781604
v 1.288158 1.168342 1.703649
v 0.844477 1.079985 1.699684
v 1.165566 1.018988 1.733736
v 0.880766 1.241894 1.679808
v 1.154472 1.457649 1.623604
v 1.003359 1.391247 1.649721
v 1.039415 0.927412 1.736595
v 0.556530 2.431751 -0.295116
v 0.543016 2.751581 0.016641
v 0.203654 2.770282 -0.015169
v 0.627312 2.540302 -0.247516
v 0.217149 2.449535 -0.327258
v 0.139858 2.568190 -0.294031
v 0.609360 2.635305 -0.017063
v 0.121855 2.660589 -0.064519
v 0.257179 3.440269 -0.261782
v 0.317925 3.543483 -0.217319
v 0.551539 3.529891 -0.193801
v 0.597312 3.421110 -0.227313
v 0.540734 3.475518 -0.010081
v 0.289321 3.489265 -0.032978
v 0.589295 3.360244 -0.045587
v 0.228154 3.378409 -0.080237
v 0.582297 2.988667 -0.384485
v 0.644834 2.878941 -0.416298
v 0.226934 2.926318 -0.158514
v 0.566296 2.907617 -0.126704
v 0.632640 2.791341 -0.160408
v 0.266867 3.006867 -0.416294
v 0.185583 2.904810 -0.462838
v 0.145134 2.816624 -0.207864
vn -0.3029 0.0451 0.9520
vn 0.0510 -0.7908 0.6100
vn -0.8156 0.2642 -0.5148
vn -0.6523 -0.7018 0.2864
vn -0.8348 0.2209 0.5043
vn -0.6189 -0.7778 0.1095
vn 0.0667 0.9943 0.0832
vn -0.1990 -0.1911 0.9612
vn -0.6989 -0.6981 -0.1558
vn 0.4035 0.5972 0.6933
vn 0.0784 0.0214 -0.9967
vn -0.0191 -0.0029 0.9998
vn 0.3708 0.9078 0.1961
vn -0.9868 0.1612 0.0140
vn 0.0279 0.4771 0.8784
vn 0.4195 0.8176 0.3945
vn -0.1273 0.7726 -0.6221
vn -0.8603 0.0512 0.5072
vn 0.9203 0.0812 -0.3827
vn 0.0259 0.1211 -0.9923
vn -0.8635 0.1234 -0.4890
vn 0.9983 0.0587 -0.0031
vn -0.9961 0.0873 0.0093
vn 0.9119 0.0460 0.4078
vn 0.0657 -0.0277 -0.9975
vn -0.9509 -0.2930 0.1000
vn -0.7766 0.5027 -0.3798
vn -0.8454 0.4745 0.2453
vn -0.0612 0.0234 0.9979
vn -0.6376 0.0555 0.7683
vn -0.8522 -0.5089 0.1212
vn -0.4865 -0.1044 -0.8674
vn 0.4217 -0.9008 0.1035
vn 0.3600 -0.9286 0.0894
vn -0.8324 0.0359 0.5530
vn -0.8368 0.0897 -0.5401
vn -1.0000 0.0034 0.0030
vn 0.0029 -0.0125 0.9999
vn 0.0263 0.1730 -0.9846
vn -0.1031 0.0437 0.9937
vn -0.8941 -0.0474 0.4454
vn -0.8565 0.0353 -0.5150
vn -0.9983 -0.0570 0.0095
vn 0.6437 -0.2893 -0.7084
vn -0.9988 -0.0252 0.0431
vn -0.4795 -0.3829 -0.7896
vn 0.4409 0.4616 0.7698
vn -0.8659 0.1958 0.4603
vn -0.6038 0.3541 0.7142
vn 0.9777 -0.0268 -0.2081
vn 0.9073 -0.1363 -0.3978
vn -0.1211 -0.0035 -0.9926
vn -0.3450 -0.0089 0.9386
vn -0.3556 0.1429 0.9236
vn -0.0964 0.0516 -0.9940
vn -0.1295 0.1155 -0.9848
vn -0.6498 -0.7496 -0.1256
vn -0.6625 -0.7371 0.1331
vn -0.7166 -0.6596 -0.2268
vn 0.0234 0.0380 -0.9990
vn -0.0331 0.0963 0.9948
vn -0.0986 0.0412 0.9943
vn -0.1337 0.0805 -0.9877
vn -0.0563 -0.1918 -0.9798
vn -0.9986 0.0088 0.0526
vn -0.1171 0.1228 -0.9855
vn -0.5027 -0.8054 0.3141
vn -0.0509 -0.4619 -0.8855
vn -0.9767 -0.2050 0.0635
vn -0.6952 -0.3006 -0.6530
vn -0.7687 0.0052 0.6396
vn -0.8212 -0.0224 -0.5701
vn -0.2411 -0.8175 -0.5230
vn -0.7437 -0.5793 0.3337
vn -0.1604 -0.2326 0.9592
vn -0.7751 -0.1475 0.6144
vn -0.8275 0.0078 -0.5614
vn -0.7673 0.0611 0.6384
vn -0.9943 0.1003 0.0352
vn -0.1138 0.0210 -0.9933
vn -0.0783 -0.9969 0.0060
vn -0.0517 -0.9923 -0.1123
vn -0.0781 -0.9963 0.0351
vn -0.6211 -0.7823 0.0472
vn -0.0235 -0.9159 -0.4007
vn -0.2187 0.0527 0.9744
vn -0.4542 0.0055 0.8909
vn -0.4394 -0.1433 0.8868
vn -0.4542 0.1846 0.8716
vn -0.1375 -0.1313 0.9818
vn 0.2648 0.1010 0.9590
vn 0.0307 0.9995 -0.0116
vn 0.7572 0.5321 -0.3787
vn 0.5984 -0.7389 0.3098
vn 0.8111 0.0366 0.5838
vn 0.7174 -0.6877 0.1115
vn -0.3739 0.8921 -0.2536
vn 0.0021 -0.6864 0.7272
vn 0.8241 -0.5325 -0.1930
vn 0.4347 0.1171 0.8929
vn 0.0544 0.0101 -0.9985
vn 0.1881 -0.2763 0.9425
vn -0.1608 0.9617 0.2221
vn 0.9658 0.2453 0.0840
vn 0.2623 0.6497 0.7135
vn 0.0848 0.8864 0.4551
vn -0.0298 0.8941 -0.4469
vn 0.8688 -0.0685 0.4905
vn -0.9268 0.1822 -0.3284
vn -0.0056 0.5840 -0.8117
vn 0.8214 0.4312 -0.3734
vn -0.9983 -0.0576 0.0132
vn 0.9811 0.1858 0.0535
vn -0.9089 -0.2343 0.3451
vn -0.0383 -0.0075 -0.9992
vn 0.9139 0.3608 0.1859
vn 0.8061 0.4879 -0.3349
vn 0.8991 -0.1351 0.4163
vn 0.0220 0.0930 0.9954
vn 0.7739 -0.1649 0.6114
vn 0.8271 -0.5450 0.1372
vn 0.9110 -0.0604 -0.4080
vn 0.2040 -0.9790 -0.0023
vn -0.5764 -0.7367 -0.3537
vn 0.9005 -0.0949 0.4244
vn 0.8118 0.3005 -0.5007
vn 0.9954 0.0961 0.0044
vn -0.0327 -0.4134 0.9100
vn -0.1541 0.1699 -0.9733
vn 0.2114 0.1408 0.9672
vn 0.8983 -0.0395 0.4375
vn 0.8007 0.0055 -0.5990
vn 0.9997 -0.0152 -0.0197
vn -0.6377 0.2762 -0.7191
vn 0.9835 -0.1293 0.1267
vn 0.6074 0.1353 -0.7828
vn -0.5846 -0.0402 0.8103
vn 0.8238 -0.1804 0.5374
vn 0.5275 -0.1898 0.8281
vn -0.9410 0.1903 -0.2798
vn -0.8416 0.2172 -0.4945
vn -0.0850 -0.0038 -0.9964
vn 0.2448 0.2948 0.9237
vn 0.3280 0.2154 0.9198
vn 0.0073 0.0516 -0.9986
vn 0.0444 0.1170 -0.9921
vn 0.6364 -0.7519 -0.1723
vn 0.5774 -0.8141 0.0619
vn 0.7294 -0.6490 -0.2162
vn -0.0360 -0.0561 -0.9978
vn 0.2783 0.0755 0.9575
vn 0.2597 0.1237 0.9577
vn -0.1401 0.0400 -0.9893
vn 0.0014 -0.1864 -0.9825
vn 0.9998 0.0188 0.0003
vn 0.1349 0.2431 -0.9606
vn 0.4737 -0.8315 0.2903
vn -0.0042 -0.4536 -0.8912
vn 0.9809 -0.1945 -0.0038
vn 0.7079 -0.3772 -0.5971
vn 0.7926 0.0053 0.6098
vn 0.7933 -0.0174 -0.6086
vn 0.2941 -0.9024 -0.3149
vn 0.5887 -0.7349 0.3367
vn 0.2404 -0.1522 0.9587
vn 0.8096 -0.1473 0.5683
vn 0.8351 0.0170 -0.5498
vn 0.8537 0.0848 0.5138
vn 0.9618 0.1525 0.2275
vn 0.0930 0.0518 -0.9943
vn 0.0785 -0.9969 0.0005
vn 0.1000 -0.9950 -0.0034
vn 0.0982 -0.9952 -0.0034
vn 0.6331 -0.7741 -0.0005
vn -0.0038 -0.9156 -0.4020
vn 0.1411 -0.1513 0.9784
vn 0.5039 -0.0014 0.8638
vn 0.4967 -0.1492 0.8550
vn 0.4896 0.1795 0.8533
vn 0.2047 -0.1313 0.9700
vn -0.1601 -0.0884 0.9831
vn -0.8038 0.5696 -0.1714
vn -0.8373 0.2905 -0.4632
vn -0.6615 -0.6949 0.2821
vn -0.8137 0.1887 0.5498
vn -0.7407 -0.6663 0.0862
vn 0.3459 0.9021 -0.2580
vn -0.0688 -0.5718 0.8175
vn -0.7947 -0.4999 0.3444
vn -0.9501 -0.1242 -0.2863
vn -0.4071 -0.1127 -0.9064
vn 0.0106 0.0403 0.9991
vn 0.1113 0.9846 0.1351
vn -0.9869 0.1609 0.0143
vn -0.0748 0.6211 0.7801
vn 0.3663 0.9088 0.1998
vn 0.0428 0.5852 -0.8097
vn -0.8606 0.0512 0.5068
vn 0.8816 0.1001 -0.4612
vn -0.0025 0.1322 -0.9912
vn -0.8627 0.1237 -0.4904
vn 0.9983 0.0575 0.0026
vn -0.9961 0.0875 0.0087
vn 0.8830 0.0334 0.4681
vn 0.0788 0.0200 -0.9967
vn -0.9335 0.1693 0.3160
vn -0.9220 0.3117 -0.2295
vn -0.9720 -0.2347 -0.0062
vn -0.0962 0.0036 0.9954
vn -0.8421 0.0677 0.5350
vn -0.8440 -0.0798 0.5305
vn -0.4787 -0.1021 -0.8720
vn 0.4174 -0.9016 0.1137
vn 0.0121 -0.9066 0.4217
vn -0.8951 -0.0326 0.4447
vn -0.8581 0.0651 -0.5093
vn -0.9999 0.0081 0.0124
vn -0.0073 -0.0084 0.9999
vn -0.0236 0.1065 -0.9940
vn -0.0995 0.0512 0.9937
vn -0.9355 -0.0943 0.3406
vn -0.8698 0.0243 -0.4927
vn -0.9962 -0.0303 0.0814
vn 0.7343 -0.2328 -0.6376
vn -0.9917 0.0277 0.1253
vn -0.4470 -0.3819 -0.8089
vn 0.4717 0.4615 0.7514
vn -0.8889 0.1826 0.4202
vn -0.6218 0.3492 0.7010
vn 0.9851 -0.0121 -0.1713
vn 0.8663 -0.1613 -0.4727
vn -0.0928 0.0180 -0.9955
vn -0.3129 0.1003 0.9445
vn -0.4402 0.2190 0.8708
vn -0.1085 0.0268 -0.9937
vn -0.1171 0.1224 -0.9855
vn -0.5994 -0.7849 -0.1571
vn -0.5832 -0.8106 0.0528
vn -0.7095 -0.6664 -0.2290
vn 0.0522 0.0150 -0.9985
vn -0.0357 0.0982 0.9945
vn -0.0351 0.0925 0.9951
vn -0.0076 -0.0001 -1.0000
vn -0.0523 -0.1864 -0.9811
vn -0.9988 0.0346 0.0353
vn -0.1133 0.1117 -0.9873
vn -0.6146 -0.7377 0.2794
vn -0.0520 -0.4602 -0.8863
vn -0.9816 -0.1838 0.0517
vn -0.7422 -0.3759 -0.5547
vn -0.7836 -0.0114 0.6211
vn -0.7727 -0.1070 -0.6257
vn -0.3136 -0.9027 -0.2945
vn -0.5655 -0.7340 0.3762
vn -0.1739 -0.1522 0.9729
vn -0.8110 -0.2262 0.5395
vn -0.8188 -0.0042 -0.5740
vn -0.8604 0.1546 0.4856
vn -0.9859 -0.0390 0.1630
vn -0.0531 -0.0423 -0.9977
vn -0.0800 -0.9968 0.0028
vn -0.1000 -0.9950 0.0034
vn -0.0982 -0.9952 0.0034
vn -0.6346 -0.7718 0.0413
vn -0.1131 -0.8469 -0.5196
vn -0.1082 -0.1520 0.9824
vn -0.4681 0.0078 0.8836
vn -0.4462 -0.1455 0.8830
vn -0.2255 0.0411 0.9734
vn -0.1823 -0.4214 0.8884
vn 0.2904 0.1223 0.9491
vn -0.6347 -0.5908 -0.4981
vn 0.7869 0.5397 -0.2991
vn 0.5501 -0.7698 0.3236
vn 0.8263 0.0843 0.5568
vn 0.5821 -0.8042 0.1199
vn -0.2763 0.9204 0.2768
vn 0.2080 -0.1888 0.9597
vn 0.8414 -0.5315 0.0980
vn 0.5659 0.7715 -0.2908
vn 0.5343 -0.1246 -0.8361
vn 0.0404 0.0408 0.9983
vn 0.3253 0.8848 0.3336
vn 0.9654 0.2459 0.0863
vn -0.0733 0.0690 0.9949
vn 0.2774 0.9269 0.2527
vn -0.0815 0.8413 -0.5344
vn 0.8411 -0.0864 0.5339
vn -0.8478 0.2517 -0.4667
vn -0.0398 0.5689 -0.8214
vn 0.7424 0.4631 -0.4841
vn -0.9975 -0.0640 0.0286
vn 0.9798 0.1996 0.0158
vn -0.8260 -0.2766 0.4911
vn 0.0389 -0.1888 -0.9812
vn 0.8964 -0.1328 0.4229
vn 0.9565 0.2583 -0.1355
vn 0.9072 0.4148 0.0700
vn 0.1841 0.0021 0.9829
vn 0.5291 -0.2686 0.8049
vn 0.7933 -0.3467 0.5005
vn 0.6034 0.1165 -0.7889
vn -0.2227 -0.8845 -0.4100
vn -0.3747 -0.8697 -0.3212
vn 0.8356 -0.0661 0.5453
vn 0.8166 0.2946 -0.4963
vn 0.9968 0.0782 0.0172
vn 0.0157 -0.4249 0.9051
vn 0.0161 0.3815 -0.9242
vn 0.2528 0.0501 0.9662
vn 0.9059 -0.0338 0.4221
vn 0.9029 -0.0500 -0.4270
vn 0.9844 -0.0807 0.1565
vn -0.5297 0.2676 -0.8049
vn 0.9649 -0.1366 0.2241
vn 0.5721 0.1541 -0.8055
vn -0.5578 -0.0537 0.8282
vn 0.7867 -0.1954 0.5856
vn 0.4790 -0.1955 0.8558
vn -0.9505 0.1824 -0.2516
vn -0.7855 0.2420 -0.5696
vn -0.0000 -0.0637 -0.9980
vn 0.2972 0.1548 0.9422
vn 0.2272 0.1498 0.9622
vn 0.0261 0.0147 -0.9996
vn 0.1433 0.0619 -0.9877
vn 0.6824 -0.7185 -0.1346
vn 0.5963 -0.7981 0.0860
vn 0.6860 -0.6892 -0.2333
vn -0.0441 -0.0641 -0.9970
vn 0.3026 0.0934 0.9485
vn 0.3013 0.0837 0.9499
vn -0.0863 0.0810 -0.9930
vn -0.0046 -0.1782 -0.9840
vn 0.9999 0.0125 -0.0039
vn 0.0924 0.1089 -0.9897
vn 0.5363 -0.7561 0.3751
vn -0.0083 -0.4602 -0.8878
vn 0.9799 -0.1997 -0.0008
vn 0.6523 -0.2941 -0.6985
vn 0.8183 -0.0233 0.5744
vn 0.7349 -0.1126 -0.6688
vn 0.2062 -0.8142 -0.5428
vn 0.7649 -0.5793 0.2817
vn 0.2261 -0.2326 0.9459
vn 0.8443 -0.2323 0.4829
vn 0.7953 -0.0330 -0.6054
vn 0.7849 0.1387 0.6039
vn 0.9956 -0.0941 0.0003
vn 0.0014 -0.0431 -0.9991
vn 0.0800 -0.9968 -0.0028
vn 0.0439 -0.9923 -0.1156
vn 0.0804 -0.9963 0.0296
vn 0.6237 -0.7816 0.0044
vn 0.0771 -0.8469 -0.5261
vn 0.2309 0.0109 0.9729
vn 0.5054 -0.0016 0.8629
vn 0.4952 -0.1487 0.8559
vn 0.2321 0.0090 0.9727
vn 0.2430 -0.4214 0.8737
vn -0.1102 0.0575 0.9923
vn -0.1237 0.0065 0.9923
vn -0.1353 -0.1009 0.9856
vn 0.1434 0.0617 0.9877
vn 0.1877 -0.0072 0.9822
vn 0.2028 -0.1009 0.9740
vn -0.1358 0.0381 0.9900
vn -0.1357 -0.0082 0.9907
vn -0.1231 -0.1238 0.9846
vn 0.1885 0.0297 0.9816
vn 0.1884 -0.0081 0.9821
vn 0.1864 -0.1315 0.9736
vn -0.9918 0.0627 0.1117
vn 0.8168 0.1077 -0.5668
vn -0.0026 0.1719 -0.9851
vn 0.0036 0.9912 0.1320
vn -0.8647 0.1343 -0.4839
vn 0.9996 0.0148 0.0254
vn -0.9975 0.0702 0.0105
vn -0.0110 -0.9999 0.0049
vn 0.8587 -0.2757 0.4321
vn -0.9836 -0.1800 -0.0127
vn 0.9742 -0.2240 -0.0279
vn -0.8513 -0.1265 -0.5093
vn -0.0044 -0.2841 0.9588
vn 0.8638 -0.1699 -0.4743
vn -0.8443 -0.2514 0.4732
vn -0.0073 -0.0494 -0.9988
vn 0.6925 -0.4700 -0.5473
vn -0.9085 0.3095 0.2806
vn 0.5312 -0.4799 -0.6982
vn 0.0104 0.9062 0.4226
vn -0.1790 0.9761 0.1229
vn -0.0857 0.9569 0.2773
vn 0.3538 0.7487 -0.5607
vn -0.6074 0.2361 0.7585
vn -0.7368 -0.6692 0.0965
vn 0.7184 0.6233 -0.3087
vn -0.3366 -0.4876 -0.8056
vn 0.8670 -0.2413 -0.4361
vn 0.8549 -0.5171 -0.0411
vn -0.5726 -0.3535 0.7397
vn -0.8469 -0.1318 0.5152
vn -0.4266 -0.3088 -0.8501
vn -0.4138 -0.3458 -0.8421
vn -0.9693 -0.1827 0.1645
vn 0.6400 -0.2092 -0.7393
vn 0.8461 0.2289 -0.4814
vn 0.9755 0.1620 -0.1492
vn -0.6686 -0.1905 0.7188
vn -0.8461 -0.1472 0.5123
vn 0.5193 -0.1455 0.8421
vn -0.5132 0.2447 -0.8227
vn -0.9839 -0.0644 0.1666
vn 0.5253 0.2978 -0.7971
vn 0.5133 0.3033 -0.8029
vn -0.9639 -0.0468 0.2623
vn -0.5299 0.2810 -0.8002
vn 0.5140 -0.1042 0.8514
vn -0.8513 -0.0910 0.5168
vn -0.6826 -0.1293 0.7192
vn 0.9870 0.1517 -0.0534
vn 0.8466 0.2237 -0.4829
vn 0.8270 0.5377 0.1640
vn -0.8085 0.1928 0.5560
vn 0.8497 -0.4552 -0.2661
vn -0.4807 0.7010 -0.5268
vn -0.5286 -0.8108 0.2512
vn 0.3837 0.3821 0.8407
vn -0.5962 -0.7787 0.1953
vn 0.4500 -0.7778 0.4388
vn 0.0003 -0.0971 0.9953
vn 0.8345 -0.0224 0.5506
vn -0.9948 0.0591 0.0829
vn 0.9992 0.0390 0.0032
vn -0.8635 0.1351 -0.4860
vn -0.0015 0.1729 -0.9849
vn 0.8338 0.1051 -0.5420
vn -0.8624 0.0106 0.5061
vn -0.9163 0.0254 0.3996
vn 0.8978 -0.0043 0.4404
vn 0.0002 -0.0741 0.9973
vn -0.2820 -0.9588 0.0351
vn 0.3089 -0.9507 0.0268
vn 0.9940 0.0187 0.1080
vn 0.0137 0.9917 0.1277
vn 0.9991 0.0212 -0.0365
vn 0.8022 -0.3456 0.4869
vn -0.8385 -0.3107 0.4478
vn -0.0052 -0.5747 0.8184
vn -0.9974 0.0711 0.0106
vn 0.9957 0.0620 0.0687
vn -0.8327 -0.4535 -0.3176
vn -0.0127 -0.9259 -0.3777
vn 0.1137 0.3359 -0.9350
vn 0.8567 -0.4951 -0.1449
vn -0.9899 0.0861 -0.1123
vn 0.9970 0.0017 0.0770
vn -0.1025 -0.2045 0.9735
vn -0.7829 0.1837 0.5944
vn 0.8966 -0.4083 -0.1717
vn -0.9833 -0.1816 -0.0077
vn -0.7859 0.0297 0.6177
vn -0.0639 0.3659 0.9285
vn 0.5822 -0.8035 0.1245
vn 0.7762 0.1868 0.6021
vn -0.0472 0.1927 0.9801
vn -0.5720 0.3171 -0.7565
vn 0.8350 -0.1838 0.5186
vn -0.3899 0.4279 -0.8154
vn -0.1318 0.0708 0.9887
vn 0.0947 0.3468 0.9331
vn -0.0188 0.2123 0.9770
vn -0.2919 0.9090 0.2975
vn 0.4547 -0.6471 0.6119
vn 0.6481 -0.5274 -0.5494
vn -0.7043 0.6400 0.3072
vn 0.4828 0.4326 -0.7614
vn -0.7892 0.1927 -0.5832
vn -0.1353 -0.8609 -0.4904
vn -0.4313 0.7459 -0.5076
vn -0.7799 0.2687 -0.5653
vn 0.5600 0.6752 -0.4801
vn 0.5851 0.2459 -0.7728
vn 0.8707 -0.4641 0.1626
vn -0.4580 0.4872 -0.7435
vn -0.7576 0.6366 -0.1442
vn -0.9478 0.3140 -0.0546
vn 0.4317 -0.8670 0.2489
vn 0.7592 -0.6118 0.2221
vn -0.5975 -0.7757 0.2034
vn 0.5940 0.7954 -0.1209
vn 0.9487 -0.2784 0.1499
vn -0.4188 0.8888 -0.1860
vn -0.4198 0.8942 -0.1556
vn 0.9157 -0.3452 0.2058
vn 0.6225 0.7801 -0.0629
vn -0.6260 -0.7409 0.2435
vn 0.7699 -0.5770 0.2725
vn 0.5662 -0.7709 0.2916
vn -0.9761 0.2164 -0.0190
vn -0.7790 0.6112 -0.1401
vn -0.8755 0.1980 0.4407
vn 0.7034 -0.4699 0.5333
vn -0.6505 0.1105 -0.7514
vn 0.5062 0.7498 0.4260
vn 0.5377 -0.6619 -0.5223
vn -0.5275 -0.5096 0.6797
vn 0.6106 -0.6043 -0.5119
vn -0.4579 -0.7134 -0.5306
vn -0.0220 0.9372 0.3482
vn -0.7629 0.6352 0.1201
vn 0.9983 -0.0552 0.0181
vn -0.9847 0.1319 -0.1141
vn 0.7401 -0.6541 -0.1562
vn 0.0034 -0.9606 -0.2779
vn -0.8078 -0.5114 -0.2930
vn 0.7994 0.5521 0.2368
vn 0.9266 0.3423 0.1558
vn -0.8765 0.4813 0.0055
vn 0.0264 0.9581 0.2851
vn 0.1724 -0.1822 0.9680
vn -0.3446 -0.1593 0.9251
vn -0.9811 0.1672 -0.0978
vn 0.1067 0.3395 -0.9345
vn -0.9909 0.0269 -0.1317
vn -0.8187 0.4500 0.3568
vn 0.8130 0.3235 0.4842
vn -0.0314 0.6787 0.7337
vn 0.9930 -0.1112 0.0402
vn -0.9922 0.0591 0.1100
vn 0.8333 0.1195 -0.5398
vn -0.0023 0.1722 -0.9851
vn -0.8645 0.1346 -0.4843
vn 0.9995 0.0312 0.0030
vn -0.9978 0.0386 0.0530
vn -0.0136 -0.9999 0.0035
vn 0.8590 -0.2784 0.4297
vn -0.9815 -0.1902 -0.0211
vn 0.9765 -0.2148 -0.0199
vn -0.8528 -0.1335 -0.5049
vn -0.0045 -0.2836 0.9589
vn 0.8608 -0.1505 -0.4862
vn -0.8463 -0.2616 0.4641
vn -0.0081 -0.0464 -0.9989
vn 0.6925 -0.4701 -0.5473
vn -0.8852 0.3386 0.3189
vn 0.5218 -0.3342 -0.7849
vn 0.3390 0.7178 -0.6082
vn -0.5905 0.1922 0.7838
vn -0.6209 -0.7768 0.1052
vn 0.8230 -0.1560 -0.5462
vn 0.9384 -0.2155 -0.2702
vn 0.6155 -0.1861 -0.7658
vn -0.6644 -0.4184 0.6193
vn 0.4811 -0.0397 0.8758
vn -0.4741 -0.4247 -0.7713
vn -0.9325 -0.2299 0.2784
vn 0.6279 -0.2229 -0.7457
vn 0.8379 0.2296 -0.4951
vn 0.9899 0.1279 -0.0610
vn -0.5800 -0.2153 0.7857
vn -0.8513 -0.1467 0.5038
vn 0.5078 -0.1456 0.8491
vn -0.5280 0.2445 -0.8133
vn -0.9650 -0.0775 0.2506
vn 0.5599 0.2981 -0.7731
vn 0.5218 0.3233 -0.7894
vn -0.9591 -0.0273 0.2819
vn -0.6717 -0.1546 0.7245
vn 0.9908 0.1271 -0.0474
vn 0.7987 0.5845 0.1432
vn 0.7491 -0.5603 -0.3535
vn -0.5515 -0.7376 0.3897
vn 0.0011 -0.0975 0.9952
vn 0.8807 -0.0289 0.4728
vn -0.9963 0.0857 0.0116
vn 0.9988 0.0254 0.0411
vn -0.8644 0.1352 -0.4842
vn -0.0023 0.1732 -0.9849
vn 0.8785 0.1081 -0.4654
vn -0.8628 0.0106 0.5054
vn -0.9162 0.0251 0.3999
vn 0.8868 -0.0245 0.4615
vn -0.0004 -0.0748 0.9972
vn -0.3658 -0.9301 0.0330
vn 0.2370 -0.9710 0.0303
vn 0.9938 0.0205 0.1089
vn 0.0106 0.9907 0.1354
vn 0.9995 0.0316 0.0031
vn -0.9966 0.0503 -0.0653
vn 0.9958 0.0644 0.0655
vn -0.8186 -0.4833 -0.3102
vn -0.0125 -0.9260 -0.3773
vn 0.8569 -0.4948 -0.1445
vn -0.9888 0.0676 -0.1330
vn 0.9988 -0.0332 0.0372
vn -0.0999 -0.2060 0.9734
vn -0.7651 0.1764 0.6193
vn -0.8866 -0.2624 0.3809
vn -0.1884 -0.6077 0.7715
vn -0.5826 -0.1215 0.8036
vn -0.0496 0.3899 0.9195
vn 0.6822 0.0530 0.7292
vn 0.7003 0.1505 0.6978
vn -0.0597 0.1579 0.9857
vn 0.8045 -0.2008 0.5590
vn -0.3775 0.5728 -0.7276
vn -0.3155 0.8840 0.3449
vn 0.4722 -0.6055 0.6406
vn 0.7567 -0.4792 -0.4446
vn -0.6791 0.4196 -0.6023
vn -0.8133 0.1718 -0.5558
vn -0.3798 0.6961 -0.6093
vn 0.7411 -0.5365 0.4038
vn 0.5773 0.8160 -0.0311
vn 0.4923 0.3997 -0.7732
vn 0.9460 -0.3102 0.0942
vn -0.4877 0.4954 -0.7188
vn -0.7790 0.6124 -0.1343
vn -0.9763 0.2118 -0.0437
vn 0.5674 -0.7837 0.2527
vn 0.7757 -0.5935 0.2147
vn -0.6272 -0.7553 0.1904
vn 0.6253 0.7731 -0.1065
vn 0.9205 -0.3501 0.1734
vn -0.4209 0.8879 -0.1856
vn -0.4081 0.8954 -0.1783
vn 0.9068 -0.3524 0.2315
vn 0.5761 -0.7552 0.3126
vn -0.9791 0.1996 -0.0382
vn -0.8475 0.2358 0.4755
vn -0.7696 0.0950 -0.6314
vn 0.5351 -0.7493 -0.3902
vn 0.0205 0.9419 0.3352
vn -0.8150 0.5748 0.0733
vn 0.9974 0.0320 0.0645
vn -0.9857 0.1149 -0.1236
vn 0.8509 -0.5190 -0.0818
vn -0.0248 -0.9625 -0.2703
vn -0.8387 -0.4687 -0.2772
vn 0.8759 0.4473 0.1808
vn 0.9267 0.3421 0.1555
vn -0.8671 0.4971 0.0308
vn 0.0269 0.9579 0.2859
vn 0.2588 -0.1831 0.9484
vn -0.4137 -0.1542 0.8973
vn -0.9807 0.1684 -0.0994
vn 0.1036 0.3324 -0.9374
vn -0.9887 0.0678 -0.1334
vn 0.9988 -0.0329 0.0363
usemtl color_1
s off
f 94//1 58//1 91//1
f 43//2 49//2 51//2
f 8//3 10//3 2//3
f 88//4 3//4 6//4
f 7//5 13//5 15//5
f 88//6 98//6 99//6
f 179//7 11//7 16//7
f 172//8 115//8 276//8
f 5//9 47//9 1//9
f 3//10 50//10 46//10
f 86//11 41//11 89//11
f 230//12 4//12 54//12
f 179//13 14//13 180//13
f 8//14 15//14 9//14
f 4//15 12//15 13//15
f 180//16 12//16 173//16
f 2//17 11//17 171//17
f 13//18 35//18 15//18
f 11//19 34//19 16//19
f 10//20 33//20 11//20
f 10//21 40//21 37//21
f 16//22 36//22 14//22
f 9//23 35//23 40//23
f 14//24 39//24 12//24
f 89//25 57//25 92//25
f 59//26 44//26 60//26
f 41//27 59//27 57//27
f 60//28 42//28 58//28
f 172//29 90//29 85//29
f 6//30 46//30 45//30
f 6//31 48//31 5//31
f 1//32 49//32 41//32
f 44//33 50//33 42//33
f 43//34 52//34 44//34
f 7//35 54//35 4//35
f 53//36 8//36 2//36
f 8//37 56//37 7//37
f 13//38 39//38 38//38
f 229//39 2//39 171//39
f 216//40 91//40 90//40
f 56//41 58//41 54//41
f 57//42 55//42 53//42
f 55//43 60//43 56//43
f 51//44 77//44 78//44
f 48//45 80//45 47//45
f 49//46 80//46 77//46
f 50//47 79//47 46//47
f 48//48 83//48 81//48
f 45//49 79//49 83//49
f 52//50 82//50 50//50
f 51//51 84//51 52//51
f 235//52 93//52 271//52
f 90//53 58//53 42//53
f 3//54 90//54 42//54
f 215//55 92//55 235//55
f 174//56 89//56 215//56
f 1//57 87//57 5//57
f 5//58 88//58 6//58
f 86//59 98//59 87//59
f 93//60 57//60 53//60
f 94//61 230//61 54//61
f 236//62 94//62 91//62
f 93//63 229//63 271//63
f 110//64 285//64 101//64
f 108//65 102//65 103//65
f 174//66 97//66 86//66
f 85//67 99//67 115//67
f 285//68 104//68 101//68
f 103//69 105//69 106//69
f 102//70 104//70 105//70
f 108//71 118//71 117//71
f 110//72 102//72 109//72
f 105//73 112//73 113//73
f 116//74 114//74 111//74
f 279//75 111//75 300//75
f 103//76 116//76 118//76
f 97//77 109//77 98//77
f 115//78 108//78 117//78
f 99//79 109//79 108//79
f 278//80 110//80 97//80
f 303//81 114//81 113//81
f 112//82 303//82 113//82
f 301//83 111//83 114//83
f 106//84 113//84 114//84
f 289//85 112//85 104//85
f 95//86 276//86 115//86
f 107//87 118//87 100//87
f 96//88 118//88 116//88
f 95//89 117//89 107//89
f 96//90 279//90 312//90
f 274//91 234//91 228//91
f 217//92 223//92 213//92
f 182//93 178//93 168//93
f 266//94 169//94 263//94
f 177//95 185//95 170//95
f 266//96 281//96 265//96
f 179//97 183//97 171//97
f 172//98 307//98 263//98
f 221//99 175//99 167//99
f 220//100 214//100 169//100
f 213//101 264//101 267//101
f 170//102 230//102 228//102
f 180//103 188//103 179//103
f 181//104 177//104 178//104
f 170//105 184//105 173//105
f 184//106 180//106 173//106
f 183//107 168//107 171//107
f 207//108 185//108 187//108
f 188//109 205//109 183//109
f 205//110 182//110 183//110
f 209//111 181//111 182//111
f 186//112 206//112 188//112
f 212//113 187//113 181//113
f 184//114 208//114 186//114
f 233//115 267//115 270//115
f 238//116 217//116 237//116
f 237//117 213//117 233//117
f 234//118 218//118 238//118
f 268//119 172//119 263//119
f 176//120 220//120 169//120
f 222//121 176//121 175//121
f 223//122 167//122 213//122
f 224//123 218//123 214//123
f 218//124 225//124 217//124
f 177//125 228//125 232//125
f 178//126 227//126 168//126
f 177//127 231//127 178//127
f 210//128 184//128 185//128
f 171//129 227//129 229//129
f 269//130 216//130 268//130
f 228//131 238//131 232//131
f 231//132 233//132 227//132
f 232//133 237//133 231//133
f 225//134 255//134 223//134
f 258//135 222//135 221//135
f 223//136 258//136 221//136
f 257//137 224//137 220//137
f 222//138 261//138 219//138
f 219//139 257//139 220//139
f 260//140 226//140 224//140
f 262//141 225//141 226//141
f 273//142 235//142 271//142
f 234//143 268//143 214//143
f 169//144 268//144 263//144
f 270//145 215//145 235//145
f 267//146 174//146 215//146
f 167//147 265//147 264//147
f 175//148 266//148 265//148
f 281//149 264//149 265//149
f 233//150 273//150 227//150
f 230//151 274//151 228//151
f 274//152 236//152 269//152
f 273//153 229//153 227//153
f 297//154 285//154 296//154
f 288//155 295//155 294//155
f 280//156 174//156 264//156
f 307//157 266//157 263//157
f 290//158 285//158 286//158
f 288//159 291//159 287//159
f 287//160 290//160 286//160
f 310//161 294//161 309//161
f 287//162 297//162 295//162
f 291//163 304//163 290//163
f 308//164 306//164 292//164
f 279//165 299//165 308//165
f 308//166 288//166 310//166
f 295//167 280//167 281//167
f 309//168 282//168 307//168
f 294//169 281//169 282//169
f 297//170 278//170 280//170
f 306//171 303//171 305//171
f 304//172 303//172 302//172
f 301//173 299//173 300//173
f 292//174 305//174 291//174
f 304//175 289//175 290//175
f 275//176 276//176 311//176
f 283//177 309//177 293//177
f 277//178 310//178 283//178
f 309//179 275//179 293//179
f 279//180 277//180 312//180
f 94//181 54//181 58//181
f 43//182 41//182 49//182
f 8//183 9//183 10//183
f 88//184 85//184 3//184
f 7//185 4//185 13//185
f 88//186 87//186 98//186
f 179//187 171//187 11//187
f 172//188 85//188 115//188
f 5//189 48//189 47//189
f 3//190 42//190 50//190
f 86//191 1//191 41//191
f 230//192 173//192 4//192
f 179//193 16//193 14//193
f 8//194 7//194 15//194
f 4//195 173//195 12//195
f 180//196 14//196 12//196
f 2//197 10//197 11//197
f 13//198 38//198 35//198
f 11//199 33//199 34//199
f 10//200 37//200 33//200
f 10//201 9//201 40//201
f 16//202 34//202 36//202
f 9//203 15//203 35//203
f 14//204 36//204 39//204
f 89//205 41//205 57//205
f 59//206 43//206 44//206
f 41//207 43//207 59//207
f 60//208 44//208 42//208
f 172//209 216//209 90//209
f 6//210 3//210 46//210
f 6//211 45//211 48//211
f 1//212 47//212 49//212
f 44//213 52//213 50//213
f 43//214 51//214 52//214
f 7//215 56//215 54//215
f 53//216 55//216 8//216
f 8//217 55//217 56//217
f 13//218 12//218 39//218
f 229//219 53//219 2//219
f 216//220 236//220 91//220
f 56//221 60//221 58//221
f 57//222 59//222 55//222
f 55//223 59//223 60//223
f 51//224 49//224 77//224
f 48//225 81//225 80//225
f 49//226 47//226 80//226
f 50//227 82//227 79//227
f 48//228 45//228 83//228
f 45//229 46//229 79//229
f 52//230 84//230 82//230
f 51//231 78//231 84//231
f 235//232 92//232 93//232
f 90//233 91//233 58//233
f 3//234 85//234 90//234
f 215//235 89//235 92//235
f 174//236 86//236 89//236
f 1//237 86//237 87//237
f 5//238 87//238 88//238
f 86//239 97//239 98//239
f 93//240 92//240 57//240
f 94//241 272//241 230//241
f 236//242 272//242 94//242
f 93//243 53//243 229//243
f 110//244 296//244 285//244
f 108//245 109//245 102//245
f 174//246 278//246 97//246
f 85//247 88//247 99//247
f 285//248 289//248 104//248
f 103//249 102//249 105//249
f 102//250 101//250 104//250
f 108//251 103//251 118//251
f 110//252 101//252 102//252
f 105//253 104//253 112//253
f 116//254 106//254 114//254
f 279//255 116//255 111//255
f 103//256 106//256 116//256
f 97//257 110//257 109//257
f 115//258 99//258 108//258
f 99//259 98//259 109//259
f 278//260 296//260 110//260
f 303//261 301//261 114//261
f 112//262 302//262 303//262
f 301//263 300//263 111//263
f 106//264 105//264 113//264
f 289//265 302//265 112//265
f 95//266 311//266 276//266
f 107//267 117//267 118//267
f 96//268 100//268 118//268
f 95//269 115//269 117//269
f 96//270 116//270 279//270
f 274//271 269//271 234//271
f 217//272 225//272 223//272
f 182//273 181//273 178//273
f 266//274 176//274 169//274
f 177//275 187//275 185//275
f 266//276 282//276 281//276
f 179//277 188//277 183//277
f 172//278 276//278 307//278
f 221//279 222//279 175//279
f 220//280 224//280 214//280
f 213//281 167//281 264//281
f 170//282 173//282 230//282
f 180//283 186//283 188//283
f 181//284 187//284 177//284
f 170//285 185//285 184//285
f 184//286 186//286 180//286
f 183//287 182//287 168//287
f 207//288 210//288 185//288
f 188//289 206//289 205//289
f 205//290 209//290 182//290
f 209//291 212//291 181//291
f 186//292 208//292 206//292
f 212//293 207//293 187//293
f 184//294 211//294 208//294
f 233//295 213//295 267//295
f 238//296 218//296 217//296
f 237//297 217//297 213//297
f 234//298 214//298 218//298
f 268//299 216//299 172//299
f 176//300 219//300 220//300
f 222//301 219//301 176//301
f 223//302 221//302 167//302
f 224//303 226//303 218//303
f 218//304 226//304 225//304
f 177//305 170//305 228//305
f 178//306 231//306 227//306
f 177//307 232//307 231//307
f 210//308 211//308 184//308
f 171//309 168//309 227//309
f 269//310 236//310 216//310
f 228//311 234//311 238//311
f 231//312 237//312 233//312
f 232//313 238//313 237//313
f 225//314 256//314 255//314
f 258//315 259//315 222//315
f 223//316 255//316 258//316
f 257//317 260//317 224//317
f 222//318 259//318 261//318
f 219//319 261//319 257//319
f 260//320 262//320 226//320
f 262//321 256//321 225//321
f 273//322 270//322 235//322
f 234//323 269//323 268//323
f 169//324 214//324 268//324
f 270//325 267//325 215//325
f 267//326 264//326 174//326
f 167//327 175//327 265//327
f 175//328 176//328 266//328
f 281//329 280//329 264//329
f 233//330 270//330 273//330
f 230//331 272//331 274//331
f 274//332 272//332 236//332
f 273//333 271//333 229//333
f 297//334 286//334 285//334
f 288//335 287//335 295//335
f 280//336 278//336 174//336
f 307//337 282//337 266//337
f 290//338 289//338 285//338
f 288//339 292//339 291//339
f 287//340 291//340 290//340
f 310//341 288//341 294//341
f 287//342 286//342 297//342
f 291//343 305//343 304//343
f 308//344 299//344 306//344
f 279//345 300//345 299//345
f 308//346 292//346 288//346
f 295//347 297//347 280//347
f 309//348 294//348 282//348
f 294//349 295//349 281//349
f 297//350 296//350 278//350
f 306//351 301//351 303//351
f 304//352 305//352 303//352
f 301//353 306//353 299//353
f 292//354 306//354 305//354
f 304//355 302//355 289//355
f 275//356 307//356 276//356
f 283//357 310//357 309//357
f 277//358 308//358 310//358
f 309//359 307//359 275//359
f 279//360 308//360 277//360
usemtl color_2
f 95//361 298//361 311//361
f 284//362 107//362 100//362
f 284//363 96//363 312//363
f 298//364 275//364 311//364
f 293//365 284//365 283//365
f 277//366 284//366 312//366
f 95//367 107//367 298//367
f 284//368 298//368 107//368
f 284//369 100//369 96//369
f 298//370 293//370 275//370
f 293//371 298//371 284//371
f 277//372 283//372 284//372
usemtl color_3
f 160//373 157//373 154//373
f 148//374 19//374 24//374
f 147//375 18//375 19//375
f 23//376 20//376 22//376
f 17//376 19//376 18//376
f 17//376 22//376 24//376
f 143//377 17//377 18//377
f 148//378 22//378 150//378
f 146//379 23//379 17//379
f 161//380 155//380 162//380
f 39//381 32//381 30//381
f 35//382 31//382 40//382
f 36//383 27//383 32//383
f 37//384 31//384 26//384
f 159//376 154//376 153//376
f 38//385 30//385 28//385
f 33//386 27//386 34//386
f 38//387 29//387 35//387
f 37//388 25//388 33//388
f 125//389 139//389 123//389
f 63//390 131//390 64//390
f 124//391 141//391 125//391
f 61//392 66//392 68//392
f 65//393 64//393 67//393
f 64//394 68//394 67//394
f 65//395 134//395 132//395
f 62//396 129//396 130//396
f 119//397 136//397 127//397
f 67//398 135//398 134//398
f 119//399 140//399 124//399
f 78//400 76//400 84//400
f 84//401 73//401 82//401
f 83//402 74//402 75//402
f 81//403 75//403 71//403
f 79//404 73//404 74//404
f 77//405 70//405 69//405
f 80//406 71//406 70//406
f 78//407 69//407 72//407
f 76//408 125//408 123//408
f 76//409 121//409 73//409
f 75//410 126//410 122//410
f 75//411 120//411 71//411
f 74//412 121//412 126//412
f 70//413 124//413 69//413
f 71//414 119//414 70//414
f 72//415 124//415 125//415
f 141//416 132//416 134//416
f 136//417 128//417 127//417
f 140//418 128//418 132//418
f 137//419 130//419 142//419
f 136//420 129//420 131//420
f 138//421 130//421 129//421
f 139//422 133//422 137//422
f 141//423 135//423 139//423
f 66//424 135//424 68//424
f 61//425 131//425 129//425
f 121//426 139//426 137//426
f 63//427 132//427 128//427
f 126//428 138//428 122//428
f 62//429 133//429 66//429
f 122//430 136//430 120//430
f 126//431 137//431 142//431
f 28//432 145//432 144//432
f 30//433 150//433 145//433
f 31//434 149//434 146//434
f 27//435 150//435 32//435
f 31//436 143//436 26//436
f 26//437 147//437 25//437
f 27//438 147//438 148//438
f 28//439 149//439 29//439
f 157//440 153//440 154//440
f 158//441 152//441 156//441
f 156//442 153//442 155//442
f 162//443 157//443 163//443
f 164//376 151//376 165//376
f 161//444 158//444 156//444
f 165//445 158//445 166//445
f 164//376 153//376 152//376
f 156//446 157//446 155//446
f 20//376 159//376 164//376
f 22//447 166//447 150//447
f 145//448 166//448 161//448
f 20//376 165//376 22//376
f 144//449 163//449 149//449
f 21//376 160//376 159//376
f 144//450 161//450 162//450
f 23//451 163//451 160//451
f 354//452 351//452 357//452
f 342//453 191//453 341//453
f 341//454 190//454 337//454
f 192//455 195//455 194//455
f 191//455 189//455 190//455
f 194//455 189//455 196//455
f 337//456 189//456 340//456
f 194//457 342//457 344//457
f 340//458 195//458 343//458
f 349//459 355//459 356//459
f 202//460 208//460 211//460
f 212//461 201//461 207//461
f 204//462 206//462 208//462
f 198//463 212//463 209//463
f 353//455 348//455 354//455
f 210//464 202//464 211//464
f 199//465 205//465 206//465
f 207//466 200//466 210//466
f 205//467 198//467 209//467
f 333//468 319//468 317//468
f 325//469 241//469 242//469
f 335//470 318//470 319//470
f 244//471 239//471 246//471
f 243//472 242//472 241//472
f 245//473 239//473 242//473
f 243//474 328//474 245//474
f 240//475 323//475 239//475
f 313//476 330//476 314//476
f 245//477 329//477 246//477
f 334//478 313//478 318//478
f 254//479 256//479 262//479
f 251//480 262//480 260//480
f 261//481 252//481 257//481
f 259//482 253//482 261//482
f 252//483 260//483 257//483
f 255//484 248//484 258//484
f 258//485 249//485 259//485
f 256//486 247//486 255//486
f 254//487 319//487 250//487
f 315//488 254//488 251//488
f 253//489 320//489 252//489
f 314//490 253//490 249//490
f 252//491 315//491 251//491
f 318//492 248//492 247//492
f 313//493 249//493 248//493
f 250//494 318//494 247//494
f 335//495 326//495 334//495
f 322//496 330//496 321//496
f 334//497 322//497 321//497
f 324//498 331//498 336//498
f 325//499 332//499 330//499
f 332//500 324//500 336//500
f 327//501 333//501 331//501
f 333//502 328//502 335//502
f 329//503 244//503 246//503
f 239//504 325//504 242//504
f 315//505 333//505 317//505
f 241//506 326//506 243//506
f 332//507 320//507 316//507
f 327//508 240//508 244//508
f 314//509 332//509 316//509
f 320//510 331//510 315//510
f 200//511 339//511 202//511
f 339//512 204//512 202//512
f 203//513 343//513 201//513
f 344//514 199//514 204//514
f 198//515 340//515 203//515
f 341//516 198//516 197//516
f 342//517 197//517 199//517
f 201//518 338//518 200//518
f 351//519 347//519 349//519
f 346//520 352//520 350//520
f 347//521 350//521 349//521
f 351//522 356//522 357//522
f 345//455 358//455 359//455
f 355//523 352//523 360//523
f 352//524 359//524 360//524
f 358//455 347//455 353//455
f 350//525 351//525 352//525
f 192//455 353//455 193//455
f 360//526 194//526 344//526
f 339//527 360//527 344//527
f 359//455 192//455 194//455
f 357//528 338//528 343//528
f 193//455 354//455 195//455
f 338//529 355//529 339//529
f 195//530 357//530 343//530
f 160//531 163//531 157//531
f 148//532 147//532 19//532
f 147//533 143//533 18//533
f 23//376 21//376 20//376
f 17//376 24//376 19//376
f 17//376 23//376 22//376
f 143//534 146//534 17//534
f 148//535 24//535 22//535
f 146//536 149//536 23//536
f 161//537 156//537 155//537
f 39//538 36//538 32//538
f 35//539 29//539 31//539
f 36//540 34//540 27//540
f 37//541 40//541 31//541
f 159//376 160//376 154//376
f 38//542 39//542 30//542
f 33//543 25//543 27//543
f 38//544 28//544 29//544
f 37//545 26//545 25//545
f 125//546 141//546 139//546
f 63//547 128//547 131//547
f 124//548 140//548 141//548
f 61//392 62//392 66//392
f 65//393 63//393 64//393
f 64//394 61//394 68//394
f 65//549 67//549 134//549
f 62//550 61//550 129//550
f 119//551 120//551 136//551
f 67//398 68//398 135//398
f 119//399 127//399 140//399
f 78//552 72//552 76//552
f 84//553 76//553 73//553
f 83//554 79//554 74//554
f 81//555 83//555 75//555
f 79//556 82//556 73//556
f 77//557 80//557 70//557
f 80//558 81//558 71//558
f 78//559 77//559 69//559
f 76//560 72//560 125//560
f 76//561 123//561 121//561
f 75//562 74//562 126//562
f 75//563 122//563 120//563
f 74//564 73//564 121//564
f 70//565 119//565 124//565
f 71//566 120//566 119//566
f 72//567 69//567 124//567
f 141//568 140//568 132//568
f 136//569 131//569 128//569
f 140//418 127//418 128//418
f 137//419 133//419 130//419
f 136//420 138//420 129//420
f 138//570 142//570 130//570
f 139//571 135//571 133//571
f 141//423 134//423 135//423
f 66//572 133//572 135//572
f 61//425 64//425 131//425
f 121//573 123//573 139//573
f 63//427 65//427 132//427
f 126//574 142//574 138//574
f 62//429 130//429 133//429
f 122//430 138//430 136//430
f 126//431 121//431 137//431
f 28//575 30//575 145//575
f 30//576 32//576 150//576
f 31//577 29//577 149//577
f 27//578 148//578 150//578
f 31//579 146//579 143//579
f 26//580 143//580 147//580
f 27//581 25//581 147//581
f 28//582 144//582 149//582
f 157//583 155//583 153//583
f 158//584 151//584 152//584
f 156//585 152//585 153//585
f 162//586 155//586 157//586
f 164//376 152//376 151//376
f 161//587 166//587 158//587
f 165//588 151//588 158//588
f 164//376 159//376 153//376
f 156//589 158//589 157//589
f 20//376 21//376 159//376
f 22//590 165//590 166//590
f 145//448 150//448 166//448
f 20//376 164//376 165//376
f 144//449 162//449 163//449
f 21//376 23//376 160//376
f 144//450 145//450 161//450
f 23//591 149//591 163//591
f 354//592 348//592 351//592
f 342//593 196//593 191//593
f 341//594 191//594 190//594
f 192//455 193//455 195//455
f 191//455 196//455 189//455
f 194//455 195//455 189//455
f 337//595 190//595 189//595
f 194//596 196//596 342//596
f 340//597 189//597 195//597
f 349//598 350//598 355//598
f 202//599 204//599 208//599
f 212//600 203//600 201//600
f 204//601 199//601 206//601
f 198//602 203//602 212//602
f 353//455 347//455 348//455
f 210//603 200//603 202//603
f 199//604 197//604 205//604
f 207//605 201//605 200//605
f 205//606 197//606 198//606
f 333//468 335//468 319//468
f 325//607 322//607 241//607
f 335//608 334//608 318//608
f 244//471 240//471 239//471
f 243//472 245//472 242//472
f 245//473 246//473 239//473
f 243//609 326//609 328//609
f 240//610 324//610 323//610
f 313//611 321//611 330//611
f 245//477 328//477 329//477
f 334//478 321//478 313//478
f 254//612 250//612 256//612
f 251//613 254//613 262//613
f 261//614 253//614 252//614
f 259//615 249//615 253//615
f 252//616 251//616 260//616
f 255//617 247//617 248//617
f 258//618 248//618 249//618
f 256//619 250//619 247//619
f 254//620 317//620 319//620
f 315//621 317//621 254//621
f 253//622 316//622 320//622
f 314//623 316//623 253//623
f 252//624 320//624 315//624
f 318//625 313//625 248//625
f 313//626 314//626 249//626
f 250//627 319//627 318//627
f 335//628 328//628 326//628
f 322//629 325//629 330//629
f 334//497 326//497 322//497
f 324//498 327//498 331//498
f 325//499 323//499 332//499
f 332//630 323//630 324//630
f 327//631 329//631 333//631
f 333//502 329//502 328//502
f 329//632 327//632 244//632
f 239//504 323//504 325//504
f 315//633 331//633 333//633
f 241//506 322//506 326//506
f 332//634 336//634 320//634
f 327//508 324//508 240//508
f 314//509 330//509 332//509
f 320//510 336//510 331//510
f 200//635 338//635 339//635
f 339//636 344//636 204//636
f 203//637 340//637 343//637
f 344//638 342//638 199//638
f 198//639 337//639 340//639
f 341//640 337//640 198//640
f 342//641 341//641 197//641
f 201//642 343//642 338//642
f 351//643 348//643 347//643
f 346//644 345//644 352//644
f 347//645 346//645 350//645
f 351//646 349//646 356//646
f 345//455 346//455 358//455
f 355//647 350//647 352//647
f 352//648 345//648 359//648
f 358//455 346//455 347//455
f 350//649 349//649 351//649
f 192//455 358//455 353//455
f 360//650 359//650 194//650
f 339//527 355//527 360//527
f 359//455 358//455 192//455
f 357//528 356//528 338//528
f 193//455 353//455 354//455
f 338//529 356//529 355//529
f 195//651 354//651 357//651
