# Blender v2.83.5 OBJ File: 'bio.blend'
# www.blender.org
mtllib bio_000011.mtl
o Cube
v -0.949296 -1.142965 -0.368232
v -0.694457 0.608107 -0.412404
v -0.660028 -1.221609 0.551842
v -0.638778 1.133012 0.340896
v -1.011555 -1.132306 -0.042715
v -0.907332 -1.184442 0.310205
v -0.840554 1.001511 0.101038
v -0.862248 0.773909 -0.190430
v -0.785294 1.032152 -0.313028
v -0.693455 0.911679 -0.450392
v -0.160522 0.917632 -0.356548
v -0.126676 1.155689 0.093493
v -0.659477 1.274204 0.007454
v -0.056737 1.051922 -0.022533
v -0.771857 1.175519 -0.131965
v -0.067489 0.986599 -0.183607
v -0.645760 1.837084 -2.271442
v -0.589008 1.719912 -2.267672
v -0.274120 1.694596 -2.299960
v -0.248339 2.066305 -2.334433
v -0.563291 2.090707 -2.302060
v -0.177093 1.947529 -2.332112
v -0.635590 1.983721 -2.285041
v -0.187263 1.800892 -2.318513
v -0.090980 1.792540 -1.079696
v -0.516838 1.828990 -1.056216
v -0.000494 1.918950 -1.063530
v -0.485542 2.257488 -0.997860
v -0.577896 2.134245 -1.007906
v -0.059592 2.220098 -1.015519
v -0.590307 1.964400 -1.030403
v 0.011072 2.076941 -1.041846
v -0.102710 1.830353 -1.097159
v -0.021225 1.919147 -1.012674
v -0.553125 2.095235 -0.910050
v -0.011692 2.028313 -0.910216
v -0.494963 1.878900 -1.103930
v -0.468915 2.176157 -0.822467
v -0.076626 2.129119 -0.817534
v -0.563398 1.977950 -1.021711
v -0.947283 -0.623087 -0.357135
v -0.711285 -0.715567 0.539178
v -0.952217 -0.613214 -0.046152
v -0.759095 -0.733157 0.245355
v -1.037638 -0.928427 0.408034
v -0.864084 -0.997674 0.470746
v -1.227031 -0.721060 0.061354
v -1.186106 -0.817656 0.247299
v -1.007000 -0.565675 -0.067184
v -0.646517 -0.831499 0.350385
v -0.858755 -0.589659 0.060095
v -0.720477 -0.696654 0.223935
v -0.762819 0.160775 -0.189676
v -0.696669 0.582250 0.661688
v -0.918125 0.286222 0.080326
v -0.884184 0.463294 0.406123
v -0.806449 -0.464349 -0.352481
v -0.630631 -0.474291 0.562892
v -0.902114 -0.458216 -0.036765
v -0.806116 -0.478908 0.308225
v -0.863949 -0.607943 2.409237
v -0.784145 -0.650371 2.341891
v -0.978710 -0.424807 2.535182
v -0.940893 -0.518740 2.485677
v -0.829889 -0.334138 2.579178
v -0.635323 -0.559703 2.385886
v -0.723468 -0.386275 2.549953
v -0.646523 -0.475478 2.473513
v -1.059813 0.643510 1.344673
v -1.299652 0.497974 1.305095
v -1.253925 0.342936 1.253895
v -0.902333 0.556860 1.328265
v -0.736430 0.290692 1.135443
v -0.976052 0.145578 1.099206
v -1.126881 0.201888 1.158398
v -0.775472 0.416631 1.231989
v -1.066230 0.490941 0.953329
v -0.931201 0.460417 1.027716
v -0.957880 0.128885 1.292890
v -1.262905 0.372523 1.042954
v -1.218054 0.285066 1.160417
v -0.761548 0.248332 1.200935
v -1.097676 0.191021 1.260262
v -0.810462 0.363687 1.127250
v -0.550941 -1.274840 0.598077
v -0.792512 -1.274603 -0.476359
v -0.863845 -1.256739 -0.210541
v -0.685199 -1.331399 0.269387
v -0.414145 -0.613112 -0.526159
v -0.294429 -0.634171 0.539723
v -0.251832 -0.390486 0.586575
v -0.337771 -0.421933 -0.496709
v -0.330545 -0.064001 -0.396925
v -0.255991 0.047197 0.609338
v -0.235173 -1.489354 0.517213
v -0.407438 -2.503842 0.480214
v -0.580953 -1.477547 -0.575907
v -0.758291 -1.377276 -0.237899
v -0.586312 -1.400017 0.259553
v -0.428212 -2.269583 0.509623
v -0.539361 -2.309757 -0.538028
v -0.722267 -2.270946 -0.296701
v -0.664727 -2.270946 0.274121
v -0.502313 -2.547676 -0.420042
v -0.661134 -2.547676 -0.237211
v -0.612197 -2.547676 0.233986
v -0.422194 -1.882538 0.512925
v -0.654671 -1.880328 0.299532
v -0.719181 -1.880328 -0.314760
v -0.541927 -1.961653 -0.601112
v -0.381769 -2.643774 0.447009
v -0.419850 -2.643774 -0.208021
v -0.533986 -2.643774 -0.150425
v -0.492328 -2.643774 0.222283
v -0.420243 -1.383804 0.482588
v -0.455709 -2.547676 0.451428
v -0.474031 -1.880328 0.489547
v -0.480208 -2.270946 0.486053
v -1.044331 -0.278359 2.362945
v -1.000973 -0.392124 2.303038
v -0.632815 -0.440018 2.184028
v -0.908762 -0.499025 2.211432
v -0.648200 -0.340279 2.288460
v -0.865983 -0.169702 2.415669
v -0.740410 -0.233377 2.380067
v -0.811164 -0.548676 2.131304
v -1.074219 -0.288880 2.408454
v -1.048598 -0.351916 2.489869
v -0.896610 -0.589458 2.311250
v -0.788362 -0.653615 2.231336
v -0.999525 -0.470146 2.413491
v -0.849545 -0.230644 2.548714
v -0.589308 -0.532342 2.290181
v -0.708713 -0.292970 2.499462
v -0.605798 -0.412282 2.397221
v -1.025408 -0.413359 2.328262
v -0.596046 -0.476724 2.200557
v -0.918262 -0.537576 2.221817
v -0.615493 -0.353116 2.311324
v -0.866982 -0.162622 2.469719
v -0.722639 -0.228899 2.417768
v -0.803284 -0.602982 2.139292
v -0.574594 1.733065 -1.994204
v -0.526513 2.152485 -1.847795
v -0.187679 2.126462 -1.880066
v -0.634808 1.857233 -1.998191
v -0.235827 1.706074 -2.026385
v -0.148047 1.820431 -2.045725
v -0.603201 2.039123 -1.829753
v -0.116631 1.999569 -1.877032
v -0.190930 2.630280 -2.388737
v -0.241672 2.747437 -2.393163
v -0.474942 2.765391 -2.369176
v -0.530504 2.657084 -2.353876
v -0.464157 2.793430 -2.179641
v -0.213127 2.774338 -2.202898
v -0.523090 2.678666 -2.163422
v -0.162677 2.649070 -2.197750
v -0.555759 2.199311 -2.312132
v -0.628057 2.092326 -2.295113
v -0.201353 2.208270 -2.076431
v -0.540187 2.234292 -2.044160
v -0.616875 2.120930 -2.026118
v -0.240807 2.174910 -2.344505
v -0.169561 2.056134 -2.342183
v -0.130305 2.081376 -2.073397
v 0.809453 -1.203869 -0.564361
v 0.664738 1.154740 -0.290831
v 0.791439 -1.113388 0.360566
v 0.681743 0.522283 0.366162
v -0.021317 0.974356 -0.391203
v 0.048057 -1.248941 0.568662
v 0.028383 0.947169 0.404497
v -0.055695 -1.310393 -0.653625
v 0.952823 -1.137672 -0.310449
v 0.956513 -1.059912 0.015265
v 0.862335 0.704080 0.168847
v 0.857389 0.978220 -0.080770
v 0.002760 1.029871 -0.133695
v 0.019354 1.011056 0.174338
v 0.812631 1.116633 0.181628
v 0.707735 1.248124 0.065330
v 0.162198 1.168063 -0.048575
v 0.175780 0.858725 0.391639
v 0.715052 0.811375 0.454439
v 0.090871 0.972100 0.221891
v 0.815525 0.943913 0.335508
v 0.085356 1.064017 0.074284
v 0.644883 2.758071 2.211892
v 0.578303 2.845935 2.142514
v 0.260776 2.842941 2.144807
v 0.265824 2.549259 2.376647
v 0.583338 2.552975 2.373785
v 0.184592 2.637330 2.307104
v 0.646874 2.642215 2.303352
v 0.182600 2.753186 2.215644
v 0.217302 2.086121 1.101389
v 0.645500 2.097166 1.107169
v 0.137886 1.968279 1.197756
v 0.651807 1.727369 1.408006
v 0.733359 1.839970 1.316384
v 0.223622 1.715672 1.403239
v 0.730862 1.986234 1.197452
v 0.140211 1.832038 1.308600
v 0.235018 1.994677 1.020880
v 0.163173 1.889065 1.113290
v 0.711032 1.774109 1.225418
v 0.165207 1.767966 1.219063
v 0.630362 2.004185 1.025141
v 0.635911 1.673984 1.313724
v 0.240581 1.663542 1.310060
v 0.708838 1.904681 1.111268
v 0.798895 -0.805343 -0.624999
v 0.817123 -0.639823 0.210976
v -0.043940 -0.568160 -0.566993
v 0.044266 -0.568160 0.566952
v 0.877616 -0.890845 -0.459000
v 0.770895 -0.742498 -0.203128
v 1.065819 -0.669800 -0.241857
v 0.915561 -0.595892 -0.142679
v 1.174271 -1.031242 -0.450082
v 1.174405 -0.852643 -0.357890
v 0.924194 -1.087644 -0.547642
v 0.671145 -0.666826 -0.234493
v 0.804519 -0.964083 -0.498771
v 0.708370 -0.791242 -0.373483
v 0.675074 0.648654 -0.672948
v 0.716903 0.141458 0.097073
v -0.036546 0.401021 -0.491797
v 0.028902 0.389434 0.484208
v 0.856017 0.461342 -0.481668
v 0.864858 0.249281 -0.193855
v 0.663923 -0.512255 -0.650254
v 0.721682 -0.490887 0.229662
v -0.043364 -0.397512 -0.558188
v 0.043465 -0.397512 0.558175
v 0.819632 -0.567703 -0.465007
v 0.818368 -0.534744 -0.145121
v 1.200611 1.529525 -1.495628
v 1.117675 1.514415 -1.420811
v 1.308023 1.508114 -1.720518
v 1.275887 1.527033 -1.614153
v 1.157116 1.524787 -1.816712
v 0.966767 1.531088 -1.517005
v 1.055414 1.551392 -1.754690
v 0.980138 1.553884 -1.636166
v 1.058705 -0.050944 -1.956246
v 1.306008 -0.056918 -1.809319
v 1.273360 -0.006957 -1.639583
v 0.912936 0.012638 -1.859387
v 0.754605 0.026884 -1.505333
v 1.002088 0.023061 -1.359554
v 1.152412 0.015586 -1.456942
v 0.791962 0.034432 -1.677103
v 1.027659 -0.312569 -1.713678
v 0.909042 -0.209886 -1.682961
v 1.008651 0.106439 -1.387607
v 1.246608 -0.235676 -1.623806
v 1.228973 -0.095722 -1.550518
v 0.789598 0.027689 -1.477579
v 1.134960 0.039634 -1.458937
v 0.814967 -0.074019 -1.589473
v 0.689834 -1.199830 0.453974
v 0.644242 -1.304107 -0.616485
v 0.769867 -1.265433 -0.399156
v 0.736369 -1.273443 0.088790
v 0.313846 -0.658362 -0.542147
v 0.386660 -0.611307 0.489406
v 0.331527 -0.421359 0.441982
v 0.243543 -0.412225 -0.570395
v -0.040257 0.020713 -0.522816
v 0.034605 -0.000950 0.526424
v 0.243334 0.075910 -0.614577
v 0.315750 -0.057161 0.364206
v 0.321630 -1.489354 0.467586
v 0.045887 -1.334380 0.551897
v 0.470379 -2.503842 0.418753
v -0.055136 -1.486276 -0.673393
v 0.036066 -2.588343 0.515117
v 0.451415 -1.485242 -0.655333
v 0.669635 -1.374391 -0.390305
v 0.636591 -1.359150 0.116867
v 0.497047 -2.269583 0.442555
v 0.038447 -2.270946 0.549130
v -0.041158 -2.309757 -0.587847
v 0.454480 -2.309757 -0.611136
v 0.668354 -2.270946 -0.402973
v 0.698081 -2.270946 0.170980
v -0.032542 -2.547676 -0.464785
v 0.438385 -2.547676 -0.486351
v 0.620366 -2.547676 -0.329193
v 0.639050 -2.547676 0.145200
v 0.497198 -1.882538 0.439925
v 0.695313 -1.880328 0.183643
v 0.652590 -1.880328 -0.434670
v -0.046666 -1.961653 -0.653683
v 0.440040 -1.961653 -0.678578
v 0.038901 -1.880328 0.552329
v 0.440334 -2.643774 0.389449
v 0.034428 -2.684441 0.491720
v 0.012345 -2.684441 0.176314
v -0.017079 -2.684441 -0.243930
v -0.003670 -2.684441 -0.052419
v 0.386767 -2.643774 -0.264496
v 0.507815 -2.643774 -0.223367
v 0.518499 -2.643774 0.151510
v 0.513909 -1.355886 0.395533
v 0.514168 -2.547676 0.383522
v 0.545618 -1.880328 0.407378
v 0.545573 -2.270946 0.411062
v 0.043364 -1.488109 0.528248
v 0.036490 -2.543148 0.521179
v 1.325558 1.274766 -1.746212
v 1.289035 1.297219 -1.617476
v 0.916596 1.302299 -1.502322
v 1.198823 1.300205 -1.475436
v 0.934609 1.329398 -1.643857
v 1.144710 1.294747 -1.861492
v 1.024821 1.326411 -1.785896
v 1.097444 1.282317 -1.387043
v 1.363348 1.311333 -1.763816
v 1.359508 1.417144 -1.756911
v 1.214729 1.433171 -1.456556
v 1.104912 1.425572 -1.356045
v 1.315413 1.429838 -1.615085
v 1.157665 1.439445 -1.885574
v 0.903069 1.447873 -1.484707
v 1.020525 1.462420 -1.803058
v 0.919841 1.465753 -1.644529
v 1.319751 1.324294 -1.614686
v 0.888143 1.343326 -1.480421
v 1.214927 1.327764 -1.449639
v 0.907915 1.361685 -1.645340
v 1.153206 1.334551 -1.897768
v 1.012739 1.358215 -1.810387
v 1.098284 1.320108 -1.346469
v 0.592708 2.685325 1.920788
v 0.598210 2.251307 2.026936
v 0.256896 2.245737 2.028006
v 0.663337 2.592220 1.994304
v 0.251382 2.680520 1.921254
v 0.172950 2.584370 1.997139
v 0.665613 2.345871 1.952300
v 0.175188 2.340195 1.953420
v 0.255158 2.102342 2.729451
v 0.315717 2.014053 2.799163
v 0.550874 2.016899 2.796968
v 0.597536 2.105960 2.726672
v 0.561804 1.889753 2.653649
v 0.309020 1.885119 2.654000
v 0.611306 1.984128 2.579158
v 0.248080 1.979796 2.579246
v 0.584813 2.467169 2.441523
v 0.648349 2.556408 2.371090
v 0.258205 2.285666 2.237393
v 0.599519 2.291235 2.236324
v 0.666922 2.385800 2.161687
v 0.267299 2.463453 2.444385
v 0.186067 2.551523 2.374842
v 0.176497 2.380124 2.162807
vn -0.0508 -0.0524 0.9973
vn 0.6260 0.4351 -0.6471
vn -0.8198 -0.0684 -0.5686
vn -0.4692 -0.8082 0.3559
vn -0.7795 0.5899 0.2107
vn -0.5530 -0.8189 0.1537
vn -0.4391 0.8858 -0.1499
vn -0.1249 -0.1880 0.9742
vn -0.8906 -0.4271 -0.1564
vn 0.1437 0.4501 0.8813
vn -0.3025 0.0215 -0.9529
vn 0.0563 0.4981 0.8653
vn 0.4028 0.9146 0.0342
vn -0.9656 0.2339 -0.1135
vn 0.1423 0.9146 0.3784
vn 0.6391 0.7472 0.1823
vn -0.4293 0.8119 -0.3955
vn -0.8192 0.4713 0.3268
vn 0.8777 -0.3420 -0.3357
vn -0.0641 -0.6263 -0.7769
vn -0.8744 -0.1354 -0.4659
vn 0.9964 -0.0778 -0.0350
vn -0.9815 0.1788 -0.0687
vn 0.9016 0.2700 0.3380
vn -0.3054 0.2630 -0.9152
vn -0.9201 0.2809 0.2729
vn -0.7242 0.6493 -0.2321
vn -0.8060 0.2152 0.5515
vn 0.0458 0.0724 0.9963
vn -0.4653 -0.5126 0.7217
vn -0.7354 -0.6324 0.2435
vn -0.6565 0.7027 -0.2743
vn -0.7293 -0.6656 0.1585
vn 0.2718 -0.6845 -0.6764
vn -0.8016 0.3616 0.4761
vn -0.8366 -0.1363 -0.5306
vn -0.9963 0.0851 0.0077
vn 0.0707 0.6673 0.7414
vn -0.0638 0.1741 -0.9827
vn -0.0437 -0.1813 0.9825
vn -0.7774 -0.1066 0.6200
vn -0.8521 0.0634 -0.5196
vn -0.9830 -0.0976 0.1555
vn 0.4834 0.6110 -0.6269
vn -0.9788 -0.1538 0.1355
vn -0.5960 0.5403 -0.5940
vn 0.6599 -0.4063 0.6320
vn -0.7514 -0.4337 0.4974
vn -0.4172 -0.5646 0.7122
vn 0.9282 0.2862 -0.2378
vn 0.7545 0.4616 -0.4666
vn -0.4161 0.0797 -0.9058
vn 0.0190 -0.1041 0.9944
vn -0.3973 -0.0173 0.9175
vn -0.2082 0.0511 -0.9767
vn -0.1229 0.1170 -0.9855
vn -0.7124 -0.6925 -0.1136
vn -0.5465 -0.8366 0.0378
vn -0.7603 -0.6291 -0.1618
vn -0.3042 0.2599 -0.9165
vn 0.2673 0.1267 0.9552
vn 0.2668 -0.0475 0.9626
vn -0.4157 0.0780 -0.9061
vn -0.0979 -0.1782 -0.9791
vn -0.9944 0.0188 0.1044
vn -0.2161 0.2390 -0.9467
vn -0.3936 -0.8481 0.3547
vn -0.0887 -0.4536 -0.8868
vn -0.9746 -0.1997 0.1012
vn -0.7215 -0.2941 -0.6268
vn -0.7247 0.0053 0.6890
vn -0.8524 -0.0174 -0.5227
vn -0.2616 -0.8142 -0.5183
vn -0.7314 -0.5793 0.3598
vn -0.1263 -0.2326 0.9643
vn -0.7460 -0.1473 0.6495
vn -0.8852 0.0022 -0.4651
vn -0.8017 0.0951 0.5901
vn -0.9307 0.1598 0.3291
vn -0.1816 0.0365 -0.9827
vn -0.0781 -0.9969 0.0087
vn -0.0557 -0.9923 -0.1104
vn -0.0768 -0.9963 0.0378
vn -0.6199 -0.7816 0.0693
vn -0.0381 -0.9156 -0.4002
vn -0.1527 0.0560 0.9867
vn -0.4128 -0.0016 0.9108
vn -0.4034 -0.1487 0.9029
vn -0.3981 0.1795 0.8996
vn -0.1026 -0.1313 0.9860
vn 0.4803 0.1835 0.8577
vn 0.7196 -0.4164 -0.5557
vn 0.7862 0.5679 -0.2438
vn 0.7421 -0.6324 0.2220
vn 0.8182 -0.2520 0.5167
vn 0.7370 -0.6748 0.0395
vn -0.6167 0.7795 -0.1104
vn 0.1885 -0.5237 0.8308
vn 0.4295 -0.9030 -0.0071
vn 0.9427 -0.1459 -0.3001
vn -0.1587 0.0324 -0.9868
vn 0.2551 -0.5422 0.8006
vn -0.5469 0.8334 0.0804
vn 0.9875 0.1156 0.1074
vn 0.3489 0.4629 0.8148
vn 0.3367 0.9106 0.2396
vn -0.1749 0.8943 -0.4119
vn 0.8679 -0.3083 0.3896
vn -0.8936 0.3826 -0.2349
vn 0.0117 0.7908 -0.6120
vn 0.8554 0.4383 -0.2760
vn -0.9982 0.0264 0.0538
vn 0.9963 0.0660 0.0554
vn -0.9213 -0.2675 0.2822
vn -0.2236 -0.1739 -0.9590
vn 0.9406 0.1742 0.2913
vn 0.7718 0.3074 -0.5567
vn 0.9766 -0.2071 -0.0577
vn 0.1736 0.0302 0.9844
vn 0.8640 0.2289 0.4485
vn 0.7931 -0.5944 0.1329
vn 0.2776 -0.1373 -0.9508
vn -0.6339 -0.7312 0.2521
vn -0.3260 -0.8705 0.3687
vn 0.8942 -0.2761 0.3524
vn 0.8183 0.3569 -0.4506
vn 0.9999 0.0069 -0.0123
vn -0.1416 -0.7395 0.6581
vn -0.2990 0.1726 -0.9385
vn 0.2466 0.3015 0.9210
vn 0.8948 -0.0254 0.4457
vn 0.7162 -0.0205 -0.6976
vn 0.9977 -0.0362 -0.0573
vn -0.7288 -0.5387 -0.4227
vn 0.9987 -0.0241 0.0452
vn 0.3726 -0.7787 -0.5048
vn -0.3966 0.8119 0.4284
vn 0.8936 0.3639 0.2629
vn 0.6093 0.6702 0.4237
vn -0.9805 -0.1164 -0.1584
vn -0.9114 -0.3146 -0.2654
vn -0.0380 0.0845 -0.9957
vn 0.5381 0.2436 0.8069
vn 0.5441 0.2318 0.8064
vn -0.0398 0.0516 -0.9979
vn 0.0974 0.1139 -0.9887
vn 0.5502 -0.8170 -0.1726
vn 0.5641 -0.8253 0.0252
vn 0.6942 -0.6616 -0.2835
vn -0.1100 -0.0184 -0.9938
vn 0.5156 0.1026 0.8506
vn 0.3806 0.2089 0.9008
vn -0.2828 0.1161 -0.9521
vn -0.0502 -0.1864 -0.9812
vn 0.9970 0.0346 -0.0689
vn 0.0509 0.1573 -0.9862
vn 0.6706 -0.7060 0.2278
vn -0.0416 -0.4619 -0.8860
vn 0.9817 -0.1838 -0.0508
vn 0.6804 -0.3759 -0.6290
vn 0.8311 0.0052 0.5561
vn 0.7574 -0.0224 -0.6526
vn 0.2812 -0.9027 -0.3256
vn 0.6016 -0.7340 0.3152
vn 0.2743 -0.1522 0.9495
vn 0.8349 -0.1475 0.5303
vn 0.7653 0.0306 -0.6429
vn 0.9051 0.1528 0.3967
vn 0.9970 -0.0394 0.0661
vn 0.0355 0.0479 -0.9982
vn 0.0785 -0.9969 -0.0022
vn 0.0998 -0.9950 -0.0070
vn 0.0980 -0.9952 -0.0069
vn 0.6354 -0.7718 -0.0250
vn -0.0184 -0.9159 -0.4010
vn 0.2099 -0.1520 0.9658
vn 0.5445 0.0055 0.8388
vn 0.5357 -0.1455 0.8318
vn 0.5425 0.1846 0.8196
vn 0.2390 -0.1313 0.9621
vn 0.0057 -0.0927 0.9957
vn 0.6583 0.7526 -0.0134
vn -0.8359 -0.0115 -0.5488
vn -0.5262 -0.7757 0.3484
vn -0.7445 0.5970 0.2990
vn -0.7232 -0.6707 0.1649
vn -0.4038 0.9036 -0.1431
vn 0.0652 -0.6879 0.7229
vn -0.8893 -0.4556 -0.0409
vn -0.9586 -0.1037 -0.2652
vn -0.4452 0.1887 -0.8753
vn 0.2695 0.1365 0.9533
vn -0.3060 0.8892 -0.3402
vn -0.9661 0.2335 -0.1104
vn 0.1931 0.8568 0.4782
vn 0.7360 0.6608 -0.1473
vn 0.1734 -0.1229 -0.9772
vn -0.8105 0.4801 0.3357
vn 0.8324 -0.3800 -0.4034
vn 0.1482 -0.5744 -0.8051
vn -0.8497 -0.1737 -0.4979
vn 0.9975 -0.0678 -0.0206
vn -0.9830 0.1643 -0.0821
vn 0.9118 0.2524 0.3239
vn -0.2943 0.2878 -0.9113
vn -0.8502 -0.2691 0.4525
vn -0.9508 0.3088 -0.0249
vn -0.9608 -0.2196 0.1695
vn -0.0805 0.0021 0.9967
vn -0.6738 -0.3857 0.6303
vn -0.8482 -0.4993 0.1767
vn -0.8329 0.0150 -0.5532
vn 0.1667 -0.6243 -0.7632
vn 0.7530 -0.2583 -0.6052
vn -0.8282 0.3257 0.4561
vn -0.8852 -0.1441 -0.4422
vn -0.9908 0.1312 0.0319
vn 0.0337 0.6820 0.7306
vn -0.2340 -0.4044 -0.8841
vn 0.0968 0.0516 0.9940
vn -0.8158 -0.1262 0.5644
vn -0.9466 0.1415 -0.2896
vn -0.9625 -0.0622 0.2641
vn 0.5820 0.5816 -0.5683
vn -0.9555 -0.2040 0.2129
vn -0.6703 0.4834 -0.5630
vn 0.5904 -0.4597 0.6634
vn -0.7944 -0.3943 0.4620
vn -0.4687 -0.5459 0.6945
vn 0.9410 0.2622 -0.2141
vn 0.8089 0.4276 -0.4035
vn -0.2181 0.2662 -0.9389
vn -0.0204 -0.1853 0.9825
vn -0.0206 0.0989 0.9949
vn -0.1316 0.2021 -0.9705
vn -0.2308 0.0589 -0.9712
vn -0.6909 -0.7097 -0.1377
vn -0.5799 -0.8097 0.0899
vn -0.7240 -0.6652 -0.1825
vn -0.3054 0.2614 -0.9156
vn 0.2892 0.1071 0.9513
vn 0.0973 0.0816 0.9919
vn -0.4023 0.0681 -0.9130
vn -0.1037 -0.1864 -0.9770
vn -0.9949 0.0125 0.1003
vn -0.1794 0.1093 -0.9777
vn -0.5118 -0.7870 0.3445
vn -0.0842 -0.4602 -0.8838
vn -0.9760 -0.1945 0.0984
vn -0.7663 -0.3772 -0.5201
vn -0.7540 -0.0233 0.6565
vn -0.8005 -0.1126 -0.5886
vn -0.3252 -0.9024 -0.2825
vn -0.5505 -0.7349 0.3962
vn -0.1393 -0.1522 0.9785
vn -0.7895 -0.2323 0.5682
vn -0.8548 -0.0420 -0.5172
vn -0.7156 0.1585 0.6803
vn -0.9902 -0.0929 0.1040
vn -0.1055 -0.0431 -0.9935
vn -0.0798 -0.9968 0.0056
vn -0.0998 -0.9950 0.0070
vn -0.0980 -0.9952 0.0069
vn -0.6297 -0.7741 0.0654
vn -0.1314 -0.8469 -0.5152
vn -0.0385 -0.1513 0.9877
vn -0.4112 -0.0014 0.9116
vn -0.4050 -0.1492 0.9021
vn -0.1662 0.0318 0.9856
vn -0.1507 -0.4214 0.8943
vn 0.4957 0.2019 0.8447
vn 0.6988 0.4602 0.5476
vn 0.8312 0.5376 -0.1418
vn 0.7160 -0.6553 0.2408
vn 0.8430 -0.1862 0.5047
vn 0.6607 -0.7478 0.0655
vn -0.6940 0.7019 0.1604
vn 0.3031 -0.1909 0.9336
vn 0.6154 -0.3619 0.7002
vn -0.4222 0.6820 0.5972
vn 0.3693 -0.1302 -0.9201
vn 0.1485 0.1400 0.9789
vn 0.1133 0.8453 0.5222
vn 0.9871 0.1155 0.1111
vn -0.1350 -0.2751 0.9519
vn 0.5113 0.8106 0.2856
vn -0.0912 0.9659 -0.2423
vn 0.8681 -0.3081 0.3892
vn -0.8877 0.3906 -0.2437
vn -0.0122 0.7850 -0.6194
vn 0.8563 0.4371 -0.2753
vn -0.9983 0.0284 0.0517
vn 0.9963 0.0655 0.0557
vn -0.8774 -0.3285 0.3498
vn -0.2193 -0.1836 -0.9582
vn 0.9728 -0.2300 0.0275
vn 0.9212 0.1587 -0.3551
vn 0.8404 0.5190 0.1561
vn 0.2213 0.0037 0.9752
vn 0.6240 0.3006 0.7213
vn 0.8210 0.1356 0.5547
vn 0.4023 -0.2714 -0.8744
vn -0.6288 -0.6555 0.4183
vn 0.0972 -0.5481 0.8307
vn 0.8220 -0.2760 0.4981
vn 0.8267 0.3435 -0.4457
vn 0.9997 0.0189 -0.0168
vn 0.0121 -0.7051 0.7090
vn -0.0414 0.6015 -0.7978
vn 0.3771 0.0493 0.9248
vn 0.9683 0.0583 0.2430
vn 0.7594 -0.0374 -0.6495
vn 0.9982 -0.0586 0.0100
vn -0.6485 -0.6148 -0.4488
vn 0.9927 0.0760 0.0937
vn 0.4570 -0.7589 -0.4639
vn -0.4515 0.7966 0.4020
vn 0.8667 0.4023 0.2950
vn 0.5995 0.6762 0.4282
vn -0.9859 -0.0915 -0.1404
vn -0.8677 -0.3811 -0.3193
vn -0.2914 -0.0864 -0.9527
vn 0.4954 0.3430 0.7980
vn 0.5395 0.2269 0.8108
vn 0.0434 -0.1017 -0.9939
vn 0.0512 0.1400 -0.9888
vn 0.6123 -0.7776 -0.1430
vn 0.7140 -0.6828 0.1549
vn 0.6861 -0.6693 -0.2850
vn -0.2061 -0.0883 -0.9745
vn 0.5122 0.0997 0.8531
vn 0.5101 0.0800 0.8564
vn -0.3209 0.0801 -0.9437
vn -0.0461 -0.1918 -0.9803
vn 0.9986 0.0088 -0.0517
vn 0.0352 0.1117 -0.9931
vn 0.5880 -0.7632 0.2678
vn -0.0406 -0.4602 -0.8869
vn 0.9780 -0.2050 -0.0385
vn 0.6234 -0.3006 -0.7218
vn 0.8440 -0.0114 0.5362
vn 0.7034 -0.1070 -0.7027
vn 0.1853 -0.8175 -0.5453
vn 0.7744 -0.5793 0.2544
vn 0.2595 -0.2326 0.9373
vn 0.8628 -0.2262 0.4521
vn 0.7515 0.0142 -0.6596
vn 0.8295 0.0627 0.5550
vn 0.9923 0.1030 -0.0686
vn -0.0510 -0.0423 -0.9978
vn 0.0798 -0.9968 -0.0056
vn 0.0398 -0.9923 -0.1171
vn 0.0814 -0.9963 0.0267
vn 0.6227 -0.7823 -0.0177
vn 0.0584 -0.8469 -0.5285
vn 0.3186 0.0520 0.9465
vn 0.5576 0.0078 0.8301
vn 0.5294 -0.1433 0.8362
vn 0.3255 0.0410 0.9446
vn 0.2738 -0.4214 0.8646
vn -0.0398 0.0617 0.9973
vn -0.0844 -0.0072 0.9964
vn -0.1003 -0.1009 0.9898
vn 0.2129 0.0575 0.9754
vn 0.2263 0.0065 0.9740
vn 0.2372 -0.1009 0.9662
vn -0.0853 0.0297 0.9959
vn -0.0851 -0.0081 0.9963
vn -0.0840 -0.1315 0.9878
vn 0.2382 0.0381 0.9705
vn 0.2382 -0.0082 0.9712
vn 0.2250 -0.1238 0.9665
vn -0.9849 0.1721 0.0188
vn 0.7672 -0.6382 -0.0646
vn -0.0747 -0.9958 0.0522
vn -0.1083 -0.0843 -0.9905
vn -0.8988 -0.4331 0.0682
vn 0.9906 -0.0558 -0.1252
vn -0.9968 0.0723 0.0346
vn 0.1092 0.2200 0.9694
vn 0.9017 0.3582 0.2422
vn -0.2556 -0.1086 0.9607
vn 0.9781 -0.1813 0.1022
vn 0.7301 0.2771 0.6246
vn 0.0966 0.9064 0.4112
vn 0.7540 -0.5793 0.3096
vn -0.7487 0.5284 0.4002
vn 0.0869 0.4398 0.8939
vn 0.5426 0.7651 -0.3466
vn -0.8070 -0.4948 0.3224
vn 0.3700 0.8860 -0.2796
vn 0.2161 -0.6900 0.6908
vn 0.0181 -0.4604 0.8875
vn 0.1191 -0.5848 0.8024
vn 0.4383 0.3294 0.8363
vn -0.4851 -0.8734 0.0441
vn -0.8380 0.0226 -0.5452
vn 0.7933 0.1880 0.5791
vn -0.4898 0.8632 -0.1221
vn 0.7544 0.4489 -0.4789
vn -0.9315 -0.0100 -0.3637
vn 0.3497 0.9369 -0.0003
vn -0.6584 -0.7264 0.1971
vn -0.4745 0.8721 0.1197
vn -0.4531 0.8330 -0.3173
vn -0.9591 -0.2832 0.0011
vn 0.4326 0.8455 -0.3129
vn 0.8296 0.4964 0.2557
vn 0.9672 0.2432 0.0739
vn -0.6310 -0.6997 -0.3350
vn -0.7929 -0.5722 -0.2097
vn 0.5506 -0.6492 -0.5247
vn -0.4900 0.6493 0.5817
vn -0.9572 -0.2887 0.0192
vn 0.5016 0.7270 0.4690
vn 0.4901 0.7245 0.4847
vn -0.9294 -0.3689 0.0069
vn -0.5346 0.5785 0.6161
vn 0.5566 -0.6865 -0.4679
vn -0.8057 -0.5758 -0.1390
vn -0.6305 -0.7279 -0.2696
vn 0.9896 0.1429 0.0143
vn 0.8289 0.5000 0.2509
vn 0.9241 -0.2096 0.3196
vn -0.7074 -0.6992 0.1039
vn 0.7234 0.5204 -0.4537
vn -0.3843 0.1928 0.9028
vn -0.6476 -0.0453 -0.7607
vn 0.5191 -0.8547 0.0053
vn -0.7125 -0.0134 -0.7015
vn 0.3323 -0.0899 -0.9389
vn 0.0641 0.9900 -0.1254
vn 0.8688 0.4617 -0.1787
vn -0.9891 0.1446 0.0295
vn 0.9879 -0.0522 -0.1462
vn -0.8966 -0.4316 0.0993
vn -0.0792 -0.9916 0.1027
vn 0.8153 -0.5753 -0.0648
vn -0.8305 0.5557 -0.0387
vn -0.8906 0.4545 -0.0168
vn 0.9137 0.3603 -0.1880
vn 0.0612 0.9869 -0.1495
vn -0.1629 0.2616 0.9513
vn 0.4215 0.2061 0.8831
vn 0.9889 0.0243 -0.1467
vn -0.1084 -0.0843 -0.9905
vn -0.0986 -0.0894 -0.9911
vn 0.9861 -0.1174 -0.1176
vn 0.8622 0.4861 0.1425
vn -0.7706 0.5675 0.2901
vn 0.1065 0.9205 0.3761
vn -0.9968 0.0723 0.0338
vn 0.9938 -0.0249 0.1084
vn -0.8411 0.4538 -0.2943
vn -0.0122 0.8094 -0.5871
vn -0.0002 0.6196 0.7849
vn 0.8573 0.4419 -0.2641
vn -0.9991 -0.0164 0.0403
vn 0.9986 0.0002 0.0532
vn 0.0096 -0.7211 -0.6928
vn -0.8529 -0.5070 0.1247
vn 0.9830 -0.1112 -0.1460
vn -0.9770 -0.1494 -0.1523
vn 0.8450 0.2636 -0.4654
vn 0.0185 -0.8711 0.4907
vn -0.8711 0.2002 -0.4485
vn 0.8509 -0.5020 0.1546
vn -0.0078 0.6599 -0.7513
vn -0.6881 -0.5884 -0.4246
vn 0.9066 0.3667 0.2087
vn -0.5249 -0.6355 -0.5663
vn -0.0105 0.9824 0.1868
vn 0.1832 0.9759 -0.1182
vn 0.0878 0.9955 0.0348
vn -0.3268 0.5471 -0.7706
vn 0.5814 0.3775 0.7207
vn 0.6149 -0.7287 0.3015
vn -0.7107 0.5301 -0.4625
vn 0.3441 -0.6715 -0.6562
vn -0.8686 -0.4096 -0.2788
vn -0.4236 -0.7161 0.5548
vn -0.5660 -0.2225 -0.7938
vn -0.8102 -0.5852 0.0332
vn -0.4760 0.6602 0.5810
vn 0.4665 -0.7068 -0.5317
vn 0.9222 -0.0818 0.3781
vn -0.5985 -0.5054 -0.6217
vn -0.8233 0.1014 -0.5585
vn -0.9708 0.1238 -0.2057
vn 0.5428 -0.0228 0.8396
vn 0.8325 -0.0194 0.5537
vn -0.5058 0.0622 0.8604
vn 0.5111 0.0278 -0.8591
vn 0.9804 -0.0237 0.1955
vn -0.5225 0.0931 -0.8475
vn -0.5096 0.1207 -0.8519
vn 0.9601 0.0166 0.2792
vn 0.5419 0.0743 -0.8372
vn -0.5256 0.1096 0.8436
vn 0.8439 0.0367 0.5352
vn 0.6613 0.0265 0.7496
vn -0.9853 0.1364 -0.1029
vn -0.8389 0.1003 -0.5349
vn -0.8259 0.5636 0.0151
vn 0.8024 0.3215 0.5028
vn -0.7477 -0.6281 -0.2154
vn 0.4916 0.5487 -0.6762
vn 0.5205 -0.7255 0.4502
vn -0.3923 0.5780 0.7156
vn 0.5890 -0.7083 0.3890
vn -0.4602 -0.6449 0.6102
vn 0.0136 -0.7628 0.6465
vn -0.8736 -0.3581 0.3296
vn 0.9964 0.0627 0.0562
vn -0.9990 0.0165 0.0412
vn 0.8563 0.4433 -0.2649
vn -0.0130 0.8098 -0.5866
vn -0.8852 0.3934 -0.2484
vn 0.8699 -0.3367 0.3605
vn 0.9221 -0.2518 0.2937
vn -0.8911 -0.3181 0.3236
vn 0.0146 -0.7474 0.6642
vn 0.2811 -0.7100 -0.6457
vn -0.2380 -0.7203 -0.6515
vn -0.9922 -0.0711 0.1022
vn -0.0072 0.6168 0.7871
vn -0.9995 0.0313 0.0003
vn -0.7953 -0.5945 0.1183
vn 0.8446 -0.5269 0.0952
vn 0.0166 -0.9822 0.1872
vn 0.9956 0.0908 -0.0235
vn -0.9850 0.1712 0.0227
vn 0.7836 -0.6156 -0.0838
vn -0.0744 -0.9959 0.0518
vn -0.1083 -0.0844 -0.9905
vn -0.8986 -0.4336 0.0680
vn 0.9874 -0.0811 -0.1361
vn -0.9911 0.1205 0.0558
vn 0.1065 0.2189 0.9699
vn 0.8778 0.3796 0.2920
vn -0.9731 -0.1082 0.2032
vn 0.9193 -0.1188 0.3752
vn 0.0554 -0.6148 0.7868
vn 0.1027 0.9005 0.4226
vn -0.7531 0.0686 0.6543
vn -0.8064 0.5036 0.3100
vn 0.0706 0.6730 0.7363
vn 0.5426 0.7651 -0.3467
vn -0.7754 -0.5367 0.3326
vn 0.3807 0.9178 -0.1132
vn 0.4140 0.3817 0.8264
vn -0.4746 -0.8802 -0.0079
vn -0.7441 0.0665 -0.6648
vn 0.5981 0.7446 -0.2964
vn 0.9139 0.1455 -0.3789
vn 0.3977 0.9166 0.0417
vn 0.6683 0.7353 -0.1132
vn -0.5263 0.7917 0.3102
vn -0.6004 0.6853 -0.4121
vn -0.8715 -0.4893 -0.0315
vn 0.3821 0.8589 -0.3411
vn 0.7995 0.5329 0.2773
vn 0.9874 0.1582 -0.0056
vn -0.4610 -0.7687 -0.4434
vn -0.8183 -0.5420 -0.1912
vn 0.4968 -0.6883 -0.5287
vn -0.5423 0.6096 0.5782
vn -0.9374 -0.3479 -0.0178
vn 0.4603 0.7452 0.4825
vn 0.5034 0.7066 0.4973
vn -0.9194 -0.3929 0.0174
vn -0.6241 -0.7229 -0.2965
vn 0.9892 0.1458 -0.0112
vn 0.9033 -0.2097 0.3743
vn 0.5977 0.6219 -0.5059
vn -0.6443 -0.2020 -0.7376
vn 0.0819 0.9895 -0.1193
vn 0.8607 0.4777 -0.1759
vn -0.9973 0.0699 0.0226
vn 0.9888 -0.0370 -0.1448
vn -0.8674 -0.4886 0.0940
vn -0.0690 -0.9920 0.1057
vn 0.7863 -0.6145 -0.0642
vn -0.7983 0.6012 -0.0358
vn -0.8904 0.4549 -0.0166
vn 0.9063 0.3860 -0.1720
vn 0.0607 0.9870 -0.1487
vn -0.2495 0.2600 0.9328
vn 0.3530 0.2194 0.9096
vn 0.9886 0.0247 -0.1487
vn -0.1011 -0.0815 -0.9915
vn 0.9873 -0.0811 -0.1366
vn -0.9975 0.0028 0.0706
vn 0.9934 -0.0235 0.1122
vn -0.8250 0.4642 -0.3222
vn -0.0119 0.8092 -0.5874
vn 0.8576 0.4414 -0.2640
vn -0.9993 0.0110 0.0357
vn 0.9976 0.0524 0.0447
vn 0.0122 -0.7201 -0.6938
vn -0.8525 -0.5067 0.1283
vn 0.9808 -0.1127 -0.1592
vn -0.9748 -0.1505 -0.1645
vn 0.8434 0.2717 -0.4636
vn 0.0183 -0.8714 0.4903
vn -0.8682 0.2224 -0.4436
vn 0.8528 -0.5029 0.1410
vn -0.0070 0.6622 -0.7493
vn 0.8830 0.4044 0.2383
vn -0.5135 -0.5155 -0.6859
vn -0.0105 0.9824 0.1867
vn -0.3420 0.5887 -0.7324
vn 0.5989 0.4138 0.6856
vn 0.7315 -0.6268 0.2683
vn -0.7941 -0.3690 -0.4829
vn -0.9065 -0.3645 -0.2132
vn -0.5060 -0.4293 -0.7481
vn 0.8344 0.1221 0.5375
vn 0.4783 -0.3136 -0.8203
vn 0.3747 -0.6539 -0.6573
vn 0.9714 -0.0987 0.2159
vn -0.6211 -0.4802 -0.6194
vn -0.8384 0.1061 -0.5347
vn -0.9883 0.1115 -0.1044
vn 0.6584 -0.0130 0.7525
vn 0.8437 -0.0228 0.5363
vn -0.5320 0.0587 0.8447
vn 0.5398 0.0319 -0.8412
vn 0.9612 -0.0162 0.2755
vn -0.5137 0.0915 -0.8531
vn -0.5010 0.0979 -0.8599
vn 0.9552 0.0404 0.2934
vn 0.6725 0.0497 0.7385
vn -0.9893 0.1141 -0.0911
vn -0.7970 0.6038 -0.0161
vn -0.8489 -0.5044 -0.1579
vn 0.5420 -0.6205 0.5667
vn 0.0145 -0.7625 0.6468
vn -0.8262 -0.4072 0.3894
vn 0.9960 -0.0060 0.0889
vn -0.9981 -0.0197 0.0590
vn 0.8573 0.4422 -0.2636
vn -0.0122 0.8100 -0.5863
vn -0.8416 0.4450 -0.3060
vn 0.8703 -0.3362 0.3600
vn 0.9223 -0.2514 0.2937
vn -0.8798 -0.3471 0.3247
vn 0.0152 -0.7479 0.6636
vn 0.3649 -0.6872 -0.6281
vn -0.3098 -0.7040 -0.6391
vn -0.9921 -0.0704 0.1042
vn -0.0103 0.6229 0.7823
vn -0.9993 0.0112 0.0360
vn 0.9976 0.0529 0.0453
usemtl color_1
s off
f 94//1 58//1 91//1
f 43//2 49//2 51//2
f 8//3 10//3 2//3
f 88//4 3//4 6//4
f 7//5 13//5 15//5
f 88//6 98//6 99//6
f 171//7 16//7 179//7
f 172//8 115//8 276//8
f 5//9 47//9 1//9
f 3//10 50//10 46//10
f 89//11 1//11 41//11
f 54//12 173//12 4//12
f 179//13 14//13 180//13
f 8//14 15//14 9//14
f 4//15 12//15 13//15
f 180//16 12//16 173//16
f 2//17 11//17 171//17
f 13//18 35//18 15//18
f 11//19 34//19 16//19
f 11//20 37//20 33//20
f 9//21 37//21 10//21
f 16//22 36//22 14//22
f 15//23 40//23 9//23
f 12//24 36//24 39//24
f 89//25 57//25 92//25
f 43//26 60//26 59//26
f 41//27 59//27 57//27
f 60//28 42//28 58//28
f 172//29 90//29 85//29
f 6//30 46//30 45//30
f 5//31 45//31 48//31
f 41//32 47//32 49//32
f 44//33 50//33 42//33
f 44//34 51//34 52//34
f 7//35 54//35 4//35
f 53//36 8//36 2//36
f 8//37 56//37 7//37
f 13//38 39//38 38//38
f 229//39 2//39 171//39
f 216//40 91//40 90//40
f 56//41 58//41 54//41
f 53//42 59//42 55//42
f 55//43 60//43 56//43
f 51//44 77//44 78//44
f 48//45 80//45 47//45
f 49//46 80//46 77//46
f 50//47 79//47 46//47
f 48//48 83//48 81//48
f 45//49 79//49 83//49
f 52//50 82//50 50//50
f 52//51 78//51 84//51
f 235//52 93//52 271//52
f 90//53 58//53 42//53
f 85//54 42//54 3//54
f 215//55 92//55 235//55
f 174//56 89//56 215//56
f 1//57 87//57 5//57
f 5//58 88//58 6//58
f 86//59 98//59 87//59
f 93//60 57//60 53//60
f 94//61 230//61 54//61
f 91//62 272//62 94//62
f 93//63 229//63 271//63
f 110//64 285//64 101//64
f 109//65 103//65 108//65
f 174//66 97//66 86//66
f 85//67 99//67 115//67
f 285//68 104//68 101//68
f 103//69 105//69 106//69
f 102//70 104//70 105//70
f 108//71 118//71 117//71
f 110//72 102//72 109//72
f 105//73 112//73 113//73
f 116//74 114//74 111//74
f 279//75 111//75 300//75
f 103//76 116//76 118//76
f 97//77 109//77 98//77
f 99//78 117//78 115//78
f 98//79 108//79 99//79
f 278//80 110//80 97//80
f 303//81 114//81 113//81
f 112//82 303//82 113//82
f 301//83 111//83 114//83
f 106//84 113//84 114//84
f 289//85 112//85 104//85
f 95//86 276//86 115//86
f 100//87 117//87 118//87
f 96//88 118//88 116//88
f 95//89 117//89 107//89
f 96//90 279//90 312//90
f 274//91 234//91 228//91
f 225//92 213//92 217//92
f 182//93 178//93 168//93
f 266//94 169//94 263//94
f 177//95 185//95 170//95
f 266//96 281//96 265//96
f 179//97 183//97 171//97
f 172//98 307//98 263//98
f 221//99 175//99 167//99
f 169//100 224//100 214//100
f 213//101 264//101 267//101
f 170//102 230//102 228//102
f 180//103 188//103 179//103
f 181//104 177//104 178//104
f 170//105 184//105 173//105
f 173//106 186//106 180//106
f 183//107 168//107 171//107
f 207//108 185//108 187//108
f 188//109 205//109 183//109
f 205//110 182//110 183//110
f 182//111 212//111 181//111
f 186//112 206//112 188//112
f 181//113 207//113 187//113
f 184//114 208//114 186//114
f 233//115 267//115 270//115
f 237//116 218//116 217//116
f 237//117 213//117 233//117
f 238//118 214//118 218//118
f 268//119 172//119 263//119
f 176//120 220//120 169//120
f 222//121 176//121 175//121
f 223//122 167//122 213//122
f 224//123 218//123 214//123
f 226//124 217//124 218//124
f 177//125 228//125 232//125
f 178//126 227//126 168//126
f 177//127 231//127 178//127
f 185//128 211//128 184//128
f 171//129 227//129 229//129
f 269//130 216//130 268//130
f 228//131 238//131 232//131
f 231//132 233//132 227//132
f 232//133 237//133 231//133
f 225//134 255//134 223//134
f 258//135 222//135 221//135
f 223//136 258//136 221//136
f 257//137 224//137 220//137
f 222//138 261//138 219//138
f 219//139 257//139 220//139
f 260//140 226//140 224//140
f 262//141 225//141 226//141
f 271//142 270//142 235//142
f 234//143 268//143 214//143
f 169//144 268//144 263//144
f 270//145 215//145 235//145
f 267//146 174//146 215//146
f 167//147 265//147 264//147
f 175//148 266//148 265//148
f 281//149 264//149 265//149
f 233//150 273//150 227//150
f 230//151 274//151 228//151
f 274//152 236//152 269//152
f 273//153 229//153 227//153
f 297//154 285//154 296//154
f 294//155 287//155 295//155
f 280//156 174//156 264//156
f 263//157 282//157 266//157
f 290//158 285//158 286//158
f 288//159 291//159 287//159
f 287//160 290//160 286//160
f 310//161 294//161 309//161
f 287//162 297//162 295//162
f 291//163 304//163 290//163
f 308//164 306//164 292//164
f 279//165 299//165 308//165
f 308//166 288//166 310//166
f 295//167 280//167 281//167
f 307//168 294//168 282//168
f 282//169 295//169 281//169
f 297//170 278//170 280//170
f 306//171 303//171 305//171
f 304//172 303//172 302//172
f 301//173 299//173 300//173
f 292//174 305//174 291//174
f 304//175 289//175 290//175
f 275//176 276//176 311//176
f 310//177 293//177 283//177
f 277//178 310//178 283//178
f 309//179 275//179 293//179
f 279//180 277//180 312//180
f 94//181 54//181 58//181
f 43//182 41//182 49//182
f 8//183 9//183 10//183
f 88//184 85//184 3//184
f 7//185 4//185 13//185
f 88//186 87//186 98//186
f 171//187 11//187 16//187
f 172//188 85//188 115//188
f 5//189 48//189 47//189
f 3//190 42//190 50//190
f 89//191 86//191 1//191
f 54//192 230//192 173//192
f 179//193 16//193 14//193
f 8//194 7//194 15//194
f 4//195 173//195 12//195
f 180//196 14//196 12//196
f 2//197 10//197 11//197
f 13//198 38//198 35//198
f 11//199 33//199 34//199
f 11//200 10//200 37//200
f 9//201 40//201 37//201
f 16//202 34//202 36//202
f 15//203 35//203 40//203
f 12//204 14//204 36//204
f 89//205 41//205 57//205
f 43//206 44//206 60//206
f 41//207 43//207 59//207
f 60//208 44//208 42//208
f 172//209 216//209 90//209
f 6//210 3//210 46//210
f 5//211 6//211 45//211
f 41//212 1//212 47//212
f 44//213 52//213 50//213
f 44//214 43//214 51//214
f 7//215 56//215 54//215
f 53//216 55//216 8//216
f 8//217 55//217 56//217
f 13//218 12//218 39//218
f 229//219 53//219 2//219
f 216//220 236//220 91//220
f 56//221 60//221 58//221
f 53//222 57//222 59//222
f 55//223 59//223 60//223
f 51//224 49//224 77//224
f 48//225 81//225 80//225
f 49//226 47//226 80//226
f 50//227 82//227 79//227
f 48//228 45//228 83//228
f 45//229 46//229 79//229
f 52//230 84//230 82//230
f 52//231 51//231 78//231
f 235//232 92//232 93//232
f 90//233 91//233 58//233
f 85//234 90//234 42//234
f 215//235 89//235 92//235
f 174//236 86//236 89//236
f 1//237 86//237 87//237
f 5//238 87//238 88//238
f 86//239 97//239 98//239
f 93//240 92//240 57//240
f 94//241 272//241 230//241
f 91//242 236//242 272//242
f 93//243 53//243 229//243
f 110//244 296//244 285//244
f 109//245 102//245 103//245
f 174//246 278//246 97//246
f 85//247 88//247 99//247
f 285//248 289//248 104//248
f 103//249 102//249 105//249
f 102//250 101//250 104//250
f 108//251 103//251 118//251
f 110//252 101//252 102//252
f 105//253 104//253 112//253
f 116//254 106//254 114//254
f 279//255 116//255 111//255
f 103//256 106//256 116//256
f 97//257 110//257 109//257
f 99//258 108//258 117//258
f 98//259 109//259 108//259
f 278//260 296//260 110//260
f 303//261 301//261 114//261
f 112//262 302//262 303//262
f 301//263 300//263 111//263
f 106//264 105//264 113//264
f 289//265 302//265 112//265
f 95//266 311//266 276//266
f 100//267 107//267 117//267
f 96//268 100//268 118//268
f 95//269 115//269 117//269
f 96//270 116//270 279//270
f 274//271 269//271 234//271
f 225//272 223//272 213//272
f 182//273 181//273 178//273
f 266//274 176//274 169//274
f 177//275 187//275 185//275
f 266//276 282//276 281//276
f 179//277 188//277 183//277
f 172//278 276//278 307//278
f 221//279 222//279 175//279
f 169//280 220//280 224//280
f 213//281 167//281 264//281
f 170//282 173//282 230//282
f 180//283 186//283 188//283
f 181//284 187//284 177//284
f 170//285 185//285 184//285
f 173//286 184//286 186//286
f 183//287 182//287 168//287
f 207//288 210//288 185//288
f 188//289 206//289 205//289
f 205//290 209//290 182//290
f 182//291 209//291 212//291
f 186//292 208//292 206//292
f 181//293 212//293 207//293
f 184//294 211//294 208//294
f 233//295 213//295 267//295
f 237//296 238//296 218//296
f 237//297 217//297 213//297
f 238//298 234//298 214//298
f 268//299 216//299 172//299
f 176//300 219//300 220//300
f 222//301 219//301 176//301
f 223//302 221//302 167//302
f 224//303 226//303 218//303
f 226//304 225//304 217//304
f 177//305 170//305 228//305
f 178//306 231//306 227//306
f 177//307 232//307 231//307
f 185//308 210//308 211//308
f 171//309 168//309 227//309
f 269//310 236//310 216//310
f 228//311 234//311 238//311
f 231//312 237//312 233//312
f 232//313 238//313 237//313
f 225//314 256//314 255//314
f 258//315 259//315 222//315
f 223//316 255//316 258//316
f 257//317 260//317 224//317
f 222//318 259//318 261//318
f 219//319 261//319 257//319
f 260//320 262//320 226//320
f 262//321 256//321 225//321
f 271//322 273//322 270//322
f 234//323 269//323 268//323
f 169//324 214//324 268//324
f 270//325 267//325 215//325
f 267//326 264//326 174//326
f 167//327 175//327 265//327
f 175//328 176//328 266//328
f 281//329 280//329 264//329
f 233//330 270//330 273//330
f 230//331 272//331 274//331
f 274//332 272//332 236//332
f 273//333 271//333 229//333
f 297//334 286//334 285//334
f 294//335 288//335 287//335
f 280//336 278//336 174//336
f 263//337 307//337 282//337
f 290//338 289//338 285//338
f 288//339 292//339 291//339
f 287//340 291//340 290//340
f 310//341 288//341 294//341
f 287//342 286//342 297//342
f 291//343 305//343 304//343
f 308//344 299//344 306//344
f 279//345 300//345 299//345
f 308//346 292//346 288//346
f 295//347 297//347 280//347
f 307//348 309//348 294//348
f 282//349 294//349 295//349
f 297//350 296//350 278//350
f 306//351 301//351 303//351
f 304//352 305//352 303//352
f 301//353 306//353 299//353
f 292//354 306//354 305//354
f 304//355 302//355 289//355
f 275//356 307//356 276//356
f 310//357 309//357 293//357
f 277//358 308//358 310//358
f 309//359 307//359 275//359
f 279//360 308//360 277//360
usemtl color_2
f 95//361 298//361 311//361
f 284//362 107//362 100//362
f 284//363 96//363 312//363
f 298//364 275//364 311//364
f 293//365 284//365 283//365
f 277//366 284//366 312//366
f 95//367 107//367 298//367
f 284//368 298//368 107//368
f 284//369 100//369 96//369
f 298//370 293//370 275//370
f 293//371 298//371 284//371
f 277//372 283//372 284//372
usemtl color_3
f 160//373 157//373 154//373
f 148//374 19//374 24//374
f 147//375 18//375 19//375
f 23//376 20//376 22//376
f 17//376 19//376 18//376
f 17//376 22//376 24//376
f 143//377 17//377 18//377
f 148//378 22//378 150//378
f 146//379 23//379 17//379
f 161//380 155//380 162//380
f 36//381 30//381 39//381
f 40//382 29//382 31//382
f 34//383 32//383 36//383
f 37//384 31//384 26//384
f 159//376 154//376 153//376
f 38//385 30//385 28//385
f 34//386 25//386 27//386
f 35//387 28//387 29//387
f 33//388 26//388 25//388
f 125//389 139//389 123//389
f 63//390 131//390 64//390
f 124//391 141//391 125//391
f 61//392 66//392 68//392
f 65//393 64//393 67//393
f 67//394 61//394 68//394
f 65//395 134//395 132//395
f 62//396 129//396 130//396
f 119//397 136//397 127//397
f 67//398 135//398 134//398
f 119//399 140//399 124//399
f 78//400 76//400 84//400
f 82//401 76//401 73//401
f 83//402 74//402 75//402
f 81//403 75//403 71//403
f 82//404 74//404 79//404
f 77//405 70//405 69//405
f 80//406 71//406 70//406
f 78//407 69//407 72//407
f 76//408 125//408 123//408
f 76//409 121//409 73//409
f 75//410 126//410 122//410
f 75//411 120//411 71//411
f 74//412 121//412 126//412
f 70//413 124//413 69//413
f 71//414 119//414 70//414
f 72//415 124//415 125//415
f 141//416 132//416 134//416
f 136//417 128//417 127//417
f 140//418 128//418 132//418
f 137//419 130//419 142//419
f 136//420 129//420 131//420
f 138//421 130//421 129//421
f 139//422 133//422 137//422
f 139//423 134//423 135//423
f 66//424 135//424 68//424
f 61//425 131//425 129//425
f 121//426 139//426 137//426
f 63//427 132//427 128//427
f 126//428 138//428 122//428
f 62//429 133//429 66//429
f 122//430 136//430 120//430
f 126//431 137//431 142//431
f 28//432 145//432 144//432
f 32//433 145//433 30//433
f 31//434 149//434 146//434
f 27//435 150//435 32//435
f 26//436 146//436 143//436
f 26//437 147//437 25//437
f 25//438 148//438 27//438
f 29//439 144//439 149//439
f 157//440 153//440 154//440
f 158//441 152//441 156//441
f 156//442 153//442 155//442
f 162//443 157//443 163//443
f 164//376 151//376 165//376
f 161//444 158//444 156//444
f 165//445 158//445 166//445
f 164//446 153//446 152//446
f 156//447 157//447 155//447
f 20//376 159//376 164//376
f 22//448 166//448 150//448
f 145//449 166//449 161//449
f 20//376 165//376 22//376
f 144//450 163//450 149//450
f 21//446 160//446 159//446
f 144//451 161//451 162//451
f 23//452 163//452 160//452
f 354//453 351//453 357//453
f 342//454 191//454 341//454
f 341//455 190//455 337//455
f 192//456 195//456 194//456
f 191//456 189//456 190//456
f 194//456 189//456 196//456
f 337//457 189//457 340//457
f 194//458 342//458 344//458
f 340//459 195//459 343//459
f 349//460 355//460 356//460
f 211//461 204//461 208//461
f 203//462 207//462 212//462
f 208//463 199//463 206//463
f 209//464 203//464 212//464
f 353//456 348//456 354//456
f 210//465 202//465 211//465
f 199//466 205//466 206//466
f 201//467 210//467 207//467
f 197//468 209//468 205//468
f 317//469 335//469 319//469
f 325//470 241//470 242//470
f 335//471 318//471 319//471
f 244//472 239//472 246//472
f 243//473 242//473 241//473
f 246//474 242//474 245//474
f 243//475 328//475 245//475
f 240//476 323//476 239//476
f 313//477 330//477 314//477
f 328//478 246//478 245//478
f 334//479 313//479 318//479
f 254//480 256//480 262//480
f 251//481 262//481 260//481
f 261//482 252//482 257//482
f 259//483 253//483 261//483
f 257//484 251//484 260//484
f 255//485 248//485 258//485
f 258//486 249//486 259//486
f 256//487 247//487 255//487
f 254//488 319//488 250//488
f 315//489 254//489 251//489
f 253//490 320//490 252//490
f 314//491 253//491 249//491
f 252//492 315//492 251//492
f 318//493 248//493 247//493
f 313//494 249//494 248//494
f 250//495 318//495 247//495
f 335//496 326//496 334//496
f 322//497 330//497 321//497
f 334//498 322//498 321//498
f 324//499 331//499 336//499
f 330//500 323//500 332//500
f 332//501 324//501 336//501
f 327//502 333//502 331//502
f 333//503 328//503 335//503
f 329//504 244//504 246//504
f 323//505 242//505 239//505
f 315//506 333//506 317//506
f 241//507 326//507 243//507
f 332//508 320//508 316//508
f 327//509 240//509 244//509
f 314//510 332//510 316//510
f 320//511 331//511 315//511
f 200//512 339//512 202//512
f 202//513 344//513 204//513
f 203//514 343//514 201//514
f 344//515 199//515 204//515
f 337//516 203//516 198//516
f 341//517 198//517 197//517
f 199//518 341//518 197//518
f 343//519 200//519 201//519
f 351//520 347//520 349//520
f 346//521 352//521 350//521
f 347//522 350//522 349//522
f 351//523 356//523 357//523
f 345//456 358//456 359//456
f 355//524 352//524 360//524
f 352//525 359//525 360//525
f 358//456 347//456 353//456
f 350//526 351//526 352//526
f 192//456 353//456 193//456
f 360//527 194//527 344//527
f 339//528 360//528 344//528
f 359//456 192//456 194//456
f 357//529 338//529 343//529
f 193//456 354//456 195//456
f 338//530 355//530 339//530
f 195//531 357//531 343//531
f 160//532 163//532 157//532
f 148//533 147//533 19//533
f 147//534 143//534 18//534
f 23//535 21//535 20//535
f 17//535 24//535 19//535
f 17//376 23//376 22//376
f 143//536 146//536 17//536
f 148//537 24//537 22//537
f 146//538 149//538 23//538
f 161//539 156//539 155//539
f 36//540 32//540 30//540
f 40//541 35//541 29//541
f 34//542 27//542 32//542
f 37//543 40//543 31//543
f 159//376 160//376 154//376
f 38//544 39//544 30//544
f 34//545 33//545 25//545
f 35//546 38//546 28//546
f 33//547 37//547 26//547
f 125//548 141//548 139//548
f 63//549 128//549 131//549
f 124//550 140//550 141//550
f 61//392 62//392 66//392
f 65//393 63//393 64//393
f 67//394 64//394 61//394
f 65//551 67//551 134//551
f 62//552 61//552 129//552
f 119//553 120//553 136//553
f 67//398 68//398 135//398
f 119//399 127//399 140//399
f 78//554 72//554 76//554
f 82//555 84//555 76//555
f 83//556 79//556 74//556
f 81//557 83//557 75//557
f 82//558 73//558 74//558
f 77//559 80//559 70//559
f 80//560 81//560 71//560
f 78//561 77//561 69//561
f 76//562 72//562 125//562
f 76//563 123//563 121//563
f 75//564 74//564 126//564
f 75//565 122//565 120//565
f 74//566 73//566 121//566
f 70//567 119//567 124//567
f 71//568 120//568 119//568
f 72//569 69//569 124//569
f 141//570 140//570 132//570
f 136//571 131//571 128//571
f 140//418 127//418 128//418
f 137//419 133//419 130//419
f 136//420 138//420 129//420
f 138//572 142//572 130//572
f 139//573 135//573 133//573
f 139//423 141//423 134//423
f 66//574 133//574 135//574
f 61//425 64//425 131//425
f 121//575 123//575 139//575
f 63//427 65//427 132//427
f 126//576 142//576 138//576
f 62//429 130//429 133//429
f 122//430 138//430 136//430
f 126//431 121//431 137//431
f 28//577 30//577 145//577
f 32//578 150//578 145//578
f 31//579 29//579 149//579
f 27//580 148//580 150//580
f 26//581 31//581 146//581
f 26//582 143//582 147//582
f 25//583 147//583 148//583
f 29//584 28//584 144//584
f 157//585 155//585 153//585
f 158//586 151//586 152//586
f 156//587 152//587 153//587
f 162//588 155//588 157//588
f 164//446 152//446 151//446
f 161//589 166//589 158//589
f 165//590 151//590 158//590
f 164//376 159//376 153//376
f 156//591 158//591 157//591
f 20//376 21//376 159//376
f 22//592 165//592 166//592
f 145//449 150//449 166//449
f 20//376 164//376 165//376
f 144//450 162//450 163//450
f 21//535 23//535 160//535
f 144//451 145//451 161//451
f 23//593 149//593 163//593
f 354//594 348//594 351//594
f 342//595 196//595 191//595
f 341//596 191//596 190//596
f 192//456 193//456 195//456
f 191//456 196//456 189//456
f 194//456 195//456 189//456
f 337//597 190//597 189//597
f 194//598 196//598 342//598
f 340//599 189//599 195//599
f 349//600 350//600 355//600
f 211//601 202//601 204//601
f 203//602 201//602 207//602
f 208//603 204//603 199//603
f 209//604 198//604 203//604
f 353//456 347//456 348//456
f 210//605 200//605 202//605
f 199//606 197//606 205//606
f 201//607 200//607 210//607
f 197//608 198//608 209//608
f 317//469 333//469 335//469
f 325//609 322//609 241//609
f 335//610 334//610 318//610
f 244//611 240//611 239//611
f 243//473 245//473 242//473
f 246//474 239//474 242//474
f 243//612 326//612 328//612
f 240//613 324//613 323//613
f 313//614 321//614 330//614
f 328//478 329//478 246//478
f 334//479 321//479 313//479
f 254//615 250//615 256//615
f 251//616 254//616 262//616
f 261//617 253//617 252//617
f 259//618 249//618 253//618
f 257//619 252//619 251//619
f 255//620 247//620 248//620
f 258//621 248//621 249//621
f 256//622 250//622 247//622
f 254//623 317//623 319//623
f 315//624 317//624 254//624
f 253//625 316//625 320//625
f 314//626 316//626 253//626
f 252//627 320//627 315//627
f 318//628 313//628 248//628
f 313//629 314//629 249//629
f 250//630 319//630 318//630
f 335//631 328//631 326//631
f 322//632 325//632 330//632
f 334//498 326//498 322//498
f 324//499 327//499 331//499
f 330//500 325//500 323//500
f 332//633 323//633 324//633
f 327//634 329//634 333//634
f 333//503 329//503 328//503
f 329//635 327//635 244//635
f 323//505 325//505 242//505
f 315//636 331//636 333//636
f 241//507 322//507 326//507
f 332//637 336//637 320//637
f 327//509 324//509 240//509
f 314//510 330//510 332//510
f 320//511 336//511 331//511
f 200//638 338//638 339//638
f 202//639 339//639 344//639
f 203//640 340//640 343//640
f 344//641 342//641 199//641
f 337//642 340//642 203//642
f 341//643 337//643 198//643
f 199//644 342//644 341//644
f 343//645 338//645 200//645
f 351//646 348//646 347//646
f 346//647 345//647 352//647
f 347//648 346//648 350//648
f 351//649 349//649 356//649
f 345//456 346//456 358//456
f 355//650 350//650 352//650
f 352//651 345//651 359//651
f 358//456 346//456 347//456
f 350//652 349//652 351//652
f 192//456 358//456 353//456
f 360//653 359//653 194//653
f 339//528 355//528 360//528
f 359//456 358//456 192//456
f 357//529 356//529 338//529
f 193//456 353//456 354//456
f 338//530 356//530 355//530
f 195//654 354//654 357//654
