# Blender v2.83.5 OBJ File: 'bio.blend'
# www.blender.org
mtllib bio_000002.mtl
o Cube
v -0.822989 -1.152981 -0.555632
v -0.667378 1.161628 -0.343315
v -0.784006 -1.073645 0.384920
v -0.679388 0.628603 0.408932
v -0.960414 -1.089108 -0.293470
v -0.957044 -1.019307 0.045088
v -0.861653 0.781532 0.182775
v -0.858026 1.012446 -0.107881
v -0.812682 1.190956 0.128041
v -0.708358 1.301996 -0.008360
v -0.165544 1.234337 -0.096824
v -0.173311 0.964758 0.398675
v -0.713769 0.934082 0.446413
v -0.090152 1.062997 0.220600
v -0.814822 1.045458 0.307889
v -0.087103 1.145871 0.050502
v -0.642009 3.139972 1.864895
v -0.575787 3.215518 1.781987
v -0.258251 3.213352 1.783738
v -0.262104 2.961121 2.060123
v -0.579631 2.963907 2.057693
v -0.181230 3.036863 1.976972
v -0.643530 3.040468 1.973928
v -0.179710 3.136367 1.867939
v -0.216437 2.297488 0.876636
v -0.644635 2.308762 0.881892
v -0.136532 2.196927 0.990577
v -0.649412 1.992604 1.238702
v -0.731429 2.088759 1.130299
v -0.221222 1.980852 1.234552
v -0.729538 2.213817 0.989227
v -0.138294 2.080450 1.122043
v -0.234221 2.194180 0.812066
v -0.161921 2.105036 0.920146
v -0.709247 2.009056 1.051140
v -0.163433 2.002681 1.044153
v -0.629568 2.203733 0.815970
v -0.633693 1.924666 1.154271
v -0.238357 1.914288 1.151108
v -0.707617 2.119402 0.917330
v -0.811593 -0.752940 -0.621372
v -0.812045 -0.602012 0.248701
v -0.884529 -0.819187 -0.448530
v -0.773232 -0.684979 -0.167546
v -1.068586 -0.615080 -0.180007
v -0.917541 -0.554458 -0.070206
v -1.179512 -0.945696 -0.440514
v -1.178312 -0.779988 -0.322089
v -0.930142 -0.990169 -0.550549
v -0.673432 -0.611387 -0.176172
v -0.809167 -0.871927 -0.483243
v -0.711665 -0.716553 -0.333392
v -0.680825 0.618358 -0.664366
v -0.712842 0.191048 0.182734
v -0.858717 0.451189 -0.449338
v -0.864498 0.272938 -0.126650
v -0.676277 -0.477866 -0.639058
v -0.715355 -0.454834 0.268979
v -0.826769 -0.527975 -0.442615
v -0.819092 -0.496800 -0.106292
v -1.201685 1.791774 -1.363178
v -1.119606 1.778628 -1.287057
v -1.306422 1.764752 -1.588725
v -1.275564 1.786286 -1.482478
v -1.154427 1.779396 -1.683526
v -0.967610 1.793272 -1.381858
v -1.053503 1.807682 -1.620981
v -0.979623 1.813170 -1.501681
v -1.052359 0.206169 -1.790501
v -1.301079 0.200619 -1.643188
v -1.270219 0.252468 -1.470352
v -0.907540 0.269977 -1.689325
v -0.752796 0.287458 -1.326948
v -1.001658 0.283776 -1.180487
v -1.151211 0.277470 -1.283836
v -0.788509 0.294368 -1.503148
v -1.025380 -0.047569 -1.581902
v -0.906366 0.050427 -1.536436
v -1.005183 0.327498 -1.195886
v -1.244188 0.018479 -1.481577
v -1.226087 0.148395 -1.388809
v -0.786290 0.259896 -1.296393
v -1.131635 0.270749 -1.277359
v -0.811871 0.173110 -1.423357
v -0.679899 -1.157588 0.473561
v -0.659227 -1.255231 -0.608106
v -0.779836 -1.218024 -0.386845
v -0.735054 -1.230105 0.107264
v -0.327167 -0.609590 -0.541572
v -0.375607 -0.567833 0.500745
v -0.320267 -0.377230 0.461583
v -0.256548 -0.367307 -0.564247
v -0.254443 0.099257 -0.603486
v -0.305718 -0.012980 0.397542
v -0.310397 -1.439765 0.475117
v -0.460268 -2.454253 0.429842
v -0.467263 -1.436787 -0.647772
v -0.679385 -1.327355 -0.378384
v -0.634417 -1.314317 0.132267
v -0.486361 -2.219994 0.454272
v -0.468913 -2.260169 -0.600133
v -0.677766 -2.221357 -0.386933
v -0.693809 -2.221357 0.187565
v -0.449849 -2.498087 -0.475767
v -0.628034 -2.498087 -0.314318
v -0.635409 -2.498087 0.160386
v -0.486574 -1.832949 0.451647
v -0.690740 -1.830739 0.200158
v -0.662762 -1.830739 -0.418997
v -0.456084 -1.912064 -0.667900
v -0.430929 -2.594185 0.399831
v -0.392959 -2.594185 -0.255205
v -0.512993 -2.594185 -0.211203
v -0.514742 -2.594185 0.163821
v -0.504839 -1.309446 0.408286
v -0.504883 -2.498087 0.395665
v -0.535756 -1.830739 0.420264
v -0.535624 -2.221357 0.423945
v -1.323272 1.530820 -1.608996
v -1.288295 1.556434 -1.480420
v -0.917239 1.565000 -1.361087
v -1.199758 1.563010 -1.337451
v -0.933639 1.588651 -1.503433
v -1.141120 1.548371 -1.722606
v -1.022176 1.582075 -1.646402
v -1.099391 1.547449 -1.247476
v -1.360913 1.566880 -1.627914
v -1.357328 1.672834 -1.623515
v -1.216101 1.696362 -1.321965
v -1.107456 1.691393 -1.220026
v -1.314917 1.689022 -1.481532
v -1.154030 1.692421 -1.750314
v -0.904158 1.710981 -1.346825
v -1.017903 1.717639 -1.666782
v -0.919087 1.724979 -1.507215
v -1.319086 1.583509 -1.478642
v -0.889111 1.606596 -1.339849
v -1.216208 1.591151 -1.312515
v -0.906982 1.620944 -1.505382
v -1.149256 1.587273 -1.759927
v -1.009861 1.613302 -1.671509
v -1.100768 1.586203 -1.207837
v -0.590546 3.021077 1.589267
v -0.594965 2.609994 1.764367
v -0.253640 2.605119 1.765255
v -0.660795 2.941025 1.677121
v -0.249212 3.016859 1.589435
v -0.170389 2.934382 1.679653
v -0.662752 2.691123 1.675604
v -0.172317 2.686347 1.676091
v -0.249619 2.577306 2.480657
v -0.309819 2.501403 2.563945
v -0.544987 2.503547 2.562057
v -0.592010 2.579977 2.478403
v -0.556103 2.354840 2.441272
v -0.303311 2.350655 2.441577
v -0.605988 2.435829 2.352627
v -0.242757 2.432045 2.352276
v -0.580757 2.890211 2.138446
v -0.644655 2.966772 2.054681
v -0.254416 2.678453 1.965406
v -0.595740 2.683328 1.964519
v -0.663528 2.764457 1.875756
v -0.263230 2.887425 2.140876
v -0.182356 2.963167 2.057725
v -0.173093 2.759681 1.876242
v 0.940175 -1.105217 -0.389745
v 0.674349 0.776838 -0.464304
v 0.669195 -1.165719 0.545245
v 0.657839 1.077680 0.418855
v 0.010042 1.050757 -0.409763
v -0.034494 -1.199352 0.569645
v -0.018239 0.994826 0.439916
v 0.040105 -1.260804 -0.654766
v 1.009066 -1.089581 -0.063309
v 0.910584 -1.127565 0.297937
v 0.847932 1.010501 0.141888
v 0.853499 0.879855 -0.205547
v -0.008975 1.126407 -0.133681
v -0.016246 1.084038 0.215817
v 0.775878 1.163849 -0.240719
v 0.676282 1.090680 -0.403644
v 0.146664 1.064587 -0.329719
v 0.134435 1.190387 0.202521
v 0.667841 1.298591 0.143074
v 0.057199 1.128516 0.051811
v 0.772540 1.246071 -0.024510
v 0.060841 1.098083 -0.136321
v 0.643747 2.034796 -1.818162
v 0.582405 1.920217 -1.809632
v 0.267441 1.905257 -1.847216
v 0.256848 2.275399 -1.901092
v 0.571838 2.289449 -1.863376
v 0.180990 2.159696 -1.894233
v 0.639569 2.180815 -1.839416
v 0.185169 2.013677 -1.872979
v 0.061470 2.097962 -0.643586
v 0.487590 2.122202 -0.614838
v -0.022732 2.214679 -0.627848
v 0.476048 2.517835 -0.557630
v 0.562461 2.401875 -0.566251
v 0.049893 2.491018 -0.579165
v 0.567066 2.244810 -0.588182
v -0.027024 2.360564 -0.606513
v 0.073152 2.165000 -0.700662
v -0.002342 2.224692 -0.600084
v 0.536882 2.359622 -0.479664
v -0.004923 2.298163 -0.478730
v 0.465471 2.211453 -0.708502
v 0.458382 2.410865 -0.374970
v 0.066074 2.366338 -0.369482
v 0.539653 2.281173 -0.611979
v 0.942427 -0.596460 -0.405534
v 0.722254 -0.665719 0.516044
v 0.030417 -0.518571 -0.567879
v -0.030744 -0.518571 0.567845
v 0.960959 -0.578072 -0.098396
v 0.769743 -0.665116 0.212336
v 1.047168 -0.843375 0.380528
v 0.871501 -0.895557 0.455560
v 1.239709 -0.695051 0.004102
v 1.197929 -0.764102 0.202658
v 1.023875 -0.544172 -0.137270
v 0.659074 -0.735925 0.320522
v 0.877596 -0.544720 -0.005250
v 0.737239 -0.622132 0.175247
v 0.749108 0.245960 -0.342726
v 0.720247 0.487645 0.612242
v 0.024758 0.447943 -0.509679
v -0.016262 0.422679 0.491904
v 0.916829 0.312729 -0.057312
v 0.897741 0.413161 0.314357
v 0.798664 -0.432854 -0.416106
v 0.643623 -0.450288 0.527336
v 0.030051 -0.347923 -0.559062
v -0.030153 -0.347923 0.559052
v 0.904498 -0.433205 -0.107814
v 0.815481 -0.453154 0.251552
v 0.946069 -0.181046 2.344601
v 0.861854 -0.229559 2.287515
v 1.075304 0.013810 2.433487
v 1.030481 -0.084802 2.402328
v 0.933542 0.120145 2.463497
v 0.720091 -0.123223 2.317526
v 0.823369 0.070551 2.446173
v 0.738956 -0.025693 2.388446
v 1.183017 0.848221 1.070704
v 1.412395 0.682328 1.052593
v 1.355886 0.523114 1.030480
v 1.020124 0.769425 1.072778
v 0.832694 0.483020 0.932998
v 1.061973 0.318077 0.918059
v 1.217741 0.375152 0.963899
v 0.882183 0.622120 1.005309
v 1.169823 0.636307 0.712626
v 1.035058 0.625029 0.793092
v 1.048787 0.333647 1.104693
v 1.361412 0.520299 0.815895
v 1.314404 0.453585 0.946055
v 0.857529 0.450262 0.998996
v 1.191174 0.382143 1.060866
v 0.911312 0.550964 0.908036
v 0.562200 -1.221485 0.591780
v 0.780289 -1.232817 -0.492921
v 0.857256 -1.213968 -0.227206
v 0.688819 -1.280727 0.259576
v 0.401342 -0.570629 -0.535018
v 0.305641 -0.587125 0.534111
v 0.266081 -0.360586 0.567178
v 0.325476 -0.374786 -0.513480
v 0.028098 0.061984 -0.540069
v -0.021596 0.041441 0.527795
v 0.318494 -0.012357 -0.454055
v 0.272403 0.051086 0.580061
v 0.247431 -1.439765 0.511463
v -0.032724 -1.284791 0.552834
v 0.418765 -2.454253 0.470369
v 0.039075 -1.436687 -0.674515
v -0.023782 -2.538754 0.515830
v 0.566438 -1.431626 -0.587730
v 0.751068 -1.332262 -0.252162
v 0.590356 -1.350075 0.250537
v 0.440233 -2.219994 0.499275
v -0.025352 -2.221357 0.549890
v 0.027139 -2.260169 -0.588660
v 0.526388 -2.260169 -0.550727
v 0.714992 -2.221357 -0.313827
v 0.671070 -2.221357 0.258204
v 0.021458 -2.498087 -0.465428
v 0.492162 -2.498087 -0.431892
v 0.655294 -2.498087 -0.252897
v 0.617598 -2.498087 0.219332
v 0.434296 -1.832949 0.502720
v 0.661623 -1.830739 0.283848
v 0.711477 -1.830739 -0.331807
v 0.031077 -1.912064 -0.654609
v 0.527450 -1.912064 -0.613854
v -0.025729 -1.830739 0.553099
v 0.392312 -2.594185 0.437785
v -0.022701 -2.634852 0.492401
v -0.008140 -2.634852 0.176558
v 0.011262 -2.634852 -0.244268
v 0.002420 -2.634852 -0.052492
v 0.414774 -2.594185 -0.217966
v 0.530250 -2.594185 -0.163106
v 0.497485 -2.594185 0.210488
v 0.430379 -1.333448 0.475567
v 0.466336 -2.498087 0.440442
v 0.485561 -1.830739 0.478113
v 0.491653 -2.221357 0.474473
v -0.030764 -1.438520 0.529132
v -0.024061 -2.493559 0.521900
v 1.144148 0.122931 2.236581
v 1.092300 0.003353 2.198845
v 0.718461 -0.041289 2.097613
v 0.991140 -0.111986 2.129665
v 0.742938 0.074189 2.182208
v 0.974260 0.250363 2.272545
v 0.844097 0.189528 2.251388
v 0.888350 -0.168721 2.061649
v 1.174748 0.118757 2.282638
v 1.147958 0.072909 2.374501
v 0.976733 -0.182338 2.244262
v 0.862463 -0.252603 2.179260
v 1.089637 -0.053609 2.321473
v 0.958347 0.215135 2.414640
v 0.672852 -0.110376 2.219399
v 0.812619 0.154180 2.380116
v 0.699715 0.025451 2.302905
v 1.116200 -0.014591 2.226971
v 0.680109 -0.072064 2.121161
v 0.998655 -0.148613 2.146585
v 0.710248 0.067719 2.207639
v 0.977341 0.266830 2.324428
v 0.827794 0.201741 2.288025
v 0.877515 -0.220138 2.079370
v 0.563305 1.948024 -1.537552
v 0.528846 2.375975 -1.413718
v 0.189931 2.361220 -1.451755
v 0.628383 2.069442 -1.546582
v 0.224418 1.932305 -1.575448
v 0.141552 2.048764 -1.602426
v 0.600693 2.260863 -1.388321
v 0.113940 2.237445 -1.443766
v 0.222537 2.837589 -1.985219
v 0.277888 2.952347 -1.994531
v 0.511181 2.962636 -1.966579
v 0.562173 2.853230 -1.944620
v 0.497887 3.000821 -1.778986
v 0.246792 2.990111 -1.806525
v 0.551977 2.884892 -1.755710
v 0.191403 2.867285 -1.796073
v 0.568743 2.397596 -1.879117
v 0.636474 2.288962 -1.855157
v 0.210528 2.432191 -1.651695
v 0.549443 2.446945 -1.613659
v 0.621290 2.331834 -1.588261
v 0.253753 2.383546 -1.916834
v 0.177895 2.267843 -1.909974
v 0.134537 2.308416 -1.643706
vn -0.4587 0.1716 0.8718
vn 0.0310 -0.5182 0.8547
vn -0.7947 0.5190 -0.3147
vn -0.7026 -0.6658 0.2513
vn -0.8411 -0.1025 0.5311
vn -0.6510 -0.7552 0.0766
vn 0.5858 0.7936 0.1646
vn -0.2782 -0.1910 0.9413
vn -0.5167 -0.8538 -0.0628
vn 0.4240 0.6562 0.6242
vn 0.1563 0.0213 -0.9875
vn -0.2425 -0.4308 0.8692
vn -0.2225 0.8780 0.4238
vn -0.9873 0.1303 0.0912
vn 0.0937 -0.1109 0.9894
vn -0.2699 0.8909 0.3654
vn 0.0990 0.8815 -0.4616
vn -0.8662 -0.2422 0.4371
vn 0.8863 0.3471 -0.3066
vn -0.0330 0.6860 -0.7269
vn -0.8578 0.3856 -0.3398
vn 0.9983 0.0390 0.0443
vn -0.9962 0.0723 0.0475
vn 0.8785 -0.2583 0.4019
vn 0.2121 -0.1522 -0.9653
vn -0.9671 -0.2504 0.0453
vn -0.7841 0.3529 -0.5106
vn -0.8340 0.5242 0.1719
vn -0.1453 0.0294 0.9889
vn -0.6317 0.2368 0.7382
vn -0.8164 -0.5640 0.1244
vn -0.2709 -0.1486 -0.9511
vn 0.5919 -0.7781 0.2103
vn 0.3350 -0.8949 0.2947
vn -0.8255 -0.2081 0.5246
vn -0.8254 0.3022 -0.4769
vn -1.0000 0.0059 -0.0078
vn -0.0087 -0.5809 0.8139
vn -0.0012 0.5088 -0.8609
vn -0.2198 0.2572 0.9410
vn -0.9015 -0.0418 0.4308
vn -0.7634 -0.0181 -0.6456
vn -0.9988 -0.0328 -0.0360
vn 0.6496 -0.5412 -0.5339
vn -0.9989 -0.0223 0.0414
vn -0.4662 -0.6741 -0.5730
vn 0.4071 0.7341 0.5435
vn -0.8684 0.3542 0.3471
vn -0.6056 0.6019 0.5206
vn 0.9800 -0.0965 -0.1738
vn 0.9109 -0.2746 -0.3079
vn 0.2078 -0.0829 -0.9746
vn -0.5010 0.2136 0.8386
vn -0.5011 0.2125 0.8389
vn 0.0146 0.0516 -0.9986
vn -0.1018 0.1144 -0.9882
vn -0.6218 -0.7709 -0.1381
vn -0.7026 -0.6955 0.1504
vn -0.6987 -0.6628 -0.2694
vn 0.1145 -0.0225 -0.9932
vn -0.4290 0.0903 0.8988
vn -0.3294 0.1762 0.9276
vn 0.2282 0.0784 -0.9705
vn 0.0227 -0.1918 -0.9812
vn -0.9996 0.0088 -0.0279
vn -0.0647 0.1472 -0.9870
vn -0.5674 -0.7744 0.2800
vn 0.0205 -0.4619 -0.8867
vn -0.9786 -0.2050 -0.0152
vn -0.6404 -0.3006 -0.7068
vn -0.8176 0.0052 0.5757
vn -0.7727 -0.0224 -0.6343
vn -0.1982 -0.8175 -0.5407
vn -0.7681 -0.5793 0.2728
vn -0.2371 -0.2326 0.9432
vn -0.8220 -0.1475 0.5501
vn -0.7805 0.0246 -0.6246
vn -0.8161 0.0616 0.5746
vn -0.9937 0.1025 -0.0449
vn -0.0527 0.0410 -0.9978
vn -0.0785 -0.9969 -0.0004
vn -0.0426 -0.9923 -0.1161
vn -0.0807 -0.9963 0.0287
vn -0.6229 -0.7823 -0.0029
vn 0.0088 -0.9159 -0.4013
vn -0.2948 0.0496 0.9543
vn -0.5243 0.0055 0.8515
vn -0.5093 -0.1433 0.8486
vn -0.5228 0.1846 0.8323
vn -0.2160 -0.1313 0.9675
vn 0.0177 -0.0916 0.9956
vn -0.4852 0.8741 -0.0231
vn 0.7961 0.1101 -0.5950
vn 0.5474 -0.7626 0.3446
vn 0.7728 0.4814 0.4136
vn 0.7185 -0.6778 0.1557
vn 0.3592 0.9061 -0.2235
vn -0.0524 -0.6888 0.7230
vn 0.8639 -0.4778 -0.1594
vn 0.9565 -0.1171 -0.2670
vn 0.4236 0.1861 -0.8865
vn -0.1682 0.0886 0.9818
vn -0.3295 0.9381 0.1069
vn 0.9643 0.2525 -0.0795
vn -0.0785 0.7936 0.6033
vn -0.5299 0.7895 0.3096
vn 0.2668 0.7640 -0.5874
vn 0.8402 0.3478 0.4159
vn -0.9096 -0.1860 -0.3715
vn -0.1190 -0.2814 -0.9522
vn 0.8498 0.0165 -0.5269
vn -0.9983 -0.0576 -0.0100
vn 0.9804 0.1885 -0.0565
vn -0.9032 0.1366 0.4068
vn 0.2202 0.1905 -0.9567
vn 0.8984 0.3659 0.2428
vn 0.7350 0.6296 -0.2516
vn 0.9604 -0.2349 0.1497
vn -0.0341 0.0768 0.9965
vn 0.7031 -0.3148 0.6377
vn 0.7943 -0.5874 0.1548
vn 0.9575 -0.0132 -0.2881
vn 0.5990 -0.7955 0.0921
vn -0.7588 -0.3325 -0.5601
vn 0.8285 0.2180 0.5158
vn 0.8246 -0.0134 -0.5656
vn 0.9931 0.1160 0.0196
vn 0.0114 0.4379 0.8989
vn -0.0137 0.1632 -0.9865
vn 0.0723 -0.1317 0.9887
vn 0.8422 -0.1181 0.5261
vn 0.9408 0.1036 -0.3228
vn 0.9706 -0.0322 0.2386
vn -0.5714 0.5249 -0.6309
vn 0.9720 -0.1898 0.1385
vn 0.6745 0.3622 -0.6433
vn -0.6550 -0.2768 0.7031
vn 0.7836 -0.3694 0.4995
vn 0.4610 -0.4655 0.7555
vn -0.9180 0.3012 -0.2580
vn -0.7988 0.3995 -0.4498
vn 0.2944 0.0456 -0.9546
vn 0.0359 -0.0392 0.9986
vn 0.2983 0.2054 0.9321
vn 0.1568 0.0513 -0.9863
vn 0.1039 0.1170 -0.9877
vn 0.6721 -0.7265 -0.1432
vn 0.5737 -0.8145 0.0868
vn 0.7508 -0.6376 -0.1723
vn 0.1812 0.1188 -0.9763
vn -0.1691 0.1012 0.9804
vn -0.0239 0.0805 0.9965
vn 0.2327 0.0310 -0.9721
vn 0.0804 -0.1864 -0.9792
vn 0.9966 0.0188 0.0807
vn 0.1987 0.2394 -0.9504
vn 0.5209 -0.7837 0.3383
vn 0.0675 -0.4536 -0.8887
vn 0.9780 -0.1945 0.0751
vn 0.7537 -0.3772 -0.5382
vn 0.7410 0.0053 0.6715
vn 0.8397 -0.0174 -0.5428
vn 0.3184 -0.9024 -0.2902
vn 0.5598 -0.7349 0.3829
vn 0.1626 -0.1522 0.9749
vn 0.7612 -0.1473 0.6315
vn 0.8751 0.0078 -0.4838
vn 0.8147 0.0933 0.5723
vn 0.9385 0.1603 0.3057
vn 0.1619 0.0405 -0.9860
vn 0.0782 -0.9969 0.0069
vn 0.1000 -0.9950 0.0046
vn 0.0981 -0.9952 0.0045
vn 0.6311 -0.7741 0.0504
vn 0.0286 -0.9156 -0.4010
vn 0.0620 -0.1513 0.9865
vn 0.4328 -0.0014 0.9015
vn 0.4264 -0.1492 0.8922
vn 0.4194 0.1795 0.8899
vn 0.1261 -0.1313 0.9833
vn -0.4146 0.1220 0.9018
vn -0.8959 0.3781 -0.2331
vn -0.8323 0.5071 -0.2237
vn -0.7241 -0.6476 0.2372
vn -0.8186 -0.1598 0.5517
vn -0.7374 -0.6736 0.0504
vn 0.5263 0.8286 -0.1908
vn -0.1581 -0.5381 0.8279
vn -0.6794 -0.4234 0.5993
vn -0.9417 -0.1438 -0.3041
vn -0.3801 -0.1394 -0.9144
vn -0.0962 0.0897 0.9913
vn 0.4870 0.8658 0.1151
vn -0.9870 0.1306 0.0939
vn -0.3116 0.4940 0.8117
vn -0.2342 0.9040 0.3578
vn 0.0531 0.9233 -0.3804
vn -0.8664 -0.2420 0.4367
vn 0.9009 0.3307 -0.2811
vn 0.0090 0.6743 -0.7384
vn -0.8570 0.3866 -0.3407
vn 0.9983 0.0428 0.0387
vn -0.9962 0.0728 0.0471
vn 0.9253 -0.2066 0.3181
vn 0.2074 -0.1640 -0.9644
vn -0.9409 0.1808 0.2863
vn -0.9285 0.1906 -0.3187
vn -0.9739 -0.2222 -0.0465
vn -0.1915 0.0036 0.9815
vn -0.8623 0.1897 0.4694
vn -0.8307 0.0778 0.5513
vn -0.4280 -0.2546 -0.8671
vn 0.5747 -0.7379 0.3538
vn -0.1116 -0.6527 0.7494
vn -0.8970 -0.2261 0.3799
vn -0.8356 0.2862 -0.4688
vn -0.9999 0.0123 -0.0111
vn 0.1040 -0.6133 0.7830
vn 0.2489 0.1643 -0.9545
vn -0.3226 0.0498 0.9452
vn -0.9642 0.0388 0.2622
vn -0.7898 -0.0300 -0.6127
vn -0.9979 -0.0581 0.0282
vn 0.7324 -0.4676 -0.4950
vn -0.9926 0.0657 0.1017
vn -0.3924 -0.6869 -0.6117
vn 0.4600 0.7227 0.5158
vn -0.8927 0.3243 0.3130
vn -0.6145 0.5971 0.5156
vn 0.9861 -0.0720 -0.1495
vn 0.8691 -0.3295 -0.3688
vn 0.0149 0.0464 -0.9988
vn -0.4651 0.3057 0.8308
vn -0.5174 0.2290 0.8245
vn -0.0535 -0.0776 -0.9955
vn -0.0649 0.1353 -0.9887
vn -0.5604 -0.8108 -0.1691
vn -0.5699 -0.8211 0.0316
vn -0.6904 -0.6707 -0.2712
vn 0.1960 -0.0831 -0.9771
vn -0.4293 0.0906 0.8986
vn -0.4282 0.0817 0.9000
vn 0.2310 0.0760 -0.9700
vn 0.0268 -0.1864 -0.9821
vn -0.9984 0.0346 -0.0451
vn -0.0524 0.1117 -0.9924
vn -0.6574 -0.7142 0.2404
vn 0.0195 -0.4602 -0.8876
vn -0.9826 -0.1838 -0.0274
vn -0.6952 -0.3759 -0.6126
vn -0.8310 -0.0114 0.5561
vn -0.7199 -0.1070 -0.6858
vn -0.2889 -0.9027 -0.3188
vn -0.5939 -0.7340 0.3295
vn -0.2516 -0.1522 0.9558
vn -0.8518 -0.2262 0.4725
vn -0.7679 0.0091 -0.6406
vn -0.8956 0.1526 0.4178
vn -0.9953 -0.0400 0.0887
vn 0.0272 -0.0423 -0.9987
vn -0.0799 -0.9968 -0.0037
vn -0.1000 -0.9950 -0.0046
vn -0.0981 -0.9952 -0.0045
vn -0.6358 -0.7718 -0.0099
vn -0.0709 -0.8469 -0.5270
vn -0.1868 -0.1520 0.9706
vn -0.5377 0.0078 0.8431
vn -0.5157 -0.1455 0.8443
vn -0.3009 0.0397 0.9528
vn -0.2531 -0.4214 0.8708
vn 0.0972 -0.0326 0.9947
vn -0.6240 0.3670 -0.6899
vn 0.8115 0.1519 -0.5643
vn 0.4891 -0.7970 0.3544
vn 0.7973 0.4970 0.3424
vn 0.5600 -0.8147 0.1502
vn 0.0002 0.9853 -0.1706
vn 0.1424 -0.1883 0.9717
vn 0.8629 -0.5054 0.0058
vn -0.2144 0.4486 0.8676
vn 0.2312 -0.0312 -0.9724
vn -0.0085 0.3106 0.9505
vn 0.3676 0.9192 -0.1416
vn 0.9639 0.2534 -0.0815
vn -0.0888 0.7790 0.6208
vn -0.5785 0.8148 -0.0381
vn -0.1449 0.1886 -0.9713
vn 0.8224 0.3600 0.4404
vn -0.8397 -0.2463 -0.4840
vn 0.0187 -0.3183 -0.9478
vn 0.8024 -0.0284 -0.5961
vn -0.9986 -0.0518 0.0101
vn 0.9813 0.1739 -0.0826
vn -0.8716 0.1725 0.4588
vn 0.2368 0.1460 -0.9605
vn 0.8523 -0.2671 0.4497
vn 0.9306 0.3577 -0.0776
vn 0.8180 0.2720 0.5069
vn 0.1002 0.0021 0.9950
vn 0.4603 -0.4445 0.7685
vn 0.7606 -0.4895 0.4265
vn 0.6416 0.2331 -0.7307
vn -0.1912 -0.7201 -0.6670
vn -0.3298 -0.7472 -0.5769
vn 0.8593 0.2391 0.4522
vn 0.8651 -0.0342 -0.5004
vn 0.9968 0.0791 -0.0138
vn -0.0346 0.4166 0.9084
vn 0.1675 -0.1976 -0.9659
vn -0.0252 0.0515 0.9984
vn 0.8401 -0.1166 0.5297
vn 0.8599 0.0203 -0.5101
vn 0.9919 -0.0998 0.0779
vn -0.4640 0.5411 -0.7013
vn 0.9472 -0.2281 0.2252
vn 0.6126 0.4105 -0.6754
vn -0.6000 -0.3192 0.7336
vn 0.7380 -0.4016 0.5422
vn 0.4033 -0.4799 0.7791
vn -0.9295 0.2845 -0.2346
vn -0.7378 0.4455 -0.5072
vn 0.1649 0.1627 -0.9728
vn 0.0731 -0.1315 0.9886
vn 0.0532 0.0526 0.9972
vn 0.1081 0.1500 -0.9828
vn 0.2111 0.0588 -0.9757
vn 0.7004 -0.7045 -0.1141
vn 0.5594 -0.8263 0.0656
vn 0.7125 -0.6748 -0.1922
vn 0.2179 0.1620 -0.9624
vn -0.1773 0.0947 0.9796
vn -0.1741 -0.0281 0.9843
vn 0.3013 0.0774 -0.9504
vn 0.0746 -0.1782 -0.9812
vn 0.9970 0.0125 0.0766
vn 0.1604 0.1092 -0.9810
vn 0.4066 -0.8434 0.3513
vn 0.0631 -0.4602 -0.8856
vn 0.9768 -0.1997 0.0780
vn 0.7064 -0.2941 -0.6438
vn 0.7694 -0.0233 0.6383
vn 0.7863 -0.1126 -0.6075
vn 0.2491 -0.8142 -0.5244
vn 0.7398 -0.5793 0.3423
vn 0.1493 -0.2326 0.9610
vn 0.8028 -0.2323 0.5492
vn 0.8420 -0.0391 -0.5381
vn 0.7321 0.1545 0.6635
vn 0.9925 -0.0917 0.0804
vn 0.0818 -0.0431 -0.9957
vn 0.0799 -0.9968 0.0037
vn 0.0531 -0.9923 -0.1117
vn 0.0777 -0.9963 0.0360
vn 0.6213 -0.7816 0.0545
vn 0.1191 -0.8469 -0.5182
vn 0.1687 0.0421 0.9848
vn 0.4344 -0.0016 0.9007
vn 0.4248 -0.1487 0.8930
vn 0.1786 0.0248 0.9836
vn 0.1719 -0.4214 0.8904
vn -0.1896 0.0575 0.9802
vn -0.2031 0.0065 0.9791
vn -0.2141 -0.1009 0.9716
vn 0.0635 0.0617 0.9961
vn 0.1081 -0.0072 0.9941
vn 0.1238 -0.1009 0.9872
vn -0.2150 0.0381 0.9759
vn -0.2150 -0.0082 0.9766
vn -0.2019 -0.1238 0.9716
vn 0.1090 0.0297 0.9936
vn 0.1088 -0.0081 0.9940
vn 0.1075 -0.1315 0.9855
vn -0.9930 -0.0063 0.1176
vn 0.8232 0.4070 -0.3958
vn 0.0087 0.7033 -0.7108
vn 0.0013 0.7386 0.6741
vn -0.8591 0.3917 -0.3294
vn 0.9992 -0.0083 0.0393
vn -0.9976 0.0577 0.0387
vn -0.0103 -0.8238 -0.5668
vn 0.8538 -0.4781 0.2061
vn -0.9832 -0.1346 -0.1230
vn 0.9746 -0.1739 -0.1410
vn -0.8452 0.1919 -0.4988
vn -0.0154 -0.7804 0.6251
vn 0.8694 0.1260 -0.4777
vn -0.8496 -0.4714 0.2366
vn 0.0044 0.5295 -0.8483
vn 0.6940 -0.5971 -0.4023
vn -0.9096 0.3699 0.1892
vn 0.5325 -0.6479 -0.5446
vn 0.0067 0.9866 0.1632
vn -0.1834 0.9725 -0.1438
vn -0.0898 0.9959 0.0098
vn 0.3496 0.5716 -0.7423
vn -0.6076 0.4290 0.6684
vn -0.7336 -0.6216 0.2748
vn 0.7152 0.5202 -0.4668
vn -0.3353 -0.6878 -0.6438
vn 0.8699 -0.3769 -0.3181
vn 0.7458 -0.6104 0.2669
vn -0.4299 -0.6164 0.6597
vn -0.8451 0.0580 0.5314
vn -0.4759 -0.3260 -0.8168
vn -0.3944 -0.6082 -0.6888
vn -0.9708 -0.1180 0.2087
vn 0.6365 -0.4385 -0.6345
vn 0.8444 0.0946 -0.5273
vn 0.9739 0.1202 -0.1927
vn -0.6670 0.0059 0.7450
vn -0.8425 -0.0075 0.5386
vn 0.5213 0.0853 0.8491
vn -0.5097 0.0098 -0.8603
vn -0.9831 -0.0211 0.1819
vn 0.5232 0.0735 -0.8491
vn 0.5109 0.0782 -0.8561
vn -0.9633 0.0215 0.2675
vn -0.5321 0.0531 -0.8450
vn 0.5155 0.1309 0.8468
vn -0.8502 0.0479 0.5243
vn -0.6811 0.0662 0.7292
vn 0.9862 0.1358 -0.0947
vn 0.8450 0.0890 -0.5274
vn 0.8247 0.5654 0.0112
vn -0.8087 0.3319 0.4856
vn 0.8515 -0.5064 -0.1358
vn -0.4846 0.5314 -0.6949
vn -0.5246 -0.7155 0.4614
vn 0.3829 0.5958 0.7060
vn -0.5924 -0.6999 0.3990
vn 0.4541 -0.6291 0.6309
vn -0.0112 -0.6477 0.7618
vn 0.8280 -0.3376 0.4477
vn -0.9957 0.0072 0.0919
vn 0.9991 0.0242 0.0349
vn -0.8579 0.3934 -0.3306
vn 0.0098 0.7040 -0.7101
vn 0.8399 0.3906 -0.3768
vn -0.8682 -0.2749 0.4130
vn -0.9209 -0.2016 0.3335
vn 0.8926 -0.2603 0.3681
vn -0.0114 -0.6299 0.7766
vn -0.2817 -0.8056 -0.5212
vn 0.3092 -0.7979 -0.5175
vn 0.9926 -0.0523 0.1093
vn 0.0115 0.7414 0.6709
vn 0.9994 0.0322 -0.0079
vn 0.7967 -0.5664 0.2106
vn -0.8434 -0.5056 0.1820
vn -0.0143 -0.9389 0.3439
vn -0.9975 0.0583 0.0393
vn 0.9903 0.1346 0.0347
vn -0.8052 -0.5889 -0.0689
vn 0.0345 -0.9940 0.1040
vn 0.1239 -0.1395 -0.9825
vn 0.8795 -0.4633 0.1089
vn -0.9894 -0.0245 -0.1430
vn 0.9938 0.0855 0.0705
vn -0.1190 0.2738 0.9544
vn -0.8613 0.4048 0.3071
vn 0.9561 -0.2428 0.1640
vn -0.9811 -0.1742 0.0846
vn -0.7404 -0.1262 0.6602
vn -0.0896 0.8530 0.5141
vn 0.8400 0.2594 0.4766
vn 0.7971 0.4842 0.3607
vn -0.0706 0.7138 0.6968
vn -0.5068 0.7246 -0.4671
vn 0.7858 -0.4803 0.3896
vn -0.3253 0.8442 -0.4261
vn -0.2353 -0.5414 0.8072
vn -0.0180 -0.2938 0.9557
vn -0.1288 -0.4246 0.8962
vn -0.3649 0.5477 0.7529
vn 0.4211 -0.8961 0.1402
vn 0.7258 -0.1000 -0.6806
vn -0.7625 0.3378 0.5518
vn 0.5361 0.7949 -0.2841
vn -0.7399 0.4179 -0.5272
vn -0.9137 0.1450 -0.3797
vn -0.3488 0.9316 -0.1024
vn -0.6385 0.7351 -0.2279
vn 0.5335 0.8452 -0.0328
vn 0.6297 0.5711 -0.5266
vn 0.8427 -0.5377 0.0288
vn -0.3475 0.8125 -0.4681
vn -0.7587 0.6222 0.1928
vn -0.9487 0.3127 0.0477
vn 0.4055 -0.8616 -0.3052
vn 0.7519 -0.6485 -0.1189
vn -0.5551 -0.7367 -0.3861
vn 0.5471 0.7077 0.4471
vn 0.9388 -0.3404 0.0519
vn -0.4043 0.8450 0.3501
vn -0.4451 0.8142 0.3728
vn 0.9057 -0.4204 0.0543
vn 0.5866 0.6432 0.4921
vn -0.6104 -0.7216 -0.3265
vn 0.7655 -0.6415 -0.0497
vn 0.5707 -0.8023 -0.1748
vn -0.9785 0.2060 0.0081
vn -0.7897 0.5884 0.1738
vn -0.9246 -0.0903 0.3701
vn 0.6676 -0.7134 0.2132
vn -0.5752 0.5593 -0.5970
vn 0.4227 0.3248 0.8461
vn 0.6200 -0.2206 -0.7529
vn -0.5685 -0.8053 0.1682
vn 0.6885 -0.1829 -0.7018
vn -0.3658 -0.2334 -0.9009
vn -0.0542 0.9864 -0.1554
vn -0.8221 0.5289 -0.2106
vn 0.9988 0.0234 0.0424
vn -0.9862 -0.0048 -0.1653
vn 0.8133 -0.5608 0.1547
vn 0.0436 -0.9823 0.1822
vn -0.8128 -0.5813 -0.0381
vn 0.7991 0.5992 -0.0500
vn 0.9076 0.4193 -0.0210
vn -0.8952 0.3845 -0.2253
vn -0.0198 0.9794 -0.2008
vn 0.1548 0.3040 0.9400
vn -0.3614 0.2793 0.8896
vn -0.9842 0.0542 -0.1685
vn 0.1168 -0.1364 -0.9838
vn -0.9875 -0.0858 -0.1322
vn -0.8451 0.5253 0.0994
vn 0.7865 0.5520 0.2770
vn -0.0776 0.9420 0.3264
vn 0.9953 -0.0315 0.0914
vn -0.9934 -0.0083 0.1142
vn 0.8394 0.4012 -0.3666
vn 0.0090 0.7036 -0.7106
vn -0.8589 0.3921 -0.3295
vn 0.9994 0.0179 0.0303
vn -0.9984 0.0075 0.0556
vn -0.0129 -0.8230 -0.5679
vn 0.8542 -0.4790 0.2025
vn -0.9811 -0.1383 -0.1357
vn 0.9768 -0.1709 -0.1291
vn -0.8468 0.1836 -0.4993
vn -0.0155 -0.7801 0.6255
vn 0.8665 0.1486 -0.4765
vn -0.8515 -0.4745 0.2233
vn 0.0036 0.5320 -0.8467
vn -0.8864 0.4083 0.2182
vn 0.5224 -0.5309 -0.6673
vn 0.0067 0.9866 0.1631
vn 0.3349 0.5290 -0.7797
vn -0.5904 0.3936 0.7046
vn -0.6172 -0.7224 0.3118
vn 0.8147 -0.3284 -0.4779
vn 0.9290 -0.3109 -0.2005
vn 0.5968 -0.2233 -0.7707
vn -0.4117 -0.4193 0.8092
vn 0.4759 0.3269 0.8165
vn -0.4679 -0.6638 -0.5834
vn -0.9292 -0.1201 0.3496
vn 0.6202 -0.4577 -0.6370
vn 0.8336 0.0907 -0.5448
vn 0.9892 0.1109 -0.0955
vn -0.5685 -0.0004 0.8227
vn -0.8499 -0.0101 0.5268
vn 0.5043 0.0879 0.8591
vn -0.5301 0.0130 -0.8479
vn -0.9643 -0.0113 0.2646
vn 0.5475 0.0784 -0.8331
vn 0.5193 0.1012 -0.8486
vn -0.9586 0.0456 0.2811
vn -0.6701 0.0433 0.7410
vn 0.9901 0.1138 -0.0822
vn 0.7961 0.6048 -0.0213
vn 0.7512 -0.6317 -0.1915
vn -0.5476 -0.6077 0.5752
vn -0.0104 -0.6480 0.7616
vn 0.8752 -0.2988 0.3805
vn -0.9964 0.0697 0.0485
vn 0.9983 -0.0086 0.0582
vn -0.8589 0.3925 -0.3291
vn 0.0091 0.7043 -0.7099
vn 0.8837 0.3491 -0.3117
vn -0.8686 -0.2745 0.4124
vn -0.9208 -0.2021 0.3336
vn 0.8814 -0.2888 0.3739
vn -0.0120 -0.6305 0.7761
vn -0.3655 -0.7804 -0.5073
vn 0.2374 -0.8161 -0.5269
vn 0.9925 -0.0513 0.1111
vn 0.0083 0.7362 0.6767
vn 0.9994 0.0182 0.0306
vn -0.9958 0.0845 -0.0348
vn 0.9903 0.1353 0.0308
vn -0.7901 -0.6110 -0.0481
vn 0.0348 -0.9939 0.1044
vn 0.8797 -0.4629 0.1091
vn -0.9870 -0.0505 -0.1526
vn 0.9980 0.0361 0.0519
vn -0.1164 0.2726 0.9551
vn -0.8372 0.4202 0.3500
vn -0.7338 -0.1150 0.6696
vn -0.7810 -0.1128 0.6143
vn -0.7571 0.3743 0.5355
vn -0.0795 0.8635 0.4980
vn -0.5937 -0.5120 0.6207
vn 0.7271 0.5074 0.4624
vn -0.0879 0.6546 0.7509
vn 0.7522 -0.5176 0.4078
vn -0.3289 0.9056 -0.2679
vn -0.3920 0.4997 0.7725
vn 0.4336 -0.8809 0.1899
vn 0.8207 -0.1279 -0.5569
vn -0.5700 0.7173 -0.4008
vn 0.9093 -0.1158 -0.3996
vn -0.3008 0.9418 -0.1503
vn 0.6355 -0.7194 0.2803
vn 0.5825 0.7938 0.1748
vn 0.4979 0.7382 -0.4552
vn 0.9408 -0.3379 0.0287
vn -0.3960 0.8071 -0.4379
vn -0.7904 0.5858 0.1792
vn -0.9760 0.2173 -0.0143
vn 0.5777 -0.7870 -0.2166
vn 0.7785 -0.6185 -0.1071
vn -0.6042 -0.6960 -0.3880
vn 0.5949 0.6663 0.4496
vn 0.9141 -0.4046 0.0262
vn -0.4429 0.8289 0.3417
vn -0.4312 0.8287 0.3569
vn 0.8946 -0.4414 0.0692
vn 0.5776 -0.8029 -0.1476
vn -0.9787 0.2044 -0.0175
vn -0.7897 0.5884 0.1737
vn -0.9021 -0.0820 0.4236
vn -0.7050 0.4768 -0.5250
vn 0.6082 -0.3702 -0.7022
vn -0.0244 0.9860 -0.1649
vn -0.8384 0.5009 -0.2148
vn 0.9932 0.1074 0.0439
vn -0.9862 -0.0053 -0.1653
vn 0.8751 -0.4573 0.1581
vn 0.0246 -0.9820 0.1874
vn -0.8101 -0.5851 -0.0376
vn 0.8522 0.5209 -0.0497
vn 0.9078 0.4189 -0.0212
vn -0.8871 0.4108 -0.2105
vn -0.0192 0.9796 -0.2000
vn 0.2416 0.2981 0.9234
vn -0.4299 0.2673 0.8624
vn -0.9838 0.0546 -0.1705
vn 0.1140 -0.1442 -0.9830
vn -0.9869 -0.0505 -0.1530
vn 0.9981 0.0360 0.0510
usemtl color_1
s off
f 94//1 58//1 91//1
f 43//2 49//2 51//2
f 8//3 10//3 2//3
f 88//4 3//4 6//4
f 7//5 13//5 15//5
f 88//6 98//6 99//6
f 179//7 11//7 16//7
f 172//8 115//8 276//8
f 5//9 47//9 1//9
f 3//10 50//10 46//10
f 86//11 41//11 89//11
f 230//12 4//12 54//12
f 180//13 16//13 14//13
f 7//14 9//14 8//14
f 4//15 12//15 13//15
f 173//16 14//16 12//16
f 2//17 11//17 171//17
f 13//18 35//18 15//18
f 16//19 33//19 34//19
f 10//20 33//20 11//20
f 10//21 40//21 37//21
f 14//22 34//22 36//22
f 9//23 35//23 40//23
f 12//24 36//24 39//24
f 89//25 57//25 92//25
f 59//26 44//26 60//26
f 41//27 59//27 57//27
f 60//28 42//28 58//28
f 172//29 90//29 85//29
f 6//30 46//30 45//30
f 6//31 48//31 5//31
f 1//32 49//32 41//32
f 44//33 50//33 42//33
f 43//34 52//34 44//34
f 7//35 54//35 4//35
f 53//36 8//36 2//36
f 55//37 7//37 8//37
f 13//38 39//38 38//38
f 171//39 53//39 2//39
f 216//40 91//40 90//40
f 60//41 54//41 56//41
f 57//42 55//42 53//42
f 59//43 56//43 55//43
f 51//44 77//44 78//44
f 48//45 80//45 47//45
f 49//46 80//46 77//46
f 50//47 79//47 46//47
f 48//48 83//48 81//48
f 45//49 79//49 83//49
f 52//50 82//50 50//50
f 51//51 84//51 52//51
f 271//52 92//52 93//52
f 90//53 58//53 42//53
f 3//54 90//54 42//54
f 215//55 92//55 235//55
f 174//56 89//56 215//56
f 1//57 87//57 5//57
f 5//58 88//58 6//58
f 86//59 98//59 87//59
f 93//60 57//60 53//60
f 94//61 230//61 54//61
f 236//62 94//62 91//62
f 93//63 229//63 271//63
f 110//64 285//64 101//64
f 108//65 102//65 103//65
f 174//66 97//66 86//66
f 85//67 99//67 115//67
f 285//68 104//68 101//68
f 103//69 105//69 106//69
f 102//70 104//70 105//70
f 108//71 118//71 117//71
f 110//72 102//72 109//72
f 105//73 112//73 113//73
f 116//74 114//74 111//74
f 279//75 111//75 300//75
f 103//76 116//76 118//76
f 97//77 109//77 98//77
f 115//78 108//78 117//78
f 99//79 109//79 108//79
f 278//80 110//80 97//80
f 303//81 114//81 113//81
f 112//82 303//82 113//82
f 301//83 111//83 114//83
f 106//84 113//84 114//84
f 289//85 112//85 104//85
f 95//86 276//86 115//86
f 107//87 118//87 100//87
f 96//88 118//88 116//88
f 95//89 117//89 107//89
f 96//90 279//90 312//90
f 274//91 234//91 228//91
f 217//92 223//92 213//92
f 182//93 178//93 168//93
f 266//94 169//94 263//94
f 177//95 185//95 170//95
f 266//96 281//96 265//96
f 188//97 171//97 179//97
f 172//98 307//98 263//98
f 221//99 175//99 167//99
f 169//100 224//100 214//100
f 267//101 167//101 264//101
f 228//102 173//102 230//102
f 186//103 179//103 180//103
f 178//104 187//104 177//104
f 170//105 184//105 173//105
f 184//106 180//106 173//106
f 183//107 168//107 171//107
f 207//108 185//108 187//108
f 188//109 205//109 183//109
f 183//110 209//110 182//110
f 209//111 181//111 182//111
f 208//112 188//112 186//112
f 212//113 187//113 181//113
f 184//114 208//114 186//114
f 233//115 267//115 270//115
f 238//116 217//116 237//116
f 237//117 213//117 233//117
f 238//118 214//118 218//118
f 268//119 172//119 263//119
f 176//120 220//120 169//120
f 222//121 176//121 175//121
f 223//122 167//122 213//122
f 224//123 218//123 214//123
f 218//124 225//124 217//124
f 170//125 232//125 177//125
f 178//126 227//126 168//126
f 178//127 232//127 231//127
f 185//128 211//128 184//128
f 168//129 229//129 171//129
f 269//130 216//130 268//130
f 232//131 234//131 238//131
f 227//132 237//132 233//132
f 231//133 238//133 237//133
f 225//134 255//134 223//134
f 258//135 222//135 221//135
f 223//136 258//136 221//136
f 257//137 224//137 220//137
f 222//138 261//138 219//138
f 219//139 257//139 220//139
f 260//140 226//140 224//140
f 262//141 225//141 226//141
f 273//142 235//142 271//142
f 234//143 268//143 214//143
f 169//144 268//144 263//144
f 270//145 215//145 235//145
f 267//146 174//146 215//146
f 167//147 265//147 264//147
f 175//148 266//148 265//148
f 281//149 264//149 265//149
f 233//150 273//150 227//150
f 230//151 274//151 228//151
f 269//152 272//152 236//152
f 273//153 229//153 227//153
f 297//154 285//154 296//154
f 288//155 295//155 294//155
f 280//156 174//156 264//156
f 263//157 282//157 266//157
f 290//158 285//158 286//158
f 288//159 291//159 287//159
f 287//160 290//160 286//160
f 310//161 294//161 309//161
f 287//162 297//162 295//162
f 291//163 304//163 290//163
f 308//164 306//164 292//164
f 279//165 299//165 308//165
f 308//166 288//166 310//166
f 295//167 280//167 281//167
f 309//168 282//168 307//168
f 294//169 281//169 282//169
f 297//170 278//170 280//170
f 306//171 303//171 305//171
f 304//172 303//172 302//172
f 301//173 299//173 300//173
f 292//174 305//174 291//174
f 304//175 289//175 290//175
f 275//176 276//176 311//176
f 283//177 309//177 293//177
f 277//178 310//178 283//178
f 309//179 275//179 293//179
f 279//180 277//180 312//180
f 94//181 54//181 58//181
f 43//182 41//182 49//182
f 8//183 9//183 10//183
f 88//184 85//184 3//184
f 7//185 4//185 13//185
f 88//186 87//186 98//186
f 179//187 171//187 11//187
f 172//188 85//188 115//188
f 5//189 48//189 47//189
f 3//190 42//190 50//190
f 86//191 1//191 41//191
f 230//192 173//192 4//192
f 180//193 179//193 16//193
f 7//194 15//194 9//194
f 4//195 173//195 12//195
f 173//196 180//196 14//196
f 2//197 10//197 11//197
f 13//198 38//198 35//198
f 16//199 11//199 33//199
f 10//200 37//200 33//200
f 10//201 9//201 40//201
f 14//202 16//202 34//202
f 9//203 15//203 35//203
f 12//204 14//204 36//204
f 89//205 41//205 57//205
f 59//206 43//206 44//206
f 41//207 43//207 59//207
f 60//208 44//208 42//208
f 172//209 216//209 90//209
f 6//210 3//210 46//210
f 6//211 45//211 48//211
f 1//212 47//212 49//212
f 44//213 52//213 50//213
f 43//214 51//214 52//214
f 7//215 56//215 54//215
f 53//216 55//216 8//216
f 55//217 56//217 7//217
f 13//218 12//218 39//218
f 171//219 229//219 53//219
f 216//220 236//220 91//220
f 60//221 58//221 54//221
f 57//222 59//222 55//222
f 59//223 60//223 56//223
f 51//224 49//224 77//224
f 48//225 81//225 80//225
f 49//226 47//226 80//226
f 50//227 82//227 79//227
f 48//228 45//228 83//228
f 45//229 46//229 79//229
f 52//230 84//230 82//230
f 51//231 78//231 84//231
f 271//232 235//232 92//232
f 90//233 91//233 58//233
f 3//234 85//234 90//234
f 215//235 89//235 92//235
f 174//236 86//236 89//236
f 1//237 86//237 87//237
f 5//238 87//238 88//238
f 86//239 97//239 98//239
f 93//240 92//240 57//240
f 94//241 272//241 230//241
f 236//242 272//242 94//242
f 93//243 53//243 229//243
f 110//244 296//244 285//244
f 108//245 109//245 102//245
f 174//246 278//246 97//246
f 85//247 88//247 99//247
f 285//248 289//248 104//248
f 103//249 102//249 105//249
f 102//250 101//250 104//250
f 108//251 103//251 118//251
f 110//252 101//252 102//252
f 105//253 104//253 112//253
f 116//254 106//254 114//254
f 279//255 116//255 111//255
f 103//256 106//256 116//256
f 97//257 110//257 109//257
f 115//258 99//258 108//258
f 99//259 98//259 109//259
f 278//260 296//260 110//260
f 303//261 301//261 114//261
f 112//262 302//262 303//262
f 301//263 300//263 111//263
f 106//264 105//264 113//264
f 289//265 302//265 112//265
f 95//266 311//266 276//266
f 107//267 117//267 118//267
f 96//268 100//268 118//268
f 95//269 115//269 117//269
f 96//270 116//270 279//270
f 274//271 269//271 234//271
f 217//272 225//272 223//272
f 182//273 181//273 178//273
f 266//274 176//274 169//274
f 177//275 187//275 185//275
f 266//276 282//276 281//276
f 188//277 183//277 171//277
f 172//278 276//278 307//278
f 221//279 222//279 175//279
f 169//280 220//280 224//280
f 267//281 213//281 167//281
f 228//282 170//282 173//282
f 186//283 188//283 179//283
f 178//284 181//284 187//284
f 170//285 185//285 184//285
f 184//286 186//286 180//286
f 183//287 182//287 168//287
f 207//288 210//288 185//288
f 188//289 206//289 205//289
f 183//290 205//290 209//290
f 209//291 212//291 181//291
f 208//292 206//292 188//292
f 212//293 207//293 187//293
f 184//294 211//294 208//294
f 233//295 213//295 267//295
f 238//296 218//296 217//296
f 237//297 217//297 213//297
f 238//298 234//298 214//298
f 268//299 216//299 172//299
f 176//300 219//300 220//300
f 222//301 219//301 176//301
f 223//302 221//302 167//302
f 224//303 226//303 218//303
f 218//304 226//304 225//304
f 170//305 228//305 232//305
f 178//306 231//306 227//306
f 178//307 177//307 232//307
f 185//308 210//308 211//308
f 168//309 227//309 229//309
f 269//310 236//310 216//310
f 232//311 228//311 234//311
f 227//312 231//312 237//312
f 231//313 232//313 238//313
f 225//314 256//314 255//314
f 258//315 259//315 222//315
f 223//316 255//316 258//316
f 257//317 260//317 224//317
f 222//318 259//318 261//318
f 219//319 261//319 257//319
f 260//320 262//320 226//320
f 262//321 256//321 225//321
f 273//322 270//322 235//322
f 234//323 269//323 268//323
f 169//324 214//324 268//324
f 270//325 267//325 215//325
f 267//326 264//326 174//326
f 167//327 175//327 265//327
f 175//328 176//328 266//328
f 281//329 280//329 264//329
f 233//330 270//330 273//330
f 230//331 272//331 274//331
f 269//332 274//332 272//332
f 273//333 271//333 229//333
f 297//334 286//334 285//334
f 288//335 287//335 295//335
f 280//336 278//336 174//336
f 263//337 307//337 282//337
f 290//338 289//338 285//338
f 288//339 292//339 291//339
f 287//340 291//340 290//340
f 310//341 288//341 294//341
f 287//342 286//342 297//342
f 291//343 305//343 304//343
f 308//344 299//344 306//344
f 279//345 300//345 299//345
f 308//346 292//346 288//346
f 295//347 297//347 280//347
f 309//348 294//348 282//348
f 294//349 295//349 281//349
f 297//350 296//350 278//350
f 306//351 301//351 303//351
f 304//352 305//352 303//352
f 301//353 306//353 299//353
f 292//354 306//354 305//354
f 304//355 302//355 289//355
f 275//356 307//356 276//356
f 283//357 310//357 309//357
f 277//358 308//358 310//358
f 309//359 307//359 275//359
f 279//360 308//360 277//360
usemtl color_2
f 95//361 298//361 311//361
f 284//362 107//362 100//362
f 284//363 96//363 312//363
f 298//364 275//364 311//364
f 293//365 284//365 283//365
f 277//366 284//366 312//366
f 95//367 107//367 298//367
f 284//368 298//368 107//368
f 284//369 100//369 96//369
f 298//370 293//370 275//370
f 293//371 298//371 284//371
f 277//372 283//372 284//372
usemtl color_3
f 160//373 157//373 154//373
f 148//374 19//374 24//374
f 147//375 18//375 19//375
f 23//376 20//376 22//376
f 17//376 19//376 18//376
f 17//376 22//376 24//376
f 143//377 17//377 18//377
f 148//378 22//378 150//378
f 146//379 23//379 17//379
f 161//380 155//380 162//380
f 39//381 32//381 30//381
f 35//382 31//382 40//382
f 36//383 27//383 32//383
f 37//384 31//384 26//384
f 159//376 154//376 153//376
f 38//385 30//385 28//385
f 33//386 27//386 34//386
f 38//387 29//387 35//387
f 37//388 25//388 33//388
f 123//389 141//389 139//389
f 63//390 131//390 64//390
f 124//391 141//391 125//391
f 61//392 66//392 68//392
f 65//393 64//393 67//393
f 64//394 68//394 67//394
f 65//395 134//395 132//395
f 62//396 129//396 130//396
f 119//397 136//397 127//397
f 68//398 134//398 67//398
f 119//399 140//399 124//399
f 78//400 76//400 84//400
f 84//401 73//401 82//401
f 83//402 74//402 75//402
f 81//403 75//403 71//403
f 79//404 73//404 74//404
f 77//405 70//405 69//405
f 80//406 71//406 70//406
f 78//407 69//407 72//407
f 76//408 125//408 123//408
f 76//409 121//409 73//409
f 75//410 126//410 122//410
f 75//411 120//411 71//411
f 74//412 121//412 126//412
f 70//413 124//413 69//413
f 71//414 119//414 70//414
f 72//415 124//415 125//415
f 141//416 132//416 134//416
f 136//417 128//417 127//417
f 140//418 128//418 132//418
f 137//419 130//419 142//419
f 138//420 131//420 136//420
f 138//421 130//421 129//421
f 139//422 133//422 137//422
f 139//423 134//423 135//423
f 66//424 135//424 68//424
f 64//425 129//425 61//425
f 121//426 139//426 137//426
f 63//427 132//427 128//427
f 126//428 138//428 122//428
f 62//429 133//429 66//429
f 120//430 138//430 136//430
f 126//431 137//431 142//431
f 28//432 145//432 144//432
f 30//433 150//433 145//433
f 31//434 149//434 146//434
f 27//435 150//435 32//435
f 31//436 143//436 26//436
f 26//437 147//437 25//437
f 27//438 147//438 148//438
f 28//439 149//439 29//439
f 157//440 153//440 154//440
f 158//441 152//441 156//441
f 156//442 153//442 155//442
f 162//443 157//443 163//443
f 164//376 151//376 165//376
f 161//444 158//444 156//444
f 165//445 158//445 166//445
f 164//376 153//376 152//376
f 156//446 157//446 155//446
f 20//376 159//376 164//376
f 22//447 166//447 150//447
f 145//448 166//448 161//448
f 20//376 165//376 22//376
f 144//449 163//449 149//449
f 21//376 160//376 159//376
f 144//450 161//450 162//450
f 23//451 163//451 160//451
f 354//452 351//452 357//452
f 342//453 191//453 341//453
f 341//454 190//454 337//454
f 192//455 195//455 194//455
f 191//455 189//455 190//455
f 194//455 189//455 196//455
f 337//456 189//456 340//456
f 194//457 342//457 344//457
f 340//458 195//458 343//458
f 349//459 355//459 356//459
f 202//460 208//460 211//460
f 212//461 201//461 207//461
f 204//462 206//462 208//462
f 209//463 203//463 212//463
f 353//455 348//455 354//455
f 210//464 202//464 211//464
f 206//465 197//465 205//465
f 207//466 200//466 210//466
f 205//467 198//467 209//467
f 317//468 335//468 319//468
f 325//469 241//469 242//469
f 335//470 318//470 319//470
f 244//471 239//471 246//471
f 243//472 242//472 241//472
f 246//473 242//473 245//473
f 243//474 328//474 245//474
f 240//475 323//475 239//475
f 313//476 330//476 314//476
f 328//477 246//477 245//477
f 334//478 313//478 318//478
f 254//479 256//479 262//479
f 260//480 254//480 262//480
f 261//481 252//481 257//481
f 259//482 253//482 261//482
f 252//483 260//483 257//483
f 255//484 248//484 258//484
f 258//485 249//485 259//485
f 256//486 247//486 255//486
f 254//487 319//487 250//487
f 315//488 254//488 251//488
f 253//489 320//489 252//489
f 314//490 253//490 249//490
f 252//491 315//491 251//491
f 318//492 248//492 247//492
f 313//493 249//493 248//493
f 250//494 318//494 247//494
f 335//495 326//495 334//495
f 322//496 330//496 321//496
f 334//497 322//497 321//497
f 324//498 331//498 336//498
f 325//499 332//499 330//499
f 332//500 324//500 336//500
f 327//501 333//501 331//501
f 329//502 335//502 333//502
f 329//503 244//503 246//503
f 239//504 325//504 242//504
f 315//505 333//505 317//505
f 241//506 326//506 243//506
f 332//507 320//507 316//507
f 327//508 240//508 244//508
f 314//509 332//509 316//509
f 320//510 331//510 315//510
f 200//511 339//511 202//511
f 339//512 204//512 202//512
f 203//513 343//513 201//513
f 344//514 199//514 204//514
f 198//515 340//515 203//515
f 341//516 198//516 197//516
f 342//517 197//517 199//517
f 201//518 338//518 200//518
f 351//519 347//519 349//519
f 346//520 352//520 350//520
f 347//521 350//521 349//521
f 351//522 356//522 357//522
f 345//455 358//455 359//455
f 355//523 352//523 360//523
f 352//524 359//524 360//524
f 358//455 347//455 353//455
f 350//525 351//525 352//525
f 192//455 353//455 193//455
f 360//526 194//526 344//526
f 339//527 360//527 344//527
f 359//455 192//455 194//455
f 357//528 338//528 343//528
f 193//455 354//455 195//455
f 338//529 355//529 339//529
f 195//530 357//530 343//530
f 160//531 163//531 157//531
f 148//532 147//532 19//532
f 147//533 143//533 18//533
f 23//376 21//376 20//376
f 17//376 24//376 19//376
f 17//376 23//376 22//376
f 143//534 146//534 17//534
f 148//535 24//535 22//535
f 146//536 149//536 23//536
f 161//537 156//537 155//537
f 39//538 36//538 32//538
f 35//539 29//539 31//539
f 36//540 34//540 27//540
f 37//541 40//541 31//541
f 159//376 160//376 154//376
f 38//542 39//542 30//542
f 33//543 25//543 27//543
f 38//544 28//544 29//544
f 37//545 26//545 25//545
f 123//389 125//389 141//389
f 63//546 128//546 131//546
f 124//547 140//547 141//547
f 61//548 62//548 66//548
f 65//393 63//393 64//393
f 64//394 61//394 68//394
f 65//549 67//549 134//549
f 62//550 61//550 129//550
f 119//551 120//551 136//551
f 68//398 135//398 134//398
f 119//399 127//399 140//399
f 78//552 72//552 76//552
f 84//553 76//553 73//553
f 83//554 79//554 74//554
f 81//555 83//555 75//555
f 79//556 82//556 73//556
f 77//557 80//557 70//557
f 80//558 81//558 71//558
f 78//559 77//559 69//559
f 76//560 72//560 125//560
f 76//561 123//561 121//561
f 75//562 74//562 126//562
f 75//563 122//563 120//563
f 74//564 73//564 121//564
f 70//565 119//565 124//565
f 71//566 120//566 119//566
f 72//567 69//567 124//567
f 141//568 140//568 132//568
f 136//569 131//569 128//569
f 140//418 127//418 128//418
f 137//419 133//419 130//419
f 138//420 129//420 131//420
f 138//570 142//570 130//570
f 139//571 135//571 133//571
f 139//423 141//423 134//423
f 66//572 133//572 135//572
f 64//425 131//425 129//425
f 121//573 123//573 139//573
f 63//427 65//427 132//427
f 126//574 142//574 138//574
f 62//429 130//429 133//429
f 120//430 122//430 138//430
f 126//431 121//431 137//431
f 28//575 30//575 145//575
f 30//576 32//576 150//576
f 31//577 29//577 149//577
f 27//578 148//578 150//578
f 31//579 146//579 143//579
f 26//580 143//580 147//580
f 27//581 25//581 147//581
f 28//582 144//582 149//582
f 157//583 155//583 153//583
f 158//584 151//584 152//584
f 156//585 152//585 153//585
f 162//586 155//586 157//586
f 164//376 152//376 151//376
f 161//587 166//587 158//587
f 165//588 151//588 158//588
f 164//376 159//376 153//376
f 156//589 158//589 157//589
f 20//376 21//376 159//376
f 22//590 165//590 166//590
f 145//448 150//448 166//448
f 20//376 164//376 165//376
f 144//449 162//449 163//449
f 21//376 23//376 160//376
f 144//450 145//450 161//450
f 23//591 149//591 163//591
f 354//592 348//592 351//592
f 342//593 196//593 191//593
f 341//594 191//594 190//594
f 192//455 193//455 195//455
f 191//455 196//455 189//455
f 194//455 195//455 189//455
f 337//595 190//595 189//595
f 194//596 196//596 342//596
f 340//597 189//597 195//597
f 349//598 350//598 355//598
f 202//599 204//599 208//599
f 212//600 203//600 201//600
f 204//601 199//601 206//601
f 209//602 198//602 203//602
f 353//455 347//455 348//455
f 210//603 200//603 202//603
f 206//604 199//604 197//604
f 207//605 201//605 200//605
f 205//606 197//606 198//606
f 317//468 333//468 335//468
f 325//607 322//607 241//607
f 335//608 334//608 318//608
f 244//471 240//471 239//471
f 243//472 245//472 242//472
f 246//473 239//473 242//473
f 243//609 326//609 328//609
f 240//610 324//610 323//610
f 313//611 321//611 330//611
f 328//477 329//477 246//477
f 334//478 321//478 313//478
f 254//612 250//612 256//612
f 260//613 251//613 254//613
f 261//614 253//614 252//614
f 259//615 249//615 253//615
f 252//616 251//616 260//616
f 255//617 247//617 248//617
f 258//618 248//618 249//618
f 256//619 250//619 247//619
f 254//620 317//620 319//620
f 315//621 317//621 254//621
f 253//622 316//622 320//622
f 314//623 316//623 253//623
f 252//624 320//624 315//624
f 318//625 313//625 248//625
f 313//626 314//626 249//626
f 250//627 319//627 318//627
f 335//628 328//628 326//628
f 322//629 325//629 330//629
f 334//497 326//497 322//497
f 324//498 327//498 331//498
f 325//499 323//499 332//499
f 332//630 323//630 324//630
f 327//631 329//631 333//631
f 329//632 328//632 335//632
f 329//633 327//633 244//633
f 239//504 323//504 325//504
f 315//634 331//634 333//634
f 241//506 322//506 326//506
f 332//635 336//635 320//635
f 327//508 324//508 240//508
f 314//509 330//509 332//509
f 320//510 336//510 331//510
f 200//636 338//636 339//636
f 339//637 344//637 204//637
f 203//638 340//638 343//638
f 344//639 342//639 199//639
f 198//640 337//640 340//640
f 341//641 337//641 198//641
f 342//642 341//642 197//642
f 201//643 343//643 338//643
f 351//644 348//644 347//644
f 346//645 345//645 352//645
f 347//646 346//646 350//646
f 351//647 349//647 356//647
f 345//455 346//455 358//455
f 355//648 350//648 352//648
f 352//649 345//649 359//649
f 358//455 346//455 347//455
f 350//650 349//650 351//650
f 192//455 358//455 353//455
f 360//651 359//651 194//651
f 339//527 355//527 360//527
f 359//455 358//455 192//455
f 357//528 356//528 338//528
f 193//455 353//455 354//455
f 338//529 356//529 355//529
f 195//652 354//652 357//652
