# Blender v2.83.5 OBJ File: 'bio.blend'
# www.blender.org
mtllib bio_000018.mtl
o Cube
v -0.869605 -1.062009 -0.522111
v -0.646123 1.278904 -0.293265
v -0.752907 -1.065762 0.456674
v -0.688940 0.661058 0.380126
v -0.988093 -1.021698 -0.214811
v -0.951059 -1.014263 0.163218
v -0.860762 0.854300 0.186616
v -0.844806 1.121537 -0.069996
v -0.778215 1.262105 0.187048
v -0.668404 1.382226 0.063239
v -0.134091 1.288784 -0.062114
v -0.158291 0.965589 0.393022
v -0.693291 0.956175 0.463312
v -0.068428 1.084560 0.226541
v -0.788057 1.093616 0.345264
v -0.060323 1.184232 0.069672
v -0.639262 2.867125 0.203799
v -0.572224 2.797354 0.116604
v -0.256145 2.823615 0.101007
v -0.263698 3.073066 0.379821
v -0.579759 3.046191 0.394733
v -0.182072 3.004213 0.291580
v -0.642242 2.965532 0.313789
v -0.179092 2.905806 0.181590
v -0.085956 1.935944 0.949212
v -0.513136 1.922445 0.962623
v -0.009128 1.981817 1.053885
v -0.525636 2.076450 1.308703
v -0.605029 2.024027 1.207273
v -0.098556 2.081498 1.296345
v -0.600126 1.962124 1.070173
v -0.013705 2.038366 1.181646
v -0.098386 2.045057 0.982498
v -0.030457 1.977437 1.076661
v -0.580029 1.933790 1.214386
v -0.036786 1.897383 1.187600
v -0.491544 2.078974 1.000678
v -0.508796 1.857612 1.303626
v -0.115670 1.827030 1.285945
v -0.573176 2.021955 1.094772
v -0.862850 -0.583871 -0.609309
v -0.792043 -0.583978 0.343917
v -0.917164 -0.604143 -0.347172
v -0.779613 -0.601386 0.009882
v -1.074901 -0.622310 0.128473
v -0.917214 -0.642372 0.250091
v -1.205019 -0.691042 -0.295932
v -1.194198 -0.646555 -0.087307
v -0.962373 -0.642755 -0.443999
v -0.678374 -0.593300 0.103353
v -0.833957 -0.588390 -0.308851
v -0.725904 -0.567879 -0.090882
v -0.699839 0.765088 -0.660750
v -0.752549 0.270341 0.122997
v -0.889084 0.612992 -0.459232
v -0.900942 0.398118 -0.160111
v -0.721487 -0.338656 -0.644719
v -0.707145 -0.407247 0.302580
v -0.864361 -0.372320 -0.402525
v -0.831043 -0.401409 -0.038237
v -1.152127 1.618337 1.207027
v -1.068172 1.547205 1.231447
v -1.265420 1.795228 1.071214
v -1.230132 1.716421 1.143661
v -1.116205 1.884483 1.025685
v -0.918957 1.636460 1.185918
v -1.012132 1.846820 1.077144
v -0.934127 1.748735 1.140511
v -1.083857 1.137366 -0.372985
v -1.327855 1.012848 -0.286333
v -1.289456 0.899159 -0.153514
v -0.933582 1.091904 -0.273783
v -0.766924 0.805193 -0.075712
v -1.011050 0.682929 0.012116
v -1.163633 0.759232 -0.040502
v -0.807770 0.951840 -0.161624
v -1.056982 0.782269 -0.454461
v -0.934019 0.816640 -0.358669
v -1.015443 0.761566 0.072648
v -1.270933 0.754864 -0.330796
v -1.246549 0.776699 -0.175757
v -0.801461 0.787962 -0.052674
v -1.145647 0.780954 -0.017229
v -0.832986 0.819560 -0.198582
v -0.650723 -1.132950 0.518945
v -0.699345 -1.179767 -0.592861
v -0.813977 -1.152605 -0.343905
v -0.726125 -1.196871 0.165973
v -0.329717 -0.530093 -0.571568
v -0.376157 -0.522750 0.490271
v -0.330947 -0.312127 0.446536
v -0.255726 -0.294387 -0.574848
v -0.255303 0.185426 -0.614818
v -0.328147 0.055436 0.369189
v -0.312098 -1.373616 0.474940
v -0.472793 -2.388104 0.416026
v -0.481834 -1.370064 -0.651871
v -0.706820 -1.266973 -0.349612
v -0.625872 -1.272123 0.171918
v -0.498162 -2.153845 0.441528
v -0.454477 -2.194020 -0.611474
v -0.670327 -2.155208 -0.400600
v -0.698012 -2.155208 0.172826
v -0.435945 -2.431938 -0.488583
v -0.619443 -2.431938 -0.331185
v -0.639741 -2.431938 0.142399
v -0.494237 -1.766800 0.444054
v -0.692913 -1.764590 0.195959
v -0.662308 -1.764590 -0.421811
v -0.445864 -1.845915 -0.675574
v -0.442579 -2.528036 0.386897
v -0.385231 -2.528036 -0.266728
v -0.506515 -2.528036 -0.226300
v -0.519367 -2.528036 0.148509
v -0.495209 -1.259584 0.420360
v -0.516377 -2.431938 0.380543
v -0.542259 -1.764590 0.412857
v -0.546286 -2.155208 0.410440
v -1.292842 1.689221 0.862817
v -1.252519 1.593603 0.950237
v -0.877640 1.498953 1.000278
v -1.159038 1.476058 1.026176
v -0.897787 1.632327 0.946462
v -1.114022 1.796184 0.808255
v -0.991268 1.749872 0.870523
v -1.056461 1.391990 1.054840
v -1.329533 1.724054 0.885521
v -1.321315 1.776108 0.977615
v -1.169185 1.532983 1.148430
v -1.057491 1.444370 1.191931
v -1.273519 1.664174 1.063675
v -1.121736 1.895488 0.916718
v -0.857911 1.563750 1.131034
v -0.981937 1.838586 0.974707
v -0.877604 1.707394 1.059461
v -1.282057 1.606151 0.975816
v -0.847078 1.502966 1.045248
v -1.173434 1.469566 1.064056
v -0.869865 1.651149 0.971430
v -1.121749 1.848342 0.822121
v -0.978489 1.787733 0.883191
v -1.054863 1.378678 1.108648
v -0.560699 2.586109 0.290983
v -0.551423 2.719599 0.717315
v -0.211431 2.746594 0.702978
v -0.631813 2.660037 0.383383
v -0.220688 2.612454 0.275920
v -0.143435 2.700105 0.362552
v -0.617710 2.634122 0.631547
v -0.129276 2.672343 0.608652
v -0.256926 3.454045 0.803047
v -0.317974 3.524627 0.890295
v -0.552054 3.504644 0.901250
v -0.597740 3.425397 0.819495
v -0.544976 3.369499 1.037307
v -0.293110 3.389086 1.027222
v -0.593444 3.285519 0.950678
v -0.231628 3.313097 0.933894
v -0.581966 3.119075 0.476195
v -0.644449 3.038416 0.395252
v -0.231226 2.952247 0.650517
v -0.571217 2.925252 0.664854
v -0.637505 2.839775 0.579085
v -0.265905 3.145950 0.461284
v -0.184279 3.077097 0.373043
v -0.149071 2.877996 0.556190
v 0.898128 -1.066409 -0.469451
v 0.681270 0.849576 -0.460968
v 0.722985 -1.061594 0.501161
v 0.665829 1.103320 0.438298
v 0.027869 1.130752 -0.402647
v -0.038412 -1.133203 0.569589
v -0.020833 1.043768 0.431228
v 0.043890 -1.194655 -0.654756
v 0.996174 -1.024300 -0.168965
v 0.942540 -1.010436 0.204048
v 0.857760 1.029531 0.162237
v 0.861841 0.919432 -0.192216
v 0.016855 1.199120 -0.121742
v 0.002350 1.132441 0.215841
v 0.814533 1.210927 -0.212226
v 0.713642 1.157966 -0.382036
v 0.175563 1.166576 -0.323698
v 0.162541 1.265776 0.212030
v 0.707696 1.333486 0.175966
v 0.085008 1.210411 0.057242
v 0.812181 1.280339 0.008445
v 0.089382 1.191947 -0.130565
v 0.638558 3.734597 -0.879074
v 0.574514 3.706842 -0.989050
v 0.256984 3.704941 -0.992065
v 0.253611 3.795774 -0.629074
v 0.571149 3.797451 -0.626952
v 0.174925 3.767825 -0.739615
v 0.637227 3.770430 -0.735876
v 0.176256 3.731992 -0.882813
v 0.219124 2.442441 -0.731212
v 0.647287 2.455969 -0.729895
v 0.136294 2.481226 -0.585904
v 0.642842 2.578471 -0.269172
v 0.727646 2.541879 -0.407709
v 0.214664 2.565599 -0.269479
v 0.729402 2.493477 -0.589914
v 0.134657 2.526367 -0.416160
v 0.236753 2.331635 -0.680509
v 0.161748 2.371904 -0.547815
v 0.705814 2.431701 -0.385466
v 0.160140 2.418640 -0.393965
v 0.632073 2.342861 -0.679104
v 0.627688 2.470453 -0.259528
v 0.232359 2.459388 -0.259836
v 0.707550 2.381215 -0.551394
v 0.887541 -0.625926 -0.514227
v 0.764932 -0.573886 0.441440
v 0.040562 -0.452422 -0.567355
v -0.040372 -0.452422 0.567360
v 0.930630 -0.619758 -0.300270
v 0.780545 -0.596327 0.038847
v 1.073678 -0.614964 0.159143
v 0.910640 -0.625362 0.274718
v 1.219425 -0.708800 -0.254785
v 1.201211 -0.653490 -0.049700
v 0.983576 -0.661962 -0.413745
v 0.678690 -0.578879 0.117111
v 0.851225 -0.598453 -0.287466
v 0.734749 -0.564376 -0.075689
v 0.709275 0.306797 -0.365996
v 0.686571 0.510785 0.602497
v 0.031156 0.524728 -0.514336
v -0.037576 0.485167 0.478763
v 0.871919 0.327371 -0.087215
v 0.859250 0.417356 0.292098
v 0.746628 -0.431701 -0.482438
v 0.665813 -0.388303 0.483628
v 0.039871 -0.281774 -0.558559
v -0.039813 -0.281774 0.558560
v 0.866770 -0.442797 -0.225323
v 0.814268 -0.419361 0.148242
v 1.192438 1.867228 0.987039
v 1.105372 1.804899 1.022239
v 1.315615 2.010052 0.822723
v 1.275582 1.948359 0.908137
v 1.170966 2.092771 0.755353
v 0.960723 1.887618 0.954870
v 1.064252 2.069210 0.809712
v 0.981109 1.988079 0.888614
v 1.151028 1.089753 -0.468378
v 1.387642 0.974508 -0.350116
v 1.341195 0.887162 -0.197634
v 0.996141 1.065623 -0.366108
v 0.813295 0.821890 -0.119830
v 1.050048 0.708730 -0.000795
v 1.207110 0.773301 -0.062804
v 0.862087 0.951548 -0.232002
v 1.117703 0.750719 -0.501899
v 0.991861 0.794683 -0.412740
v 1.053558 0.765697 0.029573
v 1.325463 0.726175 -0.366322
v 1.295287 0.759160 -0.212734
v 0.845794 0.789181 -0.107330
v 1.187951 0.776065 -0.057230
v 0.884327 0.810606 -0.255739
v 0.608683 -1.130119 0.566073
v 0.741592 -1.182290 -0.538418
v 0.831471 -1.154611 -0.296083
v 0.714461 -1.195287 0.207568
v 0.396004 -0.531830 -0.526904
v 0.309561 -0.519094 0.547680
v 0.256727 -0.297313 0.567623
v 0.323392 -0.314577 -0.511906
v 0.032839 0.137851 -0.546907
v -0.041004 0.107196 0.521881
v 0.310022 0.058674 -0.460151
v 0.250325 0.112079 0.575793
v 0.247432 -1.373616 0.511114
v -0.037708 -1.218642 0.552691
v 0.404654 -2.388104 0.482562
v 0.046494 -1.370538 -0.674240
v -0.039044 -2.472605 0.514900
v 0.550652 -1.371079 -0.595830
v 0.729416 -1.268093 -0.298113
v 0.611423 -1.271050 0.215114
v 0.427228 -2.153845 0.510363
v -0.041622 -2.155208 0.548898
v 0.044557 -2.194020 -0.587599
v 0.539070 -2.194020 -0.538157
v 0.720572 -2.155208 -0.300273
v 0.665534 -2.155208 0.271730
v 0.035229 -2.431938 -0.464589
v 0.504381 -2.431938 -0.417535
v 0.661747 -2.431938 -0.235339
v 0.611176 -2.431938 0.236568
v 0.426746 -1.766800 0.508844
v 0.660202 -1.764590 0.286134
v 0.711117 -1.764590 -0.331440
v 0.049036 -1.845915 -0.653535
v 0.535881 -1.845915 -0.606123
v -0.041734 -1.764590 0.552129
v 0.379178 -2.528036 0.449209
v -0.037271 -2.568703 0.491513
v -0.013364 -2.568703 0.176240
v 0.018489 -2.568703 -0.243828
v 0.003973 -2.568703 -0.052397
v 0.421046 -2.528036 -0.205590
v 0.534847 -2.528036 -0.147335
v 0.491034 -2.528036 0.225126
v 0.447216 -1.258650 0.469530
v 0.453090 -2.431938 0.454056
v 0.479294 -1.764590 0.484025
v 0.479746 -2.155208 0.486391
v -0.036409 -1.372371 0.528929
v -0.039504 -2.427410 0.520959
v 1.344936 1.863831 0.640573
v 1.298867 1.788809 0.743822
v 0.919634 1.717107 0.798939
v 1.199227 1.691581 0.838378
v 0.945971 1.836408 0.720425
v 1.171589 1.962961 0.559837
v 1.045610 1.933635 0.625869
v 1.092982 1.617976 0.879674
v 1.382208 1.901401 0.657138
v 1.373332 1.971004 0.736730
v 1.208046 1.771434 0.947167
v 1.092127 1.696606 1.003590
v 1.319254 1.879949 0.841633
v 1.179859 2.081643 0.646622
v 0.898654 1.807245 0.913481
v 1.036595 2.041590 0.709987
v 0.925389 1.933074 0.815521
v 1.328122 1.805336 0.767385
v 0.888016 1.730909 0.841156
v 1.212343 1.692359 0.877258
v 0.918064 1.860645 0.740200
v 1.180782 2.016588 0.563325
v 1.033844 1.973621 0.630327
v 1.089442 1.615722 0.934969
v 0.590110 3.438855 -0.933316
v 0.587100 3.357464 -0.493958
v 0.245770 3.353183 -0.495627
v 0.658051 3.468266 -0.816778
v 0.248788 3.434338 -0.935931
v 0.167620 3.463363 -0.818782
v 0.657197 3.328830 -0.609380
v 0.166792 3.323256 -0.614071
v 0.230133 3.933837 -0.077073
v 0.288145 3.961669 0.033301
v 0.523323 3.962883 0.034757
v 0.572526 3.935766 -0.074303
v 0.534659 3.780095 0.092087
v 0.281862 3.776314 0.091134
v 0.586854 3.751361 -0.023480
v 0.223653 3.746503 -0.027142
v 0.570163 3.823991 -0.520894
v 0.636241 3.796969 -0.629818
v 0.244216 3.560502 -0.446071
v 0.585546 3.564782 -0.444403
v 0.655643 3.536149 -0.559824
v 0.252625 3.822313 -0.523017
v 0.173939 3.794364 -0.633558
v 0.165237 3.530574 -0.564515
vn -0.3927 0.1922 0.8993
vn 0.0067 -0.9299 0.3677
vn -0.7487 0.6228 -0.2273
vn -0.6072 -0.7438 0.2795
vn -0.8326 -0.1073 0.5434
vn -0.6014 -0.7944 0.0855
vn 0.5708 0.7682 0.2899
vn -0.2571 -0.1895 0.9476
vn -0.7874 -0.5726 -0.2285
vn -0.6323 0.1275 0.7642
vn 0.0714 -0.0079 -0.9974
vn -0.2603 -0.5009 0.8255
vn -0.4476 0.7651 0.4630
vn -0.9699 0.1962 0.1440
vn 0.1301 -0.2672 0.9548
vn -0.5324 0.7979 0.2828
vn 0.1444 0.9220 -0.3592
vn -0.8721 -0.2306 0.4316
vn 0.8561 0.3933 -0.3352
vn 0.0040 0.8099 -0.5865
vn -0.8244 0.5175 -0.2291
vn 0.9982 -0.0573 0.0156
vn -0.9840 0.1490 0.0975
vn 0.8305 -0.4201 0.3657
vn 0.1538 -0.0620 -0.9861
vn -0.9635 0.2452 0.1077
vn -0.8106 0.4064 -0.4217
vn -0.9288 -0.1583 0.3350
vn -0.0821 0.0836 0.9931
vn -0.6159 -0.1256 0.7778
vn -0.8587 -0.5037 0.0940
vn -0.8397 -0.0859 -0.5362
vn 0.0306 -0.9981 0.0532
vn 0.3811 -0.9189 -0.1024
vn -0.8258 -0.2100 0.5235
vn -0.8066 0.3974 -0.4377
vn -0.9971 0.0747 0.0158
vn 0.1063 -0.6896 0.7164
vn -0.0040 0.5820 -0.8132
vn -0.2661 0.2504 0.9308
vn -0.8870 -0.0072 0.4617
vn -0.7306 0.0044 -0.6828
vn -0.9978 -0.0285 -0.0600
vn 0.6118 0.0155 -0.7909
vn -0.9972 -0.0440 0.0611
vn -0.4963 -0.0393 -0.8673
vn 0.4966 0.1430 0.8561
vn -0.8436 0.0023 0.5369
vn -0.5613 0.0574 0.8256
vn 0.9714 0.0606 -0.2298
vn 0.8941 0.0344 -0.4465
vn 0.2159 -0.0812 -0.9730
vn -0.3564 0.3717 0.8572
vn -0.3504 0.1863 0.9179
vn 0.0528 0.0516 -0.9973
vn -0.0132 0.1169 -0.9931
vn -0.6668 -0.7275 -0.1617
vn -0.6290 -0.7736 0.0768
vn -0.7117 -0.6540 -0.2563
vn 0.0820 -0.0161 -0.9965
vn -0.4652 0.0900 0.8806
vn -0.3698 0.1940 0.9086
vn 0.2415 0.0825 -0.9669
vn 0.0470 -0.1820 -0.9822
vn -0.9986 0.0160 -0.0495
vn -0.0768 0.2142 -0.9738
vn -0.4834 -0.8239 0.2958
vn 0.0425 -0.4559 -0.8890
vn -0.9786 -0.2015 -0.0419
vn -0.6218 -0.2962 -0.7250
vn -0.8213 0.0049 0.5705
vn -0.7637 -0.0194 -0.6452
vn -0.1832 -0.8151 -0.5496
vn -0.7759 -0.5793 0.2499
vn -0.2649 -0.2326 0.9358
vn -0.8336 -0.1476 0.5323
vn -0.7995 0.0156 -0.6004
vn -0.8841 0.0755 0.4612
vn -0.9781 0.1406 0.1532
vn -0.0422 0.0465 -0.9980
vn -0.0785 -0.9969 -0.0027
vn -0.0391 -0.9923 -0.1173
vn -0.0815 -0.9963 0.0263
vn -0.6231 -0.7819 -0.0214
vn 0.0204 -0.9157 -0.4013
vn -0.2788 0.0119 0.9603
vn -0.5426 0.0004 0.8400
vn -0.5310 -0.1475 0.8344
vn -0.5300 0.1804 0.8286
vn -0.2446 -0.1313 0.9607
vn 0.0603 -0.1322 0.9894
vn 0.4538 0.8834 -0.1169
vn 0.8214 0.0590 -0.5672
vn 0.6127 -0.7258 0.3127
vn 0.8048 0.3766 0.4588
vn 0.7373 -0.6652 0.1176
vn 0.0675 0.9700 -0.2334
vn 0.0072 -0.6063 0.7952
vn 0.7817 -0.5997 -0.1710
vn 0.7552 0.0153 0.6553
vn 0.0324 0.0349 -0.9989
vn -0.1708 0.0886 0.9813
vn -0.5184 0.8429 0.1442
vn 0.9870 0.1565 -0.0373
vn -0.0703 0.7296 0.6802
vn -0.6174 0.7486 0.2418
vn 0.2215 0.6630 -0.7151
vn 0.8564 0.2362 0.4592
vn -0.9140 -0.0843 -0.3968
vn -0.1078 -0.2859 -0.9522
vn 0.8666 -0.0642 -0.4949
vn -0.9983 0.0515 -0.0283
vn 0.9961 0.0864 -0.0166
vn -0.9026 0.2029 0.3796
vn 0.0968 0.1007 -0.9902
vn 0.9065 0.1619 0.3900
vn 0.7831 0.5968 -0.1749
vn 0.9750 -0.2166 0.0499
vn 0.0053 0.0327 0.9995
vn 0.8069 -0.0413 0.5892
vn 0.8465 -0.5134 0.1408
vn 0.7121 -0.0540 -0.7000
vn -0.1311 -0.9901 0.0501
vn -0.3798 -0.9192 -0.1046
vn 0.8820 0.0999 0.4606
vn 0.8352 -0.0527 -0.5474
vn 0.9994 0.0220 0.0282
vn 0.0160 0.3668 0.9302
vn -0.0098 0.1812 -0.9834
vn 0.0408 -0.0798 0.9960
vn 0.9038 -0.1193 0.4111
vn 0.9022 0.1113 -0.4168
vn 0.9895 -0.0319 0.1411
vn -0.6852 0.0196 -0.7281
vn 0.9923 -0.0651 0.1057
vn 0.5414 -0.1048 -0.8342
vn -0.5230 0.1998 0.8286
vn 0.8543 0.0107 0.5197
vn 0.5726 0.0849 0.8154
vn -0.9592 0.0723 -0.2734
vn -0.8736 0.0315 -0.4856
vn 0.3068 0.0316 -0.9513
vn 0.2137 -0.1066 0.9711
vn 0.3821 0.2141 0.8990
vn 0.1679 0.0514 -0.9845
vn 0.1379 0.1164 -0.9836
vn 0.6294 -0.7632 -0.1463
vn 0.5848 -0.8081 0.0706
vn 0.7308 -0.6537 -0.1964
vn 0.1307 0.1609 -0.9783
vn -0.1714 0.1220 0.9776
vn -0.0316 -0.0204 0.9993
vn 0.2191 0.0177 -0.9755
vn 0.0952 -0.1864 -0.9778
vn 0.9962 0.0307 0.0821
vn 0.1606 0.1349 -0.9778
vn 0.5781 -0.7556 0.3079
vn 0.0883 -0.4606 -0.8832
vn 0.9781 -0.1858 0.0941
vn 0.7651 -0.3764 -0.5224
vn 0.7381 0.0049 0.6747
vn 0.8458 -0.0221 -0.5331
vn 0.3256 -0.9027 -0.2813
vn 0.5492 -0.7342 0.3992
vn 0.1336 -0.1522 0.9793
vn 0.7478 -0.1477 0.6473
vn 0.8569 0.0030 -0.5155
vn 0.8397 0.0687 0.5386
vn 0.9734 -0.0509 0.2235
vn 0.1537 0.0166 -0.9880
vn 0.0780 -0.9969 0.0092
vn 0.0998 -0.9950 0.0076
vn 0.0979 -0.9952 0.0074
vn 0.6317 -0.7722 0.0677
vn 0.0401 -0.9159 -0.3995
vn 0.0612 -0.1520 0.9865
vn 0.4153 0.0041 0.9097
vn 0.4076 -0.1463 0.9014
vn 0.4135 0.1834 0.8918
vn 0.0969 -0.1313 0.9866
vn -0.4099 0.2079 0.8881
vn -0.5760 0.8155 -0.0563
vn -0.7920 0.5983 -0.1220
vn -0.6378 -0.7224 0.2671
vn -0.8146 -0.1685 0.5551
vn -0.7265 -0.6840 0.0658
vn 0.4426 0.8751 -0.1956
vn -0.0622 -0.6596 0.7491
vn -0.8431 -0.5154 0.1536
vn -0.3024 0.9362 -0.1792
vn -0.4672 -0.1522 -0.8709
vn -0.1259 0.0879 0.9881
vn 0.3092 0.9303 0.1970
vn -0.9693 0.1960 0.1485
vn -0.4980 0.8670 0.0175
vn -0.5084 0.8142 0.2805
vn 0.1038 0.9570 -0.2709
vn -0.8501 -0.2554 0.4606
vn 0.9124 0.3160 -0.2600
vn 0.0411 0.7982 -0.6010
vn -0.7579 0.5743 -0.3095
vn 0.9983 -0.0570 0.0153
vn -0.9828 0.1711 0.0698
vn 0.9084 -0.3334 0.2521
vn 0.0886 -0.1922 -0.9774
vn -0.9220 -0.1514 0.3564
vn -0.9666 0.1756 -0.1867
vn -0.9050 0.4217 -0.0557
vn -0.2243 0.0025 0.9745
vn -0.8319 -0.0533 0.5524
vn -0.8424 -0.2227 0.4907
vn -0.5265 0.0417 -0.8492
vn 0.2467 -0.9513 -0.1849
vn 0.2196 -0.9725 -0.0771
vn -0.9018 -0.2084 0.3786
vn -0.7988 0.4080 -0.4422
vn -0.9970 0.0762 0.0152
vn -0.0247 -0.7189 0.6947
vn 0.2489 0.1768 -0.9523
vn -0.3631 0.0492 0.9304
vn -0.9393 0.0277 0.3419
vn -0.8571 -0.0510 -0.5127
vn -0.9936 -0.0739 0.0850
vn 0.7157 0.0424 -0.6971
vn -0.9869 -0.0264 0.1589
vn -0.5140 -0.0441 -0.8567
vn 0.4873 0.1408 0.8618
vn -0.8754 0.0060 0.4833
vn -0.6051 0.0580 0.7941
vn 0.9783 0.0601 -0.1984
vn 0.8446 0.0412 -0.5338
vn 0.0538 0.0286 -0.9981
vn -0.4027 0.2682 0.8752
vn -0.3976 0.2208 0.8906
vn 0.0153 -0.0187 -0.9997
vn -0.0812 0.0787 -0.9936
vn -0.6119 -0.7657 -0.1982
vn -0.5860 -0.8097 0.0307
vn -0.6746 -0.6881 -0.2674
vn 0.1555 -0.0821 -0.9844
vn -0.4815 0.1037 0.8703
vn -0.4793 0.0809 0.8739
vn 0.2259 0.0964 -0.9694
vn 0.0437 -0.1865 -0.9815
vn -0.9987 0.0179 -0.0482
vn -0.0420 0.1094 -0.9931
vn -0.5890 -0.7638 0.2641
vn 0.0452 -0.4602 -0.8867
vn -0.9802 -0.1921 -0.0473
vn -0.6810 -0.3772 -0.6276
vn -0.8426 -0.0209 0.5381
vn -0.7046 -0.1116 -0.7007
vn -0.2804 -0.9025 -0.3269
vn -0.6024 -0.7347 0.3120
vn -0.2798 -0.1522 0.9479
vn -0.8639 -0.2311 0.4475
vn -0.7646 -0.0257 -0.6439
vn -0.8134 0.1383 0.5650
vn -0.9954 -0.0819 -0.0493
vn 0.0444 -0.0432 -0.9981
vn -0.0798 -0.9968 -0.0060
vn -0.0998 -0.9950 -0.0076
vn -0.0979 -0.9952 -0.0074
vn -0.6331 -0.7736 -0.0271
vn -0.0553 -0.8469 -0.5289
vn -0.1893 -0.1516 0.9702
vn -0.5448 0.0001 0.8386
vn -0.5337 -0.1484 0.8326
vn -0.2789 0.0117 0.9602
vn -0.2788 -0.4214 0.8630
vn 0.1976 -0.0165 0.9801
vn -0.2127 -0.9441 0.2519
vn 0.8414 0.1001 -0.5311
vn 0.6001 -0.7344 0.3170
vn 0.8311 0.3925 0.3939
vn 0.5935 -0.7940 0.1319
vn -0.1354 0.9728 -0.1882
vn 0.1506 -0.1906 0.9700
vn 0.8239 -0.5246 0.2146
vn 0.2484 0.9653 -0.0809
vn 0.4506 -0.0796 -0.8892
vn -0.0330 0.2658 0.9635
vn 0.0865 0.9917 -0.0955
vn 0.9868 0.1575 -0.0390
vn -0.0505 0.7547 0.6541
vn -0.6385 0.7683 0.0450
vn -0.1001 0.2566 -0.9613
vn 0.8566 0.2360 0.4588
vn -0.8788 -0.0970 -0.4673
vn 0.0103 -0.2425 -0.9701
vn 0.8674 -0.0640 -0.4934
vn -0.9983 0.0520 -0.0262
vn 0.9961 0.0865 -0.0159
vn -0.8861 0.2095 0.4135
vn 0.0648 0.2068 -0.9762
vn 0.9498 -0.2741 0.1507
vn 0.8171 0.4484 -0.3624
vn 0.8583 0.3801 0.3447
vn 0.0568 0.0034 0.9984
vn 0.5796 -0.1004 0.8087
vn 0.8168 -0.2098 0.5375
vn 0.5584 -0.0037 -0.8296
vn -0.2796 -0.9479 -0.1526
vn -0.2570 -0.9663 0.0142
vn 0.8297 0.1759 0.5298
vn 0.8638 -0.0737 -0.4985
vn 0.9999 0.0046 0.0101
vn -0.0107 0.3570 0.9340
vn 0.1609 -0.1621 -0.9736
vn -0.0278 0.0516 0.9983
vn 0.8593 -0.0865 0.5041
vn 0.8579 0.0851 -0.5068
vn 0.9969 -0.0618 0.0480
vn -0.5814 -0.0145 -0.8135
vn 0.9786 -0.0419 0.2013
vn 0.5350 -0.1031 -0.8385
vn -0.5233 0.1998 0.8284
vn 0.8235 0.0106 0.5672
vn 0.5358 0.0866 0.8399
vn -0.9678 0.0738 -0.2406
vn -0.8231 0.0321 -0.5670
vn 0.1766 0.1414 -0.9741
vn 0.1919 -0.0425 0.9805
vn 0.2373 0.0979 0.9665
vn 0.1374 0.1139 -0.9839
vn 0.1618 0.1033 -0.9814
vn 0.6697 -0.7336 -0.1157
vn 0.6263 -0.7705 0.1187
vn 0.7186 -0.6656 -0.2013
vn 0.1074 0.1403 -0.9843
vn -0.1826 0.1131 0.9767
vn -0.1827 0.0917 0.9789
vn 0.3187 0.0809 -0.9444
vn 0.0977 -0.1898 -0.9769
vn 0.9954 0.0101 0.0958
vn 0.1528 0.1111 -0.9820
vn 0.4562 -0.8245 0.3347
vn 0.0886 -0.4602 -0.8834
vn 0.9733 -0.2044 0.1043
vn 0.7220 -0.2998 -0.6236
vn 0.7561 -0.0138 0.6544
vn 0.7988 -0.1082 -0.5918
vn 0.2627 -0.8170 -0.5133
vn 0.7293 -0.5793 0.3640
vn 0.1207 -0.2326 0.9650
vn 0.7877 -0.2275 0.5725
vn 0.8449 -0.0147 -0.5347
vn 0.7276 0.1676 0.6652
vn 0.9906 0.1097 0.0817
vn 0.0968 -0.0428 -0.9944
vn 0.0798 -0.9968 0.0060
vn 0.0563 -0.9923 -0.1101
vn 0.0766 -0.9963 0.0382
vn 0.6187 -0.7822 0.0728
vn 0.1344 -0.8469 -0.5145
vn 0.1732 0.0548 0.9834
vn 0.4269 0.0060 0.9043
vn 0.4016 -0.1444 0.9044
vn 0.1817 0.0397 0.9826
vn 0.1455 -0.4214 0.8951
vn -0.1921 0.0605 0.9795
vn -0.2289 -0.0040 0.9734
vn -0.2428 -0.1009 0.9648
vn 0.0628 0.0581 0.9963
vn 0.0819 0.0040 0.9966
vn 0.0945 -0.1009 0.9904
vn -0.2323 0.0313 0.9721
vn -0.2323 -0.0081 0.9726
vn -0.2274 -0.1297 0.9651
vn 0.0921 0.0363 0.9951
vn 0.0920 -0.0082 0.9957
vn 0.0816 -0.1252 0.9888
vn -0.9965 0.0390 0.0742
vn 0.8219 -0.2893 -0.4908
vn 0.0148 -0.6364 -0.7712
vn -0.0944 0.7407 -0.6652
vn -0.8566 -0.3555 -0.3741
vn 0.9923 0.1158 -0.0440
vn -0.9994 -0.0335 0.0029
vn 0.0832 -0.6431 0.7612
vn 0.8042 -0.0782 0.5892
vn 0.8414 -0.4806 0.2471
vn 0.9845 -0.1638 -0.0620
vn 0.8008 -0.2435 0.5472
vn 0.0292 -0.0209 0.9994
vn -0.2740 -0.8639 -0.4227
vn -0.7383 -0.1528 0.6569
vn 0.0391 -0.2875 0.9570
vn 0.6542 0.0320 -0.7557
vn -0.8863 0.0282 0.4623
vn 0.4860 0.1253 -0.8649
vn 0.0540 0.3806 0.9231
vn -0.1467 0.6330 0.7601
vn -0.0472 0.5153 0.8557
vn 0.3484 0.9342 0.0767
vn -0.5661 -0.3463 0.7481
vn -0.7496 -0.5654 -0.3441
vn 0.7205 0.6752 0.1581
vn -0.3856 0.1833 -0.9043
vn 0.8457 -0.0122 -0.5335
vn 0.2856 -0.9220 -0.2614
vn 0.4781 0.4267 -0.7677
vn -0.8134 -0.3670 0.4513
vn -0.4788 0.5185 -0.7084
vn -0.4075 0.1748 -0.8963
vn -0.9698 -0.2286 0.0847
vn 0.5842 0.2383 -0.7758
vn 0.8295 0.5035 -0.2418
vn 0.9697 0.2385 -0.0540
vn -0.6411 -0.6357 0.4300
vn -0.8186 -0.4734 0.3252
vn 0.5532 -0.6775 0.4848
vn -0.5266 0.7366 -0.4243
vn -0.9757 -0.1747 0.1325
vn 0.4974 0.7626 -0.4134
vn 0.4847 0.7722 -0.4108
vn -0.9520 -0.2221 0.2105
vn -0.5575 0.7431 -0.3703
vn 0.5487 -0.6479 0.5283
vn -0.8293 -0.4258 0.3618
vn -0.6529 -0.5893 0.4758
vn 0.9873 0.1581 0.0126
vn 0.8298 0.5005 -0.2468
vn 0.8479 0.2932 0.4417
vn -0.7772 -0.2431 0.5804
vn 0.8242 -0.1458 -0.5472
vn -0.4847 0.8675 0.1122
vn -0.5387 -0.7722 -0.3370
vn 0.4313 -0.2842 0.8563
vn -0.6078 -0.7114 -0.3529
vn 0.4479 -0.8647 -0.2272
vn -0.0226 0.6762 0.7364
vn 0.7804 0.4848 0.3950
vn -0.9983 0.0117 0.0580
vn 0.9880 0.1515 -0.0317
vn -0.8526 -0.4007 -0.3356
vn 0.0000 -0.7054 -0.7088
vn 0.8268 -0.3021 -0.4745
vn -0.8769 0.3202 0.3586
vn -0.9277 0.2398 0.2860
vn 0.8787 0.4093 0.2456
vn -0.0269 0.7085 0.7052
vn -0.1915 -0.6172 0.7631
vn 0.3960 -0.5669 0.7224
vn 0.9836 0.1805 0.0071
vn -0.0842 0.7386 -0.6689
vn 0.9934 0.0729 -0.0891
vn 0.8141 0.2159 0.5391
vn -0.8203 0.0660 0.5682
vn 0.0211 0.2490 0.9683
vn -0.9995 -0.0328 0.0023
vn 0.9913 0.0974 0.0881
vn -0.8289 -0.0894 -0.5522
vn 0.0102 -0.2030 -0.9791
vn -0.0035 0.9701 -0.2428
vn 0.8684 -0.0518 -0.4932
vn -0.9997 0.0213 0.0105
vn 0.9974 0.0573 0.0426
vn 0.0098 -0.9277 0.3732
vn -0.8626 -0.1020 0.4954
vn 0.9835 -0.1701 0.0621
vn -0.9765 -0.2088 0.0532
vn 0.8566 -0.3086 -0.4135
vn -0.0033 0.0899 0.9959
vn -0.8603 -0.3344 -0.3848
vn 0.8403 -0.0577 0.5390
vn 0.0150 -0.4141 -0.9101
vn -0.6317 -0.1002 -0.7687
vn 0.8737 0.0938 0.4773
vn -0.4574 -0.0356 -0.8885
vn -0.0656 0.5586 0.8268
vn 0.1483 0.7674 0.6238
vn 0.0420 0.6741 0.7374
vn -0.2975 0.9381 -0.1773
vn 0.5145 -0.2567 0.8181
vn 0.6241 -0.7377 -0.2575
vn -0.7001 0.7140 -0.0036
vn 0.4164 -0.0123 -0.9091
vn -0.8262 -0.0357 -0.5623
vn -0.6300 -0.7286 -0.2688
vn -0.5134 0.4281 -0.7437
vn -0.1395 -0.9902 0.0113
vn -0.5526 -0.2446 0.7967
vn 0.5381 -0.0800 -0.8391
vn 0.9009 -0.3529 0.2528
vn -0.5409 0.1352 -0.8301
vn -0.7900 0.4804 -0.3810
vn -0.9599 0.2481 -0.1307
vn 0.4951 -0.6163 0.6123
vn 0.7957 -0.4192 0.4373
vn -0.5699 -0.5546 0.6063
vn 0.5709 0.6201 -0.5380
vn 0.9655 -0.1717 0.1957
vn -0.4771 0.6746 -0.5633
vn -0.4557 0.6991 -0.5510
vn 0.9374 -0.2035 0.2825
vn 0.5934 0.6375 -0.4913
vn -0.5856 -0.5130 0.6276
vn 0.8035 -0.3692 0.4670
vn 0.6074 -0.5255 0.5957
vn -0.9811 0.1864 -0.0524
vn -0.8045 0.4653 -0.3692
vn -0.8487 0.4002 0.3458
vn 0.7519 -0.1452 0.6431
vn -0.7036 -0.2757 -0.6550
vn 0.5119 0.8578 -0.0459
vn 0.5199 -0.8394 -0.1586
vn -0.4644 -0.0948 0.8806
vn 0.5916 -0.7850 -0.1839
vn -0.4720 -0.8791 -0.0660
vn -0.0090 0.2763 0.9610
vn -0.8844 0.1458 0.4434
vn 0.9962 0.0858 -0.0132
vn -0.9992 0.0356 -0.0191
vn 0.8674 -0.0520 -0.4949
vn 0.0094 -0.2024 -0.9793
vn -0.8747 -0.0727 -0.4792
vn 0.8584 0.1981 0.4731
vn 0.9131 0.1725 0.3695
vn -0.9012 0.1566 0.4041
vn -0.0081 0.2988 0.9543
vn 0.2807 -0.8778 0.3882
vn -0.2384 -0.8919 0.3843
vn -0.9948 0.0553 0.0859
vn -0.0106 0.9708 -0.2395
vn -0.9988 0.0043 -0.0494
vn -0.8063 -0.1432 0.5739
vn 0.8346 -0.1221 0.5372
vn -0.0018 -0.2325 0.9726
vn 0.9971 0.0246 -0.0716
vn -0.9965 0.0353 0.0758
vn 0.8362 -0.2597 -0.4830
vn 0.0151 -0.6360 -0.7715
vn -0.8563 -0.3556 -0.3745
vn 0.9915 0.1094 -0.0710
vn -0.9983 -0.0217 0.0545
vn 0.0806 -0.6444 0.7605
vn 0.7811 -0.1019 0.6161
vn -0.9259 -0.2768 -0.2571
vn 0.5382 -0.7634 0.3572
vn 0.5614 -0.5182 0.6452
vn 0.0415 -0.0436 0.9982
vn -0.7123 -0.2778 0.6446
vn -0.8098 -0.0758 0.5817
vn 0.0242 -0.2393 0.9706
vn -0.8605 0.0239 0.5090
vn 0.4767 0.2911 -0.8294
vn -0.0471 0.5153 0.8557
vn 0.3307 0.9435 0.0216
vn -0.5493 -0.3956 0.7361
vn -0.6365 -0.6492 -0.4165
vn 0.7625 0.1896 -0.6186
vn 0.8786 -0.0344 -0.4764
vn 0.5325 0.5348 -0.6561
vn 0.8384 -0.1261 -0.5303
vn -0.4494 0.8933 -0.0056
vn -0.5037 0.0376 -0.8631
vn -0.9143 -0.3556 0.1939
vn 0.5587 0.2254 -0.7981
vn 0.8125 0.5222 -0.2593
vn 0.9893 0.1457 -0.0091
vn -0.5190 -0.7172 0.4651
vn -0.8315 -0.4595 0.3123
vn 0.5249 -0.6898 0.4987
vn -0.5571 0.7230 -0.4086
vn -0.9545 -0.2370 0.1810
vn 0.5018 0.7608 -0.4115
vn 0.4944 0.7779 -0.3878
vn -0.9458 -0.2210 0.2379
vn -0.5574 0.7431 -0.3703
vn -0.6424 -0.6114 0.4620
vn 0.9907 0.1359 0.0002
vn 0.8199 0.3414 0.4596
vn 0.7169 -0.1650 -0.6773
vn -0.5533 -0.8123 -0.1845
vn 0.0137 0.6670 0.7450
vn 0.8161 0.4623 0.3469
vn -0.9991 -0.0382 -0.0185
vn 0.9885 0.1459 -0.0404
vn -0.7628 -0.4708 -0.4433
vn 0.0239 -0.7103 -0.7035
vn 0.8409 -0.2884 -0.4580
vn -0.8141 0.3751 0.4434
vn -0.9276 0.2398 0.2865
vn 0.8689 0.4114 0.2752
vn -0.0274 0.7079 0.7057
vn -0.2775 -0.6076 0.7442
vn 0.3263 -0.5836 0.7436
vn 0.9832 0.1823 0.0063
vn -0.0874 0.7435 -0.6630
vn 0.9914 0.1097 -0.0713
vn -0.9941 -0.1037 -0.0314
vn 0.9909 0.1013 0.0883
vn -0.8122 -0.1104 -0.5728
vn 0.0105 -0.2034 -0.9790
vn 0.8686 -0.0519 -0.4927
vn -0.9995 0.0282 -0.0164
vn 0.9974 0.0710 -0.0085
vn 0.0125 -0.9282 0.3720
vn -0.8623 -0.0986 0.4967
vn 0.9814 -0.1828 0.0580
vn -0.9742 -0.2203 0.0492
vn 0.8551 -0.3037 -0.4202
vn -0.0034 0.0894 0.9960
vn -0.8572 -0.3208 -0.4030
vn 0.8424 -0.0705 0.5343
vn 0.0158 -0.4114 -0.9113
vn 0.8465 0.0997 0.5229
vn -0.4433 0.1336 -0.8864
vn -0.3170 0.9405 -0.1222
vn 0.5328 -0.2065 0.8207
vn 0.7382 -0.6444 -0.1994
vn -0.7523 0.1233 -0.6472
vn -0.8866 -0.0627 -0.4582
vn -0.2983 -0.1755 -0.9382
vn 0.7948 -0.3440 0.4999
vn 0.5517 0.3656 -0.7497
vn 0.4630 0.0420 -0.8854
vn 0.9569 -0.2493 0.1487
vn -0.5609 0.1490 -0.8143
vn -0.8042 0.4691 -0.3650
vn -0.9829 0.1700 -0.0714
vn 0.6059 -0.5546 0.5704
vn 0.8058 -0.4113 0.4261
vn -0.5896 -0.5473 0.5940
vn 0.5934 0.6115 -0.5234
vn 0.9402 -0.2240 0.2568
vn -0.4583 0.6801 -0.5723
vn -0.4456 0.6886 -0.5721
vn 0.9305 -0.1968 0.3089
vn -0.5857 -0.5130 0.6276
vn 0.6183 -0.5015 0.6052
vn -0.9849 0.1623 -0.0603
vn -0.8195 0.4502 0.3547
vn -0.8136 -0.2278 -0.5349
vn 0.5289 -0.8487 -0.0007
vn 0.5916 -0.7850 -0.1838
vn -0.4720 -0.8791 -0.0661
vn -0.0082 0.2767 0.9609
vn -0.8388 0.1806 0.5137
vn 0.9942 0.0874 0.0629
vn -0.9991 0.0369 0.0212
vn 0.8683 -0.0512 -0.4933
vn 0.0102 -0.2021 -0.9793
vn -0.8294 -0.1037 -0.5490
vn 0.8588 0.1978 0.4725
vn 0.9132 0.1727 0.3691
vn -0.8904 0.1457 0.4312
vn -0.0074 0.2981 0.9545
vn 0.3645 -0.8517 0.3764
vn -0.3101 -0.8745 0.3730
vn -0.9946 0.0573 0.0861
vn -0.0136 0.9689 -0.2470
vn -0.9995 0.0287 -0.0165
vn 0.9974 0.0719 -0.0087
usemtl color_1
s off
f 94//1 58//1 91//1
f 43//2 49//2 51//2
f 8//3 10//3 2//3
f 88//4 3//4 6//4
f 7//5 13//5 15//5
f 88//6 98//6 99//6
f 179//7 11//7 16//7
f 172//8 115//8 276//8
f 5//9 47//9 1//9
f 42//10 46//10 3//10
f 86//11 41//11 89//11
f 230//12 4//12 54//12
f 180//13 16//13 14//13
f 7//14 9//14 8//14
f 4//15 12//15 13//15
f 173//16 14//16 12//16
f 2//17 11//17 171//17
f 13//18 35//18 15//18
f 16//19 33//19 34//19
f 10//20 33//20 11//20
f 9//21 37//21 10//21
f 14//22 34//22 36//22
f 15//23 40//23 9//23
f 12//24 36//24 39//24
f 89//25 57//25 92//25
f 43//26 60//26 59//26
f 41//27 59//27 57//27
f 44//28 58//28 60//28
f 172//29 90//29 85//29
f 6//30 46//30 45//30
f 6//31 48//31 5//31
f 1//32 49//32 41//32
f 44//33 50//33 42//33
f 44//34 51//34 52//34
f 7//35 54//35 4//35
f 53//36 8//36 2//36
f 55//37 7//37 8//37
f 12//38 38//38 13//38
f 171//39 53//39 2//39
f 216//40 91//40 90//40
f 60//41 54//41 56//41
f 57//42 55//42 53//42
f 59//43 56//43 55//43
f 51//44 77//44 78//44
f 48//45 80//45 47//45
f 49//46 80//46 77//46
f 50//47 79//47 46//47
f 48//48 83//48 81//48
f 45//49 79//49 83//49
f 52//50 82//50 50//50
f 51//51 84//51 52//51
f 271//52 92//52 93//52
f 90//53 58//53 42//53
f 3//54 90//54 42//54
f 215//55 92//55 235//55
f 174//56 89//56 215//56
f 1//57 87//57 5//57
f 5//58 88//58 6//58
f 86//59 98//59 87//59
f 93//60 57//60 53//60
f 94//61 230//61 54//61
f 236//62 94//62 91//62
f 93//63 229//63 271//63
f 110//64 285//64 101//64
f 109//65 103//65 108//65
f 174//66 97//66 86//66
f 85//67 99//67 115//67
f 285//68 104//68 101//68
f 103//69 105//69 106//69
f 102//70 104//70 105//70
f 108//71 118//71 117//71
f 110//72 102//72 109//72
f 105//73 112//73 113//73
f 116//74 114//74 111//74
f 279//75 111//75 300//75
f 103//76 116//76 118//76
f 97//77 109//77 98//77
f 99//78 117//78 115//78
f 98//79 108//79 99//79
f 278//80 110//80 97//80
f 303//81 114//81 113//81
f 112//82 303//82 113//82
f 301//83 111//83 114//83
f 106//84 113//84 114//84
f 289//85 112//85 104//85
f 95//86 276//86 115//86
f 100//87 117//87 118//87
f 96//88 118//88 116//88
f 95//89 117//89 107//89
f 96//90 279//90 312//90
f 274//91 234//91 228//91
f 217//92 223//92 213//92
f 182//93 178//93 168//93
f 266//94 169//94 263//94
f 177//95 185//95 170//95
f 266//96 281//96 265//96
f 188//97 171//97 179//97
f 172//98 307//98 263//98
f 221//99 175//99 167//99
f 220//100 214//100 169//100
f 213//101 264//101 267//101
f 228//102 173//102 230//102
f 186//103 179//103 180//103
f 178//104 187//104 177//104
f 170//105 184//105 173//105
f 184//106 180//106 173//106
f 183//107 168//107 171//107
f 207//108 185//108 187//108
f 206//109 183//109 188//109
f 205//110 182//110 183//110
f 182//111 212//111 181//111
f 208//112 188//112 186//112
f 181//113 207//113 187//113
f 211//114 186//114 184//114
f 233//115 267//115 270//115
f 237//116 218//116 217//116
f 233//117 217//117 213//117
f 238//118 214//118 218//118
f 268//119 172//119 263//119
f 176//120 220//120 169//120
f 222//121 176//121 175//121
f 223//122 167//122 213//122
f 224//123 218//123 214//123
f 226//124 217//124 218//124
f 177//125 228//125 232//125
f 178//126 227//126 168//126
f 178//127 232//127 231//127
f 185//128 211//128 184//128
f 168//129 229//129 171//129
f 269//130 216//130 268//130
f 232//131 234//131 238//131
f 227//132 237//132 233//132
f 231//133 238//133 237//133
f 225//134 255//134 223//134
f 258//135 222//135 221//135
f 223//136 258//136 221//136
f 257//137 224//137 220//137
f 222//138 261//138 219//138
f 219//139 257//139 220//139
f 260//140 226//140 224//140
f 262//141 225//141 226//141
f 273//142 235//142 271//142
f 234//143 268//143 214//143
f 169//144 268//144 263//144
f 270//145 215//145 235//145
f 267//146 174//146 215//146
f 167//147 265//147 264//147
f 175//148 266//148 265//148
f 281//149 264//149 265//149
f 233//150 273//150 227//150
f 230//151 274//151 228//151
f 274//152 236//152 269//152
f 273//153 229//153 227//153
f 297//154 285//154 296//154
f 294//155 287//155 295//155
f 280//156 174//156 264//156
f 263//157 282//157 266//157
f 290//158 285//158 286//158
f 288//159 291//159 287//159
f 287//160 290//160 286//160
f 310//161 294//161 309//161
f 287//162 297//162 295//162
f 291//163 304//163 290//163
f 308//164 306//164 292//164
f 279//165 299//165 308//165
f 308//166 288//166 310//166
f 295//167 280//167 281//167
f 309//168 282//168 307//168
f 282//169 295//169 281//169
f 297//170 278//170 280//170
f 306//171 303//171 305//171
f 304//172 303//172 302//172
f 301//173 299//173 300//173
f 292//174 305//174 291//174
f 304//175 289//175 290//175
f 275//176 276//176 311//176
f 310//177 293//177 283//177
f 277//178 310//178 283//178
f 309//179 275//179 293//179
f 279//180 277//180 312//180
f 94//181 54//181 58//181
f 43//182 41//182 49//182
f 8//183 9//183 10//183
f 88//184 85//184 3//184
f 7//185 4//185 13//185
f 88//186 87//186 98//186
f 179//187 171//187 11//187
f 172//188 85//188 115//188
f 5//189 48//189 47//189
f 42//190 50//190 46//190
f 86//191 1//191 41//191
f 230//192 173//192 4//192
f 180//193 179//193 16//193
f 7//194 15//194 9//194
f 4//195 173//195 12//195
f 173//196 180//196 14//196
f 2//197 10//197 11//197
f 13//198 38//198 35//198
f 16//199 11//199 33//199
f 10//200 37//200 33//200
f 9//201 40//201 37//201
f 14//202 16//202 34//202
f 15//203 35//203 40//203
f 12//204 14//204 36//204
f 89//205 41//205 57//205
f 43//206 44//206 60//206
f 41//207 43//207 59//207
f 44//208 42//208 58//208
f 172//209 216//209 90//209
f 6//210 3//210 46//210
f 6//211 45//211 48//211
f 1//212 47//212 49//212
f 44//213 52//213 50//213
f 44//214 43//214 51//214
f 7//215 56//215 54//215
f 53//216 55//216 8//216
f 55//217 56//217 7//217
f 12//218 39//218 38//218
f 171//219 229//219 53//219
f 216//220 236//220 91//220
f 60//221 58//221 54//221
f 57//222 59//222 55//222
f 59//223 60//223 56//223
f 51//224 49//224 77//224
f 48//225 81//225 80//225
f 49//226 47//226 80//226
f 50//227 82//227 79//227
f 48//228 45//228 83//228
f 45//229 46//229 79//229
f 52//230 84//230 82//230
f 51//231 78//231 84//231
f 271//232 235//232 92//232
f 90//233 91//233 58//233
f 3//234 85//234 90//234
f 215//235 89//235 92//235
f 174//236 86//236 89//236
f 1//237 86//237 87//237
f 5//238 87//238 88//238
f 86//239 97//239 98//239
f 93//240 92//240 57//240
f 94//241 272//241 230//241
f 236//242 272//242 94//242
f 93//243 53//243 229//243
f 110//244 296//244 285//244
f 109//245 102//245 103//245
f 174//246 278//246 97//246
f 85//247 88//247 99//247
f 285//248 289//248 104//248
f 103//249 102//249 105//249
f 102//250 101//250 104//250
f 108//251 103//251 118//251
f 110//252 101//252 102//252
f 105//253 104//253 112//253
f 116//254 106//254 114//254
f 279//255 116//255 111//255
f 103//256 106//256 116//256
f 97//257 110//257 109//257
f 99//258 108//258 117//258
f 98//259 109//259 108//259
f 278//260 296//260 110//260
f 303//261 301//261 114//261
f 112//262 302//262 303//262
f 301//263 300//263 111//263
f 106//264 105//264 113//264
f 289//265 302//265 112//265
f 95//266 311//266 276//266
f 100//267 107//267 117//267
f 96//268 100//268 118//268
f 95//269 115//269 117//269
f 96//270 116//270 279//270
f 274//271 269//271 234//271
f 217//272 225//272 223//272
f 182//273 181//273 178//273
f 266//274 176//274 169//274
f 177//275 187//275 185//275
f 266//276 282//276 281//276
f 188//277 183//277 171//277
f 172//278 276//278 307//278
f 221//279 222//279 175//279
f 220//280 224//280 214//280
f 213//281 167//281 264//281
f 228//282 170//282 173//282
f 186//283 188//283 179//283
f 178//284 181//284 187//284
f 170//285 185//285 184//285
f 184//286 186//286 180//286
f 183//287 182//287 168//287
f 207//288 210//288 185//288
f 206//289 205//289 183//289
f 205//290 209//290 182//290
f 182//291 209//291 212//291
f 208//292 206//292 188//292
f 181//293 212//293 207//293
f 211//294 208//294 186//294
f 233//295 213//295 267//295
f 237//296 238//296 218//296
f 233//297 237//297 217//297
f 238//298 234//298 214//298
f 268//299 216//299 172//299
f 176//300 219//300 220//300
f 222//301 219//301 176//301
f 223//302 221//302 167//302
f 224//303 226//303 218//303
f 226//304 225//304 217//304
f 177//305 170//305 228//305
f 178//306 231//306 227//306
f 178//307 177//307 232//307
f 185//308 210//308 211//308
f 168//309 227//309 229//309
f 269//310 236//310 216//310
f 232//311 228//311 234//311
f 227//312 231//312 237//312
f 231//313 232//313 238//313
f 225//314 256//314 255//314
f 258//315 259//315 222//315
f 223//316 255//316 258//316
f 257//317 260//317 224//317
f 222//318 259//318 261//318
f 219//319 261//319 257//319
f 260//320 262//320 226//320
f 262//321 256//321 225//321
f 273//322 270//322 235//322
f 234//323 269//323 268//323
f 169//324 214//324 268//324
f 270//325 267//325 215//325
f 267//326 264//326 174//326
f 167//327 175//327 265//327
f 175//328 176//328 266//328
f 281//329 280//329 264//329
f 233//330 270//330 273//330
f 230//331 272//331 274//331
f 274//332 272//332 236//332
f 273//333 271//333 229//333
f 297//334 286//334 285//334
f 294//335 288//335 287//335
f 280//336 278//336 174//336
f 263//337 307//337 282//337
f 290//338 289//338 285//338
f 288//339 292//339 291//339
f 287//340 291//340 290//340
f 310//341 288//341 294//341
f 287//342 286//342 297//342
f 291//343 305//343 304//343
f 308//344 299//344 306//344
f 279//345 300//345 299//345
f 308//346 292//346 288//346
f 295//347 297//347 280//347
f 309//348 294//348 282//348
f 282//349 294//349 295//349
f 297//350 296//350 278//350
f 306//351 301//351 303//351
f 304//352 305//352 303//352
f 301//353 306//353 299//353
f 292//354 306//354 305//354
f 304//355 302//355 289//355
f 275//356 307//356 276//356
f 310//357 309//357 293//357
f 277//358 308//358 310//358
f 309//359 307//359 275//359
f 279//360 308//360 277//360
usemtl color_2
f 95//361 298//361 311//361
f 284//362 107//362 100//362
f 284//363 96//363 312//363
f 298//364 275//364 311//364
f 293//365 284//365 283//365
f 277//366 284//366 312//366
f 95//367 107//367 298//367
f 284//368 298//368 107//368
f 284//369 100//369 96//369
f 298//370 293//370 275//370
f 293//371 298//371 284//371
f 277//372 283//372 284//372
usemtl color_3
f 160//373 157//373 154//373
f 148//374 19//374 24//374
f 147//375 18//375 19//375
f 23//376 20//376 22//376
f 17//376 19//376 18//376
f 17//376 22//376 24//376
f 143//377 17//377 18//377
f 148//378 22//378 150//378
f 146//379 23//379 17//379
f 161//380 155//380 162//380
f 36//381 30//381 39//381
f 40//382 29//382 31//382
f 34//383 32//383 36//383
f 40//384 26//384 37//384
f 159//376 154//376 153//376
f 38//385 30//385 28//385
f 33//386 27//386 34//386
f 35//387 28//387 29//387
f 33//388 26//388 25//388
f 125//389 139//389 123//389
f 63//390 131//390 64//390
f 124//391 141//391 125//391
f 61//392 66//392 68//392
f 65//393 64//393 67//393
f 64//394 68//394 67//394
f 65//395 134//395 132//395
f 62//396 129//396 130//396
f 119//397 136//397 127//397
f 68//398 134//398 67//398
f 119//399 140//399 124//399
f 78//400 76//400 84//400
f 84//401 73//401 82//401
f 83//402 74//402 75//402
f 81//403 75//403 71//403
f 82//404 74//404 79//404
f 77//405 70//405 69//405
f 80//406 71//406 70//406
f 78//407 69//407 72//407
f 76//408 125//408 123//408
f 76//409 121//409 73//409
f 75//410 126//410 122//410
f 75//411 120//411 71//411
f 74//412 121//412 126//412
f 70//413 124//413 69//413
f 71//414 119//414 70//414
f 72//415 124//415 125//415
f 141//416 132//416 134//416
f 136//417 128//417 127//417
f 140//418 128//418 132//418
f 137//419 130//419 142//419
f 136//420 129//420 131//420
f 138//421 130//421 129//421
f 139//422 133//422 137//422
f 141//423 135//423 139//423
f 66//424 135//424 68//424
f 64//425 129//425 61//425
f 121//426 139//426 137//426
f 63//427 132//427 128//427
f 126//428 138//428 122//428
f 62//429 133//429 66//429
f 120//430 138//430 136//430
f 126//431 137//431 142//431
f 28//432 145//432 144//432
f 32//433 145//433 30//433
f 31//434 149//434 146//434
f 27//435 150//435 32//435
f 26//436 146//436 143//436
f 26//437 147//437 25//437
f 25//438 148//438 27//438
f 29//439 144//439 149//439
f 157//440 153//440 154//440
f 158//441 152//441 156//441
f 156//442 153//442 155//442
f 162//443 157//443 163//443
f 164//376 151//376 165//376
f 161//444 158//444 156//444
f 165//445 158//445 166//445
f 164//376 153//376 152//376
f 156//446 157//446 155//446
f 20//376 159//376 164//376
f 22//447 166//447 150//447
f 145//448 166//448 161//448
f 20//376 165//376 22//376
f 144//449 163//449 149//449
f 21//376 160//376 159//376
f 144//450 161//450 162//450
f 23//451 163//451 160//451
f 354//452 351//452 357//452
f 342//453 191//453 341//453
f 341//454 190//454 337//454
f 192//455 195//455 194//455
f 191//455 189//455 190//455
f 194//455 189//455 196//455
f 337//456 189//456 340//456
f 194//457 342//457 344//457
f 340//458 195//458 343//458
f 349//459 355//459 356//459
f 211//460 204//460 208//460
f 203//461 207//461 212//461
f 208//462 199//462 206//462
f 209//463 203//463 212//463
f 353//455 348//455 354//455
f 210//464 202//464 211//464
f 199//465 205//465 206//465
f 201//466 210//466 207//466
f 197//467 209//467 205//467
f 333//468 319//468 317//468
f 325//469 241//469 242//469
f 335//470 318//470 319//470
f 244//471 239//471 246//471
f 243//472 242//472 241//472
f 246//473 242//473 245//473
f 243//474 328//474 245//474
f 240//475 323//475 239//475
f 313//476 330//476 314//476
f 245//477 329//477 246//477
f 334//478 313//478 318//478
f 254//479 256//479 262//479
f 251//480 262//480 260//480
f 261//481 252//481 257//481
f 259//482 253//482 261//482
f 257//483 251//483 260//483
f 255//484 248//484 258//484
f 258//485 249//485 259//485
f 256//486 247//486 255//486
f 254//487 319//487 250//487
f 315//488 254//488 251//488
f 253//489 320//489 252//489
f 314//490 253//490 249//490
f 252//491 315//491 251//491
f 318//492 248//492 247//492
f 313//493 249//493 248//493
f 250//494 318//494 247//494
f 335//495 326//495 334//495
f 322//496 330//496 321//496
f 334//497 322//497 321//497
f 324//498 331//498 336//498
f 325//499 332//499 330//499
f 332//500 324//500 336//500
f 327//501 333//501 331//501
f 333//502 328//502 335//502
f 329//503 244//503 246//503
f 239//504 325//504 242//504
f 315//505 333//505 317//505
f 241//506 326//506 243//506
f 332//507 320//507 316//507
f 327//508 240//508 244//508
f 330//509 316//509 314//509
f 320//510 331//510 315//510
f 200//511 339//511 202//511
f 202//512 344//512 204//512
f 203//513 343//513 201//513
f 344//514 199//514 204//514
f 337//515 203//515 198//515
f 341//516 198//516 197//516
f 199//517 341//517 197//517
f 343//518 200//518 201//518
f 351//519 347//519 349//519
f 346//520 352//520 350//520
f 347//521 350//521 349//521
f 351//522 356//522 357//522
f 345//455 358//455 359//455
f 355//523 352//523 360//523
f 352//524 359//524 360//524
f 358//455 347//455 353//455
f 350//525 351//525 352//525
f 192//455 353//455 193//455
f 360//526 194//526 344//526
f 339//527 360//527 344//527
f 359//455 192//455 194//455
f 357//528 338//528 343//528
f 193//455 354//455 195//455
f 338//529 355//529 339//529
f 195//530 357//530 343//530
f 160//531 163//531 157//531
f 148//532 147//532 19//532
f 147//533 143//533 18//533
f 23//376 21//376 20//376
f 17//376 24//376 19//376
f 17//376 23//376 22//376
f 143//534 146//534 17//534
f 148//535 24//535 22//535
f 146//536 149//536 23//536
f 161//537 156//537 155//537
f 36//538 32//538 30//538
f 40//539 35//539 29//539
f 34//540 27//540 32//540
f 40//541 31//541 26//541
f 159//376 160//376 154//376
f 38//542 39//542 30//542
f 33//543 25//543 27//543
f 35//544 38//544 28//544
f 33//545 37//545 26//545
f 125//389 141//389 139//389
f 63//546 128//546 131//546
f 124//547 140//547 141//547
f 61//392 62//392 66//392
f 65//393 63//393 64//393
f 64//548 61//548 68//548
f 65//549 67//549 134//549
f 62//550 61//550 129//550
f 119//551 120//551 136//551
f 68//398 135//398 134//398
f 119//399 127//399 140//399
f 78//552 72//552 76//552
f 84//553 76//553 73//553
f 83//554 79//554 74//554
f 81//555 83//555 75//555
f 82//556 73//556 74//556
f 77//557 80//557 70//557
f 80//558 81//558 71//558
f 78//559 77//559 69//559
f 76//560 72//560 125//560
f 76//561 123//561 121//561
f 75//562 74//562 126//562
f 75//563 122//563 120//563
f 74//564 73//564 121//564
f 70//565 119//565 124//565
f 71//566 120//566 119//566
f 72//567 69//567 124//567
f 141//568 140//568 132//568
f 136//569 131//569 128//569
f 140//570 127//570 128//570
f 137//419 133//419 130//419
f 136//420 138//420 129//420
f 138//571 142//571 130//571
f 139//572 135//572 133//572
f 141//423 134//423 135//423
f 66//573 133//573 135//573
f 64//425 131//425 129//425
f 121//574 123//574 139//574
f 63//427 65//427 132//427
f 126//575 142//575 138//575
f 62//429 130//429 133//429
f 120//430 122//430 138//430
f 126//431 121//431 137//431
f 28//576 30//576 145//576
f 32//577 150//577 145//577
f 31//578 29//578 149//578
f 27//579 148//579 150//579
f 26//580 31//580 146//580
f 26//581 143//581 147//581
f 25//582 147//582 148//582
f 29//583 28//583 144//583
f 157//584 155//584 153//584
f 158//585 151//585 152//585
f 156//586 152//586 153//586
f 162//587 155//587 157//587
f 164//376 152//376 151//376
f 161//588 166//588 158//588
f 165//589 151//589 158//589
f 164//376 159//376 153//376
f 156//590 158//590 157//590
f 20//376 21//376 159//376
f 22//591 165//591 166//591
f 145//448 150//448 166//448
f 20//376 164//376 165//376
f 144//449 162//449 163//449
f 21//376 23//376 160//376
f 144//450 145//450 161//450
f 23//592 149//592 163//592
f 354//593 348//593 351//593
f 342//594 196//594 191//594
f 341//595 191//595 190//595
f 192//455 193//455 195//455
f 191//455 196//455 189//455
f 194//455 195//455 189//455
f 337//596 190//596 189//596
f 194//597 196//597 342//597
f 340//598 189//598 195//598
f 349//599 350//599 355//599
f 211//600 202//600 204//600
f 203//601 201//601 207//601
f 208//602 204//602 199//602
f 209//603 198//603 203//603
f 353//455 347//455 348//455
f 210//604 200//604 202//604
f 199//605 197//605 205//605
f 201//606 200//606 210//606
f 197//607 198//607 209//607
f 333//468 335//468 319//468
f 325//608 322//608 241//608
f 335//609 334//609 318//609
f 244//471 240//471 239//471
f 243//472 245//472 242//472
f 246//473 239//473 242//473
f 243//610 326//610 328//610
f 240//611 324//611 323//611
f 313//612 321//612 330//612
f 245//477 328//477 329//477
f 334//478 321//478 313//478
f 254//613 250//613 256//613
f 251//614 254//614 262//614
f 261//615 253//615 252//615
f 259//616 249//616 253//616
f 257//617 252//617 251//617
f 255//618 247//618 248//618
f 258//619 248//619 249//619
f 256//620 250//620 247//620
f 254//621 317//621 319//621
f 315//622 317//622 254//622
f 253//623 316//623 320//623
f 314//624 316//624 253//624
f 252//625 320//625 315//625
f 318//626 313//626 248//626
f 313//627 314//627 249//627
f 250//628 319//628 318//628
f 335//629 328//629 326//629
f 322//630 325//630 330//630
f 334//497 326//497 322//497
f 324//631 327//631 331//631
f 325//499 323//499 332//499
f 332//632 323//632 324//632
f 327//633 329//633 333//633
f 333//502 329//502 328//502
f 329//634 327//634 244//634
f 239//504 323//504 325//504
f 315//635 331//635 333//635
f 241//506 322//506 326//506
f 332//636 336//636 320//636
f 327//508 324//508 240//508
f 330//637 332//637 316//637
f 320//638 336//638 331//638
f 200//639 338//639 339//639
f 202//640 339//640 344//640
f 203//641 340//641 343//641
f 344//642 342//642 199//642
f 337//643 340//643 203//643
f 341//644 337//644 198//644
f 199//645 342//645 341//645
f 343//646 338//646 200//646
f 351//647 348//647 347//647
f 346//648 345//648 352//648
f 347//649 346//649 350//649
f 351//650 349//650 356//650
f 345//455 346//455 358//455
f 355//651 350//651 352//651
f 352//652 345//652 359//652
f 358//455 346//455 347//455
f 350//653 349//653 351//653
f 192//455 358//455 353//455
f 360//654 359//654 194//654
f 339//527 355//527 360//527
f 359//455 358//455 192//455
f 357//528 356//528 338//528
f 193//455 353//455 354//455
f 338//529 356//529 355//529
f 195//655 354//655 357//655
