# Blender v2.83.5 OBJ File: 'bio.blend'
# www.blender.org
mtllib bio_000013.mtl
o Cube
v -0.937135 -1.105124 -0.397372
v -0.673945 0.776818 -0.464962
v -0.673541 -1.165873 0.538751
v -0.658235 1.077680 0.418335
v -1.008531 -1.089667 -0.071554
v -0.912477 -1.127868 0.289675
v -0.847951 1.010500 0.141810
v -0.853478 0.879854 -0.205673
v -0.775878 1.163848 -0.240720
v -0.676282 1.090680 -0.403644
v -0.146273 1.064596 -0.330782
v -0.134730 1.191063 0.202255
v -0.667841 1.298590 0.143074
v -0.057277 1.129451 0.051147
v -0.772540 1.246070 -0.024511
v -0.060717 1.098517 -0.137347
v -0.643749 2.034795 -1.818164
v -0.582406 1.920217 -1.809633
v -0.267443 1.905257 -1.847217
v -0.256850 2.275399 -1.901093
v -0.571840 2.289449 -1.863377
v -0.180992 2.159696 -1.894233
v -0.639570 2.180815 -1.839417
v -0.185171 2.013677 -1.872979
v -0.061471 2.097963 -0.643585
v -0.487590 2.122202 -0.614839
v 0.022731 2.214680 -0.627847
v -0.476048 2.517835 -0.557632
v -0.562461 2.401875 -0.566252
v -0.049894 2.491018 -0.579165
v -0.567067 2.244810 -0.588184
v 0.027023 2.360564 -0.606513
v -0.073153 2.165000 -0.700662
v 0.002341 2.224693 -0.600084
v -0.536883 2.359621 -0.479665
v 0.004922 2.298163 -0.478730
v -0.465472 2.211453 -0.708503
v -0.458382 2.410864 -0.374970
v -0.066075 2.366338 -0.369482
v -0.539653 2.281173 -0.611980
v -0.940227 -0.595906 -0.413172
v -0.726090 -0.665695 0.508357
v -0.961490 -0.577489 -0.106646
v -0.771326 -0.664979 0.203672
v -1.047680 -0.844742 0.372282
v -0.872072 -0.896879 0.446768
v -1.240695 -0.695176 -0.003260
v -1.198702 -0.764964 0.194979
v -1.025125 -0.543391 -0.144554
v -0.660099 -0.736308 0.311933
v -0.878926 -0.544188 -0.012727
v -0.738439 -0.622073 0.167198
v -0.747780 0.245960 -0.344823
v -0.721789 0.487644 0.610315
v -0.916649 0.312869 -0.059345
v -0.898319 0.413277 0.312355
v -0.795933 -0.432436 -0.422459
v -0.647512 -0.450137 0.521125
v -0.904274 -0.432729 -0.115162
v -0.817383 -0.452864 0.244165
v -0.945764 -0.181088 2.344994
v -0.861457 -0.229579 2.288027
v -1.075400 0.013737 2.433361
v -1.030371 -0.084865 2.402468
v -0.933860 0.120459 2.463048
v -0.719917 -0.122857 2.317713
v -0.823585 0.071053 2.445839
v -0.738977 -0.025170 2.388365
v -1.185196 0.844406 1.068483
v -1.414204 0.677831 1.050776
v -1.357332 0.518505 1.029011
v -1.022107 0.765784 1.070655
v -0.834050 0.479086 0.931421
v -1.062958 0.313454 0.916873
v -1.218864 0.370520 0.962733
v -0.883844 0.618453 1.003494
v -1.171946 0.633212 0.710966
v -1.037028 0.621771 0.791242
v -1.049769 0.328828 1.101857
v -1.363183 0.516422 0.814106
v -1.315856 0.449190 0.944005
v -0.858866 0.446224 0.996302
v -1.192316 0.377365 1.058402
v -0.912970 0.547334 0.905769
v -0.567158 -1.221580 0.586384
v -0.776138 -1.232755 -0.499443
v -0.855362 -1.213964 -0.234396
v -0.690886 -1.280818 0.253320
v -0.397009 -0.570419 -0.538641
v -0.310359 -0.587043 0.530871
v -0.270673 -0.360560 0.564865
v -0.320976 -0.374735 -0.516321
v -0.314703 -0.012375 -0.456317
v -0.276376 0.051086 0.578157
v -0.252016 -1.439765 0.509219
v -0.422974 -2.454253 0.466588
v -0.561262 -1.431602 -0.592589
v -0.748866 -1.332270 -0.258573
v -0.592435 -1.350131 0.245183
v -0.444701 -2.219994 0.495299
v -0.521418 -2.260169 -0.555434
v -0.712144 -2.221357 -0.320238
v -0.673363 -2.221357 0.252164
v -0.488262 -2.498087 -0.436296
v -0.652995 -2.498087 -0.258774
v -0.619544 -2.498087 0.213774
v -0.438795 -1.832949 0.498797
v -0.664146 -1.830739 0.277892
v -0.708467 -1.830739 -0.338186
v -0.521914 -1.912064 -0.618568
v -0.396230 -2.594185 0.434243
v -0.412799 -2.594185 -0.221684
v -0.528763 -2.594185 -0.167864
v -0.499356 -2.594185 0.206010
v -0.434531 -1.333478 0.471585
v -0.470274 -2.498087 0.436234
v -0.489837 -1.830739 0.473731
v -0.495896 -2.221357 0.470036
v -1.144515 0.122162 2.236165
v -1.092418 0.002590 2.198753
v -0.718503 -0.041533 2.097573
v -0.991024 -0.112724 2.129875
v -0.743211 0.074128 2.181851
v -0.974893 0.250058 2.271741
v -0.844605 0.189443 2.250729
v -0.888125 -0.169428 2.061996
v -1.175097 0.118050 2.282240
v -1.148191 0.072516 2.374224
v -0.976444 -0.182726 2.244664
v -0.862036 -0.252926 2.179836
v -1.089609 -0.054024 2.321538
v -0.958878 0.215260 2.413930
v -0.672723 -0.110183 2.219542
v -0.813026 0.154521 2.379549
v -0.699862 0.025819 2.302674
v -1.116274 -0.015327 2.226933
v -0.680080 -0.072160 2.121199
v -0.998457 -0.149319 2.146898
v -0.710503 0.067799 2.207294
v -0.978000 0.266662 2.323579
v -0.828321 0.201792 2.287328
v -0.877177 -0.220772 2.079860
v -0.563306 1.948024 -1.537553
v -0.528847 2.375974 -1.413720
v -0.189932 2.361220 -1.451755
v -0.628385 2.069441 -1.546583
v -0.224419 1.932305 -1.575448
v -0.141553 2.048764 -1.602426
v -0.600695 2.260862 -1.388322
v -0.113942 2.237445 -1.443766
v -0.222540 2.837588 -1.985220
v -0.277890 2.952346 -1.994532
v -0.511183 2.962634 -1.966580
v -0.562175 2.853229 -1.944622
v -0.497889 3.000820 -1.778988
v -0.246794 2.990110 -1.806526
v -0.551979 2.884891 -1.755712
v -0.191405 2.867284 -1.796074
v -0.568745 2.397596 -1.879118
v -0.636475 2.288961 -1.855159
v -0.210530 2.432190 -1.651696
v -0.549444 2.446945 -1.613661
v -0.621292 2.331833 -1.588263
v -0.253755 2.383545 -1.916834
v -0.177897 2.267843 -1.909974
v -0.134539 2.308416 -1.643706
v 0.827733 -1.153144 -0.548854
v 0.668092 1.156421 -0.348055
v 0.781137 -1.073687 0.392005
v 0.678819 0.634949 0.413311
v -0.007654 1.049986 -0.411532
v 0.029374 -1.199352 0.569932
v 0.015967 0.996806 0.440472
v -0.034221 -1.260804 -0.655100
v 0.963026 -1.089318 -0.285556
v 0.957236 -1.019437 0.053442
v 0.861562 0.784447 0.184006
v 0.858187 1.010369 -0.110569
v 0.009417 1.126862 -0.136322
v 0.015877 1.086616 0.214932
v 0.812878 1.192913 0.122065
v 0.708652 1.301632 -0.016267
v 0.166136 1.234195 -0.102409
v 0.172997 0.971047 0.397757
v 0.713735 0.941672 0.444831
v 0.090114 1.066857 0.218156
v 0.814888 1.050560 0.304415
v 0.087332 1.147669 0.046472
v 0.643096 3.171924 1.824750
v 0.576939 3.246060 1.740527
v 0.259400 3.244128 1.742246
v 0.263035 2.996736 2.022974
v 0.580565 2.999277 2.020566
v 0.182228 3.071073 1.938501
v 0.644530 3.074329 1.935496
v 0.180794 3.168668 1.827755
v 0.217186 2.312664 0.851190
v 0.645391 2.323754 0.856343
v 0.137194 2.214149 0.966844
v 0.649892 2.013841 1.218596
v 0.731993 2.108046 1.108556
v 0.221696 2.002292 1.214556
v 0.730211 2.230634 0.965331
v 0.138854 2.099973 1.100315
v 0.234918 2.208239 0.788430
v 0.162538 2.121033 0.898026
v 0.709776 2.026993 1.030789
v 0.163959 2.020846 1.023794
v 0.630270 2.217606 0.792253
v 0.634147 1.944456 1.135354
v 0.238805 1.934277 1.132284
v 0.708244 2.134998 0.895081
v 0.815779 -0.753680 -0.613873
v 0.810119 -0.602099 0.257604
v -0.025313 -0.518571 -0.568130
v 0.025641 -0.518571 0.568099
v 0.886850 -0.819074 -0.439884
v 0.774407 -0.684473 -0.158791
v 1.070703 -0.615364 -0.171208
v 0.919515 -0.554435 -0.061424
v 1.181378 -0.946070 -0.431874
v 1.180297 -0.780430 -0.313316
v 0.932044 -0.989883 -0.542169
v 0.675268 -0.610710 -0.167664
v 0.811058 -0.871383 -0.474858
v 0.713563 -0.715862 -0.324932
v 0.682478 0.609822 -0.661330
v 0.711243 0.191744 0.193339
v -0.020954 0.446950 -0.509838
v 0.012438 0.422941 0.493068
v 0.859266 0.444823 -0.443666
v 0.864117 0.270598 -0.117696
v 0.680399 -0.479837 -0.632312
v 0.712797 -0.455296 0.277706
v -0.025027 -0.347923 -0.559310
v 0.025129 -0.347923 0.559300
v 0.829008 -0.529629 -0.433867
v 0.819158 -0.497756 -0.096688
v 1.210975 1.792857 -1.363534
v 1.128822 1.780398 -1.287376
v 1.315760 1.764155 -1.588851
v 1.284902 1.786433 -1.482757
v 1.163852 1.778599 -1.683823
v 0.976914 1.794842 -1.382348
v 1.062968 1.807534 -1.621510
v 0.989041 1.813958 -1.502287
v 1.057805 0.205232 -1.781264
v 1.306420 0.199846 -1.633667
v 1.275592 0.252751 -1.461022
v 0.913085 0.269936 -1.680408
v 0.758172 0.289833 -1.317970
v 1.006934 0.286297 -1.171223
v 1.156541 0.279127 -1.274614
v 0.794010 0.295706 -1.494334
v 1.030138 -0.046912 -1.572721
v 0.911312 0.051394 -1.527314
v 1.010463 0.328297 -1.186433
v 1.249008 0.018643 -1.472137
v 1.231126 0.148631 -1.379321
v 0.791505 0.261200 -1.287193
v 1.136857 0.271231 -1.267855
v 0.817001 0.174324 -1.414233
v 0.676064 -1.157624 0.479675
v 0.664603 -1.255346 -0.602581
v 0.783324 -1.218172 -0.380323
v 0.734424 -1.230187 0.113701
v 0.331921 -0.609580 -0.538608
v 0.371297 -0.567855 0.504564
v 0.315923 -0.377558 0.465706
v 0.261338 -0.367762 -0.561720
v -0.023896 0.060978 -0.539919
v 0.017000 0.041417 0.528404
v 0.258433 0.096543 -0.600642
v 0.301853 -0.013279 0.402771
v 0.306116 -1.439765 0.477886
v 0.027755 -1.284791 0.553106
v 0.456387 -2.454253 0.433961
v -0.033013 -1.436687 -0.674839
v 0.019146 -2.538754 0.516023
v 0.473079 -1.436850 -0.643762
v 0.682846 -1.327467 -0.372628
v 0.633470 -1.314379 0.137835
v 0.482260 -2.219994 0.458624
v 0.020410 -2.221357 0.550095
v -0.021849 -2.260169 -0.588880
v 0.474286 -2.260169 -0.595896
v 0.681215 -2.221357 -0.380828
v 0.692096 -2.221357 0.193791
v -0.017275 -2.498087 -0.465602
v 0.454106 -2.498087 -0.471706
v 0.630832 -2.498087 -0.308662
v 0.633942 -2.498087 0.166088
v 0.482497 -1.832949 0.456000
v 0.688913 -1.830739 0.206356
v 0.666499 -1.830739 -0.413025
v -0.025194 -1.912064 -0.654862
v 0.462066 -1.912064 -0.663775
v 0.020759 -1.830739 0.553308
v 0.427320 -2.594185 0.403687
v 0.018276 -2.634852 0.492585
v 0.006553 -2.634852 0.176624
v -0.009066 -2.634852 -0.244359
v -0.001948 -2.634852 -0.052511
v 0.395236 -2.594185 -0.251664
v 0.514870 -2.594185 -0.206586
v 0.513249 -2.594185 0.168439
v 0.501330 -1.309471 0.412779
v 0.501308 -2.498087 0.400185
v 0.531958 -1.830739 0.425060
v 0.531793 -2.221357 0.428740
v 0.026009 -1.438520 0.529387
v 0.019371 -2.493559 0.522095
v 1.332016 1.530059 -1.607650
v 1.297039 1.556566 -1.479255
v 0.925943 1.566833 -1.360178
v 1.208444 1.564265 -1.336378
v 0.942478 1.589552 -1.502660
v 1.149970 1.547368 -1.721465
v 1.031074 1.581854 -1.645537
v 1.107990 1.549524 -1.246362
v 1.369760 1.565903 -1.626773
v 1.366446 1.671891 -1.623038
v 1.225123 1.697667 -1.321717
v 1.116412 1.693616 -1.219807
v 1.324003 1.689075 -1.481181
v 1.163266 1.691209 -1.750067
v 0.913231 1.712934 -1.346836
v 1.027161 1.717299 -1.666767
v 0.928281 1.725891 -1.507303
v 1.327898 1.583573 -1.477630
v 0.897912 1.608634 -1.339216
v 1.224953 1.592517 -1.311609
v 0.915906 1.621902 -1.504825
v 1.158226 1.586015 -1.759024
v 1.018852 1.612957 -1.670845
v 1.109446 1.588521 -1.206964
v 0.591613 3.048290 1.551219
v 0.595732 2.640309 1.733438
v 0.254404 2.635668 1.734336
v 0.661793 2.969732 1.640467
v 0.250275 3.044294 1.551385
v 0.171382 2.963447 1.643006
v 0.663590 2.719840 1.643294
v 0.173151 2.715387 1.643756
v 0.250219 2.620296 2.450113
v 0.310353 2.545813 2.534721
v 0.545523 2.547773 2.532847
v 0.592612 2.622707 2.447887
v 0.556568 2.396982 2.414668
v 0.303774 2.392965 2.414990
v 0.606524 2.476387 2.324640
v 0.243290 2.472830 2.324275
v 0.581627 2.926994 2.102587
v 0.645592 3.002047 2.017518
v 0.255186 2.712470 1.933183
v 0.596514 2.717111 1.932286
v 0.664371 2.796641 1.842141
v 0.264098 2.924454 2.104996
v 0.183290 2.998791 2.020523
v 0.173933 2.792188 1.842602
vn -0.1074 -0.0336 0.9937
vn 0.6169 0.3933 -0.6817
vn -0.7961 0.1103 -0.5951
vn -0.4923 -0.7966 0.3507
vn -0.7974 0.4970 0.3424
vn -0.5615 -0.8146 0.1455
vn -0.3618 0.9035 -0.2299
vn -0.1513 -0.1882 0.9704
vn -0.8621 -0.4786 -0.1662
vn 0.2098 0.4514 0.8673
vn -0.2235 -0.0316 -0.9742
vn 0.0058 0.3088 0.9511
vn 0.3229 0.9409 0.1019
vn -0.9639 0.2533 -0.0815
vn 0.0880 0.7784 0.6216
vn 0.5228 0.7921 0.3152
vn -0.2646 0.7612 -0.5920
vn -0.8402 0.3478 0.4159
vn 0.8396 -0.2460 -0.4842
vn -0.0186 -0.3174 -0.9481
vn -0.8498 0.0165 -0.5269
vn 0.9983 -0.0571 -0.0088
vn -0.9804 0.1885 -0.0565
vn 0.8716 0.1723 0.4589
vn -0.2127 0.1919 -0.9581
vn -0.8984 0.3691 0.2379
vn -0.7317 0.6312 -0.2574
vn -0.8220 0.2699 0.5015
vn 0.0246 0.0772 0.9967
vn -0.4584 -0.4436 0.7701
vn -0.7949 -0.5880 0.1492
vn -0.9542 -0.0151 -0.2986
vn -0.5962 -0.7982 0.0866
vn 0.3293 -0.7453 -0.5798
vn -0.8253 0.2531 0.5047
vn -0.8246 -0.0133 -0.5656
vn -0.9967 0.0800 -0.0142
vn 0.0346 0.4166 0.9084
vn 0.0133 0.1606 -0.9869
vn -0.0821 -0.1338 0.9876
vn -0.8414 -0.1168 0.5276
vn -0.8579 0.0242 -0.5132
vn -0.9922 -0.0987 0.0756
vn 0.4624 0.5450 -0.6994
vn -0.9717 -0.1916 0.1384
vn -0.6145 0.4123 -0.6725
vn 0.6569 -0.2791 0.7004
vn -0.7368 -0.4051 0.5414
vn -0.4018 -0.4840 0.7774
vn 0.9175 0.3032 -0.2573
vn 0.7979 0.4025 -0.4488
vn -0.2867 0.0462 -0.9569
vn -0.0460 -0.0423 0.9980
vn -0.0641 0.0538 0.9965
vn -0.1481 0.0513 -0.9876
vn -0.0947 0.1170 -0.9886
vn -0.6993 -0.7047 -0.1198
vn -0.5601 -0.8261 0.0616
vn -0.7491 -0.6378 -0.1787
vn -0.1772 0.1243 -0.9763
vn 0.1652 0.0963 0.9815
vn 0.1662 -0.0295 0.9857
vn -0.2933 0.0765 -0.9530
vn -0.0657 -0.1782 -0.9818
vn -0.9972 0.0188 0.0717
vn -0.1906 0.2399 -0.9519
vn -0.4101 -0.8431 0.3480
vn -0.0595 -0.4536 -0.8892
vn -0.9774 -0.1997 0.0692
vn -0.7006 -0.2941 -0.6501
vn -0.7470 0.0053 0.6648
vn -0.8348 -0.0174 -0.5503
vn -0.2444 -0.8142 -0.5266
vn -0.7428 -0.5793 0.3356
vn -0.1579 -0.2326 0.9597
vn -0.7669 -0.1473 0.6247
vn -0.8709 0.0079 -0.4915
vn -0.8198 0.0936 0.5649
vn -0.9410 0.1607 0.2979
vn -0.1533 0.0408 -0.9873
vn -0.0783 -0.9969 0.0062
vn -0.0520 -0.9923 -0.1121
vn -0.0780 -0.9963 0.0353
vn -0.6218 -0.7816 0.0489
vn -0.0250 -0.9156 -0.4012
vn -0.1779 0.0427 0.9831
vn -0.4425 -0.0016 0.8968
vn -0.4328 -0.1487 0.8891
vn -0.4274 0.1795 0.8861
vn -0.1349 -0.1313 0.9821
vn 0.4042 0.1192 0.9069
vn 0.8993 0.3738 -0.2269
vn 0.7959 0.5128 -0.3217
vn 0.7212 -0.6484 0.2436
vn 0.8186 -0.1502 0.5544
vn 0.7370 -0.6735 0.0566
vn -0.5241 0.8281 -0.1988
vn 0.1505 -0.5384 0.8291
vn 0.5191 -0.8526 -0.0601
vn 0.9443 -0.1426 -0.2966
vn -0.1472 0.0221 -0.9889
vn 0.2379 -0.4178 0.8768
vn -0.4857 0.8674 0.1083
vn 0.9873 0.1312 0.0893
vn 0.3027 0.4934 0.8154
vn 0.2253 0.9052 0.3604
vn -0.0941 0.8776 -0.4701
vn 0.8659 -0.2352 0.4414
vn -0.9006 0.3262 -0.2871
vn 0.0336 0.6732 -0.7387
vn 0.8573 0.3801 -0.3472
vn -0.9983 0.0446 0.0372
vn 0.9963 0.0730 0.0460
vn -0.9259 -0.1994 0.3209
vn -0.2035 -0.1519 -0.9672
vn 0.9399 0.1818 0.2889
vn 0.7886 0.3561 -0.5012
vn 0.9746 -0.2203 -0.0400
vn 0.1364 0.0287 0.9902
vn 0.8588 0.1874 0.4767
vn 0.8164 -0.5626 0.1299
vn 0.2883 -0.1454 -0.9464
vn -0.5960 -0.7764 0.2047
vn -0.3384 -0.8943 0.2929
vn 0.8963 -0.2213 0.3844
vn 0.8262 0.2963 -0.4791
vn 1.0000 0.0060 -0.0069
vn -0.1017 -0.5988 0.7944
vn -0.2433 0.1613 -0.9564
vn 0.2098 0.2538 0.9442
vn 0.9008 -0.0409 0.4324
vn 0.7692 -0.0185 -0.6387
vn 0.9990 -0.0313 -0.0316
vn -0.7325 -0.4661 -0.4962
vn 0.9988 -0.0240 0.0427
vn 0.3914 -0.6873 -0.6119
vn -0.4058 0.7347 0.5437
vn 0.8929 0.3222 0.3144
vn 0.6152 0.5953 0.5168
vn -0.9799 -0.0946 -0.1754
vn -0.9110 -0.2728 -0.3094
vn -0.0051 0.0474 -0.9989
vn 0.4919 0.2104 0.8449
vn 0.5097 0.2284 0.8295
vn -0.0048 0.0516 -0.9987
vn 0.1107 0.1144 -0.9873
vn 0.5620 -0.8106 -0.1647
vn 0.5696 -0.8211 0.0364
vn 0.7008 -0.6629 -0.2635
vn -0.1104 -0.0262 -0.9935
vn 0.4176 0.0899 0.9042
vn 0.3177 0.1733 0.9322
vn -0.2258 0.0717 -0.9715
vn -0.0180 -0.1864 -0.9823
vn 0.9987 0.0346 -0.0361
vn 0.0730 0.1468 -0.9865
vn 0.6548 -0.7146 0.2461
vn -0.0125 -0.4619 -0.8869
vn 0.9828 -0.1838 -0.0186
vn 0.7007 -0.3759 -0.6064
vn 0.8124 0.0051 0.5830
vn 0.7784 -0.0224 -0.6274
vn 0.2917 -0.9027 -0.3162
vn 0.5909 -0.7340 0.3348
vn 0.2430 -0.1522 0.9580
vn 0.8170 -0.1475 0.5574
vn 0.7860 0.0241 -0.6178
vn 0.8919 0.1523 0.4259
vn 0.9945 -0.0401 0.0972
vn 0.0613 0.0406 -0.9973
vn 0.0785 -0.9969 0.0003
vn 0.1000 -0.9950 -0.0037
vn 0.0981 -0.9952 -0.0036
vn 0.6359 -0.7718 -0.0042
vn -0.0052 -0.9159 -0.4014
vn 0.1781 -0.1520 0.9722
vn 0.5167 0.0055 0.8562
vn 0.5081 -0.1455 0.8489
vn 0.5153 0.1846 0.8369
vn 0.2073 -0.1313 0.9694
vn -0.0227 -0.0964 0.9951
vn 0.4811 0.8764 -0.0193
vn -0.8114 0.1521 -0.5643
vn -0.5513 -0.7618 0.3403
vn -0.7729 0.4814 0.4133
vn -0.7195 -0.6782 0.1497
vn 0.0025 0.9848 -0.1738
vn 0.0456 -0.6885 0.7238
vn -0.8615 -0.5077 0.0038
vn -0.9534 -0.1171 -0.2782
vn -0.4168 0.1859 -0.8898
vn 0.1647 0.0890 0.9823
vn -0.3690 0.9182 -0.1440
vn -0.9643 0.2525 -0.0796
vn 0.0757 0.7957 0.6010
vn 0.5717 0.8194 -0.0411
vn 0.1429 0.1908 -0.9712
vn -0.8224 0.3600 0.4404
vn 0.9104 -0.1849 -0.3702
vn 0.1171 -0.2811 -0.9525
vn -0.8024 -0.0284 -0.5961
vn 0.9986 -0.0518 0.0101
vn -0.9813 0.1739 -0.0826
vn 0.9031 0.1366 0.4072
vn -0.2292 0.1476 -0.9621
vn -0.8530 -0.2704 0.4465
vn -0.9283 0.3618 -0.0861
vn -0.9613 -0.2359 0.1422
vn -0.1105 0.0021 0.9939
vn -0.7098 -0.3070 0.6340
vn -0.7605 -0.4881 0.4282
vn -0.6413 0.2291 -0.7323
vn 0.1924 -0.7170 -0.6700
vn 0.7649 -0.3200 -0.5590
vn -0.8637 0.2044 0.4607
vn -0.8636 -0.0336 -0.5030
vn -0.9932 0.1153 0.0178
vn -0.0115 0.4380 0.8989
vn -0.1653 -0.1958 -0.9666
vn 0.0166 0.0515 0.9985
vn -0.8458 -0.1200 0.5199
vn -0.9380 0.1044 -0.3306
vn -0.9719 -0.0336 0.2331
vn 0.5701 0.5285 -0.6290
vn -0.9466 -0.2305 0.2256
vn -0.6761 0.3639 -0.6407
vn 0.6020 -0.3218 0.7308
vn -0.7825 -0.3727 0.4988
vn -0.4593 -0.4696 0.7540
vn 0.9288 0.2868 -0.2347
vn 0.7365 0.4488 -0.5061
vn -0.1563 0.1640 -0.9740
vn -0.0828 -0.1337 0.9876
vn -0.3080 0.2059 0.9288
vn -0.0991 0.1507 -0.9836
vn -0.2029 0.0583 -0.9775
vn -0.6706 -0.7268 -0.1489
vn -0.5741 -0.8147 0.0819
vn -0.7106 -0.6750 -0.1984
vn -0.2103 0.1633 -0.9639
vn 0.1695 0.0929 0.9812
vn 0.0154 0.0794 0.9967
vn -0.2302 0.0339 -0.9726
vn -0.0716 -0.1864 -0.9799
vn -0.9976 0.0125 0.0676
vn -0.1519 0.1092 -0.9823
vn -0.5240 -0.7835 0.3340
vn -0.0551 -0.4602 -0.8861
vn -0.9787 -0.1945 0.0663
vn -0.7488 -0.3772 -0.5450
vn -0.7751 -0.0233 0.6314
vn -0.7808 -0.1126 -0.6146
vn -0.3158 -0.9024 -0.2930
vn -0.5632 -0.7349 0.3779
vn -0.1713 -0.1522 0.9734
vn -0.8077 -0.2323 0.5419
vn -0.8371 -0.0391 -0.5456
vn -0.7380 0.1548 0.6568
vn -0.9932 -0.0919 0.0715
vn -0.0728 -0.0431 -0.9964
vn -0.0800 -0.9968 0.0030
vn -0.1000 -0.9950 0.0037
vn -0.0981 -0.9952 0.0036
vn -0.6315 -0.7741 0.0447
vn -0.1145 -0.8469 -0.5193
vn -0.0708 -0.1513 0.9859
vn -0.4409 -0.0014 0.8976
vn -0.4344 -0.1492 0.8883
vn -0.1878 0.0251 0.9819
vn -0.1799 -0.4214 0.8889
vn 0.4488 0.1689 0.8775
vn -0.0348 -0.5202 0.8533
vn 0.8327 0.5027 -0.2323
vn 0.6999 -0.6664 0.2572
vn 0.8409 -0.0937 0.5331
vn 0.6498 -0.7556 0.0822
vn -0.5809 0.7987 0.1567
vn 0.2697 -0.1910 0.9438
vn 0.6794 -0.4241 0.5987
vn -0.4228 0.6574 0.6238
vn 0.3862 -0.1369 -0.9122
vn 0.0900 0.0904 0.9918
vn 0.2175 0.8845 0.4128
vn 0.9870 0.1316 0.0918
vn -0.0913 -0.0915 0.9916
vn 0.2466 0.8977 0.3651
vn -0.0513 0.9172 -0.3952
vn 0.8662 -0.2350 0.4410
vn -0.8860 0.3422 -0.3129
vn -0.0084 0.6613 -0.7500
vn 0.8582 0.3791 -0.3462
vn -0.9982 0.0405 0.0435
vn 0.9963 0.0725 0.0465
vn -0.8787 -0.2501 0.4067
vn -0.1990 -0.1634 -0.9663
vn 0.9671 -0.2490 0.0518
vn 0.9316 0.1926 -0.3082
vn 0.8314 0.5270 0.1764
vn 0.1813 0.0036 0.9834
vn 0.6312 0.2339 0.7395
vn 0.8297 0.0746 0.5532
vn 0.4276 -0.2375 -0.8722
vn -0.5790 -0.7359 0.3511
vn 0.1065 -0.6547 0.7484
vn 0.8258 -0.2011 0.5270
vn 0.8379 0.2782 -0.4696
vn 0.9999 0.0104 -0.0093
vn 0.0082 -0.5667 0.8239
vn 0.0032 0.4973 -0.8676
vn 0.3106 0.0499 0.9492
vn 0.9624 0.0374 0.2692
vn 0.7963 -0.0308 -0.6041
vn 0.9978 -0.0574 0.0346
vn -0.6505 -0.5393 -0.5348
vn 0.9927 0.0633 0.1025
vn 0.4654 -0.6746 -0.5730
vn -0.4590 0.7234 0.5157
vn 0.8690 0.3518 0.3480
vn 0.6068 0.5998 0.5215
vn -0.9862 -0.0695 -0.1504
vn -0.8697 -0.3271 -0.3697
vn -0.1995 -0.0831 -0.9764
vn 0.4558 0.3035 0.8367
vn 0.4919 0.2105 0.8448
vn 0.0627 -0.0768 -0.9951
vn 0.0732 0.1356 -0.9881
vn 0.6230 -0.7708 -0.1333
vn 0.7007 -0.6963 0.1555
vn 0.6927 -0.6707 -0.2653
vn -0.1871 -0.0832 -0.9788
vn 0.4162 0.0888 0.9049
vn 0.4151 0.0806 0.9062
vn -0.2190 0.0775 -0.9727
vn -0.0139 -0.1918 -0.9813
vn 0.9998 0.0088 -0.0189
vn 0.0609 0.1117 -0.9919
vn 0.5642 -0.7749 0.2850
vn -0.0115 -0.4602 -0.8877
vn 0.9787 -0.2050 -0.0064
vn 0.6467 -0.3006 -0.7010
vn 0.8260 -0.0114 0.5636
vn 0.7260 -0.1070 -0.6793
vn 0.2031 -0.8175 -0.5389
vn 0.7656 -0.5793 0.2797
vn 0.2286 -0.2326 0.9453
vn 0.8475 -0.2262 0.4802
vn 0.7736 0.0088 -0.6336
vn 0.8109 0.0614 0.5820
vn 0.9941 0.1020 -0.0360
vn -0.0183 -0.0423 -0.9989
vn 0.0800 -0.9968 -0.0030
vn 0.0436 -0.9923 -0.1157
vn 0.0804 -0.9963 0.0294
vn 0.6229 -0.7823 0.0027
vn 0.0757 -0.8469 -0.5263
vn 0.2861 0.0495 0.9569
vn 0.5301 0.0078 0.8479
vn 0.5016 -0.1433 0.8531
vn 0.2922 0.0397 0.9555
vn 0.2453 -0.4214 0.8731
vn -0.0725 0.0617 0.9955
vn -0.1170 -0.0072 0.9931
vn -0.1327 -0.1009 0.9860
vn 0.1808 0.0575 0.9818
vn 0.1943 0.0065 0.9809
vn 0.2054 -0.1009 0.9735
vn -0.1179 0.0297 0.9926
vn -0.1177 -0.0081 0.9930
vn -0.1164 -0.1315 0.9845
vn 0.2062 0.0381 0.9778
vn 0.2062 -0.0082 0.9785
vn 0.1931 -0.1238 0.9733
vn -0.9903 0.1353 0.0308
vn 0.7901 -0.6110 -0.0481
vn -0.0347 -0.9939 0.1044
vn -0.1239 -0.1395 -0.9825
vn -0.8797 -0.4629 0.1091
vn 0.9894 -0.0245 -0.1430
vn -0.9980 0.0361 0.0519
vn 0.1190 0.2738 0.9544
vn 0.8613 0.4048 0.3071
vn 0.7338 -0.1150 0.6696
vn 0.9811 -0.1742 0.0846
vn 0.7571 0.3743 0.5355
vn 0.0795 0.8635 0.4980
vn 0.5937 -0.5120 0.6207
vn -0.7271 0.5075 0.4624
vn 0.0879 0.6546 0.7509
vn 0.5051 0.7244 -0.4692
vn -0.7847 -0.4809 0.3911
vn 0.3234 0.8437 -0.4285
vn 0.2366 -0.5387 0.8086
vn 0.0189 -0.2911 0.9565
vn 0.1298 -0.4218 0.8973
vn 0.3911 0.5027 0.7710
vn -0.4317 -0.8813 0.1925
vn -0.8205 -0.1312 -0.5563
vn 0.7619 0.3410 0.5507
vn -0.5379 0.7930 -0.2862
vn 0.7386 0.4210 -0.5265
vn -0.9071 -0.1146 -0.4050
vn 0.3004 0.9418 -0.1507
vn -0.6371 -0.7197 0.2760
vn -0.5363 0.8434 -0.0319
vn -0.5009 0.7369 -0.4539
vn -0.9402 -0.3395 0.0289
vn 0.3952 0.8077 -0.4374
vn 0.7892 0.5880 0.1774
vn 0.9481 0.3147 0.0465
vn -0.5760 -0.7889 -0.2142
vn -0.7508 -0.6502 -0.1167
vn 0.6056 -0.6959 -0.3859
vn -0.5489 0.7073 0.4453
vn -0.9382 -0.3421 0.0531
vn 0.4412 0.8308 0.3394
vn 0.4295 0.8306 0.3545
vn -0.9048 -0.4221 0.0557
vn -0.5879 0.6433 0.4904
vn 0.6119 -0.7212 -0.3246
vn -0.7641 -0.6433 -0.0478
vn -0.5759 -0.8045 -0.1452
vn 0.9781 0.2081 0.0073
vn 0.7885 0.5906 0.1720
vn 0.9248 -0.0873 0.3702
vn -0.6660 -0.7142 0.2153
vn 0.7039 0.4769 -0.5265
vn -0.4233 0.3262 0.8452
vn -0.6197 -0.2240 -0.7522
vn 0.5702 -0.8036 0.1704
vn -0.6882 -0.1864 -0.7011
vn 0.3662 -0.2352 -0.9003
vn 0.0244 0.9860 -0.1649
vn 0.8221 0.5289 -0.2106
vn -0.9932 0.1074 0.0439
vn 0.9862 -0.0048 -0.1653
vn -0.8751 -0.4573 0.1581
vn -0.0436 -0.9823 0.1822
vn 0.8128 -0.5813 -0.0381
vn -0.8522 0.5209 -0.0497
vn -0.9078 0.4189 -0.0212
vn 0.8952 0.3845 -0.2253
vn 0.0198 0.9794 -0.2008
vn -0.1548 0.3040 0.9400
vn 0.4299 0.2673 0.8624
vn 0.9842 0.0542 -0.1685
vn -0.1140 -0.1442 -0.9830
vn 0.9875 -0.0858 -0.1322
vn 0.8451 0.5253 0.0994
vn -0.7865 0.5520 0.2770
vn 0.0776 0.9420 0.3264
vn -0.9981 0.0360 0.0510
vn 0.9934 -0.0069 0.1145
vn -0.8391 0.3953 -0.3737
vn -0.0084 0.6911 -0.7227
vn -0.0010 0.7502 0.6612
vn 0.8592 0.3858 -0.3361
vn -0.9992 -0.0070 0.0392
vn 0.9984 0.0078 0.0557
vn 0.0099 -0.8335 -0.5524
vn -0.8545 -0.4748 0.2106
vn 0.9832 -0.1374 -0.1204
vn -0.9769 -0.1725 -0.1264
vn 0.8470 0.1743 -0.5022
vn 0.0148 -0.7691 0.6389
vn -0.8693 0.1182 -0.4800
vn 0.8492 -0.4678 0.2450
vn -0.0039 0.5146 -0.8574
vn -0.6953 -0.5978 -0.3989
vn 0.9105 0.3687 0.1874
vn -0.5339 -0.6499 -0.5409
vn -0.0042 0.9876 0.1570
vn 0.1860 0.9711 -0.1498
vn 0.0924 0.9957 0.0036
vn -0.3332 0.5250 -0.7832
vn 0.5911 0.3964 0.7025
vn 0.6152 -0.7220 0.3166
vn -0.7136 0.5191 -0.4704
vn 0.3339 -0.6927 -0.6393
vn -0.8706 -0.3750 -0.3184
vn -0.7559 -0.6011 0.2594
vn -0.5980 -0.2280 -0.7684
vn 0.4367 -0.3979 0.8069
vn -0.4757 0.3248 0.8174
vn 0.4668 -0.6663 -0.5815
vn 0.9288 -0.1221 0.3499
vn -0.6216 -0.4576 -0.6358
vn -0.8333 0.0894 -0.5456
vn -0.9735 0.1215 -0.1938
vn 0.5686 0.0034 0.8226
vn 0.8424 -0.0063 0.5389
vn -0.5048 0.0947 0.8580
vn 0.5105 0.0033 -0.8598
vn 0.9830 -0.0225 0.1824
vn -0.5475 0.0747 -0.8335
vn -0.5186 0.0972 -0.8494
vn 0.9632 0.0207 0.2679
vn 0.5327 0.0464 -0.8450
vn -0.5156 0.1375 0.8457
vn 0.8500 0.0490 0.5244
vn 0.6698 0.0462 0.7411
vn -0.9858 0.1378 -0.0961
vn -0.8445 0.0879 -0.5284
vn -0.8233 0.5676 0.0072
vn 0.8093 0.3329 0.4839
vn -0.7528 -0.6309 -0.1880
vn 0.4863 0.5258 -0.6979
vn 0.5225 -0.7140 0.4661
vn -0.3817 0.6012 0.7020
vn 0.5904 -0.6989 0.4037
vn -0.4560 -0.6240 0.6345
vn 0.0098 -0.6347 0.7727
vn -0.8754 -0.2916 0.3855
vn 0.9964 0.0699 0.0475
vn -0.9991 0.0255 0.0342
vn 0.8582 0.3871 -0.3372
vn -0.0092 0.6916 -0.7222
vn -0.8835 0.3442 -0.3179
vn 0.8680 -0.2683 0.4179
vn 0.9206 -0.1969 0.3372
vn -0.8929 -0.2532 0.3724
vn 0.0108 -0.6163 0.7874
vn 0.2813 -0.8147 -0.5070
vn -0.2378 -0.8250 -0.5127
vn -0.9927 -0.0497 0.1100
vn -0.0080 0.7479 0.6638
vn -0.9994 0.0327 -0.0087
vn -0.7971 -0.5622 0.2203
vn 0.8430 -0.5029 0.1909
vn 0.0136 -0.9328 0.3602
vn 0.9959 0.0833 -0.0361
vn -0.9903 0.1346 0.0347
vn 0.8052 -0.5889 -0.0689
vn -0.0345 -0.9940 0.1040
vn -0.8795 -0.4633 0.1089
vn 0.9870 -0.0505 -0.1526
vn -0.9938 0.0855 0.0705
vn 0.1164 0.2726 0.9551
vn 0.8372 0.4202 0.3500
vn -0.9561 -0.2428 0.1640
vn 0.7810 -0.1128 0.6143
vn 0.7404 -0.1262 0.6602
vn 0.0896 0.8530 0.5141
vn -0.8400 0.2594 0.4766
vn -0.7971 0.4842 0.3607
vn 0.0706 0.7138 0.6968
vn -0.7510 -0.5181 0.4094
vn 0.3269 0.9055 -0.2705
vn 0.3639 0.5506 0.7513
vn -0.4192 -0.8966 0.1428
vn -0.7258 -0.1034 -0.6801
vn 0.5701 0.7175 -0.4002
vn 0.9130 0.1483 -0.3800
vn 0.3484 0.9317 -0.1023
vn 0.6395 0.7336 -0.2299
vn -0.5843 0.7919 0.1776
vn -0.6316 0.5704 -0.5252
vn -0.8422 -0.5385 0.0281
vn 0.3471 0.8131 -0.4674
vn 0.7577 0.6241 0.1908
vn 0.9755 0.2194 -0.0151
vn -0.4048 -0.8631 -0.3021
vn -0.7771 -0.6205 -0.1052
vn 0.5572 -0.7363 -0.3839
vn -0.5963 0.6662 0.4479
vn -0.9132 -0.4065 0.0275
vn 0.4034 0.8464 0.3476
vn 0.4434 0.8162 0.3705
vn -0.8937 -0.4431 0.0706
vn -0.5690 -0.8040 -0.1724
vn 0.9783 0.2064 -0.0183
vn 0.9024 -0.0789 0.4236
vn 0.5738 0.5588 -0.5987
vn -0.6075 -0.3734 -0.7010
vn 0.0542 0.9864 -0.1554
vn 0.8384 0.5009 -0.2148
vn -0.9988 0.0234 0.0424
vn 0.9862 -0.0053 -0.1653
vn -0.8133 -0.5608 0.1547
vn -0.0246 -0.9820 0.1874
vn 0.8101 -0.5851 -0.0376
vn -0.7991 0.5992 -0.0500
vn -0.9076 0.4193 -0.0210
vn 0.8871 0.4108 -0.2105
vn 0.0192 0.9796 -0.2000
vn -0.2416 0.2981 0.9234
vn 0.3614 0.2793 0.8896
vn 0.9838 0.0546 -0.1705
vn -0.1168 -0.1364 -0.9838
vn 0.9869 -0.0505 -0.1530
vn -0.9953 -0.0315 0.0914
vn 0.9930 -0.0049 0.1179
vn -0.8229 0.4005 -0.4030
vn -0.0081 0.6909 -0.7229
vn 0.8595 0.3853 -0.3359
vn -0.9994 0.0191 0.0297
vn 0.9976 0.0577 0.0379
vn 0.0125 -0.8328 -0.5535
vn -0.8541 -0.4739 0.2142
vn 0.9810 -0.1412 -0.1331
vn -0.9747 -0.1757 -0.1381
vn 0.8454 0.1826 -0.5019
vn 0.0147 -0.7694 0.6386
vn -0.8663 0.1409 -0.4792
vn 0.8511 -0.4711 0.2317
vn -0.0031 0.5172 -0.8559
vn 0.8873 0.4074 0.2161
vn -0.5234 -0.5337 -0.6642
vn -0.3478 0.5679 -0.7461
vn 0.6083 0.4316 0.6661
vn 0.7318 -0.6217 0.2791
vn -0.8158 -0.3273 -0.4767
vn -0.9304 -0.3077 -0.1993
vn 0.4593 -0.5438 0.7023
vn 0.8450 0.0563 0.5317
vn 0.4753 -0.3346 -0.8137
vn 0.3943 -0.6110 -0.6864
vn 0.9703 -0.1202 0.2101
vn -0.6375 -0.4386 -0.6334
vn -0.8439 0.0934 -0.5283
vn -0.9889 0.1129 -0.0968
vn 0.6666 0.0089 0.7454
vn 0.8496 -0.0090 0.5273
vn -0.5215 0.0922 0.8482
vn 0.5305 0.0064 -0.8476
vn 0.9641 -0.0122 0.2652
vn -0.5225 0.0696 -0.8498
vn -0.5102 0.0741 -0.8569
vn 0.9586 0.0449 0.2814
vn 0.6809 0.0690 0.7291
vn -0.9898 0.1158 -0.0835
vn -0.7945 0.6067 -0.0255
vn -0.8527 -0.5051 -0.1331
vn 0.5457 -0.6056 0.5792
vn 0.0107 -0.6343 0.7730
vn -0.8283 -0.3292 0.4533
vn 0.9957 0.0082 0.0919
vn -0.9983 -0.0069 0.0582
vn 0.8592 0.3862 -0.3357
vn -0.0085 0.6918 -0.7220
vn -0.8396 0.3845 -0.3837
vn 0.8684 -0.2679 0.4173
vn 0.9208 -0.1964 0.3371
vn -0.8816 -0.2817 0.3786
vn 0.0114 -0.6169 0.7869
vn 0.3651 -0.7893 -0.4936
vn -0.3096 -0.8065 -0.5036
vn -0.9925 -0.0487 0.1117
vn -0.0111 0.7530 0.6579
vn -0.9994 0.0194 0.0300
vn 0.9976 0.0583 0.0385
usemtl color_1
s off
f 94//1 58//1 91//1
f 43//2 49//2 51//2
f 8//3 10//3 2//3
f 88//4 3//4 6//4
f 7//5 13//5 15//5
f 88//6 98//6 99//6
f 171//7 16//7 179//7
f 172//8 115//8 276//8
f 5//9 47//9 1//9
f 3//10 50//10 46//10
f 89//11 1//11 41//11
f 54//12 173//12 4//12
f 179//13 14//13 180//13
f 8//14 15//14 9//14
f 4//15 12//15 13//15
f 180//16 12//16 173//16
f 2//17 11//17 171//17
f 13//18 35//18 15//18
f 16//19 33//19 34//19
f 11//20 37//20 33//20
f 9//21 37//21 10//21
f 16//22 36//22 14//22
f 15//23 40//23 9//23
f 12//24 36//24 39//24
f 89//25 57//25 92//25
f 43//26 60//26 59//26
f 41//27 59//27 57//27
f 60//28 42//28 58//28
f 172//29 90//29 85//29
f 6//30 46//30 45//30
f 6//31 48//31 5//31
f 1//32 49//32 41//32
f 44//33 50//33 42//33
f 44//34 51//34 52//34
f 7//35 54//35 4//35
f 53//36 8//36 2//36
f 8//37 56//37 7//37
f 13//38 39//38 38//38
f 229//39 2//39 171//39
f 216//40 91//40 90//40
f 56//41 58//41 54//41
f 53//42 59//42 55//42
f 55//43 60//43 56//43
f 51//44 77//44 78//44
f 48//45 80//45 47//45
f 49//46 80//46 77//46
f 50//47 79//47 46//47
f 48//48 83//48 81//48
f 45//49 79//49 83//49
f 52//50 82//50 50//50
f 51//51 84//51 52//51
f 235//52 93//52 271//52
f 90//53 58//53 42//53
f 3//54 90//54 42//54
f 215//55 92//55 235//55
f 174//56 89//56 215//56
f 1//57 87//57 5//57
f 5//58 88//58 6//58
f 86//59 98//59 87//59
f 93//60 57//60 53//60
f 94//61 230//61 54//61
f 91//62 272//62 94//62
f 93//63 229//63 271//63
f 110//64 285//64 101//64
f 109//65 103//65 108//65
f 174//66 97//66 86//66
f 85//67 99//67 115//67
f 285//68 104//68 101//68
f 103//69 105//69 106//69
f 102//70 104//70 105//70
f 108//71 118//71 117//71
f 110//72 102//72 109//72
f 105//73 112//73 113//73
f 116//74 114//74 111//74
f 279//75 111//75 300//75
f 103//76 116//76 118//76
f 97//77 109//77 98//77
f 99//78 117//78 115//78
f 98//79 108//79 99//79
f 278//80 110//80 97//80
f 303//81 114//81 113//81
f 112//82 303//82 113//82
f 301//83 111//83 114//83
f 106//84 113//84 114//84
f 289//85 112//85 104//85
f 95//86 276//86 115//86
f 100//87 117//87 118//87
f 96//88 118//88 116//88
f 95//89 117//89 107//89
f 96//90 279//90 312//90
f 274//91 234//91 228//91
f 217//92 223//92 213//92
f 182//93 178//93 168//93
f 266//94 169//94 263//94
f 177//95 185//95 170//95
f 266//96 281//96 265//96
f 179//97 183//97 171//97
f 172//98 307//98 263//98
f 221//99 175//99 167//99
f 169//100 224//100 214//100
f 213//101 264//101 267//101
f 170//102 230//102 228//102
f 180//103 188//103 179//103
f 181//104 177//104 178//104
f 170//105 184//105 173//105
f 173//106 186//106 180//106
f 183//107 168//107 171//107
f 207//108 185//108 187//108
f 188//109 205//109 183//109
f 205//110 182//110 183//110
f 182//111 212//111 181//111
f 186//112 206//112 188//112
f 181//113 207//113 187//113
f 184//114 208//114 186//114
f 233//115 267//115 270//115
f 237//116 218//116 217//116
f 237//117 213//117 233//117
f 238//118 214//118 218//118
f 268//119 172//119 263//119
f 176//120 220//120 169//120
f 222//121 176//121 175//121
f 223//122 167//122 213//122
f 224//123 218//123 214//123
f 226//124 217//124 218//124
f 177//125 228//125 232//125
f 178//126 227//126 168//126
f 177//127 231//127 178//127
f 185//128 211//128 184//128
f 171//129 227//129 229//129
f 269//130 216//130 268//130
f 228//131 238//131 232//131
f 231//132 233//132 227//132
f 232//133 237//133 231//133
f 225//134 255//134 223//134
f 258//135 222//135 221//135
f 223//136 258//136 221//136
f 257//137 224//137 220//137
f 222//138 261//138 219//138
f 219//139 257//139 220//139
f 260//140 226//140 224//140
f 262//141 225//141 226//141
f 271//142 270//142 235//142
f 234//143 268//143 214//143
f 169//144 268//144 263//144
f 270//145 215//145 235//145
f 267//146 174//146 215//146
f 167//147 265//147 264//147
f 175//148 266//148 265//148
f 281//149 264//149 265//149
f 233//150 273//150 227//150
f 230//151 274//151 228//151
f 274//152 236//152 269//152
f 273//153 229//153 227//153
f 297//154 285//154 296//154
f 294//155 287//155 295//155
f 280//156 174//156 264//156
f 263//157 282//157 266//157
f 290//158 285//158 286//158
f 288//159 291//159 287//159
f 287//160 290//160 286//160
f 310//161 294//161 309//161
f 287//162 297//162 295//162
f 291//163 304//163 290//163
f 308//164 306//164 292//164
f 279//165 299//165 308//165
f 308//166 288//166 310//166
f 295//167 280//167 281//167
f 307//168 294//168 282//168
f 282//169 295//169 281//169
f 297//170 278//170 280//170
f 306//171 303//171 305//171
f 304//172 303//172 302//172
f 301//173 299//173 300//173
f 292//174 305//174 291//174
f 304//175 289//175 290//175
f 275//176 276//176 311//176
f 310//177 293//177 283//177
f 277//178 310//178 283//178
f 309//179 275//179 293//179
f 279//180 277//180 312//180
f 94//181 54//181 58//181
f 43//182 41//182 49//182
f 8//183 9//183 10//183
f 88//184 85//184 3//184
f 7//185 4//185 13//185
f 88//186 87//186 98//186
f 171//187 11//187 16//187
f 172//188 85//188 115//188
f 5//189 48//189 47//189
f 3//190 42//190 50//190
f 89//191 86//191 1//191
f 54//192 230//192 173//192
f 179//193 16//193 14//193
f 8//194 7//194 15//194
f 4//195 173//195 12//195
f 180//196 14//196 12//196
f 2//197 10//197 11//197
f 13//198 38//198 35//198
f 16//199 11//199 33//199
f 11//200 10//200 37//200
f 9//201 40//201 37//201
f 16//202 34//202 36//202
f 15//203 35//203 40//203
f 12//204 14//204 36//204
f 89//205 41//205 57//205
f 43//206 44//206 60//206
f 41//207 43//207 59//207
f 60//208 44//208 42//208
f 172//209 216//209 90//209
f 6//210 3//210 46//210
f 6//211 45//211 48//211
f 1//212 47//212 49//212
f 44//213 52//213 50//213
f 44//214 43//214 51//214
f 7//215 56//215 54//215
f 53//216 55//216 8//216
f 8//217 55//217 56//217
f 13//218 12//218 39//218
f 229//219 53//219 2//219
f 216//220 236//220 91//220
f 56//221 60//221 58//221
f 53//222 57//222 59//222
f 55//223 59//223 60//223
f 51//224 49//224 77//224
f 48//225 81//225 80//225
f 49//226 47//226 80//226
f 50//227 82//227 79//227
f 48//228 45//228 83//228
f 45//229 46//229 79//229
f 52//230 84//230 82//230
f 51//231 78//231 84//231
f 235//232 92//232 93//232
f 90//233 91//233 58//233
f 3//234 85//234 90//234
f 215//235 89//235 92//235
f 174//236 86//236 89//236
f 1//237 86//237 87//237
f 5//238 87//238 88//238
f 86//239 97//239 98//239
f 93//240 92//240 57//240
f 94//241 272//241 230//241
f 91//242 236//242 272//242
f 93//243 53//243 229//243
f 110//244 296//244 285//244
f 109//245 102//245 103//245
f 174//246 278//246 97//246
f 85//247 88//247 99//247
f 285//248 289//248 104//248
f 103//249 102//249 105//249
f 102//250 101//250 104//250
f 108//251 103//251 118//251
f 110//252 101//252 102//252
f 105//253 104//253 112//253
f 116//254 106//254 114//254
f 279//255 116//255 111//255
f 103//256 106//256 116//256
f 97//257 110//257 109//257
f 99//258 108//258 117//258
f 98//259 109//259 108//259
f 278//260 296//260 110//260
f 303//261 301//261 114//261
f 112//262 302//262 303//262
f 301//263 300//263 111//263
f 106//264 105//264 113//264
f 289//265 302//265 112//265
f 95//266 311//266 276//266
f 100//267 107//267 117//267
f 96//268 100//268 118//268
f 95//269 115//269 117//269
f 96//270 116//270 279//270
f 274//271 269//271 234//271
f 217//272 225//272 223//272
f 182//273 181//273 178//273
f 266//274 176//274 169//274
f 177//275 187//275 185//275
f 266//276 282//276 281//276
f 179//277 188//277 183//277
f 172//278 276//278 307//278
f 221//279 222//279 175//279
f 169//280 220//280 224//280
f 213//281 167//281 264//281
f 170//282 173//282 230//282
f 180//283 186//283 188//283
f 181//284 187//284 177//284
f 170//285 185//285 184//285
f 173//286 184//286 186//286
f 183//287 182//287 168//287
f 207//288 210//288 185//288
f 188//289 206//289 205//289
f 205//290 209//290 182//290
f 182//291 209//291 212//291
f 186//292 208//292 206//292
f 181//293 212//293 207//293
f 184//294 211//294 208//294
f 233//295 213//295 267//295
f 237//296 238//296 218//296
f 237//297 217//297 213//297
f 238//298 234//298 214//298
f 268//299 216//299 172//299
f 176//300 219//300 220//300
f 222//301 219//301 176//301
f 223//302 221//302 167//302
f 224//303 226//303 218//303
f 226//304 225//304 217//304
f 177//305 170//305 228//305
f 178//306 231//306 227//306
f 177//307 232//307 231//307
f 185//308 210//308 211//308
f 171//309 168//309 227//309
f 269//310 236//310 216//310
f 228//311 234//311 238//311
f 231//312 237//312 233//312
f 232//313 238//313 237//313
f 225//314 256//314 255//314
f 258//315 259//315 222//315
f 223//316 255//316 258//316
f 257//317 260//317 224//317
f 222//318 259//318 261//318
f 219//319 261//319 257//319
f 260//320 262//320 226//320
f 262//321 256//321 225//321
f 271//322 273//322 270//322
f 234//323 269//323 268//323
f 169//324 214//324 268//324
f 270//325 267//325 215//325
f 267//326 264//326 174//326
f 167//327 175//327 265//327
f 175//328 176//328 266//328
f 281//329 280//329 264//329
f 233//330 270//330 273//330
f 230//331 272//331 274//331
f 274//332 272//332 236//332
f 273//333 271//333 229//333
f 297//334 286//334 285//334
f 294//335 288//335 287//335
f 280//336 278//336 174//336
f 263//337 307//337 282//337
f 290//338 289//338 285//338
f 288//339 292//339 291//339
f 287//340 291//340 290//340
f 310//341 288//341 294//341
f 287//342 286//342 297//342
f 291//343 305//343 304//343
f 308//344 299//344 306//344
f 279//345 300//345 299//345
f 308//346 292//346 288//346
f 295//347 297//347 280//347
f 307//348 309//348 294//348
f 282//349 294//349 295//349
f 297//350 296//350 278//350
f 306//351 301//351 303//351
f 304//352 305//352 303//352
f 301//353 306//353 299//353
f 292//354 306//354 305//354
f 304//355 302//355 289//355
f 275//356 307//356 276//356
f 310//357 309//357 293//357
f 277//358 308//358 310//358
f 309//359 307//359 275//359
f 279//360 308//360 277//360
usemtl color_2
f 95//361 298//361 311//361
f 284//362 107//362 100//362
f 284//363 96//363 312//363
f 298//364 275//364 311//364
f 293//365 284//365 283//365
f 277//366 284//366 312//366
f 95//367 107//367 298//367
f 284//368 298//368 107//368
f 284//369 100//369 96//369
f 298//370 293//370 275//370
f 293//371 298//371 284//371
f 277//372 283//372 284//372
usemtl color_3
f 160//373 157//373 154//373
f 148//374 19//374 24//374
f 147//375 18//375 19//375
f 23//376 20//376 22//376
f 17//376 19//376 18//376
f 17//376 22//376 24//376
f 143//377 17//377 18//377
f 148//378 22//378 150//378
f 146//379 23//379 17//379
f 161//380 155//380 162//380
f 36//381 30//381 39//381
f 40//382 29//382 31//382
f 34//383 32//383 36//383
f 37//384 31//384 26//384
f 159//376 154//376 153//376
f 38//385 30//385 28//385
f 34//386 25//386 27//386
f 35//387 28//387 29//387
f 33//388 26//388 25//388
f 123//389 141//389 139//389
f 63//390 131//390 64//390
f 124//391 141//391 125//391
f 61//392 66//392 68//392
f 65//393 64//393 67//393
f 67//394 61//394 68//394
f 65//395 134//395 132//395
f 62//396 129//396 130//396
f 119//397 136//397 127//397
f 67//398 135//398 134//398
f 119//399 140//399 124//399
f 78//400 76//400 84//400
f 82//401 76//401 73//401
f 83//402 74//402 75//402
f 81//403 75//403 71//403
f 82//404 74//404 79//404
f 77//405 70//405 69//405
f 80//406 71//406 70//406
f 78//407 69//407 72//407
f 76//408 125//408 123//408
f 76//409 121//409 73//409
f 75//410 126//410 122//410
f 75//411 120//411 71//411
f 74//412 121//412 126//412
f 70//413 124//413 69//413
f 71//414 119//414 70//414
f 72//415 124//415 125//415
f 141//416 132//416 134//416
f 136//417 128//417 127//417
f 140//418 128//418 132//418
f 137//419 130//419 142//419
f 136//420 129//420 131//420
f 138//421 130//421 129//421
f 139//422 133//422 137//422
f 141//423 135//423 139//423
f 66//424 135//424 68//424
f 61//425 131//425 129//425
f 121//426 139//426 137//426
f 63//427 132//427 128//427
f 126//428 138//428 122//428
f 62//429 133//429 66//429
f 122//430 136//430 120//430
f 126//431 137//431 142//431
f 28//432 145//432 144//432
f 32//433 145//433 30//433
f 31//434 149//434 146//434
f 27//435 150//435 32//435
f 26//436 146//436 143//436
f 26//437 147//437 25//437
f 25//438 148//438 27//438
f 29//439 144//439 149//439
f 157//440 153//440 154//440
f 158//441 152//441 156//441
f 156//442 153//442 155//442
f 162//443 157//443 163//443
f 164//376 151//376 165//376
f 161//444 158//444 156//444
f 165//445 158//445 166//445
f 164//376 153//376 152//376
f 156//446 157//446 155//446
f 20//376 159//376 164//376
f 22//447 166//447 150//447
f 145//448 166//448 161//448
f 20//376 165//376 22//376
f 144//449 163//449 149//449
f 21//376 160//376 159//376
f 144//450 161//450 162//450
f 23//451 163//451 160//451
f 354//452 351//452 357//452
f 342//453 191//453 341//453
f 341//454 190//454 337//454
f 192//455 195//455 194//455
f 191//455 189//455 190//455
f 194//455 189//455 196//455
f 337//456 189//456 340//456
f 194//457 342//457 344//457
f 340//458 195//458 343//458
f 349//459 355//459 356//459
f 211//460 204//460 208//460
f 203//461 207//461 212//461
f 208//462 199//462 206//462
f 209//463 203//463 212//463
f 353//455 348//455 354//455
f 210//464 202//464 211//464
f 199//465 205//465 206//465
f 201//466 210//466 207//466
f 197//467 209//467 205//467
f 317//468 335//468 319//468
f 325//469 241//469 242//469
f 335//470 318//470 319//470
f 244//471 239//471 246//471
f 243//472 242//472 241//472
f 246//473 242//473 245//473
f 243//474 328//474 245//474
f 240//475 323//475 239//475
f 313//476 330//476 314//476
f 245//477 329//477 246//477
f 334//478 313//478 318//478
f 254//479 256//479 262//479
f 251//480 262//480 260//480
f 261//481 252//481 257//481
f 259//482 253//482 261//482
f 257//483 251//483 260//483
f 255//484 248//484 258//484
f 258//485 249//485 259//485
f 256//486 247//486 255//486
f 254//487 319//487 250//487
f 315//488 254//488 251//488
f 253//489 320//489 252//489
f 314//490 253//490 249//490
f 252//491 315//491 251//491
f 318//492 248//492 247//492
f 313//493 249//493 248//493
f 250//494 318//494 247//494
f 335//495 326//495 334//495
f 322//496 330//496 321//496
f 334//497 322//497 321//497
f 324//498 331//498 336//498
f 330//499 323//499 332//499
f 332//500 324//500 336//500
f 327//501 333//501 331//501
f 329//502 335//502 333//502
f 329//503 244//503 246//503
f 323//504 242//504 239//504
f 315//505 333//505 317//505
f 241//506 326//506 243//506
f 332//507 320//507 316//507
f 327//508 240//508 244//508
f 330//509 316//509 314//509
f 320//510 331//510 315//510
f 200//511 339//511 202//511
f 202//512 344//512 204//512
f 203//513 343//513 201//513
f 344//514 199//514 204//514
f 337//515 203//515 198//515
f 341//516 198//516 197//516
f 199//517 341//517 197//517
f 343//518 200//518 201//518
f 351//519 347//519 349//519
f 346//520 352//520 350//520
f 347//521 350//521 349//521
f 351//522 356//522 357//522
f 345//455 358//455 359//455
f 355//523 352//523 360//523
f 352//524 359//524 360//524
f 358//455 347//455 353//455
f 350//525 351//525 352//525
f 192//455 353//455 193//455
f 360//526 194//526 344//526
f 339//527 360//527 344//527
f 359//455 192//455 194//455
f 357//528 338//528 343//528
f 193//455 354//455 195//455
f 338//529 355//529 339//529
f 195//530 357//530 343//530
f 160//531 163//531 157//531
f 148//532 147//532 19//532
f 147//533 143//533 18//533
f 23//376 21//376 20//376
f 17//376 24//376 19//376
f 17//376 23//376 22//376
f 143//534 146//534 17//534
f 148//535 24//535 22//535
f 146//536 149//536 23//536
f 161//537 156//537 155//537
f 36//538 32//538 30//538
f 40//539 35//539 29//539
f 34//540 27//540 32//540
f 37//541 40//541 31//541
f 159//376 160//376 154//376
f 38//542 39//542 30//542
f 34//543 33//543 25//543
f 35//544 38//544 28//544
f 33//545 37//545 26//545
f 123//389 125//389 141//389
f 63//546 128//546 131//546
f 124//547 140//547 141//547
f 61//392 62//392 66//392
f 65//393 63//393 64//393
f 67//394 64//394 61//394
f 65//548 67//548 134//548
f 62//549 61//549 129//549
f 119//550 120//550 136//550
f 67//398 68//398 135//398
f 119//399 127//399 140//399
f 78//551 72//551 76//551
f 82//552 84//552 76//552
f 83//553 79//553 74//553
f 81//554 83//554 75//554
f 82//555 73//555 74//555
f 77//556 80//556 70//556
f 80//557 81//557 71//557
f 78//558 77//558 69//558
f 76//559 72//559 125//559
f 76//560 123//560 121//560
f 75//561 74//561 126//561
f 75//562 122//562 120//562
f 74//563 73//563 121//563
f 70//564 119//564 124//564
f 71//565 120//565 119//565
f 72//566 69//566 124//566
f 141//567 140//567 132//567
f 136//568 131//568 128//568
f 140//418 127//418 128//418
f 137//419 133//419 130//419
f 136//420 138//420 129//420
f 138//569 142//569 130//569
f 139//570 135//570 133//570
f 141//423 134//423 135//423
f 66//571 133//571 135//571
f 61//425 64//425 131//425
f 121//572 123//572 139//572
f 63//427 65//427 132//427
f 126//573 142//573 138//573
f 62//429 130//429 133//429
f 122//430 138//430 136//430
f 126//431 121//431 137//431
f 28//574 30//574 145//574
f 32//575 150//575 145//575
f 31//576 29//576 149//576
f 27//577 148//577 150//577
f 26//578 31//578 146//578
f 26//579 143//579 147//579
f 25//580 147//580 148//580
f 29//581 28//581 144//581
f 157//582 155//582 153//582
f 158//583 151//583 152//583
f 156//584 152//584 153//584
f 162//585 155//585 157//585
f 164//376 152//376 151//376
f 161//586 166//586 158//586
f 165//587 151//587 158//587
f 164//376 159//376 153//376
f 156//588 158//588 157//588
f 20//376 21//376 159//376
f 22//589 165//589 166//589
f 145//448 150//448 166//448
f 20//376 164//376 165//376
f 144//449 162//449 163//449
f 21//376 23//376 160//376
f 144//450 145//450 161//450
f 23//590 149//590 163//590
f 354//591 348//591 351//591
f 342//592 196//592 191//592
f 341//593 191//593 190//593
f 192//455 193//455 195//455
f 191//455 196//455 189//455
f 194//455 195//455 189//455
f 337//594 190//594 189//594
f 194//595 196//595 342//595
f 340//596 189//596 195//596
f 349//597 350//597 355//597
f 211//598 202//598 204//598
f 203//599 201//599 207//599
f 208//600 204//600 199//600
f 209//601 198//601 203//601
f 353//455 347//455 348//455
f 210//602 200//602 202//602
f 199//603 197//603 205//603
f 201//604 200//604 210//604
f 197//605 198//605 209//605
f 317//468 333//468 335//468
f 325//606 322//606 241//606
f 335//607 334//607 318//607
f 244//471 240//471 239//471
f 243//472 245//472 242//472
f 246//473 239//473 242//473
f 243//608 326//608 328//608
f 240//609 324//609 323//609
f 313//610 321//610 330//610
f 245//477 328//477 329//477
f 334//478 321//478 313//478
f 254//611 250//611 256//611
f 251//612 254//612 262//612
f 261//613 253//613 252//613
f 259//614 249//614 253//614
f 257//615 252//615 251//615
f 255//616 247//616 248//616
f 258//617 248//617 249//617
f 256//618 250//618 247//618
f 254//619 317//619 319//619
f 315//620 317//620 254//620
f 253//621 316//621 320//621
f 314//622 316//622 253//622
f 252//623 320//623 315//623
f 318//624 313//624 248//624
f 313//625 314//625 249//625
f 250//626 319//626 318//626
f 335//627 328//627 326//627
f 322//628 325//628 330//628
f 334//497 326//497 322//497
f 324//498 327//498 331//498
f 330//499 325//499 323//499
f 332//629 323//629 324//629
f 327//630 329//630 333//630
f 329//502 328//502 335//502
f 329//631 327//631 244//631
f 323//504 325//504 242//504
f 315//632 331//632 333//632
f 241//506 322//506 326//506
f 332//633 336//633 320//633
f 327//508 324//508 240//508
f 330//509 332//509 316//509
f 320//510 336//510 331//510
f 200//634 338//634 339//634
f 202//635 339//635 344//635
f 203//636 340//636 343//636
f 344//637 342//637 199//637
f 337//638 340//638 203//638
f 341//639 337//639 198//639
f 199//640 342//640 341//640
f 343//641 338//641 200//641
f 351//642 348//642 347//642
f 346//643 345//643 352//643
f 347//644 346//644 350//644
f 351//645 349//645 356//645
f 345//455 346//455 358//455
f 355//646 350//646 352//646
f 352//647 345//647 359//647
f 358//455 346//455 347//455
f 350//648 349//648 351//648
f 192//455 358//455 353//455
f 360//649 359//649 194//649
f 339//527 355//527 360//527
f 359//455 358//455 192//455
f 357//528 356//528 338//528
f 193//455 353//455 354//455
f 338//529 356//529 355//529
f 195//650 354//650 357//650
